M48
;DRILL file {KiCad 4.0.7} date 12/27/18 16:21:05
;FORMAT={3:3/ absolute / metric / suppress trailing zeros}
FMAT,2
METRIC,LZ
T1C0.400
T2C1.000
T3C1.270
T4C1.524
%
G90
G05
M71
T1
X067155Y-133242
X072009Y-128968
X072974Y-102895
X074041Y-134176
X074359Y-130366
X074803Y-102591
X075001Y-108773
X075311Y-099441
X075413Y-112674
X075565Y-111252
X075629Y-114618
X075905Y-128492
X075936Y-069474
X076581Y-091821
X076581Y-098171
X076835Y-133858
X076962Y-107188
X077292Y-125476
X077405Y-138742
X07747Y-104396
X077851Y-119634
X07809Y-108732
X07813Y-070612
X078918Y-102616
X079121Y-091948
X079121Y-098171
X079312Y-079819
X07935Y-125171
X079405Y-128492
X079527Y-118034
X079693Y-114554
X08001Y-072707
X08001Y-110554
X080239Y-123596
X080899Y-099441
X081229Y-112598
X081407Y-094615
X081661Y-103251
X081915Y-099314
X082106Y-073248
X082106Y-080328
X082233Y-121666
X082271Y-082855
X082487Y-120269
X082677Y-103759
X082741Y-133223
X082931Y-117094
X082995Y-12935
X083312Y-093345
X083405Y-130242
X083629Y-105093
X084201Y-091821
X084392Y-133414
X084582Y-135763
X084646Y-120142
X084836Y-11303
X084836Y-114757
X084938Y-117958
X085471Y-102934
X085471Y-117094
X085471Y-119634
X085725Y-082042
X085852Y-082982
X085916Y-084011
X086741Y-117094
X087186Y-072707
X087249Y-134684
X08744Y-131826
X087655Y-128492
X087681Y-133401
X087693Y-089472
X087808Y-097536
X087821Y-124269
X087859Y-094564
X087884Y-105537
X087905Y-130242
X087948Y-123126
X088011Y-099441
X088011Y-113284
X088011Y-11811
X088011Y-119634
X088011Y-122238
X088075Y-108014
X088341Y-075286
X088392Y-101346
X088456Y-070168
X088456Y-077788
X088494Y-088671
X088519Y-102235
X088646Y-082995
X088709Y-081979
X088748Y-12766
X089103Y-094615
X089218Y-103823
X089344Y-138963
X089726Y-081597
X089865Y-126009
X089916Y-096012
X089916Y-117983
X089992Y-127635
X090018Y-123571
X090043Y-11684
X090081Y-131204
X090099Y-12858
X090297Y-122682
X090322Y-088748
X090405Y-131992
X090551Y-112166
X090551Y-119634
X090678Y-094996
X090678Y-10649
X090805Y-098806
X090907Y-093599
X090983Y-125928
X090996Y-071438
X090996Y-073977
X090996Y-081597
X091186Y-097409
X091405Y-137242
X091821Y-120904
X092075Y-117856
X092202Y-098806
X093091Y-096901
X093405Y-138992
X093599Y-121031
X093853Y-102743
X094005Y-074955
X094043Y-125222
X094054Y-129258
X094361Y-112014
X094361Y-113284
X094361Y-115824
X094424Y-105682
X094488Y-100711
X094488Y-123444
X094676Y-109842
X094806Y-075248
X094806Y-080328
X09525Y-097536
X095441Y-079566
X095631Y-094361
X095631Y-114554
X095655Y-131992
X095834Y-074066
X095982Y-120998
X096076Y-070168
X096076Y-079057
X096266Y-121793
X096901Y-098806
X096901Y-115284
X097155Y-129992
X097155Y-138742
X097599Y-125095
X097655Y-137992
X09779Y-101981
X098044Y-106172
X098552Y-100076
X098679Y-097536
X098933Y-126174
X09906Y-095123
X099441Y-100711
X099441Y-102235
X099441Y-109474
X099441Y-119634
X099886Y-079057
X099886Y-085408
X099886Y-087948
X100711Y-094615
X100711Y-120904
X101155Y-138742
X101156Y-071438
X102362Y-098806
X102362Y-11049
X10287Y-123571
X102997Y-094742
X103251Y-100711
X103251Y-104521
X104521Y-094615
X104521Y-115824
X104966Y-079057
X105029Y-098806
X105155Y-133992
X105155Y-136242
X105219Y-106807
X105405Y-132492
X105474Y-088837
X107061Y-118364
X107061Y-119634
X107315Y-101727
X107569Y-100076
X108331Y-109474
X108839Y-117729
X108905Y-138742
X109155Y-127492
X109347Y-102743
X109601Y-098171
X109601Y-118364
X110586Y-085408
X110871Y-118364
X112141Y-099441
X112141Y-115824
X112586Y-070168
X11303Y-103124
X114681Y-099441
X115253Y-102679
X118201Y-099563
X118293Y-100995
X11841Y-114861
X118577Y-109637
X122809Y-097282
T2
X120459Y-134302
X120459Y-136843
X120587Y-10033
X120587Y-10287
X120587Y-10541
X120587Y-10795
X120587Y-11049
X120587Y-11303
T3
X059944Y-080836
X060071Y-099441
X060071Y-115824
X060405Y-133742
T4
X056769Y-077661
X056769Y-084011
X056896Y-096266
X056896Y-102616
X056896Y-112649
X056896Y-118999
X05723Y-130567
X05723Y-136917
X063119Y-077661
X063119Y-084011
X063246Y-096266
X063246Y-102616
X063246Y-112649
X063246Y-118999
X06358Y-130567
X06358Y-136917
T0
M30
