G04 #@! TF.FileFunction,Copper,L2,Bot,Signal*
%FSLAX46Y46*%
G04 Gerber Fmt 4.6, Leading zero omitted, Abs format (unit mm)*
G04 Created by KiCad (PCBNEW 4.0.7) date 12/27/18 16:20:44*
%MOMM*%
%LPD*%
G01*
G04 APERTURE LIST*
%ADD10C,0.100000*%
%ADD11C,3.810000*%
%ADD12C,3.556000*%
%ADD13R,1.700000X1.700000*%
%ADD14O,1.700000X1.700000*%
%ADD15C,0.600000*%
%ADD16C,0.250000*%
%ADD17C,0.254000*%
G04 APERTURE END LIST*
D10*
D11*
X57230000Y-130567000D03*
D12*
X60405000Y-133742000D03*
D11*
X63580000Y-130567000D03*
X57230000Y-136917000D03*
X63580000Y-136917000D03*
X56896000Y-112649000D03*
D12*
X60071000Y-115824000D03*
D11*
X63246000Y-112649000D03*
X56896000Y-118999000D03*
X63246000Y-118999000D03*
X56896000Y-96266000D03*
D12*
X60071000Y-99441000D03*
D11*
X63246000Y-96266000D03*
X56896000Y-102616000D03*
X63246000Y-102616000D03*
X56769000Y-77660500D03*
D12*
X59944000Y-80835500D03*
D11*
X63119000Y-77660500D03*
X56769000Y-84010500D03*
X63119000Y-84010500D03*
D13*
X120586500Y-100330000D03*
D14*
X120586500Y-102870000D03*
X120586500Y-105410000D03*
X120586500Y-107950000D03*
X120586500Y-110490000D03*
X120586500Y-113030000D03*
D13*
X120459500Y-134302500D03*
D14*
X120459500Y-136842500D03*
D15*
X118201440Y-99562920D03*
X118409720Y-114861340D03*
X118577360Y-109636560D03*
X118292880Y-100995480D03*
X75565000Y-111252000D03*
X89916000Y-117983000D03*
X96266000Y-121793000D03*
X102870000Y-123571000D03*
X88011000Y-113284000D03*
X90098880Y-128579880D03*
X90982800Y-125928120D03*
X78089760Y-108732320D03*
X75001120Y-108772960D03*
X75935840Y-69474080D03*
X78130400Y-70612000D03*
X94424500Y-105681780D03*
X94675960Y-109842300D03*
X89344500Y-138963400D03*
X90081100Y-131203700D03*
X75412600Y-112674400D03*
X81229200Y-112598200D03*
X77292200Y-125476000D03*
X79349600Y-125171200D03*
X89103200Y-94615000D03*
X87807800Y-97536000D03*
X95834200Y-74066400D03*
X94005400Y-74955400D03*
X82270600Y-82854800D03*
X85852000Y-82981800D03*
X74358500Y-130365500D03*
X72009000Y-128968500D03*
X74041000Y-134175500D03*
X76835000Y-133858000D03*
X97599500Y-125095000D03*
X98933000Y-126174500D03*
X82740500Y-133223000D03*
X84391500Y-133413500D03*
X100711000Y-120904000D03*
X99441000Y-109474000D03*
X90297000Y-122682000D03*
X88011000Y-118110000D03*
X104521000Y-115824000D03*
X99441000Y-119634000D03*
X79527400Y-118033800D03*
X93599000Y-121031000D03*
X90551000Y-112166400D03*
X112141000Y-115824000D03*
X110871000Y-118364000D03*
X109601000Y-118364000D03*
X107061000Y-118364000D03*
X91821000Y-120904000D03*
X95981520Y-120997980D03*
X94361000Y-112014000D03*
X77851000Y-119634000D03*
X94361000Y-115824000D03*
X94043500Y-125222000D03*
X94488000Y-123444000D03*
X94361000Y-113284000D03*
X95631000Y-114554000D03*
X96901000Y-115284000D03*
X102362000Y-110490000D03*
X107061000Y-119634000D03*
X82931000Y-117094000D03*
X85471000Y-117094000D03*
X88011000Y-119634000D03*
X90551000Y-119634000D03*
X90043000Y-116840000D03*
X92075000Y-117856000D03*
X108839000Y-117729000D03*
X108331000Y-109474000D03*
X81915000Y-99314000D03*
X90805000Y-98806000D03*
X79121000Y-98171000D03*
X76581000Y-98171000D03*
X102362000Y-98806000D03*
X105029000Y-98806000D03*
X107569000Y-100076000D03*
X107315000Y-101727000D03*
X77469993Y-104395593D03*
X103251000Y-104521000D03*
X93853000Y-102743000D03*
X98552000Y-100076000D03*
X96901000Y-98806000D03*
X92202000Y-98806000D03*
X91186000Y-97409000D03*
X89916000Y-96012000D03*
X103251000Y-100711000D03*
X113030000Y-103124000D03*
X109347000Y-102743000D03*
X99441000Y-100711000D03*
X81661000Y-103251000D03*
X94488000Y-100711000D03*
X96075500Y-70167500D03*
X112585500Y-70167500D03*
X99885500Y-85407500D03*
X99885500Y-87947500D03*
X96075500Y-79057500D03*
X94805500Y-75247500D03*
X90995500Y-81597500D03*
X90995500Y-73977500D03*
X90906600Y-93599000D03*
X98679000Y-97536000D03*
X104965500Y-79057500D03*
X94805500Y-80327500D03*
X93091000Y-96901000D03*
X95631000Y-94361000D03*
X81407000Y-94615000D03*
X100711000Y-94615000D03*
X109601000Y-98171000D03*
X95440500Y-79565500D03*
X110585500Y-85407500D03*
X101155500Y-71437500D03*
X102997000Y-94742000D03*
X99060000Y-95123000D03*
X95250000Y-97536000D03*
X90678000Y-94996000D03*
X104521000Y-94615000D03*
X114681000Y-99441000D03*
X87439500Y-131826000D03*
X75905000Y-128492000D03*
X93405000Y-138992000D03*
X77405000Y-138742000D03*
X105405000Y-132492000D03*
X97155000Y-138742000D03*
X109155000Y-127492000D03*
X83405000Y-130242000D03*
X105155000Y-136242000D03*
X97155000Y-129992000D03*
X97655000Y-137992000D03*
X101155000Y-138742000D03*
X94053660Y-129258060D03*
X95655000Y-131992000D03*
X105155000Y-133992000D03*
X108905000Y-138742000D03*
X90405000Y-131992000D03*
X91405000Y-137242000D03*
X87680800Y-133400800D03*
X84836000Y-114757200D03*
X84937600Y-117957600D03*
X78917800Y-102616000D03*
X74803000Y-102590600D03*
X72974200Y-102895400D03*
X88493600Y-88671400D03*
X90322400Y-88747600D03*
X87858600Y-94564200D03*
X85725000Y-82042000D03*
X88341200Y-75285600D03*
X84645500Y-120142000D03*
X84582000Y-135763000D03*
X82994500Y-129349500D03*
X88392000Y-101346000D03*
X97790000Y-101981000D03*
X99441000Y-102235000D03*
X115252500Y-102679500D03*
X87820500Y-124269500D03*
X88709500Y-81978500D03*
X87249000Y-134683500D03*
X80238600Y-123596400D03*
X88747600Y-127660400D03*
X80010000Y-110553500D03*
X79692500Y-114554000D03*
X82486500Y-120269000D03*
X82232500Y-121666000D03*
X88011000Y-122237500D03*
X88646000Y-82994500D03*
X88519000Y-102235000D03*
X89217500Y-103822500D03*
X87884000Y-105537000D03*
X90678000Y-106489500D03*
X98044000Y-106172000D03*
X105219500Y-106807000D03*
X90017600Y-123571000D03*
X89865200Y-126009400D03*
X89992200Y-127635000D03*
X76962000Y-107188000D03*
X75628500Y-114617500D03*
X87947500Y-123126500D03*
X122809000Y-97282000D03*
X105473500Y-88836500D03*
X87693500Y-89471500D03*
X85915500Y-84010500D03*
X85471000Y-102933500D03*
X82677000Y-103759000D03*
X83629500Y-105092500D03*
X88074500Y-108013500D03*
X80899000Y-99441000D03*
X83312000Y-93345000D03*
X88011000Y-99441000D03*
X112141000Y-99441000D03*
X82105500Y-73247500D03*
X82105500Y-80327500D03*
X84201000Y-91821000D03*
X79121000Y-91948000D03*
X75311000Y-99441000D03*
X76581000Y-91821000D03*
X79311500Y-79819500D03*
X99885500Y-79057500D03*
X87185500Y-72707500D03*
X88455500Y-70167500D03*
X90995500Y-71437500D03*
X87655000Y-128492000D03*
X79405000Y-128492000D03*
X84836000Y-113030000D03*
X85471000Y-119634000D03*
X86741000Y-117094000D03*
X80010000Y-72707500D03*
X88455500Y-77787500D03*
X89725500Y-81597500D03*
X87905000Y-130242000D03*
X67155000Y-133242000D03*
D16*
X118409720Y-109804200D02*
X118409720Y-114861340D01*
X118577360Y-109636560D02*
X118409720Y-109804200D01*
X118292880Y-99654360D02*
X118292880Y-100995480D01*
X118292880Y-99654360D02*
X118201440Y-99562920D01*
X88011000Y-113284000D02*
X87630000Y-113284000D01*
X85598000Y-111252000D02*
X75565000Y-111252000D01*
X87630000Y-113284000D02*
X85598000Y-111252000D01*
X86995000Y-114300000D02*
X88011000Y-113284000D01*
X86995000Y-116205000D02*
X86995000Y-114300000D01*
X88138000Y-117348000D02*
X86995000Y-116205000D01*
X89281000Y-117348000D02*
X88138000Y-117348000D01*
X89916000Y-117983000D02*
X89281000Y-117348000D01*
X101092000Y-121793000D02*
X96266000Y-121793000D01*
X102870000Y-123571000D02*
X101092000Y-121793000D01*
X90815160Y-127863600D02*
X90098880Y-128579880D01*
X90815160Y-126095760D02*
X90815160Y-127863600D01*
X90982800Y-125928120D02*
X90815160Y-126095760D01*
X78089760Y-108732320D02*
X78049120Y-108772960D01*
X78049120Y-108772960D02*
X75001120Y-108772960D01*
X76992480Y-69474080D02*
X75935840Y-69474080D01*
X78130400Y-70612000D02*
X76992480Y-69474080D01*
X94424500Y-105681780D02*
X94675960Y-105933240D01*
X94675960Y-105933240D02*
X94675960Y-109842300D01*
X90081100Y-131203700D02*
X89344500Y-131940300D01*
X89344500Y-131940300D02*
X89344500Y-138963400D01*
X81153000Y-112674400D02*
X75412600Y-112674400D01*
X81229200Y-112598200D02*
X81153000Y-112674400D01*
X79044800Y-125476000D02*
X77292200Y-125476000D01*
X79349600Y-125171200D02*
X79044800Y-125476000D01*
X89103200Y-96240600D02*
X89103200Y-94615000D01*
X87807800Y-97536000D02*
X89103200Y-96240600D01*
X95732600Y-73964800D02*
X95834200Y-74066400D01*
X94996000Y-73964800D02*
X95732600Y-73964800D01*
X94005400Y-74955400D02*
X94996000Y-73964800D01*
X85725000Y-82854800D02*
X82270600Y-82854800D01*
X85852000Y-82981800D02*
X85725000Y-82854800D01*
X73406000Y-130365500D02*
X74358500Y-130365500D01*
X72009000Y-128968500D02*
X73406000Y-130365500D01*
X76517500Y-134175500D02*
X74041000Y-134175500D01*
X76835000Y-133858000D02*
X76517500Y-134175500D01*
X97853500Y-125095000D02*
X97599500Y-125095000D01*
X98933000Y-126174500D02*
X97853500Y-125095000D01*
X82740500Y-133223000D02*
X82931000Y-133413500D01*
X82931000Y-133413500D02*
X84391500Y-133413500D01*
X98171000Y-120904000D02*
X100711000Y-120904000D01*
X98171000Y-110744000D02*
X98171000Y-120904000D01*
X99441000Y-109474000D02*
X98171000Y-110744000D01*
X91948000Y-122682000D02*
X90297000Y-122682000D01*
X92964000Y-121666000D02*
X91948000Y-122682000D01*
X92964000Y-120396000D02*
X92964000Y-121666000D01*
X91313000Y-118745000D02*
X92964000Y-120396000D01*
X88646000Y-118745000D02*
X91313000Y-118745000D01*
X88011000Y-118110000D02*
X88646000Y-118745000D01*
X104521000Y-118364000D02*
X104521000Y-115824000D01*
X99441000Y-118364000D02*
X104521000Y-118364000D01*
X99441000Y-119634000D02*
X99441000Y-118364000D01*
X81178400Y-119684800D02*
X79527400Y-118033800D01*
X81178400Y-120904000D02*
X81178400Y-119684800D01*
X81178400Y-120904000D02*
X91821000Y-120904000D01*
X90551000Y-113411000D02*
X90551000Y-112166400D01*
X90551000Y-113411000D02*
X90932000Y-113792000D01*
X90932000Y-113792000D02*
X90932000Y-115316000D01*
X90932000Y-115316000D02*
X93599000Y-117983000D01*
X93599000Y-117983000D02*
X93599000Y-121031000D01*
X112141000Y-117094000D02*
X112141000Y-115824000D01*
X110871000Y-118364000D02*
X112141000Y-117094000D01*
X107061000Y-118364000D02*
X109601000Y-118364000D01*
X81121000Y-120904000D02*
X81178400Y-120904000D01*
X96341440Y-119614440D02*
X96341440Y-120638060D01*
X96341440Y-120638060D02*
X95981520Y-120997980D01*
X96361000Y-119634000D02*
X96341440Y-119614440D01*
X96341440Y-119614440D02*
X95631000Y-118904000D01*
X95631000Y-118904000D02*
X95631000Y-115824000D01*
X93091000Y-113284000D02*
X95631000Y-115824000D01*
X94361000Y-112014000D02*
X93091000Y-113284000D01*
X94361000Y-115824000D02*
X94361000Y-123317000D01*
X77851000Y-119634000D02*
X81661000Y-123444000D01*
X81978500Y-123761500D02*
X81661000Y-123444000D01*
X81978500Y-124142500D02*
X81978500Y-123761500D01*
X83058000Y-125222000D02*
X81978500Y-124142500D01*
X94043500Y-125222000D02*
X83058000Y-125222000D01*
X94361000Y-123317000D02*
X94488000Y-123444000D01*
X94361000Y-113284000D02*
X95631000Y-114554000D01*
X102362000Y-110490000D02*
X103632000Y-110490000D01*
X105791000Y-112649000D02*
X105791000Y-114427000D01*
X103632000Y-110490000D02*
X105791000Y-112649000D01*
X107061000Y-119634000D02*
X105791000Y-118364000D01*
X105791000Y-118364000D02*
X105791000Y-114427000D01*
X105791000Y-114427000D02*
X105791000Y-113284000D01*
X82931000Y-117094000D02*
X85471000Y-117094000D01*
X88011000Y-119634000D02*
X90551000Y-119634000D01*
X91694000Y-117475000D02*
X90678000Y-117475000D01*
X90043000Y-116840000D02*
X90678000Y-117475000D01*
X91694000Y-117475000D02*
X92075000Y-117856000D01*
X92075000Y-117856000D02*
X91694000Y-117475000D01*
X108331000Y-117221000D02*
X108331000Y-109474000D01*
X108839000Y-117729000D02*
X108331000Y-117221000D01*
X82550000Y-98679000D02*
X81915000Y-99314000D01*
X90678000Y-98679000D02*
X82550000Y-98679000D01*
X90805000Y-98806000D02*
X90678000Y-98679000D01*
X76581000Y-98171000D02*
X79121000Y-98171000D01*
X105029000Y-98806000D02*
X102362000Y-98806000D01*
X107569000Y-101473000D02*
X107569000Y-100076000D01*
X107315000Y-101727000D02*
X107569000Y-101473000D01*
X77469993Y-104395593D02*
X77977982Y-104397717D01*
X77977982Y-104397717D02*
X103251000Y-104521000D01*
X77977982Y-104397717D02*
X77977982Y-104397717D01*
X94107000Y-102997000D02*
X93853000Y-102743000D01*
X97790000Y-102997000D02*
X94107000Y-102997000D01*
X98552000Y-102235000D02*
X97790000Y-102997000D01*
X98552000Y-100076000D02*
X98552000Y-102235000D01*
X92202000Y-98806000D02*
X96901000Y-98806000D01*
X91186000Y-97282000D02*
X91186000Y-97409000D01*
X89916000Y-96012000D02*
X91186000Y-97282000D01*
X109728000Y-103124000D02*
X113030000Y-103124000D01*
X109347000Y-102743000D02*
X109728000Y-103124000D01*
X99441000Y-100711000D02*
X103251000Y-100711000D01*
X81661000Y-103251000D02*
X84201000Y-100711000D01*
X84201000Y-100711000D02*
X94488000Y-100711000D01*
X112585500Y-70167500D02*
X96075500Y-70167500D01*
X99885500Y-87947500D02*
X99885500Y-85407500D01*
X96075500Y-76517500D02*
X96075500Y-79057500D01*
X94805500Y-75247500D02*
X96075500Y-76517500D01*
X90995500Y-73977500D02*
X90995500Y-81597500D01*
X91109800Y-93726000D02*
X91033600Y-93726000D01*
X91033600Y-93726000D02*
X90906600Y-93599000D01*
X98679000Y-96012000D02*
X98679000Y-97536000D01*
X96393000Y-93726000D02*
X98679000Y-96012000D01*
X91059000Y-93726000D02*
X91109800Y-93726000D01*
X91109800Y-93726000D02*
X96393000Y-93726000D01*
X104965500Y-80327500D02*
X104965500Y-79057500D01*
X94805500Y-80327500D02*
X104965500Y-80327500D01*
X94361000Y-96901000D02*
X93091000Y-96901000D01*
X94361000Y-95631000D02*
X94361000Y-96901000D01*
X95631000Y-94361000D02*
X94361000Y-95631000D01*
X83471000Y-98171000D02*
X81026000Y-98171000D01*
X100711000Y-98171000D02*
X89281000Y-98171000D01*
X83471000Y-98171000D02*
X89281000Y-98171000D01*
X81026000Y-94615000D02*
X81407000Y-94615000D01*
X80264000Y-95377000D02*
X81026000Y-94615000D01*
X80264000Y-97409000D02*
X80264000Y-95377000D01*
X81026000Y-98171000D02*
X80264000Y-97409000D01*
X100711000Y-96361000D02*
X100711000Y-98171000D01*
X100711000Y-96393000D02*
X100711000Y-96361000D01*
X100711000Y-94615000D02*
X100711000Y-96393000D01*
X100711000Y-98171000D02*
X109601000Y-98171000D01*
X95440500Y-79565500D02*
X95567500Y-79692500D01*
X95567500Y-79692500D02*
X102933500Y-79692500D01*
X102933500Y-79692500D02*
X103187500Y-79438500D01*
X103187500Y-79438500D02*
X103187500Y-73596500D01*
X103187500Y-73596500D02*
X101155500Y-71564500D01*
X101155500Y-71564500D02*
X101155500Y-71437500D01*
X107505500Y-71437500D02*
X101155500Y-71437500D01*
X108775500Y-72707500D02*
X107505500Y-71437500D01*
X108775500Y-83597500D02*
X108775500Y-72707500D01*
X110585500Y-85407500D02*
X108775500Y-83597500D01*
X101473000Y-93218000D02*
X102997000Y-94742000D01*
X99568000Y-93218000D02*
X101473000Y-93218000D01*
X98679000Y-94107000D02*
X99568000Y-93218000D01*
X98679000Y-94742000D02*
X98679000Y-94107000D01*
X99060000Y-95123000D02*
X98679000Y-94742000D01*
X92779002Y-97536000D02*
X95250000Y-97536000D01*
X92456000Y-97212998D02*
X92779002Y-97536000D01*
X92456000Y-96774000D02*
X92456000Y-97212998D01*
X90678000Y-94996000D02*
X92456000Y-96774000D01*
X104537000Y-94631000D02*
X104537000Y-96377000D01*
X104521000Y-94615000D02*
X104537000Y-94631000D01*
X105045000Y-96885000D02*
X112506000Y-96885000D01*
X114681000Y-99060000D02*
X114681000Y-99441000D01*
X112506000Y-96885000D02*
X114681000Y-99060000D01*
X105061000Y-96901000D02*
X105045000Y-96885000D01*
X105045000Y-96885000D02*
X104537000Y-96377000D01*
X104537000Y-96377000D02*
X104521000Y-96361000D01*
X78422500Y-131000500D02*
X78422500Y-131009500D01*
X79463998Y-132041998D02*
X78422500Y-131000500D01*
X87223502Y-132041998D02*
X79463998Y-132041998D01*
X87439500Y-131826000D02*
X87223502Y-132041998D01*
X75905000Y-128492000D02*
X78422500Y-131009500D01*
X78422500Y-131009500D02*
X78655000Y-131242000D01*
X91905000Y-140492000D02*
X93405000Y-138992000D01*
X79155000Y-140492000D02*
X91905000Y-140492000D01*
X77405000Y-138742000D02*
X79155000Y-140492000D01*
X105155000Y-132492000D02*
X105405000Y-132492000D01*
X98655000Y-138992000D02*
X105155000Y-132492000D01*
X97405000Y-138992000D02*
X98655000Y-138992000D01*
X97155000Y-138742000D02*
X97405000Y-138992000D01*
X92155000Y-127492000D02*
X109155000Y-127492000D01*
X90405000Y-129242000D02*
X92155000Y-127492000D01*
X84405000Y-129242000D02*
X90405000Y-129242000D01*
X83405000Y-130242000D02*
X84405000Y-129242000D01*
X103905000Y-137492000D02*
X105155000Y-136242000D01*
X102405000Y-137492000D02*
X103905000Y-137492000D01*
X101155000Y-138742000D02*
X102405000Y-137492000D01*
X97155000Y-137492000D02*
X97155000Y-129992000D01*
X97655000Y-137992000D02*
X97155000Y-137492000D01*
X94068900Y-130462020D02*
X94053660Y-129258060D01*
X94405000Y-130742000D02*
X94068900Y-130462020D01*
X95655000Y-131992000D02*
X94405000Y-130742000D01*
X105155000Y-134992000D02*
X105155000Y-133992000D01*
X108905000Y-138742000D02*
X105155000Y-134992000D01*
X90405000Y-136242000D02*
X90405000Y-131992000D01*
X91405000Y-137242000D02*
X90405000Y-136242000D01*
X87680800Y-133400800D02*
X87703660Y-133400800D01*
X118193820Y-134302500D02*
X120459500Y-134302500D01*
X117835680Y-134660640D02*
X118193820Y-134302500D01*
X117835680Y-136977120D02*
X117835680Y-134660640D01*
X114950240Y-139862560D02*
X117835680Y-136977120D01*
X96136460Y-139862560D02*
X114950240Y-139862560D01*
X94018100Y-137744200D02*
X96136460Y-139862560D01*
X92481400Y-137744200D02*
X94018100Y-137744200D01*
X90525600Y-139700000D02*
X92481400Y-137744200D01*
X88765380Y-139700000D02*
X90525600Y-139700000D01*
X88206580Y-139141200D02*
X88765380Y-139700000D01*
X88206580Y-133903720D02*
X88206580Y-139141200D01*
X87703660Y-133400800D02*
X88206580Y-133903720D01*
X84836000Y-114757200D02*
X84836000Y-114388900D01*
X72974200Y-111826040D02*
X72974200Y-102895400D01*
X73060560Y-111912400D02*
X72974200Y-111826040D01*
X84754720Y-111912400D02*
X73060560Y-111912400D01*
X86004971Y-113162651D02*
X84754720Y-111912400D01*
X86004971Y-113219929D02*
X86004971Y-113162651D01*
X84836000Y-114388900D02*
X86004971Y-113219929D01*
X84810600Y-117957600D02*
X84937600Y-117957600D01*
X78917800Y-102616000D02*
X78892400Y-102590600D01*
X78892400Y-102590600D02*
X74803000Y-102590600D01*
X72948800Y-102895400D02*
X72948800Y-102870000D01*
X72974200Y-102895400D02*
X72948800Y-102895400D01*
X88468200Y-88773000D02*
X88442800Y-88798400D01*
X88468200Y-88696800D02*
X88468200Y-88773000D01*
X88493600Y-88671400D02*
X88468200Y-88696800D01*
X90322400Y-92100400D02*
X90322400Y-88747600D01*
X87858600Y-94564200D02*
X90322400Y-92100400D01*
X85725000Y-82042000D02*
X85725000Y-82016600D01*
X97155000Y-101346000D02*
X88392000Y-101346000D01*
X97790000Y-101981000D02*
X97155000Y-101346000D01*
X99758500Y-102552500D02*
X99441000Y-102235000D01*
X107950000Y-102552500D02*
X99758500Y-102552500D01*
X108648500Y-101854000D02*
X107950000Y-102552500D01*
X114427000Y-101854000D02*
X108648500Y-101854000D01*
X115252500Y-102679500D02*
X114427000Y-101854000D01*
X120586500Y-102870000D02*
X118491000Y-102870000D01*
X109664500Y-124269500D02*
X87820500Y-124269500D01*
X115951000Y-117983000D02*
X109664500Y-124269500D01*
X115951000Y-105410000D02*
X115951000Y-117983000D01*
X118491000Y-102870000D02*
X115951000Y-105410000D01*
X120586500Y-105410000D02*
X121221500Y-105410000D01*
X121221500Y-105410000D02*
X123063000Y-103568500D01*
X123063000Y-103568500D02*
X123063000Y-99314000D01*
X123063000Y-99314000D02*
X113220500Y-89471500D01*
X113220500Y-89471500D02*
X94996000Y-89471500D01*
X94996000Y-89471500D02*
X92329000Y-86804500D01*
X92329000Y-86804500D02*
X90995500Y-86804500D01*
X90995500Y-86804500D02*
X90487500Y-86296500D01*
X90487500Y-86296500D02*
X90487500Y-83756500D01*
X90487500Y-83756500D02*
X88709500Y-81978500D01*
X120586500Y-107950000D02*
X118237000Y-107950000D01*
X83947000Y-134683500D02*
X87249000Y-134683500D01*
X83375500Y-134112000D02*
X83947000Y-134683500D01*
X80327500Y-134112000D02*
X83375500Y-134112000D01*
X75184000Y-139255500D02*
X80327500Y-134112000D01*
X75184000Y-139827000D02*
X75184000Y-139255500D01*
X76517500Y-141160500D02*
X75184000Y-139827000D01*
X120332500Y-141160500D02*
X76517500Y-141160500D01*
X122999500Y-138493500D02*
X120332500Y-141160500D01*
X122999500Y-130810000D02*
X122999500Y-138493500D01*
X116840000Y-124650500D02*
X122999500Y-130810000D01*
X116840000Y-109347000D02*
X116840000Y-124650500D01*
X118237000Y-107950000D02*
X116840000Y-109347000D01*
X82651600Y-126009400D02*
X80238600Y-123596400D01*
X87096600Y-126009400D02*
X82651600Y-126009400D01*
X88747600Y-127660400D02*
X87096600Y-126009400D01*
X91440000Y-107251500D02*
X90678000Y-106489500D01*
X91440000Y-108966000D02*
X91440000Y-107251500D01*
X90233500Y-110172500D02*
X91440000Y-108966000D01*
X80391000Y-110172500D02*
X90233500Y-110172500D01*
X80010000Y-110553500D02*
X80391000Y-110172500D01*
X79692500Y-114681000D02*
X79692500Y-114554000D01*
X81407000Y-116395500D02*
X79692500Y-114681000D01*
X81407000Y-119189500D02*
X81407000Y-116395500D01*
X82486500Y-120269000D02*
X81407000Y-119189500D01*
X87439500Y-121666000D02*
X82232500Y-121666000D01*
X88011000Y-122237500D02*
X87439500Y-121666000D01*
X90678000Y-108077000D02*
X90678000Y-106489500D01*
X90043000Y-108712000D02*
X90678000Y-108077000D01*
X86995000Y-108712000D02*
X90043000Y-108712000D01*
X86360000Y-108077000D02*
X86995000Y-108712000D01*
X75565000Y-108077000D02*
X86360000Y-108077000D01*
X73914000Y-106426000D02*
X75565000Y-108077000D01*
X73914000Y-100520500D02*
X73914000Y-106426000D01*
X72390000Y-98996500D02*
X73914000Y-100520500D01*
X72390000Y-92773500D02*
X72390000Y-98996500D01*
X74612500Y-90551000D02*
X72390000Y-92773500D01*
X88265000Y-90551000D02*
X74612500Y-90551000D01*
X89408000Y-89408000D02*
X88265000Y-90551000D01*
X89408000Y-83756500D02*
X89408000Y-89408000D01*
X88646000Y-82994500D02*
X89408000Y-83756500D01*
X88519000Y-103124000D02*
X88519000Y-102235000D01*
X89217500Y-103822500D02*
X88519000Y-103124000D01*
X89725500Y-105537000D02*
X87884000Y-105537000D01*
X90678000Y-106489500D02*
X89725500Y-105537000D01*
X104584500Y-106172000D02*
X98044000Y-106172000D01*
X105219500Y-106807000D02*
X104584500Y-106172000D01*
X89573100Y-123126500D02*
X87947500Y-123126500D01*
X90017600Y-123571000D02*
X89573100Y-123126500D01*
X89865200Y-127508000D02*
X89865200Y-126009400D01*
X89992200Y-127635000D02*
X89865200Y-127508000D01*
X82169000Y-106553000D02*
X83629500Y-105092500D01*
X77597000Y-106553000D02*
X82169000Y-106553000D01*
X76962000Y-107188000D02*
X77597000Y-106553000D01*
X75628500Y-116332000D02*
X75628500Y-114617500D01*
X77216000Y-117919500D02*
X75628500Y-116332000D01*
X77216000Y-117983000D02*
X77216000Y-117919500D01*
X81915000Y-122682000D02*
X77216000Y-117983000D01*
X87503000Y-122682000D02*
X81915000Y-122682000D01*
X87947500Y-123126500D02*
X87503000Y-122682000D01*
X122809000Y-92329000D02*
X122809000Y-97282000D01*
X118745000Y-88265000D02*
X122809000Y-92329000D01*
X106045000Y-88265000D02*
X118745000Y-88265000D01*
X105473500Y-88836500D02*
X106045000Y-88265000D01*
X87185500Y-89471500D02*
X87693500Y-89471500D01*
X85788500Y-88074500D02*
X87185500Y-89471500D01*
X85788500Y-84137500D02*
X85788500Y-88074500D01*
X85915500Y-84010500D02*
X85788500Y-84137500D01*
X83502500Y-102933500D02*
X85471000Y-102933500D01*
X82677000Y-103759000D02*
X83502500Y-102933500D01*
X85153500Y-105092500D02*
X83629500Y-105092500D01*
X88074500Y-108013500D02*
X85153500Y-105092500D01*
X80899000Y-99060000D02*
X80899000Y-99441000D01*
X79502000Y-97663000D02*
X80899000Y-99060000D01*
X79502000Y-94361000D02*
X79502000Y-97663000D01*
X80264000Y-93599000D02*
X79502000Y-94361000D01*
X83058000Y-93599000D02*
X80264000Y-93599000D01*
X83312000Y-93345000D02*
X83058000Y-93599000D01*
X112141000Y-99441000D02*
X88011000Y-99441000D01*
X82105500Y-73247500D02*
X82105500Y-80327500D01*
X84201000Y-91821000D02*
X79248000Y-91821000D01*
X79248000Y-91821000D02*
X79121000Y-91948000D01*
X75311000Y-93091000D02*
X75311000Y-99441000D01*
X76581000Y-91821000D02*
X75311000Y-93091000D01*
X86677500Y-72199500D02*
X87185500Y-72707500D01*
X81470500Y-72199500D02*
X86677500Y-72199500D01*
X80073500Y-73596500D02*
X81470500Y-72199500D01*
X80073500Y-79057500D02*
X80073500Y-73596500D01*
X79311500Y-79819500D02*
X80073500Y-79057500D01*
X99885500Y-79057500D02*
X99885500Y-73088500D01*
X99885500Y-73088500D02*
X98234500Y-71437500D01*
X87185500Y-71437500D02*
X87185500Y-72707500D01*
X88455500Y-70167500D02*
X87185500Y-71437500D01*
X98234500Y-71437500D02*
X90995500Y-71437500D01*
X79405000Y-128492000D02*
X87655000Y-128492000D01*
X64135000Y-115824000D02*
X60071000Y-115824000D01*
X66421000Y-113538000D02*
X64135000Y-115824000D01*
X84328000Y-113538000D02*
X66421000Y-113538000D01*
X84836000Y-113030000D02*
X84328000Y-113538000D01*
X85471000Y-118364000D02*
X85471000Y-119634000D01*
X86741000Y-117094000D02*
X85471000Y-118364000D01*
X71882000Y-80835500D02*
X59944000Y-80835500D01*
X80010000Y-72707500D02*
X71882000Y-80835500D01*
X88455500Y-80327500D02*
X88455500Y-77787500D01*
X89725500Y-81597500D02*
X88455500Y-80327500D01*
X88905000Y-131242000D02*
X87905000Y-130242000D01*
X88905000Y-131492000D02*
X88905000Y-131242000D01*
X87905000Y-132492000D02*
X88905000Y-131492000D01*
X77405000Y-132492000D02*
X87905000Y-132492000D01*
X77155000Y-132242000D02*
X77405000Y-132492000D01*
X68155000Y-132242000D02*
X77155000Y-132242000D01*
X67155000Y-133242000D02*
X68155000Y-132242000D01*
D17*
G36*
X123750000Y-99000490D02*
X123600401Y-98776599D01*
X123027281Y-98203479D01*
X123337943Y-98075117D01*
X123601192Y-97812327D01*
X123743838Y-97468799D01*
X123744162Y-97096833D01*
X123602117Y-96753057D01*
X123569000Y-96719882D01*
X123569000Y-92329000D01*
X123511148Y-92038161D01*
X123346401Y-91791599D01*
X119282401Y-87727599D01*
X119035839Y-87562852D01*
X118745000Y-87505000D01*
X106045000Y-87505000D01*
X105754161Y-87562852D01*
X105507599Y-87727599D01*
X105333820Y-87901378D01*
X105288333Y-87901338D01*
X104944557Y-88043383D01*
X104681308Y-88306173D01*
X104538662Y-88649701D01*
X104538608Y-88711500D01*
X100443611Y-88711500D01*
X100677692Y-88477827D01*
X100820338Y-88134299D01*
X100820662Y-87762333D01*
X100678617Y-87418557D01*
X100645500Y-87385382D01*
X100645500Y-85969963D01*
X100677692Y-85937827D01*
X100820338Y-85594299D01*
X100820662Y-85222333D01*
X100678617Y-84878557D01*
X100415827Y-84615308D01*
X100072299Y-84472662D01*
X99700333Y-84472338D01*
X99356557Y-84614383D01*
X99093308Y-84877173D01*
X98950662Y-85220701D01*
X98950338Y-85592667D01*
X99092383Y-85936443D01*
X99125500Y-85969618D01*
X99125500Y-87385037D01*
X99093308Y-87417173D01*
X98950662Y-87760701D01*
X98950338Y-88132667D01*
X99092383Y-88476443D01*
X99327030Y-88711500D01*
X95310802Y-88711500D01*
X92866401Y-86267099D01*
X92619839Y-86102352D01*
X92329000Y-86044500D01*
X91310302Y-86044500D01*
X91247500Y-85981698D01*
X91247500Y-83756500D01*
X91189648Y-83465661D01*
X91024901Y-83219099D01*
X90213384Y-82407582D01*
X90254443Y-82390617D01*
X90360454Y-82284790D01*
X90465173Y-82389692D01*
X90808701Y-82532338D01*
X91180667Y-82532662D01*
X91524443Y-82390617D01*
X91787692Y-82127827D01*
X91930338Y-81784299D01*
X91930662Y-81412333D01*
X91788617Y-81068557D01*
X91755500Y-81035382D01*
X91755500Y-74539963D01*
X91787692Y-74507827D01*
X91930338Y-74164299D01*
X91930662Y-73792333D01*
X91788617Y-73448557D01*
X91525827Y-73185308D01*
X91182299Y-73042662D01*
X90810333Y-73042338D01*
X90466557Y-73184383D01*
X90203308Y-73447173D01*
X90060662Y-73790701D01*
X90060338Y-74162667D01*
X90202383Y-74506443D01*
X90235500Y-74539618D01*
X90235500Y-80796867D01*
X89912299Y-80662662D01*
X89865423Y-80662621D01*
X89215500Y-80012698D01*
X89215500Y-78349963D01*
X89247692Y-78317827D01*
X89390338Y-77974299D01*
X89390662Y-77602333D01*
X89248617Y-77258557D01*
X88985827Y-76995308D01*
X88642299Y-76852662D01*
X88270333Y-76852338D01*
X87926557Y-76994383D01*
X87663308Y-77257173D01*
X87520662Y-77600701D01*
X87520338Y-77972667D01*
X87662383Y-78316443D01*
X87695500Y-78349618D01*
X87695500Y-80327500D01*
X87753352Y-80618339D01*
X87918099Y-80864901D01*
X88221616Y-81168418D01*
X88180557Y-81185383D01*
X87917308Y-81448173D01*
X87774662Y-81791701D01*
X87774338Y-82163667D01*
X87885452Y-82432584D01*
X87853808Y-82464173D01*
X87711162Y-82807701D01*
X87710838Y-83179667D01*
X87852883Y-83523443D01*
X88115673Y-83786692D01*
X88459201Y-83929338D01*
X88506077Y-83929379D01*
X88648000Y-84071302D01*
X88648000Y-89093198D01*
X88577847Y-89163351D01*
X88486617Y-88942557D01*
X88223827Y-88679308D01*
X87880299Y-88536662D01*
X87508333Y-88536338D01*
X87378702Y-88589900D01*
X86548500Y-87759698D01*
X86548500Y-84699741D01*
X86707692Y-84540827D01*
X86850338Y-84197299D01*
X86850662Y-83825333D01*
X86708617Y-83481557D01*
X86672083Y-83444959D01*
X86786838Y-83168599D01*
X86787162Y-82796633D01*
X86645117Y-82452857D01*
X86382327Y-82189608D01*
X86038799Y-82046962D01*
X85666833Y-82046638D01*
X85550272Y-82094800D01*
X82833063Y-82094800D01*
X82800927Y-82062608D01*
X82457399Y-81919962D01*
X82085433Y-81919638D01*
X81741657Y-82061683D01*
X81478408Y-82324473D01*
X81335762Y-82668001D01*
X81335438Y-83039967D01*
X81477483Y-83383743D01*
X81740273Y-83646992D01*
X82083801Y-83789638D01*
X82455767Y-83789962D01*
X82799543Y-83647917D01*
X82832718Y-83614800D01*
X85067406Y-83614800D01*
X84980662Y-83823701D01*
X84980338Y-84195667D01*
X85028500Y-84312228D01*
X85028500Y-88074500D01*
X85086352Y-88365339D01*
X85251099Y-88611901D01*
X86430198Y-89791000D01*
X74612500Y-89791000D01*
X74321661Y-89848852D01*
X74075099Y-90013599D01*
X71852599Y-92236099D01*
X71687852Y-92482661D01*
X71630000Y-92773500D01*
X71630000Y-98996500D01*
X71687852Y-99287339D01*
X71852599Y-99533901D01*
X73154000Y-100835302D01*
X73154000Y-106426000D01*
X73211852Y-106716839D01*
X73376599Y-106963401D01*
X74432574Y-108019376D01*
X74208928Y-108242633D01*
X74066282Y-108586161D01*
X74065958Y-108958127D01*
X74208003Y-109301903D01*
X74470793Y-109565152D01*
X74814321Y-109707798D01*
X75186287Y-109708122D01*
X75530063Y-109566077D01*
X75563238Y-109532960D01*
X77579778Y-109532960D01*
X77902961Y-109667158D01*
X78274927Y-109667482D01*
X78618703Y-109525437D01*
X78881952Y-109262647D01*
X79024598Y-108919119D01*
X79024670Y-108837000D01*
X86045198Y-108837000D01*
X86457599Y-109249401D01*
X86701695Y-109412500D01*
X80391000Y-109412500D01*
X80100160Y-109470352D01*
X79878613Y-109618385D01*
X79824833Y-109618338D01*
X79481057Y-109760383D01*
X79217808Y-110023173D01*
X79075162Y-110366701D01*
X79075053Y-110492000D01*
X76127463Y-110492000D01*
X76095327Y-110459808D01*
X75751799Y-110317162D01*
X75379833Y-110316838D01*
X75036057Y-110458883D01*
X74772808Y-110721673D01*
X74630162Y-111065201D01*
X74629838Y-111437167D01*
X74771883Y-111780943D01*
X74877842Y-111887087D01*
X74620408Y-112144073D01*
X74477762Y-112487601D01*
X74477509Y-112778000D01*
X66421000Y-112778000D01*
X66130160Y-112835852D01*
X65883599Y-113000599D01*
X65785609Y-113098589D01*
X65786440Y-112145979D01*
X65400563Y-111212085D01*
X64686673Y-110496948D01*
X63753454Y-110109441D01*
X62742979Y-110108560D01*
X61809085Y-110494437D01*
X61093948Y-111208327D01*
X60706441Y-112141546D01*
X60705560Y-113152021D01*
X60866519Y-113541571D01*
X60553081Y-113411420D01*
X59593130Y-113410583D01*
X59275547Y-113541806D01*
X59435559Y-113156454D01*
X59436440Y-112145979D01*
X59050563Y-111212085D01*
X58336673Y-110496948D01*
X57403454Y-110109441D01*
X56392979Y-110108560D01*
X55459085Y-110494437D01*
X54743948Y-111208327D01*
X54356441Y-112141546D01*
X54355560Y-113152021D01*
X54741437Y-114085915D01*
X55455327Y-114801052D01*
X56388546Y-115188559D01*
X57399021Y-115189440D01*
X57788571Y-115028481D01*
X57658420Y-115341919D01*
X57657583Y-116301870D01*
X57788806Y-116619453D01*
X57403454Y-116459441D01*
X56392979Y-116458560D01*
X55459085Y-116844437D01*
X54743948Y-117558327D01*
X54356441Y-118491546D01*
X54355560Y-119502021D01*
X54741437Y-120435915D01*
X55455327Y-121151052D01*
X56388546Y-121538559D01*
X57399021Y-121539440D01*
X58332915Y-121153563D01*
X59048052Y-120439673D01*
X59435559Y-119506454D01*
X59436440Y-118495979D01*
X59275481Y-118106429D01*
X59588919Y-118236580D01*
X60548870Y-118237417D01*
X60866453Y-118106194D01*
X60706441Y-118491546D01*
X60705560Y-119502021D01*
X61091437Y-120435915D01*
X61805327Y-121151052D01*
X62738546Y-121538559D01*
X63749021Y-121539440D01*
X64682915Y-121153563D01*
X65398052Y-120439673D01*
X65785559Y-119506454D01*
X65786440Y-118495979D01*
X65400563Y-117562085D01*
X64686673Y-116846948D01*
X64053425Y-116584000D01*
X64135000Y-116584000D01*
X64425839Y-116526148D01*
X64672401Y-116361401D01*
X66735802Y-114298000D01*
X74748765Y-114298000D01*
X74693662Y-114430701D01*
X74693338Y-114802667D01*
X74835383Y-115146443D01*
X74868500Y-115179618D01*
X74868500Y-116332000D01*
X74926352Y-116622839D01*
X75091099Y-116869401D01*
X76550732Y-118329034D01*
X76678599Y-118520401D01*
X77160428Y-119002230D01*
X77058808Y-119103673D01*
X76916162Y-119447201D01*
X76915838Y-119819167D01*
X77057883Y-120162943D01*
X77320673Y-120426192D01*
X77664201Y-120568838D01*
X77711077Y-120568879D01*
X79876530Y-122734332D01*
X79709657Y-122803283D01*
X79446408Y-123066073D01*
X79303762Y-123409601D01*
X79303438Y-123781567D01*
X79445483Y-124125343D01*
X79570404Y-124250482D01*
X79536399Y-124236362D01*
X79164433Y-124236038D01*
X78820657Y-124378083D01*
X78557408Y-124640873D01*
X78526212Y-124716000D01*
X77854663Y-124716000D01*
X77822527Y-124683808D01*
X77478999Y-124541162D01*
X77107033Y-124540838D01*
X76763257Y-124682883D01*
X76500008Y-124945673D01*
X76357362Y-125289201D01*
X76357038Y-125661167D01*
X76499083Y-126004943D01*
X76761873Y-126268192D01*
X77105401Y-126410838D01*
X77477367Y-126411162D01*
X77821143Y-126269117D01*
X77854318Y-126236000D01*
X79044800Y-126236000D01*
X79335639Y-126178148D01*
X79443194Y-126106282D01*
X79534767Y-126106362D01*
X79878543Y-125964317D01*
X80141792Y-125701527D01*
X80284438Y-125357999D01*
X80284762Y-124986033D01*
X80142717Y-124642257D01*
X80017796Y-124517118D01*
X80051801Y-124531238D01*
X80098677Y-124531279D01*
X82114199Y-126546801D01*
X82360760Y-126711548D01*
X82651600Y-126769400D01*
X86781798Y-126769400D01*
X87569323Y-127556925D01*
X87469833Y-127556838D01*
X87126057Y-127698883D01*
X87092882Y-127732000D01*
X79967463Y-127732000D01*
X79935327Y-127699808D01*
X79591799Y-127557162D01*
X79219833Y-127556838D01*
X78876057Y-127698883D01*
X78612808Y-127961673D01*
X78470162Y-128305201D01*
X78469838Y-128677167D01*
X78611883Y-129020943D01*
X78874673Y-129284192D01*
X79218201Y-129426838D01*
X79590167Y-129427162D01*
X79933943Y-129285117D01*
X79967118Y-129252000D01*
X83320198Y-129252000D01*
X83265320Y-129306878D01*
X83219833Y-129306838D01*
X82876057Y-129448883D01*
X82612808Y-129711673D01*
X82470162Y-130055201D01*
X82469838Y-130427167D01*
X82611883Y-130770943D01*
X82874673Y-131034192D01*
X83218201Y-131176838D01*
X83590167Y-131177162D01*
X83933943Y-131035117D01*
X84197192Y-130772327D01*
X84339838Y-130428799D01*
X84339879Y-130381923D01*
X84719802Y-130002000D01*
X86992253Y-130002000D01*
X86970162Y-130055201D01*
X86969838Y-130427167D01*
X87111883Y-130770943D01*
X87238217Y-130897497D01*
X86910557Y-131032883D01*
X86661007Y-131281998D01*
X79778800Y-131281998D01*
X78959901Y-130463099D01*
X78932778Y-130444976D01*
X76840122Y-128352320D01*
X76840162Y-128306833D01*
X76698117Y-127963057D01*
X76435327Y-127699808D01*
X76091799Y-127557162D01*
X75719833Y-127556838D01*
X75376057Y-127698883D01*
X75112808Y-127961673D01*
X74970162Y-128305201D01*
X74969838Y-128677167D01*
X75111883Y-129020943D01*
X75374673Y-129284192D01*
X75718201Y-129426838D01*
X75765077Y-129426879D01*
X78070198Y-131732000D01*
X77719802Y-131732000D01*
X77692401Y-131704599D01*
X77445839Y-131539852D01*
X77155000Y-131482000D01*
X68155000Y-131482000D01*
X67864161Y-131539852D01*
X67617599Y-131704599D01*
X67015320Y-132306878D01*
X66969833Y-132306838D01*
X66626057Y-132448883D01*
X66362808Y-132711673D01*
X66220162Y-133055201D01*
X66219838Y-133427167D01*
X66361883Y-133770943D01*
X66624673Y-134034192D01*
X66968201Y-134176838D01*
X67340167Y-134177162D01*
X67683943Y-134035117D01*
X67947192Y-133772327D01*
X68089838Y-133428799D01*
X68089879Y-133381923D01*
X68469802Y-133002000D01*
X76458246Y-133002000D01*
X76306057Y-133064883D01*
X76042808Y-133327673D01*
X76006339Y-133415500D01*
X74603463Y-133415500D01*
X74571327Y-133383308D01*
X74227799Y-133240662D01*
X73855833Y-133240338D01*
X73512057Y-133382383D01*
X73248808Y-133645173D01*
X73106162Y-133988701D01*
X73105838Y-134360667D01*
X73247883Y-134704443D01*
X73510673Y-134967692D01*
X73854201Y-135110338D01*
X74226167Y-135110662D01*
X74569943Y-134968617D01*
X74603118Y-134935500D01*
X76517500Y-134935500D01*
X76808339Y-134877648D01*
X76934893Y-134793088D01*
X77020167Y-134793162D01*
X77363943Y-134651117D01*
X77627192Y-134388327D01*
X77769838Y-134044799D01*
X77770162Y-133672833D01*
X77628117Y-133329057D01*
X77551194Y-133252000D01*
X81805474Y-133252000D01*
X81805387Y-133352000D01*
X80327500Y-133352000D01*
X80084914Y-133400254D01*
X80036660Y-133409852D01*
X79790099Y-133574599D01*
X74646599Y-138718099D01*
X74481852Y-138964661D01*
X74424000Y-139255500D01*
X74424000Y-139827000D01*
X74481852Y-140117839D01*
X74646599Y-140364401D01*
X75304198Y-141022000D01*
X53605500Y-141022000D01*
X53605500Y-131070021D01*
X54689560Y-131070021D01*
X55075437Y-132003915D01*
X55789327Y-132719052D01*
X56722546Y-133106559D01*
X57733021Y-133107440D01*
X58122571Y-132946481D01*
X57992420Y-133259919D01*
X57991583Y-134219870D01*
X58122806Y-134537453D01*
X57737454Y-134377441D01*
X56726979Y-134376560D01*
X55793085Y-134762437D01*
X55077948Y-135476327D01*
X54690441Y-136409546D01*
X54689560Y-137420021D01*
X55075437Y-138353915D01*
X55789327Y-139069052D01*
X56722546Y-139456559D01*
X57733021Y-139457440D01*
X58666915Y-139071563D01*
X59382052Y-138357673D01*
X59769559Y-137424454D01*
X59770440Y-136413979D01*
X59609481Y-136024429D01*
X59922919Y-136154580D01*
X60882870Y-136155417D01*
X61200453Y-136024194D01*
X61040441Y-136409546D01*
X61039560Y-137420021D01*
X61425437Y-138353915D01*
X62139327Y-139069052D01*
X63072546Y-139456559D01*
X64083021Y-139457440D01*
X65016915Y-139071563D01*
X65732052Y-138357673D01*
X66119559Y-137424454D01*
X66120440Y-136413979D01*
X65734563Y-135480085D01*
X65020673Y-134764948D01*
X64087454Y-134377441D01*
X63076979Y-134376560D01*
X62687429Y-134537519D01*
X62817580Y-134224081D01*
X62818417Y-133264130D01*
X62687194Y-132946547D01*
X63072546Y-133106559D01*
X64083021Y-133107440D01*
X65016915Y-132721563D01*
X65732052Y-132007673D01*
X66119559Y-131074454D01*
X66120440Y-130063979D01*
X65744307Y-129153667D01*
X71073838Y-129153667D01*
X71215883Y-129497443D01*
X71478673Y-129760692D01*
X71822201Y-129903338D01*
X71869077Y-129903379D01*
X72868599Y-130902901D01*
X73115160Y-131067648D01*
X73406000Y-131125500D01*
X73796037Y-131125500D01*
X73828173Y-131157692D01*
X74171701Y-131300338D01*
X74543667Y-131300662D01*
X74887443Y-131158617D01*
X75150692Y-130895827D01*
X75293338Y-130552299D01*
X75293662Y-130180333D01*
X75151617Y-129836557D01*
X74888827Y-129573308D01*
X74545299Y-129430662D01*
X74173333Y-129430338D01*
X73829557Y-129572383D01*
X73796382Y-129605500D01*
X73720802Y-129605500D01*
X72944122Y-128828820D01*
X72944162Y-128783333D01*
X72802117Y-128439557D01*
X72539327Y-128176308D01*
X72195799Y-128033662D01*
X71823833Y-128033338D01*
X71480057Y-128175383D01*
X71216808Y-128438173D01*
X71074162Y-128781701D01*
X71073838Y-129153667D01*
X65744307Y-129153667D01*
X65734563Y-129130085D01*
X65020673Y-128414948D01*
X64087454Y-128027441D01*
X63076979Y-128026560D01*
X62143085Y-128412437D01*
X61427948Y-129126327D01*
X61040441Y-130059546D01*
X61039560Y-131070021D01*
X61200519Y-131459571D01*
X60887081Y-131329420D01*
X59927130Y-131328583D01*
X59609547Y-131459806D01*
X59769559Y-131074454D01*
X59770440Y-130063979D01*
X59384563Y-129130085D01*
X58670673Y-128414948D01*
X57737454Y-128027441D01*
X56726979Y-128026560D01*
X55793085Y-128412437D01*
X55077948Y-129126327D01*
X54690441Y-130059546D01*
X54689560Y-131070021D01*
X53605500Y-131070021D01*
X53605500Y-96769021D01*
X54355560Y-96769021D01*
X54741437Y-97702915D01*
X55455327Y-98418052D01*
X56388546Y-98805559D01*
X57399021Y-98806440D01*
X57788571Y-98645481D01*
X57658420Y-98958919D01*
X57657583Y-99918870D01*
X57788806Y-100236453D01*
X57403454Y-100076441D01*
X56392979Y-100075560D01*
X55459085Y-100461437D01*
X54743948Y-101175327D01*
X54356441Y-102108546D01*
X54355560Y-103119021D01*
X54741437Y-104052915D01*
X55455327Y-104768052D01*
X56388546Y-105155559D01*
X57399021Y-105156440D01*
X58332915Y-104770563D01*
X59048052Y-104056673D01*
X59435559Y-103123454D01*
X59436440Y-102112979D01*
X59275481Y-101723429D01*
X59588919Y-101853580D01*
X60548870Y-101854417D01*
X60866453Y-101723194D01*
X60706441Y-102108546D01*
X60705560Y-103119021D01*
X61091437Y-104052915D01*
X61805327Y-104768052D01*
X62738546Y-105155559D01*
X63749021Y-105156440D01*
X64682915Y-104770563D01*
X65398052Y-104056673D01*
X65785559Y-103123454D01*
X65786440Y-102112979D01*
X65400563Y-101179085D01*
X64686673Y-100463948D01*
X63753454Y-100076441D01*
X62742979Y-100075560D01*
X62353429Y-100236519D01*
X62483580Y-99923081D01*
X62484417Y-98963130D01*
X62353194Y-98645547D01*
X62738546Y-98805559D01*
X63749021Y-98806440D01*
X64682915Y-98420563D01*
X65398052Y-97706673D01*
X65785559Y-96773454D01*
X65786440Y-95762979D01*
X65400563Y-94829085D01*
X64686673Y-94113948D01*
X63753454Y-93726441D01*
X62742979Y-93725560D01*
X61809085Y-94111437D01*
X61093948Y-94825327D01*
X60706441Y-95758546D01*
X60705560Y-96769021D01*
X60866519Y-97158571D01*
X60553081Y-97028420D01*
X59593130Y-97027583D01*
X59275547Y-97158806D01*
X59435559Y-96773454D01*
X59436440Y-95762979D01*
X59050563Y-94829085D01*
X58336673Y-94113948D01*
X57403454Y-93726441D01*
X56392979Y-93725560D01*
X55459085Y-94111437D01*
X54743948Y-94825327D01*
X54356441Y-95758546D01*
X54355560Y-96769021D01*
X53605500Y-96769021D01*
X53605500Y-78163521D01*
X54228560Y-78163521D01*
X54614437Y-79097415D01*
X55328327Y-79812552D01*
X56261546Y-80200059D01*
X57272021Y-80200940D01*
X57661571Y-80039981D01*
X57531420Y-80353419D01*
X57530583Y-81313370D01*
X57661806Y-81630953D01*
X57276454Y-81470941D01*
X56265979Y-81470060D01*
X55332085Y-81855937D01*
X54616948Y-82569827D01*
X54229441Y-83503046D01*
X54228560Y-84513521D01*
X54614437Y-85447415D01*
X55328327Y-86162552D01*
X56261546Y-86550059D01*
X57272021Y-86550940D01*
X58205915Y-86165063D01*
X58921052Y-85451173D01*
X59308559Y-84517954D01*
X59309440Y-83507479D01*
X59148481Y-83117929D01*
X59461919Y-83248080D01*
X60421870Y-83248917D01*
X60739453Y-83117694D01*
X60579441Y-83503046D01*
X60578560Y-84513521D01*
X60964437Y-85447415D01*
X61678327Y-86162552D01*
X62611546Y-86550059D01*
X63622021Y-86550940D01*
X64555915Y-86165063D01*
X65271052Y-85451173D01*
X65658559Y-84517954D01*
X65659440Y-83507479D01*
X65273563Y-82573585D01*
X64559673Y-81858448D01*
X63926425Y-81595500D01*
X71882000Y-81595500D01*
X72172839Y-81537648D01*
X72419401Y-81372901D01*
X79313500Y-74478802D01*
X79313500Y-78742698D01*
X79171820Y-78884378D01*
X79126333Y-78884338D01*
X78782557Y-79026383D01*
X78519308Y-79289173D01*
X78376662Y-79632701D01*
X78376338Y-80004667D01*
X78518383Y-80348443D01*
X78781173Y-80611692D01*
X79124701Y-80754338D01*
X79496667Y-80754662D01*
X79840443Y-80612617D01*
X80103692Y-80349827D01*
X80246338Y-80006299D01*
X80246379Y-79959423D01*
X80610901Y-79594901D01*
X80775648Y-79348339D01*
X80833500Y-79057500D01*
X80833500Y-73911302D01*
X81211797Y-73533005D01*
X81312383Y-73776443D01*
X81345500Y-73809618D01*
X81345500Y-79765037D01*
X81313308Y-79797173D01*
X81170662Y-80140701D01*
X81170338Y-80512667D01*
X81312383Y-80856443D01*
X81575173Y-81119692D01*
X81918701Y-81262338D01*
X82290667Y-81262662D01*
X82634443Y-81120617D01*
X82897692Y-80857827D01*
X83040338Y-80514299D01*
X83040662Y-80142333D01*
X82898617Y-79798557D01*
X82865500Y-79765382D01*
X82865500Y-73809963D01*
X82897692Y-73777827D01*
X83040338Y-73434299D01*
X83040662Y-73062333D01*
X82998172Y-72959500D01*
X86277953Y-72959500D01*
X86392383Y-73236443D01*
X86655173Y-73499692D01*
X86998701Y-73642338D01*
X87370667Y-73642662D01*
X87714443Y-73500617D01*
X87977692Y-73237827D01*
X88120338Y-72894299D01*
X88120662Y-72522333D01*
X87978617Y-72178557D01*
X87945500Y-72145382D01*
X87945500Y-71752302D01*
X88075135Y-71622667D01*
X90060338Y-71622667D01*
X90202383Y-71966443D01*
X90465173Y-72229692D01*
X90808701Y-72372338D01*
X91180667Y-72372662D01*
X91524443Y-72230617D01*
X91557618Y-72197500D01*
X97919698Y-72197500D01*
X99125500Y-73403302D01*
X99125500Y-78495037D01*
X99093308Y-78527173D01*
X98950662Y-78870701D01*
X98950608Y-78932500D01*
X97010610Y-78932500D01*
X97010662Y-78872333D01*
X96868617Y-78528557D01*
X96835500Y-78495382D01*
X96835500Y-76517500D01*
X96777648Y-76226661D01*
X96777648Y-76226660D01*
X96612901Y-75980099D01*
X95740622Y-75107820D01*
X95740662Y-75062333D01*
X95715443Y-75001297D01*
X96019367Y-75001562D01*
X96363143Y-74859517D01*
X96626392Y-74596727D01*
X96769038Y-74253199D01*
X96769362Y-73881233D01*
X96627317Y-73537457D01*
X96364527Y-73274208D01*
X96020999Y-73131562D01*
X95649033Y-73131238D01*
X95470999Y-73204800D01*
X94996000Y-73204800D01*
X94705161Y-73262652D01*
X94458599Y-73427399D01*
X93865720Y-74020278D01*
X93820233Y-74020238D01*
X93476457Y-74162283D01*
X93213208Y-74425073D01*
X93070562Y-74768601D01*
X93070238Y-75140567D01*
X93212283Y-75484343D01*
X93475073Y-75747592D01*
X93818601Y-75890238D01*
X94126247Y-75890506D01*
X94275173Y-76039692D01*
X94618701Y-76182338D01*
X94665577Y-76182379D01*
X95315500Y-76832302D01*
X95315500Y-78495037D01*
X95283308Y-78527173D01*
X95237392Y-78637751D01*
X94911557Y-78772383D01*
X94648308Y-79035173D01*
X94505662Y-79378701D01*
X94505609Y-79439741D01*
X94276557Y-79534383D01*
X94013308Y-79797173D01*
X93870662Y-80140701D01*
X93870338Y-80512667D01*
X94012383Y-80856443D01*
X94275173Y-81119692D01*
X94618701Y-81262338D01*
X94990667Y-81262662D01*
X95334443Y-81120617D01*
X95367618Y-81087500D01*
X104965500Y-81087500D01*
X105256339Y-81029648D01*
X105502901Y-80864901D01*
X105667648Y-80618339D01*
X105725500Y-80327500D01*
X105725500Y-79619963D01*
X105757692Y-79587827D01*
X105900338Y-79244299D01*
X105900662Y-78872333D01*
X105758617Y-78528557D01*
X105495827Y-78265308D01*
X105152299Y-78122662D01*
X104780333Y-78122338D01*
X104436557Y-78264383D01*
X104173308Y-78527173D01*
X104030662Y-78870701D01*
X104030338Y-79242667D01*
X104164556Y-79567500D01*
X103921840Y-79567500D01*
X103947500Y-79438500D01*
X103947500Y-73596500D01*
X103889648Y-73305661D01*
X103724901Y-73059099D01*
X102863302Y-72197500D01*
X107190698Y-72197500D01*
X108015500Y-73022302D01*
X108015500Y-83597500D01*
X108073352Y-83888339D01*
X108238099Y-84134901D01*
X109650378Y-85547180D01*
X109650338Y-85592667D01*
X109792383Y-85936443D01*
X110055173Y-86199692D01*
X110398701Y-86342338D01*
X110770667Y-86342662D01*
X111114443Y-86200617D01*
X111377692Y-85937827D01*
X111520338Y-85594299D01*
X111520662Y-85222333D01*
X111378617Y-84878557D01*
X111115827Y-84615308D01*
X110772299Y-84472662D01*
X110725423Y-84472621D01*
X109535500Y-83282698D01*
X109535500Y-72707500D01*
X109504390Y-72551099D01*
X109477648Y-72416660D01*
X109312901Y-72170099D01*
X108070302Y-70927500D01*
X112023037Y-70927500D01*
X112055173Y-70959692D01*
X112398701Y-71102338D01*
X112770667Y-71102662D01*
X113114443Y-70960617D01*
X113377692Y-70697827D01*
X113520338Y-70354299D01*
X113520662Y-69982333D01*
X113378617Y-69638557D01*
X113115827Y-69375308D01*
X112772299Y-69232662D01*
X112400333Y-69232338D01*
X112056557Y-69374383D01*
X112023382Y-69407500D01*
X96637963Y-69407500D01*
X96605827Y-69375308D01*
X96262299Y-69232662D01*
X95890333Y-69232338D01*
X95546557Y-69374383D01*
X95283308Y-69637173D01*
X95140662Y-69980701D01*
X95140338Y-70352667D01*
X95274556Y-70677500D01*
X91557963Y-70677500D01*
X91525827Y-70645308D01*
X91182299Y-70502662D01*
X90810333Y-70502338D01*
X90466557Y-70644383D01*
X90203308Y-70907173D01*
X90060662Y-71250701D01*
X90060338Y-71622667D01*
X88075135Y-71622667D01*
X88595180Y-71102622D01*
X88640667Y-71102662D01*
X88984443Y-70960617D01*
X89247692Y-70697827D01*
X89390338Y-70354299D01*
X89390662Y-69982333D01*
X89248617Y-69638557D01*
X88985827Y-69375308D01*
X88642299Y-69232662D01*
X88270333Y-69232338D01*
X87926557Y-69374383D01*
X87663308Y-69637173D01*
X87520662Y-69980701D01*
X87520621Y-70027577D01*
X86648099Y-70900099D01*
X86483352Y-71146661D01*
X86425500Y-71437500D01*
X86425500Y-71439500D01*
X81470500Y-71439500D01*
X81179660Y-71497352D01*
X80933099Y-71662099D01*
X80610048Y-71985150D01*
X80540327Y-71915308D01*
X80196799Y-71772662D01*
X79824833Y-71772338D01*
X79481057Y-71914383D01*
X79217808Y-72177173D01*
X79075162Y-72520701D01*
X79075121Y-72567577D01*
X71567198Y-80075500D01*
X63925609Y-80075500D01*
X64555915Y-79815063D01*
X65271052Y-79101173D01*
X65658559Y-78167954D01*
X65659440Y-77157479D01*
X65273563Y-76223585D01*
X64559673Y-75508448D01*
X63626454Y-75120941D01*
X62615979Y-75120060D01*
X61682085Y-75505937D01*
X60966948Y-76219827D01*
X60579441Y-77153046D01*
X60578560Y-78163521D01*
X60739519Y-78553071D01*
X60426081Y-78422920D01*
X59466130Y-78422083D01*
X59148547Y-78553306D01*
X59308559Y-78167954D01*
X59309440Y-77157479D01*
X58923563Y-76223585D01*
X58209673Y-75508448D01*
X57276454Y-75120941D01*
X56265979Y-75120060D01*
X55332085Y-75505937D01*
X54616948Y-76219827D01*
X54229441Y-77153046D01*
X54228560Y-78163521D01*
X53605500Y-78163521D01*
X53605500Y-69659247D01*
X75000678Y-69659247D01*
X75142723Y-70003023D01*
X75405513Y-70266272D01*
X75749041Y-70408918D01*
X76121007Y-70409242D01*
X76464783Y-70267197D01*
X76497958Y-70234080D01*
X76677678Y-70234080D01*
X77195278Y-70751680D01*
X77195238Y-70797167D01*
X77337283Y-71140943D01*
X77600073Y-71404192D01*
X77943601Y-71546838D01*
X78315567Y-71547162D01*
X78659343Y-71405117D01*
X78922592Y-71142327D01*
X79065238Y-70798799D01*
X79065562Y-70426833D01*
X78923517Y-70083057D01*
X78660727Y-69819808D01*
X78317199Y-69677162D01*
X78270323Y-69677121D01*
X77529881Y-68936679D01*
X77283319Y-68771932D01*
X76992480Y-68714080D01*
X76498303Y-68714080D01*
X76466167Y-68681888D01*
X76122639Y-68539242D01*
X75750673Y-68538918D01*
X75406897Y-68680963D01*
X75143648Y-68943753D01*
X75001002Y-69287281D01*
X75000678Y-69659247D01*
X53605500Y-69659247D01*
X53605500Y-66750000D01*
X123750000Y-66750000D01*
X123750000Y-99000490D01*
X123750000Y-99000490D01*
G37*
X123750000Y-99000490D02*
X123600401Y-98776599D01*
X123027281Y-98203479D01*
X123337943Y-98075117D01*
X123601192Y-97812327D01*
X123743838Y-97468799D01*
X123744162Y-97096833D01*
X123602117Y-96753057D01*
X123569000Y-96719882D01*
X123569000Y-92329000D01*
X123511148Y-92038161D01*
X123346401Y-91791599D01*
X119282401Y-87727599D01*
X119035839Y-87562852D01*
X118745000Y-87505000D01*
X106045000Y-87505000D01*
X105754161Y-87562852D01*
X105507599Y-87727599D01*
X105333820Y-87901378D01*
X105288333Y-87901338D01*
X104944557Y-88043383D01*
X104681308Y-88306173D01*
X104538662Y-88649701D01*
X104538608Y-88711500D01*
X100443611Y-88711500D01*
X100677692Y-88477827D01*
X100820338Y-88134299D01*
X100820662Y-87762333D01*
X100678617Y-87418557D01*
X100645500Y-87385382D01*
X100645500Y-85969963D01*
X100677692Y-85937827D01*
X100820338Y-85594299D01*
X100820662Y-85222333D01*
X100678617Y-84878557D01*
X100415827Y-84615308D01*
X100072299Y-84472662D01*
X99700333Y-84472338D01*
X99356557Y-84614383D01*
X99093308Y-84877173D01*
X98950662Y-85220701D01*
X98950338Y-85592667D01*
X99092383Y-85936443D01*
X99125500Y-85969618D01*
X99125500Y-87385037D01*
X99093308Y-87417173D01*
X98950662Y-87760701D01*
X98950338Y-88132667D01*
X99092383Y-88476443D01*
X99327030Y-88711500D01*
X95310802Y-88711500D01*
X92866401Y-86267099D01*
X92619839Y-86102352D01*
X92329000Y-86044500D01*
X91310302Y-86044500D01*
X91247500Y-85981698D01*
X91247500Y-83756500D01*
X91189648Y-83465661D01*
X91024901Y-83219099D01*
X90213384Y-82407582D01*
X90254443Y-82390617D01*
X90360454Y-82284790D01*
X90465173Y-82389692D01*
X90808701Y-82532338D01*
X91180667Y-82532662D01*
X91524443Y-82390617D01*
X91787692Y-82127827D01*
X91930338Y-81784299D01*
X91930662Y-81412333D01*
X91788617Y-81068557D01*
X91755500Y-81035382D01*
X91755500Y-74539963D01*
X91787692Y-74507827D01*
X91930338Y-74164299D01*
X91930662Y-73792333D01*
X91788617Y-73448557D01*
X91525827Y-73185308D01*
X91182299Y-73042662D01*
X90810333Y-73042338D01*
X90466557Y-73184383D01*
X90203308Y-73447173D01*
X90060662Y-73790701D01*
X90060338Y-74162667D01*
X90202383Y-74506443D01*
X90235500Y-74539618D01*
X90235500Y-80796867D01*
X89912299Y-80662662D01*
X89865423Y-80662621D01*
X89215500Y-80012698D01*
X89215500Y-78349963D01*
X89247692Y-78317827D01*
X89390338Y-77974299D01*
X89390662Y-77602333D01*
X89248617Y-77258557D01*
X88985827Y-76995308D01*
X88642299Y-76852662D01*
X88270333Y-76852338D01*
X87926557Y-76994383D01*
X87663308Y-77257173D01*
X87520662Y-77600701D01*
X87520338Y-77972667D01*
X87662383Y-78316443D01*
X87695500Y-78349618D01*
X87695500Y-80327500D01*
X87753352Y-80618339D01*
X87918099Y-80864901D01*
X88221616Y-81168418D01*
X88180557Y-81185383D01*
X87917308Y-81448173D01*
X87774662Y-81791701D01*
X87774338Y-82163667D01*
X87885452Y-82432584D01*
X87853808Y-82464173D01*
X87711162Y-82807701D01*
X87710838Y-83179667D01*
X87852883Y-83523443D01*
X88115673Y-83786692D01*
X88459201Y-83929338D01*
X88506077Y-83929379D01*
X88648000Y-84071302D01*
X88648000Y-89093198D01*
X88577847Y-89163351D01*
X88486617Y-88942557D01*
X88223827Y-88679308D01*
X87880299Y-88536662D01*
X87508333Y-88536338D01*
X87378702Y-88589900D01*
X86548500Y-87759698D01*
X86548500Y-84699741D01*
X86707692Y-84540827D01*
X86850338Y-84197299D01*
X86850662Y-83825333D01*
X86708617Y-83481557D01*
X86672083Y-83444959D01*
X86786838Y-83168599D01*
X86787162Y-82796633D01*
X86645117Y-82452857D01*
X86382327Y-82189608D01*
X86038799Y-82046962D01*
X85666833Y-82046638D01*
X85550272Y-82094800D01*
X82833063Y-82094800D01*
X82800927Y-82062608D01*
X82457399Y-81919962D01*
X82085433Y-81919638D01*
X81741657Y-82061683D01*
X81478408Y-82324473D01*
X81335762Y-82668001D01*
X81335438Y-83039967D01*
X81477483Y-83383743D01*
X81740273Y-83646992D01*
X82083801Y-83789638D01*
X82455767Y-83789962D01*
X82799543Y-83647917D01*
X82832718Y-83614800D01*
X85067406Y-83614800D01*
X84980662Y-83823701D01*
X84980338Y-84195667D01*
X85028500Y-84312228D01*
X85028500Y-88074500D01*
X85086352Y-88365339D01*
X85251099Y-88611901D01*
X86430198Y-89791000D01*
X74612500Y-89791000D01*
X74321661Y-89848852D01*
X74075099Y-90013599D01*
X71852599Y-92236099D01*
X71687852Y-92482661D01*
X71630000Y-92773500D01*
X71630000Y-98996500D01*
X71687852Y-99287339D01*
X71852599Y-99533901D01*
X73154000Y-100835302D01*
X73154000Y-106426000D01*
X73211852Y-106716839D01*
X73376599Y-106963401D01*
X74432574Y-108019376D01*
X74208928Y-108242633D01*
X74066282Y-108586161D01*
X74065958Y-108958127D01*
X74208003Y-109301903D01*
X74470793Y-109565152D01*
X74814321Y-109707798D01*
X75186287Y-109708122D01*
X75530063Y-109566077D01*
X75563238Y-109532960D01*
X77579778Y-109532960D01*
X77902961Y-109667158D01*
X78274927Y-109667482D01*
X78618703Y-109525437D01*
X78881952Y-109262647D01*
X79024598Y-108919119D01*
X79024670Y-108837000D01*
X86045198Y-108837000D01*
X86457599Y-109249401D01*
X86701695Y-109412500D01*
X80391000Y-109412500D01*
X80100160Y-109470352D01*
X79878613Y-109618385D01*
X79824833Y-109618338D01*
X79481057Y-109760383D01*
X79217808Y-110023173D01*
X79075162Y-110366701D01*
X79075053Y-110492000D01*
X76127463Y-110492000D01*
X76095327Y-110459808D01*
X75751799Y-110317162D01*
X75379833Y-110316838D01*
X75036057Y-110458883D01*
X74772808Y-110721673D01*
X74630162Y-111065201D01*
X74629838Y-111437167D01*
X74771883Y-111780943D01*
X74877842Y-111887087D01*
X74620408Y-112144073D01*
X74477762Y-112487601D01*
X74477509Y-112778000D01*
X66421000Y-112778000D01*
X66130160Y-112835852D01*
X65883599Y-113000599D01*
X65785609Y-113098589D01*
X65786440Y-112145979D01*
X65400563Y-111212085D01*
X64686673Y-110496948D01*
X63753454Y-110109441D01*
X62742979Y-110108560D01*
X61809085Y-110494437D01*
X61093948Y-111208327D01*
X60706441Y-112141546D01*
X60705560Y-113152021D01*
X60866519Y-113541571D01*
X60553081Y-113411420D01*
X59593130Y-113410583D01*
X59275547Y-113541806D01*
X59435559Y-113156454D01*
X59436440Y-112145979D01*
X59050563Y-111212085D01*
X58336673Y-110496948D01*
X57403454Y-110109441D01*
X56392979Y-110108560D01*
X55459085Y-110494437D01*
X54743948Y-111208327D01*
X54356441Y-112141546D01*
X54355560Y-113152021D01*
X54741437Y-114085915D01*
X55455327Y-114801052D01*
X56388546Y-115188559D01*
X57399021Y-115189440D01*
X57788571Y-115028481D01*
X57658420Y-115341919D01*
X57657583Y-116301870D01*
X57788806Y-116619453D01*
X57403454Y-116459441D01*
X56392979Y-116458560D01*
X55459085Y-116844437D01*
X54743948Y-117558327D01*
X54356441Y-118491546D01*
X54355560Y-119502021D01*
X54741437Y-120435915D01*
X55455327Y-121151052D01*
X56388546Y-121538559D01*
X57399021Y-121539440D01*
X58332915Y-121153563D01*
X59048052Y-120439673D01*
X59435559Y-119506454D01*
X59436440Y-118495979D01*
X59275481Y-118106429D01*
X59588919Y-118236580D01*
X60548870Y-118237417D01*
X60866453Y-118106194D01*
X60706441Y-118491546D01*
X60705560Y-119502021D01*
X61091437Y-120435915D01*
X61805327Y-121151052D01*
X62738546Y-121538559D01*
X63749021Y-121539440D01*
X64682915Y-121153563D01*
X65398052Y-120439673D01*
X65785559Y-119506454D01*
X65786440Y-118495979D01*
X65400563Y-117562085D01*
X64686673Y-116846948D01*
X64053425Y-116584000D01*
X64135000Y-116584000D01*
X64425839Y-116526148D01*
X64672401Y-116361401D01*
X66735802Y-114298000D01*
X74748765Y-114298000D01*
X74693662Y-114430701D01*
X74693338Y-114802667D01*
X74835383Y-115146443D01*
X74868500Y-115179618D01*
X74868500Y-116332000D01*
X74926352Y-116622839D01*
X75091099Y-116869401D01*
X76550732Y-118329034D01*
X76678599Y-118520401D01*
X77160428Y-119002230D01*
X77058808Y-119103673D01*
X76916162Y-119447201D01*
X76915838Y-119819167D01*
X77057883Y-120162943D01*
X77320673Y-120426192D01*
X77664201Y-120568838D01*
X77711077Y-120568879D01*
X79876530Y-122734332D01*
X79709657Y-122803283D01*
X79446408Y-123066073D01*
X79303762Y-123409601D01*
X79303438Y-123781567D01*
X79445483Y-124125343D01*
X79570404Y-124250482D01*
X79536399Y-124236362D01*
X79164433Y-124236038D01*
X78820657Y-124378083D01*
X78557408Y-124640873D01*
X78526212Y-124716000D01*
X77854663Y-124716000D01*
X77822527Y-124683808D01*
X77478999Y-124541162D01*
X77107033Y-124540838D01*
X76763257Y-124682883D01*
X76500008Y-124945673D01*
X76357362Y-125289201D01*
X76357038Y-125661167D01*
X76499083Y-126004943D01*
X76761873Y-126268192D01*
X77105401Y-126410838D01*
X77477367Y-126411162D01*
X77821143Y-126269117D01*
X77854318Y-126236000D01*
X79044800Y-126236000D01*
X79335639Y-126178148D01*
X79443194Y-126106282D01*
X79534767Y-126106362D01*
X79878543Y-125964317D01*
X80141792Y-125701527D01*
X80284438Y-125357999D01*
X80284762Y-124986033D01*
X80142717Y-124642257D01*
X80017796Y-124517118D01*
X80051801Y-124531238D01*
X80098677Y-124531279D01*
X82114199Y-126546801D01*
X82360760Y-126711548D01*
X82651600Y-126769400D01*
X86781798Y-126769400D01*
X87569323Y-127556925D01*
X87469833Y-127556838D01*
X87126057Y-127698883D01*
X87092882Y-127732000D01*
X79967463Y-127732000D01*
X79935327Y-127699808D01*
X79591799Y-127557162D01*
X79219833Y-127556838D01*
X78876057Y-127698883D01*
X78612808Y-127961673D01*
X78470162Y-128305201D01*
X78469838Y-128677167D01*
X78611883Y-129020943D01*
X78874673Y-129284192D01*
X79218201Y-129426838D01*
X79590167Y-129427162D01*
X79933943Y-129285117D01*
X79967118Y-129252000D01*
X83320198Y-129252000D01*
X83265320Y-129306878D01*
X83219833Y-129306838D01*
X82876057Y-129448883D01*
X82612808Y-129711673D01*
X82470162Y-130055201D01*
X82469838Y-130427167D01*
X82611883Y-130770943D01*
X82874673Y-131034192D01*
X83218201Y-131176838D01*
X83590167Y-131177162D01*
X83933943Y-131035117D01*
X84197192Y-130772327D01*
X84339838Y-130428799D01*
X84339879Y-130381923D01*
X84719802Y-130002000D01*
X86992253Y-130002000D01*
X86970162Y-130055201D01*
X86969838Y-130427167D01*
X87111883Y-130770943D01*
X87238217Y-130897497D01*
X86910557Y-131032883D01*
X86661007Y-131281998D01*
X79778800Y-131281998D01*
X78959901Y-130463099D01*
X78932778Y-130444976D01*
X76840122Y-128352320D01*
X76840162Y-128306833D01*
X76698117Y-127963057D01*
X76435327Y-127699808D01*
X76091799Y-127557162D01*
X75719833Y-127556838D01*
X75376057Y-127698883D01*
X75112808Y-127961673D01*
X74970162Y-128305201D01*
X74969838Y-128677167D01*
X75111883Y-129020943D01*
X75374673Y-129284192D01*
X75718201Y-129426838D01*
X75765077Y-129426879D01*
X78070198Y-131732000D01*
X77719802Y-131732000D01*
X77692401Y-131704599D01*
X77445839Y-131539852D01*
X77155000Y-131482000D01*
X68155000Y-131482000D01*
X67864161Y-131539852D01*
X67617599Y-131704599D01*
X67015320Y-132306878D01*
X66969833Y-132306838D01*
X66626057Y-132448883D01*
X66362808Y-132711673D01*
X66220162Y-133055201D01*
X66219838Y-133427167D01*
X66361883Y-133770943D01*
X66624673Y-134034192D01*
X66968201Y-134176838D01*
X67340167Y-134177162D01*
X67683943Y-134035117D01*
X67947192Y-133772327D01*
X68089838Y-133428799D01*
X68089879Y-133381923D01*
X68469802Y-133002000D01*
X76458246Y-133002000D01*
X76306057Y-133064883D01*
X76042808Y-133327673D01*
X76006339Y-133415500D01*
X74603463Y-133415500D01*
X74571327Y-133383308D01*
X74227799Y-133240662D01*
X73855833Y-133240338D01*
X73512057Y-133382383D01*
X73248808Y-133645173D01*
X73106162Y-133988701D01*
X73105838Y-134360667D01*
X73247883Y-134704443D01*
X73510673Y-134967692D01*
X73854201Y-135110338D01*
X74226167Y-135110662D01*
X74569943Y-134968617D01*
X74603118Y-134935500D01*
X76517500Y-134935500D01*
X76808339Y-134877648D01*
X76934893Y-134793088D01*
X77020167Y-134793162D01*
X77363943Y-134651117D01*
X77627192Y-134388327D01*
X77769838Y-134044799D01*
X77770162Y-133672833D01*
X77628117Y-133329057D01*
X77551194Y-133252000D01*
X81805474Y-133252000D01*
X81805387Y-133352000D01*
X80327500Y-133352000D01*
X80084914Y-133400254D01*
X80036660Y-133409852D01*
X79790099Y-133574599D01*
X74646599Y-138718099D01*
X74481852Y-138964661D01*
X74424000Y-139255500D01*
X74424000Y-139827000D01*
X74481852Y-140117839D01*
X74646599Y-140364401D01*
X75304198Y-141022000D01*
X53605500Y-141022000D01*
X53605500Y-131070021D01*
X54689560Y-131070021D01*
X55075437Y-132003915D01*
X55789327Y-132719052D01*
X56722546Y-133106559D01*
X57733021Y-133107440D01*
X58122571Y-132946481D01*
X57992420Y-133259919D01*
X57991583Y-134219870D01*
X58122806Y-134537453D01*
X57737454Y-134377441D01*
X56726979Y-134376560D01*
X55793085Y-134762437D01*
X55077948Y-135476327D01*
X54690441Y-136409546D01*
X54689560Y-137420021D01*
X55075437Y-138353915D01*
X55789327Y-139069052D01*
X56722546Y-139456559D01*
X57733021Y-139457440D01*
X58666915Y-139071563D01*
X59382052Y-138357673D01*
X59769559Y-137424454D01*
X59770440Y-136413979D01*
X59609481Y-136024429D01*
X59922919Y-136154580D01*
X60882870Y-136155417D01*
X61200453Y-136024194D01*
X61040441Y-136409546D01*
X61039560Y-137420021D01*
X61425437Y-138353915D01*
X62139327Y-139069052D01*
X63072546Y-139456559D01*
X64083021Y-139457440D01*
X65016915Y-139071563D01*
X65732052Y-138357673D01*
X66119559Y-137424454D01*
X66120440Y-136413979D01*
X65734563Y-135480085D01*
X65020673Y-134764948D01*
X64087454Y-134377441D01*
X63076979Y-134376560D01*
X62687429Y-134537519D01*
X62817580Y-134224081D01*
X62818417Y-133264130D01*
X62687194Y-132946547D01*
X63072546Y-133106559D01*
X64083021Y-133107440D01*
X65016915Y-132721563D01*
X65732052Y-132007673D01*
X66119559Y-131074454D01*
X66120440Y-130063979D01*
X65744307Y-129153667D01*
X71073838Y-129153667D01*
X71215883Y-129497443D01*
X71478673Y-129760692D01*
X71822201Y-129903338D01*
X71869077Y-129903379D01*
X72868599Y-130902901D01*
X73115160Y-131067648D01*
X73406000Y-131125500D01*
X73796037Y-131125500D01*
X73828173Y-131157692D01*
X74171701Y-131300338D01*
X74543667Y-131300662D01*
X74887443Y-131158617D01*
X75150692Y-130895827D01*
X75293338Y-130552299D01*
X75293662Y-130180333D01*
X75151617Y-129836557D01*
X74888827Y-129573308D01*
X74545299Y-129430662D01*
X74173333Y-129430338D01*
X73829557Y-129572383D01*
X73796382Y-129605500D01*
X73720802Y-129605500D01*
X72944122Y-128828820D01*
X72944162Y-128783333D01*
X72802117Y-128439557D01*
X72539327Y-128176308D01*
X72195799Y-128033662D01*
X71823833Y-128033338D01*
X71480057Y-128175383D01*
X71216808Y-128438173D01*
X71074162Y-128781701D01*
X71073838Y-129153667D01*
X65744307Y-129153667D01*
X65734563Y-129130085D01*
X65020673Y-128414948D01*
X64087454Y-128027441D01*
X63076979Y-128026560D01*
X62143085Y-128412437D01*
X61427948Y-129126327D01*
X61040441Y-130059546D01*
X61039560Y-131070021D01*
X61200519Y-131459571D01*
X60887081Y-131329420D01*
X59927130Y-131328583D01*
X59609547Y-131459806D01*
X59769559Y-131074454D01*
X59770440Y-130063979D01*
X59384563Y-129130085D01*
X58670673Y-128414948D01*
X57737454Y-128027441D01*
X56726979Y-128026560D01*
X55793085Y-128412437D01*
X55077948Y-129126327D01*
X54690441Y-130059546D01*
X54689560Y-131070021D01*
X53605500Y-131070021D01*
X53605500Y-96769021D01*
X54355560Y-96769021D01*
X54741437Y-97702915D01*
X55455327Y-98418052D01*
X56388546Y-98805559D01*
X57399021Y-98806440D01*
X57788571Y-98645481D01*
X57658420Y-98958919D01*
X57657583Y-99918870D01*
X57788806Y-100236453D01*
X57403454Y-100076441D01*
X56392979Y-100075560D01*
X55459085Y-100461437D01*
X54743948Y-101175327D01*
X54356441Y-102108546D01*
X54355560Y-103119021D01*
X54741437Y-104052915D01*
X55455327Y-104768052D01*
X56388546Y-105155559D01*
X57399021Y-105156440D01*
X58332915Y-104770563D01*
X59048052Y-104056673D01*
X59435559Y-103123454D01*
X59436440Y-102112979D01*
X59275481Y-101723429D01*
X59588919Y-101853580D01*
X60548870Y-101854417D01*
X60866453Y-101723194D01*
X60706441Y-102108546D01*
X60705560Y-103119021D01*
X61091437Y-104052915D01*
X61805327Y-104768052D01*
X62738546Y-105155559D01*
X63749021Y-105156440D01*
X64682915Y-104770563D01*
X65398052Y-104056673D01*
X65785559Y-103123454D01*
X65786440Y-102112979D01*
X65400563Y-101179085D01*
X64686673Y-100463948D01*
X63753454Y-100076441D01*
X62742979Y-100075560D01*
X62353429Y-100236519D01*
X62483580Y-99923081D01*
X62484417Y-98963130D01*
X62353194Y-98645547D01*
X62738546Y-98805559D01*
X63749021Y-98806440D01*
X64682915Y-98420563D01*
X65398052Y-97706673D01*
X65785559Y-96773454D01*
X65786440Y-95762979D01*
X65400563Y-94829085D01*
X64686673Y-94113948D01*
X63753454Y-93726441D01*
X62742979Y-93725560D01*
X61809085Y-94111437D01*
X61093948Y-94825327D01*
X60706441Y-95758546D01*
X60705560Y-96769021D01*
X60866519Y-97158571D01*
X60553081Y-97028420D01*
X59593130Y-97027583D01*
X59275547Y-97158806D01*
X59435559Y-96773454D01*
X59436440Y-95762979D01*
X59050563Y-94829085D01*
X58336673Y-94113948D01*
X57403454Y-93726441D01*
X56392979Y-93725560D01*
X55459085Y-94111437D01*
X54743948Y-94825327D01*
X54356441Y-95758546D01*
X54355560Y-96769021D01*
X53605500Y-96769021D01*
X53605500Y-78163521D01*
X54228560Y-78163521D01*
X54614437Y-79097415D01*
X55328327Y-79812552D01*
X56261546Y-80200059D01*
X57272021Y-80200940D01*
X57661571Y-80039981D01*
X57531420Y-80353419D01*
X57530583Y-81313370D01*
X57661806Y-81630953D01*
X57276454Y-81470941D01*
X56265979Y-81470060D01*
X55332085Y-81855937D01*
X54616948Y-82569827D01*
X54229441Y-83503046D01*
X54228560Y-84513521D01*
X54614437Y-85447415D01*
X55328327Y-86162552D01*
X56261546Y-86550059D01*
X57272021Y-86550940D01*
X58205915Y-86165063D01*
X58921052Y-85451173D01*
X59308559Y-84517954D01*
X59309440Y-83507479D01*
X59148481Y-83117929D01*
X59461919Y-83248080D01*
X60421870Y-83248917D01*
X60739453Y-83117694D01*
X60579441Y-83503046D01*
X60578560Y-84513521D01*
X60964437Y-85447415D01*
X61678327Y-86162552D01*
X62611546Y-86550059D01*
X63622021Y-86550940D01*
X64555915Y-86165063D01*
X65271052Y-85451173D01*
X65658559Y-84517954D01*
X65659440Y-83507479D01*
X65273563Y-82573585D01*
X64559673Y-81858448D01*
X63926425Y-81595500D01*
X71882000Y-81595500D01*
X72172839Y-81537648D01*
X72419401Y-81372901D01*
X79313500Y-74478802D01*
X79313500Y-78742698D01*
X79171820Y-78884378D01*
X79126333Y-78884338D01*
X78782557Y-79026383D01*
X78519308Y-79289173D01*
X78376662Y-79632701D01*
X78376338Y-80004667D01*
X78518383Y-80348443D01*
X78781173Y-80611692D01*
X79124701Y-80754338D01*
X79496667Y-80754662D01*
X79840443Y-80612617D01*
X80103692Y-80349827D01*
X80246338Y-80006299D01*
X80246379Y-79959423D01*
X80610901Y-79594901D01*
X80775648Y-79348339D01*
X80833500Y-79057500D01*
X80833500Y-73911302D01*
X81211797Y-73533005D01*
X81312383Y-73776443D01*
X81345500Y-73809618D01*
X81345500Y-79765037D01*
X81313308Y-79797173D01*
X81170662Y-80140701D01*
X81170338Y-80512667D01*
X81312383Y-80856443D01*
X81575173Y-81119692D01*
X81918701Y-81262338D01*
X82290667Y-81262662D01*
X82634443Y-81120617D01*
X82897692Y-80857827D01*
X83040338Y-80514299D01*
X83040662Y-80142333D01*
X82898617Y-79798557D01*
X82865500Y-79765382D01*
X82865500Y-73809963D01*
X82897692Y-73777827D01*
X83040338Y-73434299D01*
X83040662Y-73062333D01*
X82998172Y-72959500D01*
X86277953Y-72959500D01*
X86392383Y-73236443D01*
X86655173Y-73499692D01*
X86998701Y-73642338D01*
X87370667Y-73642662D01*
X87714443Y-73500617D01*
X87977692Y-73237827D01*
X88120338Y-72894299D01*
X88120662Y-72522333D01*
X87978617Y-72178557D01*
X87945500Y-72145382D01*
X87945500Y-71752302D01*
X88075135Y-71622667D01*
X90060338Y-71622667D01*
X90202383Y-71966443D01*
X90465173Y-72229692D01*
X90808701Y-72372338D01*
X91180667Y-72372662D01*
X91524443Y-72230617D01*
X91557618Y-72197500D01*
X97919698Y-72197500D01*
X99125500Y-73403302D01*
X99125500Y-78495037D01*
X99093308Y-78527173D01*
X98950662Y-78870701D01*
X98950608Y-78932500D01*
X97010610Y-78932500D01*
X97010662Y-78872333D01*
X96868617Y-78528557D01*
X96835500Y-78495382D01*
X96835500Y-76517500D01*
X96777648Y-76226661D01*
X96777648Y-76226660D01*
X96612901Y-75980099D01*
X95740622Y-75107820D01*
X95740662Y-75062333D01*
X95715443Y-75001297D01*
X96019367Y-75001562D01*
X96363143Y-74859517D01*
X96626392Y-74596727D01*
X96769038Y-74253199D01*
X96769362Y-73881233D01*
X96627317Y-73537457D01*
X96364527Y-73274208D01*
X96020999Y-73131562D01*
X95649033Y-73131238D01*
X95470999Y-73204800D01*
X94996000Y-73204800D01*
X94705161Y-73262652D01*
X94458599Y-73427399D01*
X93865720Y-74020278D01*
X93820233Y-74020238D01*
X93476457Y-74162283D01*
X93213208Y-74425073D01*
X93070562Y-74768601D01*
X93070238Y-75140567D01*
X93212283Y-75484343D01*
X93475073Y-75747592D01*
X93818601Y-75890238D01*
X94126247Y-75890506D01*
X94275173Y-76039692D01*
X94618701Y-76182338D01*
X94665577Y-76182379D01*
X95315500Y-76832302D01*
X95315500Y-78495037D01*
X95283308Y-78527173D01*
X95237392Y-78637751D01*
X94911557Y-78772383D01*
X94648308Y-79035173D01*
X94505662Y-79378701D01*
X94505609Y-79439741D01*
X94276557Y-79534383D01*
X94013308Y-79797173D01*
X93870662Y-80140701D01*
X93870338Y-80512667D01*
X94012383Y-80856443D01*
X94275173Y-81119692D01*
X94618701Y-81262338D01*
X94990667Y-81262662D01*
X95334443Y-81120617D01*
X95367618Y-81087500D01*
X104965500Y-81087500D01*
X105256339Y-81029648D01*
X105502901Y-80864901D01*
X105667648Y-80618339D01*
X105725500Y-80327500D01*
X105725500Y-79619963D01*
X105757692Y-79587827D01*
X105900338Y-79244299D01*
X105900662Y-78872333D01*
X105758617Y-78528557D01*
X105495827Y-78265308D01*
X105152299Y-78122662D01*
X104780333Y-78122338D01*
X104436557Y-78264383D01*
X104173308Y-78527173D01*
X104030662Y-78870701D01*
X104030338Y-79242667D01*
X104164556Y-79567500D01*
X103921840Y-79567500D01*
X103947500Y-79438500D01*
X103947500Y-73596500D01*
X103889648Y-73305661D01*
X103724901Y-73059099D01*
X102863302Y-72197500D01*
X107190698Y-72197500D01*
X108015500Y-73022302D01*
X108015500Y-83597500D01*
X108073352Y-83888339D01*
X108238099Y-84134901D01*
X109650378Y-85547180D01*
X109650338Y-85592667D01*
X109792383Y-85936443D01*
X110055173Y-86199692D01*
X110398701Y-86342338D01*
X110770667Y-86342662D01*
X111114443Y-86200617D01*
X111377692Y-85937827D01*
X111520338Y-85594299D01*
X111520662Y-85222333D01*
X111378617Y-84878557D01*
X111115827Y-84615308D01*
X110772299Y-84472662D01*
X110725423Y-84472621D01*
X109535500Y-83282698D01*
X109535500Y-72707500D01*
X109504390Y-72551099D01*
X109477648Y-72416660D01*
X109312901Y-72170099D01*
X108070302Y-70927500D01*
X112023037Y-70927500D01*
X112055173Y-70959692D01*
X112398701Y-71102338D01*
X112770667Y-71102662D01*
X113114443Y-70960617D01*
X113377692Y-70697827D01*
X113520338Y-70354299D01*
X113520662Y-69982333D01*
X113378617Y-69638557D01*
X113115827Y-69375308D01*
X112772299Y-69232662D01*
X112400333Y-69232338D01*
X112056557Y-69374383D01*
X112023382Y-69407500D01*
X96637963Y-69407500D01*
X96605827Y-69375308D01*
X96262299Y-69232662D01*
X95890333Y-69232338D01*
X95546557Y-69374383D01*
X95283308Y-69637173D01*
X95140662Y-69980701D01*
X95140338Y-70352667D01*
X95274556Y-70677500D01*
X91557963Y-70677500D01*
X91525827Y-70645308D01*
X91182299Y-70502662D01*
X90810333Y-70502338D01*
X90466557Y-70644383D01*
X90203308Y-70907173D01*
X90060662Y-71250701D01*
X90060338Y-71622667D01*
X88075135Y-71622667D01*
X88595180Y-71102622D01*
X88640667Y-71102662D01*
X88984443Y-70960617D01*
X89247692Y-70697827D01*
X89390338Y-70354299D01*
X89390662Y-69982333D01*
X89248617Y-69638557D01*
X88985827Y-69375308D01*
X88642299Y-69232662D01*
X88270333Y-69232338D01*
X87926557Y-69374383D01*
X87663308Y-69637173D01*
X87520662Y-69980701D01*
X87520621Y-70027577D01*
X86648099Y-70900099D01*
X86483352Y-71146661D01*
X86425500Y-71437500D01*
X86425500Y-71439500D01*
X81470500Y-71439500D01*
X81179660Y-71497352D01*
X80933099Y-71662099D01*
X80610048Y-71985150D01*
X80540327Y-71915308D01*
X80196799Y-71772662D01*
X79824833Y-71772338D01*
X79481057Y-71914383D01*
X79217808Y-72177173D01*
X79075162Y-72520701D01*
X79075121Y-72567577D01*
X71567198Y-80075500D01*
X63925609Y-80075500D01*
X64555915Y-79815063D01*
X65271052Y-79101173D01*
X65658559Y-78167954D01*
X65659440Y-77157479D01*
X65273563Y-76223585D01*
X64559673Y-75508448D01*
X63626454Y-75120941D01*
X62615979Y-75120060D01*
X61682085Y-75505937D01*
X60966948Y-76219827D01*
X60579441Y-77153046D01*
X60578560Y-78163521D01*
X60739519Y-78553071D01*
X60426081Y-78422920D01*
X59466130Y-78422083D01*
X59148547Y-78553306D01*
X59308559Y-78167954D01*
X59309440Y-77157479D01*
X58923563Y-76223585D01*
X58209673Y-75508448D01*
X57276454Y-75120941D01*
X56265979Y-75120060D01*
X55332085Y-75505937D01*
X54616948Y-76219827D01*
X54229441Y-77153046D01*
X54228560Y-78163521D01*
X53605500Y-78163521D01*
X53605500Y-69659247D01*
X75000678Y-69659247D01*
X75142723Y-70003023D01*
X75405513Y-70266272D01*
X75749041Y-70408918D01*
X76121007Y-70409242D01*
X76464783Y-70267197D01*
X76497958Y-70234080D01*
X76677678Y-70234080D01*
X77195278Y-70751680D01*
X77195238Y-70797167D01*
X77337283Y-71140943D01*
X77600073Y-71404192D01*
X77943601Y-71546838D01*
X78315567Y-71547162D01*
X78659343Y-71405117D01*
X78922592Y-71142327D01*
X79065238Y-70798799D01*
X79065562Y-70426833D01*
X78923517Y-70083057D01*
X78660727Y-69819808D01*
X78317199Y-69677162D01*
X78270323Y-69677121D01*
X77529881Y-68936679D01*
X77283319Y-68771932D01*
X76992480Y-68714080D01*
X76498303Y-68714080D01*
X76466167Y-68681888D01*
X76122639Y-68539242D01*
X75750673Y-68538918D01*
X75406897Y-68680963D01*
X75143648Y-68943753D01*
X75001002Y-69287281D01*
X75000678Y-69659247D01*
X53605500Y-69659247D01*
X53605500Y-66750000D01*
X123750000Y-66750000D01*
X123750000Y-99000490D01*
G36*
X116080000Y-124650500D02*
X116137852Y-124941339D01*
X116302599Y-125187901D01*
X122239500Y-131124802D01*
X122239500Y-138178698D01*
X120017698Y-140400500D01*
X93071302Y-140400500D01*
X93544680Y-139927122D01*
X93590167Y-139927162D01*
X93933943Y-139785117D01*
X94197192Y-139522327D01*
X94339838Y-139178799D01*
X94340162Y-138806833D01*
X94198117Y-138463057D01*
X93935327Y-138199808D01*
X93591799Y-138057162D01*
X93219833Y-138056838D01*
X92876057Y-138198883D01*
X92612808Y-138461673D01*
X92470162Y-138805201D01*
X92470121Y-138852077D01*
X91590198Y-139732000D01*
X89898003Y-139732000D01*
X90136692Y-139493727D01*
X90279338Y-139150199D01*
X90279662Y-138778233D01*
X90137617Y-138434457D01*
X90104500Y-138401282D01*
X90104500Y-137016302D01*
X90469878Y-137381680D01*
X90469838Y-137427167D01*
X90611883Y-137770943D01*
X90874673Y-138034192D01*
X91218201Y-138176838D01*
X91590167Y-138177162D01*
X91933943Y-138035117D01*
X92197192Y-137772327D01*
X92339838Y-137428799D01*
X92340162Y-137056833D01*
X92198117Y-136713057D01*
X91935327Y-136449808D01*
X91591799Y-136307162D01*
X91544923Y-136307121D01*
X91165000Y-135927198D01*
X91165000Y-132554463D01*
X91197192Y-132522327D01*
X91339838Y-132178799D01*
X91340162Y-131806833D01*
X91198117Y-131463057D01*
X91016034Y-131280656D01*
X91016262Y-131018533D01*
X90874217Y-130674757D01*
X90611427Y-130411508D01*
X90267899Y-130268862D01*
X89895933Y-130268538D01*
X89552157Y-130410583D01*
X89350095Y-130612293D01*
X88840122Y-130102320D01*
X88840162Y-130056833D01*
X88817506Y-130002000D01*
X90405000Y-130002000D01*
X90695839Y-129944148D01*
X90942401Y-129779401D01*
X91278575Y-129443227D01*
X93118498Y-129443227D01*
X93260543Y-129787003D01*
X93300805Y-129827336D01*
X93308961Y-130471639D01*
X93315201Y-130501059D01*
X93312034Y-130530964D01*
X93345774Y-130645199D01*
X93370489Y-130761722D01*
X93387512Y-130786513D01*
X93396031Y-130815357D01*
X93470923Y-130907990D01*
X93538344Y-131006179D01*
X93563558Y-131022568D01*
X93582466Y-131045956D01*
X93892023Y-131303825D01*
X94719878Y-132131680D01*
X94719838Y-132177167D01*
X94861883Y-132520943D01*
X95124673Y-132784192D01*
X95468201Y-132926838D01*
X95840167Y-132927162D01*
X96183943Y-132785117D01*
X96395000Y-132574428D01*
X96395000Y-137492000D01*
X96452852Y-137782839D01*
X96588710Y-137986165D01*
X96362808Y-138211673D01*
X96220162Y-138555201D01*
X96219838Y-138927167D01*
X96361883Y-139270943D01*
X96624673Y-139534192D01*
X96968201Y-139676838D01*
X97088410Y-139676943D01*
X97114160Y-139694148D01*
X97405000Y-139752000D01*
X98655000Y-139752000D01*
X98945839Y-139694148D01*
X99192401Y-139529401D01*
X100258196Y-138463606D01*
X100220162Y-138555201D01*
X100219838Y-138927167D01*
X100361883Y-139270943D01*
X100624673Y-139534192D01*
X100968201Y-139676838D01*
X101340167Y-139677162D01*
X101683943Y-139535117D01*
X101947192Y-139272327D01*
X102089838Y-138928799D01*
X102089879Y-138881923D01*
X102719802Y-138252000D01*
X103905000Y-138252000D01*
X104195839Y-138194148D01*
X104442401Y-138029401D01*
X105294680Y-137177122D01*
X105340167Y-137177162D01*
X105683943Y-137035117D01*
X105903821Y-136815623D01*
X107969878Y-138881680D01*
X107969838Y-138927167D01*
X108111883Y-139270943D01*
X108374673Y-139534192D01*
X108718201Y-139676838D01*
X109090167Y-139677162D01*
X109433943Y-139535117D01*
X109697192Y-139272327D01*
X109839838Y-138928799D01*
X109840162Y-138556833D01*
X109698117Y-138213057D01*
X109435327Y-137949808D01*
X109091799Y-137807162D01*
X109044923Y-137807121D01*
X108080302Y-136842500D01*
X118945407Y-136842500D01*
X119058446Y-137410785D01*
X119380353Y-137892554D01*
X119862122Y-138214461D01*
X120430407Y-138327500D01*
X120488593Y-138327500D01*
X121056878Y-138214461D01*
X121538647Y-137892554D01*
X121860554Y-137410785D01*
X121973593Y-136842500D01*
X121860554Y-136274215D01*
X121538647Y-135792446D01*
X121494723Y-135763097D01*
X121669198Y-135690827D01*
X121847827Y-135512199D01*
X121944500Y-135278810D01*
X121944500Y-134588250D01*
X121785750Y-134429500D01*
X120586500Y-134429500D01*
X120586500Y-134449500D01*
X120332500Y-134449500D01*
X120332500Y-134429500D01*
X119133250Y-134429500D01*
X118974500Y-134588250D01*
X118974500Y-135278810D01*
X119071173Y-135512199D01*
X119249802Y-135690827D01*
X119424277Y-135763097D01*
X119380353Y-135792446D01*
X119058446Y-136274215D01*
X118945407Y-136842500D01*
X108080302Y-136842500D01*
X105915000Y-134677198D01*
X105915000Y-134554463D01*
X105947192Y-134522327D01*
X106089838Y-134178799D01*
X106090162Y-133806833D01*
X105948117Y-133463057D01*
X105818220Y-133332933D01*
X105834539Y-133326190D01*
X118974500Y-133326190D01*
X118974500Y-134016750D01*
X119133250Y-134175500D01*
X120332500Y-134175500D01*
X120332500Y-132976250D01*
X120586500Y-132976250D01*
X120586500Y-134175500D01*
X121785750Y-134175500D01*
X121944500Y-134016750D01*
X121944500Y-133326190D01*
X121847827Y-133092801D01*
X121669198Y-132914173D01*
X121435809Y-132817500D01*
X120745250Y-132817500D01*
X120586500Y-132976250D01*
X120332500Y-132976250D01*
X120173750Y-132817500D01*
X119483191Y-132817500D01*
X119249802Y-132914173D01*
X119071173Y-133092801D01*
X118974500Y-133326190D01*
X105834539Y-133326190D01*
X105933943Y-133285117D01*
X106197192Y-133022327D01*
X106339838Y-132678799D01*
X106340162Y-132306833D01*
X106198117Y-131963057D01*
X105935327Y-131699808D01*
X105591799Y-131557162D01*
X105219833Y-131556838D01*
X104876057Y-131698883D01*
X104624541Y-131949961D01*
X104617599Y-131954599D01*
X98590009Y-137982189D01*
X98590162Y-137806833D01*
X98448117Y-137463057D01*
X98185327Y-137199808D01*
X97915000Y-137087558D01*
X97915000Y-130554463D01*
X97947192Y-130522327D01*
X98089838Y-130178799D01*
X98090162Y-129806833D01*
X97948117Y-129463057D01*
X97685327Y-129199808D01*
X97341799Y-129057162D01*
X96969833Y-129056838D01*
X96626057Y-129198883D01*
X96362808Y-129461673D01*
X96220162Y-129805201D01*
X96219838Y-130177167D01*
X96361883Y-130520943D01*
X96395000Y-130554118D01*
X96395000Y-131409847D01*
X96185327Y-131199808D01*
X95841799Y-131057162D01*
X95794923Y-131057121D01*
X94942401Y-130204599D01*
X94913378Y-130185207D01*
X94891434Y-130158064D01*
X94824406Y-130102228D01*
X94820751Y-129813444D01*
X94845852Y-129788387D01*
X94988498Y-129444859D01*
X94988822Y-129072893D01*
X94846777Y-128729117D01*
X94583987Y-128465868D01*
X94240459Y-128323222D01*
X93868493Y-128322898D01*
X93524717Y-128464943D01*
X93261468Y-128727733D01*
X93118822Y-129071261D01*
X93118498Y-129443227D01*
X91278575Y-129443227D01*
X92469802Y-128252000D01*
X108592537Y-128252000D01*
X108624673Y-128284192D01*
X108968201Y-128426838D01*
X109340167Y-128427162D01*
X109683943Y-128285117D01*
X109947192Y-128022327D01*
X110089838Y-127678799D01*
X110090162Y-127306833D01*
X109948117Y-126963057D01*
X109685327Y-126699808D01*
X109341799Y-126557162D01*
X108969833Y-126556838D01*
X108626057Y-126698883D01*
X108592882Y-126732000D01*
X99697972Y-126732000D01*
X99725192Y-126704827D01*
X99867838Y-126361299D01*
X99868162Y-125989333D01*
X99726117Y-125645557D01*
X99463327Y-125382308D01*
X99119799Y-125239662D01*
X99072923Y-125239621D01*
X98862802Y-125029500D01*
X109664500Y-125029500D01*
X109955339Y-124971648D01*
X110201901Y-124806901D01*
X116080000Y-118928802D01*
X116080000Y-124650500D01*
X116080000Y-124650500D01*
G37*
X116080000Y-124650500D02*
X116137852Y-124941339D01*
X116302599Y-125187901D01*
X122239500Y-131124802D01*
X122239500Y-138178698D01*
X120017698Y-140400500D01*
X93071302Y-140400500D01*
X93544680Y-139927122D01*
X93590167Y-139927162D01*
X93933943Y-139785117D01*
X94197192Y-139522327D01*
X94339838Y-139178799D01*
X94340162Y-138806833D01*
X94198117Y-138463057D01*
X93935327Y-138199808D01*
X93591799Y-138057162D01*
X93219833Y-138056838D01*
X92876057Y-138198883D01*
X92612808Y-138461673D01*
X92470162Y-138805201D01*
X92470121Y-138852077D01*
X91590198Y-139732000D01*
X89898003Y-139732000D01*
X90136692Y-139493727D01*
X90279338Y-139150199D01*
X90279662Y-138778233D01*
X90137617Y-138434457D01*
X90104500Y-138401282D01*
X90104500Y-137016302D01*
X90469878Y-137381680D01*
X90469838Y-137427167D01*
X90611883Y-137770943D01*
X90874673Y-138034192D01*
X91218201Y-138176838D01*
X91590167Y-138177162D01*
X91933943Y-138035117D01*
X92197192Y-137772327D01*
X92339838Y-137428799D01*
X92340162Y-137056833D01*
X92198117Y-136713057D01*
X91935327Y-136449808D01*
X91591799Y-136307162D01*
X91544923Y-136307121D01*
X91165000Y-135927198D01*
X91165000Y-132554463D01*
X91197192Y-132522327D01*
X91339838Y-132178799D01*
X91340162Y-131806833D01*
X91198117Y-131463057D01*
X91016034Y-131280656D01*
X91016262Y-131018533D01*
X90874217Y-130674757D01*
X90611427Y-130411508D01*
X90267899Y-130268862D01*
X89895933Y-130268538D01*
X89552157Y-130410583D01*
X89350095Y-130612293D01*
X88840122Y-130102320D01*
X88840162Y-130056833D01*
X88817506Y-130002000D01*
X90405000Y-130002000D01*
X90695839Y-129944148D01*
X90942401Y-129779401D01*
X91278575Y-129443227D01*
X93118498Y-129443227D01*
X93260543Y-129787003D01*
X93300805Y-129827336D01*
X93308961Y-130471639D01*
X93315201Y-130501059D01*
X93312034Y-130530964D01*
X93345774Y-130645199D01*
X93370489Y-130761722D01*
X93387512Y-130786513D01*
X93396031Y-130815357D01*
X93470923Y-130907990D01*
X93538344Y-131006179D01*
X93563558Y-131022568D01*
X93582466Y-131045956D01*
X93892023Y-131303825D01*
X94719878Y-132131680D01*
X94719838Y-132177167D01*
X94861883Y-132520943D01*
X95124673Y-132784192D01*
X95468201Y-132926838D01*
X95840167Y-132927162D01*
X96183943Y-132785117D01*
X96395000Y-132574428D01*
X96395000Y-137492000D01*
X96452852Y-137782839D01*
X96588710Y-137986165D01*
X96362808Y-138211673D01*
X96220162Y-138555201D01*
X96219838Y-138927167D01*
X96361883Y-139270943D01*
X96624673Y-139534192D01*
X96968201Y-139676838D01*
X97088410Y-139676943D01*
X97114160Y-139694148D01*
X97405000Y-139752000D01*
X98655000Y-139752000D01*
X98945839Y-139694148D01*
X99192401Y-139529401D01*
X100258196Y-138463606D01*
X100220162Y-138555201D01*
X100219838Y-138927167D01*
X100361883Y-139270943D01*
X100624673Y-139534192D01*
X100968201Y-139676838D01*
X101340167Y-139677162D01*
X101683943Y-139535117D01*
X101947192Y-139272327D01*
X102089838Y-138928799D01*
X102089879Y-138881923D01*
X102719802Y-138252000D01*
X103905000Y-138252000D01*
X104195839Y-138194148D01*
X104442401Y-138029401D01*
X105294680Y-137177122D01*
X105340167Y-137177162D01*
X105683943Y-137035117D01*
X105903821Y-136815623D01*
X107969878Y-138881680D01*
X107969838Y-138927167D01*
X108111883Y-139270943D01*
X108374673Y-139534192D01*
X108718201Y-139676838D01*
X109090167Y-139677162D01*
X109433943Y-139535117D01*
X109697192Y-139272327D01*
X109839838Y-138928799D01*
X109840162Y-138556833D01*
X109698117Y-138213057D01*
X109435327Y-137949808D01*
X109091799Y-137807162D01*
X109044923Y-137807121D01*
X108080302Y-136842500D01*
X118945407Y-136842500D01*
X119058446Y-137410785D01*
X119380353Y-137892554D01*
X119862122Y-138214461D01*
X120430407Y-138327500D01*
X120488593Y-138327500D01*
X121056878Y-138214461D01*
X121538647Y-137892554D01*
X121860554Y-137410785D01*
X121973593Y-136842500D01*
X121860554Y-136274215D01*
X121538647Y-135792446D01*
X121494723Y-135763097D01*
X121669198Y-135690827D01*
X121847827Y-135512199D01*
X121944500Y-135278810D01*
X121944500Y-134588250D01*
X121785750Y-134429500D01*
X120586500Y-134429500D01*
X120586500Y-134449500D01*
X120332500Y-134449500D01*
X120332500Y-134429500D01*
X119133250Y-134429500D01*
X118974500Y-134588250D01*
X118974500Y-135278810D01*
X119071173Y-135512199D01*
X119249802Y-135690827D01*
X119424277Y-135763097D01*
X119380353Y-135792446D01*
X119058446Y-136274215D01*
X118945407Y-136842500D01*
X108080302Y-136842500D01*
X105915000Y-134677198D01*
X105915000Y-134554463D01*
X105947192Y-134522327D01*
X106089838Y-134178799D01*
X106090162Y-133806833D01*
X105948117Y-133463057D01*
X105818220Y-133332933D01*
X105834539Y-133326190D01*
X118974500Y-133326190D01*
X118974500Y-134016750D01*
X119133250Y-134175500D01*
X120332500Y-134175500D01*
X120332500Y-132976250D01*
X120586500Y-132976250D01*
X120586500Y-134175500D01*
X121785750Y-134175500D01*
X121944500Y-134016750D01*
X121944500Y-133326190D01*
X121847827Y-133092801D01*
X121669198Y-132914173D01*
X121435809Y-132817500D01*
X120745250Y-132817500D01*
X120586500Y-132976250D01*
X120332500Y-132976250D01*
X120173750Y-132817500D01*
X119483191Y-132817500D01*
X119249802Y-132914173D01*
X119071173Y-133092801D01*
X118974500Y-133326190D01*
X105834539Y-133326190D01*
X105933943Y-133285117D01*
X106197192Y-133022327D01*
X106339838Y-132678799D01*
X106340162Y-132306833D01*
X106198117Y-131963057D01*
X105935327Y-131699808D01*
X105591799Y-131557162D01*
X105219833Y-131556838D01*
X104876057Y-131698883D01*
X104624541Y-131949961D01*
X104617599Y-131954599D01*
X98590009Y-137982189D01*
X98590162Y-137806833D01*
X98448117Y-137463057D01*
X98185327Y-137199808D01*
X97915000Y-137087558D01*
X97915000Y-130554463D01*
X97947192Y-130522327D01*
X98089838Y-130178799D01*
X98090162Y-129806833D01*
X97948117Y-129463057D01*
X97685327Y-129199808D01*
X97341799Y-129057162D01*
X96969833Y-129056838D01*
X96626057Y-129198883D01*
X96362808Y-129461673D01*
X96220162Y-129805201D01*
X96219838Y-130177167D01*
X96361883Y-130520943D01*
X96395000Y-130554118D01*
X96395000Y-131409847D01*
X96185327Y-131199808D01*
X95841799Y-131057162D01*
X95794923Y-131057121D01*
X94942401Y-130204599D01*
X94913378Y-130185207D01*
X94891434Y-130158064D01*
X94824406Y-130102228D01*
X94820751Y-129813444D01*
X94845852Y-129788387D01*
X94988498Y-129444859D01*
X94988822Y-129072893D01*
X94846777Y-128729117D01*
X94583987Y-128465868D01*
X94240459Y-128323222D01*
X93868493Y-128322898D01*
X93524717Y-128464943D01*
X93261468Y-128727733D01*
X93118822Y-129071261D01*
X93118498Y-129443227D01*
X91278575Y-129443227D01*
X92469802Y-128252000D01*
X108592537Y-128252000D01*
X108624673Y-128284192D01*
X108968201Y-128426838D01*
X109340167Y-128427162D01*
X109683943Y-128285117D01*
X109947192Y-128022327D01*
X110089838Y-127678799D01*
X110090162Y-127306833D01*
X109948117Y-126963057D01*
X109685327Y-126699808D01*
X109341799Y-126557162D01*
X108969833Y-126556838D01*
X108626057Y-126698883D01*
X108592882Y-126732000D01*
X99697972Y-126732000D01*
X99725192Y-126704827D01*
X99867838Y-126361299D01*
X99868162Y-125989333D01*
X99726117Y-125645557D01*
X99463327Y-125382308D01*
X99119799Y-125239662D01*
X99072923Y-125239621D01*
X98862802Y-125029500D01*
X109664500Y-125029500D01*
X109955339Y-124971648D01*
X110201901Y-124806901D01*
X116080000Y-118928802D01*
X116080000Y-124650500D01*
G36*
X88584500Y-138400937D02*
X88552308Y-138433073D01*
X88409662Y-138776601D01*
X88409338Y-139148567D01*
X88551383Y-139492343D01*
X88790622Y-139732000D01*
X79469802Y-139732000D01*
X78340122Y-138602320D01*
X78340162Y-138556833D01*
X78198117Y-138213057D01*
X77935327Y-137949808D01*
X77673298Y-137841004D01*
X80642302Y-134872000D01*
X83060698Y-134872000D01*
X83409599Y-135220901D01*
X83656161Y-135385648D01*
X83947000Y-135443500D01*
X86686537Y-135443500D01*
X86718673Y-135475692D01*
X87062201Y-135618338D01*
X87434167Y-135618662D01*
X87777943Y-135476617D01*
X88041192Y-135213827D01*
X88183838Y-134870299D01*
X88184162Y-134498333D01*
X88042117Y-134154557D01*
X87779327Y-133891308D01*
X87435799Y-133748662D01*
X87063833Y-133748338D01*
X86720057Y-133890383D01*
X86686882Y-133923500D01*
X85192133Y-133923500D01*
X85326338Y-133600299D01*
X85326641Y-133252000D01*
X87905000Y-133252000D01*
X88195839Y-133194148D01*
X88442401Y-133029401D01*
X88584500Y-132887302D01*
X88584500Y-138400937D01*
X88584500Y-138400937D01*
G37*
X88584500Y-138400937D02*
X88552308Y-138433073D01*
X88409662Y-138776601D01*
X88409338Y-139148567D01*
X88551383Y-139492343D01*
X88790622Y-139732000D01*
X79469802Y-139732000D01*
X78340122Y-138602320D01*
X78340162Y-138556833D01*
X78198117Y-138213057D01*
X77935327Y-137949808D01*
X77673298Y-137841004D01*
X80642302Y-134872000D01*
X83060698Y-134872000D01*
X83409599Y-135220901D01*
X83656161Y-135385648D01*
X83947000Y-135443500D01*
X86686537Y-135443500D01*
X86718673Y-135475692D01*
X87062201Y-135618338D01*
X87434167Y-135618662D01*
X87777943Y-135476617D01*
X88041192Y-135213827D01*
X88183838Y-134870299D01*
X88184162Y-134498333D01*
X88042117Y-134154557D01*
X87779327Y-133891308D01*
X87435799Y-133748662D01*
X87063833Y-133748338D01*
X86720057Y-133890383D01*
X86686882Y-133923500D01*
X85192133Y-133923500D01*
X85326338Y-133600299D01*
X85326641Y-133252000D01*
X87905000Y-133252000D01*
X88195839Y-133194148D01*
X88442401Y-133029401D01*
X88584500Y-132887302D01*
X88584500Y-138400937D01*
G36*
X90458099Y-87341901D02*
X90704661Y-87506648D01*
X90995500Y-87564500D01*
X92014198Y-87564500D01*
X94458599Y-90008901D01*
X94705161Y-90173648D01*
X94996000Y-90231500D01*
X112905698Y-90231500D01*
X121524598Y-98850400D01*
X121436500Y-98832560D01*
X119736500Y-98832560D01*
X119501183Y-98876838D01*
X119285059Y-99015910D01*
X119140069Y-99228110D01*
X119118592Y-99334166D01*
X118994557Y-99033977D01*
X118731767Y-98770728D01*
X118388239Y-98628082D01*
X118016273Y-98627758D01*
X117672497Y-98769803D01*
X117409248Y-99032593D01*
X117266602Y-99376121D01*
X117266278Y-99748087D01*
X117408323Y-100091863D01*
X117532880Y-100216638D01*
X117532880Y-100433017D01*
X117500688Y-100465153D01*
X117358042Y-100808681D01*
X117357718Y-101180647D01*
X117499763Y-101524423D01*
X117762553Y-101787672D01*
X118106081Y-101930318D01*
X118478047Y-101930642D01*
X118821823Y-101788597D01*
X119085072Y-101525807D01*
X119132594Y-101411362D01*
X119133338Y-101415317D01*
X119272410Y-101631441D01*
X119484610Y-101776431D01*
X119552041Y-101790086D01*
X119507353Y-101819946D01*
X119313546Y-102110000D01*
X118491000Y-102110000D01*
X118248414Y-102158254D01*
X118200160Y-102167852D01*
X117953599Y-102332599D01*
X115413599Y-104872599D01*
X115248852Y-105119161D01*
X115191000Y-105410000D01*
X115191000Y-117668198D01*
X109349698Y-123509500D01*
X103805054Y-123509500D01*
X103805162Y-123385833D01*
X103663117Y-123042057D01*
X103400327Y-122778808D01*
X103056799Y-122636162D01*
X103009923Y-122636121D01*
X101629401Y-121255599D01*
X101588699Y-121228403D01*
X101645838Y-121090799D01*
X101646162Y-120718833D01*
X101504117Y-120375057D01*
X101241327Y-120111808D01*
X100897799Y-119969162D01*
X100525833Y-119968838D01*
X100270570Y-120074310D01*
X100375838Y-119820799D01*
X100376162Y-119448833D01*
X100241944Y-119124000D01*
X104521000Y-119124000D01*
X104811839Y-119066148D01*
X105058401Y-118901401D01*
X105156000Y-118755333D01*
X105253599Y-118901401D01*
X106125878Y-119773680D01*
X106125838Y-119819167D01*
X106267883Y-120162943D01*
X106530673Y-120426192D01*
X106874201Y-120568838D01*
X107246167Y-120569162D01*
X107589943Y-120427117D01*
X107853192Y-120164327D01*
X107995838Y-119820799D01*
X107996162Y-119448833D01*
X107861944Y-119124000D01*
X109038537Y-119124000D01*
X109070673Y-119156192D01*
X109414201Y-119298838D01*
X109786167Y-119299162D01*
X110129943Y-119157117D01*
X110235954Y-119051290D01*
X110340673Y-119156192D01*
X110684201Y-119298838D01*
X111056167Y-119299162D01*
X111399943Y-119157117D01*
X111663192Y-118894327D01*
X111805838Y-118550799D01*
X111805879Y-118503923D01*
X112678401Y-117631401D01*
X112843148Y-117384840D01*
X112901000Y-117094000D01*
X112901000Y-116386463D01*
X112933192Y-116354327D01*
X113075838Y-116010799D01*
X113076162Y-115638833D01*
X112934117Y-115295057D01*
X112671327Y-115031808D01*
X112327799Y-114889162D01*
X111955833Y-114888838D01*
X111612057Y-115030883D01*
X111348808Y-115293673D01*
X111206162Y-115637201D01*
X111205838Y-116009167D01*
X111347883Y-116352943D01*
X111381000Y-116386118D01*
X111381000Y-116779198D01*
X110731320Y-117428878D01*
X110685833Y-117428838D01*
X110342057Y-117570883D01*
X110236046Y-117676710D01*
X110131327Y-117571808D01*
X109787799Y-117429162D01*
X109726759Y-117429109D01*
X109632117Y-117200057D01*
X109369327Y-116936808D01*
X109091000Y-116821236D01*
X109091000Y-110036463D01*
X109123192Y-110004327D01*
X109265838Y-109660799D01*
X109266162Y-109288833D01*
X109124117Y-108945057D01*
X108861327Y-108681808D01*
X108517799Y-108539162D01*
X108145833Y-108538838D01*
X107802057Y-108680883D01*
X107538808Y-108943673D01*
X107396162Y-109287201D01*
X107395838Y-109659167D01*
X107537883Y-110002943D01*
X107571000Y-110036118D01*
X107571000Y-117221000D01*
X107628852Y-117511839D01*
X107690432Y-117604000D01*
X107623463Y-117604000D01*
X107591327Y-117571808D01*
X107247799Y-117429162D01*
X106875833Y-117428838D01*
X106551000Y-117563056D01*
X106551000Y-112649000D01*
X106493148Y-112358161D01*
X106328401Y-112111599D01*
X104169401Y-109952599D01*
X103922839Y-109787852D01*
X103632000Y-109730000D01*
X102924463Y-109730000D01*
X102892327Y-109697808D01*
X102548799Y-109555162D01*
X102176833Y-109554838D01*
X101833057Y-109696883D01*
X101569808Y-109959673D01*
X101427162Y-110303201D01*
X101426838Y-110675167D01*
X101568883Y-111018943D01*
X101831673Y-111282192D01*
X102175201Y-111424838D01*
X102547167Y-111425162D01*
X102890943Y-111283117D01*
X102924118Y-111250000D01*
X103317198Y-111250000D01*
X105031000Y-112963802D01*
X105031000Y-115023367D01*
X104707799Y-114889162D01*
X104335833Y-114888838D01*
X103992057Y-115030883D01*
X103728808Y-115293673D01*
X103586162Y-115637201D01*
X103585838Y-116009167D01*
X103727883Y-116352943D01*
X103761000Y-116386118D01*
X103761000Y-117604000D01*
X99441000Y-117604000D01*
X99150161Y-117661852D01*
X98931000Y-117808290D01*
X98931000Y-111058802D01*
X99580680Y-110409122D01*
X99626167Y-110409162D01*
X99969943Y-110267117D01*
X100233192Y-110004327D01*
X100375838Y-109660799D01*
X100376162Y-109288833D01*
X100234117Y-108945057D01*
X99971327Y-108681808D01*
X99627799Y-108539162D01*
X99255833Y-108538838D01*
X98912057Y-108680883D01*
X98648808Y-108943673D01*
X98506162Y-109287201D01*
X98506121Y-109334077D01*
X97633599Y-110206599D01*
X97468852Y-110453161D01*
X97411000Y-110744000D01*
X97411000Y-114483367D01*
X97087799Y-114349162D01*
X96715833Y-114348838D01*
X96566126Y-114410696D01*
X96566162Y-114368833D01*
X96424117Y-114025057D01*
X96161327Y-113761808D01*
X95817799Y-113619162D01*
X95770923Y-113619121D01*
X95296122Y-113144320D01*
X95296162Y-113098833D01*
X95154117Y-112755057D01*
X95048290Y-112649046D01*
X95153192Y-112544327D01*
X95295838Y-112200799D01*
X95296162Y-111828833D01*
X95154117Y-111485057D01*
X94891327Y-111221808D01*
X94547799Y-111079162D01*
X94175833Y-111078838D01*
X93832057Y-111220883D01*
X93568808Y-111483673D01*
X93426162Y-111827201D01*
X93426121Y-111874077D01*
X92553599Y-112746599D01*
X92388852Y-112993161D01*
X92331000Y-113284000D01*
X92388852Y-113574839D01*
X92553599Y-113821401D01*
X93797539Y-115065341D01*
X93568808Y-115293673D01*
X93426162Y-115637201D01*
X93425838Y-116009167D01*
X93567883Y-116352943D01*
X93601000Y-116386118D01*
X93601000Y-116910198D01*
X91692000Y-115001198D01*
X91692000Y-113792000D01*
X91657556Y-113618838D01*
X91634148Y-113501160D01*
X91469401Y-113254599D01*
X91311000Y-113096198D01*
X91311000Y-112728863D01*
X91343192Y-112696727D01*
X91485838Y-112353199D01*
X91486162Y-111981233D01*
X91344117Y-111637457D01*
X91081327Y-111374208D01*
X90737799Y-111231562D01*
X90365833Y-111231238D01*
X90022057Y-111373283D01*
X89758808Y-111636073D01*
X89616162Y-111979601D01*
X89615838Y-112351567D01*
X89757883Y-112695343D01*
X89791000Y-112728518D01*
X89791000Y-113411000D01*
X89848852Y-113701839D01*
X90013599Y-113948401D01*
X90172000Y-114106802D01*
X90172000Y-115316000D01*
X90229852Y-115606839D01*
X90394599Y-115853401D01*
X91256198Y-116715000D01*
X90992802Y-116715000D01*
X90978122Y-116700320D01*
X90978162Y-116654833D01*
X90836117Y-116311057D01*
X90573327Y-116047808D01*
X90229799Y-115905162D01*
X89857833Y-115904838D01*
X89514057Y-116046883D01*
X89250808Y-116309673D01*
X89135236Y-116588000D01*
X88452802Y-116588000D01*
X87755000Y-115890198D01*
X87755000Y-114614802D01*
X88150680Y-114219122D01*
X88196167Y-114219162D01*
X88539943Y-114077117D01*
X88803192Y-113814327D01*
X88945838Y-113470799D01*
X88946162Y-113098833D01*
X88804117Y-112755057D01*
X88541327Y-112491808D01*
X88197799Y-112349162D01*
X87825833Y-112348838D01*
X87786070Y-112365268D01*
X86353302Y-110932500D01*
X90233500Y-110932500D01*
X90524339Y-110874648D01*
X90770901Y-110709901D01*
X91977401Y-109503401D01*
X92142148Y-109256839D01*
X92200000Y-108966000D01*
X92200000Y-107251500D01*
X92142148Y-106960661D01*
X91977401Y-106714099D01*
X91613122Y-106349820D01*
X91613162Y-106304333D01*
X91471117Y-105960557D01*
X91208327Y-105697308D01*
X90864799Y-105554662D01*
X90817923Y-105554621D01*
X90482023Y-105218721D01*
X93598064Y-105233922D01*
X93489662Y-105494981D01*
X93489338Y-105866947D01*
X93631383Y-106210723D01*
X93894173Y-106473972D01*
X93915960Y-106483019D01*
X93915960Y-109279837D01*
X93883768Y-109311973D01*
X93741122Y-109655501D01*
X93740798Y-110027467D01*
X93882843Y-110371243D01*
X94145633Y-110634492D01*
X94489161Y-110777138D01*
X94861127Y-110777462D01*
X95204903Y-110635417D01*
X95468152Y-110372627D01*
X95610798Y-110029099D01*
X95611122Y-109657133D01*
X95469077Y-109313357D01*
X95435960Y-109280182D01*
X95435960Y-105933240D01*
X95378108Y-105642401D01*
X95359559Y-105614641D01*
X95359662Y-105496613D01*
X95254459Y-105242002D01*
X97816094Y-105254497D01*
X97515057Y-105378883D01*
X97251808Y-105641673D01*
X97109162Y-105985201D01*
X97108838Y-106357167D01*
X97250883Y-106700943D01*
X97513673Y-106964192D01*
X97857201Y-107106838D01*
X98229167Y-107107162D01*
X98572943Y-106965117D01*
X98606118Y-106932000D01*
X104269698Y-106932000D01*
X104284378Y-106946680D01*
X104284338Y-106992167D01*
X104426383Y-107335943D01*
X104689173Y-107599192D01*
X105032701Y-107741838D01*
X105404667Y-107742162D01*
X105748443Y-107600117D01*
X106011692Y-107337327D01*
X106154338Y-106993799D01*
X106154662Y-106621833D01*
X106012617Y-106278057D01*
X105749827Y-106014808D01*
X105406299Y-105872162D01*
X105359423Y-105872121D01*
X105121901Y-105634599D01*
X104875339Y-105469852D01*
X104584500Y-105412000D01*
X103543047Y-105412000D01*
X103779943Y-105314117D01*
X104043192Y-105051327D01*
X104185838Y-104707799D01*
X104186162Y-104335833D01*
X104044117Y-103992057D01*
X103781327Y-103728808D01*
X103437799Y-103586162D01*
X103065833Y-103585838D01*
X102722057Y-103727883D01*
X102691625Y-103758262D01*
X97901133Y-103734894D01*
X98080839Y-103699148D01*
X98327401Y-103534401D01*
X98872675Y-102989127D01*
X98910673Y-103027192D01*
X99254201Y-103169838D01*
X99340846Y-103169913D01*
X99467661Y-103254648D01*
X99758500Y-103312500D01*
X107950000Y-103312500D01*
X108240839Y-103254648D01*
X108480555Y-103094475D01*
X108553883Y-103271943D01*
X108816673Y-103535192D01*
X109160201Y-103677838D01*
X109215270Y-103677886D01*
X109437160Y-103826148D01*
X109728000Y-103884000D01*
X112467537Y-103884000D01*
X112499673Y-103916192D01*
X112843201Y-104058838D01*
X113215167Y-104059162D01*
X113558943Y-103917117D01*
X113822192Y-103654327D01*
X113964838Y-103310799D01*
X113965162Y-102938833D01*
X113830944Y-102614000D01*
X114112198Y-102614000D01*
X114317378Y-102819180D01*
X114317338Y-102864667D01*
X114459383Y-103208443D01*
X114722173Y-103471692D01*
X115065701Y-103614338D01*
X115437667Y-103614662D01*
X115781443Y-103472617D01*
X116044692Y-103209827D01*
X116187338Y-102866299D01*
X116187662Y-102494333D01*
X116045617Y-102150557D01*
X115782827Y-101887308D01*
X115439299Y-101744662D01*
X115392423Y-101744621D01*
X114964401Y-101316599D01*
X114717839Y-101151852D01*
X114427000Y-101094000D01*
X108648500Y-101094000D01*
X108357660Y-101151852D01*
X108329000Y-101171002D01*
X108329000Y-100638463D01*
X108361192Y-100606327D01*
X108503838Y-100262799D01*
X108503892Y-100201000D01*
X111578537Y-100201000D01*
X111610673Y-100233192D01*
X111954201Y-100375838D01*
X112326167Y-100376162D01*
X112669943Y-100234117D01*
X112933192Y-99971327D01*
X113075838Y-99627799D01*
X113076162Y-99255833D01*
X112934117Y-98912057D01*
X112671327Y-98648808D01*
X112327799Y-98506162D01*
X111955833Y-98505838D01*
X111612057Y-98647883D01*
X111578882Y-98681000D01*
X110401633Y-98681000D01*
X110535838Y-98357799D01*
X110536162Y-97985833D01*
X110395333Y-97645000D01*
X112191198Y-97645000D01*
X113762075Y-99215878D01*
X113746162Y-99254201D01*
X113745838Y-99626167D01*
X113887883Y-99969943D01*
X114150673Y-100233192D01*
X114494201Y-100375838D01*
X114866167Y-100376162D01*
X115209943Y-100234117D01*
X115473192Y-99971327D01*
X115615838Y-99627799D01*
X115616162Y-99255833D01*
X115474117Y-98912057D01*
X115396008Y-98833811D01*
X115383148Y-98769161D01*
X115302113Y-98647883D01*
X115218401Y-98522598D01*
X113043401Y-96347599D01*
X112796839Y-96182852D01*
X112506000Y-96125000D01*
X105359802Y-96125000D01*
X105297000Y-96062198D01*
X105297000Y-95161491D01*
X105313192Y-95145327D01*
X105455838Y-94801799D01*
X105456162Y-94429833D01*
X105314117Y-94086057D01*
X105051327Y-93822808D01*
X104707799Y-93680162D01*
X104335833Y-93679838D01*
X103992057Y-93821883D01*
X103728808Y-94084673D01*
X103709169Y-94131968D01*
X103527327Y-93949808D01*
X103183799Y-93807162D01*
X103136923Y-93807121D01*
X102010401Y-92680599D01*
X101763839Y-92515852D01*
X101473000Y-92458000D01*
X99568000Y-92458000D01*
X99277161Y-92515852D01*
X99030599Y-92680599D01*
X98141599Y-93569599D01*
X97976852Y-93816161D01*
X97919000Y-94107000D01*
X97919000Y-94177198D01*
X96930401Y-93188599D01*
X96683839Y-93023852D01*
X96393000Y-92966000D01*
X91595841Y-92966000D01*
X91436927Y-92806808D01*
X91093399Y-92664162D01*
X90721433Y-92663838D01*
X90377657Y-92805883D01*
X90114408Y-93068673D01*
X89971762Y-93412201D01*
X89971438Y-93784167D01*
X90113483Y-94127943D01*
X90176835Y-94191405D01*
X90149057Y-94202883D01*
X90004297Y-94347390D01*
X89896317Y-94086057D01*
X89633527Y-93822808D01*
X89289999Y-93680162D01*
X88918033Y-93679838D01*
X88574257Y-93821883D01*
X88311008Y-94084673D01*
X88168362Y-94428201D01*
X88168038Y-94800167D01*
X88310083Y-95143943D01*
X88343200Y-95177118D01*
X88343200Y-95925798D01*
X87668120Y-96600878D01*
X87622633Y-96600838D01*
X87278857Y-96742883D01*
X87015608Y-97005673D01*
X86872962Y-97349201D01*
X86872908Y-97411000D01*
X81340802Y-97411000D01*
X81024000Y-97094198D01*
X81024000Y-95691802D01*
X81181877Y-95533925D01*
X81220201Y-95549838D01*
X81592167Y-95550162D01*
X81935943Y-95408117D01*
X82199192Y-95145327D01*
X82341838Y-94801799D01*
X82342162Y-94429833D01*
X82312894Y-94359000D01*
X83058000Y-94359000D01*
X83348839Y-94301148D01*
X83380399Y-94280060D01*
X83497167Y-94280162D01*
X83840943Y-94138117D01*
X84104192Y-93875327D01*
X84246838Y-93531799D01*
X84247162Y-93159833D01*
X84105117Y-92816057D01*
X84045030Y-92755865D01*
X84386167Y-92756162D01*
X84729943Y-92614117D01*
X84993192Y-92351327D01*
X85135838Y-92007799D01*
X85136162Y-91635833D01*
X85001944Y-91311000D01*
X88265000Y-91311000D01*
X88555839Y-91253148D01*
X88802401Y-91088401D01*
X89945401Y-89945401D01*
X90110148Y-89698839D01*
X90168000Y-89408000D01*
X90168000Y-87051802D01*
X90458099Y-87341901D01*
X90458099Y-87341901D01*
G37*
X90458099Y-87341901D02*
X90704661Y-87506648D01*
X90995500Y-87564500D01*
X92014198Y-87564500D01*
X94458599Y-90008901D01*
X94705161Y-90173648D01*
X94996000Y-90231500D01*
X112905698Y-90231500D01*
X121524598Y-98850400D01*
X121436500Y-98832560D01*
X119736500Y-98832560D01*
X119501183Y-98876838D01*
X119285059Y-99015910D01*
X119140069Y-99228110D01*
X119118592Y-99334166D01*
X118994557Y-99033977D01*
X118731767Y-98770728D01*
X118388239Y-98628082D01*
X118016273Y-98627758D01*
X117672497Y-98769803D01*
X117409248Y-99032593D01*
X117266602Y-99376121D01*
X117266278Y-99748087D01*
X117408323Y-100091863D01*
X117532880Y-100216638D01*
X117532880Y-100433017D01*
X117500688Y-100465153D01*
X117358042Y-100808681D01*
X117357718Y-101180647D01*
X117499763Y-101524423D01*
X117762553Y-101787672D01*
X118106081Y-101930318D01*
X118478047Y-101930642D01*
X118821823Y-101788597D01*
X119085072Y-101525807D01*
X119132594Y-101411362D01*
X119133338Y-101415317D01*
X119272410Y-101631441D01*
X119484610Y-101776431D01*
X119552041Y-101790086D01*
X119507353Y-101819946D01*
X119313546Y-102110000D01*
X118491000Y-102110000D01*
X118248414Y-102158254D01*
X118200160Y-102167852D01*
X117953599Y-102332599D01*
X115413599Y-104872599D01*
X115248852Y-105119161D01*
X115191000Y-105410000D01*
X115191000Y-117668198D01*
X109349698Y-123509500D01*
X103805054Y-123509500D01*
X103805162Y-123385833D01*
X103663117Y-123042057D01*
X103400327Y-122778808D01*
X103056799Y-122636162D01*
X103009923Y-122636121D01*
X101629401Y-121255599D01*
X101588699Y-121228403D01*
X101645838Y-121090799D01*
X101646162Y-120718833D01*
X101504117Y-120375057D01*
X101241327Y-120111808D01*
X100897799Y-119969162D01*
X100525833Y-119968838D01*
X100270570Y-120074310D01*
X100375838Y-119820799D01*
X100376162Y-119448833D01*
X100241944Y-119124000D01*
X104521000Y-119124000D01*
X104811839Y-119066148D01*
X105058401Y-118901401D01*
X105156000Y-118755333D01*
X105253599Y-118901401D01*
X106125878Y-119773680D01*
X106125838Y-119819167D01*
X106267883Y-120162943D01*
X106530673Y-120426192D01*
X106874201Y-120568838D01*
X107246167Y-120569162D01*
X107589943Y-120427117D01*
X107853192Y-120164327D01*
X107995838Y-119820799D01*
X107996162Y-119448833D01*
X107861944Y-119124000D01*
X109038537Y-119124000D01*
X109070673Y-119156192D01*
X109414201Y-119298838D01*
X109786167Y-119299162D01*
X110129943Y-119157117D01*
X110235954Y-119051290D01*
X110340673Y-119156192D01*
X110684201Y-119298838D01*
X111056167Y-119299162D01*
X111399943Y-119157117D01*
X111663192Y-118894327D01*
X111805838Y-118550799D01*
X111805879Y-118503923D01*
X112678401Y-117631401D01*
X112843148Y-117384840D01*
X112901000Y-117094000D01*
X112901000Y-116386463D01*
X112933192Y-116354327D01*
X113075838Y-116010799D01*
X113076162Y-115638833D01*
X112934117Y-115295057D01*
X112671327Y-115031808D01*
X112327799Y-114889162D01*
X111955833Y-114888838D01*
X111612057Y-115030883D01*
X111348808Y-115293673D01*
X111206162Y-115637201D01*
X111205838Y-116009167D01*
X111347883Y-116352943D01*
X111381000Y-116386118D01*
X111381000Y-116779198D01*
X110731320Y-117428878D01*
X110685833Y-117428838D01*
X110342057Y-117570883D01*
X110236046Y-117676710D01*
X110131327Y-117571808D01*
X109787799Y-117429162D01*
X109726759Y-117429109D01*
X109632117Y-117200057D01*
X109369327Y-116936808D01*
X109091000Y-116821236D01*
X109091000Y-110036463D01*
X109123192Y-110004327D01*
X109265838Y-109660799D01*
X109266162Y-109288833D01*
X109124117Y-108945057D01*
X108861327Y-108681808D01*
X108517799Y-108539162D01*
X108145833Y-108538838D01*
X107802057Y-108680883D01*
X107538808Y-108943673D01*
X107396162Y-109287201D01*
X107395838Y-109659167D01*
X107537883Y-110002943D01*
X107571000Y-110036118D01*
X107571000Y-117221000D01*
X107628852Y-117511839D01*
X107690432Y-117604000D01*
X107623463Y-117604000D01*
X107591327Y-117571808D01*
X107247799Y-117429162D01*
X106875833Y-117428838D01*
X106551000Y-117563056D01*
X106551000Y-112649000D01*
X106493148Y-112358161D01*
X106328401Y-112111599D01*
X104169401Y-109952599D01*
X103922839Y-109787852D01*
X103632000Y-109730000D01*
X102924463Y-109730000D01*
X102892327Y-109697808D01*
X102548799Y-109555162D01*
X102176833Y-109554838D01*
X101833057Y-109696883D01*
X101569808Y-109959673D01*
X101427162Y-110303201D01*
X101426838Y-110675167D01*
X101568883Y-111018943D01*
X101831673Y-111282192D01*
X102175201Y-111424838D01*
X102547167Y-111425162D01*
X102890943Y-111283117D01*
X102924118Y-111250000D01*
X103317198Y-111250000D01*
X105031000Y-112963802D01*
X105031000Y-115023367D01*
X104707799Y-114889162D01*
X104335833Y-114888838D01*
X103992057Y-115030883D01*
X103728808Y-115293673D01*
X103586162Y-115637201D01*
X103585838Y-116009167D01*
X103727883Y-116352943D01*
X103761000Y-116386118D01*
X103761000Y-117604000D01*
X99441000Y-117604000D01*
X99150161Y-117661852D01*
X98931000Y-117808290D01*
X98931000Y-111058802D01*
X99580680Y-110409122D01*
X99626167Y-110409162D01*
X99969943Y-110267117D01*
X100233192Y-110004327D01*
X100375838Y-109660799D01*
X100376162Y-109288833D01*
X100234117Y-108945057D01*
X99971327Y-108681808D01*
X99627799Y-108539162D01*
X99255833Y-108538838D01*
X98912057Y-108680883D01*
X98648808Y-108943673D01*
X98506162Y-109287201D01*
X98506121Y-109334077D01*
X97633599Y-110206599D01*
X97468852Y-110453161D01*
X97411000Y-110744000D01*
X97411000Y-114483367D01*
X97087799Y-114349162D01*
X96715833Y-114348838D01*
X96566126Y-114410696D01*
X96566162Y-114368833D01*
X96424117Y-114025057D01*
X96161327Y-113761808D01*
X95817799Y-113619162D01*
X95770923Y-113619121D01*
X95296122Y-113144320D01*
X95296162Y-113098833D01*
X95154117Y-112755057D01*
X95048290Y-112649046D01*
X95153192Y-112544327D01*
X95295838Y-112200799D01*
X95296162Y-111828833D01*
X95154117Y-111485057D01*
X94891327Y-111221808D01*
X94547799Y-111079162D01*
X94175833Y-111078838D01*
X93832057Y-111220883D01*
X93568808Y-111483673D01*
X93426162Y-111827201D01*
X93426121Y-111874077D01*
X92553599Y-112746599D01*
X92388852Y-112993161D01*
X92331000Y-113284000D01*
X92388852Y-113574839D01*
X92553599Y-113821401D01*
X93797539Y-115065341D01*
X93568808Y-115293673D01*
X93426162Y-115637201D01*
X93425838Y-116009167D01*
X93567883Y-116352943D01*
X93601000Y-116386118D01*
X93601000Y-116910198D01*
X91692000Y-115001198D01*
X91692000Y-113792000D01*
X91657556Y-113618838D01*
X91634148Y-113501160D01*
X91469401Y-113254599D01*
X91311000Y-113096198D01*
X91311000Y-112728863D01*
X91343192Y-112696727D01*
X91485838Y-112353199D01*
X91486162Y-111981233D01*
X91344117Y-111637457D01*
X91081327Y-111374208D01*
X90737799Y-111231562D01*
X90365833Y-111231238D01*
X90022057Y-111373283D01*
X89758808Y-111636073D01*
X89616162Y-111979601D01*
X89615838Y-112351567D01*
X89757883Y-112695343D01*
X89791000Y-112728518D01*
X89791000Y-113411000D01*
X89848852Y-113701839D01*
X90013599Y-113948401D01*
X90172000Y-114106802D01*
X90172000Y-115316000D01*
X90229852Y-115606839D01*
X90394599Y-115853401D01*
X91256198Y-116715000D01*
X90992802Y-116715000D01*
X90978122Y-116700320D01*
X90978162Y-116654833D01*
X90836117Y-116311057D01*
X90573327Y-116047808D01*
X90229799Y-115905162D01*
X89857833Y-115904838D01*
X89514057Y-116046883D01*
X89250808Y-116309673D01*
X89135236Y-116588000D01*
X88452802Y-116588000D01*
X87755000Y-115890198D01*
X87755000Y-114614802D01*
X88150680Y-114219122D01*
X88196167Y-114219162D01*
X88539943Y-114077117D01*
X88803192Y-113814327D01*
X88945838Y-113470799D01*
X88946162Y-113098833D01*
X88804117Y-112755057D01*
X88541327Y-112491808D01*
X88197799Y-112349162D01*
X87825833Y-112348838D01*
X87786070Y-112365268D01*
X86353302Y-110932500D01*
X90233500Y-110932500D01*
X90524339Y-110874648D01*
X90770901Y-110709901D01*
X91977401Y-109503401D01*
X92142148Y-109256839D01*
X92200000Y-108966000D01*
X92200000Y-107251500D01*
X92142148Y-106960661D01*
X91977401Y-106714099D01*
X91613122Y-106349820D01*
X91613162Y-106304333D01*
X91471117Y-105960557D01*
X91208327Y-105697308D01*
X90864799Y-105554662D01*
X90817923Y-105554621D01*
X90482023Y-105218721D01*
X93598064Y-105233922D01*
X93489662Y-105494981D01*
X93489338Y-105866947D01*
X93631383Y-106210723D01*
X93894173Y-106473972D01*
X93915960Y-106483019D01*
X93915960Y-109279837D01*
X93883768Y-109311973D01*
X93741122Y-109655501D01*
X93740798Y-110027467D01*
X93882843Y-110371243D01*
X94145633Y-110634492D01*
X94489161Y-110777138D01*
X94861127Y-110777462D01*
X95204903Y-110635417D01*
X95468152Y-110372627D01*
X95610798Y-110029099D01*
X95611122Y-109657133D01*
X95469077Y-109313357D01*
X95435960Y-109280182D01*
X95435960Y-105933240D01*
X95378108Y-105642401D01*
X95359559Y-105614641D01*
X95359662Y-105496613D01*
X95254459Y-105242002D01*
X97816094Y-105254497D01*
X97515057Y-105378883D01*
X97251808Y-105641673D01*
X97109162Y-105985201D01*
X97108838Y-106357167D01*
X97250883Y-106700943D01*
X97513673Y-106964192D01*
X97857201Y-107106838D01*
X98229167Y-107107162D01*
X98572943Y-106965117D01*
X98606118Y-106932000D01*
X104269698Y-106932000D01*
X104284378Y-106946680D01*
X104284338Y-106992167D01*
X104426383Y-107335943D01*
X104689173Y-107599192D01*
X105032701Y-107741838D01*
X105404667Y-107742162D01*
X105748443Y-107600117D01*
X106011692Y-107337327D01*
X106154338Y-106993799D01*
X106154662Y-106621833D01*
X106012617Y-106278057D01*
X105749827Y-106014808D01*
X105406299Y-105872162D01*
X105359423Y-105872121D01*
X105121901Y-105634599D01*
X104875339Y-105469852D01*
X104584500Y-105412000D01*
X103543047Y-105412000D01*
X103779943Y-105314117D01*
X104043192Y-105051327D01*
X104185838Y-104707799D01*
X104186162Y-104335833D01*
X104044117Y-103992057D01*
X103781327Y-103728808D01*
X103437799Y-103586162D01*
X103065833Y-103585838D01*
X102722057Y-103727883D01*
X102691625Y-103758262D01*
X97901133Y-103734894D01*
X98080839Y-103699148D01*
X98327401Y-103534401D01*
X98872675Y-102989127D01*
X98910673Y-103027192D01*
X99254201Y-103169838D01*
X99340846Y-103169913D01*
X99467661Y-103254648D01*
X99758500Y-103312500D01*
X107950000Y-103312500D01*
X108240839Y-103254648D01*
X108480555Y-103094475D01*
X108553883Y-103271943D01*
X108816673Y-103535192D01*
X109160201Y-103677838D01*
X109215270Y-103677886D01*
X109437160Y-103826148D01*
X109728000Y-103884000D01*
X112467537Y-103884000D01*
X112499673Y-103916192D01*
X112843201Y-104058838D01*
X113215167Y-104059162D01*
X113558943Y-103917117D01*
X113822192Y-103654327D01*
X113964838Y-103310799D01*
X113965162Y-102938833D01*
X113830944Y-102614000D01*
X114112198Y-102614000D01*
X114317378Y-102819180D01*
X114317338Y-102864667D01*
X114459383Y-103208443D01*
X114722173Y-103471692D01*
X115065701Y-103614338D01*
X115437667Y-103614662D01*
X115781443Y-103472617D01*
X116044692Y-103209827D01*
X116187338Y-102866299D01*
X116187662Y-102494333D01*
X116045617Y-102150557D01*
X115782827Y-101887308D01*
X115439299Y-101744662D01*
X115392423Y-101744621D01*
X114964401Y-101316599D01*
X114717839Y-101151852D01*
X114427000Y-101094000D01*
X108648500Y-101094000D01*
X108357660Y-101151852D01*
X108329000Y-101171002D01*
X108329000Y-100638463D01*
X108361192Y-100606327D01*
X108503838Y-100262799D01*
X108503892Y-100201000D01*
X111578537Y-100201000D01*
X111610673Y-100233192D01*
X111954201Y-100375838D01*
X112326167Y-100376162D01*
X112669943Y-100234117D01*
X112933192Y-99971327D01*
X113075838Y-99627799D01*
X113076162Y-99255833D01*
X112934117Y-98912057D01*
X112671327Y-98648808D01*
X112327799Y-98506162D01*
X111955833Y-98505838D01*
X111612057Y-98647883D01*
X111578882Y-98681000D01*
X110401633Y-98681000D01*
X110535838Y-98357799D01*
X110536162Y-97985833D01*
X110395333Y-97645000D01*
X112191198Y-97645000D01*
X113762075Y-99215878D01*
X113746162Y-99254201D01*
X113745838Y-99626167D01*
X113887883Y-99969943D01*
X114150673Y-100233192D01*
X114494201Y-100375838D01*
X114866167Y-100376162D01*
X115209943Y-100234117D01*
X115473192Y-99971327D01*
X115615838Y-99627799D01*
X115616162Y-99255833D01*
X115474117Y-98912057D01*
X115396008Y-98833811D01*
X115383148Y-98769161D01*
X115302113Y-98647883D01*
X115218401Y-98522598D01*
X113043401Y-96347599D01*
X112796839Y-96182852D01*
X112506000Y-96125000D01*
X105359802Y-96125000D01*
X105297000Y-96062198D01*
X105297000Y-95161491D01*
X105313192Y-95145327D01*
X105455838Y-94801799D01*
X105456162Y-94429833D01*
X105314117Y-94086057D01*
X105051327Y-93822808D01*
X104707799Y-93680162D01*
X104335833Y-93679838D01*
X103992057Y-93821883D01*
X103728808Y-94084673D01*
X103709169Y-94131968D01*
X103527327Y-93949808D01*
X103183799Y-93807162D01*
X103136923Y-93807121D01*
X102010401Y-92680599D01*
X101763839Y-92515852D01*
X101473000Y-92458000D01*
X99568000Y-92458000D01*
X99277161Y-92515852D01*
X99030599Y-92680599D01*
X98141599Y-93569599D01*
X97976852Y-93816161D01*
X97919000Y-94107000D01*
X97919000Y-94177198D01*
X96930401Y-93188599D01*
X96683839Y-93023852D01*
X96393000Y-92966000D01*
X91595841Y-92966000D01*
X91436927Y-92806808D01*
X91093399Y-92664162D01*
X90721433Y-92663838D01*
X90377657Y-92805883D01*
X90114408Y-93068673D01*
X89971762Y-93412201D01*
X89971438Y-93784167D01*
X90113483Y-94127943D01*
X90176835Y-94191405D01*
X90149057Y-94202883D01*
X90004297Y-94347390D01*
X89896317Y-94086057D01*
X89633527Y-93822808D01*
X89289999Y-93680162D01*
X88918033Y-93679838D01*
X88574257Y-93821883D01*
X88311008Y-94084673D01*
X88168362Y-94428201D01*
X88168038Y-94800167D01*
X88310083Y-95143943D01*
X88343200Y-95177118D01*
X88343200Y-95925798D01*
X87668120Y-96600878D01*
X87622633Y-96600838D01*
X87278857Y-96742883D01*
X87015608Y-97005673D01*
X86872962Y-97349201D01*
X86872908Y-97411000D01*
X81340802Y-97411000D01*
X81024000Y-97094198D01*
X81024000Y-95691802D01*
X81181877Y-95533925D01*
X81220201Y-95549838D01*
X81592167Y-95550162D01*
X81935943Y-95408117D01*
X82199192Y-95145327D01*
X82341838Y-94801799D01*
X82342162Y-94429833D01*
X82312894Y-94359000D01*
X83058000Y-94359000D01*
X83348839Y-94301148D01*
X83380399Y-94280060D01*
X83497167Y-94280162D01*
X83840943Y-94138117D01*
X84104192Y-93875327D01*
X84246838Y-93531799D01*
X84247162Y-93159833D01*
X84105117Y-92816057D01*
X84045030Y-92755865D01*
X84386167Y-92756162D01*
X84729943Y-92614117D01*
X84993192Y-92351327D01*
X85135838Y-92007799D01*
X85136162Y-91635833D01*
X85001944Y-91311000D01*
X88265000Y-91311000D01*
X88555839Y-91253148D01*
X88802401Y-91088401D01*
X89945401Y-89945401D01*
X90110148Y-89698839D01*
X90168000Y-89408000D01*
X90168000Y-87051802D01*
X90458099Y-87341901D01*
G36*
X82400673Y-117886192D02*
X82744201Y-118028838D01*
X83116167Y-118029162D01*
X83459943Y-117887117D01*
X83493118Y-117854000D01*
X84908537Y-117854000D01*
X84912583Y-117858052D01*
X84768852Y-118073161D01*
X84711000Y-118364000D01*
X84711000Y-119071537D01*
X84678808Y-119103673D01*
X84536162Y-119447201D01*
X84535838Y-119819167D01*
X84670056Y-120144000D01*
X83421610Y-120144000D01*
X83421662Y-120083833D01*
X83279617Y-119740057D01*
X83016827Y-119476808D01*
X82673299Y-119334162D01*
X82626423Y-119334121D01*
X82167000Y-118874698D01*
X82167000Y-117652111D01*
X82400673Y-117886192D01*
X82400673Y-117886192D01*
G37*
X82400673Y-117886192D02*
X82744201Y-118028838D01*
X83116167Y-118029162D01*
X83459943Y-117887117D01*
X83493118Y-117854000D01*
X84908537Y-117854000D01*
X84912583Y-117858052D01*
X84768852Y-118073161D01*
X84711000Y-118364000D01*
X84711000Y-119071537D01*
X84678808Y-119103673D01*
X84536162Y-119447201D01*
X84535838Y-119819167D01*
X84670056Y-120144000D01*
X83421610Y-120144000D01*
X83421662Y-120083833D01*
X83279617Y-119740057D01*
X83016827Y-119476808D01*
X82673299Y-119334162D01*
X82626423Y-119334121D01*
X82167000Y-118874698D01*
X82167000Y-117652111D01*
X82400673Y-117886192D01*
G36*
X86745698Y-113474500D02*
X86457599Y-113762599D01*
X86292852Y-114009161D01*
X86235000Y-114300000D01*
X86235000Y-116205000D01*
X86250882Y-116284841D01*
X86212057Y-116300883D01*
X86106046Y-116406710D01*
X86001327Y-116301808D01*
X85657799Y-116159162D01*
X85285833Y-116158838D01*
X84942057Y-116300883D01*
X84908882Y-116334000D01*
X83493463Y-116334000D01*
X83461327Y-116301808D01*
X83117799Y-116159162D01*
X82745833Y-116158838D01*
X82402057Y-116300883D01*
X82167000Y-116535530D01*
X82167000Y-116395500D01*
X82109148Y-116104661D01*
X81944401Y-115858099D01*
X80627512Y-114541210D01*
X80627662Y-114368833D01*
X80598394Y-114298000D01*
X84328000Y-114298000D01*
X84618839Y-114240148D01*
X84865401Y-114075401D01*
X84975680Y-113965122D01*
X85021167Y-113965162D01*
X85364943Y-113823117D01*
X85628192Y-113560327D01*
X85770838Y-113216799D01*
X85771162Y-112844833D01*
X85629117Y-112501057D01*
X85366327Y-112237808D01*
X85022799Y-112095162D01*
X84650833Y-112094838D01*
X84307057Y-112236883D01*
X84043808Y-112499673D01*
X83928236Y-112778000D01*
X82164044Y-112778000D01*
X82164362Y-112413033D01*
X82022317Y-112069257D01*
X81965160Y-112012000D01*
X85283198Y-112012000D01*
X86745698Y-113474500D01*
X86745698Y-113474500D01*
G37*
X86745698Y-113474500D02*
X86457599Y-113762599D01*
X86292852Y-114009161D01*
X86235000Y-114300000D01*
X86235000Y-116205000D01*
X86250882Y-116284841D01*
X86212057Y-116300883D01*
X86106046Y-116406710D01*
X86001327Y-116301808D01*
X85657799Y-116159162D01*
X85285833Y-116158838D01*
X84942057Y-116300883D01*
X84908882Y-116334000D01*
X83493463Y-116334000D01*
X83461327Y-116301808D01*
X83117799Y-116159162D01*
X82745833Y-116158838D01*
X82402057Y-116300883D01*
X82167000Y-116535530D01*
X82167000Y-116395500D01*
X82109148Y-116104661D01*
X81944401Y-115858099D01*
X80627512Y-114541210D01*
X80627662Y-114368833D01*
X80598394Y-114298000D01*
X84328000Y-114298000D01*
X84618839Y-114240148D01*
X84865401Y-114075401D01*
X84975680Y-113965122D01*
X85021167Y-113965162D01*
X85364943Y-113823117D01*
X85628192Y-113560327D01*
X85770838Y-113216799D01*
X85771162Y-112844833D01*
X85629117Y-112501057D01*
X85366327Y-112237808D01*
X85022799Y-112095162D01*
X84650833Y-112094838D01*
X84307057Y-112236883D01*
X84043808Y-112499673D01*
X83928236Y-112778000D01*
X82164044Y-112778000D01*
X82164362Y-112413033D01*
X82022317Y-112069257D01*
X81965160Y-112012000D01*
X85283198Y-112012000D01*
X86745698Y-113474500D01*
G36*
X75646162Y-91634201D02*
X75646121Y-91681077D01*
X74773599Y-92553599D01*
X74608852Y-92800161D01*
X74551000Y-93091000D01*
X74551000Y-98878537D01*
X74518808Y-98910673D01*
X74376162Y-99254201D01*
X74375838Y-99626167D01*
X74517883Y-99969943D01*
X74780673Y-100233192D01*
X75124201Y-100375838D01*
X75496167Y-100376162D01*
X75839943Y-100234117D01*
X76103192Y-99971327D01*
X76245838Y-99627799D01*
X76246162Y-99255833D01*
X76140690Y-99000570D01*
X76394201Y-99105838D01*
X76766167Y-99106162D01*
X77109943Y-98964117D01*
X77143118Y-98931000D01*
X78558537Y-98931000D01*
X78590673Y-98963192D01*
X78934201Y-99105838D01*
X79306167Y-99106162D01*
X79649943Y-98964117D01*
X79689163Y-98924965D01*
X79980075Y-99215877D01*
X79964162Y-99254201D01*
X79963838Y-99626167D01*
X80105883Y-99969943D01*
X80368673Y-100233192D01*
X80712201Y-100375838D01*
X81084167Y-100376162D01*
X81427943Y-100234117D01*
X81505734Y-100156461D01*
X81728201Y-100248838D01*
X82100167Y-100249162D01*
X82443943Y-100107117D01*
X82707192Y-99844327D01*
X82849838Y-99500799D01*
X82849879Y-99453923D01*
X82864802Y-99439000D01*
X87076001Y-99439000D01*
X87075838Y-99626167D01*
X87210056Y-99951000D01*
X84201000Y-99951000D01*
X83958414Y-99999254D01*
X83910160Y-100008852D01*
X83663599Y-100173599D01*
X81521320Y-102315878D01*
X81475833Y-102315838D01*
X81132057Y-102457883D01*
X80868808Y-102720673D01*
X80726162Y-103064201D01*
X80725838Y-103436167D01*
X80814831Y-103651546D01*
X78034844Y-103637985D01*
X78000320Y-103603401D01*
X77656792Y-103460755D01*
X77284826Y-103460431D01*
X76941050Y-103602476D01*
X76677801Y-103865266D01*
X76535155Y-104208794D01*
X76534831Y-104580760D01*
X76676876Y-104924536D01*
X76939666Y-105187785D01*
X77283194Y-105330431D01*
X77655160Y-105330755D01*
X77998936Y-105188710D01*
X78029721Y-105157978D01*
X82467571Y-105179627D01*
X81854198Y-105793000D01*
X77597000Y-105793000D01*
X77306161Y-105850852D01*
X77059599Y-106015599D01*
X76822320Y-106252878D01*
X76776833Y-106252838D01*
X76433057Y-106394883D01*
X76169808Y-106657673D01*
X76027162Y-107001201D01*
X76026887Y-107317000D01*
X75879802Y-107317000D01*
X74674000Y-106111198D01*
X74674000Y-100520500D01*
X74619963Y-100248838D01*
X74616148Y-100229660D01*
X74451401Y-99983099D01*
X73150000Y-98681698D01*
X73150000Y-93088302D01*
X74927302Y-91311000D01*
X75780367Y-91311000D01*
X75646162Y-91634201D01*
X75646162Y-91634201D01*
G37*
X75646162Y-91634201D02*
X75646121Y-91681077D01*
X74773599Y-92553599D01*
X74608852Y-92800161D01*
X74551000Y-93091000D01*
X74551000Y-98878537D01*
X74518808Y-98910673D01*
X74376162Y-99254201D01*
X74375838Y-99626167D01*
X74517883Y-99969943D01*
X74780673Y-100233192D01*
X75124201Y-100375838D01*
X75496167Y-100376162D01*
X75839943Y-100234117D01*
X76103192Y-99971327D01*
X76245838Y-99627799D01*
X76246162Y-99255833D01*
X76140690Y-99000570D01*
X76394201Y-99105838D01*
X76766167Y-99106162D01*
X77109943Y-98964117D01*
X77143118Y-98931000D01*
X78558537Y-98931000D01*
X78590673Y-98963192D01*
X78934201Y-99105838D01*
X79306167Y-99106162D01*
X79649943Y-98964117D01*
X79689163Y-98924965D01*
X79980075Y-99215877D01*
X79964162Y-99254201D01*
X79963838Y-99626167D01*
X80105883Y-99969943D01*
X80368673Y-100233192D01*
X80712201Y-100375838D01*
X81084167Y-100376162D01*
X81427943Y-100234117D01*
X81505734Y-100156461D01*
X81728201Y-100248838D01*
X82100167Y-100249162D01*
X82443943Y-100107117D01*
X82707192Y-99844327D01*
X82849838Y-99500799D01*
X82849879Y-99453923D01*
X82864802Y-99439000D01*
X87076001Y-99439000D01*
X87075838Y-99626167D01*
X87210056Y-99951000D01*
X84201000Y-99951000D01*
X83958414Y-99999254D01*
X83910160Y-100008852D01*
X83663599Y-100173599D01*
X81521320Y-102315878D01*
X81475833Y-102315838D01*
X81132057Y-102457883D01*
X80868808Y-102720673D01*
X80726162Y-103064201D01*
X80725838Y-103436167D01*
X80814831Y-103651546D01*
X78034844Y-103637985D01*
X78000320Y-103603401D01*
X77656792Y-103460755D01*
X77284826Y-103460431D01*
X76941050Y-103602476D01*
X76677801Y-103865266D01*
X76535155Y-104208794D01*
X76534831Y-104580760D01*
X76676876Y-104924536D01*
X76939666Y-105187785D01*
X77283194Y-105330431D01*
X77655160Y-105330755D01*
X77998936Y-105188710D01*
X78029721Y-105157978D01*
X82467571Y-105179627D01*
X81854198Y-105793000D01*
X77597000Y-105793000D01*
X77306161Y-105850852D01*
X77059599Y-106015599D01*
X76822320Y-106252878D01*
X76776833Y-106252838D01*
X76433057Y-106394883D01*
X76169808Y-106657673D01*
X76027162Y-107001201D01*
X76026887Y-107317000D01*
X75879802Y-107317000D01*
X74674000Y-106111198D01*
X74674000Y-100520500D01*
X74619963Y-100248838D01*
X74616148Y-100229660D01*
X74451401Y-99983099D01*
X73150000Y-98681698D01*
X73150000Y-93088302D01*
X74927302Y-91311000D01*
X75780367Y-91311000D01*
X75646162Y-91634201D01*
M02*
