G04 #@! TF.FileFunction,Legend,Top*
%FSLAX46Y46*%
G04 Gerber Fmt 4.6, Leading zero omitted, Abs format (unit mm)*
G04 Created by KiCad (PCBNEW 4.0.7) date 12/27/18 16:20:44*
%MOMM*%
%LPD*%
G01*
G04 APERTURE LIST*
%ADD10C,0.100000*%
%ADD11C,0.300000*%
%ADD12C,0.250000*%
%ADD13C,0.120000*%
%ADD14C,0.150000*%
G04 APERTURE END LIST*
D10*
D11*
X53990786Y-69759643D02*
X53990786Y-66759643D01*
X54705071Y-66759643D01*
X55133643Y-66902500D01*
X55419357Y-67188214D01*
X55562214Y-67473929D01*
X55705071Y-68045357D01*
X55705071Y-68473929D01*
X55562214Y-69045357D01*
X55419357Y-69331071D01*
X55133643Y-69616786D01*
X54705071Y-69759643D01*
X53990786Y-69759643D01*
X56847929Y-68902500D02*
X58276500Y-68902500D01*
X56562214Y-69759643D02*
X57562214Y-66759643D01*
X58562214Y-69759643D01*
X61562215Y-70045357D02*
X61276500Y-69902500D01*
X60990786Y-69616786D01*
X60562215Y-69188214D01*
X60276500Y-69045357D01*
X59990786Y-69045357D01*
X60133643Y-69759643D02*
X59847929Y-69616786D01*
X59562215Y-69331071D01*
X59419358Y-68759643D01*
X59419358Y-67759643D01*
X59562215Y-67188214D01*
X59847929Y-66902500D01*
X60133643Y-66759643D01*
X60705072Y-66759643D01*
X60990786Y-66902500D01*
X61276500Y-67188214D01*
X61419358Y-67759643D01*
X61419358Y-68759643D01*
X61276500Y-69331071D01*
X60990786Y-69616786D01*
X60705072Y-69759643D01*
X60133643Y-69759643D01*
X54990786Y-72988214D02*
X55419357Y-73131071D01*
X55562214Y-73273929D01*
X55705071Y-73559643D01*
X55705071Y-73988214D01*
X55562214Y-74273929D01*
X55419357Y-74416786D01*
X55133643Y-74559643D01*
X53990786Y-74559643D01*
X53990786Y-71559643D01*
X54990786Y-71559643D01*
X55276500Y-71702500D01*
X55419357Y-71845357D01*
X55562214Y-72131071D01*
X55562214Y-72416786D01*
X55419357Y-72702500D01*
X55276500Y-72845357D01*
X54990786Y-72988214D01*
X53990786Y-72988214D01*
X57562214Y-71559643D02*
X58133643Y-71559643D01*
X58419357Y-71702500D01*
X58705071Y-71988214D01*
X58847929Y-72559643D01*
X58847929Y-73559643D01*
X58705071Y-74131071D01*
X58419357Y-74416786D01*
X58133643Y-74559643D01*
X57562214Y-74559643D01*
X57276500Y-74416786D01*
X56990786Y-74131071D01*
X56847929Y-73559643D01*
X56847929Y-72559643D01*
X56990786Y-71988214D01*
X57276500Y-71702500D01*
X57562214Y-71559643D01*
X59990786Y-73702500D02*
X61419357Y-73702500D01*
X59705071Y-74559643D02*
X60705071Y-71559643D01*
X61705071Y-74559643D01*
X64419357Y-74559643D02*
X63419357Y-73131071D01*
X62705072Y-74559643D02*
X62705072Y-71559643D01*
X63847929Y-71559643D01*
X64133643Y-71702500D01*
X64276500Y-71845357D01*
X64419357Y-72131071D01*
X64419357Y-72559643D01*
X64276500Y-72845357D01*
X64133643Y-72988214D01*
X63847929Y-73131071D01*
X62705072Y-73131071D01*
X65705072Y-74559643D02*
X65705072Y-71559643D01*
X66419357Y-71559643D01*
X66847929Y-71702500D01*
X67133643Y-71988214D01*
X67276500Y-72273929D01*
X67419357Y-72845357D01*
X67419357Y-73273929D01*
X67276500Y-73845357D01*
X67133643Y-74131071D01*
X66847929Y-74416786D01*
X66419357Y-74559643D01*
X65705072Y-74559643D01*
D12*
X116017824Y-113865743D02*
X116160681Y-113937171D01*
X116398777Y-113937171D01*
X116494015Y-113865743D01*
X116541634Y-113794314D01*
X116589253Y-113651457D01*
X116589253Y-113508600D01*
X116541634Y-113365743D01*
X116494015Y-113294314D01*
X116398777Y-113222886D01*
X116208300Y-113151457D01*
X116113062Y-113080029D01*
X116065443Y-113008600D01*
X116017824Y-112865743D01*
X116017824Y-112722886D01*
X116065443Y-112580029D01*
X116113062Y-112508600D01*
X116208300Y-112437171D01*
X116446396Y-112437171D01*
X116589253Y-112508600D01*
X117589253Y-113794314D02*
X117541634Y-113865743D01*
X117398777Y-113937171D01*
X117303539Y-113937171D01*
X117160681Y-113865743D01*
X117065443Y-113722886D01*
X117017824Y-113580029D01*
X116970205Y-113294314D01*
X116970205Y-113080029D01*
X117017824Y-112794314D01*
X117065443Y-112651457D01*
X117160681Y-112508600D01*
X117303539Y-112437171D01*
X117398777Y-112437171D01*
X117541634Y-112508600D01*
X117589253Y-112580029D01*
X118494015Y-113937171D02*
X118017824Y-113937171D01*
X118017824Y-112437171D01*
X116006714Y-111211443D02*
X116149571Y-111282871D01*
X116387667Y-111282871D01*
X116482905Y-111211443D01*
X116530524Y-111140014D01*
X116578143Y-110997157D01*
X116578143Y-110854300D01*
X116530524Y-110711443D01*
X116482905Y-110640014D01*
X116387667Y-110568586D01*
X116197190Y-110497157D01*
X116101952Y-110425729D01*
X116054333Y-110354300D01*
X116006714Y-110211443D01*
X116006714Y-110068586D01*
X116054333Y-109925729D01*
X116101952Y-109854300D01*
X116197190Y-109782871D01*
X116435286Y-109782871D01*
X116578143Y-109854300D01*
X117006714Y-111282871D02*
X117006714Y-109782871D01*
X117244809Y-109782871D01*
X117387667Y-109854300D01*
X117482905Y-109997157D01*
X117530524Y-110140014D01*
X117578143Y-110425729D01*
X117578143Y-110640014D01*
X117530524Y-110925729D01*
X117482905Y-111068586D01*
X117387667Y-111211443D01*
X117244809Y-111282871D01*
X117006714Y-111282871D01*
X117959095Y-110854300D02*
X118435286Y-110854300D01*
X117863857Y-111282871D02*
X118197190Y-109782871D01*
X118530524Y-111282871D01*
X116565443Y-108523814D02*
X116517824Y-108595243D01*
X116374967Y-108666671D01*
X116279729Y-108666671D01*
X116136871Y-108595243D01*
X116041633Y-108452386D01*
X115994014Y-108309529D01*
X115946395Y-108023814D01*
X115946395Y-107809529D01*
X115994014Y-107523814D01*
X116041633Y-107380957D01*
X116136871Y-107238100D01*
X116279729Y-107166671D01*
X116374967Y-107166671D01*
X116517824Y-107238100D01*
X116565443Y-107309529D01*
X116946395Y-108595243D02*
X117089252Y-108666671D01*
X117327348Y-108666671D01*
X117422586Y-108595243D01*
X117470205Y-108523814D01*
X117517824Y-108380957D01*
X117517824Y-108238100D01*
X117470205Y-108095243D01*
X117422586Y-108023814D01*
X117327348Y-107952386D01*
X117136871Y-107880957D01*
X117041633Y-107809529D01*
X116994014Y-107738100D01*
X116946395Y-107595243D01*
X116946395Y-107452386D01*
X116994014Y-107309529D01*
X117041633Y-107238100D01*
X117136871Y-107166671D01*
X117374967Y-107166671D01*
X117517824Y-107238100D01*
X118374967Y-107666671D02*
X118374967Y-108666671D01*
X118136871Y-107095243D02*
X117898776Y-108166671D01*
X118517824Y-108166671D01*
X116552743Y-106047314D02*
X116505124Y-106118743D01*
X116362267Y-106190171D01*
X116267029Y-106190171D01*
X116124171Y-106118743D01*
X116028933Y-105975886D01*
X115981314Y-105833029D01*
X115933695Y-105547314D01*
X115933695Y-105333029D01*
X115981314Y-105047314D01*
X116028933Y-104904457D01*
X116124171Y-104761600D01*
X116267029Y-104690171D01*
X116362267Y-104690171D01*
X116505124Y-104761600D01*
X116552743Y-104833029D01*
X116933695Y-106118743D02*
X117076552Y-106190171D01*
X117314648Y-106190171D01*
X117409886Y-106118743D01*
X117457505Y-106047314D01*
X117505124Y-105904457D01*
X117505124Y-105761600D01*
X117457505Y-105618743D01*
X117409886Y-105547314D01*
X117314648Y-105475886D01*
X117124171Y-105404457D01*
X117028933Y-105333029D01*
X116981314Y-105261600D01*
X116933695Y-105118743D01*
X116933695Y-104975886D01*
X116981314Y-104833029D01*
X117028933Y-104761600D01*
X117124171Y-104690171D01*
X117362267Y-104690171D01*
X117505124Y-104761600D01*
X117838457Y-104690171D02*
X118457505Y-104690171D01*
X118124171Y-105261600D01*
X118267029Y-105261600D01*
X118362267Y-105333029D01*
X118409886Y-105404457D01*
X118457505Y-105547314D01*
X118457505Y-105904457D01*
X118409886Y-106047314D01*
X118362267Y-106118743D01*
X118267029Y-106190171D01*
X117981314Y-106190171D01*
X117886076Y-106118743D01*
X117838457Y-106047314D01*
X116501943Y-103418414D02*
X116454324Y-103489843D01*
X116311467Y-103561271D01*
X116216229Y-103561271D01*
X116073371Y-103489843D01*
X115978133Y-103346986D01*
X115930514Y-103204129D01*
X115882895Y-102918414D01*
X115882895Y-102704129D01*
X115930514Y-102418414D01*
X115978133Y-102275557D01*
X116073371Y-102132700D01*
X116216229Y-102061271D01*
X116311467Y-102061271D01*
X116454324Y-102132700D01*
X116501943Y-102204129D01*
X116882895Y-103489843D02*
X117025752Y-103561271D01*
X117263848Y-103561271D01*
X117359086Y-103489843D01*
X117406705Y-103418414D01*
X117454324Y-103275557D01*
X117454324Y-103132700D01*
X117406705Y-102989843D01*
X117359086Y-102918414D01*
X117263848Y-102846986D01*
X117073371Y-102775557D01*
X116978133Y-102704129D01*
X116930514Y-102632700D01*
X116882895Y-102489843D01*
X116882895Y-102346986D01*
X116930514Y-102204129D01*
X116978133Y-102132700D01*
X117073371Y-102061271D01*
X117311467Y-102061271D01*
X117454324Y-102132700D01*
X117835276Y-102204129D02*
X117882895Y-102132700D01*
X117978133Y-102061271D01*
X118216229Y-102061271D01*
X118311467Y-102132700D01*
X118359086Y-102204129D01*
X118406705Y-102346986D01*
X118406705Y-102489843D01*
X118359086Y-102704129D01*
X117787657Y-103561271D01*
X118406705Y-103561271D01*
X116552743Y-100916514D02*
X116505124Y-100987943D01*
X116362267Y-101059371D01*
X116267029Y-101059371D01*
X116124171Y-100987943D01*
X116028933Y-100845086D01*
X115981314Y-100702229D01*
X115933695Y-100416514D01*
X115933695Y-100202229D01*
X115981314Y-99916514D01*
X116028933Y-99773657D01*
X116124171Y-99630800D01*
X116267029Y-99559371D01*
X116362267Y-99559371D01*
X116505124Y-99630800D01*
X116552743Y-99702229D01*
X116933695Y-100987943D02*
X117076552Y-101059371D01*
X117314648Y-101059371D01*
X117409886Y-100987943D01*
X117457505Y-100916514D01*
X117505124Y-100773657D01*
X117505124Y-100630800D01*
X117457505Y-100487943D01*
X117409886Y-100416514D01*
X117314648Y-100345086D01*
X117124171Y-100273657D01*
X117028933Y-100202229D01*
X116981314Y-100130800D01*
X116933695Y-99987943D01*
X116933695Y-99845086D01*
X116981314Y-99702229D01*
X117028933Y-99630800D01*
X117124171Y-99559371D01*
X117362267Y-99559371D01*
X117505124Y-99630800D01*
X118457505Y-101059371D02*
X117886076Y-101059371D01*
X118171790Y-101059371D02*
X118171790Y-99559371D01*
X118076552Y-99773657D01*
X117981314Y-99916514D01*
X117886076Y-99987943D01*
D11*
X115112943Y-136143300D02*
X114970086Y-136071871D01*
X114755800Y-136071871D01*
X114541515Y-136143300D01*
X114398657Y-136286157D01*
X114327229Y-136429014D01*
X114255800Y-136714729D01*
X114255800Y-136929014D01*
X114327229Y-137214729D01*
X114398657Y-137357586D01*
X114541515Y-137500443D01*
X114755800Y-137571871D01*
X114898657Y-137571871D01*
X115112943Y-137500443D01*
X115184372Y-137429014D01*
X115184372Y-136929014D01*
X114898657Y-136929014D01*
X115827229Y-137571871D02*
X115827229Y-136071871D01*
X116684372Y-137571871D01*
X116684372Y-136071871D01*
X117398658Y-137571871D02*
X117398658Y-136071871D01*
X117755801Y-136071871D01*
X117970086Y-136143300D01*
X118112944Y-136286157D01*
X118184372Y-136429014D01*
X118255801Y-136714729D01*
X118255801Y-136929014D01*
X118184372Y-137214729D01*
X118112944Y-137357586D01*
X117970086Y-137500443D01*
X117755801Y-137571871D01*
X117398658Y-137571871D01*
X114141500Y-133379471D02*
X114641500Y-134879471D01*
X115141500Y-133379471D01*
X115641500Y-134879471D02*
X115641500Y-133379471D01*
X115998643Y-133379471D01*
X116212928Y-133450900D01*
X116355786Y-133593757D01*
X116427214Y-133736614D01*
X116498643Y-134022329D01*
X116498643Y-134236614D01*
X116427214Y-134522329D01*
X116355786Y-134665186D01*
X116212928Y-134808043D01*
X115998643Y-134879471D01*
X115641500Y-134879471D01*
X117141500Y-134879471D02*
X117141500Y-133379471D01*
X117498643Y-133379471D01*
X117712928Y-133450900D01*
X117855786Y-133593757D01*
X117927214Y-133736614D01*
X117998643Y-134022329D01*
X117998643Y-134236614D01*
X117927214Y-134522329D01*
X117855786Y-134665186D01*
X117712928Y-134808043D01*
X117498643Y-134879471D01*
X117141500Y-134879471D01*
D13*
X75061000Y-114284000D02*
X75061000Y-112284000D01*
X73021000Y-112284000D02*
X73021000Y-114284000D01*
X105541000Y-114284000D02*
X105541000Y-112284000D01*
X103501000Y-112284000D02*
X103501000Y-114284000D01*
X95361000Y-118614000D02*
X93361000Y-118614000D01*
X93361000Y-120654000D02*
X95361000Y-120654000D01*
X97921000Y-114284000D02*
X97921000Y-112284000D01*
X95881000Y-112284000D02*
X95881000Y-114284000D01*
X101731000Y-114284000D02*
X101731000Y-112284000D01*
X99691000Y-112284000D02*
X99691000Y-114284000D01*
X107311000Y-112284000D02*
X107311000Y-114284000D01*
X109351000Y-114284000D02*
X109351000Y-112284000D01*
X73021000Y-93361000D02*
X73021000Y-95361000D01*
X75061000Y-95361000D02*
X75061000Y-93361000D01*
X109795500Y-76247500D02*
X109795500Y-74247500D01*
X107755500Y-74247500D02*
X107755500Y-76247500D01*
X97921000Y-95361000D02*
X97921000Y-93361000D01*
X95881000Y-93361000D02*
X95881000Y-95361000D01*
X73465500Y-74247500D02*
X73465500Y-76247500D01*
X75505500Y-76247500D02*
X75505500Y-74247500D01*
X93361000Y-101731000D02*
X95361000Y-101731000D01*
X95361000Y-99691000D02*
X93361000Y-99691000D01*
X93805500Y-82617500D02*
X95805500Y-82617500D01*
X95805500Y-80577500D02*
X93805500Y-80577500D01*
X109351000Y-95361000D02*
X109351000Y-93361000D01*
X107311000Y-93361000D02*
X107311000Y-95361000D01*
X105985500Y-76247500D02*
X105985500Y-74247500D01*
X103945500Y-74247500D02*
X103945500Y-76247500D01*
X101731000Y-95361000D02*
X101731000Y-93361000D01*
X99691000Y-93361000D02*
X99691000Y-95361000D01*
X102175500Y-76247500D02*
X102175500Y-74247500D01*
X100135500Y-74247500D02*
X100135500Y-76247500D01*
X105541000Y-95361000D02*
X105541000Y-93361000D01*
X103501000Y-93361000D02*
X103501000Y-95361000D01*
X98365500Y-76247500D02*
X98365500Y-74247500D01*
X96325500Y-74247500D02*
X96325500Y-76247500D01*
X75315000Y-131302000D02*
X75315000Y-129302000D01*
X73275000Y-129302000D02*
X73275000Y-131302000D01*
X106295000Y-129302000D02*
X106295000Y-131302000D01*
X108335000Y-131302000D02*
X108335000Y-129302000D01*
X98175000Y-131242000D02*
X98175000Y-129242000D01*
X96135000Y-129242000D02*
X96135000Y-131242000D01*
X104925000Y-131242000D02*
X104925000Y-129242000D01*
X102885000Y-129242000D02*
X102885000Y-131242000D01*
X94405000Y-134722000D02*
X92405000Y-134722000D01*
X92405000Y-136762000D02*
X94405000Y-136762000D01*
X101675000Y-131242000D02*
X101675000Y-129242000D01*
X99635000Y-129242000D02*
X99635000Y-131242000D01*
X55641411Y-132029337D02*
G75*
G03X55655000Y-135492000I4763589J-1712663D01*
G01*
X58692337Y-138505589D02*
G75*
G03X62155000Y-138492000I1712663J4763589D01*
G01*
X65168589Y-135454663D02*
G75*
G03X65155000Y-131992000I-4763589J1712663D01*
G01*
X62117663Y-128978411D02*
G75*
G03X58655000Y-128992000I-1712663J-4763589D01*
G01*
X55307411Y-114111337D02*
G75*
G03X55321000Y-117574000I4763589J-1712663D01*
G01*
X58358337Y-120587589D02*
G75*
G03X61821000Y-120574000I1712663J4763589D01*
G01*
X64834589Y-117536663D02*
G75*
G03X64821000Y-114074000I-4763589J1712663D01*
G01*
X61783663Y-111060411D02*
G75*
G03X58321000Y-111074000I-1712663J-4763589D01*
G01*
X55307411Y-97728337D02*
G75*
G03X55321000Y-101191000I4763589J-1712663D01*
G01*
X58358337Y-104204589D02*
G75*
G03X61821000Y-104191000I1712663J4763589D01*
G01*
X64834589Y-101153663D02*
G75*
G03X64821000Y-97691000I-4763589J1712663D01*
G01*
X61783663Y-94677411D02*
G75*
G03X58321000Y-94691000I-1712663J-4763589D01*
G01*
X55180411Y-79122837D02*
G75*
G03X55194000Y-82585500I4763589J-1712663D01*
G01*
X58231337Y-85599089D02*
G75*
G03X61694000Y-85585500I1712663J4763589D01*
G01*
X64707589Y-82548163D02*
G75*
G03X64694000Y-79085500I-4763589J1712663D01*
G01*
X61656663Y-76071911D02*
G75*
G03X58194000Y-76085500I-1712663J-4763589D01*
G01*
X71301000Y-112284000D02*
X71301000Y-114284000D01*
X69161000Y-114284000D02*
X69161000Y-112284000D01*
X75581000Y-122374000D02*
X77581000Y-122374000D01*
X77581000Y-124514000D02*
X75581000Y-124514000D01*
X78921000Y-112284000D02*
X78921000Y-114284000D01*
X76781000Y-114284000D02*
X76781000Y-112284000D01*
X95361000Y-124514000D02*
X93361000Y-124514000D01*
X93361000Y-122374000D02*
X95361000Y-122374000D01*
X102251000Y-122374000D02*
X104251000Y-122374000D01*
X104251000Y-124514000D02*
X102251000Y-124514000D01*
X78851000Y-120704000D02*
X76851000Y-120704000D01*
X76851000Y-118564000D02*
X78851000Y-118564000D01*
X102251000Y-118564000D02*
X104251000Y-118564000D01*
X104251000Y-120704000D02*
X102251000Y-120704000D01*
X111071000Y-114284000D02*
X111071000Y-112284000D01*
X113211000Y-112284000D02*
X113211000Y-114284000D01*
X111141000Y-118564000D02*
X113141000Y-118564000D01*
X113141000Y-120704000D02*
X111141000Y-120704000D01*
X111141000Y-122374000D02*
X113141000Y-122374000D01*
X113141000Y-124514000D02*
X111141000Y-124514000D01*
X80591000Y-114284000D02*
X80591000Y-112284000D01*
X82731000Y-112284000D02*
X82731000Y-114284000D01*
X113211000Y-93361000D02*
X113211000Y-95361000D01*
X111071000Y-95361000D02*
X111071000Y-93361000D01*
X81035500Y-76247500D02*
X81035500Y-74247500D01*
X83175500Y-74247500D02*
X83175500Y-76247500D01*
X78851000Y-101781000D02*
X76851000Y-101781000D01*
X76851000Y-99641000D02*
X78851000Y-99641000D01*
X79295500Y-82667500D02*
X77295500Y-82667500D01*
X77295500Y-80527500D02*
X79295500Y-80527500D01*
X78921000Y-93361000D02*
X78921000Y-95361000D01*
X76781000Y-95361000D02*
X76781000Y-93361000D01*
X104695500Y-82667500D02*
X102695500Y-82667500D01*
X102695500Y-80527500D02*
X104695500Y-80527500D01*
X95361000Y-105591000D02*
X93361000Y-105591000D01*
X93361000Y-103451000D02*
X95361000Y-103451000D01*
X102251000Y-103451000D02*
X104251000Y-103451000D01*
X104251000Y-105591000D02*
X102251000Y-105591000D01*
X71745500Y-74247500D02*
X71745500Y-76247500D01*
X69605500Y-76247500D02*
X69605500Y-74247500D01*
X79365500Y-74247500D02*
X79365500Y-76247500D01*
X77225500Y-76247500D02*
X77225500Y-74247500D01*
X104251000Y-101781000D02*
X102251000Y-101781000D01*
X102251000Y-99641000D02*
X104251000Y-99641000D01*
X77295500Y-84337500D02*
X79295500Y-84337500D01*
X79295500Y-86477500D02*
X77295500Y-86477500D01*
X76851000Y-103451000D02*
X78851000Y-103451000D01*
X78851000Y-105591000D02*
X76851000Y-105591000D01*
X113585500Y-86477500D02*
X111585500Y-86477500D01*
X111585500Y-84337500D02*
X113585500Y-84337500D01*
X69161000Y-95361000D02*
X69161000Y-93361000D01*
X71301000Y-93361000D02*
X71301000Y-95361000D01*
X113141000Y-105591000D02*
X111141000Y-105591000D01*
X111141000Y-103451000D02*
X113141000Y-103451000D01*
X113655500Y-74247500D02*
X113655500Y-76247500D01*
X111515500Y-76247500D02*
X111515500Y-74247500D01*
X102695500Y-84337500D02*
X104695500Y-84337500D01*
X104695500Y-86477500D02*
X102695500Y-86477500D01*
X111141000Y-99641000D02*
X113141000Y-99641000D01*
X113141000Y-101781000D02*
X111141000Y-101781000D01*
X111585500Y-80527500D02*
X113585500Y-80527500D01*
X113585500Y-82667500D02*
X111585500Y-82667500D01*
X80591000Y-95361000D02*
X80591000Y-93361000D01*
X82731000Y-93361000D02*
X82731000Y-95361000D01*
X95805500Y-86477500D02*
X93805500Y-86477500D01*
X93805500Y-84337500D02*
X95805500Y-84337500D01*
X80335000Y-131492000D02*
X80335000Y-129492000D01*
X82475000Y-129492000D02*
X82475000Y-131492000D01*
X78905000Y-136812000D02*
X76905000Y-136812000D01*
X76905000Y-134672000D02*
X78905000Y-134672000D01*
X79175000Y-129302000D02*
X79175000Y-131302000D01*
X77035000Y-131302000D02*
X77035000Y-129302000D01*
X109835000Y-131242000D02*
X109835000Y-129242000D01*
X111975000Y-129242000D02*
X111975000Y-131242000D01*
X76655000Y-137672000D02*
X78655000Y-137672000D01*
X78655000Y-139812000D02*
X76655000Y-139812000D01*
X107905000Y-137672000D02*
X109905000Y-137672000D01*
X109905000Y-139812000D02*
X107905000Y-139812000D01*
X94405000Y-139812000D02*
X92405000Y-139812000D01*
X92405000Y-137672000D02*
X94405000Y-137672000D01*
X108155000Y-134672000D02*
X110155000Y-134672000D01*
X110155000Y-136812000D02*
X108155000Y-136812000D01*
X100405000Y-137672000D02*
X102405000Y-137672000D01*
X102405000Y-139812000D02*
X100405000Y-139812000D01*
X100405000Y-134672000D02*
X102405000Y-134672000D01*
X102405000Y-136812000D02*
X100405000Y-136812000D01*
X69085000Y-131242000D02*
X69085000Y-129242000D01*
X71225000Y-129242000D02*
X71225000Y-131242000D01*
D14*
X86826000Y-110859000D02*
X86826000Y-110984000D01*
X91476000Y-110859000D02*
X91476000Y-111084000D01*
X91476000Y-116109000D02*
X91476000Y-115884000D01*
X86826000Y-116109000D02*
X86826000Y-115884000D01*
X86826000Y-110859000D02*
X91476000Y-110859000D01*
X86826000Y-116109000D02*
X91476000Y-116109000D01*
X86826000Y-110984000D02*
X85476000Y-110984000D01*
D13*
X84571000Y-123784000D02*
X86371000Y-123784000D01*
X86371000Y-120564000D02*
X83421000Y-120564000D01*
D14*
X86956000Y-91736000D02*
X86956000Y-91861000D01*
X91606000Y-91736000D02*
X91606000Y-91961000D01*
X91606000Y-96986000D02*
X91606000Y-96761000D01*
X86956000Y-96986000D02*
X86956000Y-96761000D01*
X86956000Y-91736000D02*
X91606000Y-91736000D01*
X86956000Y-96986000D02*
X91606000Y-96986000D01*
X86956000Y-91861000D02*
X85606000Y-91861000D01*
X87400500Y-72622500D02*
X87400500Y-72747500D01*
X92050500Y-72622500D02*
X92050500Y-72847500D01*
X92050500Y-77872500D02*
X92050500Y-77647500D01*
X87400500Y-77872500D02*
X87400500Y-77647500D01*
X87400500Y-72622500D02*
X92050500Y-72622500D01*
X87400500Y-77872500D02*
X92050500Y-77872500D01*
X87400500Y-72747500D02*
X86050500Y-72747500D01*
D13*
X84571000Y-103591000D02*
X86371000Y-103591000D01*
X86371000Y-100371000D02*
X83421000Y-100371000D01*
X85015500Y-84477500D02*
X86815500Y-84477500D01*
X86815500Y-81257500D02*
X83865500Y-81257500D01*
D14*
X86580000Y-127867000D02*
X86580000Y-127992000D01*
X91230000Y-127867000D02*
X91230000Y-128092000D01*
X91230000Y-133117000D02*
X91230000Y-132892000D01*
X86580000Y-133117000D02*
X86580000Y-132892000D01*
X86580000Y-127867000D02*
X91230000Y-127867000D01*
X86580000Y-133117000D02*
X91230000Y-133117000D01*
X86580000Y-127992000D02*
X85230000Y-127992000D01*
D13*
X84505000Y-139352000D02*
X86305000Y-139352000D01*
X86305000Y-136132000D02*
X83355000Y-136132000D01*
X119256500Y-114360000D02*
X121916500Y-114360000D01*
X119256500Y-101600000D02*
X119256500Y-114360000D01*
X121916500Y-101600000D02*
X121916500Y-114360000D01*
X119256500Y-101600000D02*
X121916500Y-101600000D01*
X119256500Y-100330000D02*
X119256500Y-99000000D01*
X119256500Y-99000000D02*
X120586500Y-99000000D01*
X119129500Y-138172500D02*
X121789500Y-138172500D01*
X119129500Y-135572500D02*
X119129500Y-138172500D01*
X121789500Y-135572500D02*
X121789500Y-138172500D01*
X119129500Y-135572500D02*
X121789500Y-135572500D01*
X119129500Y-134302500D02*
X119129500Y-132972500D01*
X119129500Y-132972500D02*
X120459500Y-132972500D01*
D14*
X76148143Y-113450666D02*
X76195762Y-113498285D01*
X76243381Y-113641142D01*
X76243381Y-113736380D01*
X76195762Y-113879238D01*
X76100524Y-113974476D01*
X76005286Y-114022095D01*
X75814810Y-114069714D01*
X75671952Y-114069714D01*
X75481476Y-114022095D01*
X75386238Y-113974476D01*
X75291000Y-113879238D01*
X75243381Y-113736380D01*
X75243381Y-113641142D01*
X75291000Y-113498285D01*
X75338619Y-113450666D01*
X76243381Y-112498285D02*
X76243381Y-113069714D01*
X76243381Y-112784000D02*
X75243381Y-112784000D01*
X75386238Y-112879238D01*
X75481476Y-112974476D01*
X75529095Y-113069714D01*
X106628143Y-113450666D02*
X106675762Y-113498285D01*
X106723381Y-113641142D01*
X106723381Y-113736380D01*
X106675762Y-113879238D01*
X106580524Y-113974476D01*
X106485286Y-114022095D01*
X106294810Y-114069714D01*
X106151952Y-114069714D01*
X105961476Y-114022095D01*
X105866238Y-113974476D01*
X105771000Y-113879238D01*
X105723381Y-113736380D01*
X105723381Y-113641142D01*
X105771000Y-113498285D01*
X105818619Y-113450666D01*
X105818619Y-113069714D02*
X105771000Y-113022095D01*
X105723381Y-112926857D01*
X105723381Y-112688761D01*
X105771000Y-112593523D01*
X105818619Y-112545904D01*
X105913857Y-112498285D01*
X106009095Y-112498285D01*
X106151952Y-112545904D01*
X106723381Y-113117333D01*
X106723381Y-112498285D01*
X94194334Y-118241143D02*
X94146715Y-118288762D01*
X94003858Y-118336381D01*
X93908620Y-118336381D01*
X93765762Y-118288762D01*
X93670524Y-118193524D01*
X93622905Y-118098286D01*
X93575286Y-117907810D01*
X93575286Y-117764952D01*
X93622905Y-117574476D01*
X93670524Y-117479238D01*
X93765762Y-117384000D01*
X93908620Y-117336381D01*
X94003858Y-117336381D01*
X94146715Y-117384000D01*
X94194334Y-117431619D01*
X94527667Y-117336381D02*
X95146715Y-117336381D01*
X94813381Y-117717333D01*
X94956239Y-117717333D01*
X95051477Y-117764952D01*
X95099096Y-117812571D01*
X95146715Y-117907810D01*
X95146715Y-118145905D01*
X95099096Y-118241143D01*
X95051477Y-118288762D01*
X94956239Y-118336381D01*
X94670524Y-118336381D01*
X94575286Y-118288762D01*
X94527667Y-118241143D01*
X99008143Y-113450666D02*
X99055762Y-113498285D01*
X99103381Y-113641142D01*
X99103381Y-113736380D01*
X99055762Y-113879238D01*
X98960524Y-113974476D01*
X98865286Y-114022095D01*
X98674810Y-114069714D01*
X98531952Y-114069714D01*
X98341476Y-114022095D01*
X98246238Y-113974476D01*
X98151000Y-113879238D01*
X98103381Y-113736380D01*
X98103381Y-113641142D01*
X98151000Y-113498285D01*
X98198619Y-113450666D01*
X98436714Y-112593523D02*
X99103381Y-112593523D01*
X98055762Y-112831619D02*
X98770048Y-113069714D01*
X98770048Y-112450666D01*
X102818143Y-113450666D02*
X102865762Y-113498285D01*
X102913381Y-113641142D01*
X102913381Y-113736380D01*
X102865762Y-113879238D01*
X102770524Y-113974476D01*
X102675286Y-114022095D01*
X102484810Y-114069714D01*
X102341952Y-114069714D01*
X102151476Y-114022095D01*
X102056238Y-113974476D01*
X101961000Y-113879238D01*
X101913381Y-113736380D01*
X101913381Y-113641142D01*
X101961000Y-113498285D01*
X102008619Y-113450666D01*
X101913381Y-112545904D02*
X101913381Y-113022095D01*
X102389571Y-113069714D01*
X102341952Y-113022095D01*
X102294333Y-112926857D01*
X102294333Y-112688761D01*
X102341952Y-112593523D01*
X102389571Y-112545904D01*
X102484810Y-112498285D01*
X102722905Y-112498285D01*
X102818143Y-112545904D01*
X102865762Y-112593523D01*
X102913381Y-112688761D01*
X102913381Y-112926857D01*
X102865762Y-113022095D01*
X102818143Y-113069714D01*
X110516943Y-113488766D02*
X110564562Y-113536385D01*
X110612181Y-113679242D01*
X110612181Y-113774480D01*
X110564562Y-113917338D01*
X110469324Y-114012576D01*
X110374086Y-114060195D01*
X110183610Y-114107814D01*
X110040752Y-114107814D01*
X109850276Y-114060195D01*
X109755038Y-114012576D01*
X109659800Y-113917338D01*
X109612181Y-113774480D01*
X109612181Y-113679242D01*
X109659800Y-113536385D01*
X109707419Y-113488766D01*
X109612181Y-112631623D02*
X109612181Y-112822100D01*
X109659800Y-112917338D01*
X109707419Y-112964957D01*
X109850276Y-113060195D01*
X110040752Y-113107814D01*
X110421705Y-113107814D01*
X110516943Y-113060195D01*
X110564562Y-113012576D01*
X110612181Y-112917338D01*
X110612181Y-112726861D01*
X110564562Y-112631623D01*
X110516943Y-112584004D01*
X110421705Y-112536385D01*
X110183610Y-112536385D01*
X110088371Y-112584004D01*
X110040752Y-112631623D01*
X109993133Y-112726861D01*
X109993133Y-112917338D01*
X110040752Y-113012576D01*
X110088371Y-113060195D01*
X110183610Y-113107814D01*
X72648143Y-94527666D02*
X72695762Y-94575285D01*
X72743381Y-94718142D01*
X72743381Y-94813380D01*
X72695762Y-94956238D01*
X72600524Y-95051476D01*
X72505286Y-95099095D01*
X72314810Y-95146714D01*
X72171952Y-95146714D01*
X71981476Y-95099095D01*
X71886238Y-95051476D01*
X71791000Y-94956238D01*
X71743381Y-94813380D01*
X71743381Y-94718142D01*
X71791000Y-94575285D01*
X71838619Y-94527666D01*
X71743381Y-94194333D02*
X71743381Y-93527666D01*
X72743381Y-93956238D01*
X110882643Y-75414166D02*
X110930262Y-75461785D01*
X110977881Y-75604642D01*
X110977881Y-75699880D01*
X110930262Y-75842738D01*
X110835024Y-75937976D01*
X110739786Y-75985595D01*
X110549310Y-76033214D01*
X110406452Y-76033214D01*
X110215976Y-75985595D01*
X110120738Y-75937976D01*
X110025500Y-75842738D01*
X109977881Y-75699880D01*
X109977881Y-75604642D01*
X110025500Y-75461785D01*
X110073119Y-75414166D01*
X110406452Y-74842738D02*
X110358833Y-74937976D01*
X110311214Y-74985595D01*
X110215976Y-75033214D01*
X110168357Y-75033214D01*
X110073119Y-74985595D01*
X110025500Y-74937976D01*
X109977881Y-74842738D01*
X109977881Y-74652261D01*
X110025500Y-74557023D01*
X110073119Y-74509404D01*
X110168357Y-74461785D01*
X110215976Y-74461785D01*
X110311214Y-74509404D01*
X110358833Y-74557023D01*
X110406452Y-74652261D01*
X110406452Y-74842738D01*
X110454071Y-74937976D01*
X110501690Y-74985595D01*
X110596929Y-75033214D01*
X110787405Y-75033214D01*
X110882643Y-74985595D01*
X110930262Y-74937976D01*
X110977881Y-74842738D01*
X110977881Y-74652261D01*
X110930262Y-74557023D01*
X110882643Y-74509404D01*
X110787405Y-74461785D01*
X110596929Y-74461785D01*
X110501690Y-74509404D01*
X110454071Y-74557023D01*
X110406452Y-74652261D01*
X99008143Y-94527666D02*
X99055762Y-94575285D01*
X99103381Y-94718142D01*
X99103381Y-94813380D01*
X99055762Y-94956238D01*
X98960524Y-95051476D01*
X98865286Y-95099095D01*
X98674810Y-95146714D01*
X98531952Y-95146714D01*
X98341476Y-95099095D01*
X98246238Y-95051476D01*
X98151000Y-94956238D01*
X98103381Y-94813380D01*
X98103381Y-94718142D01*
X98151000Y-94575285D01*
X98198619Y-94527666D01*
X99103381Y-94051476D02*
X99103381Y-93861000D01*
X99055762Y-93765761D01*
X99008143Y-93718142D01*
X98865286Y-93622904D01*
X98674810Y-93575285D01*
X98293857Y-93575285D01*
X98198619Y-93622904D01*
X98151000Y-93670523D01*
X98103381Y-93765761D01*
X98103381Y-93956238D01*
X98151000Y-94051476D01*
X98198619Y-94099095D01*
X98293857Y-94146714D01*
X98531952Y-94146714D01*
X98627190Y-94099095D01*
X98674810Y-94051476D01*
X98722429Y-93956238D01*
X98722429Y-93765761D01*
X98674810Y-93670523D01*
X98627190Y-93622904D01*
X98531952Y-93575285D01*
X73092643Y-75890357D02*
X73140262Y-75937976D01*
X73187881Y-76080833D01*
X73187881Y-76176071D01*
X73140262Y-76318929D01*
X73045024Y-76414167D01*
X72949786Y-76461786D01*
X72759310Y-76509405D01*
X72616452Y-76509405D01*
X72425976Y-76461786D01*
X72330738Y-76414167D01*
X72235500Y-76318929D01*
X72187881Y-76176071D01*
X72187881Y-76080833D01*
X72235500Y-75937976D01*
X72283119Y-75890357D01*
X73187881Y-74937976D02*
X73187881Y-75509405D01*
X73187881Y-75223691D02*
X72187881Y-75223691D01*
X72330738Y-75318929D01*
X72425976Y-75414167D01*
X72473595Y-75509405D01*
X72187881Y-74318929D02*
X72187881Y-74223690D01*
X72235500Y-74128452D01*
X72283119Y-74080833D01*
X72378357Y-74033214D01*
X72568833Y-73985595D01*
X72806929Y-73985595D01*
X72997405Y-74033214D01*
X73092643Y-74080833D01*
X73140262Y-74128452D01*
X73187881Y-74223690D01*
X73187881Y-74318929D01*
X73140262Y-74414167D01*
X73092643Y-74461786D01*
X72997405Y-74509405D01*
X72806929Y-74557024D01*
X72568833Y-74557024D01*
X72378357Y-74509405D01*
X72283119Y-74461786D01*
X72235500Y-74414167D01*
X72187881Y-74318929D01*
X93718143Y-102818143D02*
X93670524Y-102865762D01*
X93527667Y-102913381D01*
X93432429Y-102913381D01*
X93289571Y-102865762D01*
X93194333Y-102770524D01*
X93146714Y-102675286D01*
X93099095Y-102484810D01*
X93099095Y-102341952D01*
X93146714Y-102151476D01*
X93194333Y-102056238D01*
X93289571Y-101961000D01*
X93432429Y-101913381D01*
X93527667Y-101913381D01*
X93670524Y-101961000D01*
X93718143Y-102008619D01*
X94670524Y-102913381D02*
X94099095Y-102913381D01*
X94384809Y-102913381D02*
X94384809Y-101913381D01*
X94289571Y-102056238D01*
X94194333Y-102151476D01*
X94099095Y-102199095D01*
X95622905Y-102913381D02*
X95051476Y-102913381D01*
X95337190Y-102913381D02*
X95337190Y-101913381D01*
X95241952Y-102056238D01*
X95146714Y-102151476D01*
X95051476Y-102199095D01*
X94162643Y-83704643D02*
X94115024Y-83752262D01*
X93972167Y-83799881D01*
X93876929Y-83799881D01*
X93734071Y-83752262D01*
X93638833Y-83657024D01*
X93591214Y-83561786D01*
X93543595Y-83371310D01*
X93543595Y-83228452D01*
X93591214Y-83037976D01*
X93638833Y-82942738D01*
X93734071Y-82847500D01*
X93876929Y-82799881D01*
X93972167Y-82799881D01*
X94115024Y-82847500D01*
X94162643Y-82895119D01*
X95115024Y-83799881D02*
X94543595Y-83799881D01*
X94829309Y-83799881D02*
X94829309Y-82799881D01*
X94734071Y-82942738D01*
X94638833Y-83037976D01*
X94543595Y-83085595D01*
X95495976Y-82895119D02*
X95543595Y-82847500D01*
X95638833Y-82799881D01*
X95876929Y-82799881D01*
X95972167Y-82847500D01*
X96019786Y-82895119D01*
X96067405Y-82990357D01*
X96067405Y-83085595D01*
X96019786Y-83228452D01*
X95448357Y-83799881D01*
X96067405Y-83799881D01*
X110438143Y-95003857D02*
X110485762Y-95051476D01*
X110533381Y-95194333D01*
X110533381Y-95289571D01*
X110485762Y-95432429D01*
X110390524Y-95527667D01*
X110295286Y-95575286D01*
X110104810Y-95622905D01*
X109961952Y-95622905D01*
X109771476Y-95575286D01*
X109676238Y-95527667D01*
X109581000Y-95432429D01*
X109533381Y-95289571D01*
X109533381Y-95194333D01*
X109581000Y-95051476D01*
X109628619Y-95003857D01*
X110533381Y-94051476D02*
X110533381Y-94622905D01*
X110533381Y-94337191D02*
X109533381Y-94337191D01*
X109676238Y-94432429D01*
X109771476Y-94527667D01*
X109819095Y-94622905D01*
X109533381Y-93718143D02*
X109533381Y-93099095D01*
X109914333Y-93432429D01*
X109914333Y-93289571D01*
X109961952Y-93194333D01*
X110009571Y-93146714D01*
X110104810Y-93099095D01*
X110342905Y-93099095D01*
X110438143Y-93146714D01*
X110485762Y-93194333D01*
X110533381Y-93289571D01*
X110533381Y-93575286D01*
X110485762Y-93670524D01*
X110438143Y-93718143D01*
X107072643Y-75890357D02*
X107120262Y-75937976D01*
X107167881Y-76080833D01*
X107167881Y-76176071D01*
X107120262Y-76318929D01*
X107025024Y-76414167D01*
X106929786Y-76461786D01*
X106739310Y-76509405D01*
X106596452Y-76509405D01*
X106405976Y-76461786D01*
X106310738Y-76414167D01*
X106215500Y-76318929D01*
X106167881Y-76176071D01*
X106167881Y-76080833D01*
X106215500Y-75937976D01*
X106263119Y-75890357D01*
X107167881Y-74937976D02*
X107167881Y-75509405D01*
X107167881Y-75223691D02*
X106167881Y-75223691D01*
X106310738Y-75318929D01*
X106405976Y-75414167D01*
X106453595Y-75509405D01*
X106501214Y-74080833D02*
X107167881Y-74080833D01*
X106120262Y-74318929D02*
X106834548Y-74557024D01*
X106834548Y-73937976D01*
X102818143Y-95003857D02*
X102865762Y-95051476D01*
X102913381Y-95194333D01*
X102913381Y-95289571D01*
X102865762Y-95432429D01*
X102770524Y-95527667D01*
X102675286Y-95575286D01*
X102484810Y-95622905D01*
X102341952Y-95622905D01*
X102151476Y-95575286D01*
X102056238Y-95527667D01*
X101961000Y-95432429D01*
X101913381Y-95289571D01*
X101913381Y-95194333D01*
X101961000Y-95051476D01*
X102008619Y-95003857D01*
X102913381Y-94051476D02*
X102913381Y-94622905D01*
X102913381Y-94337191D02*
X101913381Y-94337191D01*
X102056238Y-94432429D01*
X102151476Y-94527667D01*
X102199095Y-94622905D01*
X101913381Y-93146714D02*
X101913381Y-93622905D01*
X102389571Y-93670524D01*
X102341952Y-93622905D01*
X102294333Y-93527667D01*
X102294333Y-93289571D01*
X102341952Y-93194333D01*
X102389571Y-93146714D01*
X102484810Y-93099095D01*
X102722905Y-93099095D01*
X102818143Y-93146714D01*
X102865762Y-93194333D01*
X102913381Y-93289571D01*
X102913381Y-93527667D01*
X102865762Y-93622905D01*
X102818143Y-93670524D01*
X103262643Y-75890357D02*
X103310262Y-75937976D01*
X103357881Y-76080833D01*
X103357881Y-76176071D01*
X103310262Y-76318929D01*
X103215024Y-76414167D01*
X103119786Y-76461786D01*
X102929310Y-76509405D01*
X102786452Y-76509405D01*
X102595976Y-76461786D01*
X102500738Y-76414167D01*
X102405500Y-76318929D01*
X102357881Y-76176071D01*
X102357881Y-76080833D01*
X102405500Y-75937976D01*
X102453119Y-75890357D01*
X103357881Y-74937976D02*
X103357881Y-75509405D01*
X103357881Y-75223691D02*
X102357881Y-75223691D01*
X102500738Y-75318929D01*
X102595976Y-75414167D01*
X102643595Y-75509405D01*
X102357881Y-74080833D02*
X102357881Y-74271310D01*
X102405500Y-74366548D01*
X102453119Y-74414167D01*
X102595976Y-74509405D01*
X102786452Y-74557024D01*
X103167405Y-74557024D01*
X103262643Y-74509405D01*
X103310262Y-74461786D01*
X103357881Y-74366548D01*
X103357881Y-74176071D01*
X103310262Y-74080833D01*
X103262643Y-74033214D01*
X103167405Y-73985595D01*
X102929310Y-73985595D01*
X102834071Y-74033214D01*
X102786452Y-74080833D01*
X102738833Y-74176071D01*
X102738833Y-74366548D01*
X102786452Y-74461786D01*
X102834071Y-74509405D01*
X102929310Y-74557024D01*
X106628143Y-95003857D02*
X106675762Y-95051476D01*
X106723381Y-95194333D01*
X106723381Y-95289571D01*
X106675762Y-95432429D01*
X106580524Y-95527667D01*
X106485286Y-95575286D01*
X106294810Y-95622905D01*
X106151952Y-95622905D01*
X105961476Y-95575286D01*
X105866238Y-95527667D01*
X105771000Y-95432429D01*
X105723381Y-95289571D01*
X105723381Y-95194333D01*
X105771000Y-95051476D01*
X105818619Y-95003857D01*
X106723381Y-94051476D02*
X106723381Y-94622905D01*
X106723381Y-94337191D02*
X105723381Y-94337191D01*
X105866238Y-94432429D01*
X105961476Y-94527667D01*
X106009095Y-94622905D01*
X105723381Y-93718143D02*
X105723381Y-93051476D01*
X106723381Y-93480048D01*
X99452643Y-75890357D02*
X99500262Y-75937976D01*
X99547881Y-76080833D01*
X99547881Y-76176071D01*
X99500262Y-76318929D01*
X99405024Y-76414167D01*
X99309786Y-76461786D01*
X99119310Y-76509405D01*
X98976452Y-76509405D01*
X98785976Y-76461786D01*
X98690738Y-76414167D01*
X98595500Y-76318929D01*
X98547881Y-76176071D01*
X98547881Y-76080833D01*
X98595500Y-75937976D01*
X98643119Y-75890357D01*
X99547881Y-74937976D02*
X99547881Y-75509405D01*
X99547881Y-75223691D02*
X98547881Y-75223691D01*
X98690738Y-75318929D01*
X98785976Y-75414167D01*
X98833595Y-75509405D01*
X98976452Y-74366548D02*
X98928833Y-74461786D01*
X98881214Y-74509405D01*
X98785976Y-74557024D01*
X98738357Y-74557024D01*
X98643119Y-74509405D01*
X98595500Y-74461786D01*
X98547881Y-74366548D01*
X98547881Y-74176071D01*
X98595500Y-74080833D01*
X98643119Y-74033214D01*
X98738357Y-73985595D01*
X98785976Y-73985595D01*
X98881214Y-74033214D01*
X98928833Y-74080833D01*
X98976452Y-74176071D01*
X98976452Y-74366548D01*
X99024071Y-74461786D01*
X99071690Y-74509405D01*
X99166929Y-74557024D01*
X99357405Y-74557024D01*
X99452643Y-74509405D01*
X99500262Y-74461786D01*
X99547881Y-74366548D01*
X99547881Y-74176071D01*
X99500262Y-74080833D01*
X99452643Y-74033214D01*
X99357405Y-73985595D01*
X99166929Y-73985595D01*
X99071690Y-74033214D01*
X99024071Y-74080833D01*
X98976452Y-74176071D01*
X76402143Y-130944857D02*
X76449762Y-130992476D01*
X76497381Y-131135333D01*
X76497381Y-131230571D01*
X76449762Y-131373429D01*
X76354524Y-131468667D01*
X76259286Y-131516286D01*
X76068810Y-131563905D01*
X75925952Y-131563905D01*
X75735476Y-131516286D01*
X75640238Y-131468667D01*
X75545000Y-131373429D01*
X75497381Y-131230571D01*
X75497381Y-131135333D01*
X75545000Y-130992476D01*
X75592619Y-130944857D01*
X76497381Y-129992476D02*
X76497381Y-130563905D01*
X76497381Y-130278191D02*
X75497381Y-130278191D01*
X75640238Y-130373429D01*
X75735476Y-130468667D01*
X75783095Y-130563905D01*
X76497381Y-129516286D02*
X76497381Y-129325810D01*
X76449762Y-129230571D01*
X76402143Y-129182952D01*
X76259286Y-129087714D01*
X76068810Y-129040095D01*
X75687857Y-129040095D01*
X75592619Y-129087714D01*
X75545000Y-129135333D01*
X75497381Y-129230571D01*
X75497381Y-129421048D01*
X75545000Y-129516286D01*
X75592619Y-129563905D01*
X75687857Y-129611524D01*
X75925952Y-129611524D01*
X76021190Y-129563905D01*
X76068810Y-129516286D01*
X76116429Y-129421048D01*
X76116429Y-129230571D01*
X76068810Y-129135333D01*
X76021190Y-129087714D01*
X75925952Y-129040095D01*
X109539043Y-130894057D02*
X109586662Y-130941676D01*
X109634281Y-131084533D01*
X109634281Y-131179771D01*
X109586662Y-131322629D01*
X109491424Y-131417867D01*
X109396186Y-131465486D01*
X109205710Y-131513105D01*
X109062852Y-131513105D01*
X108872376Y-131465486D01*
X108777138Y-131417867D01*
X108681900Y-131322629D01*
X108634281Y-131179771D01*
X108634281Y-131084533D01*
X108681900Y-130941676D01*
X108729519Y-130894057D01*
X108729519Y-130513105D02*
X108681900Y-130465486D01*
X108634281Y-130370248D01*
X108634281Y-130132152D01*
X108681900Y-130036914D01*
X108729519Y-129989295D01*
X108824757Y-129941676D01*
X108919995Y-129941676D01*
X109062852Y-129989295D01*
X109634281Y-130560724D01*
X109634281Y-129941676D01*
X108634281Y-129322629D02*
X108634281Y-129227390D01*
X108681900Y-129132152D01*
X108729519Y-129084533D01*
X108824757Y-129036914D01*
X109015233Y-128989295D01*
X109253329Y-128989295D01*
X109443805Y-129036914D01*
X109539043Y-129084533D01*
X109586662Y-129132152D01*
X109634281Y-129227390D01*
X109634281Y-129322629D01*
X109586662Y-129417867D01*
X109539043Y-129465486D01*
X109443805Y-129513105D01*
X109253329Y-129560724D01*
X109015233Y-129560724D01*
X108824757Y-129513105D01*
X108729519Y-129465486D01*
X108681900Y-129417867D01*
X108634281Y-129322629D01*
X99262143Y-130884857D02*
X99309762Y-130932476D01*
X99357381Y-131075333D01*
X99357381Y-131170571D01*
X99309762Y-131313429D01*
X99214524Y-131408667D01*
X99119286Y-131456286D01*
X98928810Y-131503905D01*
X98785952Y-131503905D01*
X98595476Y-131456286D01*
X98500238Y-131408667D01*
X98405000Y-131313429D01*
X98357381Y-131170571D01*
X98357381Y-131075333D01*
X98405000Y-130932476D01*
X98452619Y-130884857D01*
X98452619Y-130503905D02*
X98405000Y-130456286D01*
X98357381Y-130361048D01*
X98357381Y-130122952D01*
X98405000Y-130027714D01*
X98452619Y-129980095D01*
X98547857Y-129932476D01*
X98643095Y-129932476D01*
X98785952Y-129980095D01*
X99357381Y-130551524D01*
X99357381Y-129932476D01*
X99357381Y-128980095D02*
X99357381Y-129551524D01*
X99357381Y-129265810D02*
X98357381Y-129265810D01*
X98500238Y-129361048D01*
X98595476Y-129456286D01*
X98643095Y-129551524D01*
X106012143Y-130884857D02*
X106059762Y-130932476D01*
X106107381Y-131075333D01*
X106107381Y-131170571D01*
X106059762Y-131313429D01*
X105964524Y-131408667D01*
X105869286Y-131456286D01*
X105678810Y-131503905D01*
X105535952Y-131503905D01*
X105345476Y-131456286D01*
X105250238Y-131408667D01*
X105155000Y-131313429D01*
X105107381Y-131170571D01*
X105107381Y-131075333D01*
X105155000Y-130932476D01*
X105202619Y-130884857D01*
X105202619Y-130503905D02*
X105155000Y-130456286D01*
X105107381Y-130361048D01*
X105107381Y-130122952D01*
X105155000Y-130027714D01*
X105202619Y-129980095D01*
X105297857Y-129932476D01*
X105393095Y-129932476D01*
X105535952Y-129980095D01*
X106107381Y-130551524D01*
X106107381Y-129932476D01*
X105202619Y-129551524D02*
X105155000Y-129503905D01*
X105107381Y-129408667D01*
X105107381Y-129170571D01*
X105155000Y-129075333D01*
X105202619Y-129027714D01*
X105297857Y-128980095D01*
X105393095Y-128980095D01*
X105535952Y-129027714D01*
X106107381Y-129599143D01*
X106107381Y-128980095D01*
X92762143Y-134349143D02*
X92714524Y-134396762D01*
X92571667Y-134444381D01*
X92476429Y-134444381D01*
X92333571Y-134396762D01*
X92238333Y-134301524D01*
X92190714Y-134206286D01*
X92143095Y-134015810D01*
X92143095Y-133872952D01*
X92190714Y-133682476D01*
X92238333Y-133587238D01*
X92333571Y-133492000D01*
X92476429Y-133444381D01*
X92571667Y-133444381D01*
X92714524Y-133492000D01*
X92762143Y-133539619D01*
X93143095Y-133539619D02*
X93190714Y-133492000D01*
X93285952Y-133444381D01*
X93524048Y-133444381D01*
X93619286Y-133492000D01*
X93666905Y-133539619D01*
X93714524Y-133634857D01*
X93714524Y-133730095D01*
X93666905Y-133872952D01*
X93095476Y-134444381D01*
X93714524Y-134444381D01*
X94047857Y-133444381D02*
X94666905Y-133444381D01*
X94333571Y-133825333D01*
X94476429Y-133825333D01*
X94571667Y-133872952D01*
X94619286Y-133920571D01*
X94666905Y-134015810D01*
X94666905Y-134253905D01*
X94619286Y-134349143D01*
X94571667Y-134396762D01*
X94476429Y-134444381D01*
X94190714Y-134444381D01*
X94095476Y-134396762D01*
X94047857Y-134349143D01*
X102762143Y-130884857D02*
X102809762Y-130932476D01*
X102857381Y-131075333D01*
X102857381Y-131170571D01*
X102809762Y-131313429D01*
X102714524Y-131408667D01*
X102619286Y-131456286D01*
X102428810Y-131503905D01*
X102285952Y-131503905D01*
X102095476Y-131456286D01*
X102000238Y-131408667D01*
X101905000Y-131313429D01*
X101857381Y-131170571D01*
X101857381Y-131075333D01*
X101905000Y-130932476D01*
X101952619Y-130884857D01*
X101952619Y-130503905D02*
X101905000Y-130456286D01*
X101857381Y-130361048D01*
X101857381Y-130122952D01*
X101905000Y-130027714D01*
X101952619Y-129980095D01*
X102047857Y-129932476D01*
X102143095Y-129932476D01*
X102285952Y-129980095D01*
X102857381Y-130551524D01*
X102857381Y-129932476D01*
X102190714Y-129075333D02*
X102857381Y-129075333D01*
X101809762Y-129313429D02*
X102524048Y-129551524D01*
X102524048Y-128932476D01*
X59821667Y-126944381D02*
X59821667Y-127658667D01*
X59774047Y-127801524D01*
X59678809Y-127896762D01*
X59535952Y-127944381D01*
X59440714Y-127944381D01*
X60821667Y-127944381D02*
X60250238Y-127944381D01*
X60535952Y-127944381D02*
X60535952Y-126944381D01*
X60440714Y-127087238D01*
X60345476Y-127182476D01*
X60250238Y-127230095D01*
X59487667Y-109026381D02*
X59487667Y-109740667D01*
X59440047Y-109883524D01*
X59344809Y-109978762D01*
X59201952Y-110026381D01*
X59106714Y-110026381D01*
X60392429Y-109359714D02*
X60392429Y-110026381D01*
X60154333Y-108978762D02*
X59916238Y-109693048D01*
X60535286Y-109693048D01*
X59487667Y-92643381D02*
X59487667Y-93357667D01*
X59440047Y-93500524D01*
X59344809Y-93595762D01*
X59201952Y-93643381D01*
X59106714Y-93643381D01*
X60440048Y-92643381D02*
X59963857Y-92643381D01*
X59916238Y-93119571D01*
X59963857Y-93071952D01*
X60059095Y-93024333D01*
X60297191Y-93024333D01*
X60392429Y-93071952D01*
X60440048Y-93119571D01*
X60487667Y-93214810D01*
X60487667Y-93452905D01*
X60440048Y-93548143D01*
X60392429Y-93595762D01*
X60297191Y-93643381D01*
X60059095Y-93643381D01*
X59963857Y-93595762D01*
X59916238Y-93548143D01*
X59559867Y-86891881D02*
X59559867Y-87606167D01*
X59512247Y-87749024D01*
X59417009Y-87844262D01*
X59274152Y-87891881D01*
X59178914Y-87891881D01*
X60464629Y-86891881D02*
X60274152Y-86891881D01*
X60178914Y-86939500D01*
X60131295Y-86987119D01*
X60036057Y-87129976D01*
X59988438Y-87320452D01*
X59988438Y-87701405D01*
X60036057Y-87796643D01*
X60083676Y-87844262D01*
X60178914Y-87891881D01*
X60369391Y-87891881D01*
X60464629Y-87844262D01*
X60512248Y-87796643D01*
X60559867Y-87701405D01*
X60559867Y-87463310D01*
X60512248Y-87368071D01*
X60464629Y-87320452D01*
X60369391Y-87272833D01*
X60178914Y-87272833D01*
X60083676Y-87320452D01*
X60036057Y-87368071D01*
X59988438Y-87463310D01*
X68833381Y-113450666D02*
X68357190Y-113784000D01*
X68833381Y-114022095D02*
X67833381Y-114022095D01*
X67833381Y-113641142D01*
X67881000Y-113545904D01*
X67928619Y-113498285D01*
X68023857Y-113450666D01*
X68166714Y-113450666D01*
X68261952Y-113498285D01*
X68309571Y-113545904D01*
X68357190Y-113641142D01*
X68357190Y-114022095D01*
X68833381Y-112498285D02*
X68833381Y-113069714D01*
X68833381Y-112784000D02*
X67833381Y-112784000D01*
X67976238Y-112879238D01*
X68071476Y-112974476D01*
X68119095Y-113069714D01*
X76414334Y-125746381D02*
X76081000Y-125270190D01*
X75842905Y-125746381D02*
X75842905Y-124746381D01*
X76223858Y-124746381D01*
X76319096Y-124794000D01*
X76366715Y-124841619D01*
X76414334Y-124936857D01*
X76414334Y-125079714D01*
X76366715Y-125174952D01*
X76319096Y-125222571D01*
X76223858Y-125270190D01*
X75842905Y-125270190D01*
X76795286Y-124841619D02*
X76842905Y-124794000D01*
X76938143Y-124746381D01*
X77176239Y-124746381D01*
X77271477Y-124794000D01*
X77319096Y-124841619D01*
X77366715Y-124936857D01*
X77366715Y-125032095D01*
X77319096Y-125174952D01*
X76747667Y-125746381D01*
X77366715Y-125746381D01*
X80284581Y-113488766D02*
X79808390Y-113822100D01*
X80284581Y-114060195D02*
X79284581Y-114060195D01*
X79284581Y-113679242D01*
X79332200Y-113584004D01*
X79379819Y-113536385D01*
X79475057Y-113488766D01*
X79617914Y-113488766D01*
X79713152Y-113536385D01*
X79760771Y-113584004D01*
X79808390Y-113679242D01*
X79808390Y-114060195D01*
X79284581Y-113155433D02*
X79284581Y-112536385D01*
X79665533Y-112869719D01*
X79665533Y-112726861D01*
X79713152Y-112631623D01*
X79760771Y-112584004D01*
X79856010Y-112536385D01*
X80094105Y-112536385D01*
X80189343Y-112584004D01*
X80236962Y-112631623D01*
X80284581Y-112726861D01*
X80284581Y-113012576D01*
X80236962Y-113107814D01*
X80189343Y-113155433D01*
X94194334Y-122046381D02*
X93861000Y-121570190D01*
X93622905Y-122046381D02*
X93622905Y-121046381D01*
X94003858Y-121046381D01*
X94099096Y-121094000D01*
X94146715Y-121141619D01*
X94194334Y-121236857D01*
X94194334Y-121379714D01*
X94146715Y-121474952D01*
X94099096Y-121522571D01*
X94003858Y-121570190D01*
X93622905Y-121570190D01*
X95051477Y-121379714D02*
X95051477Y-122046381D01*
X94813381Y-120998762D02*
X94575286Y-121713048D01*
X95194334Y-121713048D01*
X103084334Y-125746381D02*
X102751000Y-125270190D01*
X102512905Y-125746381D02*
X102512905Y-124746381D01*
X102893858Y-124746381D01*
X102989096Y-124794000D01*
X103036715Y-124841619D01*
X103084334Y-124936857D01*
X103084334Y-125079714D01*
X103036715Y-125174952D01*
X102989096Y-125222571D01*
X102893858Y-125270190D01*
X102512905Y-125270190D01*
X103989096Y-124746381D02*
X103512905Y-124746381D01*
X103465286Y-125222571D01*
X103512905Y-125174952D01*
X103608143Y-125127333D01*
X103846239Y-125127333D01*
X103941477Y-125174952D01*
X103989096Y-125222571D01*
X104036715Y-125317810D01*
X104036715Y-125555905D01*
X103989096Y-125651143D01*
X103941477Y-125698762D01*
X103846239Y-125746381D01*
X103608143Y-125746381D01*
X103512905Y-125698762D01*
X103465286Y-125651143D01*
X77684334Y-118236381D02*
X77351000Y-117760190D01*
X77112905Y-118236381D02*
X77112905Y-117236381D01*
X77493858Y-117236381D01*
X77589096Y-117284000D01*
X77636715Y-117331619D01*
X77684334Y-117426857D01*
X77684334Y-117569714D01*
X77636715Y-117664952D01*
X77589096Y-117712571D01*
X77493858Y-117760190D01*
X77112905Y-117760190D01*
X78541477Y-117236381D02*
X78351000Y-117236381D01*
X78255762Y-117284000D01*
X78208143Y-117331619D01*
X78112905Y-117474476D01*
X78065286Y-117664952D01*
X78065286Y-118045905D01*
X78112905Y-118141143D01*
X78160524Y-118188762D01*
X78255762Y-118236381D01*
X78446239Y-118236381D01*
X78541477Y-118188762D01*
X78589096Y-118141143D01*
X78636715Y-118045905D01*
X78636715Y-117807810D01*
X78589096Y-117712571D01*
X78541477Y-117664952D01*
X78446239Y-117617333D01*
X78255762Y-117617333D01*
X78160524Y-117664952D01*
X78112905Y-117712571D01*
X78065286Y-117807810D01*
X103084334Y-121936381D02*
X102751000Y-121460190D01*
X102512905Y-121936381D02*
X102512905Y-120936381D01*
X102893858Y-120936381D01*
X102989096Y-120984000D01*
X103036715Y-121031619D01*
X103084334Y-121126857D01*
X103084334Y-121269714D01*
X103036715Y-121364952D01*
X102989096Y-121412571D01*
X102893858Y-121460190D01*
X102512905Y-121460190D01*
X103417667Y-120936381D02*
X104084334Y-120936381D01*
X103655762Y-121936381D01*
X114443381Y-113450666D02*
X113967190Y-113784000D01*
X114443381Y-114022095D02*
X113443381Y-114022095D01*
X113443381Y-113641142D01*
X113491000Y-113545904D01*
X113538619Y-113498285D01*
X113633857Y-113450666D01*
X113776714Y-113450666D01*
X113871952Y-113498285D01*
X113919571Y-113545904D01*
X113967190Y-113641142D01*
X113967190Y-114022095D01*
X113871952Y-112879238D02*
X113824333Y-112974476D01*
X113776714Y-113022095D01*
X113681476Y-113069714D01*
X113633857Y-113069714D01*
X113538619Y-113022095D01*
X113491000Y-112974476D01*
X113443381Y-112879238D01*
X113443381Y-112688761D01*
X113491000Y-112593523D01*
X113538619Y-112545904D01*
X113633857Y-112498285D01*
X113681476Y-112498285D01*
X113776714Y-112545904D01*
X113824333Y-112593523D01*
X113871952Y-112688761D01*
X113871952Y-112879238D01*
X113919571Y-112974476D01*
X113967190Y-113022095D01*
X114062429Y-113069714D01*
X114252905Y-113069714D01*
X114348143Y-113022095D01*
X114395762Y-112974476D01*
X114443381Y-112879238D01*
X114443381Y-112688761D01*
X114395762Y-112593523D01*
X114348143Y-112545904D01*
X114252905Y-112498285D01*
X114062429Y-112498285D01*
X113967190Y-112545904D01*
X113919571Y-112593523D01*
X113871952Y-112688761D01*
X111974334Y-121936381D02*
X111641000Y-121460190D01*
X111402905Y-121936381D02*
X111402905Y-120936381D01*
X111783858Y-120936381D01*
X111879096Y-120984000D01*
X111926715Y-121031619D01*
X111974334Y-121126857D01*
X111974334Y-121269714D01*
X111926715Y-121364952D01*
X111879096Y-121412571D01*
X111783858Y-121460190D01*
X111402905Y-121460190D01*
X112450524Y-121936381D02*
X112641000Y-121936381D01*
X112736239Y-121888762D01*
X112783858Y-121841143D01*
X112879096Y-121698286D01*
X112926715Y-121507810D01*
X112926715Y-121126857D01*
X112879096Y-121031619D01*
X112831477Y-120984000D01*
X112736239Y-120936381D01*
X112545762Y-120936381D01*
X112450524Y-120984000D01*
X112402905Y-121031619D01*
X112355286Y-121126857D01*
X112355286Y-121364952D01*
X112402905Y-121460190D01*
X112450524Y-121507810D01*
X112545762Y-121555429D01*
X112736239Y-121555429D01*
X112831477Y-121507810D01*
X112879096Y-121460190D01*
X112926715Y-121364952D01*
X111498143Y-125746381D02*
X111164809Y-125270190D01*
X110926714Y-125746381D02*
X110926714Y-124746381D01*
X111307667Y-124746381D01*
X111402905Y-124794000D01*
X111450524Y-124841619D01*
X111498143Y-124936857D01*
X111498143Y-125079714D01*
X111450524Y-125174952D01*
X111402905Y-125222571D01*
X111307667Y-125270190D01*
X110926714Y-125270190D01*
X112450524Y-125746381D02*
X111879095Y-125746381D01*
X112164809Y-125746381D02*
X112164809Y-124746381D01*
X112069571Y-124889238D01*
X111974333Y-124984476D01*
X111879095Y-125032095D01*
X113069571Y-124746381D02*
X113164810Y-124746381D01*
X113260048Y-124794000D01*
X113307667Y-124841619D01*
X113355286Y-124936857D01*
X113402905Y-125127333D01*
X113402905Y-125365429D01*
X113355286Y-125555905D01*
X113307667Y-125651143D01*
X113260048Y-125698762D01*
X113164810Y-125746381D01*
X113069571Y-125746381D01*
X112974333Y-125698762D01*
X112926714Y-125651143D01*
X112879095Y-125555905D01*
X112831476Y-125365429D01*
X112831476Y-125127333D01*
X112879095Y-124936857D01*
X112926714Y-124841619D01*
X112974333Y-124794000D01*
X113069571Y-124746381D01*
X83963381Y-113926857D02*
X83487190Y-114260191D01*
X83963381Y-114498286D02*
X82963381Y-114498286D01*
X82963381Y-114117333D01*
X83011000Y-114022095D01*
X83058619Y-113974476D01*
X83153857Y-113926857D01*
X83296714Y-113926857D01*
X83391952Y-113974476D01*
X83439571Y-114022095D01*
X83487190Y-114117333D01*
X83487190Y-114498286D01*
X83963381Y-112974476D02*
X83963381Y-113545905D01*
X83963381Y-113260191D02*
X82963381Y-113260191D01*
X83106238Y-113355429D01*
X83201476Y-113450667D01*
X83249095Y-113545905D01*
X83963381Y-112022095D02*
X83963381Y-112593524D01*
X83963381Y-112307810D02*
X82963381Y-112307810D01*
X83106238Y-112403048D01*
X83201476Y-112498286D01*
X83249095Y-112593524D01*
X110743381Y-95003857D02*
X110267190Y-95337191D01*
X110743381Y-95575286D02*
X109743381Y-95575286D01*
X109743381Y-95194333D01*
X109791000Y-95099095D01*
X109838619Y-95051476D01*
X109933857Y-95003857D01*
X110076714Y-95003857D01*
X110171952Y-95051476D01*
X110219571Y-95099095D01*
X110267190Y-95194333D01*
X110267190Y-95575286D01*
X110743381Y-94051476D02*
X110743381Y-94622905D01*
X110743381Y-94337191D02*
X109743381Y-94337191D01*
X109886238Y-94432429D01*
X109981476Y-94527667D01*
X110029095Y-94622905D01*
X109838619Y-93670524D02*
X109791000Y-93622905D01*
X109743381Y-93527667D01*
X109743381Y-93289571D01*
X109791000Y-93194333D01*
X109838619Y-93146714D01*
X109933857Y-93099095D01*
X110029095Y-93099095D01*
X110171952Y-93146714D01*
X110743381Y-93718143D01*
X110743381Y-93099095D01*
X84407881Y-75890357D02*
X83931690Y-76223691D01*
X84407881Y-76461786D02*
X83407881Y-76461786D01*
X83407881Y-76080833D01*
X83455500Y-75985595D01*
X83503119Y-75937976D01*
X83598357Y-75890357D01*
X83741214Y-75890357D01*
X83836452Y-75937976D01*
X83884071Y-75985595D01*
X83931690Y-76080833D01*
X83931690Y-76461786D01*
X84407881Y-74937976D02*
X84407881Y-75509405D01*
X84407881Y-75223691D02*
X83407881Y-75223691D01*
X83550738Y-75318929D01*
X83645976Y-75414167D01*
X83693595Y-75509405D01*
X83407881Y-74604643D02*
X83407881Y-73985595D01*
X83788833Y-74318929D01*
X83788833Y-74176071D01*
X83836452Y-74080833D01*
X83884071Y-74033214D01*
X83979310Y-73985595D01*
X84217405Y-73985595D01*
X84312643Y-74033214D01*
X84360262Y-74080833D01*
X84407881Y-74176071D01*
X84407881Y-74461786D01*
X84360262Y-74557024D01*
X84312643Y-74604643D01*
X77208143Y-99313381D02*
X76874809Y-98837190D01*
X76636714Y-99313381D02*
X76636714Y-98313381D01*
X77017667Y-98313381D01*
X77112905Y-98361000D01*
X77160524Y-98408619D01*
X77208143Y-98503857D01*
X77208143Y-98646714D01*
X77160524Y-98741952D01*
X77112905Y-98789571D01*
X77017667Y-98837190D01*
X76636714Y-98837190D01*
X78160524Y-99313381D02*
X77589095Y-99313381D01*
X77874809Y-99313381D02*
X77874809Y-98313381D01*
X77779571Y-98456238D01*
X77684333Y-98551476D01*
X77589095Y-98599095D01*
X79017667Y-98646714D02*
X79017667Y-99313381D01*
X78779571Y-98265762D02*
X78541476Y-98980048D01*
X79160524Y-98980048D01*
X77652643Y-80199881D02*
X77319309Y-79723690D01*
X77081214Y-80199881D02*
X77081214Y-79199881D01*
X77462167Y-79199881D01*
X77557405Y-79247500D01*
X77605024Y-79295119D01*
X77652643Y-79390357D01*
X77652643Y-79533214D01*
X77605024Y-79628452D01*
X77557405Y-79676071D01*
X77462167Y-79723690D01*
X77081214Y-79723690D01*
X78605024Y-80199881D02*
X78033595Y-80199881D01*
X78319309Y-80199881D02*
X78319309Y-79199881D01*
X78224071Y-79342738D01*
X78128833Y-79437976D01*
X78033595Y-79485595D01*
X79509786Y-79199881D02*
X79033595Y-79199881D01*
X78985976Y-79676071D01*
X79033595Y-79628452D01*
X79128833Y-79580833D01*
X79366929Y-79580833D01*
X79462167Y-79628452D01*
X79509786Y-79676071D01*
X79557405Y-79771310D01*
X79557405Y-80009405D01*
X79509786Y-80104643D01*
X79462167Y-80152262D01*
X79366929Y-80199881D01*
X79128833Y-80199881D01*
X79033595Y-80152262D01*
X78985976Y-80104643D01*
X76453381Y-95003857D02*
X75977190Y-95337191D01*
X76453381Y-95575286D02*
X75453381Y-95575286D01*
X75453381Y-95194333D01*
X75501000Y-95099095D01*
X75548619Y-95051476D01*
X75643857Y-95003857D01*
X75786714Y-95003857D01*
X75881952Y-95051476D01*
X75929571Y-95099095D01*
X75977190Y-95194333D01*
X75977190Y-95575286D01*
X76453381Y-94051476D02*
X76453381Y-94622905D01*
X76453381Y-94337191D02*
X75453381Y-94337191D01*
X75596238Y-94432429D01*
X75691476Y-94527667D01*
X75739095Y-94622905D01*
X75453381Y-93194333D02*
X75453381Y-93384810D01*
X75501000Y-93480048D01*
X75548619Y-93527667D01*
X75691476Y-93622905D01*
X75881952Y-93670524D01*
X76262905Y-93670524D01*
X76358143Y-93622905D01*
X76405762Y-93575286D01*
X76453381Y-93480048D01*
X76453381Y-93289571D01*
X76405762Y-93194333D01*
X76358143Y-93146714D01*
X76262905Y-93099095D01*
X76024810Y-93099095D01*
X75929571Y-93146714D01*
X75881952Y-93194333D01*
X75834333Y-93289571D01*
X75834333Y-93480048D01*
X75881952Y-93575286D01*
X75929571Y-93622905D01*
X76024810Y-93670524D01*
X103052643Y-80199881D02*
X102719309Y-79723690D01*
X102481214Y-80199881D02*
X102481214Y-79199881D01*
X102862167Y-79199881D01*
X102957405Y-79247500D01*
X103005024Y-79295119D01*
X103052643Y-79390357D01*
X103052643Y-79533214D01*
X103005024Y-79628452D01*
X102957405Y-79676071D01*
X102862167Y-79723690D01*
X102481214Y-79723690D01*
X104005024Y-80199881D02*
X103433595Y-80199881D01*
X103719309Y-80199881D02*
X103719309Y-79199881D01*
X103624071Y-79342738D01*
X103528833Y-79437976D01*
X103433595Y-79485595D01*
X104338357Y-79199881D02*
X105005024Y-79199881D01*
X104576452Y-80199881D01*
X93591143Y-107068881D02*
X93257809Y-106592690D01*
X93019714Y-107068881D02*
X93019714Y-106068881D01*
X93400667Y-106068881D01*
X93495905Y-106116500D01*
X93543524Y-106164119D01*
X93591143Y-106259357D01*
X93591143Y-106402214D01*
X93543524Y-106497452D01*
X93495905Y-106545071D01*
X93400667Y-106592690D01*
X93019714Y-106592690D01*
X94543524Y-107068881D02*
X93972095Y-107068881D01*
X94257809Y-107068881D02*
X94257809Y-106068881D01*
X94162571Y-106211738D01*
X94067333Y-106306976D01*
X93972095Y-106354595D01*
X95114952Y-106497452D02*
X95019714Y-106449833D01*
X94972095Y-106402214D01*
X94924476Y-106306976D01*
X94924476Y-106259357D01*
X94972095Y-106164119D01*
X95019714Y-106116500D01*
X95114952Y-106068881D01*
X95305429Y-106068881D01*
X95400667Y-106116500D01*
X95448286Y-106164119D01*
X95495905Y-106259357D01*
X95495905Y-106306976D01*
X95448286Y-106402214D01*
X95400667Y-106449833D01*
X95305429Y-106497452D01*
X95114952Y-106497452D01*
X95019714Y-106545071D01*
X94972095Y-106592690D01*
X94924476Y-106687929D01*
X94924476Y-106878405D01*
X94972095Y-106973643D01*
X95019714Y-107021262D01*
X95114952Y-107068881D01*
X95305429Y-107068881D01*
X95400667Y-107021262D01*
X95448286Y-106973643D01*
X95495905Y-106878405D01*
X95495905Y-106687929D01*
X95448286Y-106592690D01*
X95400667Y-106545071D01*
X95305429Y-106497452D01*
X102608143Y-106823381D02*
X102274809Y-106347190D01*
X102036714Y-106823381D02*
X102036714Y-105823381D01*
X102417667Y-105823381D01*
X102512905Y-105871000D01*
X102560524Y-105918619D01*
X102608143Y-106013857D01*
X102608143Y-106156714D01*
X102560524Y-106251952D01*
X102512905Y-106299571D01*
X102417667Y-106347190D01*
X102036714Y-106347190D01*
X103560524Y-106823381D02*
X102989095Y-106823381D01*
X103274809Y-106823381D02*
X103274809Y-105823381D01*
X103179571Y-105966238D01*
X103084333Y-106061476D01*
X102989095Y-106109095D01*
X104036714Y-106823381D02*
X104227190Y-106823381D01*
X104322429Y-106775762D01*
X104370048Y-106728143D01*
X104465286Y-106585286D01*
X104512905Y-106394810D01*
X104512905Y-106013857D01*
X104465286Y-105918619D01*
X104417667Y-105871000D01*
X104322429Y-105823381D01*
X104131952Y-105823381D01*
X104036714Y-105871000D01*
X103989095Y-105918619D01*
X103941476Y-106013857D01*
X103941476Y-106251952D01*
X103989095Y-106347190D01*
X104036714Y-106394810D01*
X104131952Y-106442429D01*
X104322429Y-106442429D01*
X104417667Y-106394810D01*
X104465286Y-106347190D01*
X104512905Y-106251952D01*
X69277881Y-75890357D02*
X68801690Y-76223691D01*
X69277881Y-76461786D02*
X68277881Y-76461786D01*
X68277881Y-76080833D01*
X68325500Y-75985595D01*
X68373119Y-75937976D01*
X68468357Y-75890357D01*
X68611214Y-75890357D01*
X68706452Y-75937976D01*
X68754071Y-75985595D01*
X68801690Y-76080833D01*
X68801690Y-76461786D01*
X68373119Y-75509405D02*
X68325500Y-75461786D01*
X68277881Y-75366548D01*
X68277881Y-75128452D01*
X68325500Y-75033214D01*
X68373119Y-74985595D01*
X68468357Y-74937976D01*
X68563595Y-74937976D01*
X68706452Y-74985595D01*
X69277881Y-75557024D01*
X69277881Y-74937976D01*
X68277881Y-74318929D02*
X68277881Y-74223690D01*
X68325500Y-74128452D01*
X68373119Y-74080833D01*
X68468357Y-74033214D01*
X68658833Y-73985595D01*
X68896929Y-73985595D01*
X69087405Y-74033214D01*
X69182643Y-74080833D01*
X69230262Y-74128452D01*
X69277881Y-74223690D01*
X69277881Y-74318929D01*
X69230262Y-74414167D01*
X69182643Y-74461786D01*
X69087405Y-74509405D01*
X68896929Y-74557024D01*
X68658833Y-74557024D01*
X68468357Y-74509405D01*
X68373119Y-74461786D01*
X68325500Y-74414167D01*
X68277881Y-74318929D01*
X76897881Y-75890357D02*
X76421690Y-76223691D01*
X76897881Y-76461786D02*
X75897881Y-76461786D01*
X75897881Y-76080833D01*
X75945500Y-75985595D01*
X75993119Y-75937976D01*
X76088357Y-75890357D01*
X76231214Y-75890357D01*
X76326452Y-75937976D01*
X76374071Y-75985595D01*
X76421690Y-76080833D01*
X76421690Y-76461786D01*
X75993119Y-75509405D02*
X75945500Y-75461786D01*
X75897881Y-75366548D01*
X75897881Y-75128452D01*
X75945500Y-75033214D01*
X75993119Y-74985595D01*
X76088357Y-74937976D01*
X76183595Y-74937976D01*
X76326452Y-74985595D01*
X76897881Y-75557024D01*
X76897881Y-74937976D01*
X76897881Y-73985595D02*
X76897881Y-74557024D01*
X76897881Y-74271310D02*
X75897881Y-74271310D01*
X76040738Y-74366548D01*
X76135976Y-74461786D01*
X76183595Y-74557024D01*
X102608143Y-99313381D02*
X102274809Y-98837190D01*
X102036714Y-99313381D02*
X102036714Y-98313381D01*
X102417667Y-98313381D01*
X102512905Y-98361000D01*
X102560524Y-98408619D01*
X102608143Y-98503857D01*
X102608143Y-98646714D01*
X102560524Y-98741952D01*
X102512905Y-98789571D01*
X102417667Y-98837190D01*
X102036714Y-98837190D01*
X102989095Y-98408619D02*
X103036714Y-98361000D01*
X103131952Y-98313381D01*
X103370048Y-98313381D01*
X103465286Y-98361000D01*
X103512905Y-98408619D01*
X103560524Y-98503857D01*
X103560524Y-98599095D01*
X103512905Y-98741952D01*
X102941476Y-99313381D01*
X103560524Y-99313381D01*
X103941476Y-98408619D02*
X103989095Y-98361000D01*
X104084333Y-98313381D01*
X104322429Y-98313381D01*
X104417667Y-98361000D01*
X104465286Y-98408619D01*
X104512905Y-98503857D01*
X104512905Y-98599095D01*
X104465286Y-98741952D01*
X103893857Y-99313381D01*
X104512905Y-99313381D01*
X77652643Y-87709881D02*
X77319309Y-87233690D01*
X77081214Y-87709881D02*
X77081214Y-86709881D01*
X77462167Y-86709881D01*
X77557405Y-86757500D01*
X77605024Y-86805119D01*
X77652643Y-86900357D01*
X77652643Y-87043214D01*
X77605024Y-87138452D01*
X77557405Y-87186071D01*
X77462167Y-87233690D01*
X77081214Y-87233690D01*
X78033595Y-86805119D02*
X78081214Y-86757500D01*
X78176452Y-86709881D01*
X78414548Y-86709881D01*
X78509786Y-86757500D01*
X78557405Y-86805119D01*
X78605024Y-86900357D01*
X78605024Y-86995595D01*
X78557405Y-87138452D01*
X77985976Y-87709881D01*
X78605024Y-87709881D01*
X78938357Y-86709881D02*
X79557405Y-86709881D01*
X79224071Y-87090833D01*
X79366929Y-87090833D01*
X79462167Y-87138452D01*
X79509786Y-87186071D01*
X79557405Y-87281310D01*
X79557405Y-87519405D01*
X79509786Y-87614643D01*
X79462167Y-87662262D01*
X79366929Y-87709881D01*
X79081214Y-87709881D01*
X78985976Y-87662262D01*
X78938357Y-87614643D01*
X77208143Y-106823381D02*
X76874809Y-106347190D01*
X76636714Y-106823381D02*
X76636714Y-105823381D01*
X77017667Y-105823381D01*
X77112905Y-105871000D01*
X77160524Y-105918619D01*
X77208143Y-106013857D01*
X77208143Y-106156714D01*
X77160524Y-106251952D01*
X77112905Y-106299571D01*
X77017667Y-106347190D01*
X76636714Y-106347190D01*
X77589095Y-105918619D02*
X77636714Y-105871000D01*
X77731952Y-105823381D01*
X77970048Y-105823381D01*
X78065286Y-105871000D01*
X78112905Y-105918619D01*
X78160524Y-106013857D01*
X78160524Y-106109095D01*
X78112905Y-106251952D01*
X77541476Y-106823381D01*
X78160524Y-106823381D01*
X79017667Y-106156714D02*
X79017667Y-106823381D01*
X78779571Y-105775762D02*
X78541476Y-106490048D01*
X79160524Y-106490048D01*
X111815643Y-87853781D02*
X111482309Y-87377590D01*
X111244214Y-87853781D02*
X111244214Y-86853781D01*
X111625167Y-86853781D01*
X111720405Y-86901400D01*
X111768024Y-86949019D01*
X111815643Y-87044257D01*
X111815643Y-87187114D01*
X111768024Y-87282352D01*
X111720405Y-87329971D01*
X111625167Y-87377590D01*
X111244214Y-87377590D01*
X112196595Y-86949019D02*
X112244214Y-86901400D01*
X112339452Y-86853781D01*
X112577548Y-86853781D01*
X112672786Y-86901400D01*
X112720405Y-86949019D01*
X112768024Y-87044257D01*
X112768024Y-87139495D01*
X112720405Y-87282352D01*
X112148976Y-87853781D01*
X112768024Y-87853781D01*
X113672786Y-86853781D02*
X113196595Y-86853781D01*
X113148976Y-87329971D01*
X113196595Y-87282352D01*
X113291833Y-87234733D01*
X113529929Y-87234733D01*
X113625167Y-87282352D01*
X113672786Y-87329971D01*
X113720405Y-87425210D01*
X113720405Y-87663305D01*
X113672786Y-87758543D01*
X113625167Y-87806162D01*
X113529929Y-87853781D01*
X113291833Y-87853781D01*
X113196595Y-87806162D01*
X113148976Y-87758543D01*
X72533381Y-95003857D02*
X72057190Y-95337191D01*
X72533381Y-95575286D02*
X71533381Y-95575286D01*
X71533381Y-95194333D01*
X71581000Y-95099095D01*
X71628619Y-95051476D01*
X71723857Y-95003857D01*
X71866714Y-95003857D01*
X71961952Y-95051476D01*
X72009571Y-95099095D01*
X72057190Y-95194333D01*
X72057190Y-95575286D01*
X71628619Y-94622905D02*
X71581000Y-94575286D01*
X71533381Y-94480048D01*
X71533381Y-94241952D01*
X71581000Y-94146714D01*
X71628619Y-94099095D01*
X71723857Y-94051476D01*
X71819095Y-94051476D01*
X71961952Y-94099095D01*
X72533381Y-94670524D01*
X72533381Y-94051476D01*
X71533381Y-93194333D02*
X71533381Y-93384810D01*
X71581000Y-93480048D01*
X71628619Y-93527667D01*
X71771476Y-93622905D01*
X71961952Y-93670524D01*
X72342905Y-93670524D01*
X72438143Y-93622905D01*
X72485762Y-93575286D01*
X72533381Y-93480048D01*
X72533381Y-93289571D01*
X72485762Y-93194333D01*
X72438143Y-93146714D01*
X72342905Y-93099095D01*
X72104810Y-93099095D01*
X72009571Y-93146714D01*
X71961952Y-93194333D01*
X71914333Y-93289571D01*
X71914333Y-93480048D01*
X71961952Y-93575286D01*
X72009571Y-93622905D01*
X72104810Y-93670524D01*
X111396543Y-106891081D02*
X111063209Y-106414890D01*
X110825114Y-106891081D02*
X110825114Y-105891081D01*
X111206067Y-105891081D01*
X111301305Y-105938700D01*
X111348924Y-105986319D01*
X111396543Y-106081557D01*
X111396543Y-106224414D01*
X111348924Y-106319652D01*
X111301305Y-106367271D01*
X111206067Y-106414890D01*
X110825114Y-106414890D01*
X111777495Y-105986319D02*
X111825114Y-105938700D01*
X111920352Y-105891081D01*
X112158448Y-105891081D01*
X112253686Y-105938700D01*
X112301305Y-105986319D01*
X112348924Y-106081557D01*
X112348924Y-106176795D01*
X112301305Y-106319652D01*
X111729876Y-106891081D01*
X112348924Y-106891081D01*
X112682257Y-105891081D02*
X113348924Y-105891081D01*
X112920352Y-106891081D01*
X114993681Y-75928457D02*
X114517490Y-76261791D01*
X114993681Y-76499886D02*
X113993681Y-76499886D01*
X113993681Y-76118933D01*
X114041300Y-76023695D01*
X114088919Y-75976076D01*
X114184157Y-75928457D01*
X114327014Y-75928457D01*
X114422252Y-75976076D01*
X114469871Y-76023695D01*
X114517490Y-76118933D01*
X114517490Y-76499886D01*
X114088919Y-75547505D02*
X114041300Y-75499886D01*
X113993681Y-75404648D01*
X113993681Y-75166552D01*
X114041300Y-75071314D01*
X114088919Y-75023695D01*
X114184157Y-74976076D01*
X114279395Y-74976076D01*
X114422252Y-75023695D01*
X114993681Y-75595124D01*
X114993681Y-74976076D01*
X114422252Y-74404648D02*
X114374633Y-74499886D01*
X114327014Y-74547505D01*
X114231776Y-74595124D01*
X114184157Y-74595124D01*
X114088919Y-74547505D01*
X114041300Y-74499886D01*
X113993681Y-74404648D01*
X113993681Y-74214171D01*
X114041300Y-74118933D01*
X114088919Y-74071314D01*
X114184157Y-74023695D01*
X114231776Y-74023695D01*
X114327014Y-74071314D01*
X114374633Y-74118933D01*
X114422252Y-74214171D01*
X114422252Y-74404648D01*
X114469871Y-74499886D01*
X114517490Y-74547505D01*
X114612729Y-74595124D01*
X114803205Y-74595124D01*
X114898443Y-74547505D01*
X114946062Y-74499886D01*
X114993681Y-74404648D01*
X114993681Y-74214171D01*
X114946062Y-74118933D01*
X114898443Y-74071314D01*
X114803205Y-74023695D01*
X114612729Y-74023695D01*
X114517490Y-74071314D01*
X114469871Y-74118933D01*
X114422252Y-74214171D01*
X103052643Y-87709881D02*
X102719309Y-87233690D01*
X102481214Y-87709881D02*
X102481214Y-86709881D01*
X102862167Y-86709881D01*
X102957405Y-86757500D01*
X103005024Y-86805119D01*
X103052643Y-86900357D01*
X103052643Y-87043214D01*
X103005024Y-87138452D01*
X102957405Y-87186071D01*
X102862167Y-87233690D01*
X102481214Y-87233690D01*
X103433595Y-86805119D02*
X103481214Y-86757500D01*
X103576452Y-86709881D01*
X103814548Y-86709881D01*
X103909786Y-86757500D01*
X103957405Y-86805119D01*
X104005024Y-86900357D01*
X104005024Y-86995595D01*
X103957405Y-87138452D01*
X103385976Y-87709881D01*
X104005024Y-87709881D01*
X104481214Y-87709881D02*
X104671690Y-87709881D01*
X104766929Y-87662262D01*
X104814548Y-87614643D01*
X104909786Y-87471786D01*
X104957405Y-87281310D01*
X104957405Y-86900357D01*
X104909786Y-86805119D01*
X104862167Y-86757500D01*
X104766929Y-86709881D01*
X104576452Y-86709881D01*
X104481214Y-86757500D01*
X104433595Y-86805119D01*
X104385976Y-86900357D01*
X104385976Y-87138452D01*
X104433595Y-87233690D01*
X104481214Y-87281310D01*
X104576452Y-87328929D01*
X104766929Y-87328929D01*
X104862167Y-87281310D01*
X104909786Y-87233690D01*
X104957405Y-87138452D01*
X111498143Y-103013381D02*
X111164809Y-102537190D01*
X110926714Y-103013381D02*
X110926714Y-102013381D01*
X111307667Y-102013381D01*
X111402905Y-102061000D01*
X111450524Y-102108619D01*
X111498143Y-102203857D01*
X111498143Y-102346714D01*
X111450524Y-102441952D01*
X111402905Y-102489571D01*
X111307667Y-102537190D01*
X110926714Y-102537190D01*
X111831476Y-102013381D02*
X112450524Y-102013381D01*
X112117190Y-102394333D01*
X112260048Y-102394333D01*
X112355286Y-102441952D01*
X112402905Y-102489571D01*
X112450524Y-102584810D01*
X112450524Y-102822905D01*
X112402905Y-102918143D01*
X112355286Y-102965762D01*
X112260048Y-103013381D01*
X111974333Y-103013381D01*
X111879095Y-102965762D01*
X111831476Y-102918143D01*
X113069571Y-102013381D02*
X113164810Y-102013381D01*
X113260048Y-102061000D01*
X113307667Y-102108619D01*
X113355286Y-102203857D01*
X113402905Y-102394333D01*
X113402905Y-102632429D01*
X113355286Y-102822905D01*
X113307667Y-102918143D01*
X113260048Y-102965762D01*
X113164810Y-103013381D01*
X113069571Y-103013381D01*
X112974333Y-102965762D01*
X112926714Y-102918143D01*
X112879095Y-102822905D01*
X112831476Y-102632429D01*
X112831476Y-102394333D01*
X112879095Y-102203857D01*
X112926714Y-102108619D01*
X112974333Y-102061000D01*
X113069571Y-102013381D01*
X111968043Y-80157581D02*
X111634709Y-79681390D01*
X111396614Y-80157581D02*
X111396614Y-79157581D01*
X111777567Y-79157581D01*
X111872805Y-79205200D01*
X111920424Y-79252819D01*
X111968043Y-79348057D01*
X111968043Y-79490914D01*
X111920424Y-79586152D01*
X111872805Y-79633771D01*
X111777567Y-79681390D01*
X111396614Y-79681390D01*
X112301376Y-79157581D02*
X112920424Y-79157581D01*
X112587090Y-79538533D01*
X112729948Y-79538533D01*
X112825186Y-79586152D01*
X112872805Y-79633771D01*
X112920424Y-79729010D01*
X112920424Y-79967105D01*
X112872805Y-80062343D01*
X112825186Y-80109962D01*
X112729948Y-80157581D01*
X112444233Y-80157581D01*
X112348995Y-80109962D01*
X112301376Y-80062343D01*
X113872805Y-80157581D02*
X113301376Y-80157581D01*
X113587090Y-80157581D02*
X113587090Y-79157581D01*
X113491852Y-79300438D01*
X113396614Y-79395676D01*
X113301376Y-79443295D01*
X83963381Y-95003857D02*
X83487190Y-95337191D01*
X83963381Y-95575286D02*
X82963381Y-95575286D01*
X82963381Y-95194333D01*
X83011000Y-95099095D01*
X83058619Y-95051476D01*
X83153857Y-95003857D01*
X83296714Y-95003857D01*
X83391952Y-95051476D01*
X83439571Y-95099095D01*
X83487190Y-95194333D01*
X83487190Y-95575286D01*
X82963381Y-94670524D02*
X82963381Y-94051476D01*
X83344333Y-94384810D01*
X83344333Y-94241952D01*
X83391952Y-94146714D01*
X83439571Y-94099095D01*
X83534810Y-94051476D01*
X83772905Y-94051476D01*
X83868143Y-94099095D01*
X83915762Y-94146714D01*
X83963381Y-94241952D01*
X83963381Y-94527667D01*
X83915762Y-94622905D01*
X83868143Y-94670524D01*
X83058619Y-93670524D02*
X83011000Y-93622905D01*
X82963381Y-93527667D01*
X82963381Y-93289571D01*
X83011000Y-93194333D01*
X83058619Y-93146714D01*
X83153857Y-93099095D01*
X83249095Y-93099095D01*
X83391952Y-93146714D01*
X83963381Y-93718143D01*
X83963381Y-93099095D01*
X94162643Y-84009881D02*
X93829309Y-83533690D01*
X93591214Y-84009881D02*
X93591214Y-83009881D01*
X93972167Y-83009881D01*
X94067405Y-83057500D01*
X94115024Y-83105119D01*
X94162643Y-83200357D01*
X94162643Y-83343214D01*
X94115024Y-83438452D01*
X94067405Y-83486071D01*
X93972167Y-83533690D01*
X93591214Y-83533690D01*
X94495976Y-83009881D02*
X95115024Y-83009881D01*
X94781690Y-83390833D01*
X94924548Y-83390833D01*
X95019786Y-83438452D01*
X95067405Y-83486071D01*
X95115024Y-83581310D01*
X95115024Y-83819405D01*
X95067405Y-83914643D01*
X95019786Y-83962262D01*
X94924548Y-84009881D01*
X94638833Y-84009881D01*
X94543595Y-83962262D01*
X94495976Y-83914643D01*
X95448357Y-83009881D02*
X96067405Y-83009881D01*
X95734071Y-83390833D01*
X95876929Y-83390833D01*
X95972167Y-83438452D01*
X96019786Y-83486071D01*
X96067405Y-83581310D01*
X96067405Y-83819405D01*
X96019786Y-83914643D01*
X95972167Y-83962262D01*
X95876929Y-84009881D01*
X95591214Y-84009881D01*
X95495976Y-83962262D01*
X95448357Y-83914643D01*
X83707381Y-131134857D02*
X83231190Y-131468191D01*
X83707381Y-131706286D02*
X82707381Y-131706286D01*
X82707381Y-131325333D01*
X82755000Y-131230095D01*
X82802619Y-131182476D01*
X82897857Y-131134857D01*
X83040714Y-131134857D01*
X83135952Y-131182476D01*
X83183571Y-131230095D01*
X83231190Y-131325333D01*
X83231190Y-131706286D01*
X82707381Y-130801524D02*
X82707381Y-130182476D01*
X83088333Y-130515810D01*
X83088333Y-130372952D01*
X83135952Y-130277714D01*
X83183571Y-130230095D01*
X83278810Y-130182476D01*
X83516905Y-130182476D01*
X83612143Y-130230095D01*
X83659762Y-130277714D01*
X83707381Y-130372952D01*
X83707381Y-130658667D01*
X83659762Y-130753905D01*
X83612143Y-130801524D01*
X83040714Y-129325333D02*
X83707381Y-129325333D01*
X82659762Y-129563429D02*
X83374048Y-129801524D01*
X83374048Y-129182476D01*
X77262143Y-134344381D02*
X76928809Y-133868190D01*
X76690714Y-134344381D02*
X76690714Y-133344381D01*
X77071667Y-133344381D01*
X77166905Y-133392000D01*
X77214524Y-133439619D01*
X77262143Y-133534857D01*
X77262143Y-133677714D01*
X77214524Y-133772952D01*
X77166905Y-133820571D01*
X77071667Y-133868190D01*
X76690714Y-133868190D01*
X77595476Y-133344381D02*
X78214524Y-133344381D01*
X77881190Y-133725333D01*
X78024048Y-133725333D01*
X78119286Y-133772952D01*
X78166905Y-133820571D01*
X78214524Y-133915810D01*
X78214524Y-134153905D01*
X78166905Y-134249143D01*
X78119286Y-134296762D01*
X78024048Y-134344381D01*
X77738333Y-134344381D01*
X77643095Y-134296762D01*
X77595476Y-134249143D01*
X79119286Y-133344381D02*
X78643095Y-133344381D01*
X78595476Y-133820571D01*
X78643095Y-133772952D01*
X78738333Y-133725333D01*
X78976429Y-133725333D01*
X79071667Y-133772952D01*
X79119286Y-133820571D01*
X79166905Y-133915810D01*
X79166905Y-134153905D01*
X79119286Y-134249143D01*
X79071667Y-134296762D01*
X78976429Y-134344381D01*
X78738333Y-134344381D01*
X78643095Y-134296762D01*
X78595476Y-134249143D01*
X76707381Y-130944857D02*
X76231190Y-131278191D01*
X76707381Y-131516286D02*
X75707381Y-131516286D01*
X75707381Y-131135333D01*
X75755000Y-131040095D01*
X75802619Y-130992476D01*
X75897857Y-130944857D01*
X76040714Y-130944857D01*
X76135952Y-130992476D01*
X76183571Y-131040095D01*
X76231190Y-131135333D01*
X76231190Y-131516286D01*
X75707381Y-130611524D02*
X75707381Y-129992476D01*
X76088333Y-130325810D01*
X76088333Y-130182952D01*
X76135952Y-130087714D01*
X76183571Y-130040095D01*
X76278810Y-129992476D01*
X76516905Y-129992476D01*
X76612143Y-130040095D01*
X76659762Y-130087714D01*
X76707381Y-130182952D01*
X76707381Y-130468667D01*
X76659762Y-130563905D01*
X76612143Y-130611524D01*
X75707381Y-129135333D02*
X75707381Y-129325810D01*
X75755000Y-129421048D01*
X75802619Y-129468667D01*
X75945476Y-129563905D01*
X76135952Y-129611524D01*
X76516905Y-129611524D01*
X76612143Y-129563905D01*
X76659762Y-129516286D01*
X76707381Y-129421048D01*
X76707381Y-129230571D01*
X76659762Y-129135333D01*
X76612143Y-129087714D01*
X76516905Y-129040095D01*
X76278810Y-129040095D01*
X76183571Y-129087714D01*
X76135952Y-129135333D01*
X76088333Y-129230571D01*
X76088333Y-129421048D01*
X76135952Y-129516286D01*
X76183571Y-129563905D01*
X76278810Y-129611524D01*
X113207381Y-130884857D02*
X112731190Y-131218191D01*
X113207381Y-131456286D02*
X112207381Y-131456286D01*
X112207381Y-131075333D01*
X112255000Y-130980095D01*
X112302619Y-130932476D01*
X112397857Y-130884857D01*
X112540714Y-130884857D01*
X112635952Y-130932476D01*
X112683571Y-130980095D01*
X112731190Y-131075333D01*
X112731190Y-131456286D01*
X112207381Y-130551524D02*
X112207381Y-129932476D01*
X112588333Y-130265810D01*
X112588333Y-130122952D01*
X112635952Y-130027714D01*
X112683571Y-129980095D01*
X112778810Y-129932476D01*
X113016905Y-129932476D01*
X113112143Y-129980095D01*
X113159762Y-130027714D01*
X113207381Y-130122952D01*
X113207381Y-130408667D01*
X113159762Y-130503905D01*
X113112143Y-130551524D01*
X112207381Y-129599143D02*
X112207381Y-128932476D01*
X113207381Y-129361048D01*
X77012143Y-141044381D02*
X76678809Y-140568190D01*
X76440714Y-141044381D02*
X76440714Y-140044381D01*
X76821667Y-140044381D01*
X76916905Y-140092000D01*
X76964524Y-140139619D01*
X77012143Y-140234857D01*
X77012143Y-140377714D01*
X76964524Y-140472952D01*
X76916905Y-140520571D01*
X76821667Y-140568190D01*
X76440714Y-140568190D01*
X77345476Y-140044381D02*
X77964524Y-140044381D01*
X77631190Y-140425333D01*
X77774048Y-140425333D01*
X77869286Y-140472952D01*
X77916905Y-140520571D01*
X77964524Y-140615810D01*
X77964524Y-140853905D01*
X77916905Y-140949143D01*
X77869286Y-140996762D01*
X77774048Y-141044381D01*
X77488333Y-141044381D01*
X77393095Y-140996762D01*
X77345476Y-140949143D01*
X78535952Y-140472952D02*
X78440714Y-140425333D01*
X78393095Y-140377714D01*
X78345476Y-140282476D01*
X78345476Y-140234857D01*
X78393095Y-140139619D01*
X78440714Y-140092000D01*
X78535952Y-140044381D01*
X78726429Y-140044381D01*
X78821667Y-140092000D01*
X78869286Y-140139619D01*
X78916905Y-140234857D01*
X78916905Y-140282476D01*
X78869286Y-140377714D01*
X78821667Y-140425333D01*
X78726429Y-140472952D01*
X78535952Y-140472952D01*
X78440714Y-140520571D01*
X78393095Y-140568190D01*
X78345476Y-140663429D01*
X78345476Y-140853905D01*
X78393095Y-140949143D01*
X78440714Y-140996762D01*
X78535952Y-141044381D01*
X78726429Y-141044381D01*
X78821667Y-140996762D01*
X78869286Y-140949143D01*
X78916905Y-140853905D01*
X78916905Y-140663429D01*
X78869286Y-140568190D01*
X78821667Y-140520571D01*
X78726429Y-140472952D01*
X108262143Y-141044381D02*
X107928809Y-140568190D01*
X107690714Y-141044381D02*
X107690714Y-140044381D01*
X108071667Y-140044381D01*
X108166905Y-140092000D01*
X108214524Y-140139619D01*
X108262143Y-140234857D01*
X108262143Y-140377714D01*
X108214524Y-140472952D01*
X108166905Y-140520571D01*
X108071667Y-140568190D01*
X107690714Y-140568190D01*
X108595476Y-140044381D02*
X109214524Y-140044381D01*
X108881190Y-140425333D01*
X109024048Y-140425333D01*
X109119286Y-140472952D01*
X109166905Y-140520571D01*
X109214524Y-140615810D01*
X109214524Y-140853905D01*
X109166905Y-140949143D01*
X109119286Y-140996762D01*
X109024048Y-141044381D01*
X108738333Y-141044381D01*
X108643095Y-140996762D01*
X108595476Y-140949143D01*
X109690714Y-141044381D02*
X109881190Y-141044381D01*
X109976429Y-140996762D01*
X110024048Y-140949143D01*
X110119286Y-140806286D01*
X110166905Y-140615810D01*
X110166905Y-140234857D01*
X110119286Y-140139619D01*
X110071667Y-140092000D01*
X109976429Y-140044381D01*
X109785952Y-140044381D01*
X109690714Y-140092000D01*
X109643095Y-140139619D01*
X109595476Y-140234857D01*
X109595476Y-140472952D01*
X109643095Y-140568190D01*
X109690714Y-140615810D01*
X109785952Y-140663429D01*
X109976429Y-140663429D01*
X110071667Y-140615810D01*
X110119286Y-140568190D01*
X110166905Y-140472952D01*
X92762143Y-137344381D02*
X92428809Y-136868190D01*
X92190714Y-137344381D02*
X92190714Y-136344381D01*
X92571667Y-136344381D01*
X92666905Y-136392000D01*
X92714524Y-136439619D01*
X92762143Y-136534857D01*
X92762143Y-136677714D01*
X92714524Y-136772952D01*
X92666905Y-136820571D01*
X92571667Y-136868190D01*
X92190714Y-136868190D01*
X93619286Y-136677714D02*
X93619286Y-137344381D01*
X93381190Y-136296762D02*
X93143095Y-137011048D01*
X93762143Y-137011048D01*
X94333571Y-136344381D02*
X94428810Y-136344381D01*
X94524048Y-136392000D01*
X94571667Y-136439619D01*
X94619286Y-136534857D01*
X94666905Y-136725333D01*
X94666905Y-136963429D01*
X94619286Y-137153905D01*
X94571667Y-137249143D01*
X94524048Y-137296762D01*
X94428810Y-137344381D01*
X94333571Y-137344381D01*
X94238333Y-137296762D01*
X94190714Y-137249143D01*
X94143095Y-137153905D01*
X94095476Y-136963429D01*
X94095476Y-136725333D01*
X94143095Y-136534857D01*
X94190714Y-136439619D01*
X94238333Y-136392000D01*
X94333571Y-136344381D01*
X108512143Y-138044381D02*
X108178809Y-137568190D01*
X107940714Y-138044381D02*
X107940714Y-137044381D01*
X108321667Y-137044381D01*
X108416905Y-137092000D01*
X108464524Y-137139619D01*
X108512143Y-137234857D01*
X108512143Y-137377714D01*
X108464524Y-137472952D01*
X108416905Y-137520571D01*
X108321667Y-137568190D01*
X107940714Y-137568190D01*
X109369286Y-137377714D02*
X109369286Y-138044381D01*
X109131190Y-136996762D02*
X108893095Y-137711048D01*
X109512143Y-137711048D01*
X110416905Y-138044381D02*
X109845476Y-138044381D01*
X110131190Y-138044381D02*
X110131190Y-137044381D01*
X110035952Y-137187238D01*
X109940714Y-137282476D01*
X109845476Y-137330095D01*
X100762143Y-141044381D02*
X100428809Y-140568190D01*
X100190714Y-141044381D02*
X100190714Y-140044381D01*
X100571667Y-140044381D01*
X100666905Y-140092000D01*
X100714524Y-140139619D01*
X100762143Y-140234857D01*
X100762143Y-140377714D01*
X100714524Y-140472952D01*
X100666905Y-140520571D01*
X100571667Y-140568190D01*
X100190714Y-140568190D01*
X101619286Y-140377714D02*
X101619286Y-141044381D01*
X101381190Y-139996762D02*
X101143095Y-140711048D01*
X101762143Y-140711048D01*
X102095476Y-140139619D02*
X102143095Y-140092000D01*
X102238333Y-140044381D01*
X102476429Y-140044381D01*
X102571667Y-140092000D01*
X102619286Y-140139619D01*
X102666905Y-140234857D01*
X102666905Y-140330095D01*
X102619286Y-140472952D01*
X102047857Y-141044381D01*
X102666905Y-141044381D01*
X100762143Y-138044381D02*
X100428809Y-137568190D01*
X100190714Y-138044381D02*
X100190714Y-137044381D01*
X100571667Y-137044381D01*
X100666905Y-137092000D01*
X100714524Y-137139619D01*
X100762143Y-137234857D01*
X100762143Y-137377714D01*
X100714524Y-137472952D01*
X100666905Y-137520571D01*
X100571667Y-137568190D01*
X100190714Y-137568190D01*
X101619286Y-137377714D02*
X101619286Y-138044381D01*
X101381190Y-136996762D02*
X101143095Y-137711048D01*
X101762143Y-137711048D01*
X102047857Y-137044381D02*
X102666905Y-137044381D01*
X102333571Y-137425333D01*
X102476429Y-137425333D01*
X102571667Y-137472952D01*
X102619286Y-137520571D01*
X102666905Y-137615810D01*
X102666905Y-137853905D01*
X102619286Y-137949143D01*
X102571667Y-137996762D01*
X102476429Y-138044381D01*
X102190714Y-138044381D01*
X102095476Y-137996762D01*
X102047857Y-137949143D01*
X72457381Y-130884857D02*
X71981190Y-131218191D01*
X72457381Y-131456286D02*
X71457381Y-131456286D01*
X71457381Y-131075333D01*
X71505000Y-130980095D01*
X71552619Y-130932476D01*
X71647857Y-130884857D01*
X71790714Y-130884857D01*
X71885952Y-130932476D01*
X71933571Y-130980095D01*
X71981190Y-131075333D01*
X71981190Y-131456286D01*
X71790714Y-130027714D02*
X72457381Y-130027714D01*
X71409762Y-130265810D02*
X72124048Y-130503905D01*
X72124048Y-129884857D01*
X71790714Y-129075333D02*
X72457381Y-129075333D01*
X71409762Y-129313429D02*
X72124048Y-129551524D01*
X72124048Y-128932476D01*
X88389095Y-109386381D02*
X88389095Y-110195905D01*
X88436714Y-110291143D01*
X88484333Y-110338762D01*
X88579571Y-110386381D01*
X88770048Y-110386381D01*
X88865286Y-110338762D01*
X88912905Y-110291143D01*
X88960524Y-110195905D01*
X88960524Y-109386381D01*
X89960524Y-110386381D02*
X89389095Y-110386381D01*
X89674809Y-110386381D02*
X89674809Y-109386381D01*
X89579571Y-109529238D01*
X89484333Y-109624476D01*
X89389095Y-109672095D01*
X84709095Y-118726381D02*
X84709095Y-119535905D01*
X84756714Y-119631143D01*
X84804333Y-119678762D01*
X84899571Y-119726381D01*
X85090048Y-119726381D01*
X85185286Y-119678762D01*
X85232905Y-119631143D01*
X85280524Y-119535905D01*
X85280524Y-118726381D01*
X85709095Y-118821619D02*
X85756714Y-118774000D01*
X85851952Y-118726381D01*
X86090048Y-118726381D01*
X86185286Y-118774000D01*
X86232905Y-118821619D01*
X86280524Y-118916857D01*
X86280524Y-119012095D01*
X86232905Y-119154952D01*
X85661476Y-119726381D01*
X86280524Y-119726381D01*
X88519095Y-90263381D02*
X88519095Y-91072905D01*
X88566714Y-91168143D01*
X88614333Y-91215762D01*
X88709571Y-91263381D01*
X88900048Y-91263381D01*
X88995286Y-91215762D01*
X89042905Y-91168143D01*
X89090524Y-91072905D01*
X89090524Y-90263381D01*
X89471476Y-90263381D02*
X90090524Y-90263381D01*
X89757190Y-90644333D01*
X89900048Y-90644333D01*
X89995286Y-90691952D01*
X90042905Y-90739571D01*
X90090524Y-90834810D01*
X90090524Y-91072905D01*
X90042905Y-91168143D01*
X89995286Y-91215762D01*
X89900048Y-91263381D01*
X89614333Y-91263381D01*
X89519095Y-91215762D01*
X89471476Y-91168143D01*
X88963595Y-71149881D02*
X88963595Y-71959405D01*
X89011214Y-72054643D01*
X89058833Y-72102262D01*
X89154071Y-72149881D01*
X89344548Y-72149881D01*
X89439786Y-72102262D01*
X89487405Y-72054643D01*
X89535024Y-71959405D01*
X89535024Y-71149881D01*
X90439786Y-71483214D02*
X90439786Y-72149881D01*
X90201690Y-71102262D02*
X89963595Y-71816548D01*
X90582643Y-71816548D01*
X84709095Y-98533381D02*
X84709095Y-99342905D01*
X84756714Y-99438143D01*
X84804333Y-99485762D01*
X84899571Y-99533381D01*
X85090048Y-99533381D01*
X85185286Y-99485762D01*
X85232905Y-99438143D01*
X85280524Y-99342905D01*
X85280524Y-98533381D01*
X86232905Y-98533381D02*
X85756714Y-98533381D01*
X85709095Y-99009571D01*
X85756714Y-98961952D01*
X85851952Y-98914333D01*
X86090048Y-98914333D01*
X86185286Y-98961952D01*
X86232905Y-99009571D01*
X86280524Y-99104810D01*
X86280524Y-99342905D01*
X86232905Y-99438143D01*
X86185286Y-99485762D01*
X86090048Y-99533381D01*
X85851952Y-99533381D01*
X85756714Y-99485762D01*
X85709095Y-99438143D01*
X85153595Y-79419881D02*
X85153595Y-80229405D01*
X85201214Y-80324643D01*
X85248833Y-80372262D01*
X85344071Y-80419881D01*
X85534548Y-80419881D01*
X85629786Y-80372262D01*
X85677405Y-80324643D01*
X85725024Y-80229405D01*
X85725024Y-79419881D01*
X86629786Y-79419881D02*
X86439309Y-79419881D01*
X86344071Y-79467500D01*
X86296452Y-79515119D01*
X86201214Y-79657976D01*
X86153595Y-79848452D01*
X86153595Y-80229405D01*
X86201214Y-80324643D01*
X86248833Y-80372262D01*
X86344071Y-80419881D01*
X86534548Y-80419881D01*
X86629786Y-80372262D01*
X86677405Y-80324643D01*
X86725024Y-80229405D01*
X86725024Y-79991310D01*
X86677405Y-79896071D01*
X86629786Y-79848452D01*
X86534548Y-79800833D01*
X86344071Y-79800833D01*
X86248833Y-79848452D01*
X86201214Y-79896071D01*
X86153595Y-79991310D01*
X88143095Y-126394381D02*
X88143095Y-127203905D01*
X88190714Y-127299143D01*
X88238333Y-127346762D01*
X88333571Y-127394381D01*
X88524048Y-127394381D01*
X88619286Y-127346762D01*
X88666905Y-127299143D01*
X88714524Y-127203905D01*
X88714524Y-126394381D01*
X89095476Y-126394381D02*
X89762143Y-126394381D01*
X89333571Y-127394381D01*
X84643095Y-134294381D02*
X84643095Y-135103905D01*
X84690714Y-135199143D01*
X84738333Y-135246762D01*
X84833571Y-135294381D01*
X85024048Y-135294381D01*
X85119286Y-135246762D01*
X85166905Y-135199143D01*
X85214524Y-135103905D01*
X85214524Y-134294381D01*
X85833571Y-134722952D02*
X85738333Y-134675333D01*
X85690714Y-134627714D01*
X85643095Y-134532476D01*
X85643095Y-134484857D01*
X85690714Y-134389619D01*
X85738333Y-134342000D01*
X85833571Y-134294381D01*
X86024048Y-134294381D01*
X86119286Y-134342000D01*
X86166905Y-134389619D01*
X86214524Y-134484857D01*
X86214524Y-134532476D01*
X86166905Y-134627714D01*
X86119286Y-134675333D01*
X86024048Y-134722952D01*
X85833571Y-134722952D01*
X85738333Y-134770571D01*
X85690714Y-134818190D01*
X85643095Y-134913429D01*
X85643095Y-135103905D01*
X85690714Y-135199143D01*
X85738333Y-135246762D01*
X85833571Y-135294381D01*
X86024048Y-135294381D01*
X86119286Y-135246762D01*
X86166905Y-135199143D01*
X86214524Y-135103905D01*
X86214524Y-134913429D01*
X86166905Y-134818190D01*
X86119286Y-134770571D01*
X86024048Y-134722952D01*
X120253167Y-97452381D02*
X120253167Y-98166667D01*
X120205547Y-98309524D01*
X120110309Y-98404762D01*
X119967452Y-98452381D01*
X119872214Y-98452381D01*
X120634119Y-97452381D02*
X121253167Y-97452381D01*
X120919833Y-97833333D01*
X121062691Y-97833333D01*
X121157929Y-97880952D01*
X121205548Y-97928571D01*
X121253167Y-98023810D01*
X121253167Y-98261905D01*
X121205548Y-98357143D01*
X121157929Y-98404762D01*
X121062691Y-98452381D01*
X120776976Y-98452381D01*
X120681738Y-98404762D01*
X120634119Y-98357143D01*
X120126167Y-131424881D02*
X120126167Y-132139167D01*
X120078547Y-132282024D01*
X119983309Y-132377262D01*
X119840452Y-132424881D01*
X119745214Y-132424881D01*
X120554738Y-131520119D02*
X120602357Y-131472500D01*
X120697595Y-131424881D01*
X120935691Y-131424881D01*
X121030929Y-131472500D01*
X121078548Y-131520119D01*
X121126167Y-131615357D01*
X121126167Y-131710595D01*
X121078548Y-131853452D01*
X120507119Y-132424881D01*
X121126167Y-132424881D01*
M02*
