G04 #@! TF.FileFunction,Other,Fab,Top*
%FSLAX46Y46*%
G04 Gerber Fmt 4.6, Leading zero omitted, Abs format (unit mm)*
G04 Created by KiCad (PCBNEW 4.0.7) date 12/27/18 16:20:45*
%MOMM*%
%LPD*%
G01*
G04 APERTURE LIST*
%ADD10C,0.100000*%
%ADD11C,0.150000*%
%ADD12C,0.105000*%
%ADD13C,0.075000*%
G04 APERTURE END LIST*
D10*
X73241000Y-111684000D02*
X74841000Y-111684000D01*
X73241000Y-114884000D02*
X73241000Y-111684000D01*
X74841000Y-114884000D02*
X73241000Y-114884000D01*
X74841000Y-111684000D02*
X74841000Y-114884000D01*
X103721000Y-111684000D02*
X105321000Y-111684000D01*
X103721000Y-114884000D02*
X103721000Y-111684000D01*
X105321000Y-114884000D02*
X103721000Y-114884000D01*
X105321000Y-111684000D02*
X105321000Y-114884000D01*
X92761000Y-120434000D02*
X92761000Y-118834000D01*
X95961000Y-120434000D02*
X92761000Y-120434000D01*
X95961000Y-118834000D02*
X95961000Y-120434000D01*
X92761000Y-118834000D02*
X95961000Y-118834000D01*
X96101000Y-111684000D02*
X97701000Y-111684000D01*
X96101000Y-114884000D02*
X96101000Y-111684000D01*
X97701000Y-114884000D02*
X96101000Y-114884000D01*
X97701000Y-111684000D02*
X97701000Y-114884000D01*
X99911000Y-111684000D02*
X101511000Y-111684000D01*
X99911000Y-114884000D02*
X99911000Y-111684000D01*
X101511000Y-114884000D02*
X99911000Y-114884000D01*
X101511000Y-111684000D02*
X101511000Y-114884000D01*
X109131000Y-114884000D02*
X107531000Y-114884000D01*
X109131000Y-111684000D02*
X109131000Y-114884000D01*
X107531000Y-111684000D02*
X109131000Y-111684000D01*
X107531000Y-114884000D02*
X107531000Y-111684000D01*
X74841000Y-95961000D02*
X73241000Y-95961000D01*
X74841000Y-92761000D02*
X74841000Y-95961000D01*
X73241000Y-92761000D02*
X74841000Y-92761000D01*
X73241000Y-95961000D02*
X73241000Y-92761000D01*
X107975500Y-73647500D02*
X109575500Y-73647500D01*
X107975500Y-76847500D02*
X107975500Y-73647500D01*
X109575500Y-76847500D02*
X107975500Y-76847500D01*
X109575500Y-73647500D02*
X109575500Y-76847500D01*
X96101000Y-92761000D02*
X97701000Y-92761000D01*
X96101000Y-95961000D02*
X96101000Y-92761000D01*
X97701000Y-95961000D02*
X96101000Y-95961000D01*
X97701000Y-92761000D02*
X97701000Y-95961000D01*
X75285500Y-76847500D02*
X73685500Y-76847500D01*
X75285500Y-73647500D02*
X75285500Y-76847500D01*
X73685500Y-73647500D02*
X75285500Y-73647500D01*
X73685500Y-76847500D02*
X73685500Y-73647500D01*
X95961000Y-99911000D02*
X95961000Y-101511000D01*
X92761000Y-99911000D02*
X95961000Y-99911000D01*
X92761000Y-101511000D02*
X92761000Y-99911000D01*
X95961000Y-101511000D02*
X92761000Y-101511000D01*
X96405500Y-80797500D02*
X96405500Y-82397500D01*
X93205500Y-80797500D02*
X96405500Y-80797500D01*
X93205500Y-82397500D02*
X93205500Y-80797500D01*
X96405500Y-82397500D02*
X93205500Y-82397500D01*
X107531000Y-92761000D02*
X109131000Y-92761000D01*
X107531000Y-95961000D02*
X107531000Y-92761000D01*
X109131000Y-95961000D02*
X107531000Y-95961000D01*
X109131000Y-92761000D02*
X109131000Y-95961000D01*
X104165500Y-73647500D02*
X105765500Y-73647500D01*
X104165500Y-76847500D02*
X104165500Y-73647500D01*
X105765500Y-76847500D02*
X104165500Y-76847500D01*
X105765500Y-73647500D02*
X105765500Y-76847500D01*
X99911000Y-92761000D02*
X101511000Y-92761000D01*
X99911000Y-95961000D02*
X99911000Y-92761000D01*
X101511000Y-95961000D02*
X99911000Y-95961000D01*
X101511000Y-92761000D02*
X101511000Y-95961000D01*
X100355500Y-73647500D02*
X101955500Y-73647500D01*
X100355500Y-76847500D02*
X100355500Y-73647500D01*
X101955500Y-76847500D02*
X100355500Y-76847500D01*
X101955500Y-73647500D02*
X101955500Y-76847500D01*
X103721000Y-92761000D02*
X105321000Y-92761000D01*
X103721000Y-95961000D02*
X103721000Y-92761000D01*
X105321000Y-95961000D02*
X103721000Y-95961000D01*
X105321000Y-92761000D02*
X105321000Y-95961000D01*
X96545500Y-73647500D02*
X98145500Y-73647500D01*
X96545500Y-76847500D02*
X96545500Y-73647500D01*
X98145500Y-76847500D02*
X96545500Y-76847500D01*
X98145500Y-73647500D02*
X98145500Y-76847500D01*
X73495000Y-128702000D02*
X75095000Y-128702000D01*
X73495000Y-131902000D02*
X73495000Y-128702000D01*
X75095000Y-131902000D02*
X73495000Y-131902000D01*
X75095000Y-128702000D02*
X75095000Y-131902000D01*
X108115000Y-131902000D02*
X106515000Y-131902000D01*
X108115000Y-128702000D02*
X108115000Y-131902000D01*
X106515000Y-128702000D02*
X108115000Y-128702000D01*
X106515000Y-131902000D02*
X106515000Y-128702000D01*
X96355000Y-128642000D02*
X97955000Y-128642000D01*
X96355000Y-131842000D02*
X96355000Y-128642000D01*
X97955000Y-131842000D02*
X96355000Y-131842000D01*
X97955000Y-128642000D02*
X97955000Y-131842000D01*
X103105000Y-128642000D02*
X104705000Y-128642000D01*
X103105000Y-131842000D02*
X103105000Y-128642000D01*
X104705000Y-131842000D02*
X103105000Y-131842000D01*
X104705000Y-128642000D02*
X104705000Y-131842000D01*
X91805000Y-136542000D02*
X91805000Y-134942000D01*
X95005000Y-136542000D02*
X91805000Y-136542000D01*
X95005000Y-134942000D02*
X95005000Y-136542000D01*
X91805000Y-134942000D02*
X95005000Y-134942000D01*
X99855000Y-128642000D02*
X101455000Y-128642000D01*
X99855000Y-131842000D02*
X99855000Y-128642000D01*
X101455000Y-131842000D02*
X99855000Y-131842000D01*
X101455000Y-128642000D02*
X101455000Y-131842000D01*
X65205000Y-133742000D02*
G75*
G03X65205000Y-133742000I-4800000J0D01*
G01*
X64871000Y-115824000D02*
G75*
G03X64871000Y-115824000I-4800000J0D01*
G01*
X64871000Y-99441000D02*
G75*
G03X64871000Y-99441000I-4800000J0D01*
G01*
X64744000Y-80835500D02*
G75*
G03X64744000Y-80835500I-4800000J0D01*
G01*
X71031000Y-114884000D02*
X69431000Y-114884000D01*
X71031000Y-111684000D02*
X71031000Y-114884000D01*
X69431000Y-111684000D02*
X71031000Y-111684000D01*
X69431000Y-114884000D02*
X69431000Y-111684000D01*
X78181000Y-122644000D02*
X78181000Y-124244000D01*
X74981000Y-122644000D02*
X78181000Y-122644000D01*
X74981000Y-124244000D02*
X74981000Y-122644000D01*
X78181000Y-124244000D02*
X74981000Y-124244000D01*
X78651000Y-114884000D02*
X77051000Y-114884000D01*
X78651000Y-111684000D02*
X78651000Y-114884000D01*
X77051000Y-111684000D02*
X78651000Y-111684000D01*
X77051000Y-114884000D02*
X77051000Y-111684000D01*
X92761000Y-124244000D02*
X92761000Y-122644000D01*
X95961000Y-124244000D02*
X92761000Y-124244000D01*
X95961000Y-122644000D02*
X95961000Y-124244000D01*
X92761000Y-122644000D02*
X95961000Y-122644000D01*
X104851000Y-122644000D02*
X104851000Y-124244000D01*
X101651000Y-122644000D02*
X104851000Y-122644000D01*
X101651000Y-124244000D02*
X101651000Y-122644000D01*
X104851000Y-124244000D02*
X101651000Y-124244000D01*
X76251000Y-120434000D02*
X76251000Y-118834000D01*
X79451000Y-120434000D02*
X76251000Y-120434000D01*
X79451000Y-118834000D02*
X79451000Y-120434000D01*
X76251000Y-118834000D02*
X79451000Y-118834000D01*
X104851000Y-118834000D02*
X104851000Y-120434000D01*
X101651000Y-118834000D02*
X104851000Y-118834000D01*
X101651000Y-120434000D02*
X101651000Y-118834000D01*
X104851000Y-120434000D02*
X101651000Y-120434000D01*
X111341000Y-111684000D02*
X112941000Y-111684000D01*
X111341000Y-114884000D02*
X111341000Y-111684000D01*
X112941000Y-114884000D02*
X111341000Y-114884000D01*
X112941000Y-111684000D02*
X112941000Y-114884000D01*
X113741000Y-118834000D02*
X113741000Y-120434000D01*
X110541000Y-118834000D02*
X113741000Y-118834000D01*
X110541000Y-120434000D02*
X110541000Y-118834000D01*
X113741000Y-120434000D02*
X110541000Y-120434000D01*
X113741000Y-122644000D02*
X113741000Y-124244000D01*
X110541000Y-122644000D02*
X113741000Y-122644000D01*
X110541000Y-124244000D02*
X110541000Y-122644000D01*
X113741000Y-124244000D02*
X110541000Y-124244000D01*
X80861000Y-111684000D02*
X82461000Y-111684000D01*
X80861000Y-114884000D02*
X80861000Y-111684000D01*
X82461000Y-114884000D02*
X80861000Y-114884000D01*
X82461000Y-111684000D02*
X82461000Y-114884000D01*
X112941000Y-95961000D02*
X111341000Y-95961000D01*
X112941000Y-92761000D02*
X112941000Y-95961000D01*
X111341000Y-92761000D02*
X112941000Y-92761000D01*
X111341000Y-95961000D02*
X111341000Y-92761000D01*
X81305500Y-73647500D02*
X82905500Y-73647500D01*
X81305500Y-76847500D02*
X81305500Y-73647500D01*
X82905500Y-76847500D02*
X81305500Y-76847500D01*
X82905500Y-73647500D02*
X82905500Y-76847500D01*
X76251000Y-101511000D02*
X76251000Y-99911000D01*
X79451000Y-101511000D02*
X76251000Y-101511000D01*
X79451000Y-99911000D02*
X79451000Y-101511000D01*
X76251000Y-99911000D02*
X79451000Y-99911000D01*
X76695500Y-82397500D02*
X76695500Y-80797500D01*
X79895500Y-82397500D02*
X76695500Y-82397500D01*
X79895500Y-80797500D02*
X79895500Y-82397500D01*
X76695500Y-80797500D02*
X79895500Y-80797500D01*
X78651000Y-95961000D02*
X77051000Y-95961000D01*
X78651000Y-92761000D02*
X78651000Y-95961000D01*
X77051000Y-92761000D02*
X78651000Y-92761000D01*
X77051000Y-95961000D02*
X77051000Y-92761000D01*
X102095500Y-82397500D02*
X102095500Y-80797500D01*
X105295500Y-82397500D02*
X102095500Y-82397500D01*
X105295500Y-80797500D02*
X105295500Y-82397500D01*
X102095500Y-80797500D02*
X105295500Y-80797500D01*
X92761000Y-105321000D02*
X92761000Y-103721000D01*
X95961000Y-105321000D02*
X92761000Y-105321000D01*
X95961000Y-103721000D02*
X95961000Y-105321000D01*
X92761000Y-103721000D02*
X95961000Y-103721000D01*
X104851000Y-103721000D02*
X104851000Y-105321000D01*
X101651000Y-103721000D02*
X104851000Y-103721000D01*
X101651000Y-105321000D02*
X101651000Y-103721000D01*
X104851000Y-105321000D02*
X101651000Y-105321000D01*
X71475500Y-76847500D02*
X69875500Y-76847500D01*
X71475500Y-73647500D02*
X71475500Y-76847500D01*
X69875500Y-73647500D02*
X71475500Y-73647500D01*
X69875500Y-76847500D02*
X69875500Y-73647500D01*
X79095500Y-76847500D02*
X77495500Y-76847500D01*
X79095500Y-73647500D02*
X79095500Y-76847500D01*
X77495500Y-73647500D02*
X79095500Y-73647500D01*
X77495500Y-76847500D02*
X77495500Y-73647500D01*
X101651000Y-101511000D02*
X101651000Y-99911000D01*
X104851000Y-101511000D02*
X101651000Y-101511000D01*
X104851000Y-99911000D02*
X104851000Y-101511000D01*
X101651000Y-99911000D02*
X104851000Y-99911000D01*
X79895500Y-84607500D02*
X79895500Y-86207500D01*
X76695500Y-84607500D02*
X79895500Y-84607500D01*
X76695500Y-86207500D02*
X76695500Y-84607500D01*
X79895500Y-86207500D02*
X76695500Y-86207500D01*
X79451000Y-103721000D02*
X79451000Y-105321000D01*
X76251000Y-103721000D02*
X79451000Y-103721000D01*
X76251000Y-105321000D02*
X76251000Y-103721000D01*
X79451000Y-105321000D02*
X76251000Y-105321000D01*
X110985500Y-86207500D02*
X110985500Y-84607500D01*
X114185500Y-86207500D02*
X110985500Y-86207500D01*
X114185500Y-84607500D02*
X114185500Y-86207500D01*
X110985500Y-84607500D02*
X114185500Y-84607500D01*
X69431000Y-92761000D02*
X71031000Y-92761000D01*
X69431000Y-95961000D02*
X69431000Y-92761000D01*
X71031000Y-95961000D02*
X69431000Y-95961000D01*
X71031000Y-92761000D02*
X71031000Y-95961000D01*
X110541000Y-105321000D02*
X110541000Y-103721000D01*
X113741000Y-105321000D02*
X110541000Y-105321000D01*
X113741000Y-103721000D02*
X113741000Y-105321000D01*
X110541000Y-103721000D02*
X113741000Y-103721000D01*
X113385500Y-76847500D02*
X111785500Y-76847500D01*
X113385500Y-73647500D02*
X113385500Y-76847500D01*
X111785500Y-73647500D02*
X113385500Y-73647500D01*
X111785500Y-76847500D02*
X111785500Y-73647500D01*
X105295500Y-84607500D02*
X105295500Y-86207500D01*
X102095500Y-84607500D02*
X105295500Y-84607500D01*
X102095500Y-86207500D02*
X102095500Y-84607500D01*
X105295500Y-86207500D02*
X102095500Y-86207500D01*
X113741000Y-99911000D02*
X113741000Y-101511000D01*
X110541000Y-99911000D02*
X113741000Y-99911000D01*
X110541000Y-101511000D02*
X110541000Y-99911000D01*
X113741000Y-101511000D02*
X110541000Y-101511000D01*
X114185500Y-80797500D02*
X114185500Y-82397500D01*
X110985500Y-80797500D02*
X114185500Y-80797500D01*
X110985500Y-82397500D02*
X110985500Y-80797500D01*
X114185500Y-82397500D02*
X110985500Y-82397500D01*
X80861000Y-92761000D02*
X82461000Y-92761000D01*
X80861000Y-95961000D02*
X80861000Y-92761000D01*
X82461000Y-95961000D02*
X80861000Y-95961000D01*
X82461000Y-92761000D02*
X82461000Y-95961000D01*
X93205500Y-86207500D02*
X93205500Y-84607500D01*
X96405500Y-86207500D02*
X93205500Y-86207500D01*
X96405500Y-84607500D02*
X96405500Y-86207500D01*
X93205500Y-84607500D02*
X96405500Y-84607500D01*
X80605000Y-128892000D02*
X82205000Y-128892000D01*
X80605000Y-132092000D02*
X80605000Y-128892000D01*
X82205000Y-132092000D02*
X80605000Y-132092000D01*
X82205000Y-128892000D02*
X82205000Y-132092000D01*
X76305000Y-136542000D02*
X76305000Y-134942000D01*
X79505000Y-136542000D02*
X76305000Y-136542000D01*
X79505000Y-134942000D02*
X79505000Y-136542000D01*
X76305000Y-134942000D02*
X79505000Y-134942000D01*
X78905000Y-131902000D02*
X77305000Y-131902000D01*
X78905000Y-128702000D02*
X78905000Y-131902000D01*
X77305000Y-128702000D02*
X78905000Y-128702000D01*
X77305000Y-131902000D02*
X77305000Y-128702000D01*
X110105000Y-128642000D02*
X111705000Y-128642000D01*
X110105000Y-131842000D02*
X110105000Y-128642000D01*
X111705000Y-131842000D02*
X110105000Y-131842000D01*
X111705000Y-128642000D02*
X111705000Y-131842000D01*
X79255000Y-137942000D02*
X79255000Y-139542000D01*
X76055000Y-137942000D02*
X79255000Y-137942000D01*
X76055000Y-139542000D02*
X76055000Y-137942000D01*
X79255000Y-139542000D02*
X76055000Y-139542000D01*
X110505000Y-137942000D02*
X110505000Y-139542000D01*
X107305000Y-137942000D02*
X110505000Y-137942000D01*
X107305000Y-139542000D02*
X107305000Y-137942000D01*
X110505000Y-139542000D02*
X107305000Y-139542000D01*
X91805000Y-139542000D02*
X91805000Y-137942000D01*
X95005000Y-139542000D02*
X91805000Y-139542000D01*
X95005000Y-137942000D02*
X95005000Y-139542000D01*
X91805000Y-137942000D02*
X95005000Y-137942000D01*
X110755000Y-134942000D02*
X110755000Y-136542000D01*
X107555000Y-134942000D02*
X110755000Y-134942000D01*
X107555000Y-136542000D02*
X107555000Y-134942000D01*
X110755000Y-136542000D02*
X107555000Y-136542000D01*
X103005000Y-137942000D02*
X103005000Y-139542000D01*
X99805000Y-137942000D02*
X103005000Y-137942000D01*
X99805000Y-139542000D02*
X99805000Y-137942000D01*
X103005000Y-139542000D02*
X99805000Y-139542000D01*
X103005000Y-134942000D02*
X103005000Y-136542000D01*
X99805000Y-134942000D02*
X103005000Y-134942000D01*
X99805000Y-136542000D02*
X99805000Y-134942000D01*
X103005000Y-136542000D02*
X99805000Y-136542000D01*
X69355000Y-128642000D02*
X70955000Y-128642000D01*
X69355000Y-131842000D02*
X69355000Y-128642000D01*
X70955000Y-131842000D02*
X69355000Y-131842000D01*
X70955000Y-128642000D02*
X70955000Y-131842000D01*
D11*
X87951000Y-110984000D02*
X91351000Y-110984000D01*
X91351000Y-110984000D02*
X91351000Y-115984000D01*
X91351000Y-115984000D02*
X86951000Y-115984000D01*
X86951000Y-115984000D02*
X86951000Y-111984000D01*
X86951000Y-111984000D02*
X87951000Y-110984000D01*
D10*
X84571000Y-121274000D02*
X85221000Y-120624000D01*
X86371000Y-120624000D02*
X85221000Y-120624000D01*
X84571000Y-121274000D02*
X84571000Y-123724000D01*
X86371000Y-123724000D02*
X84571000Y-123724000D01*
X86371000Y-120624000D02*
X86371000Y-123724000D01*
D11*
X88081000Y-91861000D02*
X91481000Y-91861000D01*
X91481000Y-91861000D02*
X91481000Y-96861000D01*
X91481000Y-96861000D02*
X87081000Y-96861000D01*
X87081000Y-96861000D02*
X87081000Y-92861000D01*
X87081000Y-92861000D02*
X88081000Y-91861000D01*
X88525500Y-72747500D02*
X91925500Y-72747500D01*
X91925500Y-72747500D02*
X91925500Y-77747500D01*
X91925500Y-77747500D02*
X87525500Y-77747500D01*
X87525500Y-77747500D02*
X87525500Y-73747500D01*
X87525500Y-73747500D02*
X88525500Y-72747500D01*
D10*
X84571000Y-101081000D02*
X85221000Y-100431000D01*
X86371000Y-100431000D02*
X85221000Y-100431000D01*
X84571000Y-101081000D02*
X84571000Y-103531000D01*
X86371000Y-103531000D02*
X84571000Y-103531000D01*
X86371000Y-100431000D02*
X86371000Y-103531000D01*
X85015500Y-81967500D02*
X85665500Y-81317500D01*
X86815500Y-81317500D02*
X85665500Y-81317500D01*
X85015500Y-81967500D02*
X85015500Y-84417500D01*
X86815500Y-84417500D02*
X85015500Y-84417500D01*
X86815500Y-81317500D02*
X86815500Y-84417500D01*
D11*
X87705000Y-127992000D02*
X91105000Y-127992000D01*
X91105000Y-127992000D02*
X91105000Y-132992000D01*
X91105000Y-132992000D02*
X86705000Y-132992000D01*
X86705000Y-132992000D02*
X86705000Y-128992000D01*
X86705000Y-128992000D02*
X87705000Y-127992000D01*
D10*
X84505000Y-136842000D02*
X85155000Y-136192000D01*
X86305000Y-136192000D02*
X85155000Y-136192000D01*
X84505000Y-136842000D02*
X84505000Y-139292000D01*
X86305000Y-139292000D02*
X84505000Y-139292000D01*
X86305000Y-136192000D02*
X86305000Y-139292000D01*
X119951500Y-99060000D02*
X121856500Y-99060000D01*
X121856500Y-99060000D02*
X121856500Y-114300000D01*
X121856500Y-114300000D02*
X119316500Y-114300000D01*
X119316500Y-114300000D02*
X119316500Y-99695000D01*
X119316500Y-99695000D02*
X119951500Y-99060000D01*
X119824500Y-133032500D02*
X121729500Y-133032500D01*
X121729500Y-133032500D02*
X121729500Y-138112500D01*
X121729500Y-138112500D02*
X119189500Y-138112500D01*
X119189500Y-138112500D02*
X119189500Y-133667500D01*
X119189500Y-133667500D02*
X119824500Y-133032500D01*
D11*
X72493381Y-113879238D02*
X72493381Y-114450667D01*
X72493381Y-114164953D02*
X71493381Y-114164953D01*
X71636238Y-114260191D01*
X71731476Y-114355429D01*
X71779095Y-114450667D01*
X71826714Y-113450667D02*
X72493381Y-113450667D01*
X71921952Y-113450667D02*
X71874333Y-113403048D01*
X71826714Y-113307810D01*
X71826714Y-113164952D01*
X71874333Y-113069714D01*
X71969571Y-113022095D01*
X72493381Y-113022095D01*
X71969571Y-112212571D02*
X71969571Y-112545905D01*
X72493381Y-112545905D02*
X71493381Y-112545905D01*
X71493381Y-112069714D01*
X76148143Y-113450666D02*
X76195762Y-113498285D01*
X76243381Y-113641142D01*
X76243381Y-113736380D01*
X76195762Y-113879238D01*
X76100524Y-113974476D01*
X76005286Y-114022095D01*
X75814810Y-114069714D01*
X75671952Y-114069714D01*
X75481476Y-114022095D01*
X75386238Y-113974476D01*
X75291000Y-113879238D01*
X75243381Y-113736380D01*
X75243381Y-113641142D01*
X75291000Y-113498285D01*
X75338619Y-113450666D01*
X76243381Y-112498285D02*
X76243381Y-113069714D01*
X76243381Y-112784000D02*
X75243381Y-112784000D01*
X75386238Y-112879238D01*
X75481476Y-112974476D01*
X75529095Y-113069714D01*
X102973381Y-113879238D02*
X102973381Y-114450667D01*
X102973381Y-114164953D02*
X101973381Y-114164953D01*
X102116238Y-114260191D01*
X102211476Y-114355429D01*
X102259095Y-114450667D01*
X102306714Y-113450667D02*
X102973381Y-113450667D01*
X102401952Y-113450667D02*
X102354333Y-113403048D01*
X102306714Y-113307810D01*
X102306714Y-113164952D01*
X102354333Y-113069714D01*
X102449571Y-113022095D01*
X102973381Y-113022095D01*
X102449571Y-112212571D02*
X102449571Y-112545905D01*
X102973381Y-112545905D02*
X101973381Y-112545905D01*
X101973381Y-112069714D01*
X106628143Y-113450666D02*
X106675762Y-113498285D01*
X106723381Y-113641142D01*
X106723381Y-113736380D01*
X106675762Y-113879238D01*
X106580524Y-113974476D01*
X106485286Y-114022095D01*
X106294810Y-114069714D01*
X106151952Y-114069714D01*
X105961476Y-114022095D01*
X105866238Y-113974476D01*
X105771000Y-113879238D01*
X105723381Y-113736380D01*
X105723381Y-113641142D01*
X105771000Y-113498285D01*
X105818619Y-113450666D01*
X105818619Y-113069714D02*
X105771000Y-113022095D01*
X105723381Y-112926857D01*
X105723381Y-112688761D01*
X105771000Y-112593523D01*
X105818619Y-112545904D01*
X105913857Y-112498285D01*
X106009095Y-112498285D01*
X106151952Y-112545904D01*
X106723381Y-113117333D01*
X106723381Y-112498285D01*
X93765762Y-122086381D02*
X93194333Y-122086381D01*
X93480047Y-122086381D02*
X93480047Y-121086381D01*
X93384809Y-121229238D01*
X93289571Y-121324476D01*
X93194333Y-121372095D01*
X94194333Y-121419714D02*
X94194333Y-122086381D01*
X94194333Y-121514952D02*
X94241952Y-121467333D01*
X94337190Y-121419714D01*
X94480048Y-121419714D01*
X94575286Y-121467333D01*
X94622905Y-121562571D01*
X94622905Y-122086381D01*
X95432429Y-121562571D02*
X95099095Y-121562571D01*
X95099095Y-122086381D02*
X95099095Y-121086381D01*
X95575286Y-121086381D01*
X94194334Y-118241143D02*
X94146715Y-118288762D01*
X94003858Y-118336381D01*
X93908620Y-118336381D01*
X93765762Y-118288762D01*
X93670524Y-118193524D01*
X93622905Y-118098286D01*
X93575286Y-117907810D01*
X93575286Y-117764952D01*
X93622905Y-117574476D01*
X93670524Y-117479238D01*
X93765762Y-117384000D01*
X93908620Y-117336381D01*
X94003858Y-117336381D01*
X94146715Y-117384000D01*
X94194334Y-117431619D01*
X94527667Y-117336381D02*
X95146715Y-117336381D01*
X94813381Y-117717333D01*
X94956239Y-117717333D01*
X95051477Y-117764952D01*
X95099096Y-117812571D01*
X95146715Y-117907810D01*
X95146715Y-118145905D01*
X95099096Y-118241143D01*
X95051477Y-118288762D01*
X94956239Y-118336381D01*
X94670524Y-118336381D01*
X94575286Y-118288762D01*
X94527667Y-118241143D01*
X95353381Y-113879238D02*
X95353381Y-114450667D01*
X95353381Y-114164953D02*
X94353381Y-114164953D01*
X94496238Y-114260191D01*
X94591476Y-114355429D01*
X94639095Y-114450667D01*
X94686714Y-113450667D02*
X95353381Y-113450667D01*
X94781952Y-113450667D02*
X94734333Y-113403048D01*
X94686714Y-113307810D01*
X94686714Y-113164952D01*
X94734333Y-113069714D01*
X94829571Y-113022095D01*
X95353381Y-113022095D01*
X94829571Y-112212571D02*
X94829571Y-112545905D01*
X95353381Y-112545905D02*
X94353381Y-112545905D01*
X94353381Y-112069714D01*
X99008143Y-113450666D02*
X99055762Y-113498285D01*
X99103381Y-113641142D01*
X99103381Y-113736380D01*
X99055762Y-113879238D01*
X98960524Y-113974476D01*
X98865286Y-114022095D01*
X98674810Y-114069714D01*
X98531952Y-114069714D01*
X98341476Y-114022095D01*
X98246238Y-113974476D01*
X98151000Y-113879238D01*
X98103381Y-113736380D01*
X98103381Y-113641142D01*
X98151000Y-113498285D01*
X98198619Y-113450666D01*
X98436714Y-112593523D02*
X99103381Y-112593523D01*
X98055762Y-112831619D02*
X98770048Y-113069714D01*
X98770048Y-112450666D01*
X99163381Y-113879238D02*
X99163381Y-114450667D01*
X99163381Y-114164953D02*
X98163381Y-114164953D01*
X98306238Y-114260191D01*
X98401476Y-114355429D01*
X98449095Y-114450667D01*
X98496714Y-113450667D02*
X99163381Y-113450667D01*
X98591952Y-113450667D02*
X98544333Y-113403048D01*
X98496714Y-113307810D01*
X98496714Y-113164952D01*
X98544333Y-113069714D01*
X98639571Y-113022095D01*
X99163381Y-113022095D01*
X98639571Y-112212571D02*
X98639571Y-112545905D01*
X99163381Y-112545905D02*
X98163381Y-112545905D01*
X98163381Y-112069714D01*
X102818143Y-113450666D02*
X102865762Y-113498285D01*
X102913381Y-113641142D01*
X102913381Y-113736380D01*
X102865762Y-113879238D01*
X102770524Y-113974476D01*
X102675286Y-114022095D01*
X102484810Y-114069714D01*
X102341952Y-114069714D01*
X102151476Y-114022095D01*
X102056238Y-113974476D01*
X101961000Y-113879238D01*
X101913381Y-113736380D01*
X101913381Y-113641142D01*
X101961000Y-113498285D01*
X102008619Y-113450666D01*
X101913381Y-112545904D02*
X101913381Y-113022095D01*
X102389571Y-113069714D01*
X102341952Y-113022095D01*
X102294333Y-112926857D01*
X102294333Y-112688761D01*
X102341952Y-112593523D01*
X102389571Y-112545904D01*
X102484810Y-112498285D01*
X102722905Y-112498285D01*
X102818143Y-112545904D01*
X102865762Y-112593523D01*
X102913381Y-112688761D01*
X102913381Y-112926857D01*
X102865762Y-113022095D01*
X102818143Y-113069714D01*
X110783381Y-113879238D02*
X110783381Y-114450667D01*
X110783381Y-114164953D02*
X109783381Y-114164953D01*
X109926238Y-114260191D01*
X110021476Y-114355429D01*
X110069095Y-114450667D01*
X110116714Y-113450667D02*
X110783381Y-113450667D01*
X110211952Y-113450667D02*
X110164333Y-113403048D01*
X110116714Y-113307810D01*
X110116714Y-113164952D01*
X110164333Y-113069714D01*
X110259571Y-113022095D01*
X110783381Y-113022095D01*
X110259571Y-112212571D02*
X110259571Y-112545905D01*
X110783381Y-112545905D02*
X109783381Y-112545905D01*
X109783381Y-112069714D01*
X106938143Y-113450666D02*
X106985762Y-113498285D01*
X107033381Y-113641142D01*
X107033381Y-113736380D01*
X106985762Y-113879238D01*
X106890524Y-113974476D01*
X106795286Y-114022095D01*
X106604810Y-114069714D01*
X106461952Y-114069714D01*
X106271476Y-114022095D01*
X106176238Y-113974476D01*
X106081000Y-113879238D01*
X106033381Y-113736380D01*
X106033381Y-113641142D01*
X106081000Y-113498285D01*
X106128619Y-113450666D01*
X106033381Y-112593523D02*
X106033381Y-112784000D01*
X106081000Y-112879238D01*
X106128619Y-112926857D01*
X106271476Y-113022095D01*
X106461952Y-113069714D01*
X106842905Y-113069714D01*
X106938143Y-113022095D01*
X106985762Y-112974476D01*
X107033381Y-112879238D01*
X107033381Y-112688761D01*
X106985762Y-112593523D01*
X106938143Y-112545904D01*
X106842905Y-112498285D01*
X106604810Y-112498285D01*
X106509571Y-112545904D01*
X106461952Y-112593523D01*
X106414333Y-112688761D01*
X106414333Y-112879238D01*
X106461952Y-112974476D01*
X106509571Y-113022095D01*
X106604810Y-113069714D01*
X76493381Y-94956238D02*
X76493381Y-95527667D01*
X76493381Y-95241953D02*
X75493381Y-95241953D01*
X75636238Y-95337191D01*
X75731476Y-95432429D01*
X75779095Y-95527667D01*
X75826714Y-94527667D02*
X76493381Y-94527667D01*
X75921952Y-94527667D02*
X75874333Y-94480048D01*
X75826714Y-94384810D01*
X75826714Y-94241952D01*
X75874333Y-94146714D01*
X75969571Y-94099095D01*
X76493381Y-94099095D01*
X75969571Y-93289571D02*
X75969571Y-93622905D01*
X76493381Y-93622905D02*
X75493381Y-93622905D01*
X75493381Y-93146714D01*
X72648143Y-94527666D02*
X72695762Y-94575285D01*
X72743381Y-94718142D01*
X72743381Y-94813380D01*
X72695762Y-94956238D01*
X72600524Y-95051476D01*
X72505286Y-95099095D01*
X72314810Y-95146714D01*
X72171952Y-95146714D01*
X71981476Y-95099095D01*
X71886238Y-95051476D01*
X71791000Y-94956238D01*
X71743381Y-94813380D01*
X71743381Y-94718142D01*
X71791000Y-94575285D01*
X71838619Y-94527666D01*
X71743381Y-94194333D02*
X71743381Y-93527666D01*
X72743381Y-93956238D01*
X107227881Y-75842738D02*
X107227881Y-76414167D01*
X107227881Y-76128453D02*
X106227881Y-76128453D01*
X106370738Y-76223691D01*
X106465976Y-76318929D01*
X106513595Y-76414167D01*
X106561214Y-75414167D02*
X107227881Y-75414167D01*
X106656452Y-75414167D02*
X106608833Y-75366548D01*
X106561214Y-75271310D01*
X106561214Y-75128452D01*
X106608833Y-75033214D01*
X106704071Y-74985595D01*
X107227881Y-74985595D01*
X106704071Y-74176071D02*
X106704071Y-74509405D01*
X107227881Y-74509405D02*
X106227881Y-74509405D01*
X106227881Y-74033214D01*
X110882643Y-75414166D02*
X110930262Y-75461785D01*
X110977881Y-75604642D01*
X110977881Y-75699880D01*
X110930262Y-75842738D01*
X110835024Y-75937976D01*
X110739786Y-75985595D01*
X110549310Y-76033214D01*
X110406452Y-76033214D01*
X110215976Y-75985595D01*
X110120738Y-75937976D01*
X110025500Y-75842738D01*
X109977881Y-75699880D01*
X109977881Y-75604642D01*
X110025500Y-75461785D01*
X110073119Y-75414166D01*
X110406452Y-74842738D02*
X110358833Y-74937976D01*
X110311214Y-74985595D01*
X110215976Y-75033214D01*
X110168357Y-75033214D01*
X110073119Y-74985595D01*
X110025500Y-74937976D01*
X109977881Y-74842738D01*
X109977881Y-74652261D01*
X110025500Y-74557023D01*
X110073119Y-74509404D01*
X110168357Y-74461785D01*
X110215976Y-74461785D01*
X110311214Y-74509404D01*
X110358833Y-74557023D01*
X110406452Y-74652261D01*
X110406452Y-74842738D01*
X110454071Y-74937976D01*
X110501690Y-74985595D01*
X110596929Y-75033214D01*
X110787405Y-75033214D01*
X110882643Y-74985595D01*
X110930262Y-74937976D01*
X110977881Y-74842738D01*
X110977881Y-74652261D01*
X110930262Y-74557023D01*
X110882643Y-74509404D01*
X110787405Y-74461785D01*
X110596929Y-74461785D01*
X110501690Y-74509404D01*
X110454071Y-74557023D01*
X110406452Y-74652261D01*
X95353381Y-94956238D02*
X95353381Y-95527667D01*
X95353381Y-95241953D02*
X94353381Y-95241953D01*
X94496238Y-95337191D01*
X94591476Y-95432429D01*
X94639095Y-95527667D01*
X94686714Y-94527667D02*
X95353381Y-94527667D01*
X94781952Y-94527667D02*
X94734333Y-94480048D01*
X94686714Y-94384810D01*
X94686714Y-94241952D01*
X94734333Y-94146714D01*
X94829571Y-94099095D01*
X95353381Y-94099095D01*
X94829571Y-93289571D02*
X94829571Y-93622905D01*
X95353381Y-93622905D02*
X94353381Y-93622905D01*
X94353381Y-93146714D01*
X99008143Y-94527666D02*
X99055762Y-94575285D01*
X99103381Y-94718142D01*
X99103381Y-94813380D01*
X99055762Y-94956238D01*
X98960524Y-95051476D01*
X98865286Y-95099095D01*
X98674810Y-95146714D01*
X98531952Y-95146714D01*
X98341476Y-95099095D01*
X98246238Y-95051476D01*
X98151000Y-94956238D01*
X98103381Y-94813380D01*
X98103381Y-94718142D01*
X98151000Y-94575285D01*
X98198619Y-94527666D01*
X99103381Y-94051476D02*
X99103381Y-93861000D01*
X99055762Y-93765761D01*
X99008143Y-93718142D01*
X98865286Y-93622904D01*
X98674810Y-93575285D01*
X98293857Y-93575285D01*
X98198619Y-93622904D01*
X98151000Y-93670523D01*
X98103381Y-93765761D01*
X98103381Y-93956238D01*
X98151000Y-94051476D01*
X98198619Y-94099095D01*
X98293857Y-94146714D01*
X98531952Y-94146714D01*
X98627190Y-94099095D01*
X98674810Y-94051476D01*
X98722429Y-93956238D01*
X98722429Y-93765761D01*
X98674810Y-93670523D01*
X98627190Y-93622904D01*
X98531952Y-93575285D01*
X76937881Y-75842738D02*
X76937881Y-76414167D01*
X76937881Y-76128453D02*
X75937881Y-76128453D01*
X76080738Y-76223691D01*
X76175976Y-76318929D01*
X76223595Y-76414167D01*
X76271214Y-75414167D02*
X76937881Y-75414167D01*
X76366452Y-75414167D02*
X76318833Y-75366548D01*
X76271214Y-75271310D01*
X76271214Y-75128452D01*
X76318833Y-75033214D01*
X76414071Y-74985595D01*
X76937881Y-74985595D01*
X76414071Y-74176071D02*
X76414071Y-74509405D01*
X76937881Y-74509405D02*
X75937881Y-74509405D01*
X75937881Y-74033214D01*
X73092643Y-75890357D02*
X73140262Y-75937976D01*
X73187881Y-76080833D01*
X73187881Y-76176071D01*
X73140262Y-76318929D01*
X73045024Y-76414167D01*
X72949786Y-76461786D01*
X72759310Y-76509405D01*
X72616452Y-76509405D01*
X72425976Y-76461786D01*
X72330738Y-76414167D01*
X72235500Y-76318929D01*
X72187881Y-76176071D01*
X72187881Y-76080833D01*
X72235500Y-75937976D01*
X72283119Y-75890357D01*
X73187881Y-74937976D02*
X73187881Y-75509405D01*
X73187881Y-75223691D02*
X72187881Y-75223691D01*
X72330738Y-75318929D01*
X72425976Y-75414167D01*
X72473595Y-75509405D01*
X72187881Y-74318929D02*
X72187881Y-74223690D01*
X72235500Y-74128452D01*
X72283119Y-74080833D01*
X72378357Y-74033214D01*
X72568833Y-73985595D01*
X72806929Y-73985595D01*
X72997405Y-74033214D01*
X73092643Y-74080833D01*
X73140262Y-74128452D01*
X73187881Y-74223690D01*
X73187881Y-74318929D01*
X73140262Y-74414167D01*
X73092643Y-74461786D01*
X72997405Y-74509405D01*
X72806929Y-74557024D01*
X72568833Y-74557024D01*
X72378357Y-74509405D01*
X72283119Y-74461786D01*
X72235500Y-74414167D01*
X72187881Y-74318929D01*
X93765762Y-99163381D02*
X93194333Y-99163381D01*
X93480047Y-99163381D02*
X93480047Y-98163381D01*
X93384809Y-98306238D01*
X93289571Y-98401476D01*
X93194333Y-98449095D01*
X94194333Y-98496714D02*
X94194333Y-99163381D01*
X94194333Y-98591952D02*
X94241952Y-98544333D01*
X94337190Y-98496714D01*
X94480048Y-98496714D01*
X94575286Y-98544333D01*
X94622905Y-98639571D01*
X94622905Y-99163381D01*
X95432429Y-98639571D02*
X95099095Y-98639571D01*
X95099095Y-99163381D02*
X95099095Y-98163381D01*
X95575286Y-98163381D01*
X93718143Y-102818143D02*
X93670524Y-102865762D01*
X93527667Y-102913381D01*
X93432429Y-102913381D01*
X93289571Y-102865762D01*
X93194333Y-102770524D01*
X93146714Y-102675286D01*
X93099095Y-102484810D01*
X93099095Y-102341952D01*
X93146714Y-102151476D01*
X93194333Y-102056238D01*
X93289571Y-101961000D01*
X93432429Y-101913381D01*
X93527667Y-101913381D01*
X93670524Y-101961000D01*
X93718143Y-102008619D01*
X94670524Y-102913381D02*
X94099095Y-102913381D01*
X94384809Y-102913381D02*
X94384809Y-101913381D01*
X94289571Y-102056238D01*
X94194333Y-102151476D01*
X94099095Y-102199095D01*
X95622905Y-102913381D02*
X95051476Y-102913381D01*
X95337190Y-102913381D02*
X95337190Y-101913381D01*
X95241952Y-102056238D01*
X95146714Y-102151476D01*
X95051476Y-102199095D01*
X94210262Y-80049881D02*
X93638833Y-80049881D01*
X93924547Y-80049881D02*
X93924547Y-79049881D01*
X93829309Y-79192738D01*
X93734071Y-79287976D01*
X93638833Y-79335595D01*
X94638833Y-79383214D02*
X94638833Y-80049881D01*
X94638833Y-79478452D02*
X94686452Y-79430833D01*
X94781690Y-79383214D01*
X94924548Y-79383214D01*
X95019786Y-79430833D01*
X95067405Y-79526071D01*
X95067405Y-80049881D01*
X95876929Y-79526071D02*
X95543595Y-79526071D01*
X95543595Y-80049881D02*
X95543595Y-79049881D01*
X96019786Y-79049881D01*
X94162643Y-83704643D02*
X94115024Y-83752262D01*
X93972167Y-83799881D01*
X93876929Y-83799881D01*
X93734071Y-83752262D01*
X93638833Y-83657024D01*
X93591214Y-83561786D01*
X93543595Y-83371310D01*
X93543595Y-83228452D01*
X93591214Y-83037976D01*
X93638833Y-82942738D01*
X93734071Y-82847500D01*
X93876929Y-82799881D01*
X93972167Y-82799881D01*
X94115024Y-82847500D01*
X94162643Y-82895119D01*
X95115024Y-83799881D02*
X94543595Y-83799881D01*
X94829309Y-83799881D02*
X94829309Y-82799881D01*
X94734071Y-82942738D01*
X94638833Y-83037976D01*
X94543595Y-83085595D01*
X95495976Y-82895119D02*
X95543595Y-82847500D01*
X95638833Y-82799881D01*
X95876929Y-82799881D01*
X95972167Y-82847500D01*
X96019786Y-82895119D01*
X96067405Y-82990357D01*
X96067405Y-83085595D01*
X96019786Y-83228452D01*
X95448357Y-83799881D01*
X96067405Y-83799881D01*
X106783381Y-94956238D02*
X106783381Y-95527667D01*
X106783381Y-95241953D02*
X105783381Y-95241953D01*
X105926238Y-95337191D01*
X106021476Y-95432429D01*
X106069095Y-95527667D01*
X106116714Y-94527667D02*
X106783381Y-94527667D01*
X106211952Y-94527667D02*
X106164333Y-94480048D01*
X106116714Y-94384810D01*
X106116714Y-94241952D01*
X106164333Y-94146714D01*
X106259571Y-94099095D01*
X106783381Y-94099095D01*
X106259571Y-93289571D02*
X106259571Y-93622905D01*
X106783381Y-93622905D02*
X105783381Y-93622905D01*
X105783381Y-93146714D01*
X110438143Y-95003857D02*
X110485762Y-95051476D01*
X110533381Y-95194333D01*
X110533381Y-95289571D01*
X110485762Y-95432429D01*
X110390524Y-95527667D01*
X110295286Y-95575286D01*
X110104810Y-95622905D01*
X109961952Y-95622905D01*
X109771476Y-95575286D01*
X109676238Y-95527667D01*
X109581000Y-95432429D01*
X109533381Y-95289571D01*
X109533381Y-95194333D01*
X109581000Y-95051476D01*
X109628619Y-95003857D01*
X110533381Y-94051476D02*
X110533381Y-94622905D01*
X110533381Y-94337191D02*
X109533381Y-94337191D01*
X109676238Y-94432429D01*
X109771476Y-94527667D01*
X109819095Y-94622905D01*
X109533381Y-93718143D02*
X109533381Y-93099095D01*
X109914333Y-93432429D01*
X109914333Y-93289571D01*
X109961952Y-93194333D01*
X110009571Y-93146714D01*
X110104810Y-93099095D01*
X110342905Y-93099095D01*
X110438143Y-93146714D01*
X110485762Y-93194333D01*
X110533381Y-93289571D01*
X110533381Y-93575286D01*
X110485762Y-93670524D01*
X110438143Y-93718143D01*
X103417881Y-75842738D02*
X103417881Y-76414167D01*
X103417881Y-76128453D02*
X102417881Y-76128453D01*
X102560738Y-76223691D01*
X102655976Y-76318929D01*
X102703595Y-76414167D01*
X102751214Y-75414167D02*
X103417881Y-75414167D01*
X102846452Y-75414167D02*
X102798833Y-75366548D01*
X102751214Y-75271310D01*
X102751214Y-75128452D01*
X102798833Y-75033214D01*
X102894071Y-74985595D01*
X103417881Y-74985595D01*
X102894071Y-74176071D02*
X102894071Y-74509405D01*
X103417881Y-74509405D02*
X102417881Y-74509405D01*
X102417881Y-74033214D01*
X107072643Y-75890357D02*
X107120262Y-75937976D01*
X107167881Y-76080833D01*
X107167881Y-76176071D01*
X107120262Y-76318929D01*
X107025024Y-76414167D01*
X106929786Y-76461786D01*
X106739310Y-76509405D01*
X106596452Y-76509405D01*
X106405976Y-76461786D01*
X106310738Y-76414167D01*
X106215500Y-76318929D01*
X106167881Y-76176071D01*
X106167881Y-76080833D01*
X106215500Y-75937976D01*
X106263119Y-75890357D01*
X107167881Y-74937976D02*
X107167881Y-75509405D01*
X107167881Y-75223691D02*
X106167881Y-75223691D01*
X106310738Y-75318929D01*
X106405976Y-75414167D01*
X106453595Y-75509405D01*
X106501214Y-74080833D02*
X107167881Y-74080833D01*
X106120262Y-74318929D02*
X106834548Y-74557024D01*
X106834548Y-73937976D01*
X99163381Y-94956238D02*
X99163381Y-95527667D01*
X99163381Y-95241953D02*
X98163381Y-95241953D01*
X98306238Y-95337191D01*
X98401476Y-95432429D01*
X98449095Y-95527667D01*
X98496714Y-94527667D02*
X99163381Y-94527667D01*
X98591952Y-94527667D02*
X98544333Y-94480048D01*
X98496714Y-94384810D01*
X98496714Y-94241952D01*
X98544333Y-94146714D01*
X98639571Y-94099095D01*
X99163381Y-94099095D01*
X98639571Y-93289571D02*
X98639571Y-93622905D01*
X99163381Y-93622905D02*
X98163381Y-93622905D01*
X98163381Y-93146714D01*
X102818143Y-95003857D02*
X102865762Y-95051476D01*
X102913381Y-95194333D01*
X102913381Y-95289571D01*
X102865762Y-95432429D01*
X102770524Y-95527667D01*
X102675286Y-95575286D01*
X102484810Y-95622905D01*
X102341952Y-95622905D01*
X102151476Y-95575286D01*
X102056238Y-95527667D01*
X101961000Y-95432429D01*
X101913381Y-95289571D01*
X101913381Y-95194333D01*
X101961000Y-95051476D01*
X102008619Y-95003857D01*
X102913381Y-94051476D02*
X102913381Y-94622905D01*
X102913381Y-94337191D02*
X101913381Y-94337191D01*
X102056238Y-94432429D01*
X102151476Y-94527667D01*
X102199095Y-94622905D01*
X101913381Y-93146714D02*
X101913381Y-93622905D01*
X102389571Y-93670524D01*
X102341952Y-93622905D01*
X102294333Y-93527667D01*
X102294333Y-93289571D01*
X102341952Y-93194333D01*
X102389571Y-93146714D01*
X102484810Y-93099095D01*
X102722905Y-93099095D01*
X102818143Y-93146714D01*
X102865762Y-93194333D01*
X102913381Y-93289571D01*
X102913381Y-93527667D01*
X102865762Y-93622905D01*
X102818143Y-93670524D01*
X99607881Y-75842738D02*
X99607881Y-76414167D01*
X99607881Y-76128453D02*
X98607881Y-76128453D01*
X98750738Y-76223691D01*
X98845976Y-76318929D01*
X98893595Y-76414167D01*
X98941214Y-75414167D02*
X99607881Y-75414167D01*
X99036452Y-75414167D02*
X98988833Y-75366548D01*
X98941214Y-75271310D01*
X98941214Y-75128452D01*
X98988833Y-75033214D01*
X99084071Y-74985595D01*
X99607881Y-74985595D01*
X99084071Y-74176071D02*
X99084071Y-74509405D01*
X99607881Y-74509405D02*
X98607881Y-74509405D01*
X98607881Y-74033214D01*
X103262643Y-75890357D02*
X103310262Y-75937976D01*
X103357881Y-76080833D01*
X103357881Y-76176071D01*
X103310262Y-76318929D01*
X103215024Y-76414167D01*
X103119786Y-76461786D01*
X102929310Y-76509405D01*
X102786452Y-76509405D01*
X102595976Y-76461786D01*
X102500738Y-76414167D01*
X102405500Y-76318929D01*
X102357881Y-76176071D01*
X102357881Y-76080833D01*
X102405500Y-75937976D01*
X102453119Y-75890357D01*
X103357881Y-74937976D02*
X103357881Y-75509405D01*
X103357881Y-75223691D02*
X102357881Y-75223691D01*
X102500738Y-75318929D01*
X102595976Y-75414167D01*
X102643595Y-75509405D01*
X102357881Y-74080833D02*
X102357881Y-74271310D01*
X102405500Y-74366548D01*
X102453119Y-74414167D01*
X102595976Y-74509405D01*
X102786452Y-74557024D01*
X103167405Y-74557024D01*
X103262643Y-74509405D01*
X103310262Y-74461786D01*
X103357881Y-74366548D01*
X103357881Y-74176071D01*
X103310262Y-74080833D01*
X103262643Y-74033214D01*
X103167405Y-73985595D01*
X102929310Y-73985595D01*
X102834071Y-74033214D01*
X102786452Y-74080833D01*
X102738833Y-74176071D01*
X102738833Y-74366548D01*
X102786452Y-74461786D01*
X102834071Y-74509405D01*
X102929310Y-74557024D01*
X102973381Y-94956238D02*
X102973381Y-95527667D01*
X102973381Y-95241953D02*
X101973381Y-95241953D01*
X102116238Y-95337191D01*
X102211476Y-95432429D01*
X102259095Y-95527667D01*
X102306714Y-94527667D02*
X102973381Y-94527667D01*
X102401952Y-94527667D02*
X102354333Y-94480048D01*
X102306714Y-94384810D01*
X102306714Y-94241952D01*
X102354333Y-94146714D01*
X102449571Y-94099095D01*
X102973381Y-94099095D01*
X102449571Y-93289571D02*
X102449571Y-93622905D01*
X102973381Y-93622905D02*
X101973381Y-93622905D01*
X101973381Y-93146714D01*
X106628143Y-95003857D02*
X106675762Y-95051476D01*
X106723381Y-95194333D01*
X106723381Y-95289571D01*
X106675762Y-95432429D01*
X106580524Y-95527667D01*
X106485286Y-95575286D01*
X106294810Y-95622905D01*
X106151952Y-95622905D01*
X105961476Y-95575286D01*
X105866238Y-95527667D01*
X105771000Y-95432429D01*
X105723381Y-95289571D01*
X105723381Y-95194333D01*
X105771000Y-95051476D01*
X105818619Y-95003857D01*
X106723381Y-94051476D02*
X106723381Y-94622905D01*
X106723381Y-94337191D02*
X105723381Y-94337191D01*
X105866238Y-94432429D01*
X105961476Y-94527667D01*
X106009095Y-94622905D01*
X105723381Y-93718143D02*
X105723381Y-93051476D01*
X106723381Y-93480048D01*
X95797881Y-75842738D02*
X95797881Y-76414167D01*
X95797881Y-76128453D02*
X94797881Y-76128453D01*
X94940738Y-76223691D01*
X95035976Y-76318929D01*
X95083595Y-76414167D01*
X95131214Y-75414167D02*
X95797881Y-75414167D01*
X95226452Y-75414167D02*
X95178833Y-75366548D01*
X95131214Y-75271310D01*
X95131214Y-75128452D01*
X95178833Y-75033214D01*
X95274071Y-74985595D01*
X95797881Y-74985595D01*
X95274071Y-74176071D02*
X95274071Y-74509405D01*
X95797881Y-74509405D02*
X94797881Y-74509405D01*
X94797881Y-74033214D01*
X99452643Y-75890357D02*
X99500262Y-75937976D01*
X99547881Y-76080833D01*
X99547881Y-76176071D01*
X99500262Y-76318929D01*
X99405024Y-76414167D01*
X99309786Y-76461786D01*
X99119310Y-76509405D01*
X98976452Y-76509405D01*
X98785976Y-76461786D01*
X98690738Y-76414167D01*
X98595500Y-76318929D01*
X98547881Y-76176071D01*
X98547881Y-76080833D01*
X98595500Y-75937976D01*
X98643119Y-75890357D01*
X99547881Y-74937976D02*
X99547881Y-75509405D01*
X99547881Y-75223691D02*
X98547881Y-75223691D01*
X98690738Y-75318929D01*
X98785976Y-75414167D01*
X98833595Y-75509405D01*
X98976452Y-74366548D02*
X98928833Y-74461786D01*
X98881214Y-74509405D01*
X98785976Y-74557024D01*
X98738357Y-74557024D01*
X98643119Y-74509405D01*
X98595500Y-74461786D01*
X98547881Y-74366548D01*
X98547881Y-74176071D01*
X98595500Y-74080833D01*
X98643119Y-74033214D01*
X98738357Y-73985595D01*
X98785976Y-73985595D01*
X98881214Y-74033214D01*
X98928833Y-74080833D01*
X98976452Y-74176071D01*
X98976452Y-74366548D01*
X99024071Y-74461786D01*
X99071690Y-74509405D01*
X99166929Y-74557024D01*
X99357405Y-74557024D01*
X99452643Y-74509405D01*
X99500262Y-74461786D01*
X99547881Y-74366548D01*
X99547881Y-74176071D01*
X99500262Y-74080833D01*
X99452643Y-74033214D01*
X99357405Y-73985595D01*
X99166929Y-73985595D01*
X99071690Y-74033214D01*
X99024071Y-74080833D01*
X98976452Y-74176071D01*
X72747381Y-130897238D02*
X72747381Y-131468667D01*
X72747381Y-131182953D02*
X71747381Y-131182953D01*
X71890238Y-131278191D01*
X71985476Y-131373429D01*
X72033095Y-131468667D01*
X72080714Y-130468667D02*
X72747381Y-130468667D01*
X72175952Y-130468667D02*
X72128333Y-130421048D01*
X72080714Y-130325810D01*
X72080714Y-130182952D01*
X72128333Y-130087714D01*
X72223571Y-130040095D01*
X72747381Y-130040095D01*
X72223571Y-129230571D02*
X72223571Y-129563905D01*
X72747381Y-129563905D02*
X71747381Y-129563905D01*
X71747381Y-129087714D01*
X76402143Y-130944857D02*
X76449762Y-130992476D01*
X76497381Y-131135333D01*
X76497381Y-131230571D01*
X76449762Y-131373429D01*
X76354524Y-131468667D01*
X76259286Y-131516286D01*
X76068810Y-131563905D01*
X75925952Y-131563905D01*
X75735476Y-131516286D01*
X75640238Y-131468667D01*
X75545000Y-131373429D01*
X75497381Y-131230571D01*
X75497381Y-131135333D01*
X75545000Y-130992476D01*
X75592619Y-130944857D01*
X76497381Y-129992476D02*
X76497381Y-130563905D01*
X76497381Y-130278191D02*
X75497381Y-130278191D01*
X75640238Y-130373429D01*
X75735476Y-130468667D01*
X75783095Y-130563905D01*
X76497381Y-129516286D02*
X76497381Y-129325810D01*
X76449762Y-129230571D01*
X76402143Y-129182952D01*
X76259286Y-129087714D01*
X76068810Y-129040095D01*
X75687857Y-129040095D01*
X75592619Y-129087714D01*
X75545000Y-129135333D01*
X75497381Y-129230571D01*
X75497381Y-129421048D01*
X75545000Y-129516286D01*
X75592619Y-129563905D01*
X75687857Y-129611524D01*
X75925952Y-129611524D01*
X76021190Y-129563905D01*
X76068810Y-129516286D01*
X76116429Y-129421048D01*
X76116429Y-129230571D01*
X76068810Y-129135333D01*
X76021190Y-129087714D01*
X75925952Y-129040095D01*
X109767381Y-130897238D02*
X109767381Y-131468667D01*
X109767381Y-131182953D02*
X108767381Y-131182953D01*
X108910238Y-131278191D01*
X109005476Y-131373429D01*
X109053095Y-131468667D01*
X109100714Y-130468667D02*
X109767381Y-130468667D01*
X109195952Y-130468667D02*
X109148333Y-130421048D01*
X109100714Y-130325810D01*
X109100714Y-130182952D01*
X109148333Y-130087714D01*
X109243571Y-130040095D01*
X109767381Y-130040095D01*
X109243571Y-129230571D02*
X109243571Y-129563905D01*
X109767381Y-129563905D02*
X108767381Y-129563905D01*
X108767381Y-129087714D01*
X105922143Y-130944857D02*
X105969762Y-130992476D01*
X106017381Y-131135333D01*
X106017381Y-131230571D01*
X105969762Y-131373429D01*
X105874524Y-131468667D01*
X105779286Y-131516286D01*
X105588810Y-131563905D01*
X105445952Y-131563905D01*
X105255476Y-131516286D01*
X105160238Y-131468667D01*
X105065000Y-131373429D01*
X105017381Y-131230571D01*
X105017381Y-131135333D01*
X105065000Y-130992476D01*
X105112619Y-130944857D01*
X105112619Y-130563905D02*
X105065000Y-130516286D01*
X105017381Y-130421048D01*
X105017381Y-130182952D01*
X105065000Y-130087714D01*
X105112619Y-130040095D01*
X105207857Y-129992476D01*
X105303095Y-129992476D01*
X105445952Y-130040095D01*
X106017381Y-130611524D01*
X106017381Y-129992476D01*
X105017381Y-129373429D02*
X105017381Y-129278190D01*
X105065000Y-129182952D01*
X105112619Y-129135333D01*
X105207857Y-129087714D01*
X105398333Y-129040095D01*
X105636429Y-129040095D01*
X105826905Y-129087714D01*
X105922143Y-129135333D01*
X105969762Y-129182952D01*
X106017381Y-129278190D01*
X106017381Y-129373429D01*
X105969762Y-129468667D01*
X105922143Y-129516286D01*
X105826905Y-129563905D01*
X105636429Y-129611524D01*
X105398333Y-129611524D01*
X105207857Y-129563905D01*
X105112619Y-129516286D01*
X105065000Y-129468667D01*
X105017381Y-129373429D01*
X95607381Y-130837238D02*
X95607381Y-131408667D01*
X95607381Y-131122953D02*
X94607381Y-131122953D01*
X94750238Y-131218191D01*
X94845476Y-131313429D01*
X94893095Y-131408667D01*
X94940714Y-130408667D02*
X95607381Y-130408667D01*
X95035952Y-130408667D02*
X94988333Y-130361048D01*
X94940714Y-130265810D01*
X94940714Y-130122952D01*
X94988333Y-130027714D01*
X95083571Y-129980095D01*
X95607381Y-129980095D01*
X95083571Y-129170571D02*
X95083571Y-129503905D01*
X95607381Y-129503905D02*
X94607381Y-129503905D01*
X94607381Y-129027714D01*
X99262143Y-130884857D02*
X99309762Y-130932476D01*
X99357381Y-131075333D01*
X99357381Y-131170571D01*
X99309762Y-131313429D01*
X99214524Y-131408667D01*
X99119286Y-131456286D01*
X98928810Y-131503905D01*
X98785952Y-131503905D01*
X98595476Y-131456286D01*
X98500238Y-131408667D01*
X98405000Y-131313429D01*
X98357381Y-131170571D01*
X98357381Y-131075333D01*
X98405000Y-130932476D01*
X98452619Y-130884857D01*
X98452619Y-130503905D02*
X98405000Y-130456286D01*
X98357381Y-130361048D01*
X98357381Y-130122952D01*
X98405000Y-130027714D01*
X98452619Y-129980095D01*
X98547857Y-129932476D01*
X98643095Y-129932476D01*
X98785952Y-129980095D01*
X99357381Y-130551524D01*
X99357381Y-129932476D01*
X99357381Y-128980095D02*
X99357381Y-129551524D01*
X99357381Y-129265810D02*
X98357381Y-129265810D01*
X98500238Y-129361048D01*
X98595476Y-129456286D01*
X98643095Y-129551524D01*
X102357381Y-130837238D02*
X102357381Y-131408667D01*
X102357381Y-131122953D02*
X101357381Y-131122953D01*
X101500238Y-131218191D01*
X101595476Y-131313429D01*
X101643095Y-131408667D01*
X101690714Y-130408667D02*
X102357381Y-130408667D01*
X101785952Y-130408667D02*
X101738333Y-130361048D01*
X101690714Y-130265810D01*
X101690714Y-130122952D01*
X101738333Y-130027714D01*
X101833571Y-129980095D01*
X102357381Y-129980095D01*
X101833571Y-129170571D02*
X101833571Y-129503905D01*
X102357381Y-129503905D02*
X101357381Y-129503905D01*
X101357381Y-129027714D01*
X106012143Y-130884857D02*
X106059762Y-130932476D01*
X106107381Y-131075333D01*
X106107381Y-131170571D01*
X106059762Y-131313429D01*
X105964524Y-131408667D01*
X105869286Y-131456286D01*
X105678810Y-131503905D01*
X105535952Y-131503905D01*
X105345476Y-131456286D01*
X105250238Y-131408667D01*
X105155000Y-131313429D01*
X105107381Y-131170571D01*
X105107381Y-131075333D01*
X105155000Y-130932476D01*
X105202619Y-130884857D01*
X105202619Y-130503905D02*
X105155000Y-130456286D01*
X105107381Y-130361048D01*
X105107381Y-130122952D01*
X105155000Y-130027714D01*
X105202619Y-129980095D01*
X105297857Y-129932476D01*
X105393095Y-129932476D01*
X105535952Y-129980095D01*
X106107381Y-130551524D01*
X106107381Y-129932476D01*
X105202619Y-129551524D02*
X105155000Y-129503905D01*
X105107381Y-129408667D01*
X105107381Y-129170571D01*
X105155000Y-129075333D01*
X105202619Y-129027714D01*
X105297857Y-128980095D01*
X105393095Y-128980095D01*
X105535952Y-129027714D01*
X106107381Y-129599143D01*
X106107381Y-128980095D01*
X92809762Y-138194381D02*
X92238333Y-138194381D01*
X92524047Y-138194381D02*
X92524047Y-137194381D01*
X92428809Y-137337238D01*
X92333571Y-137432476D01*
X92238333Y-137480095D01*
X93238333Y-137527714D02*
X93238333Y-138194381D01*
X93238333Y-137622952D02*
X93285952Y-137575333D01*
X93381190Y-137527714D01*
X93524048Y-137527714D01*
X93619286Y-137575333D01*
X93666905Y-137670571D01*
X93666905Y-138194381D01*
X94476429Y-137670571D02*
X94143095Y-137670571D01*
X94143095Y-138194381D02*
X94143095Y-137194381D01*
X94619286Y-137194381D01*
X92762143Y-134349143D02*
X92714524Y-134396762D01*
X92571667Y-134444381D01*
X92476429Y-134444381D01*
X92333571Y-134396762D01*
X92238333Y-134301524D01*
X92190714Y-134206286D01*
X92143095Y-134015810D01*
X92143095Y-133872952D01*
X92190714Y-133682476D01*
X92238333Y-133587238D01*
X92333571Y-133492000D01*
X92476429Y-133444381D01*
X92571667Y-133444381D01*
X92714524Y-133492000D01*
X92762143Y-133539619D01*
X93143095Y-133539619D02*
X93190714Y-133492000D01*
X93285952Y-133444381D01*
X93524048Y-133444381D01*
X93619286Y-133492000D01*
X93666905Y-133539619D01*
X93714524Y-133634857D01*
X93714524Y-133730095D01*
X93666905Y-133872952D01*
X93095476Y-134444381D01*
X93714524Y-134444381D01*
X94047857Y-133444381D02*
X94666905Y-133444381D01*
X94333571Y-133825333D01*
X94476429Y-133825333D01*
X94571667Y-133872952D01*
X94619286Y-133920571D01*
X94666905Y-134015810D01*
X94666905Y-134253905D01*
X94619286Y-134349143D01*
X94571667Y-134396762D01*
X94476429Y-134444381D01*
X94190714Y-134444381D01*
X94095476Y-134396762D01*
X94047857Y-134349143D01*
X99107381Y-130837238D02*
X99107381Y-131408667D01*
X99107381Y-131122953D02*
X98107381Y-131122953D01*
X98250238Y-131218191D01*
X98345476Y-131313429D01*
X98393095Y-131408667D01*
X98440714Y-130408667D02*
X99107381Y-130408667D01*
X98535952Y-130408667D02*
X98488333Y-130361048D01*
X98440714Y-130265810D01*
X98440714Y-130122952D01*
X98488333Y-130027714D01*
X98583571Y-129980095D01*
X99107381Y-129980095D01*
X98583571Y-129170571D02*
X98583571Y-129503905D01*
X99107381Y-129503905D02*
X98107381Y-129503905D01*
X98107381Y-129027714D01*
X102762143Y-130884857D02*
X102809762Y-130932476D01*
X102857381Y-131075333D01*
X102857381Y-131170571D01*
X102809762Y-131313429D01*
X102714524Y-131408667D01*
X102619286Y-131456286D01*
X102428810Y-131503905D01*
X102285952Y-131503905D01*
X102095476Y-131456286D01*
X102000238Y-131408667D01*
X101905000Y-131313429D01*
X101857381Y-131170571D01*
X101857381Y-131075333D01*
X101905000Y-130932476D01*
X101952619Y-130884857D01*
X101952619Y-130503905D02*
X101905000Y-130456286D01*
X101857381Y-130361048D01*
X101857381Y-130122952D01*
X101905000Y-130027714D01*
X101952619Y-129980095D01*
X102047857Y-129932476D01*
X102143095Y-129932476D01*
X102285952Y-129980095D01*
X102857381Y-130551524D01*
X102857381Y-129932476D01*
X102190714Y-129075333D02*
X102857381Y-129075333D01*
X101809762Y-129313429D02*
X102524048Y-129551524D01*
X102524048Y-128932476D01*
X53619285Y-140599143D02*
X53571666Y-140646762D01*
X53428809Y-140694381D01*
X53333571Y-140694381D01*
X53190713Y-140646762D01*
X53095475Y-140551524D01*
X53047856Y-140456286D01*
X53000237Y-140265810D01*
X53000237Y-140122952D01*
X53047856Y-139932476D01*
X53095475Y-139837238D01*
X53190713Y-139742000D01*
X53333571Y-139694381D01*
X53428809Y-139694381D01*
X53571666Y-139742000D01*
X53619285Y-139789619D01*
X54190713Y-140694381D02*
X54095475Y-140646762D01*
X54047856Y-140599143D01*
X54000237Y-140503905D01*
X54000237Y-140218190D01*
X54047856Y-140122952D01*
X54095475Y-140075333D01*
X54190713Y-140027714D01*
X54333571Y-140027714D01*
X54428809Y-140075333D01*
X54476428Y-140122952D01*
X54524047Y-140218190D01*
X54524047Y-140503905D01*
X54476428Y-140599143D01*
X54428809Y-140646762D01*
X54333571Y-140694381D01*
X54190713Y-140694381D01*
X54952618Y-140027714D02*
X54952618Y-140694381D01*
X54952618Y-140122952D02*
X55000237Y-140075333D01*
X55095475Y-140027714D01*
X55238333Y-140027714D01*
X55333571Y-140075333D01*
X55381190Y-140170571D01*
X55381190Y-140694381D01*
X55857380Y-140027714D02*
X55857380Y-140694381D01*
X55857380Y-140122952D02*
X55904999Y-140075333D01*
X56000237Y-140027714D01*
X56143095Y-140027714D01*
X56238333Y-140075333D01*
X56285952Y-140170571D01*
X56285952Y-140694381D01*
X56524047Y-140789619D02*
X57285952Y-140789619D01*
X58095476Y-140599143D02*
X58047857Y-140646762D01*
X57905000Y-140694381D01*
X57809762Y-140694381D01*
X57666904Y-140646762D01*
X57571666Y-140551524D01*
X57524047Y-140456286D01*
X57476428Y-140265810D01*
X57476428Y-140122952D01*
X57524047Y-139932476D01*
X57571666Y-139837238D01*
X57666904Y-139742000D01*
X57809762Y-139694381D01*
X57905000Y-139694381D01*
X58047857Y-139742000D01*
X58095476Y-139789619D01*
X58666904Y-140694381D02*
X58571666Y-140646762D01*
X58524047Y-140599143D01*
X58476428Y-140503905D01*
X58476428Y-140218190D01*
X58524047Y-140122952D01*
X58571666Y-140075333D01*
X58666904Y-140027714D01*
X58809762Y-140027714D01*
X58905000Y-140075333D01*
X58952619Y-140122952D01*
X59000238Y-140218190D01*
X59000238Y-140503905D01*
X58952619Y-140599143D01*
X58905000Y-140646762D01*
X58809762Y-140694381D01*
X58666904Y-140694381D01*
X59857381Y-140694381D02*
X59857381Y-140170571D01*
X59809762Y-140075333D01*
X59714524Y-140027714D01*
X59524047Y-140027714D01*
X59428809Y-140075333D01*
X59857381Y-140646762D02*
X59762143Y-140694381D01*
X59524047Y-140694381D01*
X59428809Y-140646762D01*
X59381190Y-140551524D01*
X59381190Y-140456286D01*
X59428809Y-140361048D01*
X59524047Y-140313429D01*
X59762143Y-140313429D01*
X59857381Y-140265810D01*
X60238333Y-140694381D02*
X60762143Y-140027714D01*
X60238333Y-140027714D02*
X60762143Y-140694381D01*
X61143095Y-140694381D02*
X61143095Y-140027714D01*
X61143095Y-139694381D02*
X61095476Y-139742000D01*
X61143095Y-139789619D01*
X61190714Y-139742000D01*
X61143095Y-139694381D01*
X61143095Y-139789619D01*
X62047857Y-140694381D02*
X62047857Y-140170571D01*
X62000238Y-140075333D01*
X61905000Y-140027714D01*
X61714523Y-140027714D01*
X61619285Y-140075333D01*
X62047857Y-140646762D02*
X61952619Y-140694381D01*
X61714523Y-140694381D01*
X61619285Y-140646762D01*
X61571666Y-140551524D01*
X61571666Y-140456286D01*
X61619285Y-140361048D01*
X61714523Y-140313429D01*
X61952619Y-140313429D01*
X62047857Y-140265810D01*
X62666904Y-140694381D02*
X62571666Y-140646762D01*
X62524047Y-140551524D01*
X62524047Y-139694381D01*
X62809762Y-140789619D02*
X63571667Y-140789619D01*
X63809762Y-140694381D02*
X63809762Y-139694381D01*
X64190715Y-139694381D01*
X64285953Y-139742000D01*
X64333572Y-139789619D01*
X64381191Y-139884857D01*
X64381191Y-140027714D01*
X64333572Y-140122952D01*
X64285953Y-140170571D01*
X64190715Y-140218190D01*
X63809762Y-140218190D01*
X64952619Y-140694381D02*
X64857381Y-140646762D01*
X64809762Y-140599143D01*
X64762143Y-140503905D01*
X64762143Y-140218190D01*
X64809762Y-140122952D01*
X64857381Y-140075333D01*
X64952619Y-140027714D01*
X65095477Y-140027714D01*
X65190715Y-140075333D01*
X65238334Y-140122952D01*
X65285953Y-140218190D01*
X65285953Y-140503905D01*
X65238334Y-140599143D01*
X65190715Y-140646762D01*
X65095477Y-140694381D01*
X64952619Y-140694381D01*
X65619286Y-140027714D02*
X65809762Y-140694381D01*
X66000239Y-140218190D01*
X66190715Y-140694381D01*
X66381191Y-140027714D01*
X67143096Y-140646762D02*
X67047858Y-140694381D01*
X66857381Y-140694381D01*
X66762143Y-140646762D01*
X66714524Y-140551524D01*
X66714524Y-140170571D01*
X66762143Y-140075333D01*
X66857381Y-140027714D01*
X67047858Y-140027714D01*
X67143096Y-140075333D01*
X67190715Y-140170571D01*
X67190715Y-140265810D01*
X66714524Y-140361048D01*
X67619286Y-140694381D02*
X67619286Y-140027714D01*
X67619286Y-140218190D02*
X67666905Y-140122952D01*
X67714524Y-140075333D01*
X67809762Y-140027714D01*
X67905001Y-140027714D01*
X53285285Y-122681143D02*
X53237666Y-122728762D01*
X53094809Y-122776381D01*
X52999571Y-122776381D01*
X52856713Y-122728762D01*
X52761475Y-122633524D01*
X52713856Y-122538286D01*
X52666237Y-122347810D01*
X52666237Y-122204952D01*
X52713856Y-122014476D01*
X52761475Y-121919238D01*
X52856713Y-121824000D01*
X52999571Y-121776381D01*
X53094809Y-121776381D01*
X53237666Y-121824000D01*
X53285285Y-121871619D01*
X53856713Y-122776381D02*
X53761475Y-122728762D01*
X53713856Y-122681143D01*
X53666237Y-122585905D01*
X53666237Y-122300190D01*
X53713856Y-122204952D01*
X53761475Y-122157333D01*
X53856713Y-122109714D01*
X53999571Y-122109714D01*
X54094809Y-122157333D01*
X54142428Y-122204952D01*
X54190047Y-122300190D01*
X54190047Y-122585905D01*
X54142428Y-122681143D01*
X54094809Y-122728762D01*
X53999571Y-122776381D01*
X53856713Y-122776381D01*
X54618618Y-122109714D02*
X54618618Y-122776381D01*
X54618618Y-122204952D02*
X54666237Y-122157333D01*
X54761475Y-122109714D01*
X54904333Y-122109714D01*
X54999571Y-122157333D01*
X55047190Y-122252571D01*
X55047190Y-122776381D01*
X55523380Y-122109714D02*
X55523380Y-122776381D01*
X55523380Y-122204952D02*
X55570999Y-122157333D01*
X55666237Y-122109714D01*
X55809095Y-122109714D01*
X55904333Y-122157333D01*
X55951952Y-122252571D01*
X55951952Y-122776381D01*
X56190047Y-122871619D02*
X56951952Y-122871619D01*
X57761476Y-122681143D02*
X57713857Y-122728762D01*
X57571000Y-122776381D01*
X57475762Y-122776381D01*
X57332904Y-122728762D01*
X57237666Y-122633524D01*
X57190047Y-122538286D01*
X57142428Y-122347810D01*
X57142428Y-122204952D01*
X57190047Y-122014476D01*
X57237666Y-121919238D01*
X57332904Y-121824000D01*
X57475762Y-121776381D01*
X57571000Y-121776381D01*
X57713857Y-121824000D01*
X57761476Y-121871619D01*
X58332904Y-122776381D02*
X58237666Y-122728762D01*
X58190047Y-122681143D01*
X58142428Y-122585905D01*
X58142428Y-122300190D01*
X58190047Y-122204952D01*
X58237666Y-122157333D01*
X58332904Y-122109714D01*
X58475762Y-122109714D01*
X58571000Y-122157333D01*
X58618619Y-122204952D01*
X58666238Y-122300190D01*
X58666238Y-122585905D01*
X58618619Y-122681143D01*
X58571000Y-122728762D01*
X58475762Y-122776381D01*
X58332904Y-122776381D01*
X59523381Y-122776381D02*
X59523381Y-122252571D01*
X59475762Y-122157333D01*
X59380524Y-122109714D01*
X59190047Y-122109714D01*
X59094809Y-122157333D01*
X59523381Y-122728762D02*
X59428143Y-122776381D01*
X59190047Y-122776381D01*
X59094809Y-122728762D01*
X59047190Y-122633524D01*
X59047190Y-122538286D01*
X59094809Y-122443048D01*
X59190047Y-122395429D01*
X59428143Y-122395429D01*
X59523381Y-122347810D01*
X59904333Y-122776381D02*
X60428143Y-122109714D01*
X59904333Y-122109714D02*
X60428143Y-122776381D01*
X60809095Y-122776381D02*
X60809095Y-122109714D01*
X60809095Y-121776381D02*
X60761476Y-121824000D01*
X60809095Y-121871619D01*
X60856714Y-121824000D01*
X60809095Y-121776381D01*
X60809095Y-121871619D01*
X61713857Y-122776381D02*
X61713857Y-122252571D01*
X61666238Y-122157333D01*
X61571000Y-122109714D01*
X61380523Y-122109714D01*
X61285285Y-122157333D01*
X61713857Y-122728762D02*
X61618619Y-122776381D01*
X61380523Y-122776381D01*
X61285285Y-122728762D01*
X61237666Y-122633524D01*
X61237666Y-122538286D01*
X61285285Y-122443048D01*
X61380523Y-122395429D01*
X61618619Y-122395429D01*
X61713857Y-122347810D01*
X62332904Y-122776381D02*
X62237666Y-122728762D01*
X62190047Y-122633524D01*
X62190047Y-121776381D01*
X62475762Y-122871619D02*
X63237667Y-122871619D01*
X63475762Y-122776381D02*
X63475762Y-121776381D01*
X63856715Y-121776381D01*
X63951953Y-121824000D01*
X63999572Y-121871619D01*
X64047191Y-121966857D01*
X64047191Y-122109714D01*
X63999572Y-122204952D01*
X63951953Y-122252571D01*
X63856715Y-122300190D01*
X63475762Y-122300190D01*
X64618619Y-122776381D02*
X64523381Y-122728762D01*
X64475762Y-122681143D01*
X64428143Y-122585905D01*
X64428143Y-122300190D01*
X64475762Y-122204952D01*
X64523381Y-122157333D01*
X64618619Y-122109714D01*
X64761477Y-122109714D01*
X64856715Y-122157333D01*
X64904334Y-122204952D01*
X64951953Y-122300190D01*
X64951953Y-122585905D01*
X64904334Y-122681143D01*
X64856715Y-122728762D01*
X64761477Y-122776381D01*
X64618619Y-122776381D01*
X65285286Y-122109714D02*
X65475762Y-122776381D01*
X65666239Y-122300190D01*
X65856715Y-122776381D01*
X66047191Y-122109714D01*
X66809096Y-122728762D02*
X66713858Y-122776381D01*
X66523381Y-122776381D01*
X66428143Y-122728762D01*
X66380524Y-122633524D01*
X66380524Y-122252571D01*
X66428143Y-122157333D01*
X66523381Y-122109714D01*
X66713858Y-122109714D01*
X66809096Y-122157333D01*
X66856715Y-122252571D01*
X66856715Y-122347810D01*
X66380524Y-122443048D01*
X67285286Y-122776381D02*
X67285286Y-122109714D01*
X67285286Y-122300190D02*
X67332905Y-122204952D01*
X67380524Y-122157333D01*
X67475762Y-122109714D01*
X67571001Y-122109714D01*
X53285285Y-106298143D02*
X53237666Y-106345762D01*
X53094809Y-106393381D01*
X52999571Y-106393381D01*
X52856713Y-106345762D01*
X52761475Y-106250524D01*
X52713856Y-106155286D01*
X52666237Y-105964810D01*
X52666237Y-105821952D01*
X52713856Y-105631476D01*
X52761475Y-105536238D01*
X52856713Y-105441000D01*
X52999571Y-105393381D01*
X53094809Y-105393381D01*
X53237666Y-105441000D01*
X53285285Y-105488619D01*
X53856713Y-106393381D02*
X53761475Y-106345762D01*
X53713856Y-106298143D01*
X53666237Y-106202905D01*
X53666237Y-105917190D01*
X53713856Y-105821952D01*
X53761475Y-105774333D01*
X53856713Y-105726714D01*
X53999571Y-105726714D01*
X54094809Y-105774333D01*
X54142428Y-105821952D01*
X54190047Y-105917190D01*
X54190047Y-106202905D01*
X54142428Y-106298143D01*
X54094809Y-106345762D01*
X53999571Y-106393381D01*
X53856713Y-106393381D01*
X54618618Y-105726714D02*
X54618618Y-106393381D01*
X54618618Y-105821952D02*
X54666237Y-105774333D01*
X54761475Y-105726714D01*
X54904333Y-105726714D01*
X54999571Y-105774333D01*
X55047190Y-105869571D01*
X55047190Y-106393381D01*
X55523380Y-105726714D02*
X55523380Y-106393381D01*
X55523380Y-105821952D02*
X55570999Y-105774333D01*
X55666237Y-105726714D01*
X55809095Y-105726714D01*
X55904333Y-105774333D01*
X55951952Y-105869571D01*
X55951952Y-106393381D01*
X56190047Y-106488619D02*
X56951952Y-106488619D01*
X57761476Y-106298143D02*
X57713857Y-106345762D01*
X57571000Y-106393381D01*
X57475762Y-106393381D01*
X57332904Y-106345762D01*
X57237666Y-106250524D01*
X57190047Y-106155286D01*
X57142428Y-105964810D01*
X57142428Y-105821952D01*
X57190047Y-105631476D01*
X57237666Y-105536238D01*
X57332904Y-105441000D01*
X57475762Y-105393381D01*
X57571000Y-105393381D01*
X57713857Y-105441000D01*
X57761476Y-105488619D01*
X58332904Y-106393381D02*
X58237666Y-106345762D01*
X58190047Y-106298143D01*
X58142428Y-106202905D01*
X58142428Y-105917190D01*
X58190047Y-105821952D01*
X58237666Y-105774333D01*
X58332904Y-105726714D01*
X58475762Y-105726714D01*
X58571000Y-105774333D01*
X58618619Y-105821952D01*
X58666238Y-105917190D01*
X58666238Y-106202905D01*
X58618619Y-106298143D01*
X58571000Y-106345762D01*
X58475762Y-106393381D01*
X58332904Y-106393381D01*
X59523381Y-106393381D02*
X59523381Y-105869571D01*
X59475762Y-105774333D01*
X59380524Y-105726714D01*
X59190047Y-105726714D01*
X59094809Y-105774333D01*
X59523381Y-106345762D02*
X59428143Y-106393381D01*
X59190047Y-106393381D01*
X59094809Y-106345762D01*
X59047190Y-106250524D01*
X59047190Y-106155286D01*
X59094809Y-106060048D01*
X59190047Y-106012429D01*
X59428143Y-106012429D01*
X59523381Y-105964810D01*
X59904333Y-106393381D02*
X60428143Y-105726714D01*
X59904333Y-105726714D02*
X60428143Y-106393381D01*
X60809095Y-106393381D02*
X60809095Y-105726714D01*
X60809095Y-105393381D02*
X60761476Y-105441000D01*
X60809095Y-105488619D01*
X60856714Y-105441000D01*
X60809095Y-105393381D01*
X60809095Y-105488619D01*
X61713857Y-106393381D02*
X61713857Y-105869571D01*
X61666238Y-105774333D01*
X61571000Y-105726714D01*
X61380523Y-105726714D01*
X61285285Y-105774333D01*
X61713857Y-106345762D02*
X61618619Y-106393381D01*
X61380523Y-106393381D01*
X61285285Y-106345762D01*
X61237666Y-106250524D01*
X61237666Y-106155286D01*
X61285285Y-106060048D01*
X61380523Y-106012429D01*
X61618619Y-106012429D01*
X61713857Y-105964810D01*
X62332904Y-106393381D02*
X62237666Y-106345762D01*
X62190047Y-106250524D01*
X62190047Y-105393381D01*
X62475762Y-106488619D02*
X63237667Y-106488619D01*
X63475762Y-106393381D02*
X63475762Y-105393381D01*
X63856715Y-105393381D01*
X63951953Y-105441000D01*
X63999572Y-105488619D01*
X64047191Y-105583857D01*
X64047191Y-105726714D01*
X63999572Y-105821952D01*
X63951953Y-105869571D01*
X63856715Y-105917190D01*
X63475762Y-105917190D01*
X64618619Y-106393381D02*
X64523381Y-106345762D01*
X64475762Y-106298143D01*
X64428143Y-106202905D01*
X64428143Y-105917190D01*
X64475762Y-105821952D01*
X64523381Y-105774333D01*
X64618619Y-105726714D01*
X64761477Y-105726714D01*
X64856715Y-105774333D01*
X64904334Y-105821952D01*
X64951953Y-105917190D01*
X64951953Y-106202905D01*
X64904334Y-106298143D01*
X64856715Y-106345762D01*
X64761477Y-106393381D01*
X64618619Y-106393381D01*
X65285286Y-105726714D02*
X65475762Y-106393381D01*
X65666239Y-105917190D01*
X65856715Y-106393381D01*
X66047191Y-105726714D01*
X66809096Y-106345762D02*
X66713858Y-106393381D01*
X66523381Y-106393381D01*
X66428143Y-106345762D01*
X66380524Y-106250524D01*
X66380524Y-105869571D01*
X66428143Y-105774333D01*
X66523381Y-105726714D01*
X66713858Y-105726714D01*
X66809096Y-105774333D01*
X66856715Y-105869571D01*
X66856715Y-105964810D01*
X66380524Y-106060048D01*
X67285286Y-106393381D02*
X67285286Y-105726714D01*
X67285286Y-105917190D02*
X67332905Y-105821952D01*
X67380524Y-105774333D01*
X67475762Y-105726714D01*
X67571001Y-105726714D01*
X53158285Y-87692643D02*
X53110666Y-87740262D01*
X52967809Y-87787881D01*
X52872571Y-87787881D01*
X52729713Y-87740262D01*
X52634475Y-87645024D01*
X52586856Y-87549786D01*
X52539237Y-87359310D01*
X52539237Y-87216452D01*
X52586856Y-87025976D01*
X52634475Y-86930738D01*
X52729713Y-86835500D01*
X52872571Y-86787881D01*
X52967809Y-86787881D01*
X53110666Y-86835500D01*
X53158285Y-86883119D01*
X53729713Y-87787881D02*
X53634475Y-87740262D01*
X53586856Y-87692643D01*
X53539237Y-87597405D01*
X53539237Y-87311690D01*
X53586856Y-87216452D01*
X53634475Y-87168833D01*
X53729713Y-87121214D01*
X53872571Y-87121214D01*
X53967809Y-87168833D01*
X54015428Y-87216452D01*
X54063047Y-87311690D01*
X54063047Y-87597405D01*
X54015428Y-87692643D01*
X53967809Y-87740262D01*
X53872571Y-87787881D01*
X53729713Y-87787881D01*
X54491618Y-87121214D02*
X54491618Y-87787881D01*
X54491618Y-87216452D02*
X54539237Y-87168833D01*
X54634475Y-87121214D01*
X54777333Y-87121214D01*
X54872571Y-87168833D01*
X54920190Y-87264071D01*
X54920190Y-87787881D01*
X55396380Y-87121214D02*
X55396380Y-87787881D01*
X55396380Y-87216452D02*
X55443999Y-87168833D01*
X55539237Y-87121214D01*
X55682095Y-87121214D01*
X55777333Y-87168833D01*
X55824952Y-87264071D01*
X55824952Y-87787881D01*
X56063047Y-87883119D02*
X56824952Y-87883119D01*
X57634476Y-87692643D02*
X57586857Y-87740262D01*
X57444000Y-87787881D01*
X57348762Y-87787881D01*
X57205904Y-87740262D01*
X57110666Y-87645024D01*
X57063047Y-87549786D01*
X57015428Y-87359310D01*
X57015428Y-87216452D01*
X57063047Y-87025976D01*
X57110666Y-86930738D01*
X57205904Y-86835500D01*
X57348762Y-86787881D01*
X57444000Y-86787881D01*
X57586857Y-86835500D01*
X57634476Y-86883119D01*
X58205904Y-87787881D02*
X58110666Y-87740262D01*
X58063047Y-87692643D01*
X58015428Y-87597405D01*
X58015428Y-87311690D01*
X58063047Y-87216452D01*
X58110666Y-87168833D01*
X58205904Y-87121214D01*
X58348762Y-87121214D01*
X58444000Y-87168833D01*
X58491619Y-87216452D01*
X58539238Y-87311690D01*
X58539238Y-87597405D01*
X58491619Y-87692643D01*
X58444000Y-87740262D01*
X58348762Y-87787881D01*
X58205904Y-87787881D01*
X59396381Y-87787881D02*
X59396381Y-87264071D01*
X59348762Y-87168833D01*
X59253524Y-87121214D01*
X59063047Y-87121214D01*
X58967809Y-87168833D01*
X59396381Y-87740262D02*
X59301143Y-87787881D01*
X59063047Y-87787881D01*
X58967809Y-87740262D01*
X58920190Y-87645024D01*
X58920190Y-87549786D01*
X58967809Y-87454548D01*
X59063047Y-87406929D01*
X59301143Y-87406929D01*
X59396381Y-87359310D01*
X59777333Y-87787881D02*
X60301143Y-87121214D01*
X59777333Y-87121214D02*
X60301143Y-87787881D01*
X60682095Y-87787881D02*
X60682095Y-87121214D01*
X60682095Y-86787881D02*
X60634476Y-86835500D01*
X60682095Y-86883119D01*
X60729714Y-86835500D01*
X60682095Y-86787881D01*
X60682095Y-86883119D01*
X61586857Y-87787881D02*
X61586857Y-87264071D01*
X61539238Y-87168833D01*
X61444000Y-87121214D01*
X61253523Y-87121214D01*
X61158285Y-87168833D01*
X61586857Y-87740262D02*
X61491619Y-87787881D01*
X61253523Y-87787881D01*
X61158285Y-87740262D01*
X61110666Y-87645024D01*
X61110666Y-87549786D01*
X61158285Y-87454548D01*
X61253523Y-87406929D01*
X61491619Y-87406929D01*
X61586857Y-87359310D01*
X62205904Y-87787881D02*
X62110666Y-87740262D01*
X62063047Y-87645024D01*
X62063047Y-86787881D01*
X62348762Y-87883119D02*
X63110667Y-87883119D01*
X63348762Y-87787881D02*
X63348762Y-86787881D01*
X63729715Y-86787881D01*
X63824953Y-86835500D01*
X63872572Y-86883119D01*
X63920191Y-86978357D01*
X63920191Y-87121214D01*
X63872572Y-87216452D01*
X63824953Y-87264071D01*
X63729715Y-87311690D01*
X63348762Y-87311690D01*
X64491619Y-87787881D02*
X64396381Y-87740262D01*
X64348762Y-87692643D01*
X64301143Y-87597405D01*
X64301143Y-87311690D01*
X64348762Y-87216452D01*
X64396381Y-87168833D01*
X64491619Y-87121214D01*
X64634477Y-87121214D01*
X64729715Y-87168833D01*
X64777334Y-87216452D01*
X64824953Y-87311690D01*
X64824953Y-87597405D01*
X64777334Y-87692643D01*
X64729715Y-87740262D01*
X64634477Y-87787881D01*
X64491619Y-87787881D01*
X65158286Y-87121214D02*
X65348762Y-87787881D01*
X65539239Y-87311690D01*
X65729715Y-87787881D01*
X65920191Y-87121214D01*
X66682096Y-87740262D02*
X66586858Y-87787881D01*
X66396381Y-87787881D01*
X66301143Y-87740262D01*
X66253524Y-87645024D01*
X66253524Y-87264071D01*
X66301143Y-87168833D01*
X66396381Y-87121214D01*
X66586858Y-87121214D01*
X66682096Y-87168833D01*
X66729715Y-87264071D01*
X66729715Y-87359310D01*
X66253524Y-87454548D01*
X67158286Y-87787881D02*
X67158286Y-87121214D01*
X67158286Y-87311690D02*
X67205905Y-87216452D01*
X67253524Y-87168833D01*
X67348762Y-87121214D01*
X67444001Y-87121214D01*
X72583381Y-113498285D02*
X72583381Y-114069714D01*
X72583381Y-113784000D02*
X71583381Y-113784000D01*
X71726238Y-113879238D01*
X71821476Y-113974476D01*
X71869095Y-114069714D01*
X72583381Y-113069714D02*
X71583381Y-113069714D01*
X72583381Y-112498285D02*
X72011952Y-112926857D01*
X71583381Y-112498285D02*
X72154810Y-113069714D01*
D12*
X70547667Y-113400666D02*
X70214333Y-113634000D01*
X70547667Y-113800666D02*
X69847667Y-113800666D01*
X69847667Y-113534000D01*
X69881000Y-113467333D01*
X69914333Y-113434000D01*
X69981000Y-113400666D01*
X70081000Y-113400666D01*
X70147667Y-113434000D01*
X70181000Y-113467333D01*
X70214333Y-113534000D01*
X70214333Y-113800666D01*
X70547667Y-112734000D02*
X70547667Y-113134000D01*
X70547667Y-112934000D02*
X69847667Y-112934000D01*
X69947667Y-113000666D01*
X70014333Y-113067333D01*
X70047667Y-113134000D01*
D11*
X75795286Y-121329714D02*
X75795286Y-121996381D01*
X75557190Y-120948762D02*
X75319095Y-121663048D01*
X75938143Y-121663048D01*
X76366714Y-121996381D02*
X76557190Y-121996381D01*
X76652429Y-121948762D01*
X76700048Y-121901143D01*
X76795286Y-121758286D01*
X76842905Y-121567810D01*
X76842905Y-121186857D01*
X76795286Y-121091619D01*
X76747667Y-121044000D01*
X76652429Y-120996381D01*
X76461952Y-120996381D01*
X76366714Y-121044000D01*
X76319095Y-121091619D01*
X76271476Y-121186857D01*
X76271476Y-121424952D01*
X76319095Y-121520190D01*
X76366714Y-121567810D01*
X76461952Y-121615429D01*
X76652429Y-121615429D01*
X76747667Y-121567810D01*
X76795286Y-121520190D01*
X76842905Y-121424952D01*
X77271476Y-121996381D02*
X77271476Y-120996381D01*
X77842905Y-121996381D02*
X77414333Y-121424952D01*
X77842905Y-120996381D02*
X77271476Y-121567810D01*
D12*
X76464334Y-123760667D02*
X76231000Y-123427333D01*
X76064334Y-123760667D02*
X76064334Y-123060667D01*
X76331000Y-123060667D01*
X76397667Y-123094000D01*
X76431000Y-123127333D01*
X76464334Y-123194000D01*
X76464334Y-123294000D01*
X76431000Y-123360667D01*
X76397667Y-123394000D01*
X76331000Y-123427333D01*
X76064334Y-123427333D01*
X76731000Y-123127333D02*
X76764334Y-123094000D01*
X76831000Y-123060667D01*
X76997667Y-123060667D01*
X77064334Y-123094000D01*
X77097667Y-123127333D01*
X77131000Y-123194000D01*
X77131000Y-123260667D01*
X77097667Y-123360667D01*
X76697667Y-123760667D01*
X77131000Y-123760667D01*
D11*
X79203381Y-114117333D02*
X79203381Y-113450666D01*
X80203381Y-113879238D01*
X80203381Y-113069714D02*
X79203381Y-113069714D01*
X80203381Y-112498285D02*
X79631952Y-112926857D01*
X79203381Y-112498285D02*
X79774810Y-113069714D01*
D12*
X78167667Y-113400666D02*
X77834333Y-113634000D01*
X78167667Y-113800666D02*
X77467667Y-113800666D01*
X77467667Y-113534000D01*
X77501000Y-113467333D01*
X77534333Y-113434000D01*
X77601000Y-113400666D01*
X77701000Y-113400666D01*
X77767667Y-113434000D01*
X77801000Y-113467333D01*
X77834333Y-113534000D01*
X77834333Y-113800666D01*
X77467667Y-113167333D02*
X77467667Y-112734000D01*
X77734333Y-112967333D01*
X77734333Y-112867333D01*
X77767667Y-112800666D01*
X77801000Y-112767333D01*
X77867667Y-112734000D01*
X78034333Y-112734000D01*
X78101000Y-112767333D01*
X78134333Y-112800666D01*
X78167667Y-112867333D01*
X78167667Y-113067333D01*
X78134333Y-113134000D01*
X78101000Y-113167333D01*
D11*
X94146715Y-125796381D02*
X93575286Y-125796381D01*
X93861000Y-125796381D02*
X93861000Y-124796381D01*
X93765762Y-124939238D01*
X93670524Y-125034476D01*
X93575286Y-125082095D01*
X94575286Y-125796381D02*
X94575286Y-124796381D01*
X95146715Y-125796381D02*
X94718143Y-125224952D01*
X95146715Y-124796381D02*
X94575286Y-125367810D01*
D12*
X94244334Y-123760667D02*
X94011000Y-123427333D01*
X93844334Y-123760667D02*
X93844334Y-123060667D01*
X94111000Y-123060667D01*
X94177667Y-123094000D01*
X94211000Y-123127333D01*
X94244334Y-123194000D01*
X94244334Y-123294000D01*
X94211000Y-123360667D01*
X94177667Y-123394000D01*
X94111000Y-123427333D01*
X93844334Y-123427333D01*
X94844334Y-123294000D02*
X94844334Y-123760667D01*
X94677667Y-123027333D02*
X94511000Y-123527333D01*
X94944334Y-123527333D01*
D11*
X102417667Y-120996381D02*
X103084334Y-120996381D01*
X102655762Y-121996381D01*
X103465286Y-121996381D02*
X103465286Y-120996381D01*
X104036715Y-121996381D02*
X103608143Y-121424952D01*
X104036715Y-120996381D02*
X103465286Y-121567810D01*
D12*
X103134334Y-123760667D02*
X102901000Y-123427333D01*
X102734334Y-123760667D02*
X102734334Y-123060667D01*
X103001000Y-123060667D01*
X103067667Y-123094000D01*
X103101000Y-123127333D01*
X103134334Y-123194000D01*
X103134334Y-123294000D01*
X103101000Y-123360667D01*
X103067667Y-123394000D01*
X103001000Y-123427333D01*
X102734334Y-123427333D01*
X103767667Y-123060667D02*
X103434334Y-123060667D01*
X103401000Y-123394000D01*
X103434334Y-123360667D01*
X103501000Y-123327333D01*
X103667667Y-123327333D01*
X103734334Y-123360667D01*
X103767667Y-123394000D01*
X103801000Y-123460667D01*
X103801000Y-123627333D01*
X103767667Y-123694000D01*
X103734334Y-123727333D01*
X103667667Y-123760667D01*
X103501000Y-123760667D01*
X103434334Y-123727333D01*
X103401000Y-123694000D01*
D11*
X77017667Y-120986381D02*
X77684334Y-120986381D01*
X77255762Y-121986381D01*
X78065286Y-121986381D02*
X78065286Y-120986381D01*
X78636715Y-121986381D02*
X78208143Y-121414952D01*
X78636715Y-120986381D02*
X78065286Y-121557810D01*
D12*
X77734334Y-119950667D02*
X77501000Y-119617333D01*
X77334334Y-119950667D02*
X77334334Y-119250667D01*
X77601000Y-119250667D01*
X77667667Y-119284000D01*
X77701000Y-119317333D01*
X77734334Y-119384000D01*
X77734334Y-119484000D01*
X77701000Y-119550667D01*
X77667667Y-119584000D01*
X77601000Y-119617333D01*
X77334334Y-119617333D01*
X78334334Y-119250667D02*
X78201000Y-119250667D01*
X78134334Y-119284000D01*
X78101000Y-119317333D01*
X78034334Y-119417333D01*
X78001000Y-119550667D01*
X78001000Y-119817333D01*
X78034334Y-119884000D01*
X78067667Y-119917333D01*
X78134334Y-119950667D01*
X78267667Y-119950667D01*
X78334334Y-119917333D01*
X78367667Y-119884000D01*
X78401000Y-119817333D01*
X78401000Y-119650667D01*
X78367667Y-119584000D01*
X78334334Y-119550667D01*
X78267667Y-119517333D01*
X78134334Y-119517333D01*
X78067667Y-119550667D01*
X78034334Y-119584000D01*
X78001000Y-119650667D01*
D11*
X102417667Y-117186381D02*
X103084334Y-117186381D01*
X102655762Y-118186381D01*
X103465286Y-118186381D02*
X103465286Y-117186381D01*
X104036715Y-118186381D02*
X103608143Y-117614952D01*
X104036715Y-117186381D02*
X103465286Y-117757810D01*
D12*
X103134334Y-119950667D02*
X102901000Y-119617333D01*
X102734334Y-119950667D02*
X102734334Y-119250667D01*
X103001000Y-119250667D01*
X103067667Y-119284000D01*
X103101000Y-119317333D01*
X103134334Y-119384000D01*
X103134334Y-119484000D01*
X103101000Y-119550667D01*
X103067667Y-119584000D01*
X103001000Y-119617333D01*
X102734334Y-119617333D01*
X103367667Y-119250667D02*
X103834334Y-119250667D01*
X103534334Y-119950667D01*
D11*
X110693381Y-113498285D02*
X110693381Y-114069714D01*
X110693381Y-113784000D02*
X109693381Y-113784000D01*
X109836238Y-113879238D01*
X109931476Y-113974476D01*
X109979095Y-114069714D01*
X110693381Y-113069714D02*
X109693381Y-113069714D01*
X110693381Y-112498285D02*
X110121952Y-112926857D01*
X109693381Y-112498285D02*
X110264810Y-113069714D01*
D12*
X112457667Y-113400666D02*
X112124333Y-113634000D01*
X112457667Y-113800666D02*
X111757667Y-113800666D01*
X111757667Y-113534000D01*
X111791000Y-113467333D01*
X111824333Y-113434000D01*
X111891000Y-113400666D01*
X111991000Y-113400666D01*
X112057667Y-113434000D01*
X112091000Y-113467333D01*
X112124333Y-113534000D01*
X112124333Y-113800666D01*
X112057667Y-113000666D02*
X112024333Y-113067333D01*
X111991000Y-113100666D01*
X111924333Y-113134000D01*
X111891000Y-113134000D01*
X111824333Y-113100666D01*
X111791000Y-113067333D01*
X111757667Y-113000666D01*
X111757667Y-112867333D01*
X111791000Y-112800666D01*
X111824333Y-112767333D01*
X111891000Y-112734000D01*
X111924333Y-112734000D01*
X111991000Y-112767333D01*
X112024333Y-112800666D01*
X112057667Y-112867333D01*
X112057667Y-113000666D01*
X112091000Y-113067333D01*
X112124333Y-113100666D01*
X112191000Y-113134000D01*
X112324333Y-113134000D01*
X112391000Y-113100666D01*
X112424333Y-113067333D01*
X112457667Y-113000666D01*
X112457667Y-112867333D01*
X112424333Y-112800666D01*
X112391000Y-112767333D01*
X112324333Y-112734000D01*
X112191000Y-112734000D01*
X112124333Y-112767333D01*
X112091000Y-112800666D01*
X112057667Y-112867333D01*
D11*
X111307667Y-117186381D02*
X111974334Y-117186381D01*
X111545762Y-118186381D01*
X112355286Y-118186381D02*
X112355286Y-117186381D01*
X112926715Y-118186381D02*
X112498143Y-117614952D01*
X112926715Y-117186381D02*
X112355286Y-117757810D01*
D12*
X112024334Y-119950667D02*
X111791000Y-119617333D01*
X111624334Y-119950667D02*
X111624334Y-119250667D01*
X111891000Y-119250667D01*
X111957667Y-119284000D01*
X111991000Y-119317333D01*
X112024334Y-119384000D01*
X112024334Y-119484000D01*
X111991000Y-119550667D01*
X111957667Y-119584000D01*
X111891000Y-119617333D01*
X111624334Y-119617333D01*
X112357667Y-119950667D02*
X112491000Y-119950667D01*
X112557667Y-119917333D01*
X112591000Y-119884000D01*
X112657667Y-119784000D01*
X112691000Y-119650667D01*
X112691000Y-119384000D01*
X112657667Y-119317333D01*
X112624334Y-119284000D01*
X112557667Y-119250667D01*
X112424334Y-119250667D01*
X112357667Y-119284000D01*
X112324334Y-119317333D01*
X112291000Y-119384000D01*
X112291000Y-119550667D01*
X112324334Y-119617333D01*
X112357667Y-119650667D01*
X112424334Y-119684000D01*
X112557667Y-119684000D01*
X112624334Y-119650667D01*
X112657667Y-119617333D01*
X112691000Y-119550667D01*
D11*
X111307667Y-120996381D02*
X111974334Y-120996381D01*
X111545762Y-121996381D01*
X112355286Y-121996381D02*
X112355286Y-120996381D01*
X112926715Y-121996381D02*
X112498143Y-121424952D01*
X112926715Y-120996381D02*
X112355286Y-121567810D01*
D12*
X111691000Y-123760667D02*
X111457666Y-123427333D01*
X111291000Y-123760667D02*
X111291000Y-123060667D01*
X111557666Y-123060667D01*
X111624333Y-123094000D01*
X111657666Y-123127333D01*
X111691000Y-123194000D01*
X111691000Y-123294000D01*
X111657666Y-123360667D01*
X111624333Y-123394000D01*
X111557666Y-123427333D01*
X111291000Y-123427333D01*
X112357666Y-123760667D02*
X111957666Y-123760667D01*
X112157666Y-123760667D02*
X112157666Y-123060667D01*
X112091000Y-123160667D01*
X112024333Y-123227333D01*
X111957666Y-123260667D01*
X112791000Y-123060667D02*
X112857667Y-123060667D01*
X112924333Y-123094000D01*
X112957667Y-123127333D01*
X112991000Y-123194000D01*
X113024333Y-123327333D01*
X113024333Y-123494000D01*
X112991000Y-123627333D01*
X112957667Y-123694000D01*
X112924333Y-123727333D01*
X112857667Y-123760667D01*
X112791000Y-123760667D01*
X112724333Y-123727333D01*
X112691000Y-123694000D01*
X112657667Y-123627333D01*
X112624333Y-123494000D01*
X112624333Y-123327333D01*
X112657667Y-123194000D01*
X112691000Y-123127333D01*
X112724333Y-123094000D01*
X112791000Y-123060667D01*
D11*
X80213381Y-113498285D02*
X80213381Y-114069714D01*
X80213381Y-113784000D02*
X79213381Y-113784000D01*
X79356238Y-113879238D01*
X79451476Y-113974476D01*
X79499095Y-114069714D01*
X80213381Y-113069714D02*
X79213381Y-113069714D01*
X80213381Y-112498285D02*
X79641952Y-112926857D01*
X79213381Y-112498285D02*
X79784810Y-113069714D01*
D12*
X81977667Y-113734000D02*
X81644333Y-113967334D01*
X81977667Y-114134000D02*
X81277667Y-114134000D01*
X81277667Y-113867334D01*
X81311000Y-113800667D01*
X81344333Y-113767334D01*
X81411000Y-113734000D01*
X81511000Y-113734000D01*
X81577667Y-113767334D01*
X81611000Y-113800667D01*
X81644333Y-113867334D01*
X81644333Y-114134000D01*
X81977667Y-113067334D02*
X81977667Y-113467334D01*
X81977667Y-113267334D02*
X81277667Y-113267334D01*
X81377667Y-113334000D01*
X81444333Y-113400667D01*
X81477667Y-113467334D01*
X81977667Y-112400667D02*
X81977667Y-112800667D01*
X81977667Y-112600667D02*
X81277667Y-112600667D01*
X81377667Y-112667333D01*
X81444333Y-112734000D01*
X81477667Y-112800667D01*
D11*
X114493381Y-94575285D02*
X114493381Y-95146714D01*
X114493381Y-94861000D02*
X113493381Y-94861000D01*
X113636238Y-94956238D01*
X113731476Y-95051476D01*
X113779095Y-95146714D01*
X114493381Y-94146714D02*
X113493381Y-94146714D01*
X114493381Y-93575285D02*
X113921952Y-94003857D01*
X113493381Y-93575285D02*
X114064810Y-94146714D01*
D12*
X112457667Y-94811000D02*
X112124333Y-95044334D01*
X112457667Y-95211000D02*
X111757667Y-95211000D01*
X111757667Y-94944334D01*
X111791000Y-94877667D01*
X111824333Y-94844334D01*
X111891000Y-94811000D01*
X111991000Y-94811000D01*
X112057667Y-94844334D01*
X112091000Y-94877667D01*
X112124333Y-94944334D01*
X112124333Y-95211000D01*
X112457667Y-94144334D02*
X112457667Y-94544334D01*
X112457667Y-94344334D02*
X111757667Y-94344334D01*
X111857667Y-94411000D01*
X111924333Y-94477667D01*
X111957667Y-94544334D01*
X111824333Y-93877667D02*
X111791000Y-93844333D01*
X111757667Y-93777667D01*
X111757667Y-93611000D01*
X111791000Y-93544333D01*
X111824333Y-93511000D01*
X111891000Y-93477667D01*
X111957667Y-93477667D01*
X112057667Y-93511000D01*
X112457667Y-93911000D01*
X112457667Y-93477667D01*
D11*
X80657881Y-75461785D02*
X80657881Y-76033214D01*
X80657881Y-75747500D02*
X79657881Y-75747500D01*
X79800738Y-75842738D01*
X79895976Y-75937976D01*
X79943595Y-76033214D01*
X80657881Y-75033214D02*
X79657881Y-75033214D01*
X80657881Y-74461785D02*
X80086452Y-74890357D01*
X79657881Y-74461785D02*
X80229310Y-75033214D01*
D12*
X82422167Y-75697500D02*
X82088833Y-75930834D01*
X82422167Y-76097500D02*
X81722167Y-76097500D01*
X81722167Y-75830834D01*
X81755500Y-75764167D01*
X81788833Y-75730834D01*
X81855500Y-75697500D01*
X81955500Y-75697500D01*
X82022167Y-75730834D01*
X82055500Y-75764167D01*
X82088833Y-75830834D01*
X82088833Y-76097500D01*
X82422167Y-75030834D02*
X82422167Y-75430834D01*
X82422167Y-75230834D02*
X81722167Y-75230834D01*
X81822167Y-75297500D01*
X81888833Y-75364167D01*
X81922167Y-75430834D01*
X81722167Y-74797500D02*
X81722167Y-74364167D01*
X81988833Y-74597500D01*
X81988833Y-74497500D01*
X82022167Y-74430833D01*
X82055500Y-74397500D01*
X82122167Y-74364167D01*
X82288833Y-74364167D01*
X82355500Y-74397500D01*
X82388833Y-74430833D01*
X82422167Y-74497500D01*
X82422167Y-74697500D01*
X82388833Y-74764167D01*
X82355500Y-74797500D01*
D11*
X77065286Y-102396714D02*
X77065286Y-103063381D01*
X76827190Y-102015762D02*
X76589095Y-102730048D01*
X77208143Y-102730048D01*
X77636714Y-103063381D02*
X77827190Y-103063381D01*
X77922429Y-103015762D01*
X77970048Y-102968143D01*
X78065286Y-102825286D01*
X78112905Y-102634810D01*
X78112905Y-102253857D01*
X78065286Y-102158619D01*
X78017667Y-102111000D01*
X77922429Y-102063381D01*
X77731952Y-102063381D01*
X77636714Y-102111000D01*
X77589095Y-102158619D01*
X77541476Y-102253857D01*
X77541476Y-102491952D01*
X77589095Y-102587190D01*
X77636714Y-102634810D01*
X77731952Y-102682429D01*
X77922429Y-102682429D01*
X78017667Y-102634810D01*
X78065286Y-102587190D01*
X78112905Y-102491952D01*
X78541476Y-103063381D02*
X78541476Y-102063381D01*
X79112905Y-103063381D02*
X78684333Y-102491952D01*
X79112905Y-102063381D02*
X78541476Y-102634810D01*
D12*
X77401000Y-101027667D02*
X77167666Y-100694333D01*
X77001000Y-101027667D02*
X77001000Y-100327667D01*
X77267666Y-100327667D01*
X77334333Y-100361000D01*
X77367666Y-100394333D01*
X77401000Y-100461000D01*
X77401000Y-100561000D01*
X77367666Y-100627667D01*
X77334333Y-100661000D01*
X77267666Y-100694333D01*
X77001000Y-100694333D01*
X78067666Y-101027667D02*
X77667666Y-101027667D01*
X77867666Y-101027667D02*
X77867666Y-100327667D01*
X77801000Y-100427667D01*
X77734333Y-100494333D01*
X77667666Y-100527667D01*
X78667667Y-100561000D02*
X78667667Y-101027667D01*
X78501000Y-100294333D02*
X78334333Y-100794333D01*
X78767667Y-100794333D01*
D11*
X77509786Y-83283214D02*
X77509786Y-83949881D01*
X77271690Y-82902262D02*
X77033595Y-83616548D01*
X77652643Y-83616548D01*
X78081214Y-83949881D02*
X78271690Y-83949881D01*
X78366929Y-83902262D01*
X78414548Y-83854643D01*
X78509786Y-83711786D01*
X78557405Y-83521310D01*
X78557405Y-83140357D01*
X78509786Y-83045119D01*
X78462167Y-82997500D01*
X78366929Y-82949881D01*
X78176452Y-82949881D01*
X78081214Y-82997500D01*
X78033595Y-83045119D01*
X77985976Y-83140357D01*
X77985976Y-83378452D01*
X78033595Y-83473690D01*
X78081214Y-83521310D01*
X78176452Y-83568929D01*
X78366929Y-83568929D01*
X78462167Y-83521310D01*
X78509786Y-83473690D01*
X78557405Y-83378452D01*
X78985976Y-83949881D02*
X78985976Y-82949881D01*
X79557405Y-83949881D02*
X79128833Y-83378452D01*
X79557405Y-82949881D02*
X78985976Y-83521310D01*
D12*
X77845500Y-81914167D02*
X77612166Y-81580833D01*
X77445500Y-81914167D02*
X77445500Y-81214167D01*
X77712166Y-81214167D01*
X77778833Y-81247500D01*
X77812166Y-81280833D01*
X77845500Y-81347500D01*
X77845500Y-81447500D01*
X77812166Y-81514167D01*
X77778833Y-81547500D01*
X77712166Y-81580833D01*
X77445500Y-81580833D01*
X78512166Y-81914167D02*
X78112166Y-81914167D01*
X78312166Y-81914167D02*
X78312166Y-81214167D01*
X78245500Y-81314167D01*
X78178833Y-81380833D01*
X78112166Y-81414167D01*
X79145500Y-81214167D02*
X78812167Y-81214167D01*
X78778833Y-81547500D01*
X78812167Y-81514167D01*
X78878833Y-81480833D01*
X79045500Y-81480833D01*
X79112167Y-81514167D01*
X79145500Y-81547500D01*
X79178833Y-81614167D01*
X79178833Y-81780833D01*
X79145500Y-81847500D01*
X79112167Y-81880833D01*
X79045500Y-81914167D01*
X78878833Y-81914167D01*
X78812167Y-81880833D01*
X78778833Y-81847500D01*
D11*
X79203381Y-95194333D02*
X79203381Y-94527666D01*
X80203381Y-94956238D01*
X80203381Y-94146714D02*
X79203381Y-94146714D01*
X80203381Y-93575285D02*
X79631952Y-94003857D01*
X79203381Y-93575285D02*
X79774810Y-94146714D01*
D12*
X78167667Y-94811000D02*
X77834333Y-95044334D01*
X78167667Y-95211000D02*
X77467667Y-95211000D01*
X77467667Y-94944334D01*
X77501000Y-94877667D01*
X77534333Y-94844334D01*
X77601000Y-94811000D01*
X77701000Y-94811000D01*
X77767667Y-94844334D01*
X77801000Y-94877667D01*
X77834333Y-94944334D01*
X77834333Y-95211000D01*
X78167667Y-94144334D02*
X78167667Y-94544334D01*
X78167667Y-94344334D02*
X77467667Y-94344334D01*
X77567667Y-94411000D01*
X77634333Y-94477667D01*
X77667667Y-94544334D01*
X77467667Y-93544333D02*
X77467667Y-93677667D01*
X77501000Y-93744333D01*
X77534333Y-93777667D01*
X77634333Y-93844333D01*
X77767667Y-93877667D01*
X78034333Y-93877667D01*
X78101000Y-93844333D01*
X78134333Y-93811000D01*
X78167667Y-93744333D01*
X78167667Y-93611000D01*
X78134333Y-93544333D01*
X78101000Y-93511000D01*
X78034333Y-93477667D01*
X77867667Y-93477667D01*
X77801000Y-93511000D01*
X77767667Y-93544333D01*
X77734333Y-93611000D01*
X77734333Y-93744333D01*
X77767667Y-93811000D01*
X77801000Y-93844333D01*
X77867667Y-93877667D01*
D11*
X102862167Y-82949881D02*
X103528834Y-82949881D01*
X103100262Y-83949881D01*
X103909786Y-83949881D02*
X103909786Y-82949881D01*
X104481215Y-83949881D02*
X104052643Y-83378452D01*
X104481215Y-82949881D02*
X103909786Y-83521310D01*
D12*
X103245500Y-81914167D02*
X103012166Y-81580833D01*
X102845500Y-81914167D02*
X102845500Y-81214167D01*
X103112166Y-81214167D01*
X103178833Y-81247500D01*
X103212166Y-81280833D01*
X103245500Y-81347500D01*
X103245500Y-81447500D01*
X103212166Y-81514167D01*
X103178833Y-81547500D01*
X103112166Y-81580833D01*
X102845500Y-81580833D01*
X103912166Y-81914167D02*
X103512166Y-81914167D01*
X103712166Y-81914167D02*
X103712166Y-81214167D01*
X103645500Y-81314167D01*
X103578833Y-81380833D01*
X103512166Y-81414167D01*
X104145500Y-81214167D02*
X104612167Y-81214167D01*
X104312167Y-81914167D01*
D11*
X94146715Y-106873381D02*
X93575286Y-106873381D01*
X93861000Y-106873381D02*
X93861000Y-105873381D01*
X93765762Y-106016238D01*
X93670524Y-106111476D01*
X93575286Y-106159095D01*
X94575286Y-106873381D02*
X94575286Y-105873381D01*
X95146715Y-106873381D02*
X94718143Y-106301952D01*
X95146715Y-105873381D02*
X94575286Y-106444810D01*
D12*
X93911000Y-104837667D02*
X93677666Y-104504333D01*
X93511000Y-104837667D02*
X93511000Y-104137667D01*
X93777666Y-104137667D01*
X93844333Y-104171000D01*
X93877666Y-104204333D01*
X93911000Y-104271000D01*
X93911000Y-104371000D01*
X93877666Y-104437667D01*
X93844333Y-104471000D01*
X93777666Y-104504333D01*
X93511000Y-104504333D01*
X94577666Y-104837667D02*
X94177666Y-104837667D01*
X94377666Y-104837667D02*
X94377666Y-104137667D01*
X94311000Y-104237667D01*
X94244333Y-104304333D01*
X94177666Y-104337667D01*
X94977667Y-104437667D02*
X94911000Y-104404333D01*
X94877667Y-104371000D01*
X94844333Y-104304333D01*
X94844333Y-104271000D01*
X94877667Y-104204333D01*
X94911000Y-104171000D01*
X94977667Y-104137667D01*
X95111000Y-104137667D01*
X95177667Y-104171000D01*
X95211000Y-104204333D01*
X95244333Y-104271000D01*
X95244333Y-104304333D01*
X95211000Y-104371000D01*
X95177667Y-104404333D01*
X95111000Y-104437667D01*
X94977667Y-104437667D01*
X94911000Y-104471000D01*
X94877667Y-104504333D01*
X94844333Y-104571000D01*
X94844333Y-104704333D01*
X94877667Y-104771000D01*
X94911000Y-104804333D01*
X94977667Y-104837667D01*
X95111000Y-104837667D01*
X95177667Y-104804333D01*
X95211000Y-104771000D01*
X95244333Y-104704333D01*
X95244333Y-104571000D01*
X95211000Y-104504333D01*
X95177667Y-104471000D01*
X95111000Y-104437667D01*
D11*
X102417667Y-102073381D02*
X103084334Y-102073381D01*
X102655762Y-103073381D01*
X103465286Y-103073381D02*
X103465286Y-102073381D01*
X104036715Y-103073381D02*
X103608143Y-102501952D01*
X104036715Y-102073381D02*
X103465286Y-102644810D01*
D12*
X102801000Y-104837667D02*
X102567666Y-104504333D01*
X102401000Y-104837667D02*
X102401000Y-104137667D01*
X102667666Y-104137667D01*
X102734333Y-104171000D01*
X102767666Y-104204333D01*
X102801000Y-104271000D01*
X102801000Y-104371000D01*
X102767666Y-104437667D01*
X102734333Y-104471000D01*
X102667666Y-104504333D01*
X102401000Y-104504333D01*
X103467666Y-104837667D02*
X103067666Y-104837667D01*
X103267666Y-104837667D02*
X103267666Y-104137667D01*
X103201000Y-104237667D01*
X103134333Y-104304333D01*
X103067666Y-104337667D01*
X103801000Y-104837667D02*
X103934333Y-104837667D01*
X104001000Y-104804333D01*
X104034333Y-104771000D01*
X104101000Y-104671000D01*
X104134333Y-104537667D01*
X104134333Y-104271000D01*
X104101000Y-104204333D01*
X104067667Y-104171000D01*
X104001000Y-104137667D01*
X103867667Y-104137667D01*
X103801000Y-104171000D01*
X103767667Y-104204333D01*
X103734333Y-104271000D01*
X103734333Y-104437667D01*
X103767667Y-104504333D01*
X103801000Y-104537667D01*
X103867667Y-104571000D01*
X104001000Y-104571000D01*
X104067667Y-104537667D01*
X104101000Y-104504333D01*
X104134333Y-104437667D01*
D11*
X73027881Y-75461785D02*
X73027881Y-76033214D01*
X73027881Y-75747500D02*
X72027881Y-75747500D01*
X72170738Y-75842738D01*
X72265976Y-75937976D01*
X72313595Y-76033214D01*
X73027881Y-75033214D02*
X72027881Y-75033214D01*
X73027881Y-74461785D02*
X72456452Y-74890357D01*
X72027881Y-74461785D02*
X72599310Y-75033214D01*
D12*
X70992167Y-75697500D02*
X70658833Y-75930834D01*
X70992167Y-76097500D02*
X70292167Y-76097500D01*
X70292167Y-75830834D01*
X70325500Y-75764167D01*
X70358833Y-75730834D01*
X70425500Y-75697500D01*
X70525500Y-75697500D01*
X70592167Y-75730834D01*
X70625500Y-75764167D01*
X70658833Y-75830834D01*
X70658833Y-76097500D01*
X70358833Y-75430834D02*
X70325500Y-75397500D01*
X70292167Y-75330834D01*
X70292167Y-75164167D01*
X70325500Y-75097500D01*
X70358833Y-75064167D01*
X70425500Y-75030834D01*
X70492167Y-75030834D01*
X70592167Y-75064167D01*
X70992167Y-75464167D01*
X70992167Y-75030834D01*
X70292167Y-74597500D02*
X70292167Y-74530833D01*
X70325500Y-74464167D01*
X70358833Y-74430833D01*
X70425500Y-74397500D01*
X70558833Y-74364167D01*
X70725500Y-74364167D01*
X70858833Y-74397500D01*
X70925500Y-74430833D01*
X70958833Y-74464167D01*
X70992167Y-74530833D01*
X70992167Y-74597500D01*
X70958833Y-74664167D01*
X70925500Y-74697500D01*
X70858833Y-74730833D01*
X70725500Y-74764167D01*
X70558833Y-74764167D01*
X70425500Y-74730833D01*
X70358833Y-74697500D01*
X70325500Y-74664167D01*
X70292167Y-74597500D01*
D11*
X79647881Y-76080833D02*
X79647881Y-75414166D01*
X80647881Y-75842738D01*
X80647881Y-75033214D02*
X79647881Y-75033214D01*
X80647881Y-74461785D02*
X80076452Y-74890357D01*
X79647881Y-74461785D02*
X80219310Y-75033214D01*
D12*
X78612167Y-75697500D02*
X78278833Y-75930834D01*
X78612167Y-76097500D02*
X77912167Y-76097500D01*
X77912167Y-75830834D01*
X77945500Y-75764167D01*
X77978833Y-75730834D01*
X78045500Y-75697500D01*
X78145500Y-75697500D01*
X78212167Y-75730834D01*
X78245500Y-75764167D01*
X78278833Y-75830834D01*
X78278833Y-76097500D01*
X77978833Y-75430834D02*
X77945500Y-75397500D01*
X77912167Y-75330834D01*
X77912167Y-75164167D01*
X77945500Y-75097500D01*
X77978833Y-75064167D01*
X78045500Y-75030834D01*
X78112167Y-75030834D01*
X78212167Y-75064167D01*
X78612167Y-75464167D01*
X78612167Y-75030834D01*
X78612167Y-74364167D02*
X78612167Y-74764167D01*
X78612167Y-74564167D02*
X77912167Y-74564167D01*
X78012167Y-74630833D01*
X78078833Y-74697500D01*
X78112167Y-74764167D01*
D11*
X102417667Y-102063381D02*
X103084334Y-102063381D01*
X102655762Y-103063381D01*
X103465286Y-103063381D02*
X103465286Y-102063381D01*
X104036715Y-103063381D02*
X103608143Y-102491952D01*
X104036715Y-102063381D02*
X103465286Y-102634810D01*
D12*
X102801000Y-101027667D02*
X102567666Y-100694333D01*
X102401000Y-101027667D02*
X102401000Y-100327667D01*
X102667666Y-100327667D01*
X102734333Y-100361000D01*
X102767666Y-100394333D01*
X102801000Y-100461000D01*
X102801000Y-100561000D01*
X102767666Y-100627667D01*
X102734333Y-100661000D01*
X102667666Y-100694333D01*
X102401000Y-100694333D01*
X103067666Y-100394333D02*
X103101000Y-100361000D01*
X103167666Y-100327667D01*
X103334333Y-100327667D01*
X103401000Y-100361000D01*
X103434333Y-100394333D01*
X103467666Y-100461000D01*
X103467666Y-100527667D01*
X103434333Y-100627667D01*
X103034333Y-101027667D01*
X103467666Y-101027667D01*
X103734333Y-100394333D02*
X103767667Y-100361000D01*
X103834333Y-100327667D01*
X104001000Y-100327667D01*
X104067667Y-100361000D01*
X104101000Y-100394333D01*
X104134333Y-100461000D01*
X104134333Y-100527667D01*
X104101000Y-100627667D01*
X103701000Y-101027667D01*
X104134333Y-101027667D01*
D11*
X77462167Y-82959881D02*
X78128834Y-82959881D01*
X77700262Y-83959881D01*
X78509786Y-83959881D02*
X78509786Y-82959881D01*
X79081215Y-83959881D02*
X78652643Y-83388452D01*
X79081215Y-82959881D02*
X78509786Y-83531310D01*
D12*
X77845500Y-85724167D02*
X77612166Y-85390833D01*
X77445500Y-85724167D02*
X77445500Y-85024167D01*
X77712166Y-85024167D01*
X77778833Y-85057500D01*
X77812166Y-85090833D01*
X77845500Y-85157500D01*
X77845500Y-85257500D01*
X77812166Y-85324167D01*
X77778833Y-85357500D01*
X77712166Y-85390833D01*
X77445500Y-85390833D01*
X78112166Y-85090833D02*
X78145500Y-85057500D01*
X78212166Y-85024167D01*
X78378833Y-85024167D01*
X78445500Y-85057500D01*
X78478833Y-85090833D01*
X78512166Y-85157500D01*
X78512166Y-85224167D01*
X78478833Y-85324167D01*
X78078833Y-85724167D01*
X78512166Y-85724167D01*
X78745500Y-85024167D02*
X79178833Y-85024167D01*
X78945500Y-85290833D01*
X79045500Y-85290833D01*
X79112167Y-85324167D01*
X79145500Y-85357500D01*
X79178833Y-85424167D01*
X79178833Y-85590833D01*
X79145500Y-85657500D01*
X79112167Y-85690833D01*
X79045500Y-85724167D01*
X78845500Y-85724167D01*
X78778833Y-85690833D01*
X78745500Y-85657500D01*
D11*
X77017667Y-102073381D02*
X77684334Y-102073381D01*
X77255762Y-103073381D01*
X78065286Y-103073381D02*
X78065286Y-102073381D01*
X78636715Y-103073381D02*
X78208143Y-102501952D01*
X78636715Y-102073381D02*
X78065286Y-102644810D01*
D12*
X77401000Y-104837667D02*
X77167666Y-104504333D01*
X77001000Y-104837667D02*
X77001000Y-104137667D01*
X77267666Y-104137667D01*
X77334333Y-104171000D01*
X77367666Y-104204333D01*
X77401000Y-104271000D01*
X77401000Y-104371000D01*
X77367666Y-104437667D01*
X77334333Y-104471000D01*
X77267666Y-104504333D01*
X77001000Y-104504333D01*
X77667666Y-104204333D02*
X77701000Y-104171000D01*
X77767666Y-104137667D01*
X77934333Y-104137667D01*
X78001000Y-104171000D01*
X78034333Y-104204333D01*
X78067666Y-104271000D01*
X78067666Y-104337667D01*
X78034333Y-104437667D01*
X77634333Y-104837667D01*
X78067666Y-104837667D01*
X78667667Y-104371000D02*
X78667667Y-104837667D01*
X78501000Y-104104333D02*
X78334333Y-104604333D01*
X78767667Y-104604333D01*
D11*
X111752167Y-86759881D02*
X112418834Y-86759881D01*
X111990262Y-87759881D01*
X112799786Y-87759881D02*
X112799786Y-86759881D01*
X113371215Y-87759881D02*
X112942643Y-87188452D01*
X113371215Y-86759881D02*
X112799786Y-87331310D01*
D12*
X112135500Y-85724167D02*
X111902166Y-85390833D01*
X111735500Y-85724167D02*
X111735500Y-85024167D01*
X112002166Y-85024167D01*
X112068833Y-85057500D01*
X112102166Y-85090833D01*
X112135500Y-85157500D01*
X112135500Y-85257500D01*
X112102166Y-85324167D01*
X112068833Y-85357500D01*
X112002166Y-85390833D01*
X111735500Y-85390833D01*
X112402166Y-85090833D02*
X112435500Y-85057500D01*
X112502166Y-85024167D01*
X112668833Y-85024167D01*
X112735500Y-85057500D01*
X112768833Y-85090833D01*
X112802166Y-85157500D01*
X112802166Y-85224167D01*
X112768833Y-85324167D01*
X112368833Y-85724167D01*
X112802166Y-85724167D01*
X113435500Y-85024167D02*
X113102167Y-85024167D01*
X113068833Y-85357500D01*
X113102167Y-85324167D01*
X113168833Y-85290833D01*
X113335500Y-85290833D01*
X113402167Y-85324167D01*
X113435500Y-85357500D01*
X113468833Y-85424167D01*
X113468833Y-85590833D01*
X113435500Y-85657500D01*
X113402167Y-85690833D01*
X113335500Y-85724167D01*
X113168833Y-85724167D01*
X113102167Y-85690833D01*
X113068833Y-85657500D01*
D11*
X68783381Y-94575285D02*
X68783381Y-95146714D01*
X68783381Y-94861000D02*
X67783381Y-94861000D01*
X67926238Y-94956238D01*
X68021476Y-95051476D01*
X68069095Y-95146714D01*
X68783381Y-94146714D02*
X67783381Y-94146714D01*
X68783381Y-93575285D02*
X68211952Y-94003857D01*
X67783381Y-93575285D02*
X68354810Y-94146714D01*
D12*
X70547667Y-94811000D02*
X70214333Y-95044334D01*
X70547667Y-95211000D02*
X69847667Y-95211000D01*
X69847667Y-94944334D01*
X69881000Y-94877667D01*
X69914333Y-94844334D01*
X69981000Y-94811000D01*
X70081000Y-94811000D01*
X70147667Y-94844334D01*
X70181000Y-94877667D01*
X70214333Y-94944334D01*
X70214333Y-95211000D01*
X69914333Y-94544334D02*
X69881000Y-94511000D01*
X69847667Y-94444334D01*
X69847667Y-94277667D01*
X69881000Y-94211000D01*
X69914333Y-94177667D01*
X69981000Y-94144334D01*
X70047667Y-94144334D01*
X70147667Y-94177667D01*
X70547667Y-94577667D01*
X70547667Y-94144334D01*
X69847667Y-93544333D02*
X69847667Y-93677667D01*
X69881000Y-93744333D01*
X69914333Y-93777667D01*
X70014333Y-93844333D01*
X70147667Y-93877667D01*
X70414333Y-93877667D01*
X70481000Y-93844333D01*
X70514333Y-93811000D01*
X70547667Y-93744333D01*
X70547667Y-93611000D01*
X70514333Y-93544333D01*
X70481000Y-93511000D01*
X70414333Y-93477667D01*
X70247667Y-93477667D01*
X70181000Y-93511000D01*
X70147667Y-93544333D01*
X70114333Y-93611000D01*
X70114333Y-93744333D01*
X70147667Y-93811000D01*
X70181000Y-93844333D01*
X70247667Y-93877667D01*
D11*
X111307667Y-105873381D02*
X111974334Y-105873381D01*
X111545762Y-106873381D01*
X112355286Y-106873381D02*
X112355286Y-105873381D01*
X112926715Y-106873381D02*
X112498143Y-106301952D01*
X112926715Y-105873381D02*
X112355286Y-106444810D01*
D12*
X111691000Y-104837667D02*
X111457666Y-104504333D01*
X111291000Y-104837667D02*
X111291000Y-104137667D01*
X111557666Y-104137667D01*
X111624333Y-104171000D01*
X111657666Y-104204333D01*
X111691000Y-104271000D01*
X111691000Y-104371000D01*
X111657666Y-104437667D01*
X111624333Y-104471000D01*
X111557666Y-104504333D01*
X111291000Y-104504333D01*
X111957666Y-104204333D02*
X111991000Y-104171000D01*
X112057666Y-104137667D01*
X112224333Y-104137667D01*
X112291000Y-104171000D01*
X112324333Y-104204333D01*
X112357666Y-104271000D01*
X112357666Y-104337667D01*
X112324333Y-104437667D01*
X111924333Y-104837667D01*
X112357666Y-104837667D01*
X112591000Y-104137667D02*
X113057667Y-104137667D01*
X112757667Y-104837667D01*
D11*
X114937881Y-75461785D02*
X114937881Y-76033214D01*
X114937881Y-75747500D02*
X113937881Y-75747500D01*
X114080738Y-75842738D01*
X114175976Y-75937976D01*
X114223595Y-76033214D01*
X114937881Y-75033214D02*
X113937881Y-75033214D01*
X114937881Y-74461785D02*
X114366452Y-74890357D01*
X113937881Y-74461785D02*
X114509310Y-75033214D01*
D12*
X112902167Y-75697500D02*
X112568833Y-75930834D01*
X112902167Y-76097500D02*
X112202167Y-76097500D01*
X112202167Y-75830834D01*
X112235500Y-75764167D01*
X112268833Y-75730834D01*
X112335500Y-75697500D01*
X112435500Y-75697500D01*
X112502167Y-75730834D01*
X112535500Y-75764167D01*
X112568833Y-75830834D01*
X112568833Y-76097500D01*
X112268833Y-75430834D02*
X112235500Y-75397500D01*
X112202167Y-75330834D01*
X112202167Y-75164167D01*
X112235500Y-75097500D01*
X112268833Y-75064167D01*
X112335500Y-75030834D01*
X112402167Y-75030834D01*
X112502167Y-75064167D01*
X112902167Y-75464167D01*
X112902167Y-75030834D01*
X112502167Y-74630833D02*
X112468833Y-74697500D01*
X112435500Y-74730833D01*
X112368833Y-74764167D01*
X112335500Y-74764167D01*
X112268833Y-74730833D01*
X112235500Y-74697500D01*
X112202167Y-74630833D01*
X112202167Y-74497500D01*
X112235500Y-74430833D01*
X112268833Y-74397500D01*
X112335500Y-74364167D01*
X112368833Y-74364167D01*
X112435500Y-74397500D01*
X112468833Y-74430833D01*
X112502167Y-74497500D01*
X112502167Y-74630833D01*
X112535500Y-74697500D01*
X112568833Y-74730833D01*
X112635500Y-74764167D01*
X112768833Y-74764167D01*
X112835500Y-74730833D01*
X112868833Y-74697500D01*
X112902167Y-74630833D01*
X112902167Y-74497500D01*
X112868833Y-74430833D01*
X112835500Y-74397500D01*
X112768833Y-74364167D01*
X112635500Y-74364167D01*
X112568833Y-74397500D01*
X112535500Y-74430833D01*
X112502167Y-74497500D01*
D11*
X102862167Y-82959881D02*
X103528834Y-82959881D01*
X103100262Y-83959881D01*
X103909786Y-83959881D02*
X103909786Y-82959881D01*
X104481215Y-83959881D02*
X104052643Y-83388452D01*
X104481215Y-82959881D02*
X103909786Y-83531310D01*
D12*
X103245500Y-85724167D02*
X103012166Y-85390833D01*
X102845500Y-85724167D02*
X102845500Y-85024167D01*
X103112166Y-85024167D01*
X103178833Y-85057500D01*
X103212166Y-85090833D01*
X103245500Y-85157500D01*
X103245500Y-85257500D01*
X103212166Y-85324167D01*
X103178833Y-85357500D01*
X103112166Y-85390833D01*
X102845500Y-85390833D01*
X103512166Y-85090833D02*
X103545500Y-85057500D01*
X103612166Y-85024167D01*
X103778833Y-85024167D01*
X103845500Y-85057500D01*
X103878833Y-85090833D01*
X103912166Y-85157500D01*
X103912166Y-85224167D01*
X103878833Y-85324167D01*
X103478833Y-85724167D01*
X103912166Y-85724167D01*
X104245500Y-85724167D02*
X104378833Y-85724167D01*
X104445500Y-85690833D01*
X104478833Y-85657500D01*
X104545500Y-85557500D01*
X104578833Y-85424167D01*
X104578833Y-85157500D01*
X104545500Y-85090833D01*
X104512167Y-85057500D01*
X104445500Y-85024167D01*
X104312167Y-85024167D01*
X104245500Y-85057500D01*
X104212167Y-85090833D01*
X104178833Y-85157500D01*
X104178833Y-85324167D01*
X104212167Y-85390833D01*
X104245500Y-85424167D01*
X104312167Y-85457500D01*
X104445500Y-85457500D01*
X104512167Y-85424167D01*
X104545500Y-85390833D01*
X104578833Y-85324167D01*
D11*
X111307667Y-98263381D02*
X111974334Y-98263381D01*
X111545762Y-99263381D01*
X112355286Y-99263381D02*
X112355286Y-98263381D01*
X112926715Y-99263381D02*
X112498143Y-98691952D01*
X112926715Y-98263381D02*
X112355286Y-98834810D01*
D12*
X111691000Y-101027667D02*
X111457666Y-100694333D01*
X111291000Y-101027667D02*
X111291000Y-100327667D01*
X111557666Y-100327667D01*
X111624333Y-100361000D01*
X111657666Y-100394333D01*
X111691000Y-100461000D01*
X111691000Y-100561000D01*
X111657666Y-100627667D01*
X111624333Y-100661000D01*
X111557666Y-100694333D01*
X111291000Y-100694333D01*
X111924333Y-100327667D02*
X112357666Y-100327667D01*
X112124333Y-100594333D01*
X112224333Y-100594333D01*
X112291000Y-100627667D01*
X112324333Y-100661000D01*
X112357666Y-100727667D01*
X112357666Y-100894333D01*
X112324333Y-100961000D01*
X112291000Y-100994333D01*
X112224333Y-101027667D01*
X112024333Y-101027667D01*
X111957666Y-100994333D01*
X111924333Y-100961000D01*
X112791000Y-100327667D02*
X112857667Y-100327667D01*
X112924333Y-100361000D01*
X112957667Y-100394333D01*
X112991000Y-100461000D01*
X113024333Y-100594333D01*
X113024333Y-100761000D01*
X112991000Y-100894333D01*
X112957667Y-100961000D01*
X112924333Y-100994333D01*
X112857667Y-101027667D01*
X112791000Y-101027667D01*
X112724333Y-100994333D01*
X112691000Y-100961000D01*
X112657667Y-100894333D01*
X112624333Y-100761000D01*
X112624333Y-100594333D01*
X112657667Y-100461000D01*
X112691000Y-100394333D01*
X112724333Y-100361000D01*
X112791000Y-100327667D01*
D11*
X111752167Y-79149881D02*
X112418834Y-79149881D01*
X111990262Y-80149881D01*
X112799786Y-80149881D02*
X112799786Y-79149881D01*
X113371215Y-80149881D02*
X112942643Y-79578452D01*
X113371215Y-79149881D02*
X112799786Y-79721310D01*
D12*
X112135500Y-81914167D02*
X111902166Y-81580833D01*
X111735500Y-81914167D02*
X111735500Y-81214167D01*
X112002166Y-81214167D01*
X112068833Y-81247500D01*
X112102166Y-81280833D01*
X112135500Y-81347500D01*
X112135500Y-81447500D01*
X112102166Y-81514167D01*
X112068833Y-81547500D01*
X112002166Y-81580833D01*
X111735500Y-81580833D01*
X112368833Y-81214167D02*
X112802166Y-81214167D01*
X112568833Y-81480833D01*
X112668833Y-81480833D01*
X112735500Y-81514167D01*
X112768833Y-81547500D01*
X112802166Y-81614167D01*
X112802166Y-81780833D01*
X112768833Y-81847500D01*
X112735500Y-81880833D01*
X112668833Y-81914167D01*
X112468833Y-81914167D01*
X112402166Y-81880833D01*
X112368833Y-81847500D01*
X113468833Y-81914167D02*
X113068833Y-81914167D01*
X113268833Y-81914167D02*
X113268833Y-81214167D01*
X113202167Y-81314167D01*
X113135500Y-81380833D01*
X113068833Y-81414167D01*
D11*
X80213381Y-94575285D02*
X80213381Y-95146714D01*
X80213381Y-94861000D02*
X79213381Y-94861000D01*
X79356238Y-94956238D01*
X79451476Y-95051476D01*
X79499095Y-95146714D01*
X80213381Y-94146714D02*
X79213381Y-94146714D01*
X80213381Y-93575285D02*
X79641952Y-94003857D01*
X79213381Y-93575285D02*
X79784810Y-94146714D01*
D12*
X81977667Y-94811000D02*
X81644333Y-95044334D01*
X81977667Y-95211000D02*
X81277667Y-95211000D01*
X81277667Y-94944334D01*
X81311000Y-94877667D01*
X81344333Y-94844334D01*
X81411000Y-94811000D01*
X81511000Y-94811000D01*
X81577667Y-94844334D01*
X81611000Y-94877667D01*
X81644333Y-94944334D01*
X81644333Y-95211000D01*
X81277667Y-94577667D02*
X81277667Y-94144334D01*
X81544333Y-94377667D01*
X81544333Y-94277667D01*
X81577667Y-94211000D01*
X81611000Y-94177667D01*
X81677667Y-94144334D01*
X81844333Y-94144334D01*
X81911000Y-94177667D01*
X81944333Y-94211000D01*
X81977667Y-94277667D01*
X81977667Y-94477667D01*
X81944333Y-94544334D01*
X81911000Y-94577667D01*
X81344333Y-93877667D02*
X81311000Y-93844333D01*
X81277667Y-93777667D01*
X81277667Y-93611000D01*
X81311000Y-93544333D01*
X81344333Y-93511000D01*
X81411000Y-93477667D01*
X81477667Y-93477667D01*
X81577667Y-93511000D01*
X81977667Y-93911000D01*
X81977667Y-93477667D01*
D11*
X94591215Y-87759881D02*
X94019786Y-87759881D01*
X94305500Y-87759881D02*
X94305500Y-86759881D01*
X94210262Y-86902738D01*
X94115024Y-86997976D01*
X94019786Y-87045595D01*
X95019786Y-87759881D02*
X95019786Y-86759881D01*
X95591215Y-87759881D02*
X95162643Y-87188452D01*
X95591215Y-86759881D02*
X95019786Y-87331310D01*
D12*
X94355500Y-85724167D02*
X94122166Y-85390833D01*
X93955500Y-85724167D02*
X93955500Y-85024167D01*
X94222166Y-85024167D01*
X94288833Y-85057500D01*
X94322166Y-85090833D01*
X94355500Y-85157500D01*
X94355500Y-85257500D01*
X94322166Y-85324167D01*
X94288833Y-85357500D01*
X94222166Y-85390833D01*
X93955500Y-85390833D01*
X94588833Y-85024167D02*
X95022166Y-85024167D01*
X94788833Y-85290833D01*
X94888833Y-85290833D01*
X94955500Y-85324167D01*
X94988833Y-85357500D01*
X95022166Y-85424167D01*
X95022166Y-85590833D01*
X94988833Y-85657500D01*
X94955500Y-85690833D01*
X94888833Y-85724167D01*
X94688833Y-85724167D01*
X94622166Y-85690833D01*
X94588833Y-85657500D01*
X95255500Y-85024167D02*
X95688833Y-85024167D01*
X95455500Y-85290833D01*
X95555500Y-85290833D01*
X95622167Y-85324167D01*
X95655500Y-85357500D01*
X95688833Y-85424167D01*
X95688833Y-85590833D01*
X95655500Y-85657500D01*
X95622167Y-85690833D01*
X95555500Y-85724167D01*
X95355500Y-85724167D01*
X95288833Y-85690833D01*
X95255500Y-85657500D01*
D11*
X79957381Y-130706285D02*
X79957381Y-131277714D01*
X79957381Y-130992000D02*
X78957381Y-130992000D01*
X79100238Y-131087238D01*
X79195476Y-131182476D01*
X79243095Y-131277714D01*
X79957381Y-130277714D02*
X78957381Y-130277714D01*
X79957381Y-129706285D02*
X79385952Y-130134857D01*
X78957381Y-129706285D02*
X79528810Y-130277714D01*
D12*
X81721667Y-130942000D02*
X81388333Y-131175334D01*
X81721667Y-131342000D02*
X81021667Y-131342000D01*
X81021667Y-131075334D01*
X81055000Y-131008667D01*
X81088333Y-130975334D01*
X81155000Y-130942000D01*
X81255000Y-130942000D01*
X81321667Y-130975334D01*
X81355000Y-131008667D01*
X81388333Y-131075334D01*
X81388333Y-131342000D01*
X81021667Y-130708667D02*
X81021667Y-130275334D01*
X81288333Y-130508667D01*
X81288333Y-130408667D01*
X81321667Y-130342000D01*
X81355000Y-130308667D01*
X81421667Y-130275334D01*
X81588333Y-130275334D01*
X81655000Y-130308667D01*
X81688333Y-130342000D01*
X81721667Y-130408667D01*
X81721667Y-130608667D01*
X81688333Y-130675334D01*
X81655000Y-130708667D01*
X81255000Y-129675333D02*
X81721667Y-129675333D01*
X80988333Y-129842000D02*
X81488333Y-130008667D01*
X81488333Y-129575333D01*
D11*
X77119286Y-137427714D02*
X77119286Y-138094381D01*
X76881190Y-137046762D02*
X76643095Y-137761048D01*
X77262143Y-137761048D01*
X77690714Y-138094381D02*
X77881190Y-138094381D01*
X77976429Y-138046762D01*
X78024048Y-137999143D01*
X78119286Y-137856286D01*
X78166905Y-137665810D01*
X78166905Y-137284857D01*
X78119286Y-137189619D01*
X78071667Y-137142000D01*
X77976429Y-137094381D01*
X77785952Y-137094381D01*
X77690714Y-137142000D01*
X77643095Y-137189619D01*
X77595476Y-137284857D01*
X77595476Y-137522952D01*
X77643095Y-137618190D01*
X77690714Y-137665810D01*
X77785952Y-137713429D01*
X77976429Y-137713429D01*
X78071667Y-137665810D01*
X78119286Y-137618190D01*
X78166905Y-137522952D01*
X78595476Y-138094381D02*
X78595476Y-137094381D01*
X79166905Y-138094381D02*
X78738333Y-137522952D01*
X79166905Y-137094381D02*
X78595476Y-137665810D01*
D12*
X77455000Y-136058667D02*
X77221666Y-135725333D01*
X77055000Y-136058667D02*
X77055000Y-135358667D01*
X77321666Y-135358667D01*
X77388333Y-135392000D01*
X77421666Y-135425333D01*
X77455000Y-135492000D01*
X77455000Y-135592000D01*
X77421666Y-135658667D01*
X77388333Y-135692000D01*
X77321666Y-135725333D01*
X77055000Y-135725333D01*
X77688333Y-135358667D02*
X78121666Y-135358667D01*
X77888333Y-135625333D01*
X77988333Y-135625333D01*
X78055000Y-135658667D01*
X78088333Y-135692000D01*
X78121666Y-135758667D01*
X78121666Y-135925333D01*
X78088333Y-135992000D01*
X78055000Y-136025333D01*
X77988333Y-136058667D01*
X77788333Y-136058667D01*
X77721666Y-136025333D01*
X77688333Y-135992000D01*
X78755000Y-135358667D02*
X78421667Y-135358667D01*
X78388333Y-135692000D01*
X78421667Y-135658667D01*
X78488333Y-135625333D01*
X78655000Y-135625333D01*
X78721667Y-135658667D01*
X78755000Y-135692000D01*
X78788333Y-135758667D01*
X78788333Y-135925333D01*
X78755000Y-135992000D01*
X78721667Y-136025333D01*
X78655000Y-136058667D01*
X78488333Y-136058667D01*
X78421667Y-136025333D01*
X78388333Y-135992000D01*
D11*
X75807381Y-131385333D02*
X75807381Y-130718666D01*
X76807381Y-131147238D01*
X76807381Y-130337714D02*
X75807381Y-130337714D01*
X76807381Y-129766285D02*
X76235952Y-130194857D01*
X75807381Y-129766285D02*
X76378810Y-130337714D01*
D12*
X78421667Y-130752000D02*
X78088333Y-130985334D01*
X78421667Y-131152000D02*
X77721667Y-131152000D01*
X77721667Y-130885334D01*
X77755000Y-130818667D01*
X77788333Y-130785334D01*
X77855000Y-130752000D01*
X77955000Y-130752000D01*
X78021667Y-130785334D01*
X78055000Y-130818667D01*
X78088333Y-130885334D01*
X78088333Y-131152000D01*
X77721667Y-130518667D02*
X77721667Y-130085334D01*
X77988333Y-130318667D01*
X77988333Y-130218667D01*
X78021667Y-130152000D01*
X78055000Y-130118667D01*
X78121667Y-130085334D01*
X78288333Y-130085334D01*
X78355000Y-130118667D01*
X78388333Y-130152000D01*
X78421667Y-130218667D01*
X78421667Y-130418667D01*
X78388333Y-130485334D01*
X78355000Y-130518667D01*
X77721667Y-129485333D02*
X77721667Y-129618667D01*
X77755000Y-129685333D01*
X77788333Y-129718667D01*
X77888333Y-129785333D01*
X78021667Y-129818667D01*
X78288333Y-129818667D01*
X78355000Y-129785333D01*
X78388333Y-129752000D01*
X78421667Y-129685333D01*
X78421667Y-129552000D01*
X78388333Y-129485333D01*
X78355000Y-129452000D01*
X78288333Y-129418667D01*
X78121667Y-129418667D01*
X78055000Y-129452000D01*
X78021667Y-129485333D01*
X77988333Y-129552000D01*
X77988333Y-129685333D01*
X78021667Y-129752000D01*
X78055000Y-129785333D01*
X78121667Y-129818667D01*
D11*
X109457381Y-130456285D02*
X109457381Y-131027714D01*
X109457381Y-130742000D02*
X108457381Y-130742000D01*
X108600238Y-130837238D01*
X108695476Y-130932476D01*
X108743095Y-131027714D01*
X109457381Y-130027714D02*
X108457381Y-130027714D01*
X109457381Y-129456285D02*
X108885952Y-129884857D01*
X108457381Y-129456285D02*
X109028810Y-130027714D01*
D12*
X111221667Y-130692000D02*
X110888333Y-130925334D01*
X111221667Y-131092000D02*
X110521667Y-131092000D01*
X110521667Y-130825334D01*
X110555000Y-130758667D01*
X110588333Y-130725334D01*
X110655000Y-130692000D01*
X110755000Y-130692000D01*
X110821667Y-130725334D01*
X110855000Y-130758667D01*
X110888333Y-130825334D01*
X110888333Y-131092000D01*
X110521667Y-130458667D02*
X110521667Y-130025334D01*
X110788333Y-130258667D01*
X110788333Y-130158667D01*
X110821667Y-130092000D01*
X110855000Y-130058667D01*
X110921667Y-130025334D01*
X111088333Y-130025334D01*
X111155000Y-130058667D01*
X111188333Y-130092000D01*
X111221667Y-130158667D01*
X111221667Y-130358667D01*
X111188333Y-130425334D01*
X111155000Y-130458667D01*
X110521667Y-129792000D02*
X110521667Y-129325333D01*
X111221667Y-129625333D01*
D11*
X76821667Y-136294381D02*
X77488334Y-136294381D01*
X77059762Y-137294381D01*
X77869286Y-137294381D02*
X77869286Y-136294381D01*
X78440715Y-137294381D02*
X78012143Y-136722952D01*
X78440715Y-136294381D02*
X77869286Y-136865810D01*
D12*
X77205000Y-139058667D02*
X76971666Y-138725333D01*
X76805000Y-139058667D02*
X76805000Y-138358667D01*
X77071666Y-138358667D01*
X77138333Y-138392000D01*
X77171666Y-138425333D01*
X77205000Y-138492000D01*
X77205000Y-138592000D01*
X77171666Y-138658667D01*
X77138333Y-138692000D01*
X77071666Y-138725333D01*
X76805000Y-138725333D01*
X77438333Y-138358667D02*
X77871666Y-138358667D01*
X77638333Y-138625333D01*
X77738333Y-138625333D01*
X77805000Y-138658667D01*
X77838333Y-138692000D01*
X77871666Y-138758667D01*
X77871666Y-138925333D01*
X77838333Y-138992000D01*
X77805000Y-139025333D01*
X77738333Y-139058667D01*
X77538333Y-139058667D01*
X77471666Y-139025333D01*
X77438333Y-138992000D01*
X78271667Y-138658667D02*
X78205000Y-138625333D01*
X78171667Y-138592000D01*
X78138333Y-138525333D01*
X78138333Y-138492000D01*
X78171667Y-138425333D01*
X78205000Y-138392000D01*
X78271667Y-138358667D01*
X78405000Y-138358667D01*
X78471667Y-138392000D01*
X78505000Y-138425333D01*
X78538333Y-138492000D01*
X78538333Y-138525333D01*
X78505000Y-138592000D01*
X78471667Y-138625333D01*
X78405000Y-138658667D01*
X78271667Y-138658667D01*
X78205000Y-138692000D01*
X78171667Y-138725333D01*
X78138333Y-138792000D01*
X78138333Y-138925333D01*
X78171667Y-138992000D01*
X78205000Y-139025333D01*
X78271667Y-139058667D01*
X78405000Y-139058667D01*
X78471667Y-139025333D01*
X78505000Y-138992000D01*
X78538333Y-138925333D01*
X78538333Y-138792000D01*
X78505000Y-138725333D01*
X78471667Y-138692000D01*
X78405000Y-138658667D01*
D11*
X108071667Y-136294381D02*
X108738334Y-136294381D01*
X108309762Y-137294381D01*
X109119286Y-137294381D02*
X109119286Y-136294381D01*
X109690715Y-137294381D02*
X109262143Y-136722952D01*
X109690715Y-136294381D02*
X109119286Y-136865810D01*
D12*
X108455000Y-139058667D02*
X108221666Y-138725333D01*
X108055000Y-139058667D02*
X108055000Y-138358667D01*
X108321666Y-138358667D01*
X108388333Y-138392000D01*
X108421666Y-138425333D01*
X108455000Y-138492000D01*
X108455000Y-138592000D01*
X108421666Y-138658667D01*
X108388333Y-138692000D01*
X108321666Y-138725333D01*
X108055000Y-138725333D01*
X108688333Y-138358667D02*
X109121666Y-138358667D01*
X108888333Y-138625333D01*
X108988333Y-138625333D01*
X109055000Y-138658667D01*
X109088333Y-138692000D01*
X109121666Y-138758667D01*
X109121666Y-138925333D01*
X109088333Y-138992000D01*
X109055000Y-139025333D01*
X108988333Y-139058667D01*
X108788333Y-139058667D01*
X108721666Y-139025333D01*
X108688333Y-138992000D01*
X109455000Y-139058667D02*
X109588333Y-139058667D01*
X109655000Y-139025333D01*
X109688333Y-138992000D01*
X109755000Y-138892000D01*
X109788333Y-138758667D01*
X109788333Y-138492000D01*
X109755000Y-138425333D01*
X109721667Y-138392000D01*
X109655000Y-138358667D01*
X109521667Y-138358667D01*
X109455000Y-138392000D01*
X109421667Y-138425333D01*
X109388333Y-138492000D01*
X109388333Y-138658667D01*
X109421667Y-138725333D01*
X109455000Y-138758667D01*
X109521667Y-138792000D01*
X109655000Y-138792000D01*
X109721667Y-138758667D01*
X109755000Y-138725333D01*
X109788333Y-138658667D01*
D11*
X92571667Y-140094381D02*
X93238334Y-140094381D01*
X92809762Y-141094381D01*
X93619286Y-141094381D02*
X93619286Y-140094381D01*
X94190715Y-141094381D02*
X93762143Y-140522952D01*
X94190715Y-140094381D02*
X93619286Y-140665810D01*
D12*
X92955000Y-139058667D02*
X92721666Y-138725333D01*
X92555000Y-139058667D02*
X92555000Y-138358667D01*
X92821666Y-138358667D01*
X92888333Y-138392000D01*
X92921666Y-138425333D01*
X92955000Y-138492000D01*
X92955000Y-138592000D01*
X92921666Y-138658667D01*
X92888333Y-138692000D01*
X92821666Y-138725333D01*
X92555000Y-138725333D01*
X93555000Y-138592000D02*
X93555000Y-139058667D01*
X93388333Y-138325333D02*
X93221666Y-138825333D01*
X93655000Y-138825333D01*
X94055000Y-138358667D02*
X94121667Y-138358667D01*
X94188333Y-138392000D01*
X94221667Y-138425333D01*
X94255000Y-138492000D01*
X94288333Y-138625333D01*
X94288333Y-138792000D01*
X94255000Y-138925333D01*
X94221667Y-138992000D01*
X94188333Y-139025333D01*
X94121667Y-139058667D01*
X94055000Y-139058667D01*
X93988333Y-139025333D01*
X93955000Y-138992000D01*
X93921667Y-138925333D01*
X93888333Y-138792000D01*
X93888333Y-138625333D01*
X93921667Y-138492000D01*
X93955000Y-138425333D01*
X93988333Y-138392000D01*
X94055000Y-138358667D01*
D11*
X108940715Y-134294381D02*
X108369286Y-134294381D01*
X108655000Y-134294381D02*
X108655000Y-133294381D01*
X108559762Y-133437238D01*
X108464524Y-133532476D01*
X108369286Y-133580095D01*
X109369286Y-134294381D02*
X109369286Y-133294381D01*
X109940715Y-134294381D02*
X109512143Y-133722952D01*
X109940715Y-133294381D02*
X109369286Y-133865810D01*
D12*
X108705000Y-136058667D02*
X108471666Y-135725333D01*
X108305000Y-136058667D02*
X108305000Y-135358667D01*
X108571666Y-135358667D01*
X108638333Y-135392000D01*
X108671666Y-135425333D01*
X108705000Y-135492000D01*
X108705000Y-135592000D01*
X108671666Y-135658667D01*
X108638333Y-135692000D01*
X108571666Y-135725333D01*
X108305000Y-135725333D01*
X109305000Y-135592000D02*
X109305000Y-136058667D01*
X109138333Y-135325333D02*
X108971666Y-135825333D01*
X109405000Y-135825333D01*
X110038333Y-136058667D02*
X109638333Y-136058667D01*
X109838333Y-136058667D02*
X109838333Y-135358667D01*
X109771667Y-135458667D01*
X109705000Y-135525333D01*
X109638333Y-135558667D01*
D11*
X100571667Y-136294381D02*
X101238334Y-136294381D01*
X100809762Y-137294381D01*
X101619286Y-137294381D02*
X101619286Y-136294381D01*
X102190715Y-137294381D02*
X101762143Y-136722952D01*
X102190715Y-136294381D02*
X101619286Y-136865810D01*
D12*
X100955000Y-139058667D02*
X100721666Y-138725333D01*
X100555000Y-139058667D02*
X100555000Y-138358667D01*
X100821666Y-138358667D01*
X100888333Y-138392000D01*
X100921666Y-138425333D01*
X100955000Y-138492000D01*
X100955000Y-138592000D01*
X100921666Y-138658667D01*
X100888333Y-138692000D01*
X100821666Y-138725333D01*
X100555000Y-138725333D01*
X101555000Y-138592000D02*
X101555000Y-139058667D01*
X101388333Y-138325333D02*
X101221666Y-138825333D01*
X101655000Y-138825333D01*
X101888333Y-138425333D02*
X101921667Y-138392000D01*
X101988333Y-138358667D01*
X102155000Y-138358667D01*
X102221667Y-138392000D01*
X102255000Y-138425333D01*
X102288333Y-138492000D01*
X102288333Y-138558667D01*
X102255000Y-138658667D01*
X101855000Y-139058667D01*
X102288333Y-139058667D01*
D11*
X100571667Y-133294381D02*
X101238334Y-133294381D01*
X100809762Y-134294381D01*
X101619286Y-134294381D02*
X101619286Y-133294381D01*
X102190715Y-134294381D02*
X101762143Y-133722952D01*
X102190715Y-133294381D02*
X101619286Y-133865810D01*
D12*
X100955000Y-136058667D02*
X100721666Y-135725333D01*
X100555000Y-136058667D02*
X100555000Y-135358667D01*
X100821666Y-135358667D01*
X100888333Y-135392000D01*
X100921666Y-135425333D01*
X100955000Y-135492000D01*
X100955000Y-135592000D01*
X100921666Y-135658667D01*
X100888333Y-135692000D01*
X100821666Y-135725333D01*
X100555000Y-135725333D01*
X101555000Y-135592000D02*
X101555000Y-136058667D01*
X101388333Y-135325333D02*
X101221666Y-135825333D01*
X101655000Y-135825333D01*
X101855000Y-135358667D02*
X102288333Y-135358667D01*
X102055000Y-135625333D01*
X102155000Y-135625333D01*
X102221667Y-135658667D01*
X102255000Y-135692000D01*
X102288333Y-135758667D01*
X102288333Y-135925333D01*
X102255000Y-135992000D01*
X102221667Y-136025333D01*
X102155000Y-136058667D01*
X101955000Y-136058667D01*
X101888333Y-136025333D01*
X101855000Y-135992000D01*
D11*
X68707381Y-130456285D02*
X68707381Y-131027714D01*
X68707381Y-130742000D02*
X67707381Y-130742000D01*
X67850238Y-130837238D01*
X67945476Y-130932476D01*
X67993095Y-131027714D01*
X68707381Y-130027714D02*
X67707381Y-130027714D01*
X68707381Y-129456285D02*
X68135952Y-129884857D01*
X67707381Y-129456285D02*
X68278810Y-130027714D01*
D12*
X70471667Y-130692000D02*
X70138333Y-130925334D01*
X70471667Y-131092000D02*
X69771667Y-131092000D01*
X69771667Y-130825334D01*
X69805000Y-130758667D01*
X69838333Y-130725334D01*
X69905000Y-130692000D01*
X70005000Y-130692000D01*
X70071667Y-130725334D01*
X70105000Y-130758667D01*
X70138333Y-130825334D01*
X70138333Y-131092000D01*
X70005000Y-130092000D02*
X70471667Y-130092000D01*
X69738333Y-130258667D02*
X70238333Y-130425334D01*
X70238333Y-129992000D01*
X70005000Y-129425333D02*
X70471667Y-129425333D01*
X69738333Y-129592000D02*
X70238333Y-129758667D01*
X70238333Y-129325333D01*
D11*
X86603381Y-117486381D02*
X86127190Y-117486381D01*
X86127190Y-116486381D01*
X86936714Y-117486381D02*
X86936714Y-116486381D01*
X87270048Y-117200667D01*
X87603381Y-116486381D01*
X87603381Y-117486381D01*
X87984333Y-116486381D02*
X88603381Y-116486381D01*
X88270047Y-116867333D01*
X88412905Y-116867333D01*
X88508143Y-116914952D01*
X88555762Y-116962571D01*
X88603381Y-117057810D01*
X88603381Y-117295905D01*
X88555762Y-117391143D01*
X88508143Y-117438762D01*
X88412905Y-117486381D01*
X88127190Y-117486381D01*
X88031952Y-117438762D01*
X87984333Y-117391143D01*
X88984333Y-116581619D02*
X89031952Y-116534000D01*
X89127190Y-116486381D01*
X89365286Y-116486381D01*
X89460524Y-116534000D01*
X89508143Y-116581619D01*
X89555762Y-116676857D01*
X89555762Y-116772095D01*
X89508143Y-116914952D01*
X88936714Y-117486381D01*
X89555762Y-117486381D01*
X90412905Y-116819714D02*
X90412905Y-117486381D01*
X90174809Y-116438762D02*
X89936714Y-117153048D01*
X90555762Y-117153048D01*
X90698619Y-117581619D02*
X91460524Y-117581619D01*
X92127191Y-116819714D02*
X92127191Y-117486381D01*
X91889095Y-116438762D02*
X91651000Y-117153048D01*
X92270048Y-117153048D01*
X88541476Y-113045905D02*
X88541476Y-113693524D01*
X88579571Y-113769714D01*
X88617667Y-113807810D01*
X88693857Y-113845905D01*
X88846238Y-113845905D01*
X88922429Y-113807810D01*
X88960524Y-113769714D01*
X88998619Y-113693524D01*
X88998619Y-113045905D01*
X89798619Y-113845905D02*
X89341476Y-113845905D01*
X89570047Y-113845905D02*
X89570047Y-113045905D01*
X89493857Y-113160190D01*
X89417666Y-113236381D01*
X89341476Y-113274476D01*
X81851952Y-125240667D02*
X82328143Y-125240667D01*
X81756714Y-125526381D02*
X82090047Y-124526381D01*
X82423381Y-125526381D01*
X82756714Y-125526381D02*
X82756714Y-124526381D01*
X82994809Y-124526381D01*
X83137667Y-124574000D01*
X83232905Y-124669238D01*
X83280524Y-124764476D01*
X83328143Y-124954952D01*
X83328143Y-125097810D01*
X83280524Y-125288286D01*
X83232905Y-125383524D01*
X83137667Y-125478762D01*
X82994809Y-125526381D01*
X82756714Y-125526381D01*
X84328143Y-125431143D02*
X84280524Y-125478762D01*
X84137667Y-125526381D01*
X84042429Y-125526381D01*
X83899571Y-125478762D01*
X83804333Y-125383524D01*
X83756714Y-125288286D01*
X83709095Y-125097810D01*
X83709095Y-124954952D01*
X83756714Y-124764476D01*
X83804333Y-124669238D01*
X83899571Y-124574000D01*
X84042429Y-124526381D01*
X84137667Y-124526381D01*
X84280524Y-124574000D01*
X84328143Y-124621619D01*
X84709095Y-125478762D02*
X84851952Y-125526381D01*
X85090048Y-125526381D01*
X85185286Y-125478762D01*
X85232905Y-125431143D01*
X85280524Y-125335905D01*
X85280524Y-125240667D01*
X85232905Y-125145429D01*
X85185286Y-125097810D01*
X85090048Y-125050190D01*
X84899571Y-125002571D01*
X84804333Y-124954952D01*
X84756714Y-124907333D01*
X84709095Y-124812095D01*
X84709095Y-124716857D01*
X84756714Y-124621619D01*
X84804333Y-124574000D01*
X84899571Y-124526381D01*
X85137667Y-124526381D01*
X85280524Y-124574000D01*
X85613857Y-124526381D02*
X86280524Y-124526381D01*
X85851952Y-125526381D01*
X87090048Y-124859714D02*
X87090048Y-125526381D01*
X86851952Y-124478762D02*
X86613857Y-125193048D01*
X87232905Y-125193048D01*
X87518619Y-124526381D02*
X88185286Y-124526381D01*
X87756714Y-125526381D01*
X88994810Y-124526381D02*
X88804333Y-124526381D01*
X88709095Y-124574000D01*
X88661476Y-124621619D01*
X88566238Y-124764476D01*
X88518619Y-124954952D01*
X88518619Y-125335905D01*
X88566238Y-125431143D01*
X88613857Y-125478762D01*
X88709095Y-125526381D01*
X88899572Y-125526381D01*
X88994810Y-125478762D01*
X89042429Y-125431143D01*
X89090048Y-125335905D01*
X89090048Y-125097810D01*
X89042429Y-125002571D01*
X88994810Y-124954952D01*
X88899572Y-124907333D01*
X88709095Y-124907333D01*
X88613857Y-124954952D01*
X88566238Y-125002571D01*
X88518619Y-125097810D01*
D13*
X85197190Y-122554952D02*
X85601952Y-122554952D01*
X85649571Y-122531143D01*
X85673381Y-122507333D01*
X85697190Y-122459714D01*
X85697190Y-122364476D01*
X85673381Y-122316857D01*
X85649571Y-122293048D01*
X85601952Y-122269238D01*
X85197190Y-122269238D01*
X85244810Y-122054952D02*
X85221000Y-122031142D01*
X85197190Y-121983523D01*
X85197190Y-121864476D01*
X85221000Y-121816857D01*
X85244810Y-121793047D01*
X85292429Y-121769238D01*
X85340048Y-121769238D01*
X85411476Y-121793047D01*
X85697190Y-122078761D01*
X85697190Y-121769238D01*
D11*
X86733381Y-98363381D02*
X86257190Y-98363381D01*
X86257190Y-97363381D01*
X87066714Y-98363381D02*
X87066714Y-97363381D01*
X87400048Y-98077667D01*
X87733381Y-97363381D01*
X87733381Y-98363381D01*
X88114333Y-97363381D02*
X88733381Y-97363381D01*
X88400047Y-97744333D01*
X88542905Y-97744333D01*
X88638143Y-97791952D01*
X88685762Y-97839571D01*
X88733381Y-97934810D01*
X88733381Y-98172905D01*
X88685762Y-98268143D01*
X88638143Y-98315762D01*
X88542905Y-98363381D01*
X88257190Y-98363381D01*
X88161952Y-98315762D01*
X88114333Y-98268143D01*
X89114333Y-97458619D02*
X89161952Y-97411000D01*
X89257190Y-97363381D01*
X89495286Y-97363381D01*
X89590524Y-97411000D01*
X89638143Y-97458619D01*
X89685762Y-97553857D01*
X89685762Y-97649095D01*
X89638143Y-97791952D01*
X89066714Y-98363381D01*
X89685762Y-98363381D01*
X90542905Y-97696714D02*
X90542905Y-98363381D01*
X90304809Y-97315762D02*
X90066714Y-98030048D01*
X90685762Y-98030048D01*
X90828619Y-98458619D02*
X91590524Y-98458619D01*
X92257191Y-97696714D02*
X92257191Y-98363381D01*
X92019095Y-97315762D02*
X91781000Y-98030048D01*
X92400048Y-98030048D01*
X88671476Y-93922905D02*
X88671476Y-94570524D01*
X88709571Y-94646714D01*
X88747667Y-94684810D01*
X88823857Y-94722905D01*
X88976238Y-94722905D01*
X89052429Y-94684810D01*
X89090524Y-94646714D01*
X89128619Y-94570524D01*
X89128619Y-93922905D01*
X89433381Y-93922905D02*
X89928619Y-93922905D01*
X89661952Y-94227667D01*
X89776238Y-94227667D01*
X89852428Y-94265762D01*
X89890524Y-94303857D01*
X89928619Y-94380048D01*
X89928619Y-94570524D01*
X89890524Y-94646714D01*
X89852428Y-94684810D01*
X89776238Y-94722905D01*
X89547666Y-94722905D01*
X89471476Y-94684810D01*
X89433381Y-94646714D01*
X87177881Y-79249881D02*
X86701690Y-79249881D01*
X86701690Y-78249881D01*
X87511214Y-79249881D02*
X87511214Y-78249881D01*
X87844548Y-78964167D01*
X88177881Y-78249881D01*
X88177881Y-79249881D01*
X88558833Y-78249881D02*
X89177881Y-78249881D01*
X88844547Y-78630833D01*
X88987405Y-78630833D01*
X89082643Y-78678452D01*
X89130262Y-78726071D01*
X89177881Y-78821310D01*
X89177881Y-79059405D01*
X89130262Y-79154643D01*
X89082643Y-79202262D01*
X88987405Y-79249881D01*
X88701690Y-79249881D01*
X88606452Y-79202262D01*
X88558833Y-79154643D01*
X89558833Y-78345119D02*
X89606452Y-78297500D01*
X89701690Y-78249881D01*
X89939786Y-78249881D01*
X90035024Y-78297500D01*
X90082643Y-78345119D01*
X90130262Y-78440357D01*
X90130262Y-78535595D01*
X90082643Y-78678452D01*
X89511214Y-79249881D01*
X90130262Y-79249881D01*
X90987405Y-78583214D02*
X90987405Y-79249881D01*
X90749309Y-78202262D02*
X90511214Y-78916548D01*
X91130262Y-78916548D01*
X91273119Y-79345119D02*
X92035024Y-79345119D01*
X92701691Y-78583214D02*
X92701691Y-79249881D01*
X92463595Y-78202262D02*
X92225500Y-78916548D01*
X92844548Y-78916548D01*
X89115976Y-74809405D02*
X89115976Y-75457024D01*
X89154071Y-75533214D01*
X89192167Y-75571310D01*
X89268357Y-75609405D01*
X89420738Y-75609405D01*
X89496929Y-75571310D01*
X89535024Y-75533214D01*
X89573119Y-75457024D01*
X89573119Y-74809405D01*
X90296928Y-75076071D02*
X90296928Y-75609405D01*
X90106452Y-74771310D02*
X89915976Y-75342738D01*
X90411214Y-75342738D01*
X81851952Y-105047667D02*
X82328143Y-105047667D01*
X81756714Y-105333381D02*
X82090047Y-104333381D01*
X82423381Y-105333381D01*
X82756714Y-105333381D02*
X82756714Y-104333381D01*
X82994809Y-104333381D01*
X83137667Y-104381000D01*
X83232905Y-104476238D01*
X83280524Y-104571476D01*
X83328143Y-104761952D01*
X83328143Y-104904810D01*
X83280524Y-105095286D01*
X83232905Y-105190524D01*
X83137667Y-105285762D01*
X82994809Y-105333381D01*
X82756714Y-105333381D01*
X84328143Y-105238143D02*
X84280524Y-105285762D01*
X84137667Y-105333381D01*
X84042429Y-105333381D01*
X83899571Y-105285762D01*
X83804333Y-105190524D01*
X83756714Y-105095286D01*
X83709095Y-104904810D01*
X83709095Y-104761952D01*
X83756714Y-104571476D01*
X83804333Y-104476238D01*
X83899571Y-104381000D01*
X84042429Y-104333381D01*
X84137667Y-104333381D01*
X84280524Y-104381000D01*
X84328143Y-104428619D01*
X84709095Y-105285762D02*
X84851952Y-105333381D01*
X85090048Y-105333381D01*
X85185286Y-105285762D01*
X85232905Y-105238143D01*
X85280524Y-105142905D01*
X85280524Y-105047667D01*
X85232905Y-104952429D01*
X85185286Y-104904810D01*
X85090048Y-104857190D01*
X84899571Y-104809571D01*
X84804333Y-104761952D01*
X84756714Y-104714333D01*
X84709095Y-104619095D01*
X84709095Y-104523857D01*
X84756714Y-104428619D01*
X84804333Y-104381000D01*
X84899571Y-104333381D01*
X85137667Y-104333381D01*
X85280524Y-104381000D01*
X85613857Y-104333381D02*
X86280524Y-104333381D01*
X85851952Y-105333381D01*
X87090048Y-104666714D02*
X87090048Y-105333381D01*
X86851952Y-104285762D02*
X86613857Y-105000048D01*
X87232905Y-105000048D01*
X87518619Y-104333381D02*
X88185286Y-104333381D01*
X87756714Y-105333381D01*
X88994810Y-104333381D02*
X88804333Y-104333381D01*
X88709095Y-104381000D01*
X88661476Y-104428619D01*
X88566238Y-104571476D01*
X88518619Y-104761952D01*
X88518619Y-105142905D01*
X88566238Y-105238143D01*
X88613857Y-105285762D01*
X88709095Y-105333381D01*
X88899572Y-105333381D01*
X88994810Y-105285762D01*
X89042429Y-105238143D01*
X89090048Y-105142905D01*
X89090048Y-104904810D01*
X89042429Y-104809571D01*
X88994810Y-104761952D01*
X88899572Y-104714333D01*
X88709095Y-104714333D01*
X88613857Y-104761952D01*
X88566238Y-104809571D01*
X88518619Y-104904810D01*
D13*
X85197190Y-102361952D02*
X85601952Y-102361952D01*
X85649571Y-102338143D01*
X85673381Y-102314333D01*
X85697190Y-102266714D01*
X85697190Y-102171476D01*
X85673381Y-102123857D01*
X85649571Y-102100048D01*
X85601952Y-102076238D01*
X85197190Y-102076238D01*
X85197190Y-101600047D02*
X85197190Y-101838142D01*
X85435286Y-101861952D01*
X85411476Y-101838142D01*
X85387667Y-101790523D01*
X85387667Y-101671476D01*
X85411476Y-101623857D01*
X85435286Y-101600047D01*
X85482905Y-101576238D01*
X85601952Y-101576238D01*
X85649571Y-101600047D01*
X85673381Y-101623857D01*
X85697190Y-101671476D01*
X85697190Y-101790523D01*
X85673381Y-101838142D01*
X85649571Y-101861952D01*
D11*
X82296452Y-85934167D02*
X82772643Y-85934167D01*
X82201214Y-86219881D02*
X82534547Y-85219881D01*
X82867881Y-86219881D01*
X83201214Y-86219881D02*
X83201214Y-85219881D01*
X83439309Y-85219881D01*
X83582167Y-85267500D01*
X83677405Y-85362738D01*
X83725024Y-85457976D01*
X83772643Y-85648452D01*
X83772643Y-85791310D01*
X83725024Y-85981786D01*
X83677405Y-86077024D01*
X83582167Y-86172262D01*
X83439309Y-86219881D01*
X83201214Y-86219881D01*
X84772643Y-86124643D02*
X84725024Y-86172262D01*
X84582167Y-86219881D01*
X84486929Y-86219881D01*
X84344071Y-86172262D01*
X84248833Y-86077024D01*
X84201214Y-85981786D01*
X84153595Y-85791310D01*
X84153595Y-85648452D01*
X84201214Y-85457976D01*
X84248833Y-85362738D01*
X84344071Y-85267500D01*
X84486929Y-85219881D01*
X84582167Y-85219881D01*
X84725024Y-85267500D01*
X84772643Y-85315119D01*
X85153595Y-86172262D02*
X85296452Y-86219881D01*
X85534548Y-86219881D01*
X85629786Y-86172262D01*
X85677405Y-86124643D01*
X85725024Y-86029405D01*
X85725024Y-85934167D01*
X85677405Y-85838929D01*
X85629786Y-85791310D01*
X85534548Y-85743690D01*
X85344071Y-85696071D01*
X85248833Y-85648452D01*
X85201214Y-85600833D01*
X85153595Y-85505595D01*
X85153595Y-85410357D01*
X85201214Y-85315119D01*
X85248833Y-85267500D01*
X85344071Y-85219881D01*
X85582167Y-85219881D01*
X85725024Y-85267500D01*
X86058357Y-85219881D02*
X86725024Y-85219881D01*
X86296452Y-86219881D01*
X87534548Y-85553214D02*
X87534548Y-86219881D01*
X87296452Y-85172262D02*
X87058357Y-85886548D01*
X87677405Y-85886548D01*
X87963119Y-85219881D02*
X88629786Y-85219881D01*
X88201214Y-86219881D01*
X89439310Y-85219881D02*
X89248833Y-85219881D01*
X89153595Y-85267500D01*
X89105976Y-85315119D01*
X89010738Y-85457976D01*
X88963119Y-85648452D01*
X88963119Y-86029405D01*
X89010738Y-86124643D01*
X89058357Y-86172262D01*
X89153595Y-86219881D01*
X89344072Y-86219881D01*
X89439310Y-86172262D01*
X89486929Y-86124643D01*
X89534548Y-86029405D01*
X89534548Y-85791310D01*
X89486929Y-85696071D01*
X89439310Y-85648452D01*
X89344072Y-85600833D01*
X89153595Y-85600833D01*
X89058357Y-85648452D01*
X89010738Y-85696071D01*
X88963119Y-85791310D01*
D13*
X85641690Y-83248452D02*
X86046452Y-83248452D01*
X86094071Y-83224643D01*
X86117881Y-83200833D01*
X86141690Y-83153214D01*
X86141690Y-83057976D01*
X86117881Y-83010357D01*
X86094071Y-82986548D01*
X86046452Y-82962738D01*
X85641690Y-82962738D01*
X85641690Y-82510357D02*
X85641690Y-82605595D01*
X85665500Y-82653214D01*
X85689310Y-82677023D01*
X85760738Y-82724642D01*
X85855976Y-82748452D01*
X86046452Y-82748452D01*
X86094071Y-82724642D01*
X86117881Y-82700833D01*
X86141690Y-82653214D01*
X86141690Y-82557976D01*
X86117881Y-82510357D01*
X86094071Y-82486547D01*
X86046452Y-82462738D01*
X85927405Y-82462738D01*
X85879786Y-82486547D01*
X85855976Y-82510357D01*
X85832167Y-82557976D01*
X85832167Y-82653214D01*
X85855976Y-82700833D01*
X85879786Y-82724642D01*
X85927405Y-82748452D01*
D11*
X86357381Y-134494381D02*
X85881190Y-134494381D01*
X85881190Y-133494381D01*
X86690714Y-134494381D02*
X86690714Y-133494381D01*
X87024048Y-134208667D01*
X87357381Y-133494381D01*
X87357381Y-134494381D01*
X87738333Y-133494381D02*
X88357381Y-133494381D01*
X88024047Y-133875333D01*
X88166905Y-133875333D01*
X88262143Y-133922952D01*
X88309762Y-133970571D01*
X88357381Y-134065810D01*
X88357381Y-134303905D01*
X88309762Y-134399143D01*
X88262143Y-134446762D01*
X88166905Y-134494381D01*
X87881190Y-134494381D01*
X87785952Y-134446762D01*
X87738333Y-134399143D01*
X88738333Y-133589619D02*
X88785952Y-133542000D01*
X88881190Y-133494381D01*
X89119286Y-133494381D01*
X89214524Y-133542000D01*
X89262143Y-133589619D01*
X89309762Y-133684857D01*
X89309762Y-133780095D01*
X89262143Y-133922952D01*
X88690714Y-134494381D01*
X89309762Y-134494381D01*
X90166905Y-133827714D02*
X90166905Y-134494381D01*
X89928809Y-133446762D02*
X89690714Y-134161048D01*
X90309762Y-134161048D01*
X90452619Y-134589619D02*
X91214524Y-134589619D01*
X91881191Y-133827714D02*
X91881191Y-134494381D01*
X91643095Y-133446762D02*
X91405000Y-134161048D01*
X92024048Y-134161048D01*
X88295476Y-130053905D02*
X88295476Y-130701524D01*
X88333571Y-130777714D01*
X88371667Y-130815810D01*
X88447857Y-130853905D01*
X88600238Y-130853905D01*
X88676429Y-130815810D01*
X88714524Y-130777714D01*
X88752619Y-130701524D01*
X88752619Y-130053905D01*
X89057381Y-130053905D02*
X89590714Y-130053905D01*
X89247857Y-130853905D01*
X81785952Y-140808667D02*
X82262143Y-140808667D01*
X81690714Y-141094381D02*
X82024047Y-140094381D01*
X82357381Y-141094381D01*
X82690714Y-141094381D02*
X82690714Y-140094381D01*
X82928809Y-140094381D01*
X83071667Y-140142000D01*
X83166905Y-140237238D01*
X83214524Y-140332476D01*
X83262143Y-140522952D01*
X83262143Y-140665810D01*
X83214524Y-140856286D01*
X83166905Y-140951524D01*
X83071667Y-141046762D01*
X82928809Y-141094381D01*
X82690714Y-141094381D01*
X84262143Y-140999143D02*
X84214524Y-141046762D01*
X84071667Y-141094381D01*
X83976429Y-141094381D01*
X83833571Y-141046762D01*
X83738333Y-140951524D01*
X83690714Y-140856286D01*
X83643095Y-140665810D01*
X83643095Y-140522952D01*
X83690714Y-140332476D01*
X83738333Y-140237238D01*
X83833571Y-140142000D01*
X83976429Y-140094381D01*
X84071667Y-140094381D01*
X84214524Y-140142000D01*
X84262143Y-140189619D01*
X84643095Y-141046762D02*
X84785952Y-141094381D01*
X85024048Y-141094381D01*
X85119286Y-141046762D01*
X85166905Y-140999143D01*
X85214524Y-140903905D01*
X85214524Y-140808667D01*
X85166905Y-140713429D01*
X85119286Y-140665810D01*
X85024048Y-140618190D01*
X84833571Y-140570571D01*
X84738333Y-140522952D01*
X84690714Y-140475333D01*
X84643095Y-140380095D01*
X84643095Y-140284857D01*
X84690714Y-140189619D01*
X84738333Y-140142000D01*
X84833571Y-140094381D01*
X85071667Y-140094381D01*
X85214524Y-140142000D01*
X85547857Y-140094381D02*
X86214524Y-140094381D01*
X85785952Y-141094381D01*
X87024048Y-140427714D02*
X87024048Y-141094381D01*
X86785952Y-140046762D02*
X86547857Y-140761048D01*
X87166905Y-140761048D01*
X87452619Y-140094381D02*
X88119286Y-140094381D01*
X87690714Y-141094381D01*
X88928810Y-140094381D02*
X88738333Y-140094381D01*
X88643095Y-140142000D01*
X88595476Y-140189619D01*
X88500238Y-140332476D01*
X88452619Y-140522952D01*
X88452619Y-140903905D01*
X88500238Y-140999143D01*
X88547857Y-141046762D01*
X88643095Y-141094381D01*
X88833572Y-141094381D01*
X88928810Y-141046762D01*
X88976429Y-140999143D01*
X89024048Y-140903905D01*
X89024048Y-140665810D01*
X88976429Y-140570571D01*
X88928810Y-140522952D01*
X88833572Y-140475333D01*
X88643095Y-140475333D01*
X88547857Y-140522952D01*
X88500238Y-140570571D01*
X88452619Y-140665810D01*
D13*
X85131190Y-138122952D02*
X85535952Y-138122952D01*
X85583571Y-138099143D01*
X85607381Y-138075333D01*
X85631190Y-138027714D01*
X85631190Y-137932476D01*
X85607381Y-137884857D01*
X85583571Y-137861048D01*
X85535952Y-137837238D01*
X85131190Y-137837238D01*
X85345476Y-137527714D02*
X85321667Y-137575333D01*
X85297857Y-137599142D01*
X85250238Y-137622952D01*
X85226429Y-137622952D01*
X85178810Y-137599142D01*
X85155000Y-137575333D01*
X85131190Y-137527714D01*
X85131190Y-137432476D01*
X85155000Y-137384857D01*
X85178810Y-137361047D01*
X85226429Y-137337238D01*
X85250238Y-137337238D01*
X85297857Y-137361047D01*
X85321667Y-137384857D01*
X85345476Y-137432476D01*
X85345476Y-137527714D01*
X85369286Y-137575333D01*
X85393095Y-137599142D01*
X85440714Y-137622952D01*
X85535952Y-137622952D01*
X85583571Y-137599142D01*
X85607381Y-137575333D01*
X85631190Y-137527714D01*
X85631190Y-137432476D01*
X85607381Y-137384857D01*
X85583571Y-137361047D01*
X85535952Y-137337238D01*
X85440714Y-137337238D01*
X85393095Y-137361047D01*
X85369286Y-137384857D01*
X85345476Y-137432476D01*
D11*
X116848405Y-115717143D02*
X116800786Y-115764762D01*
X116657929Y-115812381D01*
X116562691Y-115812381D01*
X116419833Y-115764762D01*
X116324595Y-115669524D01*
X116276976Y-115574286D01*
X116229357Y-115383810D01*
X116229357Y-115240952D01*
X116276976Y-115050476D01*
X116324595Y-114955238D01*
X116419833Y-114860000D01*
X116562691Y-114812381D01*
X116657929Y-114812381D01*
X116800786Y-114860000D01*
X116848405Y-114907619D01*
X117419833Y-115812381D02*
X117324595Y-115764762D01*
X117276976Y-115717143D01*
X117229357Y-115621905D01*
X117229357Y-115336190D01*
X117276976Y-115240952D01*
X117324595Y-115193333D01*
X117419833Y-115145714D01*
X117562691Y-115145714D01*
X117657929Y-115193333D01*
X117705548Y-115240952D01*
X117753167Y-115336190D01*
X117753167Y-115621905D01*
X117705548Y-115717143D01*
X117657929Y-115764762D01*
X117562691Y-115812381D01*
X117419833Y-115812381D01*
X118181738Y-115145714D02*
X118181738Y-115812381D01*
X118181738Y-115240952D02*
X118229357Y-115193333D01*
X118324595Y-115145714D01*
X118467453Y-115145714D01*
X118562691Y-115193333D01*
X118610310Y-115288571D01*
X118610310Y-115812381D01*
X119086500Y-115145714D02*
X119086500Y-115812381D01*
X119086500Y-115240952D02*
X119134119Y-115193333D01*
X119229357Y-115145714D01*
X119372215Y-115145714D01*
X119467453Y-115193333D01*
X119515072Y-115288571D01*
X119515072Y-115812381D01*
X119753167Y-115907619D02*
X120515072Y-115907619D01*
X120943643Y-114812381D02*
X121038882Y-114812381D01*
X121134120Y-114860000D01*
X121181739Y-114907619D01*
X121229358Y-115002857D01*
X121276977Y-115193333D01*
X121276977Y-115431429D01*
X121229358Y-115621905D01*
X121181739Y-115717143D01*
X121134120Y-115764762D01*
X121038882Y-115812381D01*
X120943643Y-115812381D01*
X120848405Y-115764762D01*
X120800786Y-115717143D01*
X120753167Y-115621905D01*
X120705548Y-115431429D01*
X120705548Y-115193333D01*
X120753167Y-115002857D01*
X120800786Y-114907619D01*
X120848405Y-114860000D01*
X120943643Y-114812381D01*
X122229358Y-115812381D02*
X121657929Y-115812381D01*
X121943643Y-115812381D02*
X121943643Y-114812381D01*
X121848405Y-114955238D01*
X121753167Y-115050476D01*
X121657929Y-115098095D01*
X122562691Y-115812381D02*
X123086501Y-115145714D01*
X122562691Y-115145714D02*
X123086501Y-115812381D01*
X123657929Y-114812381D02*
X123753168Y-114812381D01*
X123848406Y-114860000D01*
X123896025Y-114907619D01*
X123943644Y-115002857D01*
X123991263Y-115193333D01*
X123991263Y-115431429D01*
X123943644Y-115621905D01*
X123896025Y-115717143D01*
X123848406Y-115764762D01*
X123753168Y-115812381D01*
X123657929Y-115812381D01*
X123562691Y-115764762D01*
X123515072Y-115717143D01*
X123467453Y-115621905D01*
X123419834Y-115431429D01*
X123419834Y-115193333D01*
X123467453Y-115002857D01*
X123515072Y-114907619D01*
X123562691Y-114860000D01*
X123657929Y-114812381D01*
X124848406Y-114812381D02*
X124657929Y-114812381D01*
X124562691Y-114860000D01*
X124515072Y-114907619D01*
X124419834Y-115050476D01*
X124372215Y-115240952D01*
X124372215Y-115621905D01*
X124419834Y-115717143D01*
X124467453Y-115764762D01*
X124562691Y-115812381D01*
X124753168Y-115812381D01*
X124848406Y-115764762D01*
X124896025Y-115717143D01*
X124943644Y-115621905D01*
X124943644Y-115383810D01*
X124896025Y-115288571D01*
X124848406Y-115240952D01*
X124753168Y-115193333D01*
X124562691Y-115193333D01*
X124467453Y-115240952D01*
X124419834Y-115288571D01*
X124372215Y-115383810D01*
X120038881Y-107013333D02*
X120753167Y-107013333D01*
X120896024Y-107060953D01*
X120991262Y-107156191D01*
X121038881Y-107299048D01*
X121038881Y-107394286D01*
X120038881Y-106632381D02*
X120038881Y-106013333D01*
X120419833Y-106346667D01*
X120419833Y-106203809D01*
X120467452Y-106108571D01*
X120515071Y-106060952D01*
X120610310Y-106013333D01*
X120848405Y-106013333D01*
X120943643Y-106060952D01*
X120991262Y-106108571D01*
X121038881Y-106203809D01*
X121038881Y-106489524D01*
X120991262Y-106584762D01*
X120943643Y-106632381D01*
X116721405Y-139529643D02*
X116673786Y-139577262D01*
X116530929Y-139624881D01*
X116435691Y-139624881D01*
X116292833Y-139577262D01*
X116197595Y-139482024D01*
X116149976Y-139386786D01*
X116102357Y-139196310D01*
X116102357Y-139053452D01*
X116149976Y-138862976D01*
X116197595Y-138767738D01*
X116292833Y-138672500D01*
X116435691Y-138624881D01*
X116530929Y-138624881D01*
X116673786Y-138672500D01*
X116721405Y-138720119D01*
X117292833Y-139624881D02*
X117197595Y-139577262D01*
X117149976Y-139529643D01*
X117102357Y-139434405D01*
X117102357Y-139148690D01*
X117149976Y-139053452D01*
X117197595Y-139005833D01*
X117292833Y-138958214D01*
X117435691Y-138958214D01*
X117530929Y-139005833D01*
X117578548Y-139053452D01*
X117626167Y-139148690D01*
X117626167Y-139434405D01*
X117578548Y-139529643D01*
X117530929Y-139577262D01*
X117435691Y-139624881D01*
X117292833Y-139624881D01*
X118054738Y-138958214D02*
X118054738Y-139624881D01*
X118054738Y-139053452D02*
X118102357Y-139005833D01*
X118197595Y-138958214D01*
X118340453Y-138958214D01*
X118435691Y-139005833D01*
X118483310Y-139101071D01*
X118483310Y-139624881D01*
X118959500Y-138958214D02*
X118959500Y-139624881D01*
X118959500Y-139053452D02*
X119007119Y-139005833D01*
X119102357Y-138958214D01*
X119245215Y-138958214D01*
X119340453Y-139005833D01*
X119388072Y-139101071D01*
X119388072Y-139624881D01*
X119626167Y-139720119D02*
X120388072Y-139720119D01*
X120816643Y-138624881D02*
X120911882Y-138624881D01*
X121007120Y-138672500D01*
X121054739Y-138720119D01*
X121102358Y-138815357D01*
X121149977Y-139005833D01*
X121149977Y-139243929D01*
X121102358Y-139434405D01*
X121054739Y-139529643D01*
X121007120Y-139577262D01*
X120911882Y-139624881D01*
X120816643Y-139624881D01*
X120721405Y-139577262D01*
X120673786Y-139529643D01*
X120626167Y-139434405D01*
X120578548Y-139243929D01*
X120578548Y-139005833D01*
X120626167Y-138815357D01*
X120673786Y-138720119D01*
X120721405Y-138672500D01*
X120816643Y-138624881D01*
X122102358Y-139624881D02*
X121530929Y-139624881D01*
X121816643Y-139624881D02*
X121816643Y-138624881D01*
X121721405Y-138767738D01*
X121626167Y-138862976D01*
X121530929Y-138910595D01*
X122435691Y-139624881D02*
X122959501Y-138958214D01*
X122435691Y-138958214D02*
X122959501Y-139624881D01*
X123530929Y-138624881D02*
X123626168Y-138624881D01*
X123721406Y-138672500D01*
X123769025Y-138720119D01*
X123816644Y-138815357D01*
X123864263Y-139005833D01*
X123864263Y-139243929D01*
X123816644Y-139434405D01*
X123769025Y-139529643D01*
X123721406Y-139577262D01*
X123626168Y-139624881D01*
X123530929Y-139624881D01*
X123435691Y-139577262D01*
X123388072Y-139529643D01*
X123340453Y-139434405D01*
X123292834Y-139243929D01*
X123292834Y-139005833D01*
X123340453Y-138815357D01*
X123388072Y-138720119D01*
X123435691Y-138672500D01*
X123530929Y-138624881D01*
X124245215Y-138720119D02*
X124292834Y-138672500D01*
X124388072Y-138624881D01*
X124626168Y-138624881D01*
X124721406Y-138672500D01*
X124769025Y-138720119D01*
X124816644Y-138815357D01*
X124816644Y-138910595D01*
X124769025Y-139053452D01*
X124197596Y-139624881D01*
X124816644Y-139624881D01*
X119911881Y-135905833D02*
X120626167Y-135905833D01*
X120769024Y-135953453D01*
X120864262Y-136048691D01*
X120911881Y-136191548D01*
X120911881Y-136286786D01*
X120007119Y-135477262D02*
X119959500Y-135429643D01*
X119911881Y-135334405D01*
X119911881Y-135096309D01*
X119959500Y-135001071D01*
X120007119Y-134953452D01*
X120102357Y-134905833D01*
X120197595Y-134905833D01*
X120340452Y-134953452D01*
X120911881Y-135524881D01*
X120911881Y-134905833D01*
M02*
