G04 #@! TF.FileFunction,Other,Fab,Top*
%FSLAX46Y46*%
G04 Gerber Fmt 4.6, Leading zero omitted, Abs format (unit mm)*
G04 Created by KiCad (PCBNEW 4.0.7) date 05/11/18 13:22:06*
%MOMM*%
%LPD*%
G01*
G04 APERTURE LIST*
%ADD10C,0.100000*%
%ADD11C,0.150000*%
%ADD12C,0.105000*%
G04 APERTURE END LIST*
D10*
X167980000Y-88370000D02*
G75*
G03X167980000Y-88370000I-3150000J0D01*
G01*
X161380000Y-88370000D02*
X162580000Y-88370000D01*
X161980000Y-87720000D02*
X161980000Y-89020000D01*
X156380000Y-112730000D02*
X154780000Y-112730000D01*
X156380000Y-109530000D02*
X156380000Y-112730000D01*
X154780000Y-109530000D02*
X156380000Y-109530000D01*
X154780000Y-112730000D02*
X154780000Y-109530000D01*
X149350000Y-81790000D02*
G75*
G03X149350000Y-81790000I-3150000J0D01*
G01*
X149650000Y-81790000D02*
X148450000Y-81790000D01*
X149050000Y-82440000D02*
X149050000Y-81140000D01*
X149000000Y-74500000D02*
X149000000Y-76100000D01*
X145800000Y-74500000D02*
X149000000Y-74500000D01*
X145800000Y-76100000D02*
X145800000Y-74500000D01*
X149000000Y-76100000D02*
X145800000Y-76100000D01*
X149150000Y-104040000D02*
X150750000Y-104040000D01*
X149150000Y-107240000D02*
X149150000Y-104040000D01*
X150750000Y-107240000D02*
X149150000Y-107240000D01*
X150750000Y-104040000D02*
X150750000Y-107240000D01*
X158800000Y-82080000D02*
G75*
G03X158800000Y-82080000I-2500000J0D01*
G01*
X156300000Y-78880000D02*
X156300000Y-80080000D01*
X156950000Y-79480000D02*
X155650000Y-79480000D01*
X153440000Y-76190000D02*
X153440000Y-74590000D01*
X156640000Y-76190000D02*
X153440000Y-76190000D01*
X156640000Y-74590000D02*
X156640000Y-76190000D01*
X153440000Y-74590000D02*
X156640000Y-74590000D01*
X143820000Y-104070000D02*
X145420000Y-104070000D01*
X143820000Y-107270000D02*
X143820000Y-104070000D01*
X145420000Y-107270000D02*
X143820000Y-107270000D01*
X145420000Y-104070000D02*
X145420000Y-107270000D01*
X120020000Y-97610000D02*
X121620000Y-97610000D01*
X120020000Y-100810000D02*
X120020000Y-97610000D01*
X121620000Y-100810000D02*
X120020000Y-100810000D01*
X121620000Y-97610000D02*
X121620000Y-100810000D01*
X128740000Y-119510000D02*
G75*
G03X128740000Y-119510000I-4000000J0D01*
G01*
X128690000Y-119510000D02*
X127490000Y-119510000D01*
X128090000Y-120160000D02*
X128090000Y-118860000D01*
X153170000Y-86770000D02*
X154770000Y-86770000D01*
X153170000Y-89970000D02*
X153170000Y-86770000D01*
X154770000Y-89970000D02*
X153170000Y-89970000D01*
X154770000Y-86770000D02*
X154770000Y-89970000D01*
X137320000Y-76180000D02*
X137320000Y-74580000D01*
X140520000Y-76180000D02*
X137320000Y-76180000D01*
X140520000Y-74580000D02*
X140520000Y-76180000D01*
X137320000Y-74580000D02*
X140520000Y-74580000D01*
X135600000Y-81150000D02*
G75*
G03X135600000Y-81150000I-4000000J0D01*
G01*
X135550000Y-81150000D02*
X134350000Y-81150000D01*
X134950000Y-81800000D02*
X134950000Y-80500000D01*
X141000000Y-96100000D02*
X141000000Y-97700000D01*
X137800000Y-96100000D02*
X141000000Y-96100000D01*
X137800000Y-97700000D02*
X137800000Y-96100000D01*
X141000000Y-97700000D02*
X137800000Y-97700000D01*
X132020000Y-116370000D02*
X133620000Y-116370000D01*
X132020000Y-119570000D02*
X132020000Y-116370000D01*
X133620000Y-119570000D02*
X132020000Y-119570000D01*
X133620000Y-116370000D02*
X133620000Y-119570000D01*
X163930000Y-75030000D02*
X165530000Y-75030000D01*
X163930000Y-78230000D02*
X163930000Y-75030000D01*
X165530000Y-78230000D02*
X163930000Y-78230000D01*
X165530000Y-75030000D02*
X165530000Y-78230000D01*
X155110000Y-94400000D02*
X156710000Y-94400000D01*
X155110000Y-97600000D02*
X155110000Y-94400000D01*
X156710000Y-97600000D02*
X155110000Y-97600000D01*
X156710000Y-94400000D02*
X156710000Y-97600000D01*
X104100000Y-139060000D02*
X108500000Y-139060000D01*
X108500000Y-139060000D02*
X108500000Y-129060000D01*
X108500000Y-129060000D02*
X104100000Y-129060000D01*
X104100000Y-129060000D02*
X104100000Y-139060000D01*
X105370000Y-139060000D02*
X105370000Y-129060000D01*
X104100000Y-135910000D02*
X105370000Y-135910000D01*
X104100000Y-132210000D02*
X105370000Y-132210000D01*
X124800000Y-72470000D02*
X120400000Y-72470000D01*
X120400000Y-72470000D02*
X120400000Y-82470000D01*
X120400000Y-82470000D02*
X124800000Y-82470000D01*
X124800000Y-82470000D02*
X124800000Y-72470000D01*
X123530000Y-72470000D02*
X123530000Y-82470000D01*
X124800000Y-75620000D02*
X123530000Y-75620000D01*
X124800000Y-79320000D02*
X123530000Y-79320000D01*
X163580000Y-97140000D02*
X163580000Y-95540000D01*
X166780000Y-97140000D02*
X163580000Y-97140000D01*
X166780000Y-95540000D02*
X166780000Y-97140000D01*
X163580000Y-95540000D02*
X166780000Y-95540000D01*
X157820000Y-116640000D02*
X159420000Y-116640000D01*
X157820000Y-119840000D02*
X157820000Y-116640000D01*
X159420000Y-119840000D02*
X157820000Y-119840000D01*
X159420000Y-116640000D02*
X159420000Y-119840000D01*
X117300000Y-138800000D02*
X117300000Y-135700000D01*
X127700000Y-138800000D02*
X127700000Y-135700000D01*
X117300000Y-128400000D02*
X117300000Y-131500000D01*
X127700000Y-128400000D02*
X127700000Y-131500000D01*
X127700000Y-138800000D02*
X117300000Y-138800000D01*
X127700000Y-128400000D02*
X117300000Y-128400000D01*
X125670000Y-130430000D02*
G75*
G03X119330000Y-130430000I-3170000J-3170000D01*
G01*
X119330000Y-136770000D02*
G75*
G03X125670000Y-136770000I3170000J3170000D01*
G01*
X131440000Y-112760000D02*
X130440000Y-112760000D01*
X130440000Y-112760000D02*
X130440000Y-107360000D01*
X130440000Y-107360000D02*
X131440000Y-107360000D01*
X131440000Y-113310000D02*
X131440000Y-106810000D01*
X131440000Y-106810000D02*
X137660000Y-106810000D01*
X137660000Y-106810000D02*
X137660000Y-112310000D01*
X137660000Y-112310000D02*
X136660000Y-113310000D01*
X136660000Y-113310000D02*
X131440000Y-113310000D01*
X137255000Y-112715000D02*
X140360000Y-112715000D01*
X140360000Y-112715000D02*
X140360000Y-111965000D01*
X140360000Y-111965000D02*
X137660000Y-111965000D01*
X137660000Y-110435000D02*
X140360000Y-110435000D01*
X140360000Y-110435000D02*
X140360000Y-109685000D01*
X140360000Y-109685000D02*
X137660000Y-109685000D01*
X137660000Y-108155000D02*
X140360000Y-108155000D01*
X140360000Y-108155000D02*
X140360000Y-107405000D01*
X140360000Y-107405000D02*
X137660000Y-107405000D01*
X119620000Y-92620000D02*
X118620000Y-92620000D01*
X118620000Y-92620000D02*
X118620000Y-87220000D01*
X118620000Y-87220000D02*
X119620000Y-87220000D01*
X119620000Y-93170000D02*
X119620000Y-86670000D01*
X119620000Y-86670000D02*
X125840000Y-86670000D01*
X125840000Y-86670000D02*
X125840000Y-92170000D01*
X125840000Y-92170000D02*
X124840000Y-93170000D01*
X124840000Y-93170000D02*
X119620000Y-93170000D01*
X125435000Y-92575000D02*
X128540000Y-92575000D01*
X128540000Y-92575000D02*
X128540000Y-91825000D01*
X128540000Y-91825000D02*
X125840000Y-91825000D01*
X125840000Y-90295000D02*
X128540000Y-90295000D01*
X128540000Y-90295000D02*
X128540000Y-89545000D01*
X128540000Y-89545000D02*
X125840000Y-89545000D01*
X125840000Y-88015000D02*
X128540000Y-88015000D01*
X128540000Y-88015000D02*
X128540000Y-87265000D01*
X128540000Y-87265000D02*
X125840000Y-87265000D01*
X151870000Y-113000000D02*
X150270000Y-113000000D01*
X151870000Y-109800000D02*
X151870000Y-113000000D01*
X150270000Y-109800000D02*
X151870000Y-109800000D01*
X150270000Y-113000000D02*
X150270000Y-109800000D01*
X147450000Y-87630000D02*
X149050000Y-87630000D01*
X147450000Y-90830000D02*
X147450000Y-87630000D01*
X149050000Y-90830000D02*
X147450000Y-90830000D01*
X149050000Y-87630000D02*
X149050000Y-90830000D01*
X154710000Y-103990000D02*
X156310000Y-103990000D01*
X154710000Y-107190000D02*
X154710000Y-103990000D01*
X156310000Y-107190000D02*
X154710000Y-107190000D01*
X156310000Y-103990000D02*
X156310000Y-107190000D01*
X139400000Y-116680000D02*
X139400000Y-118280000D01*
X136200000Y-116680000D02*
X139400000Y-116680000D01*
X136200000Y-118280000D02*
X136200000Y-116680000D01*
X139400000Y-118280000D02*
X136200000Y-118280000D01*
X140730000Y-101790000D02*
X140730000Y-103390000D01*
X137530000Y-101790000D02*
X140730000Y-101790000D01*
X137530000Y-103390000D02*
X137530000Y-101790000D01*
X140730000Y-103390000D02*
X137530000Y-103390000D01*
X156380000Y-71120000D02*
X156380000Y-69520000D01*
X159580000Y-71120000D02*
X156380000Y-71120000D01*
X159580000Y-69520000D02*
X159580000Y-71120000D01*
X156380000Y-69520000D02*
X159580000Y-69520000D01*
X152420000Y-69660000D02*
X152420000Y-71260000D01*
X149220000Y-69660000D02*
X152420000Y-69660000D01*
X149220000Y-71260000D02*
X149220000Y-69660000D01*
X152420000Y-71260000D02*
X149220000Y-71260000D01*
X125350000Y-103660000D02*
X125350000Y-102060000D01*
X128550000Y-103660000D02*
X125350000Y-103660000D01*
X128550000Y-102060000D02*
X128550000Y-103660000D01*
X125350000Y-102060000D02*
X128550000Y-102060000D01*
X131310000Y-103390000D02*
X131310000Y-101790000D01*
X134510000Y-103390000D02*
X131310000Y-103390000D01*
X134510000Y-101790000D02*
X134510000Y-103390000D01*
X131310000Y-101790000D02*
X134510000Y-101790000D01*
X138770000Y-80010000D02*
X140370000Y-80010000D01*
X138770000Y-83210000D02*
X138770000Y-80010000D01*
X140370000Y-83210000D02*
X138770000Y-83210000D01*
X140370000Y-80010000D02*
X140370000Y-83210000D01*
X128060000Y-96210000D02*
X128060000Y-97810000D01*
X124860000Y-96210000D02*
X128060000Y-96210000D01*
X124860000Y-97810000D02*
X124860000Y-96210000D01*
X128060000Y-97810000D02*
X124860000Y-97810000D01*
X133700000Y-69440000D02*
X133700000Y-71040000D01*
X130500000Y-69440000D02*
X133700000Y-69440000D01*
X130500000Y-71040000D02*
X130500000Y-69440000D01*
X133700000Y-71040000D02*
X130500000Y-71040000D01*
X126900000Y-69800000D02*
X128500000Y-69800000D01*
X126900000Y-73000000D02*
X126900000Y-69800000D01*
X128500000Y-73000000D02*
X126900000Y-73000000D01*
X128500000Y-69800000D02*
X128500000Y-73000000D01*
X134860000Y-96100000D02*
X134860000Y-97700000D01*
X131660000Y-96100000D02*
X134860000Y-96100000D01*
X131660000Y-97700000D02*
X131660000Y-96100000D01*
X134860000Y-97700000D02*
X131660000Y-97700000D01*
X139740000Y-69720000D02*
X139740000Y-71320000D01*
X136540000Y-69720000D02*
X139740000Y-69720000D01*
X136540000Y-71320000D02*
X136540000Y-69720000D01*
X139740000Y-71320000D02*
X136540000Y-71320000D01*
X145800000Y-69700000D02*
X145800000Y-71300000D01*
X142600000Y-69700000D02*
X145800000Y-69700000D01*
X142600000Y-71300000D02*
X142600000Y-69700000D01*
X145800000Y-71300000D02*
X142600000Y-71300000D01*
X147030000Y-112400000D02*
X146030000Y-111400000D01*
X147030000Y-112400000D02*
X147030000Y-114400000D01*
X144030000Y-111400000D02*
X146030000Y-111400000D01*
X144030000Y-114400000D02*
X144030000Y-111400000D01*
X147030000Y-114400000D02*
X144030000Y-114400000D01*
X138300000Y-91200000D02*
X139300000Y-90200000D01*
X138300000Y-91200000D02*
X136300000Y-91200000D01*
X139300000Y-88200000D02*
X139300000Y-90200000D01*
X136300000Y-88200000D02*
X139300000Y-88200000D01*
X136300000Y-91200000D02*
X136300000Y-88200000D01*
X126640000Y-108220000D02*
X126640000Y-111120000D01*
X126640000Y-111120000D02*
X121740000Y-111120000D01*
X121740000Y-111120000D02*
X121740000Y-107220000D01*
X121740000Y-107220000D02*
X125640000Y-107220000D01*
X125640000Y-107220000D02*
X126640000Y-108220000D01*
X146410000Y-93050000D02*
X149310000Y-93050000D01*
X149310000Y-93050000D02*
X149310000Y-97950000D01*
X149310000Y-97950000D02*
X145410000Y-97950000D01*
X145410000Y-97950000D02*
X145410000Y-94050000D01*
X145410000Y-94050000D02*
X146410000Y-93050000D01*
X154790000Y-119510000D02*
G75*
G03X154790000Y-119510000I-2500000J0D01*
G01*
X155490000Y-119510000D02*
X154290000Y-119510000D01*
X154890000Y-120160000D02*
X154890000Y-118860000D01*
X184790000Y-103625000D02*
X172210000Y-103625000D01*
X172210000Y-103625000D02*
X172210000Y-121375000D01*
X172210000Y-121375000D02*
X184790000Y-121375000D01*
X184790000Y-121375000D02*
X184790000Y-103625000D01*
X172210000Y-110800000D02*
X170660000Y-110800000D01*
X170660000Y-110800000D02*
X170660000Y-114200000D01*
X170660000Y-114200000D02*
X172210000Y-114200000D01*
X183780000Y-104520000D02*
X179220000Y-104520000D01*
X179220000Y-104520000D02*
X179220000Y-109080000D01*
X179220000Y-109080000D02*
X183780000Y-109080000D01*
X183780000Y-109080000D02*
X183780000Y-104520000D01*
X178080000Y-104520000D02*
X173520000Y-104520000D01*
X173520000Y-104520000D02*
X173520000Y-109080000D01*
X173520000Y-109080000D02*
X178080000Y-109080000D01*
X178080000Y-109080000D02*
X178080000Y-104520000D01*
X183780000Y-110220000D02*
X179220000Y-110220000D01*
X179220000Y-110220000D02*
X179220000Y-114780000D01*
X179220000Y-114780000D02*
X183780000Y-114780000D01*
X183780000Y-114780000D02*
X183780000Y-110220000D01*
X178080000Y-110220000D02*
X173520000Y-110220000D01*
X173520000Y-110220000D02*
X173520000Y-114780000D01*
X173520000Y-114780000D02*
X178080000Y-114780000D01*
X178080000Y-114780000D02*
X178080000Y-110220000D01*
X183780000Y-115920000D02*
X179220000Y-115920000D01*
X179220000Y-115920000D02*
X179220000Y-120480000D01*
X179220000Y-120480000D02*
X183780000Y-120480000D01*
X183780000Y-120480000D02*
X183780000Y-115920000D01*
X178080000Y-115920000D02*
X173520000Y-115920000D01*
X173520000Y-115920000D02*
X173520000Y-120480000D01*
X173520000Y-120480000D02*
X178080000Y-120480000D01*
X178080000Y-120480000D02*
X178080000Y-115920000D01*
X181500000Y-103125000D02*
X181200000Y-102525000D01*
X181200000Y-102525000D02*
X181800000Y-102525000D01*
X181800000Y-102525000D02*
X181500000Y-103125000D01*
X178250000Y-131500000D02*
X178250000Y-137500000D01*
X178250000Y-137500000D02*
X181250000Y-137500000D01*
X181250000Y-137500000D02*
X181250000Y-131500000D01*
X181250000Y-131500000D02*
X178250000Y-131500000D01*
X178250000Y-133500000D02*
X179250000Y-133000000D01*
X179250000Y-133000000D02*
X178250000Y-132500000D01*
X184790000Y-60425000D02*
X172210000Y-60425000D01*
X172210000Y-60425000D02*
X172210000Y-83875000D01*
X172210000Y-83875000D02*
X184790000Y-83875000D01*
X184790000Y-83875000D02*
X184790000Y-60425000D01*
X172210000Y-70450000D02*
X170660000Y-70450000D01*
X170660000Y-70450000D02*
X170660000Y-73850000D01*
X170660000Y-73850000D02*
X172210000Y-73850000D01*
X183780000Y-61320000D02*
X179220000Y-61320000D01*
X179220000Y-61320000D02*
X179220000Y-65880000D01*
X179220000Y-65880000D02*
X183780000Y-65880000D01*
X183780000Y-65880000D02*
X183780000Y-61320000D01*
X178080000Y-61320000D02*
X173520000Y-61320000D01*
X173520000Y-61320000D02*
X173520000Y-65880000D01*
X173520000Y-65880000D02*
X178080000Y-65880000D01*
X178080000Y-65880000D02*
X178080000Y-61320000D01*
X183780000Y-67020000D02*
X179220000Y-67020000D01*
X179220000Y-67020000D02*
X179220000Y-71580000D01*
X179220000Y-71580000D02*
X183780000Y-71580000D01*
X183780000Y-71580000D02*
X183780000Y-67020000D01*
X178080000Y-67020000D02*
X173520000Y-67020000D01*
X173520000Y-67020000D02*
X173520000Y-71580000D01*
X173520000Y-71580000D02*
X178080000Y-71580000D01*
X178080000Y-71580000D02*
X178080000Y-67020000D01*
X183780000Y-72720000D02*
X179220000Y-72720000D01*
X179220000Y-72720000D02*
X179220000Y-77280000D01*
X179220000Y-77280000D02*
X183780000Y-77280000D01*
X183780000Y-77280000D02*
X183780000Y-72720000D01*
X178080000Y-72720000D02*
X173520000Y-72720000D01*
X173520000Y-72720000D02*
X173520000Y-77280000D01*
X173520000Y-77280000D02*
X178080000Y-77280000D01*
X178080000Y-77280000D02*
X178080000Y-72720000D01*
X183780000Y-78420000D02*
X179220000Y-78420000D01*
X179220000Y-78420000D02*
X179220000Y-82980000D01*
X179220000Y-82980000D02*
X183780000Y-82980000D01*
X183780000Y-82980000D02*
X183780000Y-78420000D01*
X178080000Y-78420000D02*
X173520000Y-78420000D01*
X173520000Y-78420000D02*
X173520000Y-82980000D01*
X173520000Y-82980000D02*
X178080000Y-82980000D01*
X178080000Y-82980000D02*
X178080000Y-78420000D01*
X181500000Y-59925000D02*
X181200000Y-59325000D01*
X181200000Y-59325000D02*
X181800000Y-59325000D01*
X181800000Y-59325000D02*
X181500000Y-59925000D01*
X160875000Y-138790000D02*
X160875000Y-126210000D01*
X160875000Y-126210000D02*
X137425000Y-126210000D01*
X137425000Y-126210000D02*
X137425000Y-138790000D01*
X137425000Y-138790000D02*
X160875000Y-138790000D01*
X150850000Y-126210000D02*
X150850000Y-124660000D01*
X150850000Y-124660000D02*
X147450000Y-124660000D01*
X147450000Y-124660000D02*
X147450000Y-126210000D01*
X159980000Y-137780000D02*
X159980000Y-133220000D01*
X159980000Y-133220000D02*
X155420000Y-133220000D01*
X155420000Y-133220000D02*
X155420000Y-137780000D01*
X155420000Y-137780000D02*
X159980000Y-137780000D01*
X159980000Y-132080000D02*
X159980000Y-127520000D01*
X159980000Y-127520000D02*
X155420000Y-127520000D01*
X155420000Y-127520000D02*
X155420000Y-132080000D01*
X155420000Y-132080000D02*
X159980000Y-132080000D01*
X154280000Y-137780000D02*
X154280000Y-133220000D01*
X154280000Y-133220000D02*
X149720000Y-133220000D01*
X149720000Y-133220000D02*
X149720000Y-137780000D01*
X149720000Y-137780000D02*
X154280000Y-137780000D01*
X154280000Y-132080000D02*
X154280000Y-127520000D01*
X154280000Y-127520000D02*
X149720000Y-127520000D01*
X149720000Y-127520000D02*
X149720000Y-132080000D01*
X149720000Y-132080000D02*
X154280000Y-132080000D01*
X148580000Y-137780000D02*
X148580000Y-133220000D01*
X148580000Y-133220000D02*
X144020000Y-133220000D01*
X144020000Y-133220000D02*
X144020000Y-137780000D01*
X144020000Y-137780000D02*
X148580000Y-137780000D01*
X148580000Y-132080000D02*
X148580000Y-127520000D01*
X148580000Y-127520000D02*
X144020000Y-127520000D01*
X144020000Y-127520000D02*
X144020000Y-132080000D01*
X144020000Y-132080000D02*
X148580000Y-132080000D01*
X142880000Y-137780000D02*
X142880000Y-133220000D01*
X142880000Y-133220000D02*
X138320000Y-133220000D01*
X138320000Y-133220000D02*
X138320000Y-137780000D01*
X138320000Y-137780000D02*
X142880000Y-137780000D01*
X142880000Y-132080000D02*
X142880000Y-127520000D01*
X142880000Y-127520000D02*
X138320000Y-127520000D01*
X138320000Y-127520000D02*
X138320000Y-132080000D01*
X138320000Y-132080000D02*
X142880000Y-132080000D01*
X161375000Y-135500000D02*
X161975000Y-135200000D01*
X161975000Y-135200000D02*
X161975000Y-135800000D01*
X161975000Y-135800000D02*
X161375000Y-135500000D01*
X101010000Y-79075000D02*
X113590000Y-79075000D01*
X113590000Y-79075000D02*
X113590000Y-67025000D01*
X113590000Y-67025000D02*
X101010000Y-67025000D01*
X101010000Y-67025000D02*
X101010000Y-79075000D01*
X113590000Y-74750000D02*
X115140000Y-74750000D01*
X115140000Y-74750000D02*
X115140000Y-71350000D01*
X115140000Y-71350000D02*
X113590000Y-71350000D01*
X102020000Y-78180000D02*
X106580000Y-78180000D01*
X106580000Y-78180000D02*
X106580000Y-73620000D01*
X106580000Y-73620000D02*
X102020000Y-73620000D01*
X102020000Y-73620000D02*
X102020000Y-78180000D01*
X107720000Y-78180000D02*
X112280000Y-78180000D01*
X112280000Y-78180000D02*
X112280000Y-73620000D01*
X112280000Y-73620000D02*
X107720000Y-73620000D01*
X107720000Y-73620000D02*
X107720000Y-78180000D01*
X102020000Y-72480000D02*
X106580000Y-72480000D01*
X106580000Y-72480000D02*
X106580000Y-67920000D01*
X106580000Y-67920000D02*
X102020000Y-67920000D01*
X102020000Y-67920000D02*
X102020000Y-72480000D01*
X107720000Y-72480000D02*
X112280000Y-72480000D01*
X112280000Y-72480000D02*
X112280000Y-67920000D01*
X112280000Y-67920000D02*
X107720000Y-67920000D01*
X107720000Y-67920000D02*
X107720000Y-72480000D01*
X104300000Y-79575000D02*
X104600000Y-80175000D01*
X104600000Y-80175000D02*
X104000000Y-80175000D01*
X104000000Y-80175000D02*
X104300000Y-79575000D01*
X101010000Y-99775000D02*
X113590000Y-99775000D01*
X113590000Y-99775000D02*
X113590000Y-87725000D01*
X113590000Y-87725000D02*
X101010000Y-87725000D01*
X101010000Y-87725000D02*
X101010000Y-99775000D01*
X113590000Y-95450000D02*
X115140000Y-95450000D01*
X115140000Y-95450000D02*
X115140000Y-92050000D01*
X115140000Y-92050000D02*
X113590000Y-92050000D01*
X102020000Y-98880000D02*
X106580000Y-98880000D01*
X106580000Y-98880000D02*
X106580000Y-94320000D01*
X106580000Y-94320000D02*
X102020000Y-94320000D01*
X102020000Y-94320000D02*
X102020000Y-98880000D01*
X107720000Y-98880000D02*
X112280000Y-98880000D01*
X112280000Y-98880000D02*
X112280000Y-94320000D01*
X112280000Y-94320000D02*
X107720000Y-94320000D01*
X107720000Y-94320000D02*
X107720000Y-98880000D01*
X102020000Y-93180000D02*
X106580000Y-93180000D01*
X106580000Y-93180000D02*
X106580000Y-88620000D01*
X106580000Y-88620000D02*
X102020000Y-88620000D01*
X102020000Y-88620000D02*
X102020000Y-93180000D01*
X107720000Y-93180000D02*
X112280000Y-93180000D01*
X112280000Y-93180000D02*
X112280000Y-88620000D01*
X112280000Y-88620000D02*
X107720000Y-88620000D01*
X107720000Y-88620000D02*
X107720000Y-93180000D01*
X104300000Y-100275000D02*
X104600000Y-100875000D01*
X104600000Y-100875000D02*
X104000000Y-100875000D01*
X104000000Y-100875000D02*
X104300000Y-100275000D01*
X101010000Y-120775000D02*
X113590000Y-120775000D01*
X113590000Y-120775000D02*
X113590000Y-108725000D01*
X113590000Y-108725000D02*
X101010000Y-108725000D01*
X101010000Y-108725000D02*
X101010000Y-120775000D01*
X113590000Y-116450000D02*
X115140000Y-116450000D01*
X115140000Y-116450000D02*
X115140000Y-113050000D01*
X115140000Y-113050000D02*
X113590000Y-113050000D01*
X102020000Y-119880000D02*
X106580000Y-119880000D01*
X106580000Y-119880000D02*
X106580000Y-115320000D01*
X106580000Y-115320000D02*
X102020000Y-115320000D01*
X102020000Y-115320000D02*
X102020000Y-119880000D01*
X107720000Y-119880000D02*
X112280000Y-119880000D01*
X112280000Y-119880000D02*
X112280000Y-115320000D01*
X112280000Y-115320000D02*
X107720000Y-115320000D01*
X107720000Y-115320000D02*
X107720000Y-119880000D01*
X102020000Y-114180000D02*
X106580000Y-114180000D01*
X106580000Y-114180000D02*
X106580000Y-109620000D01*
X106580000Y-109620000D02*
X102020000Y-109620000D01*
X102020000Y-109620000D02*
X102020000Y-114180000D01*
X107720000Y-114180000D02*
X112280000Y-114180000D01*
X112280000Y-114180000D02*
X112280000Y-109620000D01*
X112280000Y-109620000D02*
X107720000Y-109620000D01*
X107720000Y-109620000D02*
X107720000Y-114180000D01*
X104300000Y-121275000D02*
X104600000Y-121875000D01*
X104600000Y-121875000D02*
X104000000Y-121875000D01*
X104000000Y-121875000D02*
X104300000Y-121275000D01*
X140125000Y-52010000D02*
X140125000Y-64590000D01*
X140125000Y-64590000D02*
X163575000Y-64590000D01*
X163575000Y-64590000D02*
X163575000Y-52010000D01*
X163575000Y-52010000D02*
X140125000Y-52010000D01*
X150150000Y-64590000D02*
X150150000Y-66140000D01*
X150150000Y-66140000D02*
X153550000Y-66140000D01*
X153550000Y-66140000D02*
X153550000Y-64590000D01*
X141020000Y-53020000D02*
X141020000Y-57580000D01*
X141020000Y-57580000D02*
X145580000Y-57580000D01*
X145580000Y-57580000D02*
X145580000Y-53020000D01*
X145580000Y-53020000D02*
X141020000Y-53020000D01*
X141020000Y-58720000D02*
X141020000Y-63280000D01*
X141020000Y-63280000D02*
X145580000Y-63280000D01*
X145580000Y-63280000D02*
X145580000Y-58720000D01*
X145580000Y-58720000D02*
X141020000Y-58720000D01*
X146720000Y-53020000D02*
X146720000Y-57580000D01*
X146720000Y-57580000D02*
X151280000Y-57580000D01*
X151280000Y-57580000D02*
X151280000Y-53020000D01*
X151280000Y-53020000D02*
X146720000Y-53020000D01*
X146720000Y-58720000D02*
X146720000Y-63280000D01*
X146720000Y-63280000D02*
X151280000Y-63280000D01*
X151280000Y-63280000D02*
X151280000Y-58720000D01*
X151280000Y-58720000D02*
X146720000Y-58720000D01*
X152420000Y-53020000D02*
X152420000Y-57580000D01*
X152420000Y-57580000D02*
X156980000Y-57580000D01*
X156980000Y-57580000D02*
X156980000Y-53020000D01*
X156980000Y-53020000D02*
X152420000Y-53020000D01*
X152420000Y-58720000D02*
X152420000Y-63280000D01*
X152420000Y-63280000D02*
X156980000Y-63280000D01*
X156980000Y-63280000D02*
X156980000Y-58720000D01*
X156980000Y-58720000D02*
X152420000Y-58720000D01*
X158120000Y-53020000D02*
X158120000Y-57580000D01*
X158120000Y-57580000D02*
X162680000Y-57580000D01*
X162680000Y-57580000D02*
X162680000Y-53020000D01*
X162680000Y-53020000D02*
X158120000Y-53020000D01*
X158120000Y-58720000D02*
X158120000Y-63280000D01*
X158120000Y-63280000D02*
X162680000Y-63280000D01*
X162680000Y-63280000D02*
X162680000Y-58720000D01*
X162680000Y-58720000D02*
X158120000Y-58720000D01*
X139625000Y-55300000D02*
X139025000Y-55600000D01*
X139025000Y-55600000D02*
X139025000Y-55000000D01*
X139025000Y-55000000D02*
X139625000Y-55300000D01*
D11*
X164091905Y-92282381D02*
X163901428Y-92282381D01*
X163806190Y-92330000D01*
X163758571Y-92377619D01*
X163663333Y-92520476D01*
X163615714Y-92710952D01*
X163615714Y-93091905D01*
X163663333Y-93187143D01*
X163710952Y-93234762D01*
X163806190Y-93282381D01*
X163996667Y-93282381D01*
X164091905Y-93234762D01*
X164139524Y-93187143D01*
X164187143Y-93091905D01*
X164187143Y-92853810D01*
X164139524Y-92758571D01*
X164091905Y-92710952D01*
X163996667Y-92663333D01*
X163806190Y-92663333D01*
X163710952Y-92710952D01*
X163663333Y-92758571D01*
X163615714Y-92853810D01*
X164758571Y-92710952D02*
X164663333Y-92663333D01*
X164615714Y-92615714D01*
X164568095Y-92520476D01*
X164568095Y-92472857D01*
X164615714Y-92377619D01*
X164663333Y-92330000D01*
X164758571Y-92282381D01*
X164949048Y-92282381D01*
X165044286Y-92330000D01*
X165091905Y-92377619D01*
X165139524Y-92472857D01*
X165139524Y-92520476D01*
X165091905Y-92615714D01*
X165044286Y-92663333D01*
X164949048Y-92710952D01*
X164758571Y-92710952D01*
X164663333Y-92758571D01*
X164615714Y-92806190D01*
X164568095Y-92901429D01*
X164568095Y-93091905D01*
X164615714Y-93187143D01*
X164663333Y-93234762D01*
X164758571Y-93282381D01*
X164949048Y-93282381D01*
X165044286Y-93234762D01*
X165091905Y-93187143D01*
X165139524Y-93091905D01*
X165139524Y-92901429D01*
X165091905Y-92806190D01*
X165044286Y-92758571D01*
X164949048Y-92710952D01*
X165996667Y-92615714D02*
X165996667Y-93282381D01*
X165568095Y-92615714D02*
X165568095Y-93139524D01*
X165615714Y-93234762D01*
X165710952Y-93282381D01*
X165853810Y-93282381D01*
X165949048Y-93234762D01*
X165996667Y-93187143D01*
X164663334Y-88727143D02*
X164615715Y-88774762D01*
X164472858Y-88822381D01*
X164377620Y-88822381D01*
X164234762Y-88774762D01*
X164139524Y-88679524D01*
X164091905Y-88584286D01*
X164044286Y-88393810D01*
X164044286Y-88250952D01*
X164091905Y-88060476D01*
X164139524Y-87965238D01*
X164234762Y-87870000D01*
X164377620Y-87822381D01*
X164472858Y-87822381D01*
X164615715Y-87870000D01*
X164663334Y-87917619D01*
X165615715Y-88822381D02*
X165044286Y-88822381D01*
X165330000Y-88822381D02*
X165330000Y-87822381D01*
X165234762Y-87965238D01*
X165139524Y-88060476D01*
X165044286Y-88108095D01*
X158032381Y-111296666D02*
X158032381Y-111868095D01*
X158032381Y-111582381D02*
X157032381Y-111582381D01*
X157175238Y-111677619D01*
X157270476Y-111772857D01*
X157318095Y-111868095D01*
X157365714Y-110439523D02*
X158032381Y-110439523D01*
X157365714Y-110868095D02*
X157889524Y-110868095D01*
X157984762Y-110820476D01*
X158032381Y-110725238D01*
X158032381Y-110582380D01*
X157984762Y-110487142D01*
X157937143Y-110439523D01*
X154187143Y-111296666D02*
X154234762Y-111344285D01*
X154282381Y-111487142D01*
X154282381Y-111582380D01*
X154234762Y-111725238D01*
X154139524Y-111820476D01*
X154044286Y-111868095D01*
X153853810Y-111915714D01*
X153710952Y-111915714D01*
X153520476Y-111868095D01*
X153425238Y-111820476D01*
X153330000Y-111725238D01*
X153282381Y-111582380D01*
X153282381Y-111487142D01*
X153330000Y-111344285D01*
X153377619Y-111296666D01*
X153377619Y-110915714D02*
X153330000Y-110868095D01*
X153282381Y-110772857D01*
X153282381Y-110534761D01*
X153330000Y-110439523D01*
X153377619Y-110391904D01*
X153472857Y-110344285D01*
X153568095Y-110344285D01*
X153710952Y-110391904D01*
X154282381Y-110963333D01*
X154282381Y-110344285D01*
X144938095Y-76782381D02*
X145557143Y-76782381D01*
X145223809Y-77163333D01*
X145366667Y-77163333D01*
X145461905Y-77210952D01*
X145509524Y-77258571D01*
X145557143Y-77353810D01*
X145557143Y-77591905D01*
X145509524Y-77687143D01*
X145461905Y-77734762D01*
X145366667Y-77782381D01*
X145080952Y-77782381D01*
X144985714Y-77734762D01*
X144938095Y-77687143D01*
X145890476Y-76782381D02*
X146509524Y-76782381D01*
X146176190Y-77163333D01*
X146319048Y-77163333D01*
X146414286Y-77210952D01*
X146461905Y-77258571D01*
X146509524Y-77353810D01*
X146509524Y-77591905D01*
X146461905Y-77687143D01*
X146414286Y-77734762D01*
X146319048Y-77782381D01*
X146033333Y-77782381D01*
X145938095Y-77734762D01*
X145890476Y-77687143D01*
X147366667Y-77115714D02*
X147366667Y-77782381D01*
X146938095Y-77115714D02*
X146938095Y-77639524D01*
X146985714Y-77734762D01*
X147080952Y-77782381D01*
X147223810Y-77782381D01*
X147319048Y-77734762D01*
X147366667Y-77687143D01*
X146033334Y-82147143D02*
X145985715Y-82194762D01*
X145842858Y-82242381D01*
X145747620Y-82242381D01*
X145604762Y-82194762D01*
X145509524Y-82099524D01*
X145461905Y-82004286D01*
X145414286Y-81813810D01*
X145414286Y-81670952D01*
X145461905Y-81480476D01*
X145509524Y-81385238D01*
X145604762Y-81290000D01*
X145747620Y-81242381D01*
X145842858Y-81242381D01*
X145985715Y-81290000D01*
X146033334Y-81337619D01*
X146366667Y-81242381D02*
X146985715Y-81242381D01*
X146652381Y-81623333D01*
X146795239Y-81623333D01*
X146890477Y-81670952D01*
X146938096Y-81718571D01*
X146985715Y-81813810D01*
X146985715Y-82051905D01*
X146938096Y-82147143D01*
X146890477Y-82194762D01*
X146795239Y-82242381D01*
X146509524Y-82242381D01*
X146414286Y-82194762D01*
X146366667Y-82147143D01*
X147233334Y-73752381D02*
X146661905Y-73752381D01*
X146947619Y-73752381D02*
X146947619Y-72752381D01*
X146852381Y-72895238D01*
X146757143Y-72990476D01*
X146661905Y-73038095D01*
X148090477Y-73085714D02*
X148090477Y-73752381D01*
X147661905Y-73085714D02*
X147661905Y-73609524D01*
X147709524Y-73704762D01*
X147804762Y-73752381D01*
X147947620Y-73752381D01*
X148042858Y-73704762D01*
X148090477Y-73657143D01*
X147233334Y-77407143D02*
X147185715Y-77454762D01*
X147042858Y-77502381D01*
X146947620Y-77502381D01*
X146804762Y-77454762D01*
X146709524Y-77359524D01*
X146661905Y-77264286D01*
X146614286Y-77073810D01*
X146614286Y-76930952D01*
X146661905Y-76740476D01*
X146709524Y-76645238D01*
X146804762Y-76550000D01*
X146947620Y-76502381D01*
X147042858Y-76502381D01*
X147185715Y-76550000D01*
X147233334Y-76597619D01*
X148090477Y-76835714D02*
X148090477Y-77502381D01*
X147852381Y-76454762D02*
X147614286Y-77169048D01*
X148233334Y-77169048D01*
X148402381Y-107235238D02*
X148402381Y-107806667D01*
X148402381Y-107520953D02*
X147402381Y-107520953D01*
X147545238Y-107616191D01*
X147640476Y-107711429D01*
X147688095Y-107806667D01*
X147402381Y-106616191D02*
X147402381Y-106520952D01*
X147450000Y-106425714D01*
X147497619Y-106378095D01*
X147592857Y-106330476D01*
X147783333Y-106282857D01*
X148021429Y-106282857D01*
X148211905Y-106330476D01*
X148307143Y-106378095D01*
X148354762Y-106425714D01*
X148402381Y-106520952D01*
X148402381Y-106616191D01*
X148354762Y-106711429D01*
X148307143Y-106759048D01*
X148211905Y-106806667D01*
X148021429Y-106854286D01*
X147783333Y-106854286D01*
X147592857Y-106806667D01*
X147497619Y-106759048D01*
X147450000Y-106711429D01*
X147402381Y-106616191D01*
X147402381Y-105663810D02*
X147402381Y-105568571D01*
X147450000Y-105473333D01*
X147497619Y-105425714D01*
X147592857Y-105378095D01*
X147783333Y-105330476D01*
X148021429Y-105330476D01*
X148211905Y-105378095D01*
X148307143Y-105425714D01*
X148354762Y-105473333D01*
X148402381Y-105568571D01*
X148402381Y-105663810D01*
X148354762Y-105759048D01*
X148307143Y-105806667D01*
X148211905Y-105854286D01*
X148021429Y-105901905D01*
X147783333Y-105901905D01*
X147592857Y-105854286D01*
X147497619Y-105806667D01*
X147450000Y-105759048D01*
X147402381Y-105663810D01*
X147402381Y-104711429D02*
X147402381Y-104616190D01*
X147450000Y-104520952D01*
X147497619Y-104473333D01*
X147592857Y-104425714D01*
X147783333Y-104378095D01*
X148021429Y-104378095D01*
X148211905Y-104425714D01*
X148307143Y-104473333D01*
X148354762Y-104520952D01*
X148402381Y-104616190D01*
X148402381Y-104711429D01*
X148354762Y-104806667D01*
X148307143Y-104854286D01*
X148211905Y-104901905D01*
X148021429Y-104949524D01*
X147783333Y-104949524D01*
X147592857Y-104901905D01*
X147497619Y-104854286D01*
X147450000Y-104806667D01*
X147402381Y-104711429D01*
X147735714Y-103949524D02*
X148735714Y-103949524D01*
X147783333Y-103949524D02*
X147735714Y-103854286D01*
X147735714Y-103663809D01*
X147783333Y-103568571D01*
X147830952Y-103520952D01*
X147926190Y-103473333D01*
X148211905Y-103473333D01*
X148307143Y-103520952D01*
X148354762Y-103568571D01*
X148402381Y-103663809D01*
X148402381Y-103854286D01*
X148354762Y-103949524D01*
X152057143Y-105806666D02*
X152104762Y-105854285D01*
X152152381Y-105997142D01*
X152152381Y-106092380D01*
X152104762Y-106235238D01*
X152009524Y-106330476D01*
X151914286Y-106378095D01*
X151723810Y-106425714D01*
X151580952Y-106425714D01*
X151390476Y-106378095D01*
X151295238Y-106330476D01*
X151200000Y-106235238D01*
X151152381Y-106092380D01*
X151152381Y-105997142D01*
X151200000Y-105854285D01*
X151247619Y-105806666D01*
X151152381Y-104949523D02*
X151152381Y-105140000D01*
X151200000Y-105235238D01*
X151247619Y-105282857D01*
X151390476Y-105378095D01*
X151580952Y-105425714D01*
X151961905Y-105425714D01*
X152057143Y-105378095D01*
X152104762Y-105330476D01*
X152152381Y-105235238D01*
X152152381Y-105044761D01*
X152104762Y-104949523D01*
X152057143Y-104901904D01*
X151961905Y-104854285D01*
X151723810Y-104854285D01*
X151628571Y-104901904D01*
X151580952Y-104949523D01*
X151533333Y-105044761D01*
X151533333Y-105235238D01*
X151580952Y-105330476D01*
X151628571Y-105378095D01*
X151723810Y-105425714D01*
X151942381Y-83770476D02*
X151942381Y-83675237D01*
X151990000Y-83579999D01*
X152037619Y-83532380D01*
X152132857Y-83484761D01*
X152323333Y-83437142D01*
X152561429Y-83437142D01*
X152751905Y-83484761D01*
X152847143Y-83532380D01*
X152894762Y-83579999D01*
X152942381Y-83675237D01*
X152942381Y-83770476D01*
X152894762Y-83865714D01*
X152847143Y-83913333D01*
X152751905Y-83960952D01*
X152561429Y-84008571D01*
X152323333Y-84008571D01*
X152132857Y-83960952D01*
X152037619Y-83913333D01*
X151990000Y-83865714D01*
X151942381Y-83770476D01*
X152847143Y-83008571D02*
X152894762Y-82960952D01*
X152942381Y-83008571D01*
X152894762Y-83056190D01*
X152847143Y-83008571D01*
X152942381Y-83008571D01*
X152275714Y-82103809D02*
X152942381Y-82103809D01*
X151894762Y-82341905D02*
X152609048Y-82580000D01*
X152609048Y-81960952D01*
X151942381Y-81675238D02*
X151942381Y-81008571D01*
X152942381Y-81437143D01*
X152275714Y-80199047D02*
X152942381Y-80199047D01*
X152275714Y-80627619D02*
X152799524Y-80627619D01*
X152894762Y-80580000D01*
X152942381Y-80484762D01*
X152942381Y-80341904D01*
X152894762Y-80246666D01*
X152847143Y-80199047D01*
X156657143Y-82246666D02*
X156704762Y-82294285D01*
X156752381Y-82437142D01*
X156752381Y-82532380D01*
X156704762Y-82675238D01*
X156609524Y-82770476D01*
X156514286Y-82818095D01*
X156323810Y-82865714D01*
X156180952Y-82865714D01*
X155990476Y-82818095D01*
X155895238Y-82770476D01*
X155800000Y-82675238D01*
X155752381Y-82532380D01*
X155752381Y-82437142D01*
X155800000Y-82294285D01*
X155847619Y-82246666D01*
X155752381Y-81913333D02*
X155752381Y-81246666D01*
X156752381Y-81675238D01*
X153444762Y-77842381D02*
X152873333Y-77842381D01*
X153159047Y-77842381D02*
X153159047Y-76842381D01*
X153063809Y-76985238D01*
X152968571Y-77080476D01*
X152873333Y-77128095D01*
X154063809Y-76842381D02*
X154159048Y-76842381D01*
X154254286Y-76890000D01*
X154301905Y-76937619D01*
X154349524Y-77032857D01*
X154397143Y-77223333D01*
X154397143Y-77461429D01*
X154349524Y-77651905D01*
X154301905Y-77747143D01*
X154254286Y-77794762D01*
X154159048Y-77842381D01*
X154063809Y-77842381D01*
X153968571Y-77794762D01*
X153920952Y-77747143D01*
X153873333Y-77651905D01*
X153825714Y-77461429D01*
X153825714Y-77223333D01*
X153873333Y-77032857D01*
X153920952Y-76937619D01*
X153968571Y-76890000D01*
X154063809Y-76842381D01*
X155016190Y-76842381D02*
X155111429Y-76842381D01*
X155206667Y-76890000D01*
X155254286Y-76937619D01*
X155301905Y-77032857D01*
X155349524Y-77223333D01*
X155349524Y-77461429D01*
X155301905Y-77651905D01*
X155254286Y-77747143D01*
X155206667Y-77794762D01*
X155111429Y-77842381D01*
X155016190Y-77842381D01*
X154920952Y-77794762D01*
X154873333Y-77747143D01*
X154825714Y-77651905D01*
X154778095Y-77461429D01*
X154778095Y-77223333D01*
X154825714Y-77032857D01*
X154873333Y-76937619D01*
X154920952Y-76890000D01*
X155016190Y-76842381D01*
X155968571Y-76842381D02*
X156063810Y-76842381D01*
X156159048Y-76890000D01*
X156206667Y-76937619D01*
X156254286Y-77032857D01*
X156301905Y-77223333D01*
X156301905Y-77461429D01*
X156254286Y-77651905D01*
X156206667Y-77747143D01*
X156159048Y-77794762D01*
X156063810Y-77842381D01*
X155968571Y-77842381D01*
X155873333Y-77794762D01*
X155825714Y-77747143D01*
X155778095Y-77651905D01*
X155730476Y-77461429D01*
X155730476Y-77223333D01*
X155778095Y-77032857D01*
X155825714Y-76937619D01*
X155873333Y-76890000D01*
X155968571Y-76842381D01*
X156730476Y-77175714D02*
X156730476Y-78175714D01*
X156730476Y-77223333D02*
X156825714Y-77175714D01*
X157016191Y-77175714D01*
X157111429Y-77223333D01*
X157159048Y-77270952D01*
X157206667Y-77366190D01*
X157206667Y-77651905D01*
X157159048Y-77747143D01*
X157111429Y-77794762D01*
X157016191Y-77842381D01*
X156825714Y-77842381D01*
X156730476Y-77794762D01*
X154873334Y-73997143D02*
X154825715Y-74044762D01*
X154682858Y-74092381D01*
X154587620Y-74092381D01*
X154444762Y-74044762D01*
X154349524Y-73949524D01*
X154301905Y-73854286D01*
X154254286Y-73663810D01*
X154254286Y-73520952D01*
X154301905Y-73330476D01*
X154349524Y-73235238D01*
X154444762Y-73140000D01*
X154587620Y-73092381D01*
X154682858Y-73092381D01*
X154825715Y-73140000D01*
X154873334Y-73187619D01*
X155444762Y-73520952D02*
X155349524Y-73473333D01*
X155301905Y-73425714D01*
X155254286Y-73330476D01*
X155254286Y-73282857D01*
X155301905Y-73187619D01*
X155349524Y-73140000D01*
X155444762Y-73092381D01*
X155635239Y-73092381D01*
X155730477Y-73140000D01*
X155778096Y-73187619D01*
X155825715Y-73282857D01*
X155825715Y-73330476D01*
X155778096Y-73425714D01*
X155730477Y-73473333D01*
X155635239Y-73520952D01*
X155444762Y-73520952D01*
X155349524Y-73568571D01*
X155301905Y-73616190D01*
X155254286Y-73711429D01*
X155254286Y-73901905D01*
X155301905Y-73997143D01*
X155349524Y-74044762D01*
X155444762Y-74092381D01*
X155635239Y-74092381D01*
X155730477Y-74044762D01*
X155778096Y-73997143D01*
X155825715Y-73901905D01*
X155825715Y-73711429D01*
X155778096Y-73616190D01*
X155730477Y-73568571D01*
X155635239Y-73520952D01*
X142072381Y-106884286D02*
X142072381Y-106789047D01*
X142120000Y-106693809D01*
X142167619Y-106646190D01*
X142262857Y-106598571D01*
X142453333Y-106550952D01*
X142691429Y-106550952D01*
X142881905Y-106598571D01*
X142977143Y-106646190D01*
X143024762Y-106693809D01*
X143072381Y-106789047D01*
X143072381Y-106884286D01*
X143024762Y-106979524D01*
X142977143Y-107027143D01*
X142881905Y-107074762D01*
X142691429Y-107122381D01*
X142453333Y-107122381D01*
X142262857Y-107074762D01*
X142167619Y-107027143D01*
X142120000Y-106979524D01*
X142072381Y-106884286D01*
X142977143Y-106122381D02*
X143024762Y-106074762D01*
X143072381Y-106122381D01*
X143024762Y-106170000D01*
X142977143Y-106122381D01*
X143072381Y-106122381D01*
X143072381Y-105122381D02*
X143072381Y-105693810D01*
X143072381Y-105408096D02*
X142072381Y-105408096D01*
X142215238Y-105503334D01*
X142310476Y-105598572D01*
X142358095Y-105693810D01*
X142405714Y-104265238D02*
X143072381Y-104265238D01*
X142405714Y-104693810D02*
X142929524Y-104693810D01*
X143024762Y-104646191D01*
X143072381Y-104550953D01*
X143072381Y-104408095D01*
X143024762Y-104312857D01*
X142977143Y-104265238D01*
X146727143Y-105836666D02*
X146774762Y-105884285D01*
X146822381Y-106027142D01*
X146822381Y-106122380D01*
X146774762Y-106265238D01*
X146679524Y-106360476D01*
X146584286Y-106408095D01*
X146393810Y-106455714D01*
X146250952Y-106455714D01*
X146060476Y-106408095D01*
X145965238Y-106360476D01*
X145870000Y-106265238D01*
X145822381Y-106122380D01*
X145822381Y-106027142D01*
X145870000Y-105884285D01*
X145917619Y-105836666D01*
X146822381Y-105360476D02*
X146822381Y-105170000D01*
X146774762Y-105074761D01*
X146727143Y-105027142D01*
X146584286Y-104931904D01*
X146393810Y-104884285D01*
X146012857Y-104884285D01*
X145917619Y-104931904D01*
X145870000Y-104979523D01*
X145822381Y-105074761D01*
X145822381Y-105265238D01*
X145870000Y-105360476D01*
X145917619Y-105408095D01*
X146012857Y-105455714D01*
X146250952Y-105455714D01*
X146346190Y-105408095D01*
X146393810Y-105360476D01*
X146441429Y-105265238D01*
X146441429Y-105074761D01*
X146393810Y-104979523D01*
X146346190Y-104931904D01*
X146250952Y-104884285D01*
X118272381Y-101424286D02*
X118272381Y-100805238D01*
X118653333Y-101138572D01*
X118653333Y-100995714D01*
X118700952Y-100900476D01*
X118748571Y-100852857D01*
X118843810Y-100805238D01*
X119081905Y-100805238D01*
X119177143Y-100852857D01*
X119224762Y-100900476D01*
X119272381Y-100995714D01*
X119272381Y-101281429D01*
X119224762Y-101376667D01*
X119177143Y-101424286D01*
X118272381Y-100471905D02*
X118272381Y-99852857D01*
X118653333Y-100186191D01*
X118653333Y-100043333D01*
X118700952Y-99948095D01*
X118748571Y-99900476D01*
X118843810Y-99852857D01*
X119081905Y-99852857D01*
X119177143Y-99900476D01*
X119224762Y-99948095D01*
X119272381Y-100043333D01*
X119272381Y-100329048D01*
X119224762Y-100424286D01*
X119177143Y-100471905D01*
X118272381Y-99233810D02*
X118272381Y-99138571D01*
X118320000Y-99043333D01*
X118367619Y-98995714D01*
X118462857Y-98948095D01*
X118653333Y-98900476D01*
X118891429Y-98900476D01*
X119081905Y-98948095D01*
X119177143Y-98995714D01*
X119224762Y-99043333D01*
X119272381Y-99138571D01*
X119272381Y-99233810D01*
X119224762Y-99329048D01*
X119177143Y-99376667D01*
X119081905Y-99424286D01*
X118891429Y-99471905D01*
X118653333Y-99471905D01*
X118462857Y-99424286D01*
X118367619Y-99376667D01*
X118320000Y-99329048D01*
X118272381Y-99233810D01*
X118272381Y-98281429D02*
X118272381Y-98186190D01*
X118320000Y-98090952D01*
X118367619Y-98043333D01*
X118462857Y-97995714D01*
X118653333Y-97948095D01*
X118891429Y-97948095D01*
X119081905Y-97995714D01*
X119177143Y-98043333D01*
X119224762Y-98090952D01*
X119272381Y-98186190D01*
X119272381Y-98281429D01*
X119224762Y-98376667D01*
X119177143Y-98424286D01*
X119081905Y-98471905D01*
X118891429Y-98519524D01*
X118653333Y-98519524D01*
X118462857Y-98471905D01*
X118367619Y-98424286D01*
X118320000Y-98376667D01*
X118272381Y-98281429D01*
X118605714Y-97519524D02*
X119605714Y-97519524D01*
X118653333Y-97519524D02*
X118605714Y-97424286D01*
X118605714Y-97233809D01*
X118653333Y-97138571D01*
X118700952Y-97090952D01*
X118796190Y-97043333D01*
X119081905Y-97043333D01*
X119177143Y-97090952D01*
X119224762Y-97138571D01*
X119272381Y-97233809D01*
X119272381Y-97424286D01*
X119224762Y-97519524D01*
X122927143Y-99852857D02*
X122974762Y-99900476D01*
X123022381Y-100043333D01*
X123022381Y-100138571D01*
X122974762Y-100281429D01*
X122879524Y-100376667D01*
X122784286Y-100424286D01*
X122593810Y-100471905D01*
X122450952Y-100471905D01*
X122260476Y-100424286D01*
X122165238Y-100376667D01*
X122070000Y-100281429D01*
X122022381Y-100138571D01*
X122022381Y-100043333D01*
X122070000Y-99900476D01*
X122117619Y-99852857D01*
X123022381Y-98900476D02*
X123022381Y-99471905D01*
X123022381Y-99186191D02*
X122022381Y-99186191D01*
X122165238Y-99281429D01*
X122260476Y-99376667D01*
X122308095Y-99471905D01*
X122022381Y-98281429D02*
X122022381Y-98186190D01*
X122070000Y-98090952D01*
X122117619Y-98043333D01*
X122212857Y-97995714D01*
X122403333Y-97948095D01*
X122641429Y-97948095D01*
X122831905Y-97995714D01*
X122927143Y-98043333D01*
X122974762Y-98090952D01*
X123022381Y-98186190D01*
X123022381Y-98281429D01*
X122974762Y-98376667D01*
X122927143Y-98424286D01*
X122831905Y-98471905D01*
X122641429Y-98519524D01*
X122403333Y-98519524D01*
X122212857Y-98471905D01*
X122117619Y-98424286D01*
X122070000Y-98376667D01*
X122022381Y-98281429D01*
X123620953Y-114652381D02*
X123049524Y-114652381D01*
X123335238Y-114652381D02*
X123335238Y-113652381D01*
X123240000Y-113795238D01*
X123144762Y-113890476D01*
X123049524Y-113938095D01*
X124240000Y-113652381D02*
X124335239Y-113652381D01*
X124430477Y-113700000D01*
X124478096Y-113747619D01*
X124525715Y-113842857D01*
X124573334Y-114033333D01*
X124573334Y-114271429D01*
X124525715Y-114461905D01*
X124478096Y-114557143D01*
X124430477Y-114604762D01*
X124335239Y-114652381D01*
X124240000Y-114652381D01*
X124144762Y-114604762D01*
X124097143Y-114557143D01*
X124049524Y-114461905D01*
X124001905Y-114271429D01*
X124001905Y-114033333D01*
X124049524Y-113842857D01*
X124097143Y-113747619D01*
X124144762Y-113700000D01*
X124240000Y-113652381D01*
X125192381Y-113652381D02*
X125287620Y-113652381D01*
X125382858Y-113700000D01*
X125430477Y-113747619D01*
X125478096Y-113842857D01*
X125525715Y-114033333D01*
X125525715Y-114271429D01*
X125478096Y-114461905D01*
X125430477Y-114557143D01*
X125382858Y-114604762D01*
X125287620Y-114652381D01*
X125192381Y-114652381D01*
X125097143Y-114604762D01*
X125049524Y-114557143D01*
X125001905Y-114461905D01*
X124954286Y-114271429D01*
X124954286Y-114033333D01*
X125001905Y-113842857D01*
X125049524Y-113747619D01*
X125097143Y-113700000D01*
X125192381Y-113652381D01*
X126382858Y-113985714D02*
X126382858Y-114652381D01*
X125954286Y-113985714D02*
X125954286Y-114509524D01*
X126001905Y-114604762D01*
X126097143Y-114652381D01*
X126240001Y-114652381D01*
X126335239Y-114604762D01*
X126382858Y-114557143D01*
X124097143Y-119867143D02*
X124049524Y-119914762D01*
X123906667Y-119962381D01*
X123811429Y-119962381D01*
X123668571Y-119914762D01*
X123573333Y-119819524D01*
X123525714Y-119724286D01*
X123478095Y-119533810D01*
X123478095Y-119390952D01*
X123525714Y-119200476D01*
X123573333Y-119105238D01*
X123668571Y-119010000D01*
X123811429Y-118962381D01*
X123906667Y-118962381D01*
X124049524Y-119010000D01*
X124097143Y-119057619D01*
X125049524Y-119962381D02*
X124478095Y-119962381D01*
X124763809Y-119962381D02*
X124763809Y-118962381D01*
X124668571Y-119105238D01*
X124573333Y-119200476D01*
X124478095Y-119248095D01*
X126001905Y-119962381D02*
X125430476Y-119962381D01*
X125716190Y-119962381D02*
X125716190Y-118962381D01*
X125620952Y-119105238D01*
X125525714Y-119200476D01*
X125430476Y-119248095D01*
X151422381Y-89584286D02*
X151422381Y-89489047D01*
X151470000Y-89393809D01*
X151517619Y-89346190D01*
X151612857Y-89298571D01*
X151803333Y-89250952D01*
X152041429Y-89250952D01*
X152231905Y-89298571D01*
X152327143Y-89346190D01*
X152374762Y-89393809D01*
X152422381Y-89489047D01*
X152422381Y-89584286D01*
X152374762Y-89679524D01*
X152327143Y-89727143D01*
X152231905Y-89774762D01*
X152041429Y-89822381D01*
X151803333Y-89822381D01*
X151612857Y-89774762D01*
X151517619Y-89727143D01*
X151470000Y-89679524D01*
X151422381Y-89584286D01*
X152327143Y-88822381D02*
X152374762Y-88774762D01*
X152422381Y-88822381D01*
X152374762Y-88870000D01*
X152327143Y-88822381D01*
X152422381Y-88822381D01*
X152422381Y-87822381D02*
X152422381Y-88393810D01*
X152422381Y-88108096D02*
X151422381Y-88108096D01*
X151565238Y-88203334D01*
X151660476Y-88298572D01*
X151708095Y-88393810D01*
X151755714Y-86965238D02*
X152422381Y-86965238D01*
X151755714Y-87393810D02*
X152279524Y-87393810D01*
X152374762Y-87346191D01*
X152422381Y-87250953D01*
X152422381Y-87108095D01*
X152374762Y-87012857D01*
X152327143Y-86965238D01*
X156077143Y-89012857D02*
X156124762Y-89060476D01*
X156172381Y-89203333D01*
X156172381Y-89298571D01*
X156124762Y-89441429D01*
X156029524Y-89536667D01*
X155934286Y-89584286D01*
X155743810Y-89631905D01*
X155600952Y-89631905D01*
X155410476Y-89584286D01*
X155315238Y-89536667D01*
X155220000Y-89441429D01*
X155172381Y-89298571D01*
X155172381Y-89203333D01*
X155220000Y-89060476D01*
X155267619Y-89012857D01*
X156172381Y-88060476D02*
X156172381Y-88631905D01*
X156172381Y-88346191D02*
X155172381Y-88346191D01*
X155315238Y-88441429D01*
X155410476Y-88536667D01*
X155458095Y-88631905D01*
X155267619Y-87679524D02*
X155220000Y-87631905D01*
X155172381Y-87536667D01*
X155172381Y-87298571D01*
X155220000Y-87203333D01*
X155267619Y-87155714D01*
X155362857Y-87108095D01*
X155458095Y-87108095D01*
X155600952Y-87155714D01*
X156172381Y-87727143D01*
X156172381Y-87108095D01*
X136705714Y-76832381D02*
X137324762Y-76832381D01*
X136991428Y-77213333D01*
X137134286Y-77213333D01*
X137229524Y-77260952D01*
X137277143Y-77308571D01*
X137324762Y-77403810D01*
X137324762Y-77641905D01*
X137277143Y-77737143D01*
X137229524Y-77784762D01*
X137134286Y-77832381D01*
X136848571Y-77832381D01*
X136753333Y-77784762D01*
X136705714Y-77737143D01*
X137658095Y-76832381D02*
X138277143Y-76832381D01*
X137943809Y-77213333D01*
X138086667Y-77213333D01*
X138181905Y-77260952D01*
X138229524Y-77308571D01*
X138277143Y-77403810D01*
X138277143Y-77641905D01*
X138229524Y-77737143D01*
X138181905Y-77784762D01*
X138086667Y-77832381D01*
X137800952Y-77832381D01*
X137705714Y-77784762D01*
X137658095Y-77737143D01*
X138896190Y-76832381D02*
X138991429Y-76832381D01*
X139086667Y-76880000D01*
X139134286Y-76927619D01*
X139181905Y-77022857D01*
X139229524Y-77213333D01*
X139229524Y-77451429D01*
X139181905Y-77641905D01*
X139134286Y-77737143D01*
X139086667Y-77784762D01*
X138991429Y-77832381D01*
X138896190Y-77832381D01*
X138800952Y-77784762D01*
X138753333Y-77737143D01*
X138705714Y-77641905D01*
X138658095Y-77451429D01*
X138658095Y-77213333D01*
X138705714Y-77022857D01*
X138753333Y-76927619D01*
X138800952Y-76880000D01*
X138896190Y-76832381D01*
X139848571Y-76832381D02*
X139943810Y-76832381D01*
X140039048Y-76880000D01*
X140086667Y-76927619D01*
X140134286Y-77022857D01*
X140181905Y-77213333D01*
X140181905Y-77451429D01*
X140134286Y-77641905D01*
X140086667Y-77737143D01*
X140039048Y-77784762D01*
X139943810Y-77832381D01*
X139848571Y-77832381D01*
X139753333Y-77784762D01*
X139705714Y-77737143D01*
X139658095Y-77641905D01*
X139610476Y-77451429D01*
X139610476Y-77213333D01*
X139658095Y-77022857D01*
X139705714Y-76927619D01*
X139753333Y-76880000D01*
X139848571Y-76832381D01*
X140610476Y-77165714D02*
X140610476Y-78165714D01*
X140610476Y-77213333D02*
X140705714Y-77165714D01*
X140896191Y-77165714D01*
X140991429Y-77213333D01*
X141039048Y-77260952D01*
X141086667Y-77356190D01*
X141086667Y-77641905D01*
X141039048Y-77737143D01*
X140991429Y-77784762D01*
X140896191Y-77832381D01*
X140705714Y-77832381D01*
X140610476Y-77784762D01*
X138277143Y-73987143D02*
X138229524Y-74034762D01*
X138086667Y-74082381D01*
X137991429Y-74082381D01*
X137848571Y-74034762D01*
X137753333Y-73939524D01*
X137705714Y-73844286D01*
X137658095Y-73653810D01*
X137658095Y-73510952D01*
X137705714Y-73320476D01*
X137753333Y-73225238D01*
X137848571Y-73130000D01*
X137991429Y-73082381D01*
X138086667Y-73082381D01*
X138229524Y-73130000D01*
X138277143Y-73177619D01*
X139229524Y-74082381D02*
X138658095Y-74082381D01*
X138943809Y-74082381D02*
X138943809Y-73082381D01*
X138848571Y-73225238D01*
X138753333Y-73320476D01*
X138658095Y-73368095D01*
X139562857Y-73082381D02*
X140181905Y-73082381D01*
X139848571Y-73463333D01*
X139991429Y-73463333D01*
X140086667Y-73510952D01*
X140134286Y-73558571D01*
X140181905Y-73653810D01*
X140181905Y-73891905D01*
X140134286Y-73987143D01*
X140086667Y-74034762D01*
X139991429Y-74082381D01*
X139705714Y-74082381D01*
X139610476Y-74034762D01*
X139562857Y-73987143D01*
X130480953Y-76292381D02*
X129909524Y-76292381D01*
X130195238Y-76292381D02*
X130195238Y-75292381D01*
X130100000Y-75435238D01*
X130004762Y-75530476D01*
X129909524Y-75578095D01*
X131100000Y-75292381D02*
X131195239Y-75292381D01*
X131290477Y-75340000D01*
X131338096Y-75387619D01*
X131385715Y-75482857D01*
X131433334Y-75673333D01*
X131433334Y-75911429D01*
X131385715Y-76101905D01*
X131338096Y-76197143D01*
X131290477Y-76244762D01*
X131195239Y-76292381D01*
X131100000Y-76292381D01*
X131004762Y-76244762D01*
X130957143Y-76197143D01*
X130909524Y-76101905D01*
X130861905Y-75911429D01*
X130861905Y-75673333D01*
X130909524Y-75482857D01*
X130957143Y-75387619D01*
X131004762Y-75340000D01*
X131100000Y-75292381D01*
X132052381Y-75292381D02*
X132147620Y-75292381D01*
X132242858Y-75340000D01*
X132290477Y-75387619D01*
X132338096Y-75482857D01*
X132385715Y-75673333D01*
X132385715Y-75911429D01*
X132338096Y-76101905D01*
X132290477Y-76197143D01*
X132242858Y-76244762D01*
X132147620Y-76292381D01*
X132052381Y-76292381D01*
X131957143Y-76244762D01*
X131909524Y-76197143D01*
X131861905Y-76101905D01*
X131814286Y-75911429D01*
X131814286Y-75673333D01*
X131861905Y-75482857D01*
X131909524Y-75387619D01*
X131957143Y-75340000D01*
X132052381Y-75292381D01*
X133242858Y-75625714D02*
X133242858Y-76292381D01*
X132814286Y-75625714D02*
X132814286Y-76149524D01*
X132861905Y-76244762D01*
X132957143Y-76292381D01*
X133100001Y-76292381D01*
X133195239Y-76244762D01*
X133242858Y-76197143D01*
X130957143Y-81507143D02*
X130909524Y-81554762D01*
X130766667Y-81602381D01*
X130671429Y-81602381D01*
X130528571Y-81554762D01*
X130433333Y-81459524D01*
X130385714Y-81364286D01*
X130338095Y-81173810D01*
X130338095Y-81030952D01*
X130385714Y-80840476D01*
X130433333Y-80745238D01*
X130528571Y-80650000D01*
X130671429Y-80602381D01*
X130766667Y-80602381D01*
X130909524Y-80650000D01*
X130957143Y-80697619D01*
X131909524Y-81602381D02*
X131338095Y-81602381D01*
X131623809Y-81602381D02*
X131623809Y-80602381D01*
X131528571Y-80745238D01*
X131433333Y-80840476D01*
X131338095Y-80888095D01*
X132766667Y-80935714D02*
X132766667Y-81602381D01*
X132528571Y-80554762D02*
X132290476Y-81269048D01*
X132909524Y-81269048D01*
X138185714Y-94352381D02*
X138280953Y-94352381D01*
X138376191Y-94400000D01*
X138423810Y-94447619D01*
X138471429Y-94542857D01*
X138519048Y-94733333D01*
X138519048Y-94971429D01*
X138471429Y-95161905D01*
X138423810Y-95257143D01*
X138376191Y-95304762D01*
X138280953Y-95352381D01*
X138185714Y-95352381D01*
X138090476Y-95304762D01*
X138042857Y-95257143D01*
X137995238Y-95161905D01*
X137947619Y-94971429D01*
X137947619Y-94733333D01*
X137995238Y-94542857D01*
X138042857Y-94447619D01*
X138090476Y-94400000D01*
X138185714Y-94352381D01*
X138947619Y-95257143D02*
X138995238Y-95304762D01*
X138947619Y-95352381D01*
X138900000Y-95304762D01*
X138947619Y-95257143D01*
X138947619Y-95352381D01*
X139947619Y-95352381D02*
X139376190Y-95352381D01*
X139661904Y-95352381D02*
X139661904Y-94352381D01*
X139566666Y-94495238D01*
X139471428Y-94590476D01*
X139376190Y-94638095D01*
X140804762Y-94685714D02*
X140804762Y-95352381D01*
X140376190Y-94685714D02*
X140376190Y-95209524D01*
X140423809Y-95304762D01*
X140519047Y-95352381D01*
X140661905Y-95352381D01*
X140757143Y-95304762D01*
X140804762Y-95257143D01*
X138757143Y-99007143D02*
X138709524Y-99054762D01*
X138566667Y-99102381D01*
X138471429Y-99102381D01*
X138328571Y-99054762D01*
X138233333Y-98959524D01*
X138185714Y-98864286D01*
X138138095Y-98673810D01*
X138138095Y-98530952D01*
X138185714Y-98340476D01*
X138233333Y-98245238D01*
X138328571Y-98150000D01*
X138471429Y-98102381D01*
X138566667Y-98102381D01*
X138709524Y-98150000D01*
X138757143Y-98197619D01*
X139709524Y-99102381D02*
X139138095Y-99102381D01*
X139423809Y-99102381D02*
X139423809Y-98102381D01*
X139328571Y-98245238D01*
X139233333Y-98340476D01*
X139138095Y-98388095D01*
X140614286Y-98102381D02*
X140138095Y-98102381D01*
X140090476Y-98578571D01*
X140138095Y-98530952D01*
X140233333Y-98483333D01*
X140471429Y-98483333D01*
X140566667Y-98530952D01*
X140614286Y-98578571D01*
X140661905Y-98673810D01*
X140661905Y-98911905D01*
X140614286Y-99007143D01*
X140566667Y-99054762D01*
X140471429Y-99102381D01*
X140233333Y-99102381D01*
X140138095Y-99054762D01*
X140090476Y-99007143D01*
X131272381Y-118565238D02*
X131272381Y-119136667D01*
X131272381Y-118850953D02*
X130272381Y-118850953D01*
X130415238Y-118946191D01*
X130510476Y-119041429D01*
X130558095Y-119136667D01*
X130605714Y-118136667D02*
X131272381Y-118136667D01*
X130700952Y-118136667D02*
X130653333Y-118089048D01*
X130605714Y-117993810D01*
X130605714Y-117850952D01*
X130653333Y-117755714D01*
X130748571Y-117708095D01*
X131272381Y-117708095D01*
X130748571Y-116898571D02*
X130748571Y-117231905D01*
X131272381Y-117231905D02*
X130272381Y-117231905D01*
X130272381Y-116755714D01*
X134927143Y-118612857D02*
X134974762Y-118660476D01*
X135022381Y-118803333D01*
X135022381Y-118898571D01*
X134974762Y-119041429D01*
X134879524Y-119136667D01*
X134784286Y-119184286D01*
X134593810Y-119231905D01*
X134450952Y-119231905D01*
X134260476Y-119184286D01*
X134165238Y-119136667D01*
X134070000Y-119041429D01*
X134022381Y-118898571D01*
X134022381Y-118803333D01*
X134070000Y-118660476D01*
X134117619Y-118612857D01*
X135022381Y-117660476D02*
X135022381Y-118231905D01*
X135022381Y-117946191D02*
X134022381Y-117946191D01*
X134165238Y-118041429D01*
X134260476Y-118136667D01*
X134308095Y-118231905D01*
X134022381Y-116803333D02*
X134022381Y-116993810D01*
X134070000Y-117089048D01*
X134117619Y-117136667D01*
X134260476Y-117231905D01*
X134450952Y-117279524D01*
X134831905Y-117279524D01*
X134927143Y-117231905D01*
X134974762Y-117184286D01*
X135022381Y-117089048D01*
X135022381Y-116898571D01*
X134974762Y-116803333D01*
X134927143Y-116755714D01*
X134831905Y-116708095D01*
X134593810Y-116708095D01*
X134498571Y-116755714D01*
X134450952Y-116803333D01*
X134403333Y-116898571D01*
X134403333Y-117089048D01*
X134450952Y-117184286D01*
X134498571Y-117231905D01*
X134593810Y-117279524D01*
X163182381Y-76796666D02*
X163182381Y-77368095D01*
X163182381Y-77082381D02*
X162182381Y-77082381D01*
X162325238Y-77177619D01*
X162420476Y-77272857D01*
X162468095Y-77368095D01*
X162515714Y-75939523D02*
X163182381Y-75939523D01*
X162515714Y-76368095D02*
X163039524Y-76368095D01*
X163134762Y-76320476D01*
X163182381Y-76225238D01*
X163182381Y-76082380D01*
X163134762Y-75987142D01*
X163087143Y-75939523D01*
X166837143Y-77272857D02*
X166884762Y-77320476D01*
X166932381Y-77463333D01*
X166932381Y-77558571D01*
X166884762Y-77701429D01*
X166789524Y-77796667D01*
X166694286Y-77844286D01*
X166503810Y-77891905D01*
X166360952Y-77891905D01*
X166170476Y-77844286D01*
X166075238Y-77796667D01*
X165980000Y-77701429D01*
X165932381Y-77558571D01*
X165932381Y-77463333D01*
X165980000Y-77320476D01*
X166027619Y-77272857D01*
X166932381Y-76320476D02*
X166932381Y-76891905D01*
X166932381Y-76606191D02*
X165932381Y-76606191D01*
X166075238Y-76701429D01*
X166170476Y-76796667D01*
X166218095Y-76891905D01*
X165932381Y-75987143D02*
X165932381Y-75320476D01*
X166932381Y-75749048D01*
X154362381Y-96595238D02*
X154362381Y-97166667D01*
X154362381Y-96880953D02*
X153362381Y-96880953D01*
X153505238Y-96976191D01*
X153600476Y-97071429D01*
X153648095Y-97166667D01*
X153695714Y-96166667D02*
X154362381Y-96166667D01*
X153790952Y-96166667D02*
X153743333Y-96119048D01*
X153695714Y-96023810D01*
X153695714Y-95880952D01*
X153743333Y-95785714D01*
X153838571Y-95738095D01*
X154362381Y-95738095D01*
X153838571Y-94928571D02*
X153838571Y-95261905D01*
X154362381Y-95261905D02*
X153362381Y-95261905D01*
X153362381Y-94785714D01*
X158017143Y-96642857D02*
X158064762Y-96690476D01*
X158112381Y-96833333D01*
X158112381Y-96928571D01*
X158064762Y-97071429D01*
X157969524Y-97166667D01*
X157874286Y-97214286D01*
X157683810Y-97261905D01*
X157540952Y-97261905D01*
X157350476Y-97214286D01*
X157255238Y-97166667D01*
X157160000Y-97071429D01*
X157112381Y-96928571D01*
X157112381Y-96833333D01*
X157160000Y-96690476D01*
X157207619Y-96642857D01*
X158112381Y-95690476D02*
X158112381Y-96261905D01*
X158112381Y-95976191D02*
X157112381Y-95976191D01*
X157255238Y-96071429D01*
X157350476Y-96166667D01*
X157398095Y-96261905D01*
X157540952Y-95119048D02*
X157493333Y-95214286D01*
X157445714Y-95261905D01*
X157350476Y-95309524D01*
X157302857Y-95309524D01*
X157207619Y-95261905D01*
X157160000Y-95214286D01*
X157112381Y-95119048D01*
X157112381Y-94928571D01*
X157160000Y-94833333D01*
X157207619Y-94785714D01*
X157302857Y-94738095D01*
X157350476Y-94738095D01*
X157445714Y-94785714D01*
X157493333Y-94833333D01*
X157540952Y-94928571D01*
X157540952Y-95119048D01*
X157588571Y-95214286D01*
X157636190Y-95261905D01*
X157731429Y-95309524D01*
X157921905Y-95309524D01*
X158017143Y-95261905D01*
X158064762Y-95214286D01*
X158112381Y-95119048D01*
X158112381Y-94928571D01*
X158064762Y-94833333D01*
X158017143Y-94785714D01*
X157921905Y-94738095D01*
X157731429Y-94738095D01*
X157636190Y-94785714D01*
X157588571Y-94833333D01*
X157540952Y-94928571D01*
X110972381Y-137869525D02*
X109972381Y-137869525D01*
X109972381Y-137631430D01*
X110020000Y-137488572D01*
X110115238Y-137393334D01*
X110210476Y-137345715D01*
X110400952Y-137298096D01*
X110543810Y-137298096D01*
X110734286Y-137345715D01*
X110829524Y-137393334D01*
X110924762Y-137488572D01*
X110972381Y-137631430D01*
X110972381Y-137869525D01*
X111067619Y-137107620D02*
X111067619Y-136345715D01*
X110924762Y-136155239D02*
X110972381Y-136012382D01*
X110972381Y-135774286D01*
X110924762Y-135679048D01*
X110877143Y-135631429D01*
X110781905Y-135583810D01*
X110686667Y-135583810D01*
X110591429Y-135631429D01*
X110543810Y-135679048D01*
X110496190Y-135774286D01*
X110448571Y-135964763D01*
X110400952Y-136060001D01*
X110353333Y-136107620D01*
X110258095Y-136155239D01*
X110162857Y-136155239D01*
X110067619Y-136107620D01*
X110020000Y-136060001D01*
X109972381Y-135964763D01*
X109972381Y-135726667D01*
X110020000Y-135583810D01*
X110924762Y-134726667D02*
X110972381Y-134821905D01*
X110972381Y-135012382D01*
X110924762Y-135107620D01*
X110877143Y-135155239D01*
X110781905Y-135202858D01*
X110496190Y-135202858D01*
X110400952Y-135155239D01*
X110353333Y-135107620D01*
X110305714Y-135012382D01*
X110305714Y-134821905D01*
X110353333Y-134726667D01*
X110972381Y-134298096D02*
X109972381Y-134298096D01*
X110972381Y-133869524D02*
X110448571Y-133869524D01*
X110353333Y-133917143D01*
X110305714Y-134012381D01*
X110305714Y-134155239D01*
X110353333Y-134250477D01*
X110400952Y-134298096D01*
X110972381Y-133250477D02*
X110924762Y-133345715D01*
X110877143Y-133393334D01*
X110781905Y-133440953D01*
X110496190Y-133440953D01*
X110400952Y-133393334D01*
X110353333Y-133345715D01*
X110305714Y-133250477D01*
X110305714Y-133107619D01*
X110353333Y-133012381D01*
X110400952Y-132964762D01*
X110496190Y-132917143D01*
X110781905Y-132917143D01*
X110877143Y-132964762D01*
X110924762Y-133012381D01*
X110972381Y-133107619D01*
X110972381Y-133250477D01*
X110305714Y-132631429D02*
X110305714Y-132250477D01*
X109972381Y-132488572D02*
X110829524Y-132488572D01*
X110924762Y-132440953D01*
X110972381Y-132345715D01*
X110972381Y-132250477D01*
X110305714Y-132060000D02*
X110305714Y-131679048D01*
X109972381Y-131917143D02*
X110829524Y-131917143D01*
X110924762Y-131869524D01*
X110972381Y-131774286D01*
X110972381Y-131679048D01*
X110972381Y-131345714D02*
X109972381Y-131345714D01*
X110591429Y-131250476D02*
X110972381Y-130964761D01*
X110305714Y-130964761D02*
X110686667Y-131345714D01*
X110305714Y-130631428D02*
X110972381Y-130393333D01*
X110305714Y-130155237D02*
X110972381Y-130393333D01*
X111210476Y-130488571D01*
X111258095Y-130536190D01*
X111305714Y-130631428D01*
X103432381Y-134798095D02*
X102432381Y-134798095D01*
X102432381Y-134560000D01*
X102480000Y-134417142D01*
X102575238Y-134321904D01*
X102670476Y-134274285D01*
X102860952Y-134226666D01*
X103003810Y-134226666D01*
X103194286Y-134274285D01*
X103289524Y-134321904D01*
X103384762Y-134417142D01*
X103432381Y-134560000D01*
X103432381Y-134798095D01*
X103432381Y-133274285D02*
X103432381Y-133845714D01*
X103432381Y-133560000D02*
X102432381Y-133560000D01*
X102575238Y-133655238D01*
X102670476Y-133750476D01*
X102718095Y-133845714D01*
X118832381Y-81279525D02*
X117832381Y-81279525D01*
X117832381Y-81041430D01*
X117880000Y-80898572D01*
X117975238Y-80803334D01*
X118070476Y-80755715D01*
X118260952Y-80708096D01*
X118403810Y-80708096D01*
X118594286Y-80755715D01*
X118689524Y-80803334D01*
X118784762Y-80898572D01*
X118832381Y-81041430D01*
X118832381Y-81279525D01*
X118927619Y-80517620D02*
X118927619Y-79755715D01*
X118784762Y-79565239D02*
X118832381Y-79422382D01*
X118832381Y-79184286D01*
X118784762Y-79089048D01*
X118737143Y-79041429D01*
X118641905Y-78993810D01*
X118546667Y-78993810D01*
X118451429Y-79041429D01*
X118403810Y-79089048D01*
X118356190Y-79184286D01*
X118308571Y-79374763D01*
X118260952Y-79470001D01*
X118213333Y-79517620D01*
X118118095Y-79565239D01*
X118022857Y-79565239D01*
X117927619Y-79517620D01*
X117880000Y-79470001D01*
X117832381Y-79374763D01*
X117832381Y-79136667D01*
X117880000Y-78993810D01*
X118784762Y-78136667D02*
X118832381Y-78231905D01*
X118832381Y-78422382D01*
X118784762Y-78517620D01*
X118737143Y-78565239D01*
X118641905Y-78612858D01*
X118356190Y-78612858D01*
X118260952Y-78565239D01*
X118213333Y-78517620D01*
X118165714Y-78422382D01*
X118165714Y-78231905D01*
X118213333Y-78136667D01*
X118832381Y-77708096D02*
X117832381Y-77708096D01*
X118832381Y-77279524D02*
X118308571Y-77279524D01*
X118213333Y-77327143D01*
X118165714Y-77422381D01*
X118165714Y-77565239D01*
X118213333Y-77660477D01*
X118260952Y-77708096D01*
X118832381Y-76660477D02*
X118784762Y-76755715D01*
X118737143Y-76803334D01*
X118641905Y-76850953D01*
X118356190Y-76850953D01*
X118260952Y-76803334D01*
X118213333Y-76755715D01*
X118165714Y-76660477D01*
X118165714Y-76517619D01*
X118213333Y-76422381D01*
X118260952Y-76374762D01*
X118356190Y-76327143D01*
X118641905Y-76327143D01*
X118737143Y-76374762D01*
X118784762Y-76422381D01*
X118832381Y-76517619D01*
X118832381Y-76660477D01*
X118165714Y-76041429D02*
X118165714Y-75660477D01*
X117832381Y-75898572D02*
X118689524Y-75898572D01*
X118784762Y-75850953D01*
X118832381Y-75755715D01*
X118832381Y-75660477D01*
X118165714Y-75470000D02*
X118165714Y-75089048D01*
X117832381Y-75327143D02*
X118689524Y-75327143D01*
X118784762Y-75279524D01*
X118832381Y-75184286D01*
X118832381Y-75089048D01*
X118832381Y-74755714D02*
X117832381Y-74755714D01*
X118451429Y-74660476D02*
X118832381Y-74374761D01*
X118165714Y-74374761D02*
X118546667Y-74755714D01*
X118165714Y-74041428D02*
X118832381Y-73803333D01*
X118165714Y-73565237D02*
X118832381Y-73803333D01*
X119070476Y-73898571D01*
X119118095Y-73946190D01*
X119165714Y-74041428D01*
X126372381Y-78208095D02*
X125372381Y-78208095D01*
X125372381Y-77970000D01*
X125420000Y-77827142D01*
X125515238Y-77731904D01*
X125610476Y-77684285D01*
X125800952Y-77636666D01*
X125943810Y-77636666D01*
X126134286Y-77684285D01*
X126229524Y-77731904D01*
X126324762Y-77827142D01*
X126372381Y-77970000D01*
X126372381Y-78208095D01*
X125467619Y-77255714D02*
X125420000Y-77208095D01*
X125372381Y-77112857D01*
X125372381Y-76874761D01*
X125420000Y-76779523D01*
X125467619Y-76731904D01*
X125562857Y-76684285D01*
X125658095Y-76684285D01*
X125800952Y-76731904D01*
X126372381Y-77303333D01*
X126372381Y-76684285D01*
X163887143Y-98768571D02*
X163553809Y-98768571D01*
X163553809Y-99292381D02*
X163553809Y-98292381D01*
X164030000Y-98292381D01*
X164839524Y-98625714D02*
X164839524Y-99292381D01*
X164410952Y-98625714D02*
X164410952Y-99149524D01*
X164458571Y-99244762D01*
X164553809Y-99292381D01*
X164696667Y-99292381D01*
X164791905Y-99244762D01*
X164839524Y-99197143D01*
X165268095Y-99244762D02*
X165363333Y-99292381D01*
X165553809Y-99292381D01*
X165649048Y-99244762D01*
X165696667Y-99149524D01*
X165696667Y-99101905D01*
X165649048Y-99006667D01*
X165553809Y-98959048D01*
X165410952Y-98959048D01*
X165315714Y-98911429D01*
X165268095Y-98816190D01*
X165268095Y-98768571D01*
X165315714Y-98673333D01*
X165410952Y-98625714D01*
X165553809Y-98625714D01*
X165649048Y-98673333D01*
X166506191Y-99244762D02*
X166410953Y-99292381D01*
X166220476Y-99292381D01*
X166125238Y-99244762D01*
X166077619Y-99149524D01*
X166077619Y-98768571D01*
X166125238Y-98673333D01*
X166220476Y-98625714D01*
X166410953Y-98625714D01*
X166506191Y-98673333D01*
X166553810Y-98768571D01*
X166553810Y-98863810D01*
X166077619Y-98959048D01*
X156048571Y-119232857D02*
X156048571Y-119566191D01*
X156572381Y-119566191D02*
X155572381Y-119566191D01*
X155572381Y-119090000D01*
X155905714Y-118280476D02*
X156572381Y-118280476D01*
X155905714Y-118709048D02*
X156429524Y-118709048D01*
X156524762Y-118661429D01*
X156572381Y-118566191D01*
X156572381Y-118423333D01*
X156524762Y-118328095D01*
X156477143Y-118280476D01*
X156524762Y-117851905D02*
X156572381Y-117756667D01*
X156572381Y-117566191D01*
X156524762Y-117470952D01*
X156429524Y-117423333D01*
X156381905Y-117423333D01*
X156286667Y-117470952D01*
X156239048Y-117566191D01*
X156239048Y-117709048D01*
X156191429Y-117804286D01*
X156096190Y-117851905D01*
X156048571Y-117851905D01*
X155953333Y-117804286D01*
X155905714Y-117709048D01*
X155905714Y-117566191D01*
X155953333Y-117470952D01*
X156524762Y-116613809D02*
X156572381Y-116709047D01*
X156572381Y-116899524D01*
X156524762Y-116994762D01*
X156429524Y-117042381D01*
X156048571Y-117042381D01*
X155953333Y-116994762D01*
X155905714Y-116899524D01*
X155905714Y-116709047D01*
X155953333Y-116613809D01*
X156048571Y-116566190D01*
X156143810Y-116566190D01*
X156239048Y-117042381D01*
X121571429Y-126702381D02*
X121095238Y-126702381D01*
X121047619Y-127178571D01*
X121095238Y-127130952D01*
X121190476Y-127083333D01*
X121428572Y-127083333D01*
X121523810Y-127130952D01*
X121571429Y-127178571D01*
X121619048Y-127273810D01*
X121619048Y-127511905D01*
X121571429Y-127607143D01*
X121523810Y-127654762D01*
X121428572Y-127702381D01*
X121190476Y-127702381D01*
X121095238Y-127654762D01*
X121047619Y-127607143D01*
X122047619Y-127607143D02*
X122095238Y-127654762D01*
X122047619Y-127702381D01*
X122000000Y-127654762D01*
X122047619Y-127607143D01*
X122047619Y-127702381D01*
X123000000Y-126702381D02*
X122523809Y-126702381D01*
X122476190Y-127178571D01*
X122523809Y-127130952D01*
X122619047Y-127083333D01*
X122857143Y-127083333D01*
X122952381Y-127130952D01*
X123000000Y-127178571D01*
X123047619Y-127273810D01*
X123047619Y-127511905D01*
X123000000Y-127607143D01*
X122952381Y-127654762D01*
X122857143Y-127702381D01*
X122619047Y-127702381D01*
X122523809Y-127654762D01*
X122476190Y-127607143D01*
X123904762Y-127035714D02*
X123904762Y-127702381D01*
X123476190Y-127035714D02*
X123476190Y-127559524D01*
X123523809Y-127654762D01*
X123619047Y-127702381D01*
X123761905Y-127702381D01*
X123857143Y-127654762D01*
X123904762Y-127607143D01*
X122333334Y-134052381D02*
X121857143Y-134052381D01*
X121857143Y-133052381D01*
X123190477Y-134052381D02*
X122619048Y-134052381D01*
X122904762Y-134052381D02*
X122904762Y-133052381D01*
X122809524Y-133195238D01*
X122714286Y-133290476D01*
X122619048Y-133338095D01*
X123557143Y-49802381D02*
X122985714Y-49802381D01*
X123271428Y-49802381D02*
X123271428Y-48802381D01*
X123176190Y-48945238D01*
X123080952Y-49040476D01*
X122985714Y-49088095D01*
X124461905Y-48802381D02*
X123985714Y-48802381D01*
X123938095Y-49278571D01*
X123985714Y-49230952D01*
X124080952Y-49183333D01*
X124319048Y-49183333D01*
X124414286Y-49230952D01*
X124461905Y-49278571D01*
X124509524Y-49373810D01*
X124509524Y-49611905D01*
X124461905Y-49707143D01*
X124414286Y-49754762D01*
X124319048Y-49802381D01*
X124080952Y-49802381D01*
X123985714Y-49754762D01*
X123938095Y-49707143D01*
X125366667Y-49135714D02*
X125366667Y-49802381D01*
X124938095Y-49135714D02*
X124938095Y-49659524D01*
X124985714Y-49754762D01*
X125080952Y-49802381D01*
X125223810Y-49802381D01*
X125319048Y-49754762D01*
X125366667Y-49707143D01*
X131461429Y-106107619D02*
X131366191Y-106060000D01*
X131270953Y-105964762D01*
X131128096Y-105821905D01*
X131032857Y-105774286D01*
X130937619Y-105774286D01*
X130985238Y-106012381D02*
X130890000Y-105964762D01*
X130794762Y-105869524D01*
X130747143Y-105679048D01*
X130747143Y-105345714D01*
X130794762Y-105155238D01*
X130890000Y-105060000D01*
X130985238Y-105012381D01*
X131175715Y-105012381D01*
X131270953Y-105060000D01*
X131366191Y-105155238D01*
X131413810Y-105345714D01*
X131413810Y-105679048D01*
X131366191Y-105869524D01*
X131270953Y-105964762D01*
X131175715Y-106012381D01*
X130985238Y-106012381D01*
X131604286Y-106107619D02*
X132366191Y-106107619D01*
X132604286Y-106012381D02*
X132604286Y-105012381D01*
X132985239Y-105012381D01*
X133080477Y-105060000D01*
X133128096Y-105107619D01*
X133175715Y-105202857D01*
X133175715Y-105345714D01*
X133128096Y-105440952D01*
X133080477Y-105488571D01*
X132985239Y-105536190D01*
X132604286Y-105536190D01*
X133604286Y-106012381D02*
X133604286Y-105012381D01*
X133937620Y-105726667D01*
X134270953Y-105012381D01*
X134270953Y-106012381D01*
X134937619Y-105012381D02*
X135128096Y-105012381D01*
X135223334Y-105060000D01*
X135318572Y-105155238D01*
X135366191Y-105345714D01*
X135366191Y-105679048D01*
X135318572Y-105869524D01*
X135223334Y-105964762D01*
X135128096Y-106012381D01*
X134937619Y-106012381D01*
X134842381Y-105964762D01*
X134747143Y-105869524D01*
X134699524Y-105679048D01*
X134699524Y-105345714D01*
X134747143Y-105155238D01*
X134842381Y-105060000D01*
X134937619Y-105012381D01*
X135747143Y-105964762D02*
X135890000Y-106012381D01*
X136128096Y-106012381D01*
X136223334Y-105964762D01*
X136270953Y-105917143D01*
X136318572Y-105821905D01*
X136318572Y-105726667D01*
X136270953Y-105631429D01*
X136223334Y-105583810D01*
X136128096Y-105536190D01*
X135937619Y-105488571D01*
X135842381Y-105440952D01*
X135794762Y-105393333D01*
X135747143Y-105298095D01*
X135747143Y-105202857D01*
X135794762Y-105107619D01*
X135842381Y-105060000D01*
X135937619Y-105012381D01*
X136175715Y-105012381D01*
X136318572Y-105060000D01*
X136509048Y-106107619D02*
X137270953Y-106107619D01*
X137509048Y-106012381D02*
X137509048Y-105012381D01*
X137747143Y-105012381D01*
X137890001Y-105060000D01*
X137985239Y-105155238D01*
X138032858Y-105250476D01*
X138080477Y-105440952D01*
X138080477Y-105583810D01*
X138032858Y-105774286D01*
X137985239Y-105869524D01*
X137890001Y-105964762D01*
X137747143Y-106012381D01*
X137509048Y-106012381D01*
X139032858Y-105060000D02*
X138937620Y-105012381D01*
X138794763Y-105012381D01*
X138651905Y-105060000D01*
X138556667Y-105155238D01*
X138509048Y-105250476D01*
X138461429Y-105440952D01*
X138461429Y-105583810D01*
X138509048Y-105774286D01*
X138556667Y-105869524D01*
X138651905Y-105964762D01*
X138794763Y-106012381D01*
X138890001Y-106012381D01*
X139032858Y-105964762D01*
X139080477Y-105917143D01*
X139080477Y-105583810D01*
X138890001Y-105583810D01*
X139461429Y-105964762D02*
X139604286Y-106012381D01*
X139842382Y-106012381D01*
X139937620Y-105964762D01*
X139985239Y-105917143D01*
X140032858Y-105821905D01*
X140032858Y-105726667D01*
X139985239Y-105631429D01*
X139937620Y-105583810D01*
X139842382Y-105536190D01*
X139651905Y-105488571D01*
X139556667Y-105440952D01*
X139509048Y-105393333D01*
X139461429Y-105298095D01*
X139461429Y-105202857D01*
X139509048Y-105107619D01*
X139556667Y-105060000D01*
X139651905Y-105012381D01*
X139890001Y-105012381D01*
X140032858Y-105060000D01*
X135294762Y-110607619D02*
X135199524Y-110560000D01*
X135104286Y-110464762D01*
X134961429Y-110321905D01*
X134866190Y-110274286D01*
X134770952Y-110274286D01*
X134818571Y-110512381D02*
X134723333Y-110464762D01*
X134628095Y-110369524D01*
X134580476Y-110179048D01*
X134580476Y-109845714D01*
X134628095Y-109655238D01*
X134723333Y-109560000D01*
X134818571Y-109512381D01*
X135009048Y-109512381D01*
X135104286Y-109560000D01*
X135199524Y-109655238D01*
X135247143Y-109845714D01*
X135247143Y-110179048D01*
X135199524Y-110369524D01*
X135104286Y-110464762D01*
X135009048Y-110512381D01*
X134818571Y-110512381D01*
X136199524Y-110512381D02*
X135628095Y-110512381D01*
X135913809Y-110512381D02*
X135913809Y-109512381D01*
X135818571Y-109655238D01*
X135723333Y-109750476D01*
X135628095Y-109798095D01*
X119641429Y-85967619D02*
X119546191Y-85920000D01*
X119450953Y-85824762D01*
X119308096Y-85681905D01*
X119212857Y-85634286D01*
X119117619Y-85634286D01*
X119165238Y-85872381D02*
X119070000Y-85824762D01*
X118974762Y-85729524D01*
X118927143Y-85539048D01*
X118927143Y-85205714D01*
X118974762Y-85015238D01*
X119070000Y-84920000D01*
X119165238Y-84872381D01*
X119355715Y-84872381D01*
X119450953Y-84920000D01*
X119546191Y-85015238D01*
X119593810Y-85205714D01*
X119593810Y-85539048D01*
X119546191Y-85729524D01*
X119450953Y-85824762D01*
X119355715Y-85872381D01*
X119165238Y-85872381D01*
X119784286Y-85967619D02*
X120546191Y-85967619D01*
X120784286Y-85872381D02*
X120784286Y-84872381D01*
X121165239Y-84872381D01*
X121260477Y-84920000D01*
X121308096Y-84967619D01*
X121355715Y-85062857D01*
X121355715Y-85205714D01*
X121308096Y-85300952D01*
X121260477Y-85348571D01*
X121165239Y-85396190D01*
X120784286Y-85396190D01*
X121784286Y-85872381D02*
X121784286Y-84872381D01*
X122117620Y-85586667D01*
X122450953Y-84872381D01*
X122450953Y-85872381D01*
X123117619Y-84872381D02*
X123308096Y-84872381D01*
X123403334Y-84920000D01*
X123498572Y-85015238D01*
X123546191Y-85205714D01*
X123546191Y-85539048D01*
X123498572Y-85729524D01*
X123403334Y-85824762D01*
X123308096Y-85872381D01*
X123117619Y-85872381D01*
X123022381Y-85824762D01*
X122927143Y-85729524D01*
X122879524Y-85539048D01*
X122879524Y-85205714D01*
X122927143Y-85015238D01*
X123022381Y-84920000D01*
X123117619Y-84872381D01*
X123927143Y-85824762D02*
X124070000Y-85872381D01*
X124308096Y-85872381D01*
X124403334Y-85824762D01*
X124450953Y-85777143D01*
X124498572Y-85681905D01*
X124498572Y-85586667D01*
X124450953Y-85491429D01*
X124403334Y-85443810D01*
X124308096Y-85396190D01*
X124117619Y-85348571D01*
X124022381Y-85300952D01*
X123974762Y-85253333D01*
X123927143Y-85158095D01*
X123927143Y-85062857D01*
X123974762Y-84967619D01*
X124022381Y-84920000D01*
X124117619Y-84872381D01*
X124355715Y-84872381D01*
X124498572Y-84920000D01*
X124689048Y-85967619D02*
X125450953Y-85967619D01*
X125689048Y-85872381D02*
X125689048Y-84872381D01*
X125927143Y-84872381D01*
X126070001Y-84920000D01*
X126165239Y-85015238D01*
X126212858Y-85110476D01*
X126260477Y-85300952D01*
X126260477Y-85443810D01*
X126212858Y-85634286D01*
X126165239Y-85729524D01*
X126070001Y-85824762D01*
X125927143Y-85872381D01*
X125689048Y-85872381D01*
X127212858Y-84920000D02*
X127117620Y-84872381D01*
X126974763Y-84872381D01*
X126831905Y-84920000D01*
X126736667Y-85015238D01*
X126689048Y-85110476D01*
X126641429Y-85300952D01*
X126641429Y-85443810D01*
X126689048Y-85634286D01*
X126736667Y-85729524D01*
X126831905Y-85824762D01*
X126974763Y-85872381D01*
X127070001Y-85872381D01*
X127212858Y-85824762D01*
X127260477Y-85777143D01*
X127260477Y-85443810D01*
X127070001Y-85443810D01*
X127641429Y-85824762D02*
X127784286Y-85872381D01*
X128022382Y-85872381D01*
X128117620Y-85824762D01*
X128165239Y-85777143D01*
X128212858Y-85681905D01*
X128212858Y-85586667D01*
X128165239Y-85491429D01*
X128117620Y-85443810D01*
X128022382Y-85396190D01*
X127831905Y-85348571D01*
X127736667Y-85300952D01*
X127689048Y-85253333D01*
X127641429Y-85158095D01*
X127641429Y-85062857D01*
X127689048Y-84967619D01*
X127736667Y-84920000D01*
X127831905Y-84872381D01*
X128070001Y-84872381D01*
X128212858Y-84920000D01*
X123474762Y-90467619D02*
X123379524Y-90420000D01*
X123284286Y-90324762D01*
X123141429Y-90181905D01*
X123046190Y-90134286D01*
X122950952Y-90134286D01*
X122998571Y-90372381D02*
X122903333Y-90324762D01*
X122808095Y-90229524D01*
X122760476Y-90039048D01*
X122760476Y-89705714D01*
X122808095Y-89515238D01*
X122903333Y-89420000D01*
X122998571Y-89372381D01*
X123189048Y-89372381D01*
X123284286Y-89420000D01*
X123379524Y-89515238D01*
X123427143Y-89705714D01*
X123427143Y-90039048D01*
X123379524Y-90229524D01*
X123284286Y-90324762D01*
X123189048Y-90372381D01*
X122998571Y-90372381D01*
X123808095Y-89467619D02*
X123855714Y-89420000D01*
X123950952Y-89372381D01*
X124189048Y-89372381D01*
X124284286Y-89420000D01*
X124331905Y-89467619D01*
X124379524Y-89562857D01*
X124379524Y-89658095D01*
X124331905Y-89800952D01*
X123760476Y-90372381D01*
X124379524Y-90372381D01*
X152472381Y-113090476D02*
X152472381Y-112471428D01*
X152853333Y-112804762D01*
X152853333Y-112661904D01*
X152900952Y-112566666D01*
X152948571Y-112519047D01*
X153043810Y-112471428D01*
X153281905Y-112471428D01*
X153377143Y-112519047D01*
X153424762Y-112566666D01*
X153472381Y-112661904D01*
X153472381Y-112947619D01*
X153424762Y-113042857D01*
X153377143Y-113090476D01*
X152900952Y-111900000D02*
X152853333Y-111995238D01*
X152805714Y-112042857D01*
X152710476Y-112090476D01*
X152662857Y-112090476D01*
X152567619Y-112042857D01*
X152520000Y-111995238D01*
X152472381Y-111900000D01*
X152472381Y-111709523D01*
X152520000Y-111614285D01*
X152567619Y-111566666D01*
X152662857Y-111519047D01*
X152710476Y-111519047D01*
X152805714Y-111566666D01*
X152853333Y-111614285D01*
X152900952Y-111709523D01*
X152900952Y-111900000D01*
X152948571Y-111995238D01*
X152996190Y-112042857D01*
X153091429Y-112090476D01*
X153281905Y-112090476D01*
X153377143Y-112042857D01*
X153424762Y-111995238D01*
X153472381Y-111900000D01*
X153472381Y-111709523D01*
X153424762Y-111614285D01*
X153377143Y-111566666D01*
X153281905Y-111519047D01*
X153091429Y-111519047D01*
X152996190Y-111566666D01*
X152948571Y-111614285D01*
X152900952Y-111709523D01*
X152472381Y-111185714D02*
X152472381Y-110566666D01*
X152853333Y-110900000D01*
X152853333Y-110757142D01*
X152900952Y-110661904D01*
X152948571Y-110614285D01*
X153043810Y-110566666D01*
X153281905Y-110566666D01*
X153377143Y-110614285D01*
X153424762Y-110661904D01*
X153472381Y-110757142D01*
X153472381Y-111042857D01*
X153424762Y-111138095D01*
X153377143Y-111185714D01*
X153472381Y-110138095D02*
X152472381Y-110138095D01*
X153091429Y-110042857D02*
X153472381Y-109757142D01*
X152805714Y-109757142D02*
X153186667Y-110138095D01*
D12*
X151386667Y-111516666D02*
X151053333Y-111750000D01*
X151386667Y-111916666D02*
X150686667Y-111916666D01*
X150686667Y-111650000D01*
X150720000Y-111583333D01*
X150753333Y-111550000D01*
X150820000Y-111516666D01*
X150920000Y-111516666D01*
X150986667Y-111550000D01*
X151020000Y-111583333D01*
X151053333Y-111650000D01*
X151053333Y-111916666D01*
X151386667Y-110850000D02*
X151386667Y-111250000D01*
X151386667Y-111050000D02*
X150686667Y-111050000D01*
X150786667Y-111116666D01*
X150853333Y-111183333D01*
X150886667Y-111250000D01*
D11*
X146180952Y-90206191D02*
X146133333Y-90301429D01*
X146085714Y-90349048D01*
X145990476Y-90396667D01*
X145942857Y-90396667D01*
X145847619Y-90349048D01*
X145800000Y-90301429D01*
X145752381Y-90206191D01*
X145752381Y-90015714D01*
X145800000Y-89920476D01*
X145847619Y-89872857D01*
X145942857Y-89825238D01*
X145990476Y-89825238D01*
X146085714Y-89872857D01*
X146133333Y-89920476D01*
X146180952Y-90015714D01*
X146180952Y-90206191D01*
X146228571Y-90301429D01*
X146276190Y-90349048D01*
X146371429Y-90396667D01*
X146561905Y-90396667D01*
X146657143Y-90349048D01*
X146704762Y-90301429D01*
X146752381Y-90206191D01*
X146752381Y-90015714D01*
X146704762Y-89920476D01*
X146657143Y-89872857D01*
X146561905Y-89825238D01*
X146371429Y-89825238D01*
X146276190Y-89872857D01*
X146228571Y-89920476D01*
X146180952Y-90015714D01*
X146085714Y-88968095D02*
X146752381Y-88968095D01*
X145704762Y-89206191D02*
X146419048Y-89444286D01*
X146419048Y-88825238D01*
X146752381Y-88444286D02*
X145752381Y-88444286D01*
X146371429Y-88349048D02*
X146752381Y-88063333D01*
X146085714Y-88063333D02*
X146466667Y-88444286D01*
D12*
X148566667Y-89346666D02*
X148233333Y-89580000D01*
X148566667Y-89746666D02*
X147866667Y-89746666D01*
X147866667Y-89480000D01*
X147900000Y-89413333D01*
X147933333Y-89380000D01*
X148000000Y-89346666D01*
X148100000Y-89346666D01*
X148166667Y-89380000D01*
X148200000Y-89413333D01*
X148233333Y-89480000D01*
X148233333Y-89746666D01*
X147933333Y-89080000D02*
X147900000Y-89046666D01*
X147866667Y-88980000D01*
X147866667Y-88813333D01*
X147900000Y-88746666D01*
X147933333Y-88713333D01*
X148000000Y-88680000D01*
X148066667Y-88680000D01*
X148166667Y-88713333D01*
X148566667Y-89113333D01*
X148566667Y-88680000D01*
D11*
X153107619Y-106994762D02*
X153060000Y-106947143D01*
X153012381Y-106851905D01*
X153012381Y-106613809D01*
X153060000Y-106518571D01*
X153107619Y-106470952D01*
X153202857Y-106423333D01*
X153298095Y-106423333D01*
X153440952Y-106470952D01*
X154012381Y-107042381D01*
X154012381Y-106423333D01*
X153917143Y-105994762D02*
X153964762Y-105947143D01*
X154012381Y-105994762D01*
X153964762Y-106042381D01*
X153917143Y-105994762D01*
X154012381Y-105994762D01*
X154012381Y-104994762D02*
X154012381Y-105566191D01*
X154012381Y-105280477D02*
X153012381Y-105280477D01*
X153155238Y-105375715D01*
X153250476Y-105470953D01*
X153298095Y-105566191D01*
X154012381Y-104566191D02*
X153012381Y-104566191D01*
X153631429Y-104470953D02*
X154012381Y-104185238D01*
X153345714Y-104185238D02*
X153726667Y-104566191D01*
D12*
X155826667Y-105706666D02*
X155493333Y-105940000D01*
X155826667Y-106106666D02*
X155126667Y-106106666D01*
X155126667Y-105840000D01*
X155160000Y-105773333D01*
X155193333Y-105740000D01*
X155260000Y-105706666D01*
X155360000Y-105706666D01*
X155426667Y-105740000D01*
X155460000Y-105773333D01*
X155493333Y-105840000D01*
X155493333Y-106106666D01*
X155126667Y-105473333D02*
X155126667Y-105040000D01*
X155393333Y-105273333D01*
X155393333Y-105173333D01*
X155426667Y-105106666D01*
X155460000Y-105073333D01*
X155526667Y-105040000D01*
X155693333Y-105040000D01*
X155760000Y-105073333D01*
X155793333Y-105106666D01*
X155826667Y-105173333D01*
X155826667Y-105373333D01*
X155793333Y-105440000D01*
X155760000Y-105473333D01*
D11*
X136561905Y-114982381D02*
X136657144Y-114982381D01*
X136752382Y-115030000D01*
X136800001Y-115077619D01*
X136847620Y-115172857D01*
X136895239Y-115363333D01*
X136895239Y-115601429D01*
X136847620Y-115791905D01*
X136800001Y-115887143D01*
X136752382Y-115934762D01*
X136657144Y-115982381D01*
X136561905Y-115982381D01*
X136466667Y-115934762D01*
X136419048Y-115887143D01*
X136371429Y-115791905D01*
X136323810Y-115601429D01*
X136323810Y-115363333D01*
X136371429Y-115172857D01*
X136419048Y-115077619D01*
X136466667Y-115030000D01*
X136561905Y-114982381D01*
X137323810Y-115887143D02*
X137371429Y-115934762D01*
X137323810Y-115982381D01*
X137276191Y-115934762D01*
X137323810Y-115887143D01*
X137323810Y-115982381D01*
X137990476Y-114982381D02*
X138085715Y-114982381D01*
X138180953Y-115030000D01*
X138228572Y-115077619D01*
X138276191Y-115172857D01*
X138323810Y-115363333D01*
X138323810Y-115601429D01*
X138276191Y-115791905D01*
X138228572Y-115887143D01*
X138180953Y-115934762D01*
X138085715Y-115982381D01*
X137990476Y-115982381D01*
X137895238Y-115934762D01*
X137847619Y-115887143D01*
X137800000Y-115791905D01*
X137752381Y-115601429D01*
X137752381Y-115363333D01*
X137800000Y-115172857D01*
X137847619Y-115077619D01*
X137895238Y-115030000D01*
X137990476Y-114982381D01*
X139276191Y-115982381D02*
X138704762Y-115982381D01*
X138990476Y-115982381D02*
X138990476Y-114982381D01*
X138895238Y-115125238D01*
X138800000Y-115220476D01*
X138704762Y-115268095D01*
D12*
X137683334Y-117796667D02*
X137450000Y-117463333D01*
X137283334Y-117796667D02*
X137283334Y-117096667D01*
X137550000Y-117096667D01*
X137616667Y-117130000D01*
X137650000Y-117163333D01*
X137683334Y-117230000D01*
X137683334Y-117330000D01*
X137650000Y-117396667D01*
X137616667Y-117430000D01*
X137550000Y-117463333D01*
X137283334Y-117463333D01*
X138283334Y-117330000D02*
X138283334Y-117796667D01*
X138116667Y-117063333D02*
X137950000Y-117563333D01*
X138383334Y-117563333D01*
D11*
X137487143Y-100187619D02*
X137534762Y-100140000D01*
X137630000Y-100092381D01*
X137868096Y-100092381D01*
X137963334Y-100140000D01*
X138010953Y-100187619D01*
X138058572Y-100282857D01*
X138058572Y-100378095D01*
X138010953Y-100520952D01*
X137439524Y-101092381D01*
X138058572Y-101092381D01*
X138439524Y-100187619D02*
X138487143Y-100140000D01*
X138582381Y-100092381D01*
X138820477Y-100092381D01*
X138915715Y-100140000D01*
X138963334Y-100187619D01*
X139010953Y-100282857D01*
X139010953Y-100378095D01*
X138963334Y-100520952D01*
X138391905Y-101092381D01*
X139010953Y-101092381D01*
X139630000Y-100092381D02*
X139725239Y-100092381D01*
X139820477Y-100140000D01*
X139868096Y-100187619D01*
X139915715Y-100282857D01*
X139963334Y-100473333D01*
X139963334Y-100711429D01*
X139915715Y-100901905D01*
X139868096Y-100997143D01*
X139820477Y-101044762D01*
X139725239Y-101092381D01*
X139630000Y-101092381D01*
X139534762Y-101044762D01*
X139487143Y-100997143D01*
X139439524Y-100901905D01*
X139391905Y-100711429D01*
X139391905Y-100473333D01*
X139439524Y-100282857D01*
X139487143Y-100187619D01*
X139534762Y-100140000D01*
X139630000Y-100092381D01*
X140391905Y-101092381D02*
X140391905Y-100092381D01*
X140487143Y-100711429D02*
X140772858Y-101092381D01*
X140772858Y-100425714D02*
X140391905Y-100806667D01*
D12*
X139013334Y-102906667D02*
X138780000Y-102573333D01*
X138613334Y-102906667D02*
X138613334Y-102206667D01*
X138880000Y-102206667D01*
X138946667Y-102240000D01*
X138980000Y-102273333D01*
X139013334Y-102340000D01*
X139013334Y-102440000D01*
X138980000Y-102506667D01*
X138946667Y-102540000D01*
X138880000Y-102573333D01*
X138613334Y-102573333D01*
X139646667Y-102206667D02*
X139313334Y-102206667D01*
X139280000Y-102540000D01*
X139313334Y-102506667D01*
X139380000Y-102473333D01*
X139546667Y-102473333D01*
X139613334Y-102506667D01*
X139646667Y-102540000D01*
X139680000Y-102606667D01*
X139680000Y-102773333D01*
X139646667Y-102840000D01*
X139613334Y-102873333D01*
X139546667Y-102906667D01*
X139380000Y-102906667D01*
X139313334Y-102873333D01*
X139280000Y-102840000D01*
D11*
X156575238Y-71817619D02*
X156622857Y-71770000D01*
X156718095Y-71722381D01*
X156956191Y-71722381D01*
X157051429Y-71770000D01*
X157099048Y-71817619D01*
X157146667Y-71912857D01*
X157146667Y-72008095D01*
X157099048Y-72150952D01*
X156527619Y-72722381D01*
X157146667Y-72722381D01*
X157575238Y-72627143D02*
X157622857Y-72674762D01*
X157575238Y-72722381D01*
X157527619Y-72674762D01*
X157575238Y-72627143D01*
X157575238Y-72722381D01*
X158575238Y-72722381D02*
X158003809Y-72722381D01*
X158289523Y-72722381D02*
X158289523Y-71722381D01*
X158194285Y-71865238D01*
X158099047Y-71960476D01*
X158003809Y-72008095D01*
X159003809Y-72722381D02*
X159003809Y-71722381D01*
X159099047Y-72341429D02*
X159384762Y-72722381D01*
X159384762Y-72055714D02*
X159003809Y-72436667D01*
D12*
X157863334Y-70636667D02*
X157630000Y-70303333D01*
X157463334Y-70636667D02*
X157463334Y-69936667D01*
X157730000Y-69936667D01*
X157796667Y-69970000D01*
X157830000Y-70003333D01*
X157863334Y-70070000D01*
X157863334Y-70170000D01*
X157830000Y-70236667D01*
X157796667Y-70270000D01*
X157730000Y-70303333D01*
X157463334Y-70303333D01*
X158463334Y-69936667D02*
X158330000Y-69936667D01*
X158263334Y-69970000D01*
X158230000Y-70003333D01*
X158163334Y-70103333D01*
X158130000Y-70236667D01*
X158130000Y-70503333D01*
X158163334Y-70570000D01*
X158196667Y-70603333D01*
X158263334Y-70636667D01*
X158396667Y-70636667D01*
X158463334Y-70603333D01*
X158496667Y-70570000D01*
X158530000Y-70503333D01*
X158530000Y-70336667D01*
X158496667Y-70270000D01*
X158463334Y-70236667D01*
X158396667Y-70203333D01*
X158263334Y-70203333D01*
X158196667Y-70236667D01*
X158163334Y-70270000D01*
X158130000Y-70336667D01*
D11*
X149581905Y-67962381D02*
X149677144Y-67962381D01*
X149772382Y-68010000D01*
X149820001Y-68057619D01*
X149867620Y-68152857D01*
X149915239Y-68343333D01*
X149915239Y-68581429D01*
X149867620Y-68771905D01*
X149820001Y-68867143D01*
X149772382Y-68914762D01*
X149677144Y-68962381D01*
X149581905Y-68962381D01*
X149486667Y-68914762D01*
X149439048Y-68867143D01*
X149391429Y-68771905D01*
X149343810Y-68581429D01*
X149343810Y-68343333D01*
X149391429Y-68152857D01*
X149439048Y-68057619D01*
X149486667Y-68010000D01*
X149581905Y-67962381D01*
X150343810Y-68867143D02*
X150391429Y-68914762D01*
X150343810Y-68962381D01*
X150296191Y-68914762D01*
X150343810Y-68867143D01*
X150343810Y-68962381D01*
X151010476Y-67962381D02*
X151105715Y-67962381D01*
X151200953Y-68010000D01*
X151248572Y-68057619D01*
X151296191Y-68152857D01*
X151343810Y-68343333D01*
X151343810Y-68581429D01*
X151296191Y-68771905D01*
X151248572Y-68867143D01*
X151200953Y-68914762D01*
X151105715Y-68962381D01*
X151010476Y-68962381D01*
X150915238Y-68914762D01*
X150867619Y-68867143D01*
X150820000Y-68771905D01*
X150772381Y-68581429D01*
X150772381Y-68343333D01*
X150820000Y-68152857D01*
X150867619Y-68057619D01*
X150915238Y-68010000D01*
X151010476Y-67962381D01*
X152296191Y-68962381D02*
X151724762Y-68962381D01*
X152010476Y-68962381D02*
X152010476Y-67962381D01*
X151915238Y-68105238D01*
X151820000Y-68200476D01*
X151724762Y-68248095D01*
D12*
X150703334Y-70776667D02*
X150470000Y-70443333D01*
X150303334Y-70776667D02*
X150303334Y-70076667D01*
X150570000Y-70076667D01*
X150636667Y-70110000D01*
X150670000Y-70143333D01*
X150703334Y-70210000D01*
X150703334Y-70310000D01*
X150670000Y-70376667D01*
X150636667Y-70410000D01*
X150570000Y-70443333D01*
X150303334Y-70443333D01*
X150936667Y-70076667D02*
X151403334Y-70076667D01*
X151103334Y-70776667D01*
D11*
X126354762Y-105262381D02*
X125783333Y-105262381D01*
X126069047Y-105262381D02*
X126069047Y-104262381D01*
X125973809Y-104405238D01*
X125878571Y-104500476D01*
X125783333Y-104548095D01*
X126688095Y-104262381D02*
X127354762Y-104262381D01*
X126926190Y-105262381D01*
X127735714Y-105262381D02*
X127735714Y-104262381D01*
X127830952Y-104881429D02*
X128116667Y-105262381D01*
X128116667Y-104595714D02*
X127735714Y-104976667D01*
D12*
X126833334Y-103176667D02*
X126600000Y-102843333D01*
X126433334Y-103176667D02*
X126433334Y-102476667D01*
X126700000Y-102476667D01*
X126766667Y-102510000D01*
X126800000Y-102543333D01*
X126833334Y-102610000D01*
X126833334Y-102710000D01*
X126800000Y-102776667D01*
X126766667Y-102810000D01*
X126700000Y-102843333D01*
X126433334Y-102843333D01*
X127233334Y-102776667D02*
X127166667Y-102743333D01*
X127133334Y-102710000D01*
X127100000Y-102643333D01*
X127100000Y-102610000D01*
X127133334Y-102543333D01*
X127166667Y-102510000D01*
X127233334Y-102476667D01*
X127366667Y-102476667D01*
X127433334Y-102510000D01*
X127466667Y-102543333D01*
X127500000Y-102610000D01*
X127500000Y-102643333D01*
X127466667Y-102710000D01*
X127433334Y-102743333D01*
X127366667Y-102776667D01*
X127233334Y-102776667D01*
X127166667Y-102810000D01*
X127133334Y-102843333D01*
X127100000Y-102910000D01*
X127100000Y-103043333D01*
X127133334Y-103110000D01*
X127166667Y-103143333D01*
X127233334Y-103176667D01*
X127366667Y-103176667D01*
X127433334Y-103143333D01*
X127466667Y-103110000D01*
X127500000Y-103043333D01*
X127500000Y-102910000D01*
X127466667Y-102843333D01*
X127433334Y-102810000D01*
X127366667Y-102776667D01*
D11*
X131981429Y-104992381D02*
X131410000Y-104992381D01*
X131695714Y-104992381D02*
X131695714Y-103992381D01*
X131600476Y-104135238D01*
X131505238Y-104230476D01*
X131410000Y-104278095D01*
X132410000Y-104897143D02*
X132457619Y-104944762D01*
X132410000Y-104992381D01*
X132362381Y-104944762D01*
X132410000Y-104897143D01*
X132410000Y-104992381D01*
X132838571Y-104087619D02*
X132886190Y-104040000D01*
X132981428Y-103992381D01*
X133219524Y-103992381D01*
X133314762Y-104040000D01*
X133362381Y-104087619D01*
X133410000Y-104182857D01*
X133410000Y-104278095D01*
X133362381Y-104420952D01*
X132790952Y-104992381D01*
X133410000Y-104992381D01*
X133838571Y-104992381D02*
X133838571Y-103992381D01*
X134410000Y-104992381D02*
X133981428Y-104420952D01*
X134410000Y-103992381D02*
X133838571Y-104563810D01*
D12*
X132793334Y-102906667D02*
X132560000Y-102573333D01*
X132393334Y-102906667D02*
X132393334Y-102206667D01*
X132660000Y-102206667D01*
X132726667Y-102240000D01*
X132760000Y-102273333D01*
X132793334Y-102340000D01*
X132793334Y-102440000D01*
X132760000Y-102506667D01*
X132726667Y-102540000D01*
X132660000Y-102573333D01*
X132393334Y-102573333D01*
X133126667Y-102906667D02*
X133260000Y-102906667D01*
X133326667Y-102873333D01*
X133360000Y-102840000D01*
X133426667Y-102740000D01*
X133460000Y-102606667D01*
X133460000Y-102340000D01*
X133426667Y-102273333D01*
X133393334Y-102240000D01*
X133326667Y-102206667D01*
X133193334Y-102206667D01*
X133126667Y-102240000D01*
X133093334Y-102273333D01*
X133060000Y-102340000D01*
X133060000Y-102506667D01*
X133093334Y-102573333D01*
X133126667Y-102606667D01*
X133193334Y-102640000D01*
X133326667Y-102640000D01*
X133393334Y-102606667D01*
X133426667Y-102573333D01*
X133460000Y-102506667D01*
D11*
X137072381Y-83109999D02*
X137072381Y-83300476D01*
X137120000Y-83395714D01*
X137167619Y-83443333D01*
X137310476Y-83538571D01*
X137500952Y-83586190D01*
X137881905Y-83586190D01*
X137977143Y-83538571D01*
X138024762Y-83490952D01*
X138072381Y-83395714D01*
X138072381Y-83205237D01*
X138024762Y-83109999D01*
X137977143Y-83062380D01*
X137881905Y-83014761D01*
X137643810Y-83014761D01*
X137548571Y-83062380D01*
X137500952Y-83109999D01*
X137453333Y-83205237D01*
X137453333Y-83395714D01*
X137500952Y-83490952D01*
X137548571Y-83538571D01*
X137643810Y-83586190D01*
X137072381Y-82157618D02*
X137072381Y-82348095D01*
X137120000Y-82443333D01*
X137167619Y-82490952D01*
X137310476Y-82586190D01*
X137500952Y-82633809D01*
X137881905Y-82633809D01*
X137977143Y-82586190D01*
X138024762Y-82538571D01*
X138072381Y-82443333D01*
X138072381Y-82252856D01*
X138024762Y-82157618D01*
X137977143Y-82109999D01*
X137881905Y-82062380D01*
X137643810Y-82062380D01*
X137548571Y-82109999D01*
X137500952Y-82157618D01*
X137453333Y-82252856D01*
X137453333Y-82443333D01*
X137500952Y-82538571D01*
X137548571Y-82586190D01*
X137643810Y-82633809D01*
X137977143Y-81633809D02*
X138024762Y-81586190D01*
X138072381Y-81633809D01*
X138024762Y-81681428D01*
X137977143Y-81633809D01*
X138072381Y-81633809D01*
X137072381Y-80681428D02*
X137072381Y-81157619D01*
X137548571Y-81205238D01*
X137500952Y-81157619D01*
X137453333Y-81062381D01*
X137453333Y-80824285D01*
X137500952Y-80729047D01*
X137548571Y-80681428D01*
X137643810Y-80633809D01*
X137881905Y-80633809D01*
X137977143Y-80681428D01*
X138024762Y-80729047D01*
X138072381Y-80824285D01*
X138072381Y-81062381D01*
X138024762Y-81157619D01*
X137977143Y-81205238D01*
X138072381Y-80205238D02*
X137072381Y-80205238D01*
X138072381Y-79633809D02*
X137500952Y-80062381D01*
X137072381Y-79633809D02*
X137643810Y-80205238D01*
D12*
X139886667Y-82060000D02*
X139553333Y-82293334D01*
X139886667Y-82460000D02*
X139186667Y-82460000D01*
X139186667Y-82193334D01*
X139220000Y-82126667D01*
X139253333Y-82093334D01*
X139320000Y-82060000D01*
X139420000Y-82060000D01*
X139486667Y-82093334D01*
X139520000Y-82126667D01*
X139553333Y-82193334D01*
X139553333Y-82460000D01*
X139886667Y-81393334D02*
X139886667Y-81793334D01*
X139886667Y-81593334D02*
X139186667Y-81593334D01*
X139286667Y-81660000D01*
X139353333Y-81726667D01*
X139386667Y-81793334D01*
X139186667Y-80960000D02*
X139186667Y-80893333D01*
X139220000Y-80826667D01*
X139253333Y-80793333D01*
X139320000Y-80760000D01*
X139453333Y-80726667D01*
X139620000Y-80726667D01*
X139753333Y-80760000D01*
X139820000Y-80793333D01*
X139853333Y-80826667D01*
X139886667Y-80893333D01*
X139886667Y-80960000D01*
X139853333Y-81026667D01*
X139820000Y-81060000D01*
X139753333Y-81093333D01*
X139620000Y-81126667D01*
X139453333Y-81126667D01*
X139320000Y-81093333D01*
X139253333Y-81060000D01*
X139220000Y-81026667D01*
X139186667Y-80960000D01*
D11*
X125626667Y-94512381D02*
X126245715Y-94512381D01*
X125912381Y-94893333D01*
X126055239Y-94893333D01*
X126150477Y-94940952D01*
X126198096Y-94988571D01*
X126245715Y-95083810D01*
X126245715Y-95321905D01*
X126198096Y-95417143D01*
X126150477Y-95464762D01*
X126055239Y-95512381D01*
X125769524Y-95512381D01*
X125674286Y-95464762D01*
X125626667Y-95417143D01*
X126674286Y-95512381D02*
X126674286Y-94512381D01*
X127245715Y-95512381D02*
X126817143Y-94940952D01*
X127245715Y-94512381D02*
X126674286Y-95083810D01*
D12*
X126010000Y-97326667D02*
X125776666Y-96993333D01*
X125610000Y-97326667D02*
X125610000Y-96626667D01*
X125876666Y-96626667D01*
X125943333Y-96660000D01*
X125976666Y-96693333D01*
X126010000Y-96760000D01*
X126010000Y-96860000D01*
X125976666Y-96926667D01*
X125943333Y-96960000D01*
X125876666Y-96993333D01*
X125610000Y-96993333D01*
X126676666Y-97326667D02*
X126276666Y-97326667D01*
X126476666Y-97326667D02*
X126476666Y-96626667D01*
X126410000Y-96726667D01*
X126343333Y-96793333D01*
X126276666Y-96826667D01*
X127343333Y-97326667D02*
X126943333Y-97326667D01*
X127143333Y-97326667D02*
X127143333Y-96626667D01*
X127076667Y-96726667D01*
X127010000Y-96793333D01*
X126943333Y-96826667D01*
D11*
X131409524Y-68742381D02*
X130838095Y-68742381D01*
X131123809Y-68742381D02*
X131123809Y-67742381D01*
X131028571Y-67885238D01*
X130933333Y-67980476D01*
X130838095Y-68028095D01*
X132028571Y-67742381D02*
X132123810Y-67742381D01*
X132219048Y-67790000D01*
X132266667Y-67837619D01*
X132314286Y-67932857D01*
X132361905Y-68123333D01*
X132361905Y-68361429D01*
X132314286Y-68551905D01*
X132266667Y-68647143D01*
X132219048Y-68694762D01*
X132123810Y-68742381D01*
X132028571Y-68742381D01*
X131933333Y-68694762D01*
X131885714Y-68647143D01*
X131838095Y-68551905D01*
X131790476Y-68361429D01*
X131790476Y-68123333D01*
X131838095Y-67932857D01*
X131885714Y-67837619D01*
X131933333Y-67790000D01*
X132028571Y-67742381D01*
X132790476Y-68742381D02*
X132790476Y-67742381D01*
X133361905Y-68742381D02*
X132933333Y-68170952D01*
X133361905Y-67742381D02*
X132790476Y-68313810D01*
D12*
X131650000Y-70556667D02*
X131416666Y-70223333D01*
X131250000Y-70556667D02*
X131250000Y-69856667D01*
X131516666Y-69856667D01*
X131583333Y-69890000D01*
X131616666Y-69923333D01*
X131650000Y-69990000D01*
X131650000Y-70090000D01*
X131616666Y-70156667D01*
X131583333Y-70190000D01*
X131516666Y-70223333D01*
X131250000Y-70223333D01*
X132316666Y-70556667D02*
X131916666Y-70556667D01*
X132116666Y-70556667D02*
X132116666Y-69856667D01*
X132050000Y-69956667D01*
X131983333Y-70023333D01*
X131916666Y-70056667D01*
X132583333Y-69923333D02*
X132616667Y-69890000D01*
X132683333Y-69856667D01*
X132850000Y-69856667D01*
X132916667Y-69890000D01*
X132950000Y-69923333D01*
X132983333Y-69990000D01*
X132983333Y-70056667D01*
X132950000Y-70156667D01*
X132550000Y-70556667D01*
X132983333Y-70556667D01*
D11*
X125202381Y-72947619D02*
X125202381Y-72328571D01*
X125583333Y-72661905D01*
X125583333Y-72519047D01*
X125630952Y-72423809D01*
X125678571Y-72376190D01*
X125773810Y-72328571D01*
X126011905Y-72328571D01*
X126107143Y-72376190D01*
X126154762Y-72423809D01*
X126202381Y-72519047D01*
X126202381Y-72804762D01*
X126154762Y-72900000D01*
X126107143Y-72947619D01*
X126107143Y-71900000D02*
X126154762Y-71852381D01*
X126202381Y-71900000D01*
X126154762Y-71947619D01*
X126107143Y-71900000D01*
X126202381Y-71900000D01*
X125535714Y-70995238D02*
X126202381Y-70995238D01*
X125154762Y-71233334D02*
X125869048Y-71471429D01*
X125869048Y-70852381D01*
X126202381Y-70471429D02*
X125202381Y-70471429D01*
X126202381Y-69900000D02*
X125630952Y-70328572D01*
X125202381Y-69900000D02*
X125773810Y-70471429D01*
D12*
X128016667Y-71850000D02*
X127683333Y-72083334D01*
X128016667Y-72250000D02*
X127316667Y-72250000D01*
X127316667Y-71983334D01*
X127350000Y-71916667D01*
X127383333Y-71883334D01*
X127450000Y-71850000D01*
X127550000Y-71850000D01*
X127616667Y-71883334D01*
X127650000Y-71916667D01*
X127683333Y-71983334D01*
X127683333Y-72250000D01*
X128016667Y-71183334D02*
X128016667Y-71583334D01*
X128016667Y-71383334D02*
X127316667Y-71383334D01*
X127416667Y-71450000D01*
X127483333Y-71516667D01*
X127516667Y-71583334D01*
X127316667Y-70950000D02*
X127316667Y-70516667D01*
X127583333Y-70750000D01*
X127583333Y-70650000D01*
X127616667Y-70583333D01*
X127650000Y-70550000D01*
X127716667Y-70516667D01*
X127883333Y-70516667D01*
X127950000Y-70550000D01*
X127983333Y-70583333D01*
X128016667Y-70650000D01*
X128016667Y-70850000D01*
X127983333Y-70916667D01*
X127950000Y-70950000D01*
D11*
X133045715Y-95402381D02*
X132474286Y-95402381D01*
X132760000Y-95402381D02*
X132760000Y-94402381D01*
X132664762Y-94545238D01*
X132569524Y-94640476D01*
X132474286Y-94688095D01*
X133474286Y-95402381D02*
X133474286Y-94402381D01*
X134045715Y-95402381D02*
X133617143Y-94830952D01*
X134045715Y-94402381D02*
X133474286Y-94973810D01*
D12*
X132810000Y-97216667D02*
X132576666Y-96883333D01*
X132410000Y-97216667D02*
X132410000Y-96516667D01*
X132676666Y-96516667D01*
X132743333Y-96550000D01*
X132776666Y-96583333D01*
X132810000Y-96650000D01*
X132810000Y-96750000D01*
X132776666Y-96816667D01*
X132743333Y-96850000D01*
X132676666Y-96883333D01*
X132410000Y-96883333D01*
X133476666Y-97216667D02*
X133076666Y-97216667D01*
X133276666Y-97216667D02*
X133276666Y-96516667D01*
X133210000Y-96616667D01*
X133143333Y-96683333D01*
X133076666Y-96716667D01*
X134076667Y-96750000D02*
X134076667Y-97216667D01*
X133910000Y-96483333D02*
X133743333Y-96983333D01*
X134176667Y-96983333D01*
D11*
X137306667Y-68022381D02*
X137925715Y-68022381D01*
X137592381Y-68403333D01*
X137735239Y-68403333D01*
X137830477Y-68450952D01*
X137878096Y-68498571D01*
X137925715Y-68593810D01*
X137925715Y-68831905D01*
X137878096Y-68927143D01*
X137830477Y-68974762D01*
X137735239Y-69022381D01*
X137449524Y-69022381D01*
X137354286Y-68974762D01*
X137306667Y-68927143D01*
X138354286Y-69022381D02*
X138354286Y-68022381D01*
X138925715Y-69022381D02*
X138497143Y-68450952D01*
X138925715Y-68022381D02*
X138354286Y-68593810D01*
D12*
X137690000Y-70836667D02*
X137456666Y-70503333D01*
X137290000Y-70836667D02*
X137290000Y-70136667D01*
X137556666Y-70136667D01*
X137623333Y-70170000D01*
X137656666Y-70203333D01*
X137690000Y-70270000D01*
X137690000Y-70370000D01*
X137656666Y-70436667D01*
X137623333Y-70470000D01*
X137556666Y-70503333D01*
X137290000Y-70503333D01*
X138356666Y-70836667D02*
X137956666Y-70836667D01*
X138156666Y-70836667D02*
X138156666Y-70136667D01*
X138090000Y-70236667D01*
X138023333Y-70303333D01*
X137956666Y-70336667D01*
X138990000Y-70136667D02*
X138656667Y-70136667D01*
X138623333Y-70470000D01*
X138656667Y-70436667D01*
X138723333Y-70403333D01*
X138890000Y-70403333D01*
X138956667Y-70436667D01*
X138990000Y-70470000D01*
X139023333Y-70536667D01*
X139023333Y-70703333D01*
X138990000Y-70770000D01*
X138956667Y-70803333D01*
X138890000Y-70836667D01*
X138723333Y-70836667D01*
X138656667Y-70803333D01*
X138623333Y-70770000D01*
D11*
X143985715Y-69002381D02*
X143414286Y-69002381D01*
X143700000Y-69002381D02*
X143700000Y-68002381D01*
X143604762Y-68145238D01*
X143509524Y-68240476D01*
X143414286Y-68288095D01*
X144414286Y-69002381D02*
X144414286Y-68002381D01*
X144985715Y-69002381D02*
X144557143Y-68430952D01*
X144985715Y-68002381D02*
X144414286Y-68573810D01*
D12*
X143750000Y-70816667D02*
X143516666Y-70483333D01*
X143350000Y-70816667D02*
X143350000Y-70116667D01*
X143616666Y-70116667D01*
X143683333Y-70150000D01*
X143716666Y-70183333D01*
X143750000Y-70250000D01*
X143750000Y-70350000D01*
X143716666Y-70416667D01*
X143683333Y-70450000D01*
X143616666Y-70483333D01*
X143350000Y-70483333D01*
X144416666Y-70816667D02*
X144016666Y-70816667D01*
X144216666Y-70816667D02*
X144216666Y-70116667D01*
X144150000Y-70216667D01*
X144083333Y-70283333D01*
X144016666Y-70316667D01*
X145016667Y-70116667D02*
X144883333Y-70116667D01*
X144816667Y-70150000D01*
X144783333Y-70183333D01*
X144716667Y-70283333D01*
X144683333Y-70416667D01*
X144683333Y-70683333D01*
X144716667Y-70750000D01*
X144750000Y-70783333D01*
X144816667Y-70816667D01*
X144950000Y-70816667D01*
X145016667Y-70783333D01*
X145050000Y-70750000D01*
X145083333Y-70683333D01*
X145083333Y-70516667D01*
X145050000Y-70450000D01*
X145016667Y-70416667D01*
X144950000Y-70383333D01*
X144816667Y-70383333D01*
X144750000Y-70416667D01*
X144716667Y-70450000D01*
X144683333Y-70516667D01*
D11*
X143252381Y-115562857D02*
X143252381Y-116039048D01*
X142252381Y-116039048D01*
X143252381Y-115229524D02*
X142252381Y-115229524D01*
X142966667Y-114896190D01*
X142252381Y-114562857D01*
X143252381Y-114562857D01*
X142347619Y-114134286D02*
X142300000Y-114086667D01*
X142252381Y-113991429D01*
X142252381Y-113753333D01*
X142300000Y-113658095D01*
X142347619Y-113610476D01*
X142442857Y-113562857D01*
X142538095Y-113562857D01*
X142680952Y-113610476D01*
X143252381Y-114181905D01*
X143252381Y-113562857D01*
X142252381Y-112658095D02*
X142252381Y-113134286D01*
X142728571Y-113181905D01*
X142680952Y-113134286D01*
X142633333Y-113039048D01*
X142633333Y-112800952D01*
X142680952Y-112705714D01*
X142728571Y-112658095D01*
X142823810Y-112610476D01*
X143061905Y-112610476D01*
X143157143Y-112658095D01*
X143204762Y-112705714D01*
X143252381Y-112800952D01*
X143252381Y-113039048D01*
X143204762Y-113134286D01*
X143157143Y-113181905D01*
X142252381Y-111991429D02*
X142252381Y-111896190D01*
X142300000Y-111800952D01*
X142347619Y-111753333D01*
X142442857Y-111705714D01*
X142633333Y-111658095D01*
X142871429Y-111658095D01*
X143061905Y-111705714D01*
X143157143Y-111753333D01*
X143204762Y-111800952D01*
X143252381Y-111896190D01*
X143252381Y-111991429D01*
X143204762Y-112086667D01*
X143157143Y-112134286D01*
X143061905Y-112181905D01*
X142871429Y-112229524D01*
X142633333Y-112229524D01*
X142442857Y-112181905D01*
X142347619Y-112134286D01*
X142300000Y-112086667D01*
X142252381Y-111991429D01*
X142680952Y-111086667D02*
X142633333Y-111181905D01*
X142585714Y-111229524D01*
X142490476Y-111277143D01*
X142442857Y-111277143D01*
X142347619Y-111229524D01*
X142300000Y-111181905D01*
X142252381Y-111086667D01*
X142252381Y-110896190D01*
X142300000Y-110800952D01*
X142347619Y-110753333D01*
X142442857Y-110705714D01*
X142490476Y-110705714D01*
X142585714Y-110753333D01*
X142633333Y-110800952D01*
X142680952Y-110896190D01*
X142680952Y-111086667D01*
X142728571Y-111181905D01*
X142776190Y-111229524D01*
X142871429Y-111277143D01*
X143061905Y-111277143D01*
X143157143Y-111229524D01*
X143204762Y-111181905D01*
X143252381Y-111086667D01*
X143252381Y-110896190D01*
X143204762Y-110800952D01*
X143157143Y-110753333D01*
X143061905Y-110705714D01*
X142871429Y-110705714D01*
X142776190Y-110753333D01*
X142728571Y-110800952D01*
X142680952Y-110896190D01*
X142252381Y-109800952D02*
X142252381Y-110277143D01*
X142728571Y-110324762D01*
X142680952Y-110277143D01*
X142633333Y-110181905D01*
X142633333Y-109943809D01*
X142680952Y-109848571D01*
X142728571Y-109800952D01*
X142823810Y-109753333D01*
X143061905Y-109753333D01*
X143157143Y-109800952D01*
X143204762Y-109848571D01*
X143252381Y-109943809D01*
X143252381Y-110181905D01*
X143204762Y-110277143D01*
X143157143Y-110324762D01*
D10*
X145256190Y-113280952D02*
X145660952Y-113280952D01*
X145708571Y-113257143D01*
X145732381Y-113233333D01*
X145756190Y-113185714D01*
X145756190Y-113090476D01*
X145732381Y-113042857D01*
X145708571Y-113019048D01*
X145660952Y-112995238D01*
X145256190Y-112995238D01*
X145756190Y-112495238D02*
X145756190Y-112780952D01*
X145756190Y-112638095D02*
X145256190Y-112638095D01*
X145327619Y-112685714D01*
X145375238Y-112733333D01*
X145399048Y-112780952D01*
D11*
X135137143Y-87422381D02*
X134660952Y-87422381D01*
X134660952Y-86422381D01*
X135470476Y-87422381D02*
X135470476Y-86422381D01*
X135803810Y-87136667D01*
X136137143Y-86422381D01*
X136137143Y-87422381D01*
X136565714Y-86517619D02*
X136613333Y-86470000D01*
X136708571Y-86422381D01*
X136946667Y-86422381D01*
X137041905Y-86470000D01*
X137089524Y-86517619D01*
X137137143Y-86612857D01*
X137137143Y-86708095D01*
X137089524Y-86850952D01*
X136518095Y-87422381D01*
X137137143Y-87422381D01*
X138041905Y-86422381D02*
X137565714Y-86422381D01*
X137518095Y-86898571D01*
X137565714Y-86850952D01*
X137660952Y-86803333D01*
X137899048Y-86803333D01*
X137994286Y-86850952D01*
X138041905Y-86898571D01*
X138089524Y-86993810D01*
X138089524Y-87231905D01*
X138041905Y-87327143D01*
X137994286Y-87374762D01*
X137899048Y-87422381D01*
X137660952Y-87422381D01*
X137565714Y-87374762D01*
X137518095Y-87327143D01*
X138708571Y-86422381D02*
X138803810Y-86422381D01*
X138899048Y-86470000D01*
X138946667Y-86517619D01*
X138994286Y-86612857D01*
X139041905Y-86803333D01*
X139041905Y-87041429D01*
X138994286Y-87231905D01*
X138946667Y-87327143D01*
X138899048Y-87374762D01*
X138803810Y-87422381D01*
X138708571Y-87422381D01*
X138613333Y-87374762D01*
X138565714Y-87327143D01*
X138518095Y-87231905D01*
X138470476Y-87041429D01*
X138470476Y-86803333D01*
X138518095Y-86612857D01*
X138565714Y-86517619D01*
X138613333Y-86470000D01*
X138708571Y-86422381D01*
X139613333Y-86850952D02*
X139518095Y-86803333D01*
X139470476Y-86755714D01*
X139422857Y-86660476D01*
X139422857Y-86612857D01*
X139470476Y-86517619D01*
X139518095Y-86470000D01*
X139613333Y-86422381D01*
X139803810Y-86422381D01*
X139899048Y-86470000D01*
X139946667Y-86517619D01*
X139994286Y-86612857D01*
X139994286Y-86660476D01*
X139946667Y-86755714D01*
X139899048Y-86803333D01*
X139803810Y-86850952D01*
X139613333Y-86850952D01*
X139518095Y-86898571D01*
X139470476Y-86946190D01*
X139422857Y-87041429D01*
X139422857Y-87231905D01*
X139470476Y-87327143D01*
X139518095Y-87374762D01*
X139613333Y-87422381D01*
X139803810Y-87422381D01*
X139899048Y-87374762D01*
X139946667Y-87327143D01*
X139994286Y-87231905D01*
X139994286Y-87041429D01*
X139946667Y-86946190D01*
X139899048Y-86898571D01*
X139803810Y-86850952D01*
X140899048Y-86422381D02*
X140422857Y-86422381D01*
X140375238Y-86898571D01*
X140422857Y-86850952D01*
X140518095Y-86803333D01*
X140756191Y-86803333D01*
X140851429Y-86850952D01*
X140899048Y-86898571D01*
X140946667Y-86993810D01*
X140946667Y-87231905D01*
X140899048Y-87327143D01*
X140851429Y-87374762D01*
X140756191Y-87422381D01*
X140518095Y-87422381D01*
X140422857Y-87374762D01*
X140375238Y-87327143D01*
D10*
X137419048Y-89426190D02*
X137419048Y-89830952D01*
X137442857Y-89878571D01*
X137466667Y-89902381D01*
X137514286Y-89926190D01*
X137609524Y-89926190D01*
X137657143Y-89902381D01*
X137680952Y-89878571D01*
X137704762Y-89830952D01*
X137704762Y-89426190D01*
X137919048Y-89473810D02*
X137942858Y-89450000D01*
X137990477Y-89426190D01*
X138109524Y-89426190D01*
X138157143Y-89450000D01*
X138180953Y-89473810D01*
X138204762Y-89521429D01*
X138204762Y-89569048D01*
X138180953Y-89640476D01*
X137895239Y-89926190D01*
X138204762Y-89926190D01*
D11*
X120856667Y-111812857D02*
X120856667Y-111336666D01*
X121142381Y-111908095D02*
X120142381Y-111574762D01*
X121142381Y-111241428D01*
X121047143Y-110336666D02*
X121094762Y-110384285D01*
X121142381Y-110527142D01*
X121142381Y-110622380D01*
X121094762Y-110765238D01*
X120999524Y-110860476D01*
X120904286Y-110908095D01*
X120713810Y-110955714D01*
X120570952Y-110955714D01*
X120380476Y-110908095D01*
X120285238Y-110860476D01*
X120190000Y-110765238D01*
X120142381Y-110622380D01*
X120142381Y-110527142D01*
X120190000Y-110384285D01*
X120237619Y-110336666D01*
X121094762Y-109955714D02*
X121142381Y-109812857D01*
X121142381Y-109574761D01*
X121094762Y-109479523D01*
X121047143Y-109431904D01*
X120951905Y-109384285D01*
X120856667Y-109384285D01*
X120761429Y-109431904D01*
X120713810Y-109479523D01*
X120666190Y-109574761D01*
X120618571Y-109765238D01*
X120570952Y-109860476D01*
X120523333Y-109908095D01*
X120428095Y-109955714D01*
X120332857Y-109955714D01*
X120237619Y-109908095D01*
X120190000Y-109860476D01*
X120142381Y-109765238D01*
X120142381Y-109527142D01*
X120190000Y-109384285D01*
X120142381Y-109050952D02*
X120142381Y-108384285D01*
X121142381Y-108812857D01*
X121142381Y-107479523D02*
X121142381Y-108050952D01*
X121142381Y-107765238D02*
X120142381Y-107765238D01*
X120285238Y-107860476D01*
X120380476Y-107955714D01*
X120428095Y-108050952D01*
X120237619Y-107098571D02*
X120190000Y-107050952D01*
X120142381Y-106955714D01*
X120142381Y-106717618D01*
X120190000Y-106622380D01*
X120237619Y-106574761D01*
X120332857Y-106527142D01*
X120428095Y-106527142D01*
X120570952Y-106574761D01*
X121142381Y-107146190D01*
X121142381Y-106527142D01*
X123642381Y-109931905D02*
X124451905Y-109931905D01*
X124547143Y-109884286D01*
X124594762Y-109836667D01*
X124642381Y-109741429D01*
X124642381Y-109550952D01*
X124594762Y-109455714D01*
X124547143Y-109408095D01*
X124451905Y-109360476D01*
X123642381Y-109360476D01*
X123642381Y-108979524D02*
X123642381Y-108360476D01*
X124023333Y-108693810D01*
X124023333Y-108550952D01*
X124070952Y-108455714D01*
X124118571Y-108408095D01*
X124213810Y-108360476D01*
X124451905Y-108360476D01*
X124547143Y-108408095D01*
X124594762Y-108455714D01*
X124642381Y-108550952D01*
X124642381Y-108836667D01*
X124594762Y-108931905D01*
X124547143Y-108979524D01*
X144717143Y-99166667D02*
X145193334Y-99166667D01*
X144621905Y-99452381D02*
X144955238Y-98452381D01*
X145288572Y-99452381D01*
X146193334Y-99357143D02*
X146145715Y-99404762D01*
X146002858Y-99452381D01*
X145907620Y-99452381D01*
X145764762Y-99404762D01*
X145669524Y-99309524D01*
X145621905Y-99214286D01*
X145574286Y-99023810D01*
X145574286Y-98880952D01*
X145621905Y-98690476D01*
X145669524Y-98595238D01*
X145764762Y-98500000D01*
X145907620Y-98452381D01*
X146002858Y-98452381D01*
X146145715Y-98500000D01*
X146193334Y-98547619D01*
X146574286Y-99404762D02*
X146717143Y-99452381D01*
X146955239Y-99452381D01*
X147050477Y-99404762D01*
X147098096Y-99357143D01*
X147145715Y-99261905D01*
X147145715Y-99166667D01*
X147098096Y-99071429D01*
X147050477Y-99023810D01*
X146955239Y-98976190D01*
X146764762Y-98928571D01*
X146669524Y-98880952D01*
X146621905Y-98833333D01*
X146574286Y-98738095D01*
X146574286Y-98642857D01*
X146621905Y-98547619D01*
X146669524Y-98500000D01*
X146764762Y-98452381D01*
X147002858Y-98452381D01*
X147145715Y-98500000D01*
X147479048Y-98452381D02*
X148145715Y-98452381D01*
X147717143Y-99452381D01*
X149050477Y-99452381D02*
X148479048Y-99452381D01*
X148764762Y-99452381D02*
X148764762Y-98452381D01*
X148669524Y-98595238D01*
X148574286Y-98690476D01*
X148479048Y-98738095D01*
X149431429Y-98547619D02*
X149479048Y-98500000D01*
X149574286Y-98452381D01*
X149812382Y-98452381D01*
X149907620Y-98500000D01*
X149955239Y-98547619D01*
X150002858Y-98642857D01*
X150002858Y-98738095D01*
X149955239Y-98880952D01*
X149383810Y-99452381D01*
X150002858Y-99452381D01*
X146598095Y-94952381D02*
X146598095Y-95761905D01*
X146645714Y-95857143D01*
X146693333Y-95904762D01*
X146788571Y-95952381D01*
X146979048Y-95952381D01*
X147074286Y-95904762D01*
X147121905Y-95857143D01*
X147169524Y-95761905D01*
X147169524Y-94952381D01*
X148074286Y-95285714D02*
X148074286Y-95952381D01*
X147836190Y-94904762D02*
X147598095Y-95619048D01*
X148217143Y-95619048D01*
X150599524Y-115152381D02*
X150694763Y-115152381D01*
X150790001Y-115200000D01*
X150837620Y-115247619D01*
X150885239Y-115342857D01*
X150932858Y-115533333D01*
X150932858Y-115771429D01*
X150885239Y-115961905D01*
X150837620Y-116057143D01*
X150790001Y-116104762D01*
X150694763Y-116152381D01*
X150599524Y-116152381D01*
X150504286Y-116104762D01*
X150456667Y-116057143D01*
X150409048Y-115961905D01*
X150361429Y-115771429D01*
X150361429Y-115533333D01*
X150409048Y-115342857D01*
X150456667Y-115247619D01*
X150504286Y-115200000D01*
X150599524Y-115152381D01*
X151361429Y-116057143D02*
X151409048Y-116104762D01*
X151361429Y-116152381D01*
X151313810Y-116104762D01*
X151361429Y-116057143D01*
X151361429Y-116152381D01*
X152266191Y-115485714D02*
X152266191Y-116152381D01*
X152028095Y-115104762D02*
X151790000Y-115819048D01*
X152409048Y-115819048D01*
X152694762Y-115152381D02*
X153361429Y-115152381D01*
X152932857Y-116152381D01*
X154170953Y-115485714D02*
X154170953Y-116152381D01*
X153742381Y-115485714D02*
X153742381Y-116009524D01*
X153790000Y-116104762D01*
X153885238Y-116152381D01*
X154028096Y-116152381D01*
X154123334Y-116104762D01*
X154170953Y-116057143D01*
X152123334Y-119867143D02*
X152075715Y-119914762D01*
X151932858Y-119962381D01*
X151837620Y-119962381D01*
X151694762Y-119914762D01*
X151599524Y-119819524D01*
X151551905Y-119724286D01*
X151504286Y-119533810D01*
X151504286Y-119390952D01*
X151551905Y-119200476D01*
X151599524Y-119105238D01*
X151694762Y-119010000D01*
X151837620Y-118962381D01*
X151932858Y-118962381D01*
X152075715Y-119010000D01*
X152123334Y-119057619D01*
X153028096Y-118962381D02*
X152551905Y-118962381D01*
X152504286Y-119438571D01*
X152551905Y-119390952D01*
X152647143Y-119343333D01*
X152885239Y-119343333D01*
X152980477Y-119390952D01*
X153028096Y-119438571D01*
X153075715Y-119533810D01*
X153075715Y-119771905D01*
X153028096Y-119867143D01*
X152980477Y-119914762D01*
X152885239Y-119962381D01*
X152647143Y-119962381D01*
X152551905Y-119914762D01*
X152504286Y-119867143D01*
X168952381Y-112833333D02*
X169666667Y-112833333D01*
X169809524Y-112880953D01*
X169904762Y-112976191D01*
X169952381Y-113119048D01*
X169952381Y-113214286D01*
X169952381Y-111833333D02*
X169952381Y-112404762D01*
X169952381Y-112119048D02*
X168952381Y-112119048D01*
X169095238Y-112214286D01*
X169190476Y-112309524D01*
X169238095Y-112404762D01*
X179527381Y-134833333D02*
X180241667Y-134833333D01*
X180384524Y-134880953D01*
X180479762Y-134976191D01*
X180527381Y-135119048D01*
X180527381Y-135214286D01*
X179622619Y-134404762D02*
X179575000Y-134357143D01*
X179527381Y-134261905D01*
X179527381Y-134023809D01*
X179575000Y-133928571D01*
X179622619Y-133880952D01*
X179717857Y-133833333D01*
X179813095Y-133833333D01*
X179955952Y-133880952D01*
X180527381Y-134452381D01*
X180527381Y-133833333D01*
X168952381Y-72483333D02*
X169666667Y-72483333D01*
X169809524Y-72530953D01*
X169904762Y-72626191D01*
X169952381Y-72769048D01*
X169952381Y-72864286D01*
X169285714Y-71578571D02*
X169952381Y-71578571D01*
X168904762Y-71816667D02*
X169619048Y-72054762D01*
X169619048Y-71435714D01*
X148816667Y-122952381D02*
X148816667Y-123666667D01*
X148769047Y-123809524D01*
X148673809Y-123904762D01*
X148530952Y-123952381D01*
X148435714Y-123952381D01*
X149197619Y-122952381D02*
X149816667Y-122952381D01*
X149483333Y-123333333D01*
X149626191Y-123333333D01*
X149721429Y-123380952D01*
X149769048Y-123428571D01*
X149816667Y-123523810D01*
X149816667Y-123761905D01*
X149769048Y-123857143D01*
X149721429Y-123904762D01*
X149626191Y-123952381D01*
X149340476Y-123952381D01*
X149245238Y-123904762D01*
X149197619Y-123857143D01*
X115752381Y-73383333D02*
X116466667Y-73383333D01*
X116609524Y-73430953D01*
X116704762Y-73526191D01*
X116752381Y-73669048D01*
X116752381Y-73764286D01*
X115752381Y-72430952D02*
X115752381Y-72907143D01*
X116228571Y-72954762D01*
X116180952Y-72907143D01*
X116133333Y-72811905D01*
X116133333Y-72573809D01*
X116180952Y-72478571D01*
X116228571Y-72430952D01*
X116323810Y-72383333D01*
X116561905Y-72383333D01*
X116657143Y-72430952D01*
X116704762Y-72478571D01*
X116752381Y-72573809D01*
X116752381Y-72811905D01*
X116704762Y-72907143D01*
X116657143Y-72954762D01*
X115752381Y-94083333D02*
X116466667Y-94083333D01*
X116609524Y-94130953D01*
X116704762Y-94226191D01*
X116752381Y-94369048D01*
X116752381Y-94464286D01*
X115752381Y-93178571D02*
X115752381Y-93369048D01*
X115800000Y-93464286D01*
X115847619Y-93511905D01*
X115990476Y-93607143D01*
X116180952Y-93654762D01*
X116561905Y-93654762D01*
X116657143Y-93607143D01*
X116704762Y-93559524D01*
X116752381Y-93464286D01*
X116752381Y-93273809D01*
X116704762Y-93178571D01*
X116657143Y-93130952D01*
X116561905Y-93083333D01*
X116323810Y-93083333D01*
X116228571Y-93130952D01*
X116180952Y-93178571D01*
X116133333Y-93273809D01*
X116133333Y-93464286D01*
X116180952Y-93559524D01*
X116228571Y-93607143D01*
X116323810Y-93654762D01*
X115752381Y-115083333D02*
X116466667Y-115083333D01*
X116609524Y-115130953D01*
X116704762Y-115226191D01*
X116752381Y-115369048D01*
X116752381Y-115464286D01*
X116180952Y-114464286D02*
X116133333Y-114559524D01*
X116085714Y-114607143D01*
X115990476Y-114654762D01*
X115942857Y-114654762D01*
X115847619Y-114607143D01*
X115800000Y-114559524D01*
X115752381Y-114464286D01*
X115752381Y-114273809D01*
X115800000Y-114178571D01*
X115847619Y-114130952D01*
X115942857Y-114083333D01*
X115990476Y-114083333D01*
X116085714Y-114130952D01*
X116133333Y-114178571D01*
X116180952Y-114273809D01*
X116180952Y-114464286D01*
X116228571Y-114559524D01*
X116276190Y-114607143D01*
X116371429Y-114654762D01*
X116561905Y-114654762D01*
X116657143Y-114607143D01*
X116704762Y-114559524D01*
X116752381Y-114464286D01*
X116752381Y-114273809D01*
X116704762Y-114178571D01*
X116657143Y-114130952D01*
X116561905Y-114083333D01*
X116371429Y-114083333D01*
X116276190Y-114130952D01*
X116228571Y-114178571D01*
X116180952Y-114273809D01*
X151516667Y-66752381D02*
X151516667Y-67466667D01*
X151469047Y-67609524D01*
X151373809Y-67704762D01*
X151230952Y-67752381D01*
X151135714Y-67752381D01*
X151897619Y-66752381D02*
X152564286Y-66752381D01*
X152135714Y-67752381D01*
M02*
