G04 #@! TF.FileFunction,Copper,L2,Bot,Signal*
%FSLAX46Y46*%
G04 Gerber Fmt 4.6, Leading zero omitted, Abs format (unit mm)*
G04 Created by KiCad (PCBNEW 4.0.7) date 05/13/18 12:03:01*
%MOMM*%
%LPD*%
G01*
G04 APERTURE LIST*
%ADD10C,0.100000*%
%ADD11R,1.600000X1.600000*%
%ADD12C,1.600000*%
%ADD13R,1.800000X1.800000*%
%ADD14O,1.800000X1.800000*%
%ADD15R,3.750000X3.750000*%
%ADD16C,3.750000*%
%ADD17C,0.600000*%
%ADD18C,0.250000*%
%ADD19C,0.500000*%
%ADD20C,3.000000*%
%ADD21C,1.000000*%
%ADD22C,5.000000*%
G04 APERTURE END LIST*
D10*
D11*
X163580000Y-88370000D03*
D12*
X166080000Y-88370000D03*
D11*
X147450000Y-81790000D03*
D12*
X144950000Y-81790000D03*
D11*
X156300000Y-81080000D03*
D12*
X156300000Y-83080000D03*
D11*
X126490000Y-119510000D03*
D12*
X122990000Y-119510000D03*
D11*
X133350000Y-81150000D03*
D12*
X129850000Y-81150000D03*
D13*
X106600000Y-136600000D03*
D14*
X106600000Y-131520000D03*
D13*
X122300000Y-74930000D03*
D14*
X122300000Y-80010000D03*
D11*
X153290000Y-119510000D03*
D12*
X151290000Y-119510000D03*
D15*
X181500000Y-106800000D03*
D16*
X181500000Y-112500000D03*
X181500000Y-118200000D03*
X175800000Y-106800000D03*
X175800000Y-112500000D03*
X175800000Y-118200000D03*
D15*
X181500000Y-63600000D03*
D16*
X181500000Y-69300000D03*
X181500000Y-75000000D03*
X181500000Y-80700000D03*
X175800000Y-63600000D03*
X175800000Y-69300000D03*
X175800000Y-75000000D03*
X175800000Y-80700000D03*
D15*
X157700000Y-135500000D03*
D16*
X152000000Y-135500000D03*
X146300000Y-135500000D03*
X140600000Y-135500000D03*
X157700000Y-129800000D03*
X152000000Y-129800000D03*
X146300000Y-129800000D03*
X140600000Y-129800000D03*
D15*
X104300000Y-75900000D03*
D16*
X104300000Y-70200000D03*
X110000000Y-75900000D03*
X110000000Y-70200000D03*
D15*
X104300000Y-96600000D03*
D16*
X104300000Y-90900000D03*
X110000000Y-96600000D03*
X110000000Y-90900000D03*
D15*
X104300000Y-117600000D03*
D16*
X104300000Y-111900000D03*
X110000000Y-117600000D03*
X110000000Y-111900000D03*
D15*
X143300000Y-55300000D03*
D16*
X149000000Y-55300000D03*
X154700000Y-55300000D03*
X160400000Y-55300000D03*
X143300000Y-61000000D03*
X149000000Y-61000000D03*
X154700000Y-61000000D03*
X160400000Y-61000000D03*
D17*
X138810000Y-75160000D03*
X142380000Y-75270000D03*
X162720000Y-99300000D03*
X143560000Y-117120000D03*
X149510000Y-116850000D03*
X128900000Y-123700000D03*
X152020000Y-108220000D03*
X142550000Y-108910000D03*
X155600000Y-108050000D03*
X155790000Y-100850000D03*
X146880000Y-71930000D03*
X144020000Y-75100000D03*
X133310000Y-98300000D03*
X137460000Y-98340000D03*
X136090000Y-92660000D03*
X146270000Y-85920000D03*
X160540000Y-81140000D03*
X161440000Y-115610000D03*
X153000000Y-83210000D03*
X136990000Y-90020000D03*
X156250000Y-77460000D03*
X152170000Y-82180000D03*
X151070000Y-84240000D03*
X142380000Y-90720000D03*
X135060000Y-100030000D03*
X136460000Y-95330000D03*
X147080000Y-102260000D03*
X121430000Y-101980000D03*
X129700000Y-102760000D03*
X137120000Y-105240000D03*
X126190000Y-108200000D03*
X146950000Y-77720000D03*
X150110000Y-82520000D03*
X130700000Y-72810000D03*
X141820000Y-78730000D03*
X152250000Y-89650000D03*
X146380000Y-89500000D03*
X131200000Y-127800000D03*
X139700000Y-100160000D03*
X139640000Y-106560000D03*
X125790000Y-75210000D03*
X126070000Y-85160000D03*
X142700000Y-101300000D03*
X142020000Y-110890000D03*
X145230000Y-113720000D03*
X135900000Y-86780000D03*
X147900000Y-70870000D03*
X133270000Y-90070000D03*
X133310000Y-88700000D03*
X149730000Y-110110000D03*
X146010000Y-109160000D03*
X134600000Y-99100000D03*
X144300000Y-99800000D03*
X150300000Y-100400000D03*
X164200000Y-123000000D03*
X141900000Y-68000000D03*
X167700000Y-129500000D03*
X162550000Y-76500000D03*
X161550000Y-78180000D03*
X153390000Y-79350000D03*
X150990000Y-75210000D03*
X132890000Y-91780000D03*
X124900000Y-113600000D03*
X128600000Y-126200000D03*
X151900000Y-94800000D03*
X159100000Y-104100000D03*
X156400000Y-121600000D03*
X166200000Y-131500000D03*
D18*
X142270000Y-75160000D02*
X138810000Y-75160000D01*
X142380000Y-75270000D02*
X142270000Y-75160000D01*
D19*
X163580000Y-98440000D02*
X162720000Y-99300000D01*
X163580000Y-88370000D02*
X163580000Y-98440000D01*
D20*
X149510000Y-116850000D02*
X149240000Y-117120000D01*
X149240000Y-117120000D02*
X143560000Y-117120000D01*
D18*
X122990000Y-119510000D02*
X122990000Y-121890000D01*
X124800000Y-123700000D02*
X128900000Y-123700000D01*
X122990000Y-121890000D02*
X124800000Y-123700000D01*
X142550000Y-108910000D02*
X142550000Y-107430000D01*
X150270000Y-106470000D02*
X152020000Y-108220000D01*
X143510000Y-106470000D02*
X150270000Y-106470000D01*
X142550000Y-107430000D02*
X143510000Y-106470000D01*
X142550000Y-108910000D02*
X142490000Y-108850000D01*
X142490000Y-108850000D02*
X142410000Y-108850000D01*
X155600000Y-108050000D02*
X155790000Y-107860000D01*
X155790000Y-107860000D02*
X155790000Y-100850000D01*
X146880000Y-71930000D02*
X144020000Y-74790000D01*
X144020000Y-74790000D02*
X144020000Y-75100000D01*
X137420000Y-98300000D02*
X133310000Y-98300000D01*
X137460000Y-98340000D02*
X137420000Y-98300000D01*
X139530000Y-92660000D02*
X136090000Y-92660000D01*
X146270000Y-85920000D02*
X139530000Y-92660000D01*
X160540000Y-81140000D02*
X161440000Y-82590000D01*
X161440000Y-82590000D02*
X161440000Y-115610000D01*
X143800000Y-83210000D02*
X153000000Y-83210000D01*
X136990000Y-90020000D02*
X143800000Y-83210000D01*
X152820000Y-80890000D02*
X156250000Y-77460000D01*
X152820000Y-81530000D02*
X152820000Y-80890000D01*
X152170000Y-82180000D02*
X152820000Y-81530000D01*
X149140000Y-86170000D02*
X151070000Y-84240000D01*
X146930000Y-86170000D02*
X149140000Y-86170000D01*
X142380000Y-90720000D02*
X146930000Y-86170000D01*
D20*
X147030000Y-100740000D02*
X147080000Y-100740000D01*
X147030000Y-97650000D02*
X147030000Y-100740000D01*
X144710000Y-95330000D02*
X147030000Y-97650000D01*
X136460000Y-95330000D02*
X144710000Y-95330000D01*
D19*
X147080000Y-100740000D02*
X147080000Y-102260000D01*
X127830000Y-100030000D02*
X135060000Y-100030000D01*
D20*
X121430000Y-101980000D02*
X123380000Y-100030000D01*
X123380000Y-100030000D02*
X127740000Y-100030000D01*
X127830000Y-99940000D02*
X127830000Y-100030000D01*
X127740000Y-100030000D02*
X127830000Y-99940000D01*
D19*
X147080000Y-98640000D02*
X147080000Y-100740000D01*
X123380000Y-100030000D02*
X127830000Y-100030000D01*
D20*
X137120000Y-105240000D02*
X132180000Y-105240000D01*
X132180000Y-105240000D02*
X129700000Y-102760000D01*
X126490000Y-119510000D02*
X126490000Y-115370000D01*
X127860000Y-109870000D02*
X126190000Y-108200000D01*
X127860000Y-114000000D02*
X127860000Y-109870000D01*
X126490000Y-115370000D02*
X127860000Y-114000000D01*
D18*
X150230000Y-81000000D02*
X146950000Y-77720000D01*
X150230000Y-82400000D02*
X150230000Y-81000000D01*
X150110000Y-82520000D02*
X150230000Y-82400000D01*
X134840000Y-76950000D02*
X130700000Y-72810000D01*
X140040000Y-76950000D02*
X134840000Y-76950000D01*
X141820000Y-78730000D02*
X140040000Y-76950000D01*
X146530000Y-89650000D02*
X152250000Y-89650000D01*
X146380000Y-89500000D02*
X146530000Y-89650000D01*
D20*
X130030000Y-121130000D02*
X130030000Y-117120000D01*
X131600000Y-122700000D02*
X130030000Y-121130000D01*
X131600000Y-127400000D02*
X131600000Y-122700000D01*
X131200000Y-127800000D02*
X131600000Y-127400000D01*
X130030000Y-117120000D02*
X130030000Y-117040000D01*
X138200000Y-108870000D02*
X138200000Y-108740000D01*
X130030000Y-117040000D02*
X138200000Y-108870000D01*
X130030000Y-117120000D02*
X130030000Y-116910000D01*
D21*
X139700000Y-105650000D02*
X139700000Y-107240000D01*
X139700000Y-107240000D02*
X138200000Y-108740000D01*
X138200000Y-108740000D02*
X130030000Y-116910000D01*
X139700000Y-106500000D02*
X139700000Y-105650000D01*
X139700000Y-105650000D02*
X139700000Y-100160000D01*
X139640000Y-106560000D02*
X139700000Y-106500000D01*
D18*
X125790000Y-84880000D02*
X125790000Y-75210000D01*
X126070000Y-85160000D02*
X125790000Y-84880000D01*
D22*
X181500000Y-112500000D02*
X181500000Y-106800000D01*
X181500000Y-118200000D02*
X181500000Y-112500000D01*
X154700000Y-55300000D02*
X160400000Y-55300000D01*
X149000000Y-55300000D02*
X154700000Y-55300000D01*
X143300000Y-55300000D02*
X149000000Y-55300000D01*
X181500000Y-69300000D02*
X181500000Y-63600000D01*
X181500000Y-75000000D02*
X181500000Y-69300000D01*
X181500000Y-80700000D02*
X181500000Y-75000000D01*
X181500000Y-106800000D02*
X181500000Y-80700000D01*
X181500000Y-63600000D02*
X181500000Y-55400000D01*
X161900000Y-53800000D02*
X160400000Y-55300000D01*
X179900000Y-53800000D02*
X161900000Y-53800000D01*
X181500000Y-55400000D02*
X179900000Y-53800000D01*
D20*
X146300000Y-135500000D02*
X140600000Y-135500000D01*
D21*
X138000000Y-135000000D02*
X138000000Y-136400000D01*
X139100000Y-125800000D02*
X138000000Y-126900000D01*
X138000000Y-126900000D02*
X138000000Y-135000000D01*
X139100000Y-121300000D02*
X139100000Y-125800000D01*
X143800000Y-135700000D02*
X143800000Y-135500000D01*
X144000000Y-135500000D02*
X143800000Y-135700000D01*
X144100000Y-135500000D02*
X144000000Y-135500000D01*
X142100000Y-137500000D02*
X144100000Y-135500000D01*
X139100000Y-137500000D02*
X142100000Y-137500000D01*
X138000000Y-136400000D02*
X139100000Y-137500000D01*
X139100000Y-111900000D02*
X139100000Y-121300000D01*
X139100000Y-121300000D02*
X139100000Y-121800000D01*
X139100000Y-121800000D02*
X139100000Y-122000000D01*
X141300000Y-109700000D02*
X139100000Y-111900000D01*
X141300000Y-102700000D02*
X141300000Y-109700000D01*
X142700000Y-101300000D02*
X141300000Y-102700000D01*
D20*
X152000000Y-135500000D02*
X157700000Y-135500000D01*
X146300000Y-135500000D02*
X152000000Y-135500000D01*
X143800000Y-135500000D02*
X146300000Y-135500000D01*
X104300000Y-111900000D02*
X104300000Y-96600000D01*
X104300000Y-117600000D02*
X104300000Y-111900000D01*
X104300000Y-96600000D02*
X104300000Y-90900000D01*
X104300000Y-75900000D02*
X104300000Y-90900000D01*
X104300000Y-70200000D02*
X104300000Y-75900000D01*
X145230000Y-113720000D02*
X145150000Y-113720000D01*
X143520000Y-112090000D02*
X143520000Y-112010000D01*
X145150000Y-113720000D02*
X143520000Y-112090000D01*
D18*
X142400000Y-110890000D02*
X142020000Y-110890000D01*
X143520000Y-112010000D02*
X142400000Y-110890000D01*
X135900000Y-86780000D02*
X147900000Y-74780000D01*
X147900000Y-74780000D02*
X147900000Y-70870000D01*
X133270000Y-88740000D02*
X133270000Y-90070000D01*
X133310000Y-88700000D02*
X133270000Y-88740000D01*
D20*
X146350000Y-109500000D02*
X149120000Y-109500000D01*
X149120000Y-109500000D02*
X149730000Y-110110000D01*
D18*
X146010000Y-109160000D02*
X146350000Y-109500000D01*
D19*
X143600000Y-99100000D02*
X134600000Y-99100000D01*
X144300000Y-99800000D02*
X143600000Y-99100000D01*
X153200000Y-103300000D02*
X150300000Y-100400000D01*
X153200000Y-112000000D02*
X153200000Y-103300000D01*
X164200000Y-123000000D02*
X153200000Y-112000000D01*
X162900000Y-68000000D02*
X141900000Y-68000000D01*
X168800000Y-73900000D02*
X162900000Y-68000000D01*
X168800000Y-100700000D02*
X168800000Y-73900000D01*
X163800000Y-105700000D02*
X168800000Y-100700000D01*
X163800000Y-119100000D02*
X163800000Y-105700000D01*
X165800000Y-121100000D02*
X163800000Y-119100000D01*
X165800000Y-127600000D02*
X165800000Y-121100000D01*
X167700000Y-129500000D02*
X165800000Y-127600000D01*
D18*
X162550000Y-77180000D02*
X162550000Y-76500000D01*
X161550000Y-78180000D02*
X162550000Y-77180000D01*
X152330000Y-78290000D02*
X153390000Y-79350000D01*
X152330000Y-76550000D02*
X152330000Y-78290000D01*
X150990000Y-75210000D02*
X152330000Y-76550000D01*
X132360000Y-82140000D02*
X133350000Y-81150000D01*
X132360000Y-91250000D02*
X132360000Y-82140000D01*
X132890000Y-91780000D02*
X132360000Y-91250000D01*
D19*
X122300000Y-113600000D02*
X124900000Y-113600000D01*
X119000000Y-116900000D02*
X122300000Y-113600000D01*
X119000000Y-123800000D02*
X119000000Y-116900000D01*
X120900000Y-125700000D02*
X119000000Y-123800000D01*
X128100000Y-125700000D02*
X120900000Y-125700000D01*
X128600000Y-126200000D02*
X128100000Y-125700000D01*
X158500000Y-101400000D02*
X151900000Y-94800000D01*
X158500000Y-103500000D02*
X158500000Y-101400000D01*
X159100000Y-104100000D02*
X158500000Y-103500000D01*
X156800000Y-122000000D02*
X156400000Y-121600000D01*
X159700000Y-122000000D02*
X156800000Y-122000000D01*
X164700000Y-127000000D02*
X159700000Y-122000000D01*
X164700000Y-127700000D02*
X164700000Y-127000000D01*
X165600000Y-128600000D02*
X164700000Y-127700000D01*
X165600000Y-130900000D02*
X165600000Y-128600000D01*
X166200000Y-131500000D02*
X165600000Y-130900000D01*
M02*
