G04 #@! TF.FileFunction,Soldermask,Top*
%FSLAX46Y46*%
G04 Gerber Fmt 4.6, Leading zero omitted, Abs format (unit mm)*
G04 Created by KiCad (PCBNEW 4.0.7) date 05/11/18 12:47:43*
%MOMM*%
%LPD*%
G01*
G04 APERTURE LIST*
%ADD10C,0.100000*%
%ADD11R,1.600000X1.600000*%
%ADD12C,1.600000*%
%ADD13R,1.600000X1.000000*%
%ADD14R,1.000000X1.600000*%
%ADD15R,1.800000X1.800000*%
%ADD16O,1.800000X1.800000*%
%ADD17R,1.650000X2.030000*%
%ADD18R,2.030000X1.650000*%
%ADD19R,2.700000X3.600000*%
%ADD20R,2.750000X4.700000*%
%ADD21R,2.200000X1.200000*%
%ADD22R,6.400000X5.800000*%
%ADD23R,1.700000X0.900000*%
%ADD24R,0.900000X1.700000*%
%ADD25R,0.450000X1.450000*%
%ADD26R,1.450000X0.450000*%
%ADD27R,0.600000X1.550000*%
%ADD28R,1.550000X0.600000*%
%ADD29R,3.750000X3.750000*%
%ADD30C,3.750000*%
%ADD31C,3.000000*%
%ADD32R,1.800000X1.200000*%
%ADD33C,0.254000*%
G04 APERTURE END LIST*
D10*
D11*
X163580000Y-88370000D03*
D12*
X166080000Y-88370000D03*
D13*
X155580000Y-112630000D03*
X155580000Y-109630000D03*
D11*
X147450000Y-81790000D03*
D12*
X144950000Y-81790000D03*
D14*
X148900000Y-75300000D03*
X145900000Y-75300000D03*
D13*
X149950000Y-104140000D03*
X149950000Y-107140000D03*
D11*
X156300000Y-81080000D03*
D12*
X156300000Y-83080000D03*
D14*
X153540000Y-75390000D03*
X156540000Y-75390000D03*
D13*
X144620000Y-104170000D03*
X144620000Y-107170000D03*
X120820000Y-97710000D03*
X120820000Y-100710000D03*
D11*
X126490000Y-119510000D03*
D12*
X122990000Y-119510000D03*
D13*
X153970000Y-86870000D03*
X153970000Y-89870000D03*
D14*
X137420000Y-75380000D03*
X140420000Y-75380000D03*
D11*
X133350000Y-81150000D03*
D12*
X129850000Y-81150000D03*
D14*
X140900000Y-96900000D03*
X137900000Y-96900000D03*
D13*
X132820000Y-116470000D03*
X132820000Y-119470000D03*
X164730000Y-75130000D03*
X164730000Y-78130000D03*
X155910000Y-94500000D03*
X155910000Y-97500000D03*
D15*
X106600000Y-136600000D03*
D16*
X106600000Y-131520000D03*
D15*
X122300000Y-74930000D03*
D16*
X122300000Y-80010000D03*
D17*
X163600000Y-96340000D03*
X166760000Y-96340000D03*
D18*
X158620000Y-116660000D03*
X158620000Y-119820000D03*
D19*
X126650000Y-133600000D03*
X118350000Y-133600000D03*
D20*
X130150000Y-58600000D03*
X119250000Y-58600000D03*
D21*
X139590000Y-112340000D03*
X139590000Y-110060000D03*
X139590000Y-107780000D03*
D22*
X133290000Y-110060000D03*
D21*
X127770000Y-92200000D03*
X127770000Y-89920000D03*
X127770000Y-87640000D03*
D22*
X121470000Y-89920000D03*
D23*
X151070000Y-112850000D03*
X151070000Y-109950000D03*
X148250000Y-87780000D03*
X148250000Y-90680000D03*
X155510000Y-104140000D03*
X155510000Y-107040000D03*
D24*
X139250000Y-117480000D03*
X136350000Y-117480000D03*
X140580000Y-102590000D03*
X137680000Y-102590000D03*
X156530000Y-70320000D03*
X159430000Y-70320000D03*
X152270000Y-70460000D03*
X149370000Y-70460000D03*
X125500000Y-102860000D03*
X128400000Y-102860000D03*
X131460000Y-102590000D03*
X134360000Y-102590000D03*
D23*
X139570000Y-80160000D03*
X139570000Y-83060000D03*
D24*
X127910000Y-97010000D03*
X125010000Y-97010000D03*
X133550000Y-70240000D03*
X130650000Y-70240000D03*
D23*
X127700000Y-69950000D03*
X127700000Y-72850000D03*
D24*
X134710000Y-96900000D03*
X131810000Y-96900000D03*
X139590000Y-70520000D03*
X136690000Y-70520000D03*
X145650000Y-70500000D03*
X142750000Y-70500000D03*
D25*
X146505000Y-110700000D03*
X145855000Y-110700000D03*
X145205000Y-110700000D03*
X144555000Y-110700000D03*
X144555000Y-115100000D03*
X145205000Y-115100000D03*
X145855000Y-115100000D03*
X146505000Y-115100000D03*
D26*
X140000000Y-90675000D03*
X140000000Y-90025000D03*
X140000000Y-89375000D03*
X140000000Y-88725000D03*
X135600000Y-88725000D03*
X135600000Y-89375000D03*
X135600000Y-90025000D03*
X135600000Y-90675000D03*
D27*
X126095000Y-106470000D03*
X124825000Y-106470000D03*
X123555000Y-106470000D03*
X122285000Y-106470000D03*
X122285000Y-111870000D03*
X123555000Y-111870000D03*
X124825000Y-111870000D03*
X126095000Y-111870000D03*
D28*
X144660000Y-93595000D03*
X144660000Y-94865000D03*
X144660000Y-96135000D03*
X144660000Y-97405000D03*
X150060000Y-97405000D03*
X150060000Y-96135000D03*
X150060000Y-94865000D03*
X150060000Y-93595000D03*
D11*
X153290000Y-119510000D03*
D12*
X151290000Y-119510000D03*
D29*
X181500000Y-106800000D03*
D30*
X181500000Y-112500000D03*
X181500000Y-118200000D03*
X175800000Y-106800000D03*
X175800000Y-112500000D03*
X175800000Y-118200000D03*
D31*
X175470000Y-101625000D03*
X175470000Y-123375000D03*
D28*
X178075000Y-133000000D03*
X178075000Y-134000000D03*
X178075000Y-135000000D03*
X178075000Y-136000000D03*
D32*
X180600000Y-131700000D03*
X180600000Y-137300000D03*
D29*
X181500000Y-63600000D03*
D30*
X181500000Y-69300000D03*
X181500000Y-75000000D03*
X181500000Y-80700000D03*
X175800000Y-63600000D03*
X175800000Y-69300000D03*
X175800000Y-75000000D03*
X175800000Y-80700000D03*
D31*
X175470000Y-58425000D03*
X175470000Y-85875000D03*
D29*
X157700000Y-135500000D03*
D30*
X152000000Y-135500000D03*
X146300000Y-135500000D03*
X140600000Y-135500000D03*
X157700000Y-129800000D03*
X152000000Y-129800000D03*
X146300000Y-129800000D03*
X140600000Y-129800000D03*
D31*
X162875000Y-129470000D03*
X135425000Y-129470000D03*
D29*
X104300000Y-75900000D03*
D30*
X104300000Y-70200000D03*
X110000000Y-75900000D03*
X110000000Y-70200000D03*
D31*
X110330000Y-81075000D03*
X110330000Y-65025000D03*
D29*
X104300000Y-96600000D03*
D30*
X104300000Y-90900000D03*
X110000000Y-96600000D03*
X110000000Y-90900000D03*
D31*
X110330000Y-101775000D03*
X110330000Y-85725000D03*
D29*
X104300000Y-117600000D03*
D30*
X104300000Y-111900000D03*
X110000000Y-117600000D03*
X110000000Y-111900000D03*
D31*
X110330000Y-122775000D03*
X110330000Y-106725000D03*
D29*
X143300000Y-55300000D03*
D30*
X149000000Y-55300000D03*
X154700000Y-55300000D03*
X160400000Y-55300000D03*
X143300000Y-61000000D03*
X149000000Y-61000000D03*
X154700000Y-61000000D03*
X160400000Y-61000000D03*
D31*
X138125000Y-61330000D03*
X165575000Y-61330000D03*
D33*
G36*
X132275788Y-127046050D02*
X132370413Y-128465428D01*
X131402950Y-129916622D01*
X128014433Y-133006153D01*
X127984663Y-133046837D01*
X127973038Y-133103097D01*
X128071855Y-137154585D01*
X125842456Y-139771705D01*
X107749474Y-139374057D01*
X105138063Y-137052803D01*
X105411964Y-135591998D01*
X106324460Y-135227000D01*
X107147394Y-135227000D01*
X108610197Y-136689803D01*
X108652211Y-136717666D01*
X108700000Y-136727000D01*
X124800000Y-136727000D01*
X124849410Y-136716994D01*
X124891035Y-136688553D01*
X124918315Y-136646159D01*
X124926179Y-136614420D01*
X125326179Y-133114420D01*
X125326753Y-133107922D01*
X125423714Y-131556552D01*
X130559731Y-126519305D01*
X131744074Y-126337098D01*
X132275788Y-127046050D01*
X132275788Y-127046050D01*
G37*
X132275788Y-127046050D02*
X132370413Y-128465428D01*
X131402950Y-129916622D01*
X128014433Y-133006153D01*
X127984663Y-133046837D01*
X127973038Y-133103097D01*
X128071855Y-137154585D01*
X125842456Y-139771705D01*
X107749474Y-139374057D01*
X105138063Y-137052803D01*
X105411964Y-135591998D01*
X106324460Y-135227000D01*
X107147394Y-135227000D01*
X108610197Y-136689803D01*
X108652211Y-136717666D01*
X108700000Y-136727000D01*
X124800000Y-136727000D01*
X124849410Y-136716994D01*
X124891035Y-136688553D01*
X124918315Y-136646159D01*
X124926179Y-136614420D01*
X125326179Y-133114420D01*
X125326753Y-133107922D01*
X125423714Y-131556552D01*
X130559731Y-126519305D01*
X131744074Y-126337098D01*
X132275788Y-127046050D01*
G36*
X127970764Y-119133468D02*
X127676115Y-124044279D01*
X119810197Y-131910197D01*
X119782334Y-131952211D01*
X119773247Y-131992078D01*
X119598288Y-134791425D01*
X119009428Y-133831802D01*
X118975057Y-133794922D01*
X118929046Y-133774319D01*
X118878645Y-133773241D01*
X118831795Y-133791856D01*
X118795878Y-133827233D01*
X118776555Y-133873795D01*
X118776869Y-133924207D01*
X118789058Y-133957866D01*
X119488598Y-135273000D01*
X116927000Y-135273000D01*
X116927000Y-131244548D01*
X117151260Y-130964223D01*
X117174313Y-130919390D01*
X117178107Y-130869120D01*
X117160788Y-130819755D01*
X124689206Y-123390395D01*
X124717347Y-123348567D01*
X124726019Y-123315752D01*
X125126019Y-120115752D01*
X125126753Y-120092078D01*
X125031998Y-118575991D01*
X125929980Y-118127000D01*
X127330284Y-118127000D01*
X127970764Y-119133468D01*
X127970764Y-119133468D01*
G37*
X127970764Y-119133468D02*
X127676115Y-124044279D01*
X119810197Y-131910197D01*
X119782334Y-131952211D01*
X119773247Y-131992078D01*
X119598288Y-134791425D01*
X119009428Y-133831802D01*
X118975057Y-133794922D01*
X118929046Y-133774319D01*
X118878645Y-133773241D01*
X118831795Y-133791856D01*
X118795878Y-133827233D01*
X118776555Y-133873795D01*
X118776869Y-133924207D01*
X118789058Y-133957866D01*
X119488598Y-135273000D01*
X116927000Y-135273000D01*
X116927000Y-131244548D01*
X117151260Y-130964223D01*
X117174313Y-130919390D01*
X117178107Y-130869120D01*
X117160788Y-130819755D01*
X124689206Y-123390395D01*
X124717347Y-123348567D01*
X124726019Y-123315752D01*
X125126019Y-120115752D01*
X125126753Y-120092078D01*
X125031998Y-118575991D01*
X125929980Y-118127000D01*
X127330284Y-118127000D01*
X127970764Y-119133468D01*
G36*
X122834578Y-105225546D02*
X123841888Y-106599150D01*
X123033742Y-107676678D01*
X119692542Y-107873219D01*
X119643805Y-107886109D01*
X119603922Y-107916945D01*
X119588982Y-107938323D01*
X119088982Y-108838323D01*
X119073000Y-108900000D01*
X119073000Y-123749245D01*
X115245526Y-127773000D01*
X106652606Y-127773000D01*
X102927000Y-124047394D01*
X102927000Y-119544440D01*
X105769347Y-119911195D01*
X105673066Y-122895905D01*
X105681474Y-122945612D01*
X105707669Y-122987201D01*
X107407669Y-124787201D01*
X107448870Y-124816253D01*
X107498133Y-124826986D01*
X114298133Y-124926986D01*
X114347684Y-124917708D01*
X114392196Y-124887344D01*
X116192196Y-122987344D01*
X116218914Y-122944593D01*
X116227000Y-122900000D01*
X116227000Y-107649655D01*
X118554433Y-105128270D01*
X122834578Y-105225546D01*
X122834578Y-105225546D01*
G37*
X122834578Y-105225546D02*
X123841888Y-106599150D01*
X123033742Y-107676678D01*
X119692542Y-107873219D01*
X119643805Y-107886109D01*
X119603922Y-107916945D01*
X119588982Y-107938323D01*
X119088982Y-108838323D01*
X119073000Y-108900000D01*
X119073000Y-123749245D01*
X115245526Y-127773000D01*
X106652606Y-127773000D01*
X102927000Y-124047394D01*
X102927000Y-119544440D01*
X105769347Y-119911195D01*
X105673066Y-122895905D01*
X105681474Y-122945612D01*
X105707669Y-122987201D01*
X107407669Y-124787201D01*
X107448870Y-124816253D01*
X107498133Y-124826986D01*
X114298133Y-124926986D01*
X114347684Y-124917708D01*
X114392196Y-124887344D01*
X116192196Y-122987344D01*
X116218914Y-122944593D01*
X116227000Y-122900000D01*
X116227000Y-107649655D01*
X118554433Y-105128270D01*
X122834578Y-105225546D01*
G36*
X132857869Y-102118417D02*
X132201206Y-103900789D01*
X131177626Y-104273000D01*
X128332909Y-104273000D01*
X127496021Y-103808062D01*
X127315261Y-103446542D01*
X127040739Y-102805990D01*
X127776200Y-101427000D01*
X127847394Y-101427000D01*
X127910197Y-101489803D01*
X127952211Y-101517666D01*
X128000000Y-101527000D01*
X130800000Y-101527000D01*
X130849410Y-101516994D01*
X130876200Y-101501600D01*
X131242333Y-101227000D01*
X132233877Y-101227000D01*
X132857869Y-102118417D01*
X132857869Y-102118417D01*
G37*
X132857869Y-102118417D02*
X132201206Y-103900789D01*
X131177626Y-104273000D01*
X128332909Y-104273000D01*
X127496021Y-103808062D01*
X127315261Y-103446542D01*
X127040739Y-102805990D01*
X127776200Y-101427000D01*
X127847394Y-101427000D01*
X127910197Y-101489803D01*
X127952211Y-101517666D01*
X128000000Y-101527000D01*
X130800000Y-101527000D01*
X130849410Y-101516994D01*
X130876200Y-101501600D01*
X131242333Y-101227000D01*
X132233877Y-101227000D01*
X132857869Y-102118417D01*
G36*
X125721251Y-95900857D02*
X126006131Y-96185737D01*
X126465154Y-96736565D01*
X126374728Y-97279121D01*
X126374276Y-97282039D01*
X126274276Y-97982039D01*
X126276024Y-98027550D01*
X126471003Y-98904953D01*
X126374276Y-99582039D01*
X126382083Y-99647167D01*
X126580699Y-100143707D01*
X126779517Y-100740161D01*
X126794330Y-100770447D01*
X126959875Y-101018765D01*
X126884895Y-101243706D01*
X126501308Y-101819086D01*
X126115164Y-102205230D01*
X125620664Y-102600830D01*
X125588331Y-102639509D01*
X125573000Y-102700000D01*
X125573000Y-102800000D01*
X125583006Y-102849410D01*
X125611447Y-102891035D01*
X125659839Y-102920483D01*
X126218501Y-103106704D01*
X126384895Y-103356294D01*
X126472334Y-103618611D01*
X126373963Y-106668094D01*
X126286408Y-106843204D01*
X126273000Y-106900000D01*
X126273000Y-107789489D01*
X126199162Y-108232517D01*
X125846521Y-108114970D01*
X125924534Y-107724907D01*
X125925724Y-107682039D01*
X125825724Y-106982039D01*
X125808831Y-106934541D01*
X125774789Y-106897357D01*
X125728963Y-106876347D01*
X125700000Y-106873000D01*
X125120610Y-106873000D01*
X124596041Y-106698144D01*
X124449019Y-106330587D01*
X124575232Y-106204374D01*
X124750829Y-106116575D01*
X125544593Y-105818914D01*
X125587344Y-105792196D01*
X125616332Y-105750951D01*
X125627000Y-105700000D01*
X125627000Y-103800000D01*
X125616994Y-103750590D01*
X125589803Y-103710197D01*
X125314676Y-103435070D01*
X125023208Y-102269198D01*
X125001517Y-102223690D01*
X124982651Y-102203574D01*
X123623964Y-101038985D01*
X123526824Y-99193325D01*
X123514236Y-99144509D01*
X123483646Y-99104437D01*
X123439877Y-99079423D01*
X123404377Y-99073075D01*
X120544267Y-98974451D01*
X119437965Y-98144723D01*
X119619611Y-97054847D01*
X120084548Y-96496922D01*
X120820553Y-96036919D01*
X121793593Y-96296396D01*
X121843913Y-96299459D01*
X121891460Y-96282704D01*
X121916119Y-96263487D01*
X121952606Y-96227000D01*
X123700000Y-96227000D01*
X123770447Y-96205670D01*
X124638452Y-95627000D01*
X125264822Y-95627000D01*
X125721251Y-95900857D01*
X125721251Y-95900857D01*
G37*
X125721251Y-95900857D02*
X126006131Y-96185737D01*
X126465154Y-96736565D01*
X126374728Y-97279121D01*
X126374276Y-97282039D01*
X126274276Y-97982039D01*
X126276024Y-98027550D01*
X126471003Y-98904953D01*
X126374276Y-99582039D01*
X126382083Y-99647167D01*
X126580699Y-100143707D01*
X126779517Y-100740161D01*
X126794330Y-100770447D01*
X126959875Y-101018765D01*
X126884895Y-101243706D01*
X126501308Y-101819086D01*
X126115164Y-102205230D01*
X125620664Y-102600830D01*
X125588331Y-102639509D01*
X125573000Y-102700000D01*
X125573000Y-102800000D01*
X125583006Y-102849410D01*
X125611447Y-102891035D01*
X125659839Y-102920483D01*
X126218501Y-103106704D01*
X126384895Y-103356294D01*
X126472334Y-103618611D01*
X126373963Y-106668094D01*
X126286408Y-106843204D01*
X126273000Y-106900000D01*
X126273000Y-107789489D01*
X126199162Y-108232517D01*
X125846521Y-108114970D01*
X125924534Y-107724907D01*
X125925724Y-107682039D01*
X125825724Y-106982039D01*
X125808831Y-106934541D01*
X125774789Y-106897357D01*
X125728963Y-106876347D01*
X125700000Y-106873000D01*
X125120610Y-106873000D01*
X124596041Y-106698144D01*
X124449019Y-106330587D01*
X124575232Y-106204374D01*
X124750829Y-106116575D01*
X125544593Y-105818914D01*
X125587344Y-105792196D01*
X125616332Y-105750951D01*
X125627000Y-105700000D01*
X125627000Y-103800000D01*
X125616994Y-103750590D01*
X125589803Y-103710197D01*
X125314676Y-103435070D01*
X125023208Y-102269198D01*
X125001517Y-102223690D01*
X124982651Y-102203574D01*
X123623964Y-101038985D01*
X123526824Y-99193325D01*
X123514236Y-99144509D01*
X123483646Y-99104437D01*
X123439877Y-99079423D01*
X123404377Y-99073075D01*
X120544267Y-98974451D01*
X119437965Y-98144723D01*
X119619611Y-97054847D01*
X120084548Y-96496922D01*
X120820553Y-96036919D01*
X121793593Y-96296396D01*
X121843913Y-96299459D01*
X121891460Y-96282704D01*
X121916119Y-96263487D01*
X121952606Y-96227000D01*
X123700000Y-96227000D01*
X123770447Y-96205670D01*
X124638452Y-95627000D01*
X125264822Y-95627000D01*
X125721251Y-95900857D01*
G36*
X123972385Y-111815636D02*
X123873075Y-114695623D01*
X123881373Y-114745349D01*
X123923800Y-114801600D01*
X125123800Y-115701600D01*
X125169332Y-115723241D01*
X125219696Y-115725463D01*
X125266956Y-115707916D01*
X125303666Y-115673364D01*
X125324042Y-115627252D01*
X125327000Y-115600000D01*
X125327000Y-115338452D01*
X125686962Y-114798509D01*
X126427241Y-114428369D01*
X128550549Y-114524883D01*
X129217349Y-115096426D01*
X129261376Y-115120984D01*
X129303174Y-115126960D01*
X133260127Y-115028036D01*
X134277872Y-115768214D01*
X134368347Y-116944394D01*
X133252943Y-117873898D01*
X128242472Y-117972142D01*
X127377970Y-117299752D01*
X127332826Y-117277316D01*
X127300000Y-117273000D01*
X125799158Y-117273000D01*
X125723208Y-116969198D01*
X125701517Y-116923690D01*
X125663830Y-116890206D01*
X125612637Y-116873630D01*
X124666818Y-116779048D01*
X123300248Y-115022030D01*
X123256796Y-114986408D01*
X123127000Y-114921510D01*
X123127000Y-111829980D01*
X123384670Y-111314640D01*
X123809035Y-111243913D01*
X123972385Y-111815636D01*
X123972385Y-111815636D01*
G37*
X123972385Y-111815636D02*
X123873075Y-114695623D01*
X123881373Y-114745349D01*
X123923800Y-114801600D01*
X125123800Y-115701600D01*
X125169332Y-115723241D01*
X125219696Y-115725463D01*
X125266956Y-115707916D01*
X125303666Y-115673364D01*
X125324042Y-115627252D01*
X125327000Y-115600000D01*
X125327000Y-115338452D01*
X125686962Y-114798509D01*
X126427241Y-114428369D01*
X128550549Y-114524883D01*
X129217349Y-115096426D01*
X129261376Y-115120984D01*
X129303174Y-115126960D01*
X133260127Y-115028036D01*
X134277872Y-115768214D01*
X134368347Y-116944394D01*
X133252943Y-117873898D01*
X128242472Y-117972142D01*
X127377970Y-117299752D01*
X127332826Y-117277316D01*
X127300000Y-117273000D01*
X125799158Y-117273000D01*
X125723208Y-116969198D01*
X125701517Y-116923690D01*
X125663830Y-116890206D01*
X125612637Y-116873630D01*
X124666818Y-116779048D01*
X123300248Y-115022030D01*
X123256796Y-114986408D01*
X123127000Y-114921510D01*
X123127000Y-111829980D01*
X123384670Y-111314640D01*
X123809035Y-111243913D01*
X123972385Y-111815636D01*
G36*
X141245286Y-112122018D02*
X143487777Y-114169510D01*
X143677886Y-114834890D01*
X143701081Y-114879650D01*
X143739863Y-114911859D01*
X143784248Y-114926019D01*
X144451034Y-115009367D01*
X144282146Y-115938248D01*
X144074923Y-116145471D01*
X143556796Y-115886408D01*
X143508128Y-115873260D01*
X143458178Y-115880084D01*
X143414819Y-115905802D01*
X143391098Y-115934659D01*
X143125076Y-116378028D01*
X141845764Y-116469408D01*
X140586142Y-115306680D01*
X140543048Y-115280518D01*
X140500000Y-115273000D01*
X139000000Y-115273000D01*
X138950590Y-115283006D01*
X138915317Y-115305354D01*
X137015317Y-117005354D01*
X136985166Y-117045758D01*
X136973000Y-117100000D01*
X136973000Y-118382394D01*
X135837942Y-118469706D01*
X135116042Y-117928281D01*
X134936855Y-116942751D01*
X135189803Y-116689803D01*
X135217666Y-116647789D01*
X135226988Y-116598246D01*
X135222114Y-116565110D01*
X135024089Y-115872022D01*
X134927000Y-115289489D01*
X134927000Y-115252606D01*
X136787173Y-113392433D01*
X137648285Y-112627000D01*
X138400000Y-112627000D01*
X138449410Y-112616994D01*
X138491035Y-112588553D01*
X138518315Y-112546159D01*
X138527000Y-112500000D01*
X138527000Y-111840816D01*
X141245286Y-112122018D01*
X141245286Y-112122018D01*
G37*
X141245286Y-112122018D02*
X143487777Y-114169510D01*
X143677886Y-114834890D01*
X143701081Y-114879650D01*
X143739863Y-114911859D01*
X143784248Y-114926019D01*
X144451034Y-115009367D01*
X144282146Y-115938248D01*
X144074923Y-116145471D01*
X143556796Y-115886408D01*
X143508128Y-115873260D01*
X143458178Y-115880084D01*
X143414819Y-115905802D01*
X143391098Y-115934659D01*
X143125076Y-116378028D01*
X141845764Y-116469408D01*
X140586142Y-115306680D01*
X140543048Y-115280518D01*
X140500000Y-115273000D01*
X139000000Y-115273000D01*
X138950590Y-115283006D01*
X138915317Y-115305354D01*
X137015317Y-117005354D01*
X136985166Y-117045758D01*
X136973000Y-117100000D01*
X136973000Y-118382394D01*
X135837942Y-118469706D01*
X135116042Y-117928281D01*
X134936855Y-116942751D01*
X135189803Y-116689803D01*
X135217666Y-116647789D01*
X135226988Y-116598246D01*
X135222114Y-116565110D01*
X135024089Y-115872022D01*
X134927000Y-115289489D01*
X134927000Y-115252606D01*
X136787173Y-113392433D01*
X137648285Y-112627000D01*
X138400000Y-112627000D01*
X138449410Y-112616994D01*
X138491035Y-112588553D01*
X138518315Y-112546159D01*
X138527000Y-112500000D01*
X138527000Y-111840816D01*
X141245286Y-112122018D01*
G36*
X182873689Y-97454627D02*
X182971409Y-105076727D01*
X179829236Y-105169144D01*
X179926982Y-99402152D01*
X179908161Y-99333440D01*
X179108161Y-98033440D01*
X179073743Y-97996603D01*
X179027706Y-97976059D01*
X179002396Y-97973023D01*
X168402396Y-97773023D01*
X168352806Y-97782095D01*
X168310652Y-97809745D01*
X168282577Y-97851617D01*
X168273000Y-97900000D01*
X168273000Y-116443677D01*
X163051039Y-121173000D01*
X158052606Y-121173000D01*
X157137864Y-120258258D01*
X157316993Y-119362613D01*
X157952606Y-118727000D01*
X158500000Y-118727000D01*
X158549410Y-118716994D01*
X158589803Y-118689803D01*
X158754190Y-118525416D01*
X162003847Y-118426942D01*
X162052931Y-118415444D01*
X162091173Y-118388411D01*
X165291173Y-115088411D01*
X165318387Y-115045973D01*
X165326998Y-115000645D01*
X165426564Y-95386158D01*
X166325338Y-95026649D01*
X180149510Y-94827740D01*
X182873689Y-97454627D01*
X182873689Y-97454627D01*
G37*
X182873689Y-97454627D02*
X182971409Y-105076727D01*
X179829236Y-105169144D01*
X179926982Y-99402152D01*
X179908161Y-99333440D01*
X179108161Y-98033440D01*
X179073743Y-97996603D01*
X179027706Y-97976059D01*
X179002396Y-97973023D01*
X168402396Y-97773023D01*
X168352806Y-97782095D01*
X168310652Y-97809745D01*
X168282577Y-97851617D01*
X168273000Y-97900000D01*
X168273000Y-116443677D01*
X163051039Y-121173000D01*
X158052606Y-121173000D01*
X157137864Y-120258258D01*
X157316993Y-119362613D01*
X157952606Y-118727000D01*
X158500000Y-118727000D01*
X158549410Y-118716994D01*
X158589803Y-118689803D01*
X158754190Y-118525416D01*
X162003847Y-118426942D01*
X162052931Y-118415444D01*
X162091173Y-118388411D01*
X165291173Y-115088411D01*
X165318387Y-115045973D01*
X165326998Y-115000645D01*
X165426564Y-95386158D01*
X166325338Y-95026649D01*
X180149510Y-94827740D01*
X182873689Y-97454627D01*
G36*
X146610197Y-117089803D02*
X146652211Y-117117666D01*
X146682039Y-117125724D01*
X147352017Y-117221435D01*
X148307589Y-117890335D01*
X148494330Y-118170447D01*
X148530063Y-118206008D01*
X148576816Y-118224866D01*
X148609740Y-118226626D01*
X149880272Y-118128893D01*
X150819768Y-118504691D01*
X151098400Y-118876200D01*
X151136051Y-118909725D01*
X151172450Y-118923976D01*
X151953196Y-119097475D01*
X151785338Y-120020690D01*
X150364822Y-120873000D01*
X149812577Y-120873000D01*
X148824907Y-120675466D01*
X148787363Y-120673630D01*
X147816182Y-120770748D01*
X146774080Y-120391802D01*
X146099702Y-119621085D01*
X145612237Y-118938633D01*
X145227000Y-117975541D01*
X145227000Y-117426067D01*
X145512138Y-116760745D01*
X145819738Y-116299344D01*
X146610197Y-117089803D01*
X146610197Y-117089803D01*
G37*
X146610197Y-117089803D02*
X146652211Y-117117666D01*
X146682039Y-117125724D01*
X147352017Y-117221435D01*
X148307589Y-117890335D01*
X148494330Y-118170447D01*
X148530063Y-118206008D01*
X148576816Y-118224866D01*
X148609740Y-118226626D01*
X149880272Y-118128893D01*
X150819768Y-118504691D01*
X151098400Y-118876200D01*
X151136051Y-118909725D01*
X151172450Y-118923976D01*
X151953196Y-119097475D01*
X151785338Y-120020690D01*
X150364822Y-120873000D01*
X149812577Y-120873000D01*
X148824907Y-120675466D01*
X148787363Y-120673630D01*
X147816182Y-120770748D01*
X146774080Y-120391802D01*
X146099702Y-119621085D01*
X145612237Y-118938633D01*
X145227000Y-117975541D01*
X145227000Y-117426067D01*
X145512138Y-116760745D01*
X145819738Y-116299344D01*
X146610197Y-117089803D01*
G36*
X145970227Y-115865707D02*
X145927000Y-115930548D01*
X145927000Y-115900000D01*
X145916994Y-115850590D01*
X145888553Y-115808965D01*
X145856796Y-115786408D01*
X145727000Y-115721510D01*
X145727000Y-114627000D01*
X145881748Y-114627000D01*
X145970227Y-115865707D01*
X145970227Y-115865707D01*
G37*
X145970227Y-115865707D02*
X145927000Y-115930548D01*
X145927000Y-115900000D01*
X145916994Y-115850590D01*
X145888553Y-115808965D01*
X145856796Y-115786408D01*
X145727000Y-115721510D01*
X145727000Y-114627000D01*
X145881748Y-114627000D01*
X145970227Y-115865707D01*
G36*
X156692387Y-111778771D02*
X157060601Y-112883414D01*
X156131840Y-114369433D01*
X154206342Y-114273158D01*
X154156494Y-114280684D01*
X154113501Y-114307011D01*
X154084138Y-114347990D01*
X154073032Y-114397165D01*
X154081932Y-114446786D01*
X154105354Y-114484683D01*
X155768378Y-116343357D01*
X155479669Y-119422917D01*
X153753212Y-120422444D01*
X152829157Y-118574333D01*
X152926677Y-117209048D01*
X152920217Y-117159051D01*
X152889803Y-117110197D01*
X152289803Y-116510197D01*
X152247789Y-116482334D01*
X152188998Y-116473477D01*
X149888998Y-116673477D01*
X149840640Y-116687726D01*
X149810197Y-116710197D01*
X149547394Y-116973000D01*
X149327000Y-116973000D01*
X149327000Y-116800000D01*
X149316994Y-116750590D01*
X149288553Y-116708965D01*
X149224907Y-116675466D01*
X148724907Y-116575466D01*
X148720879Y-116574728D01*
X148135966Y-116477243D01*
X147479285Y-116195808D01*
X147099170Y-115720664D01*
X147060491Y-115688331D01*
X147000000Y-115673000D01*
X146427000Y-115673000D01*
X146427000Y-114527000D01*
X146673000Y-114527000D01*
X146673000Y-114600000D01*
X146683006Y-114649410D01*
X146711447Y-114691035D01*
X146753841Y-114718315D01*
X146803509Y-114726952D01*
X146852623Y-114715584D01*
X146885696Y-114693730D01*
X150350426Y-111525977D01*
X155102645Y-111426972D01*
X155170447Y-111405670D01*
X155696843Y-111054739D01*
X156692387Y-111778771D01*
X156692387Y-111778771D01*
G37*
X156692387Y-111778771D02*
X157060601Y-112883414D01*
X156131840Y-114369433D01*
X154206342Y-114273158D01*
X154156494Y-114280684D01*
X154113501Y-114307011D01*
X154084138Y-114347990D01*
X154073032Y-114397165D01*
X154081932Y-114446786D01*
X154105354Y-114484683D01*
X155768378Y-116343357D01*
X155479669Y-119422917D01*
X153753212Y-120422444D01*
X152829157Y-118574333D01*
X152926677Y-117209048D01*
X152920217Y-117159051D01*
X152889803Y-117110197D01*
X152289803Y-116510197D01*
X152247789Y-116482334D01*
X152188998Y-116473477D01*
X149888998Y-116673477D01*
X149840640Y-116687726D01*
X149810197Y-116710197D01*
X149547394Y-116973000D01*
X149327000Y-116973000D01*
X149327000Y-116800000D01*
X149316994Y-116750590D01*
X149288553Y-116708965D01*
X149224907Y-116675466D01*
X148724907Y-116575466D01*
X148720879Y-116574728D01*
X148135966Y-116477243D01*
X147479285Y-116195808D01*
X147099170Y-115720664D01*
X147060491Y-115688331D01*
X147000000Y-115673000D01*
X146427000Y-115673000D01*
X146427000Y-114527000D01*
X146673000Y-114527000D01*
X146673000Y-114600000D01*
X146683006Y-114649410D01*
X146711447Y-114691035D01*
X146753841Y-114718315D01*
X146803509Y-114726952D01*
X146852623Y-114715584D01*
X146885696Y-114693730D01*
X150350426Y-111525977D01*
X155102645Y-111426972D01*
X155170447Y-111405670D01*
X155696843Y-111054739D01*
X156692387Y-111778771D01*
G36*
X143508079Y-104689809D02*
X144496656Y-106073817D01*
X144529553Y-106105670D01*
X145106798Y-106490500D01*
X145538758Y-107181636D01*
X145017626Y-107702768D01*
X143688404Y-108652212D01*
X142773569Y-108194795D01*
X141010395Y-106529574D01*
X140620483Y-105359839D01*
X140595366Y-105316129D01*
X140574923Y-105300600D01*
X140583366Y-105295808D01*
X140613592Y-105256796D01*
X141090771Y-104302438D01*
X142378419Y-103842564D01*
X143508079Y-104689809D01*
X143508079Y-104689809D01*
G37*
X143508079Y-104689809D02*
X144496656Y-106073817D01*
X144529553Y-106105670D01*
X145106798Y-106490500D01*
X145538758Y-107181636D01*
X145017626Y-107702768D01*
X143688404Y-108652212D01*
X142773569Y-108194795D01*
X141010395Y-106529574D01*
X140620483Y-105359839D01*
X140595366Y-105316129D01*
X140574923Y-105300600D01*
X140583366Y-105295808D01*
X140613592Y-105256796D01*
X141090771Y-104302438D01*
X142378419Y-103842564D01*
X143508079Y-104689809D01*
G36*
X140102398Y-105294306D02*
X137116663Y-105455698D01*
X137111980Y-105440087D01*
X137079848Y-105401241D01*
X137035134Y-105377957D01*
X136984885Y-105373903D01*
X136959839Y-105379517D01*
X136888261Y-105403376D01*
X136993446Y-105035227D01*
X140102398Y-105294306D01*
X140102398Y-105294306D01*
G37*
X140102398Y-105294306D02*
X137116663Y-105455698D01*
X137111980Y-105440087D01*
X137079848Y-105401241D01*
X137035134Y-105377957D01*
X136984885Y-105373903D01*
X136959839Y-105379517D01*
X136888261Y-105403376D01*
X136993446Y-105035227D01*
X140102398Y-105294306D01*
G36*
X147643195Y-101116146D02*
X148379845Y-101668633D01*
X148469362Y-102474286D01*
X147916133Y-103488539D01*
X147072450Y-103676024D01*
X147026387Y-103696510D01*
X146999752Y-103722030D01*
X146323360Y-104591677D01*
X145197113Y-104967092D01*
X143916814Y-104601293D01*
X143827879Y-103800875D01*
X143926019Y-103015752D01*
X143927000Y-103000000D01*
X143927000Y-102900000D01*
X143916994Y-102850590D01*
X143888553Y-102808965D01*
X143846159Y-102781685D01*
X143810547Y-102773439D01*
X141410547Y-102573439D01*
X141360476Y-102579307D01*
X141316634Y-102604192D01*
X141279517Y-102659839D01*
X141202041Y-102892268D01*
X140117409Y-103142568D01*
X140035186Y-101827000D01*
X140873000Y-101827000D01*
X140873000Y-102300000D01*
X140883006Y-102349410D01*
X140911447Y-102391035D01*
X140953841Y-102418315D01*
X141000000Y-102427000D01*
X143547394Y-102427000D01*
X143810197Y-102689803D01*
X143852211Y-102717666D01*
X143901754Y-102726988D01*
X143951022Y-102716300D01*
X143992249Y-102687287D01*
X144018941Y-102644520D01*
X144027000Y-102600000D01*
X144027000Y-102552606D01*
X144284836Y-102294770D01*
X145279336Y-101499170D01*
X145281303Y-101497564D01*
X145858985Y-101016162D01*
X146598604Y-100831258D01*
X147643195Y-101116146D01*
X147643195Y-101116146D01*
G37*
X147643195Y-101116146D02*
X148379845Y-101668633D01*
X148469362Y-102474286D01*
X147916133Y-103488539D01*
X147072450Y-103676024D01*
X147026387Y-103696510D01*
X146999752Y-103722030D01*
X146323360Y-104591677D01*
X145197113Y-104967092D01*
X143916814Y-104601293D01*
X143827879Y-103800875D01*
X143926019Y-103015752D01*
X143927000Y-103000000D01*
X143927000Y-102900000D01*
X143916994Y-102850590D01*
X143888553Y-102808965D01*
X143846159Y-102781685D01*
X143810547Y-102773439D01*
X141410547Y-102573439D01*
X141360476Y-102579307D01*
X141316634Y-102604192D01*
X141279517Y-102659839D01*
X141202041Y-102892268D01*
X140117409Y-103142568D01*
X140035186Y-101827000D01*
X140873000Y-101827000D01*
X140873000Y-102300000D01*
X140883006Y-102349410D01*
X140911447Y-102391035D01*
X140953841Y-102418315D01*
X141000000Y-102427000D01*
X143547394Y-102427000D01*
X143810197Y-102689803D01*
X143852211Y-102717666D01*
X143901754Y-102726988D01*
X143951022Y-102716300D01*
X143992249Y-102687287D01*
X144018941Y-102644520D01*
X144027000Y-102600000D01*
X144027000Y-102552606D01*
X144284836Y-102294770D01*
X145279336Y-101499170D01*
X145281303Y-101497564D01*
X145858985Y-101016162D01*
X146598604Y-100831258D01*
X147643195Y-101116146D01*
G36*
X145548827Y-95901596D02*
X145187473Y-97618028D01*
X144596003Y-97956011D01*
X143856796Y-97586408D01*
X143808128Y-97573260D01*
X143758178Y-97580084D01*
X143703574Y-97617349D01*
X143103574Y-98317349D01*
X143079016Y-98361376D01*
X143073087Y-98404700D01*
X143171037Y-101049357D01*
X142910197Y-101310197D01*
X142882334Y-101352211D01*
X142873012Y-101401754D01*
X142875446Y-101412975D01*
X142227000Y-101462856D01*
X142227000Y-101000000D01*
X142217917Y-100952833D01*
X141821116Y-99960831D01*
X141632178Y-99205077D01*
X141819739Y-98642393D01*
X142111353Y-97864757D01*
X142585772Y-97295453D01*
X143470447Y-96705670D01*
X143516054Y-96651580D01*
X143886924Y-95817123D01*
X144596436Y-95728434D01*
X145548827Y-95901596D01*
X145548827Y-95901596D01*
G37*
X145548827Y-95901596D02*
X145187473Y-97618028D01*
X144596003Y-97956011D01*
X143856796Y-97586408D01*
X143808128Y-97573260D01*
X143758178Y-97580084D01*
X143703574Y-97617349D01*
X143103574Y-98317349D01*
X143079016Y-98361376D01*
X143073087Y-98404700D01*
X143171037Y-101049357D01*
X142910197Y-101310197D01*
X142882334Y-101352211D01*
X142873012Y-101401754D01*
X142875446Y-101412975D01*
X142227000Y-101462856D01*
X142227000Y-101000000D01*
X142217917Y-100952833D01*
X141821116Y-99960831D01*
X141632178Y-99205077D01*
X141819739Y-98642393D01*
X142111353Y-97864757D01*
X142585772Y-97295453D01*
X143470447Y-96705670D01*
X143516054Y-96651580D01*
X143886924Y-95817123D01*
X144596436Y-95728434D01*
X145548827Y-95901596D01*
G36*
X120773000Y-56902222D02*
X120773000Y-71100000D01*
X120783006Y-71149410D01*
X120806028Y-71185429D01*
X123773000Y-74449098D01*
X123773000Y-76098970D01*
X122605004Y-76368507D01*
X121065499Y-75887412D01*
X118126035Y-73143912D01*
X117829798Y-56258396D01*
X120773000Y-56902222D01*
X120773000Y-56902222D01*
G37*
X120773000Y-56902222D02*
X120773000Y-71100000D01*
X120783006Y-71149410D01*
X120806028Y-71185429D01*
X123773000Y-74449098D01*
X123773000Y-76098970D01*
X122605004Y-76368507D01*
X121065499Y-75887412D01*
X118126035Y-73143912D01*
X117829798Y-56258396D01*
X120773000Y-56902222D01*
G36*
X131473449Y-63889327D02*
X131479267Y-63939403D01*
X131512799Y-63992331D01*
X135069925Y-67351839D01*
X134877529Y-70814959D01*
X133395648Y-71463281D01*
X132382558Y-71094885D01*
X131833528Y-70271341D01*
X132125272Y-68520879D01*
X132123525Y-68470496D01*
X132093320Y-68413858D01*
X130895031Y-67115712D01*
X128627000Y-64453240D01*
X128627000Y-56215634D01*
X128700470Y-55921755D01*
X132161190Y-55734689D01*
X131473449Y-63889327D01*
X131473449Y-63889327D01*
G37*
X131473449Y-63889327D02*
X131479267Y-63939403D01*
X131512799Y-63992331D01*
X135069925Y-67351839D01*
X134877529Y-70814959D01*
X133395648Y-71463281D01*
X132382558Y-71094885D01*
X131833528Y-70271341D01*
X132125272Y-68520879D01*
X132123525Y-68470496D01*
X132093320Y-68413858D01*
X130895031Y-67115712D01*
X128627000Y-64453240D01*
X128627000Y-56215634D01*
X128700470Y-55921755D01*
X132161190Y-55734689D01*
X131473449Y-63889327D01*
G36*
X140158963Y-100550775D02*
X138120092Y-102201290D01*
X138087984Y-102240156D01*
X138073000Y-102300000D01*
X138073000Y-103495885D01*
X137712114Y-103568062D01*
X137305002Y-103405217D01*
X136943898Y-102141353D01*
X137884959Y-101294398D01*
X137886861Y-101292651D01*
X139450222Y-99827000D01*
X139998124Y-99827000D01*
X140158963Y-100550775D01*
X140158963Y-100550775D01*
G37*
X140158963Y-100550775D02*
X138120092Y-102201290D01*
X138087984Y-102240156D01*
X138073000Y-102300000D01*
X138073000Y-103495885D01*
X137712114Y-103568062D01*
X137305002Y-103405217D01*
X136943898Y-102141353D01*
X137884959Y-101294398D01*
X137886861Y-101292651D01*
X139450222Y-99827000D01*
X139998124Y-99827000D01*
X140158963Y-100550775D01*
G36*
X138110197Y-109189803D02*
X138152211Y-109217666D01*
X138200000Y-109227000D01*
X141047394Y-109227000D01*
X141395626Y-109575232D01*
X141586408Y-109956796D01*
X141615626Y-109994921D01*
X142463195Y-110748316D01*
X142390011Y-111187423D01*
X141844902Y-111265296D01*
X141389803Y-110810197D01*
X141347789Y-110782334D01*
X141284718Y-110773923D01*
X137984718Y-111173923D01*
X137971443Y-111176252D01*
X136673263Y-111475832D01*
X136331782Y-111544128D01*
X136420924Y-108602452D01*
X136443204Y-108613592D01*
X136512637Y-108626370D01*
X137452752Y-108532358D01*
X138110197Y-109189803D01*
X138110197Y-109189803D01*
G37*
X138110197Y-109189803D02*
X138152211Y-109217666D01*
X138200000Y-109227000D01*
X141047394Y-109227000D01*
X141395626Y-109575232D01*
X141586408Y-109956796D01*
X141615626Y-109994921D01*
X142463195Y-110748316D01*
X142390011Y-111187423D01*
X141844902Y-111265296D01*
X141389803Y-110810197D01*
X141347789Y-110782334D01*
X141284718Y-110773923D01*
X137984718Y-111173923D01*
X137971443Y-111176252D01*
X136673263Y-111475832D01*
X136331782Y-111544128D01*
X136420924Y-108602452D01*
X136443204Y-108613592D01*
X136512637Y-108626370D01*
X137452752Y-108532358D01*
X138110197Y-109189803D01*
M02*
