M48
;DRILL file {KiCad 4.0.7} date 05/11/18 12:48:07
;FORMAT={3:3/ absolute / metric / suppress trailing zeros}
FMAT,2
METRIC,LZ
T1C0.400
T2C0.800
T3C1.000
T4C1.800
T5C3.000
%
G90
G05
M71
T1
X12143Y-10198
X1249Y-1136
X12579Y-07521
X12607Y-08516
X12619Y-1082
X1286Y-1262
X1289Y-1237
X1297Y-10276
X1304Y-0951
X1304Y-0991
X1307Y-07281
X1312Y-1278
X13289Y-09178
X13327Y-09007
X13331Y-0887
X13331Y-0983
X1346Y-0991
X13506Y-10003
X1359Y-08678
X13609Y-09266
X13646Y-09533
X13699Y-09002
X13712Y-10524
X13746Y-09834
X13836Y-07868
X13881Y-07516
X13964Y-10656
X1397Y-10016
X14035Y-07876
X14182Y-07873
X1419Y-068
X14202Y-11089
X14238Y-07527
X14238Y-09072
X14255Y-10891
X1427Y-1013
X14356Y-11712
X14402Y-0751
X1443Y-0998
X14523Y-11372
X14601Y-10916
X14627Y-08592
X14638Y-0895
X14688Y-07193
X14695Y-07772
X14708Y-10226
X1479Y-07087
X14951Y-11685
X14973Y-11011
X15011Y-08252
X1503Y-1004
X15099Y-07521
X15107Y-08424
X1519Y-0948
X15202Y-10822
X15217Y-08218
X15225Y-08965
X153Y-08321
X15339Y-07935
X1556Y-10805
X15579Y-10085
X15625Y-07746
X1564Y-1216
X1591Y-1041
X16054Y-08114
X16144Y-11561
X16155Y-07818
X16255Y-0765
X16272Y-0993
X1642Y-123
X1662Y-1315
X1677Y-1295
T2
X12299Y-11951
X12649Y-11951
X12985Y-08115
X13335Y-08115
X14495Y-08179
X14745Y-08179
X15129Y-11951
X15329Y-11951
X1563Y-08108
X1563Y-08308
X16358Y-08837
X16608Y-08837
T3
X1066Y-13152
X1066Y-1366
X1223Y-07493
X1223Y-08001
T4
X1043Y-0702
X1043Y-0759
X1043Y-0909
X1043Y-0966
X1043Y-1119
X1043Y-1176
X11Y-0702
X11Y-0759
X11Y-0909
X11Y-0966
X11Y-1119
X11Y-1176
X1406Y-1298
X1406Y-1355
X1433Y-0553
X1433Y-061
X1463Y-1298
X1463Y-1355
X149Y-0553
X149Y-061
X152Y-1298
X152Y-1355
X1547Y-0553
X1547Y-061
X1577Y-1298
X1577Y-1355
X1604Y-0553
X1604Y-061
X1758Y-0636
X1758Y-0693
X1758Y-075
X1758Y-0807
X1758Y-1068
X1758Y-1125
X1758Y-1182
X1815Y-0636
X1815Y-0693
X1815Y-075
X1815Y-0807
X1815Y-1068
X1815Y-1125
X1815Y-1182
T5
X11033Y-065025
X11033Y-081075
X11033Y-085725
X11033Y-101775
X11033Y-106725
X11033Y-122775
X135425Y-12947
X138125Y-06133
X162875Y-12947
X165575Y-06133
X17547Y-058425
X17547Y-085875
X17547Y-101625
X17547Y-123375
T0
M30
