M48
;DRILL file {KiCad 4.0.7} date 06/16/18 23:02:29
;FORMAT={3:3/ absolute / metric / suppress trailing zeros}
FMAT,2
METRIC,LZ
T1C0.400
T2C1.000
T3C1.016
T4C3.200
%
G90
G05
M71
T1
X10343Y-058
X10355Y-06169
X10694Y-06204
X10706Y-06469
X11402Y-08972
X11548Y-09111
X133Y-08875
X1335Y-092
X13364Y-08647
X1355Y-092
X1356Y-08977
X1361Y-09053
X13667Y-09126
X1385Y-092
X14121Y-03319
X14175Y-0815
X1435Y-066
X14724Y-03834
X1479Y-0402
X14898Y-02928
X14962Y-04016
X14965Y-03291
X14981Y-03839
X15025Y-069
X1515Y-08225
X1545Y-07025
X15504Y-0657
X1568Y-02883
X15758Y-0301
X16048Y-04622
X16314Y-03146
X16337Y-0373
X16394Y-05023
X16395Y-0532
X16401Y-02917
X16409Y-07515
X16493Y-02987
X16563Y-04021
X16563Y-04627
X16567Y-04948
X16571Y-05425
X16663Y-07292
X16668Y-06425
X16755Y-03783
X16756Y-04808
X168Y-08075
X16855Y-05014
X16879Y-0551
X16898Y-03065
X1695Y-03625
X1715Y-03125
X1718Y-0456
X17189Y-04412
X17225Y-028
X17225Y-04025
X17284Y-05001
X17352Y-05529
X17365Y-05127
X17475Y-03425
X17725Y-091
X1815Y-0365
X1845Y-03525
X18475Y-04775
X1855Y-036
X186Y-04825
X18625Y-04175
X18625Y-0525
X18632Y-04388
X1865Y-039
X1865Y-0565
X1869Y-0446
X18745Y-04576
X18792Y-04716
X19075Y-037
X19225Y-03975
X19275Y-0455
X193Y-057
X1935Y-04175
X19375Y-0525
X19375Y-06375
X194Y-03825
X1945Y-07675
X19497Y-04892
X19625Y-0275
X19725Y-081
X198Y-0245
X198Y-02875
X19825Y-0405
X1985Y-03197
X1985Y-05025
X19975Y-041
T2
X08879Y-09421
X09104Y-022
X09133Y-09421
X09358Y-022
X09387Y-09421
X09641Y-09421
X1019Y-02196
X10444Y-02196
X10603Y-09398
X10698Y-02196
X10857Y-09398
X10952Y-02196
X11111Y-09398
X11365Y-09398
X11619Y-09398
X1169Y-02197
X11944Y-02197
X12198Y-02197
X12452Y-02197
X12695Y-09394
X12949Y-09394
X13203Y-09394
X13432Y-02195
X13457Y-09394
X13686Y-02195
X1394Y-02195
X14194Y-02195
X14448Y-02195
X14543Y-09392
X14702Y-02195
X14797Y-09392
X14956Y-02195
X15051Y-09392
X1521Y-02195
X15305Y-09392
X16317Y-02195
X16497Y-09388
X16571Y-02195
X16751Y-09388
X16825Y-02195
X17079Y-02195
X17333Y-02195
X17587Y-02195
X17841Y-02195
X204Y-01802
X204Y-02056
X204Y-0231
X204Y-02564
X204Y-02818
X204Y-03072
X204Y-03326
X204Y-0358
X204Y-03834
X204Y-04088
X204Y-04342
X204Y-04596
X204Y-0485
X204Y-06777
X204Y-07031
X204Y-07285
X204Y-07539
X204Y-07793
X204Y-08047
X204Y-08301
X204Y-08555
X204Y-08809
X204Y-09063
X204Y-09317
X204Y-09571
X204Y-09825
T3
X100286Y-0356
X102826Y-0356
X105366Y-0356
X107906Y-0356
X10943Y-08386
X110446Y-0356
X11197Y-08386
X112986Y-0356
X11451Y-08386
X115526Y-0356
X11705Y-08386
X118066Y-0356
X11959Y-08386
X120606Y-0356
X12213Y-08386
X123146Y-0356
X12467Y-08386
X12721Y-0356
X12721Y-08386
X12975Y-0356
X13229Y-0356
X13229Y-08386
X13483Y-0356
X13483Y-08386
X13737Y-0356
X13737Y-08386
X13991Y-0356
X13991Y-08386
X14245Y-0356
X14245Y-08386
X14499Y-0356
X14499Y-08386
X145117Y-05592
X145117Y-05846
X145117Y-061
X14753Y-08386
X147657Y-05592
X147657Y-05846
X147657Y-061
X15007Y-0356
X15007Y-08386
X15261Y-0356
X15515Y-0356
X15515Y-08386
X15769Y-0356
X15769Y-08386
X16023Y-0356
X16023Y-08386
X16277Y-0356
X16277Y-08386
X16531Y-0356
X16531Y-08386
X16785Y-0356
X16785Y-08386
X17039Y-08386
X17293Y-08386
X17547Y-0356
X17547Y-03814
X17547Y-04068
X17547Y-04322
X17547Y-04576
X17547Y-0483
X17547Y-05084
X17547Y-05338
X17547Y-05592
X17547Y-05846
X17547Y-061
X17547Y-06354
X17547Y-06608
X17547Y-06862
X17547Y-07116
X17547Y-0737
X17547Y-07624
X17547Y-07878
X17801Y-0356
X17801Y-03814
X17801Y-04068
X17801Y-04322
X17801Y-04576
X17801Y-0483
X17801Y-05084
X17801Y-05338
X17801Y-05592
X17801Y-05846
X17801Y-061
X17801Y-06354
X17801Y-06608
X17801Y-06862
X17801Y-07116
X17801Y-0737
X17801Y-07624
X17801Y-07878
T4
X09546Y-08386
X09673Y-0356
X14753Y-05084
X14753Y-07878
X17166Y-0356
X17801Y-08386
T0
M30
