G04 #@! TF.FileFunction,Copper,L1,Top,Signal*
%FSLAX46Y46*%
G04 Gerber Fmt 4.6, Leading zero omitted, Abs format (unit mm)*
G04 Created by KiCad (PCBNEW 4.0.7) date 06/16/18 23:00:12*
%MOMM*%
%LPD*%
G01*
G04 APERTURE LIST*
%ADD10C,0.100000*%
%ADD11R,1.700000X1.700000*%
%ADD12O,1.700000X1.700000*%
%ADD13O,1.727200X1.727200*%
%ADD14C,0.600000*%
%ADD15C,0.250000*%
G04 APERTURE END LIST*
D10*
D11*
X204000000Y-98250000D03*
D12*
X204000000Y-95710000D03*
X204000000Y-93170000D03*
X204000000Y-90630000D03*
X204000000Y-88090000D03*
X204000000Y-85550000D03*
X204000000Y-83010000D03*
X204000000Y-80470000D03*
X204000000Y-77930000D03*
X204000000Y-75390000D03*
X204000000Y-72850000D03*
X204000000Y-70310000D03*
X204000000Y-67770000D03*
D11*
X106030000Y-93980000D03*
D12*
X108570000Y-93980000D03*
X111110000Y-93980000D03*
X113650000Y-93980000D03*
X116190000Y-93980000D03*
D11*
X204000000Y-48500000D03*
D12*
X204000000Y-45960000D03*
X204000000Y-43420000D03*
X204000000Y-40880000D03*
X204000000Y-38340000D03*
X204000000Y-35800000D03*
X204000000Y-33260000D03*
X204000000Y-30720000D03*
X204000000Y-28180000D03*
X204000000Y-25640000D03*
X204000000Y-23100000D03*
X204000000Y-20560000D03*
X204000000Y-18020000D03*
D11*
X134320000Y-21950000D03*
D12*
X136860000Y-21950000D03*
X139400000Y-21950000D03*
X141940000Y-21950000D03*
X144480000Y-21950000D03*
X147020000Y-21950000D03*
X149560000Y-21950000D03*
X152100000Y-21950000D03*
D11*
X163170000Y-21950000D03*
D12*
X165710000Y-21950000D03*
X168250000Y-21950000D03*
X170790000Y-21950000D03*
X173330000Y-21950000D03*
X175870000Y-21950000D03*
X178410000Y-21950000D03*
D11*
X145430000Y-93920000D03*
D12*
X147970000Y-93920000D03*
X150510000Y-93920000D03*
X153050000Y-93920000D03*
D11*
X134570000Y-93940000D03*
D12*
X132030000Y-93940000D03*
X129490000Y-93940000D03*
X126950000Y-93940000D03*
D13*
X145117000Y-61000000D03*
X147657000Y-61000000D03*
X147657000Y-58460000D03*
X145117000Y-58460000D03*
X147657000Y-55920000D03*
X132290000Y-83860000D03*
X127210000Y-83860000D03*
X124670000Y-83860000D03*
X122130000Y-83860000D03*
X119590000Y-83860000D03*
X117050000Y-83860000D03*
X114510000Y-83860000D03*
X111970000Y-83860000D03*
X167850000Y-35600000D03*
X165310000Y-35600000D03*
X162770000Y-35600000D03*
X160230000Y-35600000D03*
X157690000Y-35600000D03*
X155150000Y-35600000D03*
X152610000Y-35600000D03*
X150070000Y-35600000D03*
X144990000Y-35600000D03*
X142450000Y-35600000D03*
X139910000Y-35600000D03*
X137370000Y-35600000D03*
X134830000Y-35600000D03*
X132290000Y-35600000D03*
X129750000Y-35600000D03*
X127210000Y-35600000D03*
X107906000Y-35600000D03*
X123146000Y-35600000D03*
X120606000Y-35600000D03*
X118066000Y-35600000D03*
X100286000Y-35600000D03*
X102826000Y-35600000D03*
X105366000Y-35600000D03*
X110446000Y-35600000D03*
X112986000Y-35600000D03*
X115526000Y-35600000D03*
X109430000Y-83860000D03*
X134830000Y-83860000D03*
X137370000Y-83860000D03*
X139910000Y-83860000D03*
X142450000Y-83860000D03*
X144990000Y-83860000D03*
X147530000Y-83860000D03*
X150070000Y-83860000D03*
X155150000Y-83860000D03*
X157690000Y-83860000D03*
X160230000Y-83860000D03*
X162770000Y-83860000D03*
X165310000Y-83860000D03*
X167850000Y-83860000D03*
X170390000Y-83860000D03*
X172930000Y-83860000D03*
X175470000Y-35600000D03*
X178010000Y-35600000D03*
X175470000Y-38140000D03*
X178010000Y-38140000D03*
X175470000Y-40680000D03*
X178010000Y-40680000D03*
X175470000Y-43220000D03*
X178010000Y-43220000D03*
X175470000Y-45760000D03*
X178010000Y-45760000D03*
X175470000Y-48300000D03*
X178010000Y-48300000D03*
X175470000Y-50840000D03*
X178010000Y-50840000D03*
X175470000Y-53380000D03*
X178010000Y-53380000D03*
X175470000Y-55920000D03*
X178010000Y-55920000D03*
X175470000Y-58460000D03*
X178010000Y-58460000D03*
X175470000Y-61000000D03*
X178010000Y-61000000D03*
X175470000Y-63540000D03*
X178010000Y-63540000D03*
X175470000Y-66080000D03*
X178010000Y-66080000D03*
X175470000Y-68620000D03*
X178010000Y-68620000D03*
X175470000Y-71160000D03*
X178010000Y-71160000D03*
X175470000Y-73700000D03*
X178010000Y-73700000D03*
X175470000Y-76240000D03*
X178010000Y-76240000D03*
X175470000Y-78780000D03*
X178010000Y-78780000D03*
X145117000Y-55920000D03*
D11*
X101900000Y-21960000D03*
D12*
X104440000Y-21960000D03*
X106980000Y-21960000D03*
X109520000Y-21960000D03*
D11*
X116900000Y-21970000D03*
D12*
X119440000Y-21970000D03*
X121980000Y-21970000D03*
X124520000Y-21970000D03*
D11*
X91040000Y-22000000D03*
D12*
X93580000Y-22000000D03*
D11*
X164970000Y-93880000D03*
D12*
X167510000Y-93880000D03*
D11*
X88790000Y-94210000D03*
D12*
X91330000Y-94210000D03*
X93870000Y-94210000D03*
X96410000Y-94210000D03*
D14*
X103430000Y-58000000D03*
X103550000Y-61690000D03*
X106940000Y-62040000D03*
X107060000Y-64690000D03*
X114020000Y-89720000D03*
X115480000Y-91110000D03*
X133000000Y-88750000D03*
X133500000Y-92000000D03*
X135500000Y-92000000D03*
X150250000Y-69000000D03*
X151500000Y-82250000D03*
X177250000Y-91000000D03*
X174750000Y-34250000D03*
X181500000Y-36500000D03*
X185500000Y-36000000D03*
X186000000Y-48250000D03*
X186250000Y-52500000D03*
X186500000Y-56500000D03*
X193750000Y-63750000D03*
X197250000Y-81000000D03*
X194500000Y-76750000D03*
X193000000Y-57000000D03*
X186250000Y-41750000D03*
X186500000Y-39000000D03*
X138500000Y-92000000D03*
X143500000Y-66000000D03*
X154500000Y-70250000D03*
X168000000Y-80750000D03*
X172250000Y-40250000D03*
X169500000Y-36250000D03*
X184500000Y-35250000D03*
X184750000Y-47750000D03*
X192750000Y-45500000D03*
X198500000Y-50250000D03*
X193750000Y-52500000D03*
X141750000Y-81500000D03*
X172250000Y-28000000D03*
X171500000Y-31250000D03*
X194000000Y-38250000D03*
X199750000Y-41000000D03*
X148980000Y-29280000D03*
X156800000Y-28830000D03*
X164010000Y-29170000D03*
X186900000Y-44600000D03*
X198250000Y-40500000D03*
X186320000Y-43880000D03*
X198500000Y-31970000D03*
X155040000Y-65700000D03*
X166680000Y-64250000D03*
X194970000Y-48920000D03*
X198000000Y-28750000D03*
X196250000Y-27500000D03*
X164930000Y-29870000D03*
X157580000Y-30100000D03*
X149650000Y-32910000D03*
X141210000Y-33190000D03*
X193500000Y-41750000D03*
X187920000Y-47160000D03*
X187450000Y-45760000D03*
X198000000Y-24500000D03*
X190750000Y-37000000D03*
X192250000Y-39750000D03*
X171800000Y-45600000D03*
X171890000Y-44120000D03*
X149810000Y-38390000D03*
X147240000Y-38340000D03*
X147900000Y-40200000D03*
X149620000Y-40160000D03*
X172840000Y-50010000D03*
X165670000Y-49480000D03*
X160480000Y-46220000D03*
X163140000Y-31460000D03*
X168550000Y-50140000D03*
X168980000Y-30650000D03*
X167560000Y-48080000D03*
X167550000Y-37830000D03*
X168790000Y-55100000D03*
X173520000Y-55290000D03*
X173650000Y-51270000D03*
X163370000Y-37300000D03*
X163940000Y-50230000D03*
X163950000Y-53200000D03*
X164090000Y-75150000D03*
X165630000Y-40210000D03*
X165630000Y-46270000D03*
X165710000Y-54250000D03*
X166630000Y-72920000D03*
X133640000Y-86470000D03*
X135600000Y-89770000D03*
X136100000Y-90530000D03*
X136670000Y-91260000D03*
D15*
X204170000Y-45520000D02*
X203720000Y-45520000D01*
X106030000Y-93980000D02*
X106030000Y-64170000D01*
X100286000Y-54856000D02*
X100286000Y-35600000D01*
X103430000Y-58000000D02*
X100286000Y-54856000D01*
X106030000Y-64170000D02*
X103550000Y-61690000D01*
X108570000Y-93980000D02*
X108570000Y-86780000D01*
X102826000Y-37946000D02*
X102826000Y-35600000D01*
X104550000Y-39670000D02*
X102826000Y-37946000D01*
X104550000Y-59650000D02*
X104550000Y-39670000D01*
X106940000Y-62040000D02*
X104550000Y-59650000D01*
X107060000Y-85270000D02*
X107060000Y-64690000D01*
X108570000Y-86780000D02*
X107060000Y-85270000D01*
X111110000Y-93980000D02*
X111110000Y-93920000D01*
X111110000Y-93920000D02*
X119590000Y-85440000D01*
X119590000Y-85440000D02*
X119590000Y-83860000D01*
X106980000Y-21960000D02*
X109520000Y-21960000D01*
X104440000Y-21960000D02*
X106980000Y-21960000D01*
X101900000Y-21960000D02*
X104440000Y-21960000D01*
X109520000Y-21960000D02*
X109520000Y-30040000D01*
X109520000Y-30040000D02*
X111690000Y-32210000D01*
X111690000Y-32210000D02*
X111690000Y-74560000D01*
X111690000Y-74560000D02*
X119590000Y-82460000D01*
X119590000Y-82460000D02*
X119590000Y-83860000D01*
X116190000Y-93980000D02*
X116190000Y-91820000D01*
X117050000Y-86690000D02*
X117050000Y-83860000D01*
X114020000Y-89720000D02*
X117050000Y-86690000D01*
X116190000Y-91820000D02*
X115480000Y-91110000D01*
X91040000Y-22000000D02*
X93580000Y-22000000D01*
X93580000Y-22000000D02*
X93580000Y-49990000D01*
X117050000Y-82040000D02*
X117050000Y-83860000D01*
X110410000Y-75400000D02*
X117050000Y-82040000D01*
X110410000Y-66820000D02*
X110410000Y-75400000D01*
X93580000Y-49990000D02*
X110410000Y-66820000D01*
X204000000Y-93170000D02*
X175330000Y-93170000D01*
X133000000Y-91500000D02*
X133000000Y-88750000D01*
X133500000Y-92000000D02*
X133000000Y-91500000D01*
X136500000Y-92000000D02*
X135500000Y-92000000D01*
X136750000Y-92000000D02*
X136500000Y-92000000D01*
X142250000Y-97500000D02*
X136750000Y-92000000D01*
X171000000Y-97500000D02*
X142250000Y-97500000D01*
X175330000Y-93170000D02*
X171000000Y-97500000D01*
X204000000Y-90630000D02*
X177620000Y-90630000D01*
X150250000Y-81000000D02*
X150250000Y-69000000D01*
X151500000Y-82250000D02*
X150250000Y-81000000D01*
X177620000Y-90630000D02*
X177250000Y-91000000D01*
X204000000Y-88090000D02*
X202590000Y-88090000D01*
X174000000Y-36670000D02*
X175470000Y-38140000D01*
X174000000Y-35000000D02*
X174000000Y-36670000D01*
X174750000Y-34250000D02*
X174000000Y-35000000D01*
X185000000Y-36500000D02*
X181500000Y-36500000D01*
X185500000Y-36000000D02*
X185000000Y-36500000D01*
X186000000Y-52250000D02*
X186000000Y-48250000D01*
X186250000Y-52500000D02*
X186000000Y-52250000D01*
X193750000Y-63750000D02*
X186500000Y-56500000D01*
X197250000Y-82750000D02*
X197250000Y-81000000D01*
X202590000Y-88090000D02*
X197250000Y-82750000D01*
X175470000Y-38140000D02*
X175470000Y-38290000D01*
X204000000Y-85550000D02*
X203300000Y-85550000D01*
X203300000Y-85550000D02*
X194500000Y-76750000D01*
X193000000Y-57000000D02*
X191500000Y-55500000D01*
X191500000Y-55500000D02*
X191500000Y-47000000D01*
X191500000Y-47000000D02*
X186250000Y-41750000D01*
X186500000Y-39000000D02*
X185640000Y-38140000D01*
X185640000Y-38140000D02*
X178010000Y-38140000D01*
X204000000Y-75390000D02*
X190860000Y-75390000D01*
X143250000Y-96750000D02*
X138500000Y-92000000D01*
X169750000Y-96750000D02*
X143250000Y-96750000D01*
X182250000Y-84250000D02*
X169750000Y-96750000D01*
X182250000Y-84000000D02*
X182250000Y-84250000D01*
X190860000Y-75390000D02*
X182250000Y-84000000D01*
X204000000Y-72850000D02*
X187650000Y-72850000D01*
X150250000Y-66000000D02*
X143500000Y-66000000D01*
X154500000Y-70250000D02*
X150250000Y-66000000D01*
X179750000Y-80750000D02*
X168000000Y-80750000D01*
X187650000Y-72850000D02*
X179750000Y-80750000D01*
X204000000Y-70310000D02*
X202310000Y-70310000D01*
X172680000Y-40680000D02*
X175470000Y-40680000D01*
X172250000Y-40250000D02*
X172680000Y-40680000D01*
X169250000Y-36000000D02*
X169500000Y-36250000D01*
X169250000Y-33750000D02*
X169250000Y-36000000D01*
X170750000Y-32250000D02*
X169250000Y-33750000D01*
X177500000Y-32250000D02*
X170750000Y-32250000D01*
X180250000Y-35000000D02*
X177500000Y-32250000D01*
X184250000Y-35000000D02*
X180250000Y-35000000D01*
X184500000Y-35250000D02*
X184250000Y-35000000D01*
X184750000Y-52750000D02*
X184750000Y-47750000D01*
X202310000Y-70310000D02*
X184750000Y-52750000D01*
X204000000Y-67770000D02*
X204000000Y-55750000D01*
X187930000Y-40680000D02*
X178010000Y-40680000D01*
X192750000Y-45500000D02*
X187930000Y-40680000D01*
X204000000Y-55750000D02*
X198500000Y-50250000D01*
X202830000Y-43420000D02*
X193750000Y-52500000D01*
X204000000Y-43420000D02*
X202830000Y-43420000D01*
X139480000Y-81750000D02*
X137370000Y-83860000D01*
X141500000Y-81750000D02*
X139480000Y-81750000D01*
X141750000Y-81500000D02*
X141500000Y-81750000D01*
X204000000Y-40880000D02*
X199870000Y-40880000D01*
X166430000Y-26750000D02*
X164010000Y-29170000D01*
X171000000Y-26750000D02*
X166430000Y-26750000D01*
X172250000Y-28000000D02*
X171000000Y-26750000D01*
X179250000Y-31250000D02*
X171500000Y-31250000D01*
X182250000Y-34250000D02*
X179250000Y-31250000D01*
X190000000Y-34250000D02*
X182250000Y-34250000D01*
X194000000Y-38250000D02*
X190000000Y-34250000D01*
X199870000Y-40880000D02*
X199750000Y-41000000D01*
X156350000Y-29280000D02*
X148980000Y-29280000D01*
X156800000Y-28830000D02*
X156350000Y-29280000D01*
X165440000Y-27740000D02*
X164010000Y-29170000D01*
X204000000Y-38340000D02*
X200410000Y-38340000D01*
X186820000Y-44520000D02*
X186900000Y-44600000D01*
X176480000Y-44520000D02*
X186820000Y-44520000D01*
X176480000Y-44520000D02*
X175470000Y-43510000D01*
X200410000Y-38340000D02*
X198250000Y-40500000D01*
X175470000Y-43220000D02*
X175470000Y-43510000D01*
X204000000Y-35800000D02*
X202330000Y-35800000D01*
X184790000Y-43220000D02*
X185450000Y-43880000D01*
X185450000Y-43880000D02*
X186320000Y-43880000D01*
X184790000Y-43220000D02*
X178010000Y-43220000D01*
X202330000Y-35800000D02*
X198500000Y-31970000D01*
X204000000Y-25640000D02*
X202860000Y-25640000D01*
X197250000Y-44040000D02*
X195410000Y-45880000D01*
X197250000Y-31250000D02*
X197250000Y-44040000D01*
X202860000Y-25640000D02*
X197250000Y-31250000D01*
X165230000Y-65700000D02*
X155040000Y-65700000D01*
X166680000Y-64250000D02*
X165230000Y-65700000D01*
X194970000Y-46320000D02*
X194970000Y-48920000D01*
X195410000Y-45880000D02*
X194970000Y-46320000D01*
X204000000Y-23100000D02*
X203650000Y-23100000D01*
X203650000Y-23100000D02*
X198000000Y-28750000D01*
X196250000Y-27500000D02*
X195750000Y-27000000D01*
X195750000Y-27000000D02*
X189500000Y-27000000D01*
X189500000Y-27000000D02*
X186630000Y-29870000D01*
X186630000Y-29870000D02*
X185490000Y-29870000D01*
X185490000Y-29870000D02*
X164930000Y-29870000D01*
X157580000Y-30100000D02*
X154770000Y-32910000D01*
X154770000Y-32910000D02*
X149650000Y-32910000D01*
X141210000Y-33190000D02*
X140980000Y-33420000D01*
X140980000Y-33420000D02*
X134470000Y-33420000D01*
X134470000Y-33420000D02*
X132290000Y-35600000D01*
X204000000Y-20560000D02*
X204000000Y-21000000D01*
X204000000Y-21000000D02*
X196250000Y-28750000D01*
X196250000Y-28750000D02*
X196250000Y-39000000D01*
X196250000Y-39000000D02*
X193500000Y-41750000D01*
X175470000Y-45760000D02*
X176230000Y-45760000D01*
X176230000Y-45760000D02*
X177520000Y-47050000D01*
X177520000Y-47050000D02*
X187810000Y-47050000D01*
X187810000Y-47050000D02*
X187920000Y-47160000D01*
X178010000Y-45760000D02*
X187450000Y-45760000D01*
X202500000Y-19520000D02*
X204000000Y-18020000D01*
X202500000Y-20000000D02*
X202500000Y-19520000D01*
X198000000Y-24500000D02*
X202500000Y-20000000D01*
X190750000Y-38250000D02*
X190750000Y-37000000D01*
X192250000Y-39750000D02*
X190750000Y-38250000D01*
X134320000Y-21950000D02*
X134320000Y-23140000D01*
X174500000Y-48300000D02*
X175470000Y-48300000D01*
X171800000Y-45600000D02*
X174500000Y-48300000D01*
X155540000Y-44120000D02*
X171890000Y-44120000D01*
X149810000Y-38390000D02*
X155540000Y-44120000D01*
X146940000Y-38040000D02*
X147240000Y-38340000D01*
X146940000Y-32150000D02*
X146940000Y-38040000D01*
X140160000Y-25370000D02*
X146940000Y-32150000D01*
X136550000Y-25370000D02*
X140160000Y-25370000D01*
X134320000Y-23140000D02*
X136550000Y-25370000D01*
X139400000Y-21950000D02*
X139400000Y-22610000D01*
X139400000Y-22610000D02*
X147900000Y-31110000D01*
X147900000Y-31110000D02*
X147900000Y-40200000D01*
X149620000Y-40160000D02*
X154300000Y-44840000D01*
X154300000Y-44840000D02*
X172290000Y-44840000D01*
X172290000Y-44840000D02*
X174490000Y-47040000D01*
X174490000Y-47040000D02*
X176750000Y-47040000D01*
X176750000Y-47040000D02*
X178010000Y-48300000D01*
X144480000Y-21950000D02*
X144480000Y-26330000D01*
X172260000Y-50640000D02*
X175270000Y-50640000D01*
X172030000Y-50410000D02*
X172260000Y-50640000D01*
X172030000Y-50240000D02*
X172030000Y-50410000D01*
X167300000Y-45510000D02*
X172030000Y-50240000D01*
X151500000Y-45510000D02*
X167300000Y-45510000D01*
X148620000Y-42630000D02*
X151500000Y-45510000D01*
X148620000Y-30470000D02*
X148620000Y-42630000D01*
X144480000Y-26330000D02*
X148620000Y-30470000D01*
X175270000Y-50640000D02*
X175470000Y-50840000D01*
X176780000Y-49610000D02*
X178010000Y-50840000D01*
X173240000Y-49610000D02*
X176780000Y-49610000D01*
X172840000Y-50010000D02*
X173240000Y-49610000D01*
X163740000Y-49480000D02*
X165670000Y-49480000D01*
X160480000Y-46220000D02*
X163740000Y-49480000D01*
X163170000Y-21950000D02*
X163170000Y-31430000D01*
X163170000Y-31430000D02*
X163140000Y-31460000D01*
X170700000Y-55920000D02*
X175470000Y-55920000D01*
X169740000Y-54960000D02*
X170700000Y-55920000D01*
X169740000Y-51330000D02*
X169740000Y-54960000D01*
X168550000Y-50140000D02*
X169740000Y-51330000D01*
X166530000Y-34110000D02*
X166530000Y-37570000D01*
X168980000Y-30650000D02*
X168250000Y-31380000D01*
X168250000Y-31380000D02*
X168250000Y-32390000D01*
X168250000Y-32390000D02*
X166530000Y-34110000D01*
X168290000Y-55100000D02*
X168790000Y-55100000D01*
X167560000Y-54370000D02*
X168290000Y-55100000D01*
X167560000Y-48080000D02*
X167560000Y-54370000D01*
X166790000Y-37830000D02*
X167550000Y-37830000D01*
X166530000Y-37570000D02*
X166790000Y-37830000D01*
X173520000Y-51400000D02*
X173520000Y-55290000D01*
X173650000Y-51270000D02*
X173520000Y-51400000D01*
X145430000Y-93920000D02*
X145430000Y-90910000D01*
X173810000Y-61000000D02*
X175470000Y-61000000D01*
X151520000Y-83290000D02*
X173810000Y-61000000D01*
X151520000Y-84820000D02*
X151520000Y-83290000D01*
X145430000Y-90910000D02*
X151520000Y-84820000D01*
X147970000Y-93920000D02*
X147970000Y-90720000D01*
X176750000Y-62260000D02*
X178010000Y-61000000D01*
X173670000Y-62260000D02*
X176750000Y-62260000D01*
X152510000Y-83420000D02*
X173670000Y-62260000D01*
X152510000Y-86180000D02*
X152510000Y-83420000D01*
X147970000Y-90720000D02*
X152510000Y-86180000D01*
X150510000Y-93920000D02*
X150510000Y-89300000D01*
X173360000Y-63590000D02*
X175420000Y-63590000D01*
X153240000Y-83710000D02*
X173360000Y-63590000D01*
X153240000Y-86570000D02*
X153240000Y-83710000D01*
X150510000Y-89300000D02*
X153240000Y-86570000D01*
X175420000Y-63590000D02*
X175470000Y-63540000D01*
X153050000Y-93920000D02*
X153050000Y-88880000D01*
X176730000Y-64820000D02*
X178010000Y-63540000D01*
X173480000Y-64820000D02*
X176730000Y-64820000D01*
X156440000Y-81860000D02*
X173480000Y-64820000D01*
X156440000Y-85490000D02*
X156440000Y-81860000D01*
X153050000Y-88880000D02*
X156440000Y-85490000D01*
X134570000Y-93940000D02*
X134570000Y-88760000D01*
X129750000Y-37290000D02*
X129750000Y-35600000D01*
X130940000Y-38480000D02*
X129750000Y-37290000D01*
X130940000Y-85130000D02*
X130940000Y-38480000D01*
X134570000Y-88760000D02*
X130940000Y-85130000D01*
X132030000Y-93940000D02*
X132030000Y-87380000D01*
X127210000Y-38640000D02*
X127210000Y-35600000D01*
X130300000Y-41730000D02*
X127210000Y-38640000D01*
X130300000Y-85650000D02*
X130300000Y-41730000D01*
X132030000Y-87380000D02*
X130300000Y-85650000D01*
X129490000Y-93940000D02*
X129490000Y-76240000D01*
X123146000Y-39624000D02*
X123146000Y-35600000D01*
X121370000Y-41400000D02*
X123146000Y-39624000D01*
X121370000Y-68120000D02*
X121370000Y-41400000D01*
X129490000Y-76240000D02*
X121370000Y-68120000D01*
X126950000Y-93940000D02*
X126950000Y-87070000D01*
X115700000Y-66720000D02*
X115700000Y-35774000D01*
X128640000Y-79660000D02*
X115700000Y-66720000D01*
X128640000Y-85380000D02*
X128640000Y-79660000D01*
X126950000Y-87070000D02*
X128640000Y-85380000D01*
X115700000Y-35774000D02*
X115526000Y-35600000D01*
X164970000Y-93880000D02*
X164970000Y-85890000D01*
X163370000Y-37300000D02*
X165070000Y-35600000D01*
X163940000Y-53190000D02*
X163940000Y-50230000D01*
X163950000Y-53200000D02*
X163940000Y-53190000D01*
X164070000Y-75170000D02*
X164090000Y-75150000D01*
X164070000Y-84990000D02*
X164070000Y-75170000D01*
X164970000Y-85890000D02*
X164070000Y-84990000D01*
X165070000Y-35600000D02*
X165310000Y-35600000D01*
X167510000Y-93880000D02*
X167510000Y-85860000D01*
X169090000Y-36840000D02*
X167850000Y-35600000D01*
X169090000Y-38480000D02*
X169090000Y-36840000D01*
X167840000Y-39730000D02*
X169090000Y-38480000D01*
X166110000Y-39730000D02*
X167840000Y-39730000D01*
X165630000Y-40210000D02*
X166110000Y-39730000D01*
X166750000Y-47390000D02*
X165630000Y-46270000D01*
X166750000Y-53210000D02*
X166750000Y-47390000D01*
X165710000Y-54250000D02*
X166750000Y-53210000D01*
X166560000Y-72990000D02*
X166630000Y-72920000D01*
X166560000Y-84910000D02*
X166560000Y-72990000D01*
X167510000Y-85860000D02*
X166560000Y-84910000D01*
X142450000Y-85730000D02*
X142450000Y-83860000D01*
X141500000Y-86680000D02*
X142450000Y-85730000D01*
X133850000Y-86680000D02*
X141500000Y-86680000D01*
X133640000Y-86470000D02*
X133850000Y-86680000D01*
X135600000Y-89770000D02*
X137670000Y-87700000D01*
X137670000Y-87700000D02*
X144150000Y-87700000D01*
X144150000Y-87700000D02*
X144990000Y-86860000D01*
X144990000Y-86860000D02*
X144990000Y-83860000D01*
X147530000Y-86260000D02*
X147530000Y-83860000D01*
X145400000Y-88390000D02*
X147530000Y-86260000D01*
X138240000Y-88390000D02*
X145400000Y-88390000D01*
X136100000Y-90530000D02*
X138240000Y-88390000D01*
X150070000Y-85010000D02*
X150070000Y-83860000D01*
X145930000Y-89150000D02*
X150070000Y-85010000D01*
X138780000Y-89150000D02*
X145930000Y-89150000D01*
X136670000Y-91260000D02*
X138780000Y-89150000D01*
M02*
