G04 #@! TF.FileFunction,Soldermask,Bot*
%FSLAX46Y46*%
G04 Gerber Fmt 4.6, Leading zero omitted, Abs format (unit mm)*
G04 Created by KiCad (PCBNEW 4.0.7) date 06/16/18 23:00:12*
%MOMM*%
%LPD*%
G01*
G04 APERTURE LIST*
%ADD10C,0.100000*%
%ADD11R,2.100000X2.100000*%
%ADD12O,2.100000X2.100000*%
%ADD13O,2.127200X2.127200*%
%ADD14C,3.600000*%
G04 APERTURE END LIST*
D10*
D11*
X204000000Y-98250000D03*
D12*
X204000000Y-95710000D03*
X204000000Y-93170000D03*
X204000000Y-90630000D03*
X204000000Y-88090000D03*
X204000000Y-85550000D03*
X204000000Y-83010000D03*
X204000000Y-80470000D03*
X204000000Y-77930000D03*
X204000000Y-75390000D03*
X204000000Y-72850000D03*
X204000000Y-70310000D03*
X204000000Y-67770000D03*
D11*
X106030000Y-93980000D03*
D12*
X108570000Y-93980000D03*
X111110000Y-93980000D03*
X113650000Y-93980000D03*
X116190000Y-93980000D03*
D11*
X204000000Y-48500000D03*
D12*
X204000000Y-45960000D03*
X204000000Y-43420000D03*
X204000000Y-40880000D03*
X204000000Y-38340000D03*
X204000000Y-35800000D03*
X204000000Y-33260000D03*
X204000000Y-30720000D03*
X204000000Y-28180000D03*
X204000000Y-25640000D03*
X204000000Y-23100000D03*
X204000000Y-20560000D03*
X204000000Y-18020000D03*
D11*
X134320000Y-21950000D03*
D12*
X136860000Y-21950000D03*
X139400000Y-21950000D03*
X141940000Y-21950000D03*
X144480000Y-21950000D03*
X147020000Y-21950000D03*
X149560000Y-21950000D03*
X152100000Y-21950000D03*
D11*
X163170000Y-21950000D03*
D12*
X165710000Y-21950000D03*
X168250000Y-21950000D03*
X170790000Y-21950000D03*
X173330000Y-21950000D03*
X175870000Y-21950000D03*
X178410000Y-21950000D03*
D11*
X145430000Y-93920000D03*
D12*
X147970000Y-93920000D03*
X150510000Y-93920000D03*
X153050000Y-93920000D03*
D11*
X134570000Y-93940000D03*
D12*
X132030000Y-93940000D03*
X129490000Y-93940000D03*
X126950000Y-93940000D03*
D13*
X145117000Y-61000000D03*
X147657000Y-61000000D03*
X147657000Y-58460000D03*
X145117000Y-58460000D03*
X147657000Y-55920000D03*
X132290000Y-83860000D03*
X127210000Y-83860000D03*
X124670000Y-83860000D03*
X122130000Y-83860000D03*
X119590000Y-83860000D03*
X117050000Y-83860000D03*
X114510000Y-83860000D03*
X111970000Y-83860000D03*
X167850000Y-35600000D03*
X165310000Y-35600000D03*
X162770000Y-35600000D03*
X160230000Y-35600000D03*
X157690000Y-35600000D03*
X155150000Y-35600000D03*
X152610000Y-35600000D03*
X150070000Y-35600000D03*
X144990000Y-35600000D03*
X142450000Y-35600000D03*
X139910000Y-35600000D03*
X137370000Y-35600000D03*
X134830000Y-35600000D03*
X132290000Y-35600000D03*
X129750000Y-35600000D03*
X127210000Y-35600000D03*
X107906000Y-35600000D03*
X123146000Y-35600000D03*
X120606000Y-35600000D03*
X118066000Y-35600000D03*
D14*
X147530000Y-78780000D03*
X147530000Y-50840000D03*
X171660000Y-35600000D03*
X96730000Y-35600000D03*
X178010000Y-83860000D03*
X95460000Y-83860000D03*
D13*
X100286000Y-35600000D03*
X102826000Y-35600000D03*
X105366000Y-35600000D03*
X110446000Y-35600000D03*
X112986000Y-35600000D03*
X115526000Y-35600000D03*
X109430000Y-83860000D03*
X134830000Y-83860000D03*
X137370000Y-83860000D03*
X139910000Y-83860000D03*
X142450000Y-83860000D03*
X144990000Y-83860000D03*
X147530000Y-83860000D03*
X150070000Y-83860000D03*
X155150000Y-83860000D03*
X157690000Y-83860000D03*
X160230000Y-83860000D03*
X162770000Y-83860000D03*
X165310000Y-83860000D03*
X167850000Y-83860000D03*
X170390000Y-83860000D03*
X172930000Y-83860000D03*
X175470000Y-35600000D03*
X178010000Y-35600000D03*
X175470000Y-38140000D03*
X178010000Y-38140000D03*
X175470000Y-40680000D03*
X178010000Y-40680000D03*
X175470000Y-43220000D03*
X178010000Y-43220000D03*
X175470000Y-45760000D03*
X178010000Y-45760000D03*
X175470000Y-48300000D03*
X178010000Y-48300000D03*
X175470000Y-50840000D03*
X178010000Y-50840000D03*
X175470000Y-53380000D03*
X178010000Y-53380000D03*
X175470000Y-55920000D03*
X178010000Y-55920000D03*
X175470000Y-58460000D03*
X178010000Y-58460000D03*
X175470000Y-61000000D03*
X178010000Y-61000000D03*
X175470000Y-63540000D03*
X178010000Y-63540000D03*
X175470000Y-66080000D03*
X178010000Y-66080000D03*
X175470000Y-68620000D03*
X178010000Y-68620000D03*
X175470000Y-71160000D03*
X178010000Y-71160000D03*
X175470000Y-73700000D03*
X178010000Y-73700000D03*
X175470000Y-76240000D03*
X178010000Y-76240000D03*
X175470000Y-78780000D03*
X178010000Y-78780000D03*
X145117000Y-55920000D03*
D11*
X101900000Y-21960000D03*
D12*
X104440000Y-21960000D03*
X106980000Y-21960000D03*
X109520000Y-21960000D03*
D11*
X116900000Y-21970000D03*
D12*
X119440000Y-21970000D03*
X121980000Y-21970000D03*
X124520000Y-21970000D03*
D11*
X91040000Y-22000000D03*
D12*
X93580000Y-22000000D03*
D11*
X164970000Y-93880000D03*
D12*
X167510000Y-93880000D03*
D11*
X88790000Y-94210000D03*
D12*
X91330000Y-94210000D03*
X93870000Y-94210000D03*
X96410000Y-94210000D03*
M02*
