%FSLAX43Y43*%
%MOMM*%
G71*
G01*
G75*
%ADD10C,0.250*%
%ADD11C,0.254*%
%ADD12C,0.100*%
%ADD13C,1.500*%
%ADD14C,1.500*%
%ADD15C,1.400*%
%ADD16C,1.778*%
%ADD17C,1.600*%
%ADD18C,1.000*%
%ADD19C,2.000*%
%ADD20C,0.200*%
%ADD21C,0.127*%
%ADD22C,0.500*%
D10*
X171025Y101600D02*
G03*
X171025Y101600I-125J0D01*
G01*
Y80600D02*
G03*
X171025Y80600I-125J0D01*
G01*
Y60300D02*
G03*
X171025Y60300I-125J0D01*
G01*
Y39500D02*
G03*
X171025Y39500I-125J0D01*
G01*
D11*
X156576Y93400D02*
X158100D01*
Y94162D01*
X157846Y94416D01*
X157592D01*
X157338Y94162D01*
Y93400D01*
Y94162D01*
X157084Y94416D01*
X156830D01*
X156576Y94162D01*
Y93400D01*
X158100Y94924D02*
Y95431D01*
Y95177D01*
X156576D01*
X156830Y94924D01*
X251600Y24624D02*
Y23608D01*
X252108Y23100D01*
X252616Y23608D01*
Y24624D01*
X253124D02*
Y23100D01*
X253885D01*
X254139Y23354D01*
Y24370D01*
X253885Y24624D01*
X253124D01*
X257186Y23100D02*
X256171D01*
X257186Y24116D01*
Y24370D01*
X256932Y24624D01*
X256424D01*
X256171Y24370D01*
X257694Y24624D02*
Y23100D01*
X258456D01*
X258710Y23354D01*
Y23608D01*
X258456Y23862D01*
X257694D01*
X258456D01*
X258710Y24116D01*
Y24370D01*
X258456Y24624D01*
X257694D01*
X249800Y32824D02*
Y31808D01*
X250308Y31300D01*
X250816Y31808D01*
Y32824D01*
X251324D02*
Y31300D01*
X252085D01*
X252339Y31554D01*
Y32570D01*
X252085Y32824D01*
X251324D01*
X255386Y31300D02*
X254371D01*
X255386Y32316D01*
Y32570D01*
X255132Y32824D01*
X254624D01*
X254371Y32570D01*
X255894Y31300D02*
Y32316D01*
X256402Y32824D01*
X256910Y32316D01*
Y31300D01*
Y32062D01*
X255894D01*
X250200Y86624D02*
Y85608D01*
X250708Y85100D01*
X251216Y85608D01*
Y86624D01*
X251724D02*
Y85100D01*
X252485D01*
X252739Y85354D01*
Y86370D01*
X252485Y86624D01*
X251724D01*
X254771Y85100D02*
X255278D01*
X255024D01*
Y86624D01*
X254771Y86370D01*
X256040Y85100D02*
Y86116D01*
X256548Y86624D01*
X257056Y86116D01*
Y85100D01*
Y85862D01*
X256040D01*
X249500Y94124D02*
Y93108D01*
X250008Y92600D01*
X250516Y93108D01*
Y94124D01*
X251024D02*
Y92600D01*
X251785D01*
X252039Y92854D01*
Y93870D01*
X251785Y94124D01*
X251024D01*
X254071Y92600D02*
X254578D01*
X254324D01*
Y94124D01*
X254071Y93870D01*
X255340Y94124D02*
Y92600D01*
X256102D01*
X256356Y92854D01*
Y93108D01*
X256102Y93362D01*
X255340D01*
X256102D01*
X256356Y93616D01*
Y93870D01*
X256102Y94124D01*
X255340D01*
X298900Y61000D02*
X299408D01*
X299154D01*
Y62524D01*
X298900Y62270D01*
X301185Y61000D02*
X300170D01*
X301185Y62016D01*
Y62270D01*
X300931Y62524D01*
X300424D01*
X300170Y62270D01*
X301693Y62524D02*
Y61508D01*
X302201Y61000D01*
X302709Y61508D01*
Y62524D01*
X304740Y61000D02*
X305248D01*
X304994D01*
Y62524D01*
X304740Y62270D01*
X306010Y62524D02*
Y61000D01*
X306771D01*
X307025Y61254D01*
Y62270D01*
X306771Y62524D01*
X306010D01*
X164100Y15400D02*
Y16924D01*
X164862D01*
X165116Y16670D01*
Y16162D01*
X164862Y15908D01*
X164100D01*
X166639Y16924D02*
X165624D01*
Y16162D01*
X166131D01*
X165624D01*
Y15400D01*
X168163Y16924D02*
X167147D01*
Y15400D01*
X168163D01*
X167147Y16162D02*
X167655D01*
X168671Y16924D02*
X169686D01*
X169178D01*
Y15400D01*
X171210Y16924D02*
X170194D01*
Y16162D01*
X170702Y16416D01*
X170956D01*
X171210Y16162D01*
Y15654D01*
X170956Y15400D01*
X170448D01*
X170194Y15654D01*
X164400Y35400D02*
Y36924D01*
X165162D01*
X165416Y36670D01*
Y36162D01*
X165162Y35908D01*
X164400D01*
X166939Y36924D02*
X165924D01*
Y36162D01*
X166431D01*
X165924D01*
Y35400D01*
X168463Y36924D02*
X167447D01*
Y35400D01*
X168463D01*
X167447Y36162D02*
X167955D01*
X168971Y36924D02*
X169986D01*
X169478D01*
Y35400D01*
X171256D02*
Y36924D01*
X170494Y36162D01*
X171510D01*
X164500Y56200D02*
Y57724D01*
X165262D01*
X165516Y57470D01*
Y56962D01*
X165262Y56708D01*
X164500D01*
X167039Y57724D02*
X166024D01*
Y56962D01*
X166531D01*
X166024D01*
Y56200D01*
X168563Y57724D02*
X167547D01*
Y56200D01*
X168563D01*
X167547Y56962D02*
X168055D01*
X169071Y57724D02*
X170086D01*
X169578D01*
Y56200D01*
X170594Y57470D02*
X170848Y57724D01*
X171356D01*
X171610Y57470D01*
Y57216D01*
X171356Y56962D01*
X171102D01*
X171356D01*
X171610Y56708D01*
Y56454D01*
X171356Y56200D01*
X170848D01*
X170594Y56454D01*
X164700Y76900D02*
Y78424D01*
X165462D01*
X165716Y78170D01*
Y77662D01*
X165462Y77408D01*
X164700D01*
X167239Y78424D02*
X166224D01*
Y77662D01*
X166731D01*
X166224D01*
Y76900D01*
X168763Y78424D02*
X167747D01*
Y76900D01*
X168763D01*
X167747Y77662D02*
X168255D01*
X169271Y78424D02*
X170286D01*
X169778D01*
Y76900D01*
X171810D02*
X170794D01*
X171810Y77916D01*
Y78170D01*
X171556Y78424D01*
X171048D01*
X170794Y78170D01*
X165200Y97600D02*
Y99124D01*
X165962D01*
X166216Y98870D01*
Y98362D01*
X165962Y98108D01*
X165200D01*
X167739Y99124D02*
X166724D01*
Y98362D01*
X167231D01*
X166724D01*
Y97600D01*
X169263Y99124D02*
X168247D01*
Y97600D01*
X169263D01*
X168247Y98362D02*
X168755D01*
X169771Y99124D02*
X170786D01*
X170278D01*
Y97600D01*
X171294D02*
X171802D01*
X171548D01*
Y99124D01*
X171294Y98870D01*
X4500Y56800D02*
Y58324D01*
X5008Y57816D01*
X5516Y58324D01*
Y56800D01*
X7039Y58324D02*
X6024D01*
Y56800D01*
X7039D01*
X6024Y57562D02*
X6531D01*
X8563Y58070D02*
X8309Y58324D01*
X7801D01*
X7547Y58070D01*
Y57054D01*
X7801Y56800D01*
X8309D01*
X8563Y57054D01*
Y57562D01*
X8055D01*
X9071Y56800D02*
Y57816D01*
X9578Y58324D01*
X10086Y57816D01*
Y56800D01*
Y57562D01*
X9071D01*
X298700Y77100D02*
X299208D01*
X298954D01*
Y78624D01*
X298700Y78370D01*
X300985Y77100D02*
X299970D01*
X300985Y78116D01*
Y78370D01*
X300731Y78624D01*
X300224D01*
X299970Y78370D01*
X301493Y78624D02*
Y77608D01*
X302001Y77100D01*
X302509Y77608D01*
Y78624D01*
X304540Y77100D02*
X305048D01*
X304794D01*
Y78624D01*
X304540Y78370D01*
X306825D02*
X306571Y78624D01*
X306064D01*
X305810Y78370D01*
Y77354D01*
X306064Y77100D01*
X306571D01*
X306825Y77354D01*
X298500Y93100D02*
X299008D01*
X298754D01*
Y94624D01*
X298500Y94370D01*
X300785Y93100D02*
X299770D01*
X300785Y94116D01*
Y94370D01*
X300531Y94624D01*
X300024D01*
X299770Y94370D01*
X301293Y94624D02*
Y93608D01*
X301801Y93100D01*
X302309Y93608D01*
Y94624D01*
X304340Y93100D02*
X304848D01*
X304594D01*
Y94624D01*
X304340Y94370D01*
X305610Y94624D02*
Y93100D01*
X306371D01*
X306625Y93354D01*
Y93608D01*
X306371Y93862D01*
X305610D01*
X306371D01*
X306625Y94116D01*
Y94370D01*
X306371Y94624D01*
X305610D01*
X298700Y108500D02*
X299208D01*
X298954D01*
Y110024D01*
X298700Y109770D01*
X300985Y108500D02*
X299970D01*
X300985Y109516D01*
Y109770D01*
X300731Y110024D01*
X300224D01*
X299970Y109770D01*
X301493Y110024D02*
Y109008D01*
X302001Y108500D01*
X302509Y109008D01*
Y110024D01*
X304540Y108500D02*
X305048D01*
X304794D01*
Y110024D01*
X304540Y109770D01*
X305810Y108500D02*
Y109516D01*
X306318Y110024D01*
X306825Y109516D01*
Y108500D01*
Y109262D01*
X305810D01*
X181677Y13700D02*
X183200D01*
Y14716D01*
Y15224D02*
X181677D01*
Y15985D01*
X181930Y16239D01*
X182438D01*
X182692Y15985D01*
Y15224D01*
Y15731D02*
X183200Y16239D01*
X181677Y17763D02*
Y16747D01*
X182438D01*
X182184Y17255D01*
Y17509D01*
X182438Y17763D01*
X182946D01*
X183200Y17509D01*
Y17001D01*
X182946Y16747D01*
X181977Y31800D02*
X183500D01*
Y32816D01*
Y33324D02*
X181977D01*
Y34085D01*
X182230Y34339D01*
X182738D01*
X182992Y34085D01*
Y33324D01*
Y33831D02*
X183500Y34339D01*
Y35609D02*
X181977D01*
X182738Y34847D01*
Y35863D01*
X181477Y52500D02*
X183000D01*
Y53516D01*
Y54024D02*
X181477D01*
Y54785D01*
X181730Y55039D01*
X182238D01*
X182492Y54785D01*
Y54024D01*
Y54531D02*
X183000Y55039D01*
X181730Y55547D02*
X181477Y55801D01*
Y56309D01*
X181730Y56563D01*
X181984D01*
X182238Y56309D01*
Y56055D01*
Y56309D01*
X182492Y56563D01*
X182746D01*
X183000Y56309D01*
Y55801D01*
X182746Y55547D01*
X181877Y72300D02*
X183400D01*
Y73316D01*
Y73824D02*
X181877D01*
Y74585D01*
X182130Y74839D01*
X182638D01*
X182892Y74585D01*
Y73824D01*
Y74331D02*
X183400Y74839D01*
Y76363D02*
Y75347D01*
X182384Y76363D01*
X182130D01*
X181877Y76109D01*
Y75601D01*
X182130Y75347D01*
X181377Y93200D02*
X182900D01*
Y94216D01*
Y94724D02*
X181377D01*
Y95485D01*
X181630Y95739D01*
X182138D01*
X182392Y95485D01*
Y94724D01*
Y95231D02*
X182900Y95739D01*
Y96247D02*
Y96755D01*
Y96501D01*
X181377D01*
X181630Y96247D01*
X162516Y30424D02*
X161500D01*
Y29662D01*
X162008D01*
X161500D01*
Y28900D01*
X164039Y30424D02*
X163024D01*
Y29662D01*
X163531Y29916D01*
X163785D01*
X164039Y29662D01*
Y29154D01*
X163785Y28900D01*
X163277D01*
X163024Y29154D01*
X163116Y49024D02*
X162100D01*
Y48262D01*
X162608D01*
X162100D01*
Y47500D01*
X164385D02*
Y49024D01*
X163624Y48262D01*
X164639D01*
X163316Y67324D02*
X162300D01*
Y66562D01*
X162808D01*
X162300D01*
Y65800D01*
X163824Y67070D02*
X164077Y67324D01*
X164585D01*
X164839Y67070D01*
Y66816D01*
X164585Y66562D01*
X164331D01*
X164585D01*
X164839Y66308D01*
Y66054D01*
X164585Y65800D01*
X164077D01*
X163824Y66054D01*
X163116Y85624D02*
X162100D01*
Y84862D01*
X162608D01*
X162100D01*
Y84100D01*
X164639D02*
X163624D01*
X164639Y85116D01*
Y85370D01*
X164385Y85624D01*
X163877D01*
X163624Y85370D01*
X163416Y103824D02*
X162400D01*
Y103062D01*
X162908D01*
X162400D01*
Y102300D01*
X163924D02*
X164431D01*
X164177D01*
Y103824D01*
X163924Y103570D01*
X285416Y4870D02*
X285162Y5124D01*
X284654D01*
X284400Y4870D01*
Y3854D01*
X284654Y3600D01*
X285162D01*
X285416Y3854D01*
X286939Y4870D02*
X286685Y5124D01*
X286177D01*
X285924Y4870D01*
Y4616D01*
X286177Y4362D01*
X286685D01*
X286939Y4108D01*
Y3854D01*
X286685Y3600D01*
X286177D01*
X285924Y3854D01*
X288463Y3600D02*
X287447D01*
X288463Y4616D01*
Y4870D01*
X288209Y5124D01*
X287701D01*
X287447Y4870D01*
X157476Y20140D02*
X159000D01*
Y20902D01*
X158746Y21156D01*
X158492D01*
X158238Y20902D01*
Y20140D01*
Y20902D01*
X157984Y21156D01*
X157730D01*
X157476Y20902D01*
Y20140D01*
Y22679D02*
Y21664D01*
X158238D01*
X157984Y22171D01*
Y22425D01*
X158238Y22679D01*
X158746D01*
X159000Y22425D01*
Y21917D01*
X158746Y21664D01*
X157476Y38645D02*
X159000D01*
Y39407D01*
X158746Y39661D01*
X158492D01*
X158238Y39407D01*
Y38645D01*
Y39407D01*
X157984Y39661D01*
X157730D01*
X157476Y39407D01*
Y38645D01*
X159000Y40930D02*
X157476D01*
X158238Y40168D01*
Y41184D01*
X157976Y56300D02*
X159500D01*
Y57062D01*
X159246Y57316D01*
X158992D01*
X158738Y57062D01*
Y56300D01*
Y57062D01*
X158484Y57316D01*
X158230D01*
X157976Y57062D01*
Y56300D01*
X158230Y57824D02*
X157976Y58077D01*
Y58585D01*
X158230Y58839D01*
X158484D01*
X158738Y58585D01*
Y58331D01*
Y58585D01*
X158992Y58839D01*
X159246D01*
X159500Y58585D01*
Y58077D01*
X159246Y57824D01*
X156476Y74955D02*
X158000D01*
Y75717D01*
X157746Y75971D01*
X157492D01*
X157238Y75717D01*
Y74955D01*
Y75717D01*
X156984Y75971D01*
X156730D01*
X156476Y75717D01*
Y74955D01*
X158000Y77494D02*
Y76478D01*
X156984Y77494D01*
X156730D01*
X156476Y77240D01*
Y76732D01*
X156730Y76478D01*
X298400Y31500D02*
X298908D01*
X298654D01*
Y33024D01*
X298400Y32770D01*
X300685Y31500D02*
X299670D01*
X300685Y32516D01*
Y32770D01*
X300431Y33024D01*
X299924D01*
X299670Y32770D01*
X301193Y33024D02*
Y32008D01*
X301701Y31500D01*
X302209Y32008D01*
Y33024D01*
X305256Y31500D02*
X304240D01*
X305256Y32516D01*
Y32770D01*
X305002Y33024D01*
X304494D01*
X304240Y32770D01*
X298400Y13854D02*
X298654Y13600D01*
X299162D01*
X299416Y13854D01*
Y14870D01*
X299162Y15124D01*
X298654D01*
X298400Y14870D01*
Y14616D01*
X298654Y14362D01*
X299416D01*
X299924Y15124D02*
Y14108D01*
X300431Y13600D01*
X300939Y14108D01*
Y15124D01*
X259500Y10454D02*
X259754Y10200D01*
X260262D01*
X260516Y10454D01*
Y11470D01*
X260262Y11724D01*
X259754D01*
X259500Y11470D01*
Y11216D01*
X259754Y10962D01*
X260516D01*
X261023Y11724D02*
Y10708D01*
X261531Y10200D01*
X262039Y10708D01*
Y11724D01*
X265086Y11470D02*
X264832Y11724D01*
X264324D01*
X264071Y11470D01*
Y10454D01*
X264324Y10200D01*
X264832D01*
X265086Y10454D01*
X265848Y10200D02*
X266356D01*
X266610Y10454D01*
Y10962D01*
X266356Y11216D01*
X265848D01*
X265594Y10962D01*
Y10454D01*
X265848Y10200D01*
X267118D02*
Y11216D01*
X267879D01*
X268133Y10962D01*
Y10200D01*
X268641Y11216D02*
X269149Y10200D01*
X269657Y11216D01*
X272450Y11724D02*
X271942D01*
X271688Y11470D01*
Y10454D01*
X271942Y10200D01*
X272450D01*
X272704Y10454D01*
Y11470D01*
X272450Y11724D01*
X273212D02*
Y10454D01*
X273465Y10200D01*
X273973D01*
X274227Y10454D01*
Y11724D01*
X274735D02*
X275751D01*
X275243D01*
Y10200D01*
X259300Y57654D02*
X259554Y57400D01*
X260062D01*
X260316Y57654D01*
Y58670D01*
X260062Y58924D01*
X259554D01*
X259300Y58670D01*
Y58416D01*
X259554Y58162D01*
X260316D01*
X260824Y58924D02*
Y57908D01*
X261331Y57400D01*
X261839Y57908D01*
Y58924D01*
X264886Y58670D02*
X264632Y58924D01*
X264124D01*
X263871Y58670D01*
Y57654D01*
X264124Y57400D01*
X264632D01*
X264886Y57654D01*
X265648Y57400D02*
X266156D01*
X266410Y57654D01*
Y58162D01*
X266156Y58416D01*
X265648D01*
X265394Y58162D01*
Y57654D01*
X265648Y57400D01*
X266918D02*
Y58416D01*
X267679D01*
X267933Y58162D01*
Y57400D01*
X268441Y58416D02*
X268949Y57400D01*
X269457Y58416D01*
X271488Y58924D02*
X271996D01*
X271742D01*
Y57400D01*
X271488D01*
X271996D01*
X272758D02*
Y58924D01*
X273773Y57400D01*
Y58924D01*
X299716Y50224D02*
X298700D01*
Y49462D01*
X299208Y49716D01*
X299462D01*
X299716Y49462D01*
Y48954D01*
X299462Y48700D01*
X298954D01*
X298700Y48954D01*
X300224Y50224D02*
Y49208D01*
X300731Y48700D01*
X301239Y49208D01*
Y50224D01*
X279116Y53224D02*
X278100D01*
Y52462D01*
X278608Y52716D01*
X278862D01*
X279116Y52462D01*
Y51954D01*
X278862Y51700D01*
X278354D01*
X278100Y51954D01*
X279624Y53224D02*
Y52208D01*
X280131Y51700D01*
X280639Y52208D01*
Y53224D01*
X283686Y52970D02*
X283432Y53224D01*
X282924D01*
X282671Y52970D01*
Y51954D01*
X282924Y51700D01*
X283432D01*
X283686Y51954D01*
X284448Y51700D02*
X284956D01*
X285210Y51954D01*
Y52462D01*
X284956Y52716D01*
X284448D01*
X284194Y52462D01*
Y51954D01*
X284448Y51700D01*
X285718D02*
Y52716D01*
X286479D01*
X286733Y52462D01*
Y51700D01*
X287241Y52716D02*
X287749Y51700D01*
X288257Y52716D01*
X291050Y53224D02*
X290542D01*
X290288Y52970D01*
Y51954D01*
X290542Y51700D01*
X291050D01*
X291304Y51954D01*
Y52970D01*
X291050Y53224D01*
X291812D02*
Y51954D01*
X292065Y51700D01*
X292573D01*
X292827Y51954D01*
Y53224D01*
X293335D02*
X294351D01*
X293843D01*
Y51700D01*
X280216Y109924D02*
X279200D01*
Y109162D01*
X279708Y109416D01*
X279962D01*
X280216Y109162D01*
Y108654D01*
X279962Y108400D01*
X279454D01*
X279200Y108654D01*
X280724Y109924D02*
Y108908D01*
X281231Y108400D01*
X281739Y108908D01*
Y109924D01*
X284786Y109670D02*
X284532Y109924D01*
X284024D01*
X283771Y109670D01*
Y108654D01*
X284024Y108400D01*
X284532D01*
X284786Y108654D01*
X285548Y108400D02*
X286056D01*
X286310Y108654D01*
Y109162D01*
X286056Y109416D01*
X285548D01*
X285294Y109162D01*
Y108654D01*
X285548Y108400D01*
X286818D02*
Y109416D01*
X287579D01*
X287833Y109162D01*
Y108400D01*
X288341Y109416D02*
X288849Y108400D01*
X289357Y109416D01*
X291388Y109924D02*
X291896D01*
X291642D01*
Y108400D01*
X291388D01*
X291896D01*
X292658D02*
Y109924D01*
X293673Y108400D01*
Y109924D01*
X141700Y71700D02*
Y72716D01*
X142208Y73224D01*
X142716Y72716D01*
Y71700D01*
Y72462D01*
X141700D01*
X143224Y71700D02*
Y73224D01*
X144239Y71700D01*
Y73224D01*
X144747D02*
Y71700D01*
X145509D01*
X145763Y71954D01*
Y72970D01*
X145509Y73224D01*
X144747D01*
X146271Y71700D02*
X146778D01*
X146524D01*
Y73224D01*
X146271Y72970D01*
X124600Y19700D02*
Y20716D01*
X125108Y21224D01*
X125616Y20716D01*
Y19700D01*
Y20462D01*
X124600D01*
X126124Y19700D02*
Y21224D01*
X127139Y19700D01*
Y21224D01*
X127647D02*
Y19700D01*
X128409D01*
X128663Y19954D01*
Y20970D01*
X128409Y21224D01*
X127647D01*
X130186Y19700D02*
X129171D01*
X130186Y20716D01*
Y20970D01*
X129932Y21224D01*
X129424D01*
X129171Y20970D01*
X132562Y109124D02*
X132054D01*
X131800Y108870D01*
Y107854D01*
X132054Y107600D01*
X132562D01*
X132816Y107854D01*
Y108870D01*
X132562Y109124D01*
X133324Y107600D02*
Y108616D01*
X133831Y109124D01*
X134339Y108616D01*
Y107600D01*
Y108362D01*
X133324D01*
X134847Y107600D02*
X135355D01*
X135101D01*
Y109124D01*
X134847Y108870D01*
X133062Y91024D02*
X132554D01*
X132300Y90770D01*
Y89754D01*
X132554Y89500D01*
X133062D01*
X133316Y89754D01*
Y90770D01*
X133062Y91024D01*
X133824Y89500D02*
Y90516D01*
X134331Y91024D01*
X134839Y90516D01*
Y89500D01*
Y90262D01*
X133824D01*
X136363Y89500D02*
X135347D01*
X136363Y90516D01*
Y90770D01*
X136109Y91024D01*
X135601D01*
X135347Y90770D01*
X127662Y55924D02*
X127154D01*
X126900Y55670D01*
Y54654D01*
X127154Y54400D01*
X127662D01*
X127916Y54654D01*
Y55670D01*
X127662Y55924D01*
X128424Y54400D02*
Y55416D01*
X128931Y55924D01*
X129439Y55416D01*
Y54400D01*
Y55162D01*
X128424D01*
X129947Y55670D02*
X130201Y55924D01*
X130709D01*
X130963Y55670D01*
Y55416D01*
X130709Y55162D01*
X130455D01*
X130709D01*
X130963Y54908D01*
Y54654D01*
X130709Y54400D01*
X130201D01*
X129947Y54654D01*
X135862Y38624D02*
X135354D01*
X135100Y38370D01*
Y37354D01*
X135354Y37100D01*
X135862D01*
X136116Y37354D01*
Y38370D01*
X135862Y38624D01*
X136624Y37100D02*
Y38116D01*
X137131Y38624D01*
X137639Y38116D01*
Y37100D01*
Y37862D01*
X136624D01*
X138909Y37100D02*
Y38624D01*
X138147Y37862D01*
X139163D01*
X157330Y91300D02*
Y92326D01*
Y73000D02*
Y74026D01*
X158930Y54300D02*
Y55326D01*
X158230Y36800D02*
Y37826D01*
X158330Y18100D02*
Y19126D01*
X80000Y107539D02*
Y106000D01*
X80770D01*
X81026Y106257D01*
Y106513D01*
X80770Y106770D01*
X80000D01*
X80770D01*
X81026Y107026D01*
Y107283D01*
X80770Y107539D01*
X80000D01*
X81796Y107026D02*
X82309D01*
X82566Y106770D01*
Y106000D01*
X81796D01*
X81539Y106257D01*
X81796Y106513D01*
X82566D01*
X83079Y106000D02*
X83592D01*
X83336D01*
Y107539D01*
X83079D01*
X86928Y107283D02*
X86671Y107539D01*
X86158D01*
X85901Y107283D01*
Y106257D01*
X86158Y106000D01*
X86671D01*
X86928Y106257D01*
X87698Y106000D02*
X88211D01*
X88467Y106257D01*
Y106770D01*
X88211Y107026D01*
X87698D01*
X87441Y106770D01*
Y106257D01*
X87698Y106000D01*
X88980D02*
Y107026D01*
X89750D01*
X90007Y106770D01*
Y106000D01*
X90520D02*
Y107026D01*
X91290D01*
X91546Y106770D01*
Y106000D01*
X91100Y103170D02*
X92126D01*
X91613Y103683D02*
Y102657D01*
X91200Y83170D02*
X92226D01*
X91713Y83683D02*
Y82657D01*
X91400Y63270D02*
X92426D01*
X91913Y63783D02*
Y62757D01*
X91000Y43370D02*
X92026D01*
X91513Y43883D02*
Y42857D01*
X91500Y23470D02*
X92526D01*
X92013Y23983D02*
Y22957D01*
X91100Y15570D02*
X92126D01*
X90900Y35470D02*
X91926D01*
X91100Y55470D02*
X92126D01*
X90800Y75570D02*
X91826D01*
X91100Y95370D02*
X92126D01*
X119700Y107870D02*
X120726D01*
X109200Y108170D02*
X110226D01*
X109713Y108683D02*
Y107657D01*
X176900Y93570D02*
X177926D01*
X177413Y94083D02*
Y93057D01*
X176800Y73070D02*
X177826D01*
X177313Y73583D02*
Y72557D01*
X176800Y52770D02*
X177826D01*
X177313Y53283D02*
Y52257D01*
X176500Y32070D02*
X177526D01*
X177013Y32583D02*
Y31557D01*
X176700Y11170D02*
X177726D01*
X177213Y11683D02*
Y10657D01*
X173800Y11070D02*
X174826D01*
X173900Y31870D02*
X174926D01*
X174200Y52770D02*
X175226D01*
X174200Y73070D02*
X175226D01*
X174100Y93770D02*
X175126D01*
X248700Y11570D02*
X249726D01*
X249200Y34170D02*
X250226D01*
X248800Y55670D02*
X249826D01*
X248500Y77670D02*
X249526D01*
X249300Y100770D02*
X250326D01*
X248400Y15470D02*
X249426D01*
X248913Y15983D02*
Y14957D01*
X249200Y36370D02*
X250226D01*
X249713Y36883D02*
Y35857D01*
X248700Y58370D02*
X249726D01*
X249213Y58883D02*
Y57857D01*
X248700Y81570D02*
X249726D01*
X249213Y82083D02*
Y81057D01*
X249300Y103770D02*
X250326D01*
X249813Y104283D02*
Y103257D01*
X189400Y15900D02*
Y17440D01*
X190426Y15900D01*
Y17440D01*
X191709D02*
X191196D01*
X190939Y17183D01*
Y16157D01*
X191196Y15900D01*
X191709D01*
X191966Y16157D01*
Y17183D01*
X191709Y17440D01*
X188900Y38400D02*
Y39939D01*
X189926Y38400D01*
Y39939D01*
X191209D02*
X190696D01*
X190439Y39683D01*
Y38657D01*
X190696Y38400D01*
X191209D01*
X191466Y38657D01*
Y39683D01*
X191209Y39939D01*
X188700Y60600D02*
Y62139D01*
X189726Y60600D01*
Y62139D01*
X191009D02*
X190496D01*
X190240Y61883D01*
Y60857D01*
X190496Y60600D01*
X191009D01*
X191266Y60857D01*
Y61883D01*
X191009Y62139D01*
X188500Y82700D02*
Y84240D01*
X189526Y82700D01*
Y84240D01*
X190809D02*
X190296D01*
X190040Y83983D01*
Y82957D01*
X190296Y82700D01*
X190809D01*
X191066Y82957D01*
Y83983D01*
X190809Y84240D01*
X188500Y104800D02*
Y106340D01*
X189526Y104800D01*
Y106340D01*
X190809D02*
X190296D01*
X190040Y106083D01*
Y105057D01*
X190296Y104800D01*
X190809D01*
X191066Y105057D01*
Y106083D01*
X190809Y106340D01*
X189026Y14583D02*
X188770Y14840D01*
X188257D01*
X188000Y14583D01*
Y13557D01*
X188257Y13300D01*
X188770D01*
X189026Y13557D01*
X190309Y14840D02*
X189796D01*
X189540Y14583D01*
Y13557D01*
X189796Y13300D01*
X190309D01*
X190566Y13557D01*
Y14583D01*
X190309Y14840D01*
X191079Y13300D02*
Y14840D01*
X191592Y14326D01*
X192105Y14840D01*
Y13300D01*
X188726Y36683D02*
X188470Y36939D01*
X187957D01*
X187700Y36683D01*
Y35657D01*
X187957Y35400D01*
X188470D01*
X188726Y35657D01*
X190009Y36939D02*
X189496D01*
X189240Y36683D01*
Y35657D01*
X189496Y35400D01*
X190009D01*
X190266Y35657D01*
Y36683D01*
X190009Y36939D01*
X190779Y35400D02*
Y36939D01*
X191292Y36426D01*
X191805Y36939D01*
Y35400D01*
X188926Y58883D02*
X188670Y59139D01*
X188157D01*
X187900Y58883D01*
Y57857D01*
X188157Y57600D01*
X188670D01*
X188926Y57857D01*
X190209Y59139D02*
X189696D01*
X189439Y58883D01*
Y57857D01*
X189696Y57600D01*
X190209D01*
X190466Y57857D01*
Y58883D01*
X190209Y59139D01*
X190979Y57600D02*
Y59139D01*
X191492Y58626D01*
X192005Y59139D01*
Y57600D01*
X188626Y80983D02*
X188370Y81240D01*
X187857D01*
X187600Y80983D01*
Y79957D01*
X187857Y79700D01*
X188370D01*
X188626Y79957D01*
X189909Y81240D02*
X189396D01*
X189139Y80983D01*
Y79957D01*
X189396Y79700D01*
X189909D01*
X190166Y79957D01*
Y80983D01*
X189909Y81240D01*
X190679Y79700D02*
Y81240D01*
X191192Y80726D01*
X191705Y81240D01*
Y79700D01*
X188226Y103283D02*
X187970Y103539D01*
X187457D01*
X187200Y103283D01*
Y102257D01*
X187457Y102000D01*
X187970D01*
X188226Y102257D01*
X189509Y103539D02*
X188996D01*
X188740Y103283D01*
Y102257D01*
X188996Y102000D01*
X189509D01*
X189766Y102257D01*
Y103283D01*
X189509Y103539D01*
X190279Y102000D02*
Y103539D01*
X190792Y103026D01*
X191305Y103539D01*
Y102000D01*
X169126Y105783D02*
X168870Y106039D01*
X168357D01*
X168100Y105783D01*
Y104757D01*
X168357Y104500D01*
X168870D01*
X169126Y104757D01*
Y105270D01*
X168613D01*
X169326Y82383D02*
X169070Y82640D01*
X168557D01*
X168300Y82383D01*
Y81357D01*
X168557Y81100D01*
X169070D01*
X169326Y81357D01*
Y81870D01*
X168813D01*
X169326Y63183D02*
X169070Y63439D01*
X168557D01*
X168300Y63183D01*
Y62157D01*
X168557Y61900D01*
X169070D01*
X169326Y62157D01*
Y62670D01*
X168813D01*
X169126Y42783D02*
X168870Y43040D01*
X168357D01*
X168100Y42783D01*
Y41757D01*
X168357Y41500D01*
X168870D01*
X169126Y41757D01*
Y42270D01*
X168613D01*
X169526Y22283D02*
X169270Y22539D01*
X168757D01*
X168500Y22283D01*
Y21257D01*
X168757Y21000D01*
X169270D01*
X169526Y21257D01*
Y21770D01*
X169013D01*
X182826Y22583D02*
X182570Y22840D01*
X182057D01*
X181800Y22583D01*
Y22326D01*
X182057Y22070D01*
X182570D01*
X182826Y21813D01*
Y21557D01*
X182570Y21300D01*
X182057D01*
X181800Y21557D01*
X182926Y43183D02*
X182670Y43439D01*
X182157D01*
X181900Y43183D01*
Y42926D01*
X182157Y42670D01*
X182670D01*
X182926Y42413D01*
Y42157D01*
X182670Y41900D01*
X182157D01*
X181900Y42157D01*
X183126Y63783D02*
X182870Y64039D01*
X182357D01*
X182100Y63783D01*
Y63526D01*
X182357Y63270D01*
X182870D01*
X183126Y63013D01*
Y62757D01*
X182870Y62500D01*
X182357D01*
X182100Y62757D01*
X182726Y84183D02*
X182470Y84439D01*
X181957D01*
X181700Y84183D01*
Y83926D01*
X181957Y83670D01*
X182470D01*
X182726Y83413D01*
Y83157D01*
X182470Y82900D01*
X181957D01*
X181700Y83157D01*
X182926Y105183D02*
X182670Y105439D01*
X182157D01*
X181900Y105183D01*
Y104926D01*
X182157Y104670D01*
X182670D01*
X182926Y104413D01*
Y104157D01*
X182670Y103900D01*
X182157D01*
X181900Y104157D01*
X246900Y27400D02*
Y28426D01*
X247413Y28940D01*
X247926Y28426D01*
Y27400D01*
Y28170D01*
X246900D01*
X248439Y28683D02*
X248696Y28940D01*
X249209D01*
X249466Y28683D01*
Y28426D01*
X249209Y28170D01*
X248953D01*
X249209D01*
X249466Y27913D01*
Y27657D01*
X249209Y27400D01*
X248696D01*
X248439Y27657D01*
X246200Y88900D02*
Y89926D01*
X246713Y90439D01*
X247226Y89926D01*
Y88900D01*
Y89670D01*
X246200D01*
X248766Y88900D02*
X247740D01*
X248766Y89926D01*
Y90183D01*
X248509Y90439D01*
X247996D01*
X247740Y90183D01*
X285100Y44700D02*
Y45726D01*
X285613Y46239D01*
X286126Y45726D01*
Y44700D01*
Y45470D01*
X285100D01*
X286639Y44700D02*
X287153D01*
X286896D01*
Y46239D01*
X286639Y45983D01*
X262826Y108783D02*
X262570Y109039D01*
X262057D01*
X261800Y108783D01*
Y107757D01*
X262057Y107500D01*
X262570D01*
X262826Y107757D01*
X264366Y108783D02*
X264109Y109039D01*
X263596D01*
X263340Y108783D01*
Y108526D01*
X263596Y108270D01*
X264109D01*
X264366Y108013D01*
Y107757D01*
X264109Y107500D01*
X263596D01*
X263340Y107757D01*
X264879Y107500D02*
X265392D01*
X265136D01*
Y109039D01*
X264879Y108783D01*
X267300Y107500D02*
Y108526D01*
X267813Y109039D01*
X268326Y108526D01*
Y107500D01*
Y108270D01*
X267300D01*
X268840Y108783D02*
X269096Y109039D01*
X269609D01*
X269866Y108783D01*
Y107757D01*
X269609Y107500D01*
X269096D01*
X268840Y107757D01*
Y108783D01*
X262300Y105870D02*
X263326D01*
X262813Y106383D02*
Y105357D01*
X290700Y43570D02*
X291726D01*
X291213Y44083D02*
Y43057D01*
X273300Y105870D02*
X274326D01*
X280100Y43570D02*
X281126D01*
X269600Y71439D02*
X270113D01*
X269857D01*
Y69900D01*
X269600D01*
X270113D01*
X270883D02*
Y71439D01*
X271653D01*
X271909Y71183D01*
Y70670D01*
X271653Y70413D01*
X270883D01*
X272422Y70670D02*
X273449D01*
X289900Y9139D02*
X290413D01*
X290157D01*
Y7600D01*
X289900D01*
X290413D01*
X291183D02*
Y9139D01*
X291953D01*
X292209Y8883D01*
Y8370D01*
X291953Y8113D01*
X291183D01*
X292722Y8370D02*
X293749D01*
X278600Y8840D02*
X279113D01*
X278857D01*
Y7300D01*
X278600D01*
X279113D01*
X279883D02*
Y8840D01*
X280653D01*
X280909Y8583D01*
Y8070D01*
X280653Y7813D01*
X279883D01*
X281422Y8070D02*
X282449D01*
X281936Y8583D02*
Y7557D01*
X258500Y71340D02*
X259013D01*
X258757D01*
Y69800D01*
X258500D01*
X259013D01*
X259783D02*
Y71340D01*
X260553D01*
X260809Y71083D01*
Y70570D01*
X260553Y70313D01*
X259783D01*
X261322Y70570D02*
X262349D01*
X261836Y71083D02*
Y70057D01*
X282100Y48130D02*
X281074D01*
X265100Y61530D02*
X264074D01*
X281600Y105930D02*
X280574D01*
X304100D02*
X303074D01*
X304300Y90030D02*
X303274D01*
X304200Y74230D02*
X303174D01*
X304000Y58230D02*
X302974D01*
X303800Y46130D02*
X302774D01*
X303800Y28430D02*
X302774D01*
X303600Y10630D02*
X302574D01*
X262000Y8230D02*
X260974D01*
X290530Y47700D02*
Y48726D01*
X290017Y48213D02*
X291043D01*
X267730Y61100D02*
Y62126D01*
X267217Y61613D02*
X268243D01*
X271030Y7700D02*
Y8726D01*
X270517Y8213D02*
X271543D01*
X303430Y7200D02*
Y8226D01*
X302917Y7713D02*
X303943D01*
X303530Y25200D02*
Y26226D01*
X303017Y25713D02*
X304043D01*
X303530Y42800D02*
Y43826D01*
X303017Y43313D02*
X304043D01*
X303930Y54900D02*
Y55926D01*
X303417Y55413D02*
X304443D01*
X304030Y71200D02*
Y72226D01*
X303517Y71713D02*
X304543D01*
X304030Y87000D02*
Y88026D01*
X303517Y87513D02*
X304543D01*
X303930Y102700D02*
Y103726D01*
X303417Y103213D02*
X304443D01*
X291630Y105300D02*
Y106326D01*
X291117Y105813D02*
X292143D01*
X158330Y23700D02*
Y24726D01*
X157817Y24213D02*
X158843D01*
X158330Y42200D02*
Y43226D01*
X157817Y42713D02*
X158843D01*
X158830Y59700D02*
Y60726D01*
X158317Y60213D02*
X159343D01*
X157130Y78500D02*
Y79526D01*
X156617Y79013D02*
X157643D01*
X157230Y96600D02*
Y97626D01*
X156717Y97113D02*
X157743D01*
X31800Y31840D02*
Y30300D01*
X32826D01*
X34366Y31583D02*
X34109Y31840D01*
X33596D01*
X33340Y31583D01*
Y30557D01*
X33596Y30300D01*
X34109D01*
X34366Y30557D01*
X34879Y31840D02*
Y30300D01*
X35649D01*
X35905Y30557D01*
Y31583D01*
X35649Y31840D01*
X34879D01*
X111700Y109040D02*
X112726D01*
Y108783D01*
X111700Y107757D01*
Y107500D01*
X112726D01*
X114009D02*
X113496D01*
X113240Y107757D01*
Y108270D01*
X113496Y108526D01*
X114009D01*
X114266Y108270D01*
Y108013D01*
X113240D01*
X114779Y107500D02*
Y108526D01*
X115549D01*
X115805Y108270D01*
Y107500D01*
X117088D02*
X116575D01*
X116319Y107757D01*
Y108270D01*
X116575Y108526D01*
X117088D01*
X117345Y108270D01*
Y108013D01*
X116319D01*
X117858Y108526D02*
Y107500D01*
Y108013D01*
X118115Y108270D01*
X118371Y108526D01*
X118628D01*
X94100Y107439D02*
X95126D01*
Y107183D01*
X94100Y106157D01*
Y105900D01*
X95126D01*
X96409D02*
X95896D01*
X95640Y106157D01*
Y106670D01*
X95896Y106926D01*
X96409D01*
X96666Y106670D01*
Y106413D01*
X95640D01*
X97179Y105900D02*
Y106926D01*
X97949D01*
X98205Y106670D01*
Y105900D01*
X99488D02*
X98975D01*
X98718Y106157D01*
Y106670D01*
X98975Y106926D01*
X99488D01*
X99745Y106670D01*
Y106413D01*
X98718D01*
X100258Y106926D02*
Y105900D01*
Y106413D01*
X100515Y106670D01*
X100771Y106926D01*
X101028D01*
X103337Y105900D02*
Y107439D01*
X104107D01*
X104363Y107183D01*
Y106670D01*
X104107Y106413D01*
X103337D01*
X103850D02*
X104363Y105900D01*
X105646D02*
X105133D01*
X104877Y106157D01*
Y106670D01*
X105133Y106926D01*
X105646D01*
X105903Y106670D01*
Y106413D01*
X104877D01*
X106416Y105900D02*
X107186D01*
X107442Y106157D01*
X107186Y106413D01*
X106673D01*
X106416Y106670D01*
X106673Y106926D01*
X107442D01*
X41900Y88140D02*
Y86600D01*
X42670D01*
X42926Y86857D01*
Y87113D01*
X42670Y87370D01*
X41900D01*
X42670D01*
X42926Y87626D01*
Y87883D01*
X42670Y88140D01*
X41900D01*
X44979Y87370D02*
X46005D01*
X48058Y88140D02*
Y86600D01*
X48828D01*
X49084Y86857D01*
Y87113D01*
X48828Y87370D01*
X48058D01*
X48828D01*
X49084Y87626D01*
Y87883D01*
X48828Y88140D01*
X48058D01*
X49854Y87626D02*
X50367D01*
X50624Y87370D01*
Y86600D01*
X49854D01*
X49598Y86857D01*
X49854Y87113D01*
X50624D01*
X51394Y87883D02*
Y87626D01*
X51137D01*
X51650D01*
X51394D01*
Y86857D01*
X51650Y86600D01*
X52677Y87883D02*
Y87626D01*
X52420D01*
X52933D01*
X52677D01*
Y86857D01*
X52933Y86600D01*
X54473D02*
X53959D01*
X53703Y86857D01*
Y87370D01*
X53959Y87626D01*
X54473D01*
X54729Y87370D01*
Y87113D01*
X53703D01*
X55242Y87626D02*
Y86600D01*
Y87113D01*
X55499Y87370D01*
X55756Y87626D01*
X56012D01*
X56782D02*
Y86857D01*
X57038Y86600D01*
X57808D01*
Y86343D01*
X57552Y86087D01*
X57295D01*
X57808Y86600D02*
Y87626D01*
X42670Y84522D02*
X42157D01*
X41900Y84266D01*
Y83239D01*
X42157Y82983D01*
X42670D01*
X42926Y83239D01*
Y84266D01*
X42670Y84522D01*
X43440Y82983D02*
Y84009D01*
X43953Y84522D01*
X44466Y84009D01*
Y82983D01*
Y83752D01*
X43440D01*
X46519D02*
X47545D01*
X50367Y84522D02*
X49854D01*
X49598Y84266D01*
Y83239D01*
X49854Y82983D01*
X50367D01*
X50624Y83239D01*
Y84266D01*
X50367Y84522D01*
X51137Y82469D02*
Y84009D01*
X51907D01*
X52163Y83752D01*
Y83239D01*
X51907Y82983D01*
X51137D01*
X54216D02*
Y84009D01*
X54729Y84522D01*
X55242Y84009D01*
Y82983D01*
Y83752D01*
X54216D01*
X55756Y82983D02*
Y84009D01*
X56012D01*
X56269Y83752D01*
Y82983D01*
Y83752D01*
X56525Y84009D01*
X56782Y83752D01*
Y82983D01*
X57295Y82469D02*
Y84009D01*
X58065D01*
X58321Y83752D01*
Y83239D01*
X58065Y82983D01*
X57295D01*
X41900Y76774D02*
Y75235D01*
X42926D01*
X43440D02*
Y76774D01*
X44209D01*
X44466Y76518D01*
Y76005D01*
X44209Y75748D01*
X43440D01*
X43953D02*
X44466Y75235D01*
X46519Y76005D02*
X47545D01*
X49598Y76774D02*
Y75235D01*
X50624D01*
X52163Y76774D02*
X51137D01*
Y75235D01*
X52163D01*
X51137Y76005D02*
X51650D01*
X52677Y76774D02*
Y75235D01*
X53446D01*
X53703Y75491D01*
Y76518D01*
X53446Y76774D01*
X52677D01*
X55756Y75235D02*
Y76774D01*
X56525D01*
X56782Y76518D01*
Y76005D01*
X56525Y75748D01*
X55756D01*
X56269D02*
X56782Y75235D01*
X58065D02*
X57552D01*
X57295Y75491D01*
Y76005D01*
X57552Y76261D01*
X58065D01*
X58321Y76005D01*
Y75748D01*
X57295D01*
X58835Y75235D02*
X59604D01*
X59861Y75491D01*
X59604Y75748D01*
X59091D01*
X58835Y76005D01*
X59091Y76261D01*
X59861D01*
X193800Y108800D02*
Y110340D01*
X194570D01*
X194826Y110083D01*
Y109570D01*
X194570Y109313D01*
X193800D01*
X194313D02*
X194826Y108800D01*
X196109D02*
X195596D01*
X195339Y109057D01*
Y109570D01*
X195596Y109826D01*
X196109D01*
X196366Y109570D01*
Y109313D01*
X195339D01*
X196879Y108800D02*
X197392D01*
X197136D01*
Y110340D01*
X196879D01*
X198419Y109826D02*
X198932D01*
X199188Y109570D01*
Y108800D01*
X198419D01*
X198162Y109057D01*
X198419Y109313D01*
X199188D01*
X199701Y109826D02*
Y109057D01*
X199958Y108800D01*
X200728D01*
Y108543D01*
X200471Y108287D01*
X200215D01*
X200728Y108800D02*
Y109826D01*
X202780Y110340D02*
X203294D01*
X203037D01*
Y108800D01*
X202780D01*
X203294D01*
X204063D02*
Y110340D01*
X204833D01*
X205090Y110083D01*
Y109570D01*
X204833Y109313D01*
X204063D01*
X237700Y108200D02*
Y109740D01*
X238470D01*
X238726Y109483D01*
Y108970D01*
X238470Y108713D01*
X237700D01*
X238213D02*
X238726Y108200D01*
X240009D02*
X239496D01*
X239240Y108457D01*
Y108970D01*
X239496Y109226D01*
X240009D01*
X240266Y108970D01*
Y108713D01*
X239240D01*
X240779Y108200D02*
X241292D01*
X241036D01*
Y109740D01*
X240779D01*
X242318Y109226D02*
X242832D01*
X243088Y108970D01*
Y108200D01*
X242318D01*
X242062Y108457D01*
X242318Y108713D01*
X243088D01*
X243601Y109226D02*
Y108457D01*
X243858Y108200D01*
X244628D01*
Y107943D01*
X244371Y107687D01*
X244115D01*
X244628Y108200D02*
Y109226D01*
X247707Y109483D02*
X247450Y109740D01*
X246937D01*
X246680Y109483D01*
Y108457D01*
X246937Y108200D01*
X247450D01*
X247707Y108457D01*
X248477Y108200D02*
X248990D01*
X249246Y108457D01*
Y108970D01*
X248990Y109226D01*
X248477D01*
X248220Y108970D01*
Y108457D01*
X248477Y108200D01*
X249759D02*
X250273D01*
X250016D01*
Y109226D01*
X249759D01*
X251042Y108200D02*
X251556D01*
X251299D01*
Y109740D01*
X251042D01*
X41900Y73157D02*
Y72131D01*
X42413Y71617D01*
X42926Y72131D01*
Y73157D01*
X43440D02*
Y71617D01*
X44209D01*
X44466Y71874D01*
Y72900D01*
X44209Y73157D01*
X43440D01*
X46519Y72387D02*
X47545D01*
X49598Y73157D02*
Y72131D01*
X50111Y71617D01*
X50624Y72131D01*
Y73157D01*
X51394Y71617D02*
X51907D01*
X52163Y71874D01*
Y72387D01*
X51907Y72644D01*
X51394D01*
X51137Y72387D01*
Y71874D01*
X51394Y71617D01*
X52677D02*
X53190D01*
X52933D01*
Y73157D01*
X52677D01*
X55499D02*
Y71617D01*
X56269D01*
X56525Y71874D01*
Y72900D01*
X56269Y73157D01*
X55499D01*
X57038Y71617D02*
X57552D01*
X57295D01*
Y72644D01*
X57038D01*
X58321D02*
X58835Y71617D01*
X59348Y72644D01*
X42926Y80135D02*
X42670Y80392D01*
X42157D01*
X41900Y80135D01*
Y79109D01*
X42157Y78852D01*
X42670D01*
X42926Y79109D01*
X44466Y80135D02*
X44209Y80392D01*
X43696D01*
X43440Y80135D01*
Y79878D01*
X43696Y79622D01*
X44209D01*
X44466Y79365D01*
Y79109D01*
X44209Y78852D01*
X43696D01*
X43440Y79109D01*
X46519Y79622D02*
X47545D01*
X50624Y80135D02*
X50367Y80392D01*
X49854D01*
X49598Y80135D01*
Y79109D01*
X49854Y78852D01*
X50367D01*
X50624Y79109D01*
X51137Y79878D02*
Y79109D01*
X51394Y78852D01*
X52163D01*
Y79878D01*
X52677D02*
Y78852D01*
Y79365D01*
X52933Y79622D01*
X53190Y79878D01*
X53446D01*
X54216D02*
Y78852D01*
Y79365D01*
X54473Y79622D01*
X54729Y79878D01*
X54986D01*
X58321Y80135D02*
X58065Y80392D01*
X57552D01*
X57295Y80135D01*
Y79878D01*
X57552Y79622D01*
X58065D01*
X58321Y79365D01*
Y79109D01*
X58065Y78852D01*
X57552D01*
X57295Y79109D01*
X59604Y78852D02*
X59091D01*
X58835Y79109D01*
Y79622D01*
X59091Y79878D01*
X59604D01*
X59861Y79622D01*
Y79365D01*
X58835D01*
X60374Y78852D02*
Y79878D01*
X61144D01*
X61400Y79622D01*
Y78852D01*
X61914D02*
X62683D01*
X62940Y79109D01*
X62683Y79365D01*
X62170D01*
X61914Y79622D01*
X62170Y79878D01*
X62940D01*
X9985Y87200D02*
X8843Y90199D01*
X7700Y87200D01*
X8128Y88200D02*
X9557D01*
X10685Y90199D02*
Y88057D01*
X10828Y87628D01*
X11114Y87343D01*
X11542Y87200D01*
X11828D01*
X12256Y87343D01*
X12542Y87628D01*
X12685Y88057D01*
Y90199D01*
X13513D02*
X14656Y87200D01*
X15798Y90199D02*
X14656Y87200D01*
X16184Y88485D02*
X18755D01*
X19640Y90199D02*
Y87200D01*
X20269Y90199D02*
Y87200D01*
X21897Y90199D02*
Y87200D01*
X20897Y90199D02*
X22897D01*
X23254D02*
Y87200D01*
X25253Y90199D02*
X23254Y88200D01*
X23968Y88914D02*
X25253Y87200D01*
D12*
X-0Y-0D02*
Y114000D01*
Y-0D02*
X310000D01*
Y114000D01*
X-0D02*
X310000D01*
D20*
X148550Y31795D02*
G03*
X148550Y30525I0J-635D01*
G01*
Y48965D02*
G03*
X148550Y47695I0J-635D01*
G01*
X148370Y84035D02*
G03*
X148370Y82765I0J-635D01*
G01*
X148370Y102645D02*
G03*
X148370Y101375I0J-635D01*
G01*
X148410Y14625D02*
G03*
X148410Y13355I0J-635D01*
G01*
X148550Y66135D02*
G03*
X148550Y64865I0J-635D01*
G01*
X148550Y31795D02*
Y33810D01*
Y28510D02*
Y30525D01*
X128850Y28510D02*
Y33810D01*
X148550D01*
X128850Y28510D02*
X148550D01*
Y48965D02*
Y50980D01*
Y45680D02*
Y47695D01*
X128850Y45680D02*
Y50980D01*
X148550D01*
X128850Y45680D02*
X148550D01*
X148370Y84035D02*
Y86050D01*
Y80750D02*
Y82765D01*
X128670Y80750D02*
Y86050D01*
X148370D01*
X128670Y80750D02*
X148370D01*
Y102645D02*
Y104660D01*
Y99360D02*
Y101375D01*
X128670Y99360D02*
Y104660D01*
X148370D01*
X128670Y99360D02*
X148370D01*
X148410Y14625D02*
Y16640D01*
Y11340D02*
Y13355D01*
X128710Y11340D02*
Y16640D01*
X148410D01*
X128710Y11340D02*
X148410D01*
X148550Y66135D02*
Y68150D01*
Y62850D02*
Y64865D01*
X128850Y62850D02*
Y68150D01*
X148550D01*
X128850Y62850D02*
X148550D01*
X283430Y104730D02*
Y107270D01*
X288510D01*
Y104730D02*
Y107270D01*
X283430Y104730D02*
X288510D01*
X283430Y46830D02*
Y49370D01*
X288510D01*
Y46830D02*
Y49370D01*
X283430Y46830D02*
X288510D01*
X298630Y47470D02*
X301170D01*
Y42390D02*
Y47470D01*
X298630Y42390D02*
X301170D01*
X298630D02*
Y47470D01*
X263690Y63430D02*
Y65970D01*
X268770D01*
Y63430D02*
Y65970D01*
X263690Y63430D02*
X268770D01*
X263690Y6970D02*
Y9510D01*
X268770D01*
Y6970D02*
Y9510D01*
X263690Y6970D02*
X268770D01*
X298630Y12010D02*
X301170D01*
Y6930D02*
Y12010D01*
X298630Y6930D02*
X301170D01*
X298630D02*
Y12010D01*
Y29740D02*
X301170D01*
Y24660D02*
Y29740D01*
X298630Y24660D02*
X301170D01*
X298630D02*
Y29740D01*
X87830Y94390D02*
Y104550D01*
X83173Y95237D02*
X86560D01*
X82750Y95660D02*
X83173Y95237D01*
X82750Y95660D02*
X83173Y96083D01*
X86560D01*
X83173Y97777D02*
X86560D01*
X82750Y98200D02*
X83173Y97777D01*
X82750Y98200D02*
X83173Y98623D01*
X86560D01*
X83173Y100317D02*
X86560D01*
X82750Y100740D02*
X83173Y100317D01*
X82750Y100740D02*
X83173Y101163D01*
X86560D01*
X83173Y102857D02*
X86560D01*
X82750Y103280D02*
X83173Y102857D01*
X82750Y103280D02*
X83173Y103703D01*
X86560D01*
Y104550D02*
X87830D01*
X86560Y94390D02*
X87830D01*
X86560D02*
Y104550D01*
X87830Y74420D02*
Y84580D01*
X83173Y75267D02*
X86560D01*
X82750Y75690D02*
X83173Y75267D01*
X82750Y75690D02*
X83173Y76113D01*
X86560D01*
X83173Y77807D02*
X86560D01*
X82750Y78230D02*
X83173Y77807D01*
X82750Y78230D02*
X83173Y78653D01*
X86560D01*
X83173Y80347D02*
X86560D01*
X82750Y80770D02*
X83173Y80347D01*
X82750Y80770D02*
X83173Y81193D01*
X86560D01*
X83173Y82887D02*
X86560D01*
X82750Y83310D02*
X83173Y82887D01*
X82750Y83310D02*
X83173Y83733D01*
X86560D01*
Y84580D02*
X87830D01*
X86560Y74420D02*
X87830D01*
X86560D02*
Y84580D01*
X87830Y54450D02*
Y64610D01*
X83173Y55297D02*
X86560D01*
X82750Y55720D02*
X83173Y55297D01*
X82750Y55720D02*
X83173Y56143D01*
X86560D01*
X83173Y57837D02*
X86560D01*
X82750Y58260D02*
X83173Y57837D01*
X82750Y58260D02*
X83173Y58683D01*
X86560D01*
X83173Y60377D02*
X86560D01*
X82750Y60800D02*
X83173Y60377D01*
X82750Y60800D02*
X83173Y61223D01*
X86560D01*
X83173Y62917D02*
X86560D01*
X82750Y63340D02*
X83173Y62917D01*
X82750Y63340D02*
X83173Y63763D01*
X86560D01*
Y64610D02*
X87830D01*
X86560Y54450D02*
X87830D01*
X86560D02*
Y64610D01*
X87830Y34480D02*
Y44640D01*
X83173Y35327D02*
X86560D01*
X82750Y35750D02*
X83173Y35327D01*
X82750Y35750D02*
X83173Y36173D01*
X86560D01*
X83173Y37867D02*
X86560D01*
X82750Y38290D02*
X83173Y37867D01*
X82750Y38290D02*
X83173Y38713D01*
X86560D01*
X83173Y40407D02*
X86560D01*
X82750Y40830D02*
X83173Y40407D01*
X82750Y40830D02*
X83173Y41253D01*
X86560D01*
X83173Y42947D02*
X86560D01*
X82750Y43370D02*
X83173Y42947D01*
X82750Y43370D02*
X83173Y43793D01*
X86560D01*
Y44640D02*
X87830D01*
X86560Y34480D02*
X87830D01*
X86560D02*
Y44640D01*
X87830Y14510D02*
Y24670D01*
X83173Y15357D02*
X86560D01*
X82750Y15780D02*
X83173Y15357D01*
X82750Y15780D02*
X83173Y16203D01*
X86560D01*
X83173Y17897D02*
X86560D01*
X82750Y18320D02*
X83173Y17897D01*
X82750Y18320D02*
X83173Y18743D01*
X86560D01*
X83173Y20437D02*
X86560D01*
X82750Y20860D02*
X83173Y20437D01*
X82750Y20860D02*
X83173Y21283D01*
X86560D01*
X83173Y22977D02*
X86560D01*
X82750Y23400D02*
X83173Y22977D01*
X82750Y23400D02*
X83173Y23823D01*
X86560D01*
Y24670D02*
X87830D01*
X86560Y14510D02*
X87830D01*
X86560D02*
Y24670D01*
X160030Y73875D02*
X162570D01*
Y78955D01*
X160030D02*
X162570D01*
X160030Y73875D02*
Y78955D01*
Y55660D02*
X162570D01*
Y60740D01*
X160030D02*
X162570D01*
X160030Y55660D02*
Y60740D01*
Y37445D02*
X162570D01*
Y42525D01*
X160030D02*
X162570D01*
X160030Y37445D02*
Y42525D01*
Y19230D02*
X162570D01*
Y24310D01*
X160030D02*
X162570D01*
X160030Y19230D02*
Y24310D01*
X282290Y41120D02*
X289910D01*
X282290D02*
Y42390D01*
X289910Y41120D02*
Y42390D01*
X282290D02*
X289910D01*
X289063Y37733D02*
Y41120D01*
X288640Y37310D02*
X289063Y37733D01*
X288217D02*
X288640Y37310D01*
X288217Y37733D02*
Y41120D01*
X286523Y37733D02*
Y41120D01*
X286100Y37310D02*
X286523Y37733D01*
X285677D02*
X286100Y37310D01*
X285677Y37733D02*
Y41120D01*
X283983Y37733D02*
Y41120D01*
X283560Y37310D02*
X283983Y37733D01*
X283137D02*
X283560Y37310D01*
X283137Y37733D02*
Y41120D01*
X288770Y6930D02*
Y9470D01*
X283690D02*
X288770D01*
X283690Y6930D02*
Y9470D01*
Y6930D02*
X288770D01*
X264690Y103420D02*
X272310D01*
Y104690D01*
X264690Y103420D02*
Y104690D01*
X272310D01*
X265537Y100033D02*
Y103420D01*
Y100033D02*
X265960Y99610D01*
X266383Y100033D01*
Y103420D01*
X268077Y100033D02*
Y103420D01*
Y100033D02*
X268500Y99610D01*
X268923Y100033D01*
Y103420D01*
X270617Y100033D02*
Y103420D01*
Y100033D02*
X271040Y99610D01*
X271463Y100033D01*
Y103420D01*
X268770Y69230D02*
Y71770D01*
X263690Y69230D02*
X268770D01*
X263690D02*
Y71770D01*
X268770D01*
X5830Y4880D02*
X8370D01*
Y25200D01*
X5830Y4880D02*
Y25200D01*
X8370D01*
X59130Y48050D02*
X61670D01*
X59130Y32810D02*
X61670D01*
X59130D02*
Y48050D01*
X61670Y32810D02*
Y48050D01*
X5830D02*
X8370D01*
Y27730D02*
Y48050D01*
X5830Y27730D02*
X8370D01*
X5830D02*
Y48050D01*
X160750Y104500D02*
X166050D01*
X160750Y101700D02*
X166050D01*
Y104500D01*
X160750Y101700D02*
Y104500D01*
X160750Y86225D02*
X166050D01*
X160750Y83425D02*
X166050D01*
Y86225D01*
X160750Y83425D02*
Y86225D01*
Y67950D02*
X166050D01*
X160750Y65150D02*
X166050D01*
Y67950D01*
X160750Y65150D02*
Y67950D01*
X160850Y49700D02*
X166150D01*
X160850Y46900D02*
X166150D01*
Y49700D01*
X160850Y46900D02*
Y49700D01*
X160250Y31100D02*
X165550D01*
X160250Y28300D02*
X165550D01*
Y31100D01*
X160250Y28300D02*
Y31100D01*
X61670Y15050D02*
Y30290D01*
X59130Y15050D02*
Y30290D01*
Y15050D02*
X61670D01*
X59130Y30290D02*
X61670D01*
X183738Y97340D02*
X184500D01*
X183738Y92260D02*
Y97340D01*
Y92260D02*
X185262D01*
Y97340D01*
X184500D02*
X185262D01*
X184500Y92031D02*
Y92260D01*
Y97340D02*
Y97569D01*
X184538Y76840D02*
X185300D01*
X184538Y71760D02*
Y76840D01*
Y71760D02*
X186062D01*
Y76840D01*
X185300D02*
X186062D01*
X185300Y71531D02*
Y71760D01*
Y76840D02*
Y77069D01*
X184038Y57240D02*
X184800D01*
X184038Y52160D02*
Y57240D01*
Y52160D02*
X185562D01*
Y57240D01*
X184800D02*
X185562D01*
X184800Y51931D02*
Y52160D01*
Y57240D02*
Y57469D01*
X184238Y36540D02*
X185000D01*
X184238Y31460D02*
Y36540D01*
Y31460D02*
X185762D01*
Y36540D01*
X185000D02*
X185762D01*
X185000Y31231D02*
Y31460D01*
Y36540D02*
Y36769D01*
X184038Y14240D02*
X184800D01*
X184038Y9160D02*
Y14240D01*
Y9160D02*
X185562D01*
Y14240D01*
X184800D02*
X185562D01*
X184800Y8931D02*
Y9160D01*
Y14240D02*
Y14469D01*
X298730Y107270D02*
X301270D01*
Y102190D02*
Y107270D01*
X298730Y102190D02*
X301270D01*
X298730D02*
Y107270D01*
Y91383D02*
X301270D01*
Y86303D02*
Y91383D01*
X298730Y86303D02*
X301270D01*
X298730D02*
Y91383D01*
Y75497D02*
X301270D01*
Y70417D02*
Y75497D01*
X298730Y70417D02*
X301270D01*
X298730D02*
Y75497D01*
X77530Y61460D02*
Y107180D01*
X72450Y61460D02*
Y107180D01*
Y61460D02*
X77530D01*
X72450Y107180D02*
X77530D01*
X29270Y56380D02*
Y58920D01*
X49590D01*
Y56380D02*
Y58920D01*
X29270Y56380D02*
X49590D01*
X52130D02*
Y58920D01*
X72450D01*
Y56380D02*
Y58920D01*
X52130Y56380D02*
X72450D01*
X2600Y104640D02*
Y107180D01*
X22920D01*
Y104640D02*
Y107180D01*
X2600Y104640D02*
X22920D01*
X24190D02*
Y107180D01*
X44510D01*
Y104640D02*
Y107180D01*
X24190Y104640D02*
X44510D01*
X11490Y58920D02*
X26730D01*
X11490Y56380D02*
X26730D01*
Y58920D01*
X11490Y56380D02*
Y58920D01*
X47050Y104640D02*
X67370D01*
Y107180D01*
X47050D02*
X67370D01*
X47050Y104640D02*
Y107180D01*
X180950Y100950D02*
Y105650D01*
X170250Y100950D02*
Y105650D01*
Y100950D02*
X180950D01*
X170250Y105650D02*
X180950D01*
X170250Y105150D02*
X180950D01*
Y79950D02*
Y84650D01*
X170250Y79950D02*
Y84650D01*
Y79950D02*
X180950D01*
X170250Y84650D02*
X180950D01*
X170250Y84150D02*
X180950D01*
Y59650D02*
Y64350D01*
X170250Y59650D02*
Y64350D01*
Y59650D02*
X180950D01*
X170250Y64350D02*
X180950D01*
X170250Y63850D02*
X180950D01*
Y38850D02*
Y43550D01*
X170250Y38850D02*
Y43550D01*
Y38850D02*
X180950D01*
X170250Y43550D02*
X180950D01*
X170250Y43050D02*
X180950D01*
Y18350D02*
Y23050D01*
X170250Y18350D02*
X180950D01*
X298730Y59610D02*
X301270D01*
Y54530D02*
Y59610D01*
X298730Y54530D02*
X301270D01*
X298730D02*
Y59610D01*
X257040Y90800D02*
Y91562D01*
X251960D02*
X257040D01*
X251960Y90038D02*
Y91562D01*
Y90038D02*
X257040D01*
Y90800D01*
X251731D02*
X251960D01*
X257040D02*
X257269D01*
X252160Y87338D02*
Y88100D01*
Y87338D02*
X257240D01*
Y88862D01*
X252160D02*
X257240D01*
X252160Y88100D02*
Y88862D01*
X257240Y88100D02*
X257469D01*
X251931D02*
X252160D01*
X252360Y26438D02*
Y27200D01*
Y26438D02*
X257440D01*
Y27962D01*
X252360D02*
X257440D01*
X252360Y27200D02*
Y27962D01*
X257440Y27200D02*
X257669D01*
X252131D02*
X252360D01*
X257440Y29900D02*
Y30662D01*
X252360D02*
X257440D01*
X252360Y29138D02*
Y30662D01*
Y29138D02*
X257440D01*
Y29900D01*
X252131D02*
X252360D01*
X257440D02*
X257669D01*
X244660Y98790D02*
Y106410D01*
X245930D01*
X244660Y98790D02*
X245930D01*
Y106410D01*
X241273Y99637D02*
X244660D01*
X240850Y100060D02*
X241273Y99637D01*
X240850Y100060D02*
X241273Y100483D01*
X244660D01*
X241273Y102177D02*
X244660D01*
X240850Y102600D02*
X241273Y102177D01*
X240850Y102600D02*
X241273Y103023D01*
X244660D01*
X241273Y104717D02*
X244660D01*
X240850Y105140D02*
X241273Y104717D01*
X240850Y105140D02*
X241273Y105563D01*
X244660D01*
X195840Y98790D02*
Y106410D01*
X194570D02*
X195840D01*
X194570Y98790D02*
X195840D01*
X194570D02*
Y106410D01*
X195840Y99637D02*
X199227D01*
X199650Y100060D01*
X199227Y100483D02*
X199650Y100060D01*
X195840Y100483D02*
X199227D01*
X195840Y102177D02*
X199227D01*
X199650Y102600D01*
X199227Y103023D02*
X199650Y102600D01*
X195840Y103023D02*
X199227D01*
X195840Y104717D02*
X199227D01*
X199650Y105140D01*
X199227Y105563D02*
X199650Y105140D01*
X195840Y105563D02*
X199227D01*
X244660Y76665D02*
Y84285D01*
X245930D01*
X244660Y76665D02*
X245930D01*
Y84285D01*
X241273Y77512D02*
X244660D01*
X240850Y77935D02*
X241273Y77512D01*
X240850Y77935D02*
X241273Y78358D01*
X244660D01*
X241273Y80052D02*
X244660D01*
X240850Y80475D02*
X241273Y80052D01*
X240850Y80475D02*
X241273Y80898D01*
X244660D01*
X241273Y82592D02*
X244660D01*
X240850Y83015D02*
X241273Y82592D01*
X240850Y83015D02*
X241273Y83438D01*
X244660D01*
X195840Y76665D02*
Y84285D01*
X194570D02*
X195840D01*
X194570Y76665D02*
X195840D01*
X194570D02*
Y84285D01*
X195840Y77512D02*
X199227D01*
X199650Y77935D01*
X199227Y78358D02*
X199650Y77935D01*
X195840Y78358D02*
X199227D01*
X195840Y80052D02*
X199227D01*
X199650Y80475D01*
X199227Y80898D02*
X199650Y80475D01*
X195840Y80898D02*
X199227D01*
X195840Y82592D02*
X199227D01*
X199650Y83015D01*
X199227Y83438D02*
X199650Y83015D01*
X195840Y83438D02*
X199227D01*
X244660Y54540D02*
Y62160D01*
X245930D01*
X244660Y54540D02*
X245930D01*
Y62160D01*
X241273Y55387D02*
X244660D01*
X240850Y55810D02*
X241273Y55387D01*
X240850Y55810D02*
X241273Y56233D01*
X244660D01*
X241273Y57927D02*
X244660D01*
X240850Y58350D02*
X241273Y57927D01*
X240850Y58350D02*
X241273Y58773D01*
X244660D01*
X241273Y60467D02*
X244660D01*
X240850Y60890D02*
X241273Y60467D01*
X240850Y60890D02*
X241273Y61313D01*
X244660D01*
X195840Y54540D02*
Y62160D01*
X194570D02*
X195840D01*
X194570Y54540D02*
X195840D01*
X194570D02*
Y62160D01*
X195840Y55387D02*
X199227D01*
X199650Y55810D01*
X199227Y56233D02*
X199650Y55810D01*
X195840Y56233D02*
X199227D01*
X195840Y57927D02*
X199227D01*
X199650Y58350D01*
X199227Y58773D02*
X199650Y58350D01*
X195840Y58773D02*
X199227D01*
X195840Y60467D02*
X199227D01*
X199650Y60890D01*
X199227Y61313D02*
X199650Y60890D01*
X195840Y61313D02*
X199227D01*
X244660Y32415D02*
Y40035D01*
X245930D01*
X244660Y32415D02*
X245930D01*
Y40035D01*
X241273Y33262D02*
X244660D01*
X240850Y33685D02*
X241273Y33262D01*
X240850Y33685D02*
X241273Y34108D01*
X244660D01*
X241273Y35802D02*
X244660D01*
X240850Y36225D02*
X241273Y35802D01*
X240850Y36225D02*
X241273Y36648D01*
X244660D01*
X241273Y38342D02*
X244660D01*
X240850Y38765D02*
X241273Y38342D01*
X240850Y38765D02*
X241273Y39188D01*
X244660D01*
X195840Y32415D02*
Y40035D01*
X194570D02*
X195840D01*
X194570Y32415D02*
X195840D01*
X194570D02*
Y40035D01*
X195840Y33262D02*
X199227D01*
X199650Y33685D01*
X199227Y34108D02*
X199650Y33685D01*
X195840Y34108D02*
X199227D01*
X195840Y35802D02*
X199227D01*
X199650Y36225D01*
X199227Y36648D02*
X199650Y36225D01*
X195840Y36648D02*
X199227D01*
X195840Y38342D02*
X199227D01*
X199650Y38765D01*
X199227Y39188D02*
X199650Y38765D01*
X195840Y39188D02*
X199227D01*
X244660Y10290D02*
Y17910D01*
X245930D01*
X244660Y10290D02*
X245930D01*
Y17910D01*
X241273Y11137D02*
X244660D01*
X240850Y11560D02*
X241273Y11137D01*
X240850Y11560D02*
X241273Y11983D01*
X244660D01*
X241273Y13677D02*
X244660D01*
X240850Y14100D02*
X241273Y13677D01*
X240850Y14100D02*
X241273Y14523D01*
X244660D01*
X241273Y16217D02*
X244660D01*
X240850Y16640D02*
X241273Y16217D01*
X240850Y16640D02*
X241273Y17063D01*
X244660D01*
X195840Y10290D02*
Y17910D01*
X194570D02*
X195840D01*
X194570Y10290D02*
X195840D01*
X194570D02*
Y17910D01*
X195840Y11137D02*
X199227D01*
X199650Y11560D01*
X199227Y11983D02*
X199650Y11560D01*
X195840Y11983D02*
X199227D01*
X195840Y13677D02*
X199227D01*
X199650Y14100D01*
X199227Y14523D02*
X199650Y14100D01*
X195840Y14523D02*
X199227D01*
X195840Y16217D02*
X199227D01*
X199650Y16640D01*
X199227Y17063D02*
X199650Y16640D01*
X195840Y17063D02*
X199227D01*
X111136Y104800D02*
X111898D01*
X118502D02*
X119264D01*
X113168Y103530D02*
Y106070D01*
X111898D02*
X118502D01*
X111898Y103530D02*
Y106070D01*
Y103530D02*
X118502D01*
Y106070D01*
X111136Y99350D02*
X111898D01*
X118502D02*
X119264D01*
X113168Y98080D02*
Y100620D01*
X111898D02*
X118502D01*
X111898Y98080D02*
Y100620D01*
Y98080D02*
X118502D01*
Y100620D01*
X111136Y93900D02*
X111898D01*
X118502D02*
X119264D01*
X113168Y92630D02*
Y95170D01*
X111898D02*
X118502D01*
X111898Y92630D02*
Y95170D01*
Y92630D02*
X118502D01*
Y95170D01*
X97360Y103200D02*
Y103962D01*
X102440D01*
Y102438D02*
Y103962D01*
X97360Y102438D02*
X102440D01*
X97360D02*
Y103200D01*
X102440D02*
X102669D01*
X97131D02*
X97360D01*
Y98600D02*
Y99362D01*
X102440D01*
Y97838D02*
Y99362D01*
X97360Y97838D02*
X102440D01*
X97360D02*
Y98600D01*
X102440D02*
X102669D01*
X97131D02*
X97360D01*
Y94000D02*
Y94762D01*
X102440D01*
Y93238D02*
Y94762D01*
X97360Y93238D02*
X102440D01*
X97360D02*
Y94000D01*
X102440D02*
X102669D01*
X97131D02*
X97360D01*
X111136Y84000D02*
X111898D01*
X118502D02*
X119264D01*
X113168Y82730D02*
Y85270D01*
X111898D02*
X118502D01*
X111898Y82730D02*
Y85270D01*
Y82730D02*
X118502D01*
Y85270D01*
X111136Y78550D02*
X111898D01*
X118502D02*
X119264D01*
X113168Y77280D02*
Y79820D01*
X111898D02*
X118502D01*
X111898Y77280D02*
Y79820D01*
Y77280D02*
X118502D01*
Y79820D01*
X111136Y73100D02*
X111898D01*
X118502D02*
X119264D01*
X113168Y71830D02*
Y74370D01*
X111898D02*
X118502D01*
X111898Y71830D02*
Y74370D01*
Y71830D02*
X118502D01*
Y74370D01*
X97360Y84200D02*
Y84962D01*
X102440D01*
Y83438D02*
Y84962D01*
X97360Y83438D02*
X102440D01*
X97360D02*
Y84200D01*
X102440D02*
X102669D01*
X97131D02*
X97360D01*
Y79550D02*
Y80312D01*
X102440D01*
Y78788D02*
Y80312D01*
X97360Y78788D02*
X102440D01*
X97360D02*
Y79550D01*
X102440D02*
X102669D01*
X97131D02*
X97360D01*
Y74900D02*
Y75662D01*
X102440D01*
Y74138D02*
Y75662D01*
X97360Y74138D02*
X102440D01*
X97360D02*
Y74900D01*
X102440D02*
X102669D01*
X97131D02*
X97360D01*
X111136Y63000D02*
X111898D01*
X118502D02*
X119264D01*
X113168Y61730D02*
Y64270D01*
X111898D02*
X118502D01*
X111898Y61730D02*
Y64270D01*
Y61730D02*
X118502D01*
Y64270D01*
X111136Y57250D02*
X111898D01*
X118502D02*
X119264D01*
X113168Y55980D02*
Y58520D01*
X111898D02*
X118502D01*
X111898Y55980D02*
Y58520D01*
Y55980D02*
X118502D01*
Y58520D01*
X111036Y52400D02*
X111798D01*
X118402D02*
X119164D01*
X113068Y51130D02*
Y53670D01*
X111798D02*
X118402D01*
X111798Y51130D02*
Y53670D01*
Y51130D02*
X118402D01*
Y53670D01*
X97360Y62700D02*
Y63462D01*
X102440D01*
Y61938D02*
Y63462D01*
X97360Y61938D02*
X102440D01*
X97360D02*
Y62700D01*
X102440D02*
X102669D01*
X97131D02*
X97360D01*
Y57650D02*
Y58412D01*
X102440D01*
Y56888D02*
Y58412D01*
X97360Y56888D02*
X102440D01*
X97360D02*
Y57650D01*
X102440D02*
X102669D01*
X97131D02*
X97360D01*
Y52600D02*
Y53362D01*
X102440D01*
Y51838D02*
Y53362D01*
X97360Y51838D02*
X102440D01*
X97360D02*
Y52600D01*
X102440D02*
X102669D01*
X97131D02*
X97360D01*
X111136Y43900D02*
X111898D01*
X118502D02*
X119264D01*
X113168Y42630D02*
Y45170D01*
X111898D02*
X118502D01*
X111898Y42630D02*
Y45170D01*
Y42630D02*
X118502D01*
Y45170D01*
X111136Y38450D02*
X111898D01*
X118502D02*
X119264D01*
X113168Y37180D02*
Y39720D01*
X111898D02*
X118502D01*
X111898Y37180D02*
Y39720D01*
Y37180D02*
X118502D01*
Y39720D01*
X111136Y33000D02*
X111898D01*
X118502D02*
X119264D01*
X113168Y31730D02*
Y34270D01*
X111898D02*
X118502D01*
X111898Y31730D02*
Y34270D01*
Y31730D02*
X118502D01*
Y34270D01*
X97360Y42800D02*
Y43562D01*
X102440D01*
Y42038D02*
Y43562D01*
X97360Y42038D02*
X102440D01*
X97360D02*
Y42800D01*
X102440D02*
X102669D01*
X97131D02*
X97360D01*
Y38600D02*
Y39362D01*
X102440D01*
Y37838D02*
Y39362D01*
X97360Y37838D02*
X102440D01*
X97360D02*
Y38600D01*
X102440D02*
X102669D01*
X97131D02*
X97360D01*
Y34400D02*
Y35162D01*
X102440D01*
Y33638D02*
Y35162D01*
X97360Y33638D02*
X102440D01*
X97360D02*
Y34400D01*
X102440D02*
X102669D01*
X97131D02*
X97360D01*
X111036Y23500D02*
X111798D01*
X118402D02*
X119164D01*
X113068Y22230D02*
Y24770D01*
X111798D02*
X118402D01*
X111798Y22230D02*
Y24770D01*
Y22230D02*
X118402D01*
Y24770D01*
X111136Y18350D02*
X111898D01*
X118502D02*
X119264D01*
X113168Y17080D02*
Y19620D01*
X111898D02*
X118502D01*
X111898Y17080D02*
Y19620D01*
Y17080D02*
X118502D01*
Y19620D01*
X111136Y12700D02*
X111898D01*
X118502D02*
X119264D01*
X113168Y11430D02*
Y13970D01*
X111898D02*
X118502D01*
X111898Y11430D02*
Y13970D01*
Y11430D02*
X118502D01*
Y13970D01*
X97360Y23500D02*
Y24262D01*
X102440D01*
Y22738D02*
Y24262D01*
X97360Y22738D02*
X102440D01*
X97360D02*
Y23500D01*
X102440D02*
X102669D01*
X97131D02*
X97360D01*
Y18850D02*
Y19612D01*
X102440D01*
Y18088D02*
Y19612D01*
X97360Y18088D02*
X102440D01*
X97360D02*
Y18850D01*
X102440D02*
X102669D01*
X97131D02*
X97360D01*
Y14200D02*
Y14962D01*
X102440D01*
Y13438D02*
Y14962D01*
X97360Y13438D02*
X102440D01*
X97360D02*
Y14200D01*
X102440D02*
X102669D01*
X97131D02*
X97360D01*
X160030Y92090D02*
X162570D01*
X160030D02*
Y97170D01*
X162570D01*
Y92090D02*
Y97170D01*
D21*
X173587Y88253D02*
G03*
X178413Y88253I2413J0D01*
G01*
X173587Y67753D02*
G03*
X178413Y67753I2413J0D01*
G01*
X173587Y47253D02*
G03*
X178413Y47253I2413J0D01*
G01*
X173187Y5853D02*
G03*
X178013Y5853I2413J0D01*
G01*
X173287Y26453D02*
G03*
X178113Y26453I2413J0D01*
G01*
X172952Y90793D02*
Y99810D01*
Y90793D02*
X179048D01*
Y99810D01*
X173587Y88253D02*
Y90793D01*
X178413Y88253D02*
Y90793D01*
X172952Y99810D02*
X174095D01*
Y97270D02*
Y99810D01*
Y97270D02*
X177905D01*
Y99810D01*
X179048D01*
X172952Y70293D02*
Y79310D01*
Y70293D02*
X179048D01*
X173587Y67753D02*
Y70293D01*
X178413Y67753D02*
Y70293D01*
X179048D02*
Y79310D01*
X177905D02*
X179048D01*
X177905Y76770D02*
Y79310D01*
X172952D02*
X174095D01*
Y76770D02*
Y79310D01*
Y76770D02*
X177905D01*
X172952Y49793D02*
Y58810D01*
X174095D01*
Y56270D02*
Y58810D01*
Y56270D02*
X177905D01*
Y58810D02*
X179048D01*
X177905Y56270D02*
Y58810D01*
X178413Y47253D02*
Y49793D01*
X173587Y47253D02*
Y49793D01*
X179048D02*
Y58810D01*
X172952Y49793D02*
X179048D01*
X172552Y8393D02*
Y17410D01*
Y8393D02*
X178648D01*
Y17410D01*
X173187Y5853D02*
Y8393D01*
X178013Y5853D02*
Y8393D01*
X172552Y17410D02*
X173695D01*
Y14870D02*
Y17410D01*
Y14870D02*
X177505D01*
Y17410D01*
X178648D01*
X172652Y28993D02*
Y38010D01*
Y28993D02*
X178748D01*
Y38010D01*
X173287Y26453D02*
Y28993D01*
X178113Y26453D02*
Y28993D01*
X172652Y38010D02*
X173795D01*
Y35470D02*
Y38010D01*
Y35470D02*
X177605D01*
Y38010D01*
X178748D01*
D22*
X5300Y98599D02*
X7204Y93600D01*
X9109Y98599D02*
X7204Y93600D01*
X13560D02*
X11656Y98599D01*
X9751Y93600D01*
X10466Y95266D02*
X12846D01*
X14727Y98599D02*
Y93600D01*
Y98599D02*
X16869D01*
X17583Y98361D01*
X17821Y98123D01*
X18059Y97647D01*
Y97171D01*
X17821Y96695D01*
X17583Y96457D01*
X16869Y96218D01*
X14727D01*
X16393D02*
X18059Y93600D01*
X19178Y98599D02*
Y95028D01*
X19416Y94314D01*
X19892Y93838D01*
X20606Y93600D01*
X21082D01*
X21796Y93838D01*
X22273Y94314D01*
X22511Y95028D01*
Y98599D01*
X23891D02*
Y93600D01*
Y98599D02*
X27224Y93600D01*
Y98599D02*
Y93600D01*
M02*
