%FSLAX43Y43*%
%MOMM*%
G71*
G01*
G75*
G04 Layer_Color=16711935*
%ADD10C,0.250*%
%ADD11C,0.254*%
%ADD12C,0.100*%
%ADD13C,1.500*%
%ADD14C,1.500*%
%ADD15C,1.400*%
%ADD16C,1.778*%
%ADD17C,1.600*%
%ADD18C,1.000*%
%ADD19C,2.000*%
%ADD20C,0.200*%
%ADD21C,0.127*%
%ADD22C,0.500*%
%ADD23C,1.700*%
%ADD24C,1.700*%
%ADD25C,1.600*%
%ADD26C,1.978*%
%ADD27C,1.800*%
D12*
X170250Y105650D02*
X180950D01*
X170250Y100950D02*
X180950D01*
X170250D02*
Y105650D01*
X180950Y100950D02*
Y105650D01*
X170250Y104350D02*
X180950D01*
X170250Y84650D02*
X180950D01*
X170250Y79950D02*
X180950D01*
X170250D02*
Y84650D01*
X180950Y79950D02*
Y84650D01*
X170250Y83350D02*
X180950D01*
X170250Y64350D02*
X180950D01*
X170250Y59650D02*
X180950D01*
X170250D02*
Y64350D01*
X180950Y59650D02*
Y64350D01*
X170250Y63050D02*
X180950D01*
X170250Y43550D02*
X180950D01*
X170250Y38850D02*
X180950D01*
X170250D02*
Y43550D01*
X180950Y38850D02*
Y43550D01*
X170250Y42250D02*
X180950D01*
X170250Y18350D02*
X180950D01*
Y23050D01*
X170250Y21750D02*
X180950D01*
X-0Y-0D02*
Y114000D01*
Y-0D02*
X310000D01*
Y114000D01*
X-0D02*
X310000D01*
M02*
