%FSLAX43Y43*%
%MOMM*%
G71*
G01*
G75*
G04 Layer_Color=2752767*
%ADD10C,0.250*%
%ADD11C,0.254*%
%ADD12C,0.100*%
%ADD13C,1.500*%
%ADD14C,1.500*%
%ADD15C,1.400*%
%ADD16C,1.778*%
%ADD17C,1.600*%
%ADD18C,1.000*%
%ADD19C,2.000*%
%ADD20C,0.200*%
%ADD21C,0.127*%
%ADD22C,0.500*%
%ADD23C,1.700*%
%ADD24C,1.700*%
%ADD25C,1.600*%
%ADD26C,1.978*%
%ADD27C,1.800*%
%ADD28C,0.169*%
D12*
X-0Y-0D02*
Y114000D01*
Y-0D02*
X310000D01*
Y114000D01*
X-0D02*
X310000D01*
D21*
X145812Y34462D02*
Y35478D01*
X146828D01*
Y34462D01*
X145812D01*
X143272D02*
Y35478D01*
X144288D01*
Y34462D01*
X143272D01*
X140732D02*
Y35478D01*
X141748D01*
Y34462D01*
X140732D01*
X138192D02*
Y35478D01*
X139208D01*
Y34462D01*
X138192D01*
X135652D02*
Y35478D01*
X136668D01*
Y34462D01*
X135652D01*
X133112D02*
Y35478D01*
X134128D01*
Y34462D01*
X133112D01*
X130572D02*
Y35478D01*
X131588D01*
Y34462D01*
X130572D01*
X145812Y26842D02*
Y27858D01*
X146828D01*
Y26842D01*
X145812D01*
X143272D02*
Y27858D01*
X144288D01*
Y26842D01*
X143272D01*
X140732D02*
Y27858D01*
X141748D01*
Y26842D01*
X140732D01*
X138192D02*
Y27858D01*
X139208D01*
Y26842D01*
X138192D01*
X135652D02*
Y27858D01*
X136668D01*
Y26842D01*
X135652D01*
X133112D02*
Y27858D01*
X134128D01*
Y26842D01*
X133112D01*
X130572D02*
Y27858D01*
X131588D01*
Y26842D01*
X130572D01*
X145812Y51632D02*
Y52648D01*
X146828D01*
Y51632D01*
X145812D01*
X143272D02*
Y52648D01*
X144288D01*
Y51632D01*
X143272D01*
X140732D02*
Y52648D01*
X141748D01*
Y51632D01*
X140732D01*
X138192D02*
Y52648D01*
X139208D01*
Y51632D01*
X138192D01*
X135652D02*
Y52648D01*
X136668D01*
Y51632D01*
X135652D01*
X133112D02*
Y52648D01*
X134128D01*
Y51632D01*
X133112D01*
X130572D02*
Y52648D01*
X131588D01*
Y51632D01*
X130572D01*
X145812Y44012D02*
Y45028D01*
X146828D01*
Y44012D01*
X145812D01*
X143272D02*
Y45028D01*
X144288D01*
Y44012D01*
X143272D01*
X140732D02*
Y45028D01*
X141748D01*
Y44012D01*
X140732D01*
X138192D02*
Y45028D01*
X139208D01*
Y44012D01*
X138192D01*
X135652D02*
Y45028D01*
X136668D01*
Y44012D01*
X135652D01*
X133112D02*
Y45028D01*
X134128D01*
Y44012D01*
X133112D01*
X130572D02*
Y45028D01*
X131588D01*
Y44012D01*
X130572D01*
X145632Y86702D02*
Y87718D01*
X146648D01*
Y86702D01*
X145632D01*
X143092D02*
Y87718D01*
X144108D01*
Y86702D01*
X143092D01*
X140552D02*
Y87718D01*
X141568D01*
Y86702D01*
X140552D01*
X138012D02*
Y87718D01*
X139028D01*
Y86702D01*
X138012D01*
X135472D02*
Y87718D01*
X136488D01*
Y86702D01*
X135472D01*
X132932D02*
Y87718D01*
X133948D01*
Y86702D01*
X132932D01*
X130392D02*
Y87718D01*
X131408D01*
Y86702D01*
X130392D01*
X145632Y79082D02*
Y80098D01*
X146648D01*
Y79082D01*
X145632D01*
X143092D02*
Y80098D01*
X144108D01*
Y79082D01*
X143092D01*
X140552D02*
Y80098D01*
X141568D01*
Y79082D01*
X140552D01*
X138012D02*
Y80098D01*
X139028D01*
Y79082D01*
X138012D01*
X135472D02*
Y80098D01*
X136488D01*
Y79082D01*
X135472D01*
X132932D02*
Y80098D01*
X133948D01*
Y79082D01*
X132932D01*
X130392D02*
Y80098D01*
X131408D01*
Y79082D01*
X130392D01*
X145632Y105312D02*
Y106328D01*
X146648D01*
Y105312D01*
X145632D01*
X143092D02*
Y106328D01*
X144108D01*
Y105312D01*
X143092D01*
X140552D02*
Y106328D01*
X141568D01*
Y105312D01*
X140552D01*
X138012D02*
Y106328D01*
X139028D01*
Y105312D01*
X138012D01*
X135472D02*
Y106328D01*
X136488D01*
Y105312D01*
X135472D01*
X132932D02*
Y106328D01*
X133948D01*
Y105312D01*
X132932D01*
X130392D02*
Y106328D01*
X131408D01*
Y105312D01*
X130392D01*
X145632Y97692D02*
Y98708D01*
X146648D01*
Y97692D01*
X145632D01*
X143092D02*
Y98708D01*
X144108D01*
Y97692D01*
X143092D01*
X140552D02*
Y98708D01*
X141568D01*
Y97692D01*
X140552D01*
X138012D02*
Y98708D01*
X139028D01*
Y97692D01*
X138012D01*
X135472D02*
Y98708D01*
X136488D01*
Y97692D01*
X135472D01*
X132932D02*
Y98708D01*
X133948D01*
Y97692D01*
X132932D01*
X130392D02*
Y98708D01*
X131408D01*
Y97692D01*
X130392D01*
X145672Y17292D02*
Y18308D01*
X146688D01*
Y17292D01*
X145672D01*
X143132D02*
Y18308D01*
X144148D01*
Y17292D01*
X143132D01*
X140592D02*
Y18308D01*
X141608D01*
Y17292D01*
X140592D01*
X138052D02*
Y18308D01*
X139068D01*
Y17292D01*
X138052D01*
X135512D02*
Y18308D01*
X136528D01*
Y17292D01*
X135512D01*
X132972D02*
Y18308D01*
X133988D01*
Y17292D01*
X132972D01*
X130432D02*
Y18308D01*
X131448D01*
Y17292D01*
X130432D01*
X145672Y9672D02*
Y10688D01*
X146688D01*
Y9672D01*
X145672D01*
X143132D02*
Y10688D01*
X144148D01*
Y9672D01*
X143132D01*
X140592D02*
Y10688D01*
X141608D01*
Y9672D01*
X140592D01*
X138052D02*
Y10688D01*
X139068D01*
Y9672D01*
X138052D01*
X135512D02*
Y10688D01*
X136528D01*
Y9672D01*
X135512D01*
X132972D02*
Y10688D01*
X133988D01*
Y9672D01*
X132972D01*
X130432D02*
Y10688D01*
X131448D01*
Y9672D01*
X130432D01*
X145812Y68802D02*
Y69818D01*
X146828D01*
Y68802D01*
X145812D01*
X143272D02*
Y69818D01*
X144288D01*
Y68802D01*
X143272D01*
X140732D02*
Y69818D01*
X141748D01*
Y68802D01*
X140732D01*
X138192D02*
Y69818D01*
X139208D01*
Y68802D01*
X138192D01*
X135652D02*
Y69818D01*
X136668D01*
Y68802D01*
X135652D01*
X133112D02*
Y69818D01*
X134128D01*
Y68802D01*
X133112D01*
X130572D02*
Y69818D01*
X131588D01*
Y68802D01*
X130572D01*
X145812Y61182D02*
Y62198D01*
X146828D01*
Y61182D01*
X145812D01*
X143272D02*
Y62198D01*
X144288D01*
Y61182D01*
X143272D01*
X140732D02*
Y62198D01*
X141748D01*
Y61182D01*
X140732D01*
X138192D02*
Y62198D01*
X139208D01*
Y61182D01*
X138192D01*
X135652D02*
Y62198D01*
X136668D01*
Y61182D01*
X135652D01*
X133112D02*
Y62198D01*
X134128D01*
Y61182D01*
X133112D01*
X130572D02*
Y62198D01*
X131588D01*
Y61182D01*
X130572D01*
X88592Y95152D02*
Y96168D01*
X89608D01*
Y95152D01*
X88592D01*
Y97692D02*
Y98708D01*
X89608D01*
Y97692D01*
X88592D01*
Y100232D02*
Y101248D01*
X89608D01*
Y100232D01*
X88592D01*
Y102772D02*
Y103788D01*
X89608D01*
Y102772D01*
X88592D01*
Y75182D02*
Y76198D01*
X89608D01*
Y75182D01*
X88592D01*
Y77722D02*
Y78738D01*
X89608D01*
Y77722D01*
X88592D01*
Y80262D02*
Y81278D01*
X89608D01*
Y80262D01*
X88592D01*
Y82802D02*
Y83818D01*
X89608D01*
Y82802D01*
X88592D01*
Y55212D02*
Y56228D01*
X89608D01*
Y55212D01*
X88592D01*
Y57752D02*
Y58768D01*
X89608D01*
Y57752D01*
X88592D01*
Y60292D02*
Y61308D01*
X89608D01*
Y60292D01*
X88592D01*
Y62832D02*
Y63848D01*
X89608D01*
Y62832D01*
X88592D01*
Y35242D02*
Y36258D01*
X89608D01*
Y35242D01*
X88592D01*
Y37782D02*
Y38798D01*
X89608D01*
Y37782D01*
X88592D01*
Y40322D02*
Y41338D01*
X89608D01*
Y40322D01*
X88592D01*
Y42862D02*
Y43878D01*
X89608D01*
Y42862D01*
X88592D01*
Y15272D02*
Y16288D01*
X89608D01*
Y15272D01*
X88592D01*
Y17812D02*
Y18828D01*
X89608D01*
Y17812D01*
X88592D01*
Y20352D02*
Y21368D01*
X89608D01*
Y20352D01*
X88592D01*
Y22892D02*
Y23908D01*
X89608D01*
Y22892D01*
X88592D01*
X288132Y43152D02*
Y44168D01*
X289148D01*
Y43152D01*
X288132D01*
X285592D02*
Y44168D01*
X286608D01*
Y43152D01*
X285592D01*
X283052D02*
Y44168D01*
X284068D01*
Y43152D01*
X283052D01*
X265452Y105452D02*
Y106468D01*
X266468D01*
Y105452D01*
X265452D01*
X267992D02*
Y106468D01*
X269008D01*
Y105452D01*
X267992D01*
X270532D02*
Y106468D01*
X271548D01*
Y105452D01*
X270532D01*
X6692Y5642D02*
Y6658D01*
X7708D01*
Y5642D01*
X6692D01*
X6592Y23422D02*
Y24438D01*
X7608D01*
Y23422D01*
X6592D01*
Y20882D02*
Y21898D01*
X7608D01*
Y20882D01*
X6592D01*
Y18342D02*
Y19358D01*
X7608D01*
Y18342D01*
X6592D01*
Y15802D02*
Y16818D01*
X7608D01*
Y15802D01*
X6592D01*
Y13262D02*
Y14278D01*
X7608D01*
Y13262D01*
X6592D01*
Y10722D02*
Y11738D01*
X7608D01*
Y10722D01*
X6592D01*
Y8182D02*
Y9198D01*
X7608D01*
Y8182D01*
X6592D01*
X59892Y33572D02*
Y34588D01*
X60908D01*
Y33572D01*
X59892D01*
Y36112D02*
Y37128D01*
X60908D01*
Y36112D01*
X59892D01*
Y38652D02*
Y39668D01*
X60908D01*
Y38652D01*
X59892D01*
Y41192D02*
Y42208D01*
X60908D01*
Y41192D01*
X59892D01*
Y43732D02*
Y44748D01*
X60908D01*
Y43732D01*
X59892D01*
Y46272D02*
Y47288D01*
X60908D01*
Y46272D01*
X59892D01*
X6592Y28492D02*
Y29508D01*
X7608D01*
Y28492D01*
X6592D01*
Y31032D02*
Y32048D01*
X7608D01*
Y31032D01*
X6592D01*
Y33572D02*
Y34588D01*
X7608D01*
Y33572D01*
X6592D01*
Y36112D02*
Y37128D01*
X7608D01*
Y36112D01*
X6592D01*
Y38652D02*
Y39668D01*
X7608D01*
Y38652D01*
X6592D01*
Y41192D02*
Y42208D01*
X7608D01*
Y41192D01*
X6592D01*
Y43732D02*
Y44748D01*
X7608D01*
Y43732D01*
X6592D01*
Y46272D02*
Y47288D01*
X7608D01*
Y46272D01*
X6592D01*
X157067Y102592D02*
Y103608D01*
X158083D01*
Y102592D01*
X157067D01*
X168717D02*
Y103608D01*
X169733D01*
Y102592D01*
X168717D01*
X157067Y84317D02*
Y85333D01*
X158083D01*
Y84317D01*
X157067D01*
X168717D02*
Y85333D01*
X169733D01*
Y84317D01*
X168717D01*
X157067Y66042D02*
Y67058D01*
X158083D01*
Y66042D01*
X157067D01*
X168717D02*
Y67058D01*
X169733D01*
Y66042D01*
X168717D01*
X157167Y47792D02*
Y48808D01*
X158183D01*
Y47792D01*
X157167D01*
X168817D02*
Y48808D01*
X169833D01*
Y47792D01*
X168817D01*
X156567Y29192D02*
Y30208D01*
X157583D01*
Y29192D01*
X156567D01*
X168217D02*
Y30208D01*
X169233D01*
Y29192D01*
X168217D01*
X59892Y28512D02*
Y29528D01*
X60908D01*
Y28512D01*
X59892D01*
Y25972D02*
Y26988D01*
X60908D01*
Y25972D01*
X59892D01*
Y23432D02*
Y24448D01*
X60908D01*
Y23432D01*
X59892D01*
Y20892D02*
Y21908D01*
X60908D01*
Y20892D01*
X59892D01*
Y18352D02*
Y19368D01*
X60908D01*
Y18352D01*
X59892D01*
Y15812D02*
Y16828D01*
X60908D01*
Y15812D01*
X59892D01*
X184500Y98102D02*
X183992Y99118D01*
X185008D01*
X184500Y98102D01*
Y90482D02*
X183992Y91498D01*
X185008D01*
X184500Y90482D01*
X177270Y95492D02*
X177524Y95746D01*
X177778D01*
X177524Y96000D01*
X177778Y96254D01*
X177524D01*
X177270Y96508D01*
X177016Y96254D01*
X176762D01*
X177016Y96000D01*
X176762Y95746D01*
X177016D01*
X177270Y95492D01*
X174730D02*
X174984Y95746D01*
X175238D01*
X174984Y96000D01*
X175238Y96254D01*
X174984D01*
X174730Y96508D01*
X174476Y96254D01*
X174222D01*
X174476Y96000D01*
X174222Y95746D01*
X174476D01*
X174730Y95492D01*
X185300Y77602D02*
X184792Y78618D01*
X185808D01*
X185300Y77602D01*
Y69982D02*
X184792Y70998D01*
X185808D01*
X185300Y69982D01*
X177270Y74992D02*
X177524Y75246D01*
X177778D01*
X177524Y75500D01*
X177778Y75754D01*
X177524D01*
X177270Y76008D01*
X177016Y75754D01*
X176762D01*
X177016Y75500D01*
X176762Y75246D01*
X177016D01*
X177270Y74992D01*
X174730D02*
X174984Y75246D01*
X175238D01*
X174984Y75500D01*
X175238Y75754D01*
X174984D01*
X174730Y76008D01*
X174476Y75754D01*
X174222D01*
X174476Y75500D01*
X174222Y75246D01*
X174476D01*
X174730Y74992D01*
X184800Y58002D02*
X184292Y59018D01*
X185308D01*
X184800Y58002D01*
Y50382D02*
X184292Y51398D01*
X185308D01*
X184800Y50382D01*
X185000Y37302D02*
X184492Y38318D01*
X185508D01*
X185000Y37302D01*
Y29682D02*
X184492Y30698D01*
X185508D01*
X185000Y29682D01*
X184800Y15002D02*
X184292Y16018D01*
X185308D01*
X184800Y15002D01*
Y7382D02*
X184292Y8398D01*
X185308D01*
X184800Y7382D01*
X73212Y105402D02*
Y106418D01*
X74228D01*
Y105402D01*
X73212D01*
X75752D02*
Y106418D01*
X76768D01*
Y105402D01*
X75752D01*
X73212Y102862D02*
Y103878D01*
X74228D01*
Y102862D01*
X73212D01*
X75752D02*
Y103878D01*
X76768D01*
Y102862D01*
X75752D01*
X73212Y100322D02*
Y101338D01*
X74228D01*
Y100322D01*
X73212D01*
X75752D02*
Y101338D01*
X76768D01*
Y100322D01*
X75752D01*
X73212Y97782D02*
Y98798D01*
X74228D01*
Y97782D01*
X73212D01*
X75752D02*
Y98798D01*
X76768D01*
Y97782D01*
X75752D01*
X73212Y95242D02*
Y96258D01*
X74228D01*
Y95242D01*
X73212D01*
X75752D02*
Y96258D01*
X76768D01*
Y95242D01*
X75752D01*
X73212Y92702D02*
Y93718D01*
X74228D01*
Y92702D01*
X73212D01*
X75752D02*
Y93718D01*
X76768D01*
Y92702D01*
X75752D01*
X73212Y90162D02*
Y91178D01*
X74228D01*
Y90162D01*
X73212D01*
X75752D02*
Y91178D01*
X76768D01*
Y90162D01*
X75752D01*
X73212Y87622D02*
Y88638D01*
X74228D01*
Y87622D01*
X73212D01*
X75752D02*
Y88638D01*
X76768D01*
Y87622D01*
X75752D01*
X73212Y85082D02*
Y86098D01*
X74228D01*
Y85082D01*
X73212D01*
X75752D02*
Y86098D01*
X76768D01*
Y85082D01*
X75752D01*
X73212Y82542D02*
Y83558D01*
X74228D01*
Y82542D01*
X73212D01*
X75752D02*
Y83558D01*
X76768D01*
Y82542D01*
X75752D01*
X73212Y80002D02*
Y81018D01*
X74228D01*
Y80002D01*
X73212D01*
X75752D02*
Y81018D01*
X76768D01*
Y80002D01*
X75752D01*
X73212Y77462D02*
Y78478D01*
X74228D01*
Y77462D01*
X73212D01*
X75752D02*
Y78478D01*
X76768D01*
Y77462D01*
X75752D01*
X73212Y74922D02*
Y75938D01*
X74228D01*
Y74922D01*
X73212D01*
X75752D02*
Y75938D01*
X76768D01*
Y74922D01*
X75752D01*
X73212Y72382D02*
Y73398D01*
X74228D01*
Y72382D01*
X73212D01*
X75752D02*
Y73398D01*
X76768D01*
Y72382D01*
X75752D01*
X73212Y69842D02*
Y70858D01*
X74228D01*
Y69842D01*
X73212D01*
X75752D02*
Y70858D01*
X76768D01*
Y69842D01*
X75752D01*
X73212Y67302D02*
Y68318D01*
X74228D01*
Y67302D01*
X73212D01*
X75752D02*
Y68318D01*
X76768D01*
Y67302D01*
X75752D01*
X73212Y64762D02*
Y65778D01*
X74228D01*
Y64762D01*
X73212D01*
X75752D02*
Y65778D01*
X76768D01*
Y64762D01*
X75752D01*
X73212Y62222D02*
Y63238D01*
X74228D01*
Y62222D01*
X73212D01*
X75752D02*
Y63238D01*
X76768D01*
Y62222D01*
X75752D01*
X47812Y57142D02*
Y58158D01*
X48828D01*
Y57142D01*
X47812D01*
X45272D02*
Y58158D01*
X46288D01*
Y57142D01*
X45272D01*
X42732D02*
Y58158D01*
X43748D01*
Y57142D01*
X42732D01*
X40192D02*
Y58158D01*
X41208D01*
Y57142D01*
X40192D01*
X37652D02*
Y58158D01*
X38668D01*
Y57142D01*
X37652D01*
X35112D02*
Y58158D01*
X36128D01*
Y57142D01*
X35112D01*
X32572D02*
Y58158D01*
X33588D01*
Y57142D01*
X32572D01*
X30032D02*
Y58158D01*
X31048D01*
Y57142D01*
X30032D01*
X70672D02*
Y58158D01*
X71688D01*
Y57142D01*
X70672D01*
X68132D02*
Y58158D01*
X69148D01*
Y57142D01*
X68132D01*
X65592D02*
Y58158D01*
X66608D01*
Y57142D01*
X65592D01*
X63052D02*
Y58158D01*
X64068D01*
Y57142D01*
X63052D01*
X60512D02*
Y58158D01*
X61528D01*
Y57142D01*
X60512D01*
X57972D02*
Y58158D01*
X58988D01*
Y57142D01*
X57972D01*
X55432D02*
Y58158D01*
X56448D01*
Y57142D01*
X55432D01*
X52892D02*
Y58158D01*
X53908D01*
Y57142D01*
X52892D01*
X21142Y105402D02*
Y106418D01*
X22158D01*
Y105402D01*
X21142D01*
X18602D02*
Y106418D01*
X19618D01*
Y105402D01*
X18602D01*
X16062D02*
Y106418D01*
X17078D01*
Y105402D01*
X16062D01*
X13522D02*
Y106418D01*
X14538D01*
Y105402D01*
X13522D01*
X10982D02*
Y106418D01*
X11998D01*
Y105402D01*
X10982D01*
X8442D02*
Y106418D01*
X9458D01*
Y105402D01*
X8442D01*
X5902D02*
Y106418D01*
X6918D01*
Y105402D01*
X5902D01*
X3362D02*
Y106418D01*
X4378D01*
Y105402D01*
X3362D01*
X42732D02*
Y106418D01*
X43748D01*
Y105402D01*
X42732D01*
X40192D02*
Y106418D01*
X41208D01*
Y105402D01*
X40192D01*
X37652D02*
Y106418D01*
X38668D01*
Y105402D01*
X37652D01*
X35112D02*
Y106418D01*
X36128D01*
Y105402D01*
X35112D01*
X32572D02*
Y106418D01*
X33588D01*
Y105402D01*
X32572D01*
X30032D02*
Y106418D01*
X31048D01*
Y105402D01*
X30032D01*
X27492D02*
Y106418D01*
X28508D01*
Y105402D01*
X27492D01*
X24952D02*
Y106418D01*
X25968D01*
Y105402D01*
X24952D01*
X12252Y57142D02*
Y58158D01*
X13268D01*
Y57142D01*
X12252D01*
X14792D02*
Y58158D01*
X15808D01*
Y57142D01*
X14792D01*
X17332D02*
Y58158D01*
X18348D01*
Y57142D01*
X17332D01*
X19872D02*
Y58158D01*
X20888D01*
Y57142D01*
X19872D01*
X22412D02*
Y58158D01*
X23428D01*
Y57142D01*
X22412D01*
X24952D02*
Y58158D01*
X25968D01*
Y57142D01*
X24952D01*
X47812Y105402D02*
Y106418D01*
X48828D01*
Y105402D01*
X47812D01*
X50352D02*
Y106418D01*
X51368D01*
Y105402D01*
X50352D01*
X52892D02*
Y106418D01*
X53908D01*
Y105402D01*
X52892D01*
X55432D02*
Y106418D01*
X56448D01*
Y105402D01*
X55432D01*
X57972D02*
Y106418D01*
X58988D01*
Y105402D01*
X57972D01*
X60512D02*
Y106418D01*
X61528D01*
Y105402D01*
X60512D01*
X63052D02*
Y106418D01*
X64068D01*
Y105402D01*
X63052D01*
X65592D02*
Y106418D01*
X66608D01*
Y105402D01*
X65592D01*
X177632Y102292D02*
X177886Y102800D01*
X177632Y103308D01*
X178140Y103054D01*
X178648Y103308D01*
X178394Y102800D01*
X178648Y102292D01*
X178140Y102546D01*
X177632Y102292D01*
X175092D02*
X175346Y102800D01*
X175092Y103308D01*
X175600Y103054D01*
X176108Y103308D01*
X175854Y102800D01*
X176108Y102292D01*
X175600Y102546D01*
X175092Y102292D01*
X172552D02*
X172806Y102800D01*
X172552Y103308D01*
X173060Y103054D01*
X173568Y103308D01*
X173314Y102800D01*
X173568Y102292D01*
X173060Y102546D01*
X172552Y102292D01*
X177632Y81292D02*
X177886Y81800D01*
X177632Y82308D01*
X178140Y82054D01*
X178648Y82308D01*
X178394Y81800D01*
X178648Y81292D01*
X178140Y81546D01*
X177632Y81292D01*
X175092D02*
X175346Y81800D01*
X175092Y82308D01*
X175600Y82054D01*
X176108Y82308D01*
X175854Y81800D01*
X176108Y81292D01*
X175600Y81546D01*
X175092Y81292D01*
X172552D02*
X172806Y81800D01*
X172552Y82308D01*
X173060Y82054D01*
X173568Y82308D01*
X173314Y81800D01*
X173568Y81292D01*
X173060Y81546D01*
X172552Y81292D01*
X177632Y60992D02*
X177886Y61500D01*
X177632Y62008D01*
X178140Y61754D01*
X178648Y62008D01*
X178394Y61500D01*
X178648Y60992D01*
X178140Y61246D01*
X177632Y60992D01*
X175092D02*
X175346Y61500D01*
X175092Y62008D01*
X175600Y61754D01*
X176108Y62008D01*
X175854Y61500D01*
X176108Y60992D01*
X175600Y61246D01*
X175092Y60992D01*
X172552D02*
X172806Y61500D01*
X172552Y62008D01*
X173060Y61754D01*
X173568Y62008D01*
X173314Y61500D01*
X173568Y60992D01*
X173060Y61246D01*
X172552Y60992D01*
X177632Y40192D02*
X177886Y40700D01*
X177632Y41208D01*
X178140Y40954D01*
X178648Y41208D01*
X178394Y40700D01*
X178648Y40192D01*
X178140Y40446D01*
X177632Y40192D01*
X175092D02*
X175346Y40700D01*
X175092Y41208D01*
X175600Y40954D01*
X176108Y41208D01*
X175854Y40700D01*
X176108Y40192D01*
X175600Y40446D01*
X175092Y40192D01*
X172552D02*
X172806Y40700D01*
X172552Y41208D01*
X173060Y40954D01*
X173568Y41208D01*
X173314Y40700D01*
X173568Y40192D01*
X173060Y40446D01*
X172552Y40192D01*
X177632Y19692D02*
X177886Y20200D01*
X177632Y20708D01*
X178140Y20454D01*
X178648Y20708D01*
X178394Y20200D01*
X178648Y19692D01*
X178140Y19946D01*
X177632Y19692D01*
X175092D02*
X175346Y20200D01*
X175092Y20708D01*
X175600Y20454D01*
X176108Y20708D01*
X175854Y20200D01*
X176108Y19692D01*
X175600Y19946D01*
X175092Y19692D01*
X172552D02*
X172806Y20200D01*
X172552Y20708D01*
X173060Y20454D01*
X173568Y20708D01*
X173314Y20200D01*
X173568Y19692D01*
X173060Y19946D01*
X172552Y19692D01*
X258310Y90292D02*
X257802Y91308D01*
X258818D01*
X258310Y90292D01*
X250690D02*
X250182Y91308D01*
X251198D01*
X250690Y90292D01*
X250890Y87592D02*
X250382Y88608D01*
X251398D01*
X250890Y87592D01*
X258510D02*
X258002Y88608D01*
X259018D01*
X258510Y87592D01*
X251090Y26692D02*
X250582Y27708D01*
X251598D01*
X251090Y26692D01*
X258710D02*
X258202Y27708D01*
X259218D01*
X258710Y26692D01*
Y29392D02*
X258202Y30408D01*
X259218D01*
X258710Y29392D01*
X251090D02*
X250582Y30408D01*
X251598D01*
X251090Y29392D01*
X246692Y99552D02*
Y100568D01*
X247708D01*
Y99552D01*
X246692D01*
Y102092D02*
Y103108D01*
X247708D01*
Y102092D01*
X246692D01*
Y104632D02*
Y105648D01*
X247708D01*
Y104632D01*
X246692D01*
Y77427D02*
Y78443D01*
X247708D01*
Y77427D01*
X246692D01*
Y79967D02*
Y80983D01*
X247708D01*
Y79967D01*
X246692D01*
Y82507D02*
Y83523D01*
X247708D01*
Y82507D01*
X246692D01*
Y55302D02*
Y56318D01*
X247708D01*
Y55302D01*
X246692D01*
Y57842D02*
Y58858D01*
X247708D01*
Y57842D01*
X246692D01*
Y60382D02*
Y61398D01*
X247708D01*
Y60382D01*
X246692D01*
Y33177D02*
Y34193D01*
X247708D01*
Y33177D01*
X246692D01*
Y35717D02*
Y36733D01*
X247708D01*
Y35717D01*
X246692D01*
Y38257D02*
Y39273D01*
X247708D01*
Y38257D01*
X246692D01*
Y11052D02*
Y12068D01*
X247708D01*
Y11052D01*
X246692D01*
Y13592D02*
Y14608D01*
X247708D01*
Y13592D01*
X246692D01*
Y16132D02*
Y17148D01*
X247708D01*
Y16132D01*
X246692D01*
X110120Y104292D02*
X109612Y105308D01*
X110628D01*
X110120Y104292D01*
X120280D02*
X119772Y105308D01*
X120788D01*
X120280Y104292D01*
X110120Y98842D02*
X109612Y99858D01*
X110628D01*
X110120Y98842D01*
X120280D02*
X119772Y99858D01*
X120788D01*
X120280Y98842D01*
X110120Y93392D02*
X109612Y94408D01*
X110628D01*
X110120Y93392D01*
X120280D02*
X119772Y94408D01*
X120788D01*
X120280Y93392D01*
X96090Y102692D02*
X95582Y103708D01*
X96598D01*
X96090Y102692D01*
X103710D02*
X103202Y103708D01*
X104218D01*
X103710Y102692D01*
X96090Y98092D02*
X95582Y99108D01*
X96598D01*
X96090Y98092D01*
X103710D02*
X103202Y99108D01*
X104218D01*
X103710Y98092D01*
X96090Y93492D02*
X95582Y94508D01*
X96598D01*
X96090Y93492D01*
X103710D02*
X103202Y94508D01*
X104218D01*
X103710Y93492D01*
X110120Y83492D02*
X109612Y84508D01*
X110628D01*
X110120Y83492D01*
X120280D02*
X119772Y84508D01*
X120788D01*
X120280Y83492D01*
X110120Y78042D02*
X109612Y79058D01*
X110628D01*
X110120Y78042D01*
X120280D02*
X119772Y79058D01*
X120788D01*
X120280Y78042D01*
X110120Y72592D02*
X109612Y73608D01*
X110628D01*
X110120Y72592D01*
X120280D02*
X119772Y73608D01*
X120788D01*
X120280Y72592D01*
X96090Y83692D02*
X95582Y84708D01*
X96598D01*
X96090Y83692D01*
X103710D02*
X103202Y84708D01*
X104218D01*
X103710Y83692D01*
X96090Y79042D02*
X95582Y80058D01*
X96598D01*
X96090Y79042D01*
X103710D02*
X103202Y80058D01*
X104218D01*
X103710Y79042D01*
X96090Y74392D02*
X95582Y75408D01*
X96598D01*
X96090Y74392D01*
X103710D02*
X103202Y75408D01*
X104218D01*
X103710Y74392D01*
X110120Y62492D02*
X109612Y63508D01*
X110628D01*
X110120Y62492D01*
X120280D02*
X119772Y63508D01*
X120788D01*
X120280Y62492D01*
X110120Y56742D02*
X109612Y57758D01*
X110628D01*
X110120Y56742D01*
X120280D02*
X119772Y57758D01*
X120788D01*
X120280Y56742D01*
X110020Y51892D02*
X109512Y52908D01*
X110528D01*
X110020Y51892D01*
X120180D02*
X119672Y52908D01*
X120688D01*
X120180Y51892D01*
X96090Y62192D02*
X95582Y63208D01*
X96598D01*
X96090Y62192D01*
X103710D02*
X103202Y63208D01*
X104218D01*
X103710Y62192D01*
X96090Y57142D02*
X95582Y58158D01*
X96598D01*
X96090Y57142D01*
X103710D02*
X103202Y58158D01*
X104218D01*
X103710Y57142D01*
X96090Y52092D02*
X95582Y53108D01*
X96598D01*
X96090Y52092D01*
X103710D02*
X103202Y53108D01*
X104218D01*
X103710Y52092D01*
X110120Y43392D02*
X109612Y44408D01*
X110628D01*
X110120Y43392D01*
X120280D02*
X119772Y44408D01*
X120788D01*
X120280Y43392D01*
X110120Y37942D02*
X109612Y38958D01*
X110628D01*
X110120Y37942D01*
X120280D02*
X119772Y38958D01*
X120788D01*
X120280Y37942D01*
X110120Y32492D02*
X109612Y33508D01*
X110628D01*
X110120Y32492D01*
X120280D02*
X119772Y33508D01*
X120788D01*
X120280Y32492D01*
X96090Y42292D02*
X95582Y43308D01*
X96598D01*
X96090Y42292D01*
X103710D02*
X103202Y43308D01*
X104218D01*
X103710Y42292D01*
X96090Y38092D02*
X95582Y39108D01*
X96598D01*
X96090Y38092D01*
X103710D02*
X103202Y39108D01*
X104218D01*
X103710Y38092D01*
X96090Y33892D02*
X95582Y34908D01*
X96598D01*
X96090Y33892D01*
X103710D02*
X103202Y34908D01*
X104218D01*
X103710Y33892D01*
X110020Y22992D02*
X109512Y24008D01*
X110528D01*
X110020Y22992D01*
X120180D02*
X119672Y24008D01*
X120688D01*
X120180Y22992D01*
X110120Y17842D02*
X109612Y18858D01*
X110628D01*
X110120Y17842D01*
X120280D02*
X119772Y18858D01*
X120788D01*
X120280Y17842D01*
X110120Y12192D02*
X109612Y13208D01*
X110628D01*
X110120Y12192D01*
X120280D02*
X119772Y13208D01*
X120788D01*
X120280Y12192D01*
X96090Y22992D02*
X95582Y24008D01*
X96598D01*
X96090Y22992D01*
X103710D02*
X103202Y24008D01*
X104218D01*
X103710Y22992D01*
X96090Y18342D02*
X95582Y19358D01*
X96598D01*
X96090Y18342D01*
X103710D02*
X103202Y19358D01*
X104218D01*
X103710Y18342D01*
X96090Y13692D02*
X95582Y14708D01*
X96598D01*
X96090Y13692D01*
X103710D02*
X103202Y14708D01*
X104218D01*
X103710Y13692D01*
X174730Y54492D02*
X174984Y54746D01*
X175238D01*
X174984Y55000D01*
X175238Y55254D01*
X174984D01*
X174730Y55508D01*
X174476Y55254D01*
X174222D01*
X174476Y55000D01*
X174222Y54746D01*
X174476D01*
X174730Y54492D01*
X177270D02*
X177524Y54746D01*
X177778D01*
X177524Y55000D01*
X177778Y55254D01*
X177524D01*
X177270Y55508D01*
X177016Y55254D01*
X176762D01*
X177016Y55000D01*
X176762Y54746D01*
X177016D01*
X177270Y54492D01*
X176870Y13092D02*
X177124Y13346D01*
X177378D01*
X177124Y13600D01*
X177378Y13854D01*
X177124D01*
X176870Y14108D01*
X176616Y13854D01*
X176362D01*
X176616Y13600D01*
X176362Y13346D01*
X176616D01*
X176870Y13092D01*
X174330D02*
X174584Y13346D01*
X174838D01*
X174584Y13600D01*
X174838Y13854D01*
X174584D01*
X174330Y14108D01*
X174076Y13854D01*
X173822D01*
X174076Y13600D01*
X173822Y13346D01*
X174076D01*
X174330Y13092D01*
X176970Y33692D02*
X177224Y33946D01*
X177478D01*
X177224Y34200D01*
X177478Y34454D01*
X177224D01*
X176970Y34708D01*
X176716Y34454D01*
X176462D01*
X176716Y34200D01*
X176462Y33946D01*
X176716D01*
X176970Y33692D01*
X174430D02*
X174684Y33946D01*
X174938D01*
X174684Y34200D01*
X174938Y34454D01*
X174684D01*
X174430Y34708D01*
X174176Y34454D01*
X173922D01*
X174176Y34200D01*
X173922Y33946D01*
X174176D01*
X174430Y33692D01*
D28*
X287748Y106000D02*
G03*
X287748Y106000I-508J0D01*
G01*
X285208D02*
G03*
X285208Y106000I-508J0D01*
G01*
X287748Y48100D02*
G03*
X287748Y48100I-508J0D01*
G01*
X285208D02*
G03*
X285208Y48100I-508J0D01*
G01*
X300408Y43660D02*
G03*
X300408Y43660I-508J0D01*
G01*
Y46200D02*
G03*
X300408Y46200I-508J0D01*
G01*
X268008Y64700D02*
G03*
X268008Y64700I-508J0D01*
G01*
X265468D02*
G03*
X265468Y64700I-508J0D01*
G01*
X268008Y8240D02*
G03*
X268008Y8240I-508J0D01*
G01*
X265468D02*
G03*
X265468Y8240I-508J0D01*
G01*
X300408Y8200D02*
G03*
X300408Y8200I-508J0D01*
G01*
Y10740D02*
G03*
X300408Y10740I-508J0D01*
G01*
Y25930D02*
G03*
X300408Y25930I-508J0D01*
G01*
Y28470D02*
G03*
X300408Y28470I-508J0D01*
G01*
X161808Y77685D02*
G03*
X161808Y77685I-508J0D01*
G01*
Y75145D02*
G03*
X161808Y75145I-508J0D01*
G01*
Y59470D02*
G03*
X161808Y59470I-508J0D01*
G01*
Y56930D02*
G03*
X161808Y56930I-508J0D01*
G01*
Y41255D02*
G03*
X161808Y41255I-508J0D01*
G01*
Y38715D02*
G03*
X161808Y38715I-508J0D01*
G01*
Y23040D02*
G03*
X161808Y23040I-508J0D01*
G01*
Y20500D02*
G03*
X161808Y20500I-508J0D01*
G01*
X285468Y8200D02*
G03*
X285468Y8200I-508J0D01*
G01*
X288008D02*
G03*
X288008Y8200I-508J0D01*
G01*
X265468Y70500D02*
G03*
X265468Y70500I-508J0D01*
G01*
X268008D02*
G03*
X268008Y70500I-508J0D01*
G01*
X300508Y103460D02*
G03*
X300508Y103460I-508J0D01*
G01*
Y106000D02*
G03*
X300508Y106000I-508J0D01*
G01*
Y87573D02*
G03*
X300508Y87573I-508J0D01*
G01*
Y90113D02*
G03*
X300508Y90113I-508J0D01*
G01*
Y71687D02*
G03*
X300508Y71687I-508J0D01*
G01*
Y74227D02*
G03*
X300508Y74227I-508J0D01*
G01*
Y55800D02*
G03*
X300508Y55800I-508J0D01*
G01*
Y58340D02*
G03*
X300508Y58340I-508J0D01*
G01*
X193808Y100060D02*
G03*
X193808Y100060I-508J0D01*
G01*
Y102600D02*
G03*
X193808Y102600I-508J0D01*
G01*
Y105140D02*
G03*
X193808Y105140I-508J0D01*
G01*
Y77935D02*
G03*
X193808Y77935I-508J0D01*
G01*
Y80475D02*
G03*
X193808Y80475I-508J0D01*
G01*
Y83015D02*
G03*
X193808Y83015I-508J0D01*
G01*
Y55810D02*
G03*
X193808Y55810I-508J0D01*
G01*
Y58350D02*
G03*
X193808Y58350I-508J0D01*
G01*
Y60890D02*
G03*
X193808Y60890I-508J0D01*
G01*
Y33685D02*
G03*
X193808Y33685I-508J0D01*
G01*
Y36225D02*
G03*
X193808Y36225I-508J0D01*
G01*
Y38765D02*
G03*
X193808Y38765I-508J0D01*
G01*
Y11560D02*
G03*
X193808Y11560I-508J0D01*
G01*
Y14100D02*
G03*
X193808Y14100I-508J0D01*
G01*
Y16640D02*
G03*
X193808Y16640I-508J0D01*
G01*
X161808Y95900D02*
G03*
X161808Y95900I-508J0D01*
G01*
Y93360D02*
G03*
X161808Y93360I-508J0D01*
G01*
M02*
