%FSLAX43Y43*%
%MOMM*%
G71*
G01*
G75*
%ADD10C,0.250*%
%ADD11C,0.254*%
%ADD12C,0.100*%
%ADD13C,1.500*%
%ADD14C,1.500*%
%ADD15C,1.400*%
%ADD16C,1.778*%
%ADD17C,1.600*%
%ADD18C,1.000*%
%ADD19C,2.000*%
%ADD20C,0.200*%
%ADD21C,0.127*%
%ADD22C,0.500*%
%ADD23C,1.700*%
%ADD24C,1.700*%
%ADD25C,1.600*%
%ADD26C,1.978*%
%ADD27C,1.800*%
%ADD28C,0.169*%
D12*
X-0Y-0D02*
Y114000D01*
Y-0D02*
X310000D01*
Y114000D01*
X-0D02*
X310000D01*
D21*
X145870Y34970D02*
X146770D01*
X146320Y34520D02*
Y35420D01*
X143330Y34970D02*
X144230D01*
X143780Y34520D02*
Y35420D01*
X140790Y34970D02*
X141690D01*
X141240Y34520D02*
Y35420D01*
X138250Y34970D02*
X139150D01*
X138700Y34520D02*
Y35420D01*
X135710Y34970D02*
X136610D01*
X136160Y34520D02*
Y35420D01*
X133170Y34970D02*
X134070D01*
X133620Y34520D02*
Y35420D01*
X130630Y34970D02*
X131530D01*
X131080Y34520D02*
Y35420D01*
X145870Y27350D02*
X146770D01*
X146320Y26900D02*
Y27800D01*
X143330Y27350D02*
X144230D01*
X143780Y26900D02*
Y27800D01*
X140790Y27350D02*
X141690D01*
X141240Y26900D02*
Y27800D01*
X138250Y27350D02*
X139150D01*
X138700Y26900D02*
Y27800D01*
X135710Y27350D02*
X136610D01*
X136160Y26900D02*
Y27800D01*
X133170Y27350D02*
X134070D01*
X133620Y26900D02*
Y27800D01*
X130630Y27350D02*
X131530D01*
X131080Y26900D02*
Y27800D01*
X145870Y52140D02*
X146770D01*
X146320Y51690D02*
Y52590D01*
X143330Y52140D02*
X144230D01*
X143780Y51690D02*
Y52590D01*
X140790Y52140D02*
X141690D01*
X141240Y51690D02*
Y52590D01*
X138250Y52140D02*
X139150D01*
X138700Y51690D02*
Y52590D01*
X135710Y52140D02*
X136610D01*
X136160Y51690D02*
Y52590D01*
X133170Y52140D02*
X134070D01*
X133620Y51690D02*
Y52590D01*
X130630Y52140D02*
X131530D01*
X131080Y51690D02*
Y52590D01*
X145870Y44520D02*
X146770D01*
X146320Y44070D02*
Y44970D01*
X143330Y44520D02*
X144230D01*
X143780Y44070D02*
Y44970D01*
X140790Y44520D02*
X141690D01*
X141240Y44070D02*
Y44970D01*
X138250Y44520D02*
X139150D01*
X138700Y44070D02*
Y44970D01*
X135710Y44520D02*
X136610D01*
X136160Y44070D02*
Y44970D01*
X133170Y44520D02*
X134070D01*
X133620Y44070D02*
Y44970D01*
X130630Y44520D02*
X131530D01*
X131080Y44070D02*
Y44970D01*
X145690Y87210D02*
X146590D01*
X146140Y86760D02*
Y87660D01*
X143150Y87210D02*
X144050D01*
X143600Y86760D02*
Y87660D01*
X140610Y87210D02*
X141510D01*
X141060Y86760D02*
Y87660D01*
X138070Y87210D02*
X138970D01*
X138520Y86760D02*
Y87660D01*
X135530Y87210D02*
X136430D01*
X135980Y86760D02*
Y87660D01*
X132990Y87210D02*
X133890D01*
X133440Y86760D02*
Y87660D01*
X130450Y87210D02*
X131350D01*
X130900Y86760D02*
Y87660D01*
X145690Y79590D02*
X146590D01*
X146140Y79140D02*
Y80040D01*
X143150Y79590D02*
X144050D01*
X143600Y79140D02*
Y80040D01*
X140610Y79590D02*
X141510D01*
X141060Y79140D02*
Y80040D01*
X138070Y79590D02*
X138970D01*
X138520Y79140D02*
Y80040D01*
X135530Y79590D02*
X136430D01*
X135980Y79140D02*
Y80040D01*
X132990Y79590D02*
X133890D01*
X133440Y79140D02*
Y80040D01*
X130450Y79590D02*
X131350D01*
X130900Y79140D02*
Y80040D01*
X145690Y105820D02*
X146590D01*
X146140Y105370D02*
Y106270D01*
X143150Y105820D02*
X144050D01*
X143600Y105370D02*
Y106270D01*
X140610Y105820D02*
X141510D01*
X141060Y105370D02*
Y106270D01*
X138070Y105820D02*
X138970D01*
X138520Y105370D02*
Y106270D01*
X135530Y105820D02*
X136430D01*
X135980Y105370D02*
Y106270D01*
X132990Y105820D02*
X133890D01*
X133440Y105370D02*
Y106270D01*
X130450Y105820D02*
X131350D01*
X130900Y105370D02*
Y106270D01*
X145690Y98200D02*
X146590D01*
X146140Y97750D02*
Y98650D01*
X143150Y98200D02*
X144050D01*
X143600Y97750D02*
Y98650D01*
X140610Y98200D02*
X141510D01*
X141060Y97750D02*
Y98650D01*
X138070Y98200D02*
X138970D01*
X138520Y97750D02*
Y98650D01*
X135530Y98200D02*
X136430D01*
X135980Y97750D02*
Y98650D01*
X132990Y98200D02*
X133890D01*
X133440Y97750D02*
Y98650D01*
X130450Y98200D02*
X131350D01*
X130900Y97750D02*
Y98650D01*
X145730Y17800D02*
X146630D01*
X146180Y17350D02*
Y18250D01*
X143190Y17800D02*
X144090D01*
X143640Y17350D02*
Y18250D01*
X140650Y17800D02*
X141550D01*
X141100Y17350D02*
Y18250D01*
X138110Y17800D02*
X139010D01*
X138560Y17350D02*
Y18250D01*
X135570Y17800D02*
X136470D01*
X136020Y17350D02*
Y18250D01*
X133030Y17800D02*
X133930D01*
X133480Y17350D02*
Y18250D01*
X130490Y17800D02*
X131390D01*
X130940Y17350D02*
Y18250D01*
X145730Y10180D02*
X146630D01*
X146180Y9730D02*
Y10630D01*
X143190Y10180D02*
X144090D01*
X143640Y9730D02*
Y10630D01*
X140650Y10180D02*
X141550D01*
X141100Y9730D02*
Y10630D01*
X138110Y10180D02*
X139010D01*
X138560Y9730D02*
Y10630D01*
X135570Y10180D02*
X136470D01*
X136020Y9730D02*
Y10630D01*
X133030Y10180D02*
X133930D01*
X133480Y9730D02*
Y10630D01*
X130490Y10180D02*
X131390D01*
X130940Y9730D02*
Y10630D01*
X145870Y69310D02*
X146770D01*
X146320Y68860D02*
Y69760D01*
X143330Y69310D02*
X144230D01*
X143780Y68860D02*
Y69760D01*
X140790Y69310D02*
X141690D01*
X141240Y68860D02*
Y69760D01*
X138250Y69310D02*
X139150D01*
X138700Y68860D02*
Y69760D01*
X135710Y69310D02*
X136610D01*
X136160Y68860D02*
Y69760D01*
X133170Y69310D02*
X134070D01*
X133620Y68860D02*
Y69760D01*
X130630Y69310D02*
X131530D01*
X131080Y68860D02*
Y69760D01*
X145870Y61690D02*
X146770D01*
X146320Y61240D02*
Y62140D01*
X143330Y61690D02*
X144230D01*
X143780Y61240D02*
Y62140D01*
X140790Y61690D02*
X141690D01*
X141240Y61240D02*
Y62140D01*
X138250Y61690D02*
X139150D01*
X138700Y61240D02*
Y62140D01*
X135710Y61690D02*
X136610D01*
X136160Y61240D02*
Y62140D01*
X133170Y61690D02*
X134070D01*
X133620Y61240D02*
Y62140D01*
X130630Y61690D02*
X131530D01*
X131080Y61240D02*
Y62140D01*
X286690Y106000D02*
X287790D01*
X287240Y105450D02*
Y106550D01*
X284150Y106000D02*
X285250D01*
X284700Y105450D02*
Y106550D01*
X286690Y48100D02*
X287790D01*
X287240Y47550D02*
Y48650D01*
X284150Y48100D02*
X285250D01*
X284700Y47550D02*
Y48650D01*
X299350Y43660D02*
X300450D01*
X299900Y43110D02*
Y44210D01*
X299350Y46200D02*
X300450D01*
X299900Y45650D02*
Y46750D01*
X266950Y64700D02*
X268050D01*
X267500Y64150D02*
Y65250D01*
X264410Y64700D02*
X265510D01*
X264960Y64150D02*
Y65250D01*
X266950Y8240D02*
X268050D01*
X267500Y7690D02*
Y8790D01*
X264410Y8240D02*
X265510D01*
X264960Y7690D02*
Y8790D01*
X299350Y8200D02*
X300450D01*
X299900Y7650D02*
Y8750D01*
X299350Y10740D02*
X300450D01*
X299900Y10190D02*
Y11290D01*
X299350Y25930D02*
X300450D01*
X299900Y25380D02*
Y26480D01*
X299350Y28470D02*
X300450D01*
X299900Y27920D02*
Y29020D01*
X88650Y95660D02*
X89550D01*
X89100Y95210D02*
Y96110D01*
X88650Y98200D02*
X89550D01*
X89100Y97750D02*
Y98650D01*
X88650Y100740D02*
X89550D01*
X89100Y100290D02*
Y101190D01*
X88650Y103280D02*
X89550D01*
X89100Y102830D02*
Y103730D01*
X88650Y75690D02*
X89550D01*
X89100Y75240D02*
Y76140D01*
X88650Y78230D02*
X89550D01*
X89100Y77780D02*
Y78680D01*
X88650Y80770D02*
X89550D01*
X89100Y80320D02*
Y81220D01*
X88650Y83310D02*
X89550D01*
X89100Y82860D02*
Y83760D01*
X88650Y55720D02*
X89550D01*
X89100Y55270D02*
Y56170D01*
X88650Y58260D02*
X89550D01*
X89100Y57810D02*
Y58710D01*
X88650Y60800D02*
X89550D01*
X89100Y60350D02*
Y61250D01*
X88650Y63340D02*
X89550D01*
X89100Y62890D02*
Y63790D01*
X88650Y35750D02*
X89550D01*
X89100Y35300D02*
Y36200D01*
X88650Y38290D02*
X89550D01*
X89100Y37840D02*
Y38740D01*
X88650Y40830D02*
X89550D01*
X89100Y40380D02*
Y41280D01*
X88650Y43370D02*
X89550D01*
X89100Y42920D02*
Y43820D01*
X88650Y15780D02*
X89550D01*
X89100Y15330D02*
Y16230D01*
X88650Y18320D02*
X89550D01*
X89100Y17870D02*
Y18770D01*
X88650Y20860D02*
X89550D01*
X89100Y20410D02*
Y21310D01*
X88650Y23400D02*
X89550D01*
X89100Y22950D02*
Y23850D01*
X160750Y77685D02*
X161850D01*
X161300Y77135D02*
Y78235D01*
X160750Y75145D02*
X161850D01*
X161300Y74595D02*
Y75695D01*
X160750Y59470D02*
X161850D01*
X161300Y58920D02*
Y60020D01*
X160750Y56930D02*
X161850D01*
X161300Y56380D02*
Y57480D01*
X160750Y41255D02*
X161850D01*
X161300Y40705D02*
Y41805D01*
X160750Y38715D02*
X161850D01*
X161300Y38165D02*
Y39265D01*
X160750Y23040D02*
X161850D01*
X161300Y22490D02*
Y23590D01*
X160750Y20500D02*
X161850D01*
X161300Y19950D02*
Y21050D01*
X288190Y43660D02*
X289090D01*
X288640Y43210D02*
Y44110D01*
X285650Y43660D02*
X286550D01*
X286100Y43210D02*
Y44110D01*
X283110Y43660D02*
X284010D01*
X283560Y43210D02*
Y44110D01*
X284410Y8200D02*
X285510D01*
X284960Y7650D02*
Y8750D01*
X286950Y8200D02*
X288050D01*
X287500Y7650D02*
Y8750D01*
X265510Y105960D02*
X266410D01*
X265960Y105510D02*
Y106410D01*
X268050Y105960D02*
X268950D01*
X268500Y105510D02*
Y106410D01*
X270590Y105960D02*
X271490D01*
X271040Y105510D02*
Y106410D01*
X264410Y70500D02*
X265510D01*
X264960Y69950D02*
Y71050D01*
X266950Y70500D02*
X268050D01*
X267500Y69950D02*
Y71050D01*
X6750Y6150D02*
X7650D01*
X7200Y5700D02*
Y6600D01*
X6650Y23930D02*
X7550D01*
X7100Y23480D02*
Y24380D01*
X6650Y21390D02*
X7550D01*
X7100Y20940D02*
Y21840D01*
X6650Y18850D02*
X7550D01*
X7100Y18400D02*
Y19300D01*
X6650Y16310D02*
X7550D01*
X7100Y15860D02*
Y16760D01*
X6650Y13770D02*
X7550D01*
X7100Y13320D02*
Y14220D01*
X6650Y11230D02*
X7550D01*
X7100Y10780D02*
Y11680D01*
X6650Y8690D02*
X7550D01*
X7100Y8240D02*
Y9140D01*
X59950Y34080D02*
X60850D01*
X60400Y33630D02*
Y34530D01*
X59950Y36620D02*
X60850D01*
X60400Y36170D02*
Y37070D01*
X59950Y39160D02*
X60850D01*
X60400Y38710D02*
Y39610D01*
X59950Y41700D02*
X60850D01*
X60400Y41250D02*
Y42150D01*
X59950Y44240D02*
X60850D01*
X60400Y43790D02*
Y44690D01*
X59950Y46780D02*
X60850D01*
X60400Y46330D02*
Y47230D01*
X6650Y29000D02*
X7550D01*
X7100Y28550D02*
Y29450D01*
X6650Y31540D02*
X7550D01*
X7100Y31090D02*
Y31990D01*
X6650Y34080D02*
X7550D01*
X7100Y33630D02*
Y34530D01*
X6650Y36620D02*
X7550D01*
X7100Y36170D02*
Y37070D01*
X6650Y39160D02*
X7550D01*
X7100Y38710D02*
Y39610D01*
X6650Y41700D02*
X7550D01*
X7100Y41250D02*
Y42150D01*
X6650Y44240D02*
X7550D01*
X7100Y43790D02*
Y44690D01*
X6650Y46780D02*
X7550D01*
X7100Y46330D02*
Y47230D01*
X157125Y103100D02*
X158025D01*
X157575Y102650D02*
Y103550D01*
X168775Y103100D02*
X169675D01*
X169225Y102650D02*
Y103550D01*
X157125Y84825D02*
X158025D01*
X157575Y84375D02*
Y85275D01*
X168775Y84825D02*
X169675D01*
X169225Y84375D02*
Y85275D01*
X157125Y66550D02*
X158025D01*
X157575Y66100D02*
Y67000D01*
X168775Y66550D02*
X169675D01*
X169225Y66100D02*
Y67000D01*
X157225Y48300D02*
X158125D01*
X157675Y47850D02*
Y48750D01*
X168875Y48300D02*
X169775D01*
X169325Y47850D02*
Y48750D01*
X156625Y29700D02*
X157525D01*
X157075Y29250D02*
Y30150D01*
X168275Y29700D02*
X169175D01*
X168725Y29250D02*
Y30150D01*
X59950Y29020D02*
X60850D01*
X60400Y28570D02*
Y29470D01*
X59950Y26480D02*
X60850D01*
X60400Y26030D02*
Y26930D01*
X59950Y23940D02*
X60850D01*
X60400Y23490D02*
Y24390D01*
X59950Y21400D02*
X60850D01*
X60400Y20950D02*
Y21850D01*
X59950Y18860D02*
X60850D01*
X60400Y18410D02*
Y19310D01*
X59950Y16320D02*
X60850D01*
X60400Y15870D02*
Y16770D01*
X184075Y98610D02*
X184925D01*
X184500Y98185D02*
Y99035D01*
X184075Y90990D02*
X184925D01*
X184500Y90565D02*
Y91415D01*
X176635Y96000D02*
X177905D01*
X177270Y95365D02*
Y96635D01*
X174095Y96000D02*
X175365D01*
X174730Y95365D02*
Y96635D01*
X184875Y78110D02*
X185725D01*
X185300Y77685D02*
Y78535D01*
X184875Y70490D02*
X185725D01*
X185300Y70065D02*
Y70915D01*
X176635Y75500D02*
X177905D01*
X177270Y74865D02*
Y76135D01*
X174095Y75500D02*
X175365D01*
X174730Y74865D02*
Y76135D01*
X184375Y58510D02*
X185225D01*
X184800Y58085D02*
Y58935D01*
X184375Y50890D02*
X185225D01*
X184800Y50465D02*
Y51315D01*
X184575Y37810D02*
X185425D01*
X185000Y37385D02*
Y38235D01*
X184575Y30190D02*
X185425D01*
X185000Y29765D02*
Y30615D01*
X184375Y15510D02*
X185225D01*
X184800Y15085D02*
Y15935D01*
X184375Y7890D02*
X185225D01*
X184800Y7465D02*
Y8315D01*
X299450Y103460D02*
X300550D01*
X300000Y102910D02*
Y104010D01*
X299450Y106000D02*
X300550D01*
X300000Y105450D02*
Y106550D01*
X299450Y87573D02*
X300550D01*
X300000Y87023D02*
Y88123D01*
X299450Y90113D02*
X300550D01*
X300000Y89563D02*
Y90663D01*
X299450Y71687D02*
X300550D01*
X300000Y71137D02*
Y72237D01*
X299450Y74227D02*
X300550D01*
X300000Y73677D02*
Y74777D01*
X73270Y105910D02*
X74170D01*
X73720Y105460D02*
Y106360D01*
X75810Y105910D02*
X76710D01*
X76260Y105460D02*
Y106360D01*
X73270Y103370D02*
X74170D01*
X73720Y102920D02*
Y103820D01*
X75810Y103370D02*
X76710D01*
X76260Y102920D02*
Y103820D01*
X73270Y100830D02*
X74170D01*
X73720Y100380D02*
Y101280D01*
X75810Y100830D02*
X76710D01*
X76260Y100380D02*
Y101280D01*
X73270Y98290D02*
X74170D01*
X73720Y97840D02*
Y98740D01*
X75810Y98290D02*
X76710D01*
X76260Y97840D02*
Y98740D01*
X73270Y95750D02*
X74170D01*
X73720Y95300D02*
Y96200D01*
X75810Y95750D02*
X76710D01*
X76260Y95300D02*
Y96200D01*
X73270Y93210D02*
X74170D01*
X73720Y92760D02*
Y93660D01*
X75810Y93210D02*
X76710D01*
X76260Y92760D02*
Y93660D01*
X73270Y90670D02*
X74170D01*
X73720Y90220D02*
Y91120D01*
X75810Y90670D02*
X76710D01*
X76260Y90220D02*
Y91120D01*
X73270Y88130D02*
X74170D01*
X73720Y87680D02*
Y88580D01*
X75810Y88130D02*
X76710D01*
X76260Y87680D02*
Y88580D01*
X73270Y85590D02*
X74170D01*
X73720Y85140D02*
Y86040D01*
X75810Y85590D02*
X76710D01*
X76260Y85140D02*
Y86040D01*
X73270Y83050D02*
X74170D01*
X73720Y82600D02*
Y83500D01*
X75810Y83050D02*
X76710D01*
X76260Y82600D02*
Y83500D01*
X73270Y80510D02*
X74170D01*
X73720Y80060D02*
Y80960D01*
X75810Y80510D02*
X76710D01*
X76260Y80060D02*
Y80960D01*
X73270Y77970D02*
X74170D01*
X73720Y77520D02*
Y78420D01*
X75810Y77970D02*
X76710D01*
X76260Y77520D02*
Y78420D01*
X73270Y75430D02*
X74170D01*
X73720Y74980D02*
Y75880D01*
X75810Y75430D02*
X76710D01*
X76260Y74980D02*
Y75880D01*
X73270Y72890D02*
X74170D01*
X73720Y72440D02*
Y73340D01*
X75810Y72890D02*
X76710D01*
X76260Y72440D02*
Y73340D01*
X73270Y70350D02*
X74170D01*
X73720Y69900D02*
Y70800D01*
X75810Y70350D02*
X76710D01*
X76260Y69900D02*
Y70800D01*
X73270Y67810D02*
X74170D01*
X73720Y67360D02*
Y68260D01*
X75810Y67810D02*
X76710D01*
X76260Y67360D02*
Y68260D01*
X73270Y65270D02*
X74170D01*
X73720Y64820D02*
Y65720D01*
X75810Y65270D02*
X76710D01*
X76260Y64820D02*
Y65720D01*
X73270Y62730D02*
X74170D01*
X73720Y62280D02*
Y63180D01*
X75810Y62730D02*
X76710D01*
X76260Y62280D02*
Y63180D01*
X47870Y57650D02*
X48770D01*
X48320Y57200D02*
Y58100D01*
X45330Y57650D02*
X46230D01*
X45780Y57200D02*
Y58100D01*
X42790Y57650D02*
X43690D01*
X43240Y57200D02*
Y58100D01*
X40250Y57650D02*
X41150D01*
X40700Y57200D02*
Y58100D01*
X37710Y57650D02*
X38610D01*
X38160Y57200D02*
Y58100D01*
X35170Y57650D02*
X36070D01*
X35620Y57200D02*
Y58100D01*
X32630Y57650D02*
X33530D01*
X33080Y57200D02*
Y58100D01*
X30090Y57650D02*
X30990D01*
X30540Y57200D02*
Y58100D01*
X70730Y57650D02*
X71630D01*
X71180Y57200D02*
Y58100D01*
X68190Y57650D02*
X69090D01*
X68640Y57200D02*
Y58100D01*
X65650Y57650D02*
X66550D01*
X66100Y57200D02*
Y58100D01*
X63110Y57650D02*
X64010D01*
X63560Y57200D02*
Y58100D01*
X60570Y57650D02*
X61470D01*
X61020Y57200D02*
Y58100D01*
X58030Y57650D02*
X58930D01*
X58480Y57200D02*
Y58100D01*
X55490Y57650D02*
X56390D01*
X55940Y57200D02*
Y58100D01*
X52950Y57650D02*
X53850D01*
X53400Y57200D02*
Y58100D01*
X21200Y105910D02*
X22100D01*
X21650Y105460D02*
Y106360D01*
X18660Y105910D02*
X19560D01*
X19110Y105460D02*
Y106360D01*
X16120Y105910D02*
X17020D01*
X16570Y105460D02*
Y106360D01*
X13580Y105910D02*
X14480D01*
X14030Y105460D02*
Y106360D01*
X11040Y105910D02*
X11940D01*
X11490Y105460D02*
Y106360D01*
X8500Y105910D02*
X9400D01*
X8950Y105460D02*
Y106360D01*
X5960Y105910D02*
X6860D01*
X6410Y105460D02*
Y106360D01*
X3420Y105910D02*
X4320D01*
X3870Y105460D02*
Y106360D01*
X42790Y105910D02*
X43690D01*
X43240Y105460D02*
Y106360D01*
X40250Y105910D02*
X41150D01*
X40700Y105460D02*
Y106360D01*
X37710Y105910D02*
X38610D01*
X38160Y105460D02*
Y106360D01*
X35170Y105910D02*
X36070D01*
X35620Y105460D02*
Y106360D01*
X32630Y105910D02*
X33530D01*
X33080Y105460D02*
Y106360D01*
X30090Y105910D02*
X30990D01*
X30540Y105460D02*
Y106360D01*
X27550Y105910D02*
X28450D01*
X28000Y105460D02*
Y106360D01*
X25010Y105910D02*
X25910D01*
X25460Y105460D02*
Y106360D01*
X12310Y57650D02*
X13210D01*
X12760Y57200D02*
Y58100D01*
X14850Y57650D02*
X15750D01*
X15300Y57200D02*
Y58100D01*
X17390Y57650D02*
X18290D01*
X17840Y57200D02*
Y58100D01*
X19930Y57650D02*
X20830D01*
X20380Y57200D02*
Y58100D01*
X22470Y57650D02*
X23370D01*
X22920Y57200D02*
Y58100D01*
X25010Y57650D02*
X25910D01*
X25460Y57200D02*
Y58100D01*
X47870Y105910D02*
X48770D01*
X48320Y105460D02*
Y106360D01*
X50410Y105910D02*
X51310D01*
X50860Y105460D02*
Y106360D01*
X52950Y105910D02*
X53850D01*
X53400Y105460D02*
Y106360D01*
X55490Y105910D02*
X56390D01*
X55940Y105460D02*
Y106360D01*
X58030Y105910D02*
X58930D01*
X58480Y105460D02*
Y106360D01*
X60570Y105910D02*
X61470D01*
X61020Y105460D02*
Y106360D01*
X63110Y105910D02*
X64010D01*
X63560Y105460D02*
Y106360D01*
X65650Y105910D02*
X66550D01*
X66100Y105460D02*
Y106360D01*
X177640Y102800D02*
X178640D01*
X178140Y102300D02*
Y103300D01*
X175100Y102800D02*
X176100D01*
X175600Y102300D02*
Y103300D01*
X172560Y102800D02*
X173560D01*
X173060Y102300D02*
Y103300D01*
X177640Y81800D02*
X178640D01*
X178140Y81300D02*
Y82300D01*
X175100Y81800D02*
X176100D01*
X175600Y81300D02*
Y82300D01*
X172560Y81800D02*
X173560D01*
X173060Y81300D02*
Y82300D01*
X177640Y61500D02*
X178640D01*
X178140Y61000D02*
Y62000D01*
X175100Y61500D02*
X176100D01*
X175600Y61000D02*
Y62000D01*
X172560Y61500D02*
X173560D01*
X173060Y61000D02*
Y62000D01*
X177640Y40700D02*
X178640D01*
X178140Y40200D02*
Y41200D01*
X175100Y40700D02*
X176100D01*
X175600Y40200D02*
Y41200D01*
X172560Y40700D02*
X173560D01*
X173060Y40200D02*
Y41200D01*
X177640Y20200D02*
X178640D01*
X178140Y19700D02*
Y20700D01*
X175100Y20200D02*
X176100D01*
X175600Y19700D02*
Y20700D01*
X172560Y20200D02*
X173560D01*
X173060Y19700D02*
Y20700D01*
X299450Y55800D02*
X300550D01*
X300000Y55250D02*
Y56350D01*
X299450Y58340D02*
X300550D01*
X300000Y57790D02*
Y58890D01*
X257885Y90800D02*
X258735D01*
X258310Y90375D02*
Y91225D01*
X250265Y90800D02*
X251115D01*
X250690Y90375D02*
Y91225D01*
X250465Y88100D02*
X251315D01*
X250890Y87675D02*
Y88525D01*
X258085Y88100D02*
X258935D01*
X258510Y87675D02*
Y88525D01*
X250665Y27200D02*
X251515D01*
X251090Y26775D02*
Y27625D01*
X258285Y27200D02*
X259135D01*
X258710Y26775D02*
Y27625D01*
X258285Y29900D02*
X259135D01*
X258710Y29475D02*
Y30325D01*
X250665Y29900D02*
X251515D01*
X251090Y29475D02*
Y30325D01*
X246750Y100060D02*
X247650D01*
X247200Y99610D02*
Y100510D01*
X246750Y102600D02*
X247650D01*
X247200Y102150D02*
Y103050D01*
X246750Y105140D02*
X247650D01*
X247200Y104690D02*
Y105590D01*
X192750Y100060D02*
X193850D01*
X193300Y99510D02*
Y100610D01*
X192750Y102600D02*
X193850D01*
X193300Y102050D02*
Y103150D01*
X192750Y105140D02*
X193850D01*
X193300Y104590D02*
Y105690D01*
X246750Y77935D02*
X247650D01*
X247200Y77485D02*
Y78385D01*
X246750Y80475D02*
X247650D01*
X247200Y80025D02*
Y80925D01*
X246750Y83015D02*
X247650D01*
X247200Y82565D02*
Y83465D01*
X192750Y77935D02*
X193850D01*
X193300Y77385D02*
Y78485D01*
X192750Y80475D02*
X193850D01*
X193300Y79925D02*
Y81025D01*
X192750Y83015D02*
X193850D01*
X193300Y82465D02*
Y83565D01*
X246750Y55810D02*
X247650D01*
X247200Y55360D02*
Y56260D01*
X246750Y58350D02*
X247650D01*
X247200Y57900D02*
Y58800D01*
X246750Y60890D02*
X247650D01*
X247200Y60440D02*
Y61340D01*
X192750Y55810D02*
X193850D01*
X193300Y55260D02*
Y56360D01*
X192750Y58350D02*
X193850D01*
X193300Y57800D02*
Y58900D01*
X192750Y60890D02*
X193850D01*
X193300Y60340D02*
Y61440D01*
X246750Y33685D02*
X247650D01*
X247200Y33235D02*
Y34135D01*
X246750Y36225D02*
X247650D01*
X247200Y35775D02*
Y36675D01*
X246750Y38765D02*
X247650D01*
X247200Y38315D02*
Y39215D01*
X192750Y33685D02*
X193850D01*
X193300Y33135D02*
Y34235D01*
X192750Y36225D02*
X193850D01*
X193300Y35675D02*
Y36775D01*
X192750Y38765D02*
X193850D01*
X193300Y38215D02*
Y39315D01*
X246750Y11560D02*
X247650D01*
X247200Y11110D02*
Y12010D01*
X246750Y14100D02*
X247650D01*
X247200Y13650D02*
Y14550D01*
X246750Y16640D02*
X247650D01*
X247200Y16190D02*
Y17090D01*
X192750Y11560D02*
X193850D01*
X193300Y11010D02*
Y12110D01*
X192750Y14100D02*
X193850D01*
X193300Y13550D02*
Y14650D01*
X192750Y16640D02*
X193850D01*
X193300Y16090D02*
Y17190D01*
X109695Y104800D02*
X110545D01*
X110120Y104375D02*
Y105225D01*
X119855Y104800D02*
X120705D01*
X120280Y104375D02*
Y105225D01*
X109695Y99350D02*
X110545D01*
X110120Y98925D02*
Y99775D01*
X119855Y99350D02*
X120705D01*
X120280Y98925D02*
Y99775D01*
X109695Y93900D02*
X110545D01*
X110120Y93475D02*
Y94325D01*
X119855Y93900D02*
X120705D01*
X120280Y93475D02*
Y94325D01*
X95665Y103200D02*
X96515D01*
X96090Y102775D02*
Y103625D01*
X103285Y103200D02*
X104135D01*
X103710Y102775D02*
Y103625D01*
X95665Y98600D02*
X96515D01*
X96090Y98175D02*
Y99025D01*
X103285Y98600D02*
X104135D01*
X103710Y98175D02*
Y99025D01*
X95665Y94000D02*
X96515D01*
X96090Y93575D02*
Y94425D01*
X103285Y94000D02*
X104135D01*
X103710Y93575D02*
Y94425D01*
X109695Y84000D02*
X110545D01*
X110120Y83575D02*
Y84425D01*
X119855Y84000D02*
X120705D01*
X120280Y83575D02*
Y84425D01*
X109695Y78550D02*
X110545D01*
X110120Y78125D02*
Y78975D01*
X119855Y78550D02*
X120705D01*
X120280Y78125D02*
Y78975D01*
X109695Y73100D02*
X110545D01*
X110120Y72675D02*
Y73525D01*
X119855Y73100D02*
X120705D01*
X120280Y72675D02*
Y73525D01*
X95665Y84200D02*
X96515D01*
X96090Y83775D02*
Y84625D01*
X103285Y84200D02*
X104135D01*
X103710Y83775D02*
Y84625D01*
X95665Y79550D02*
X96515D01*
X96090Y79125D02*
Y79975D01*
X103285Y79550D02*
X104135D01*
X103710Y79125D02*
Y79975D01*
X95665Y74900D02*
X96515D01*
X96090Y74475D02*
Y75325D01*
X103285Y74900D02*
X104135D01*
X103710Y74475D02*
Y75325D01*
X109695Y63000D02*
X110545D01*
X110120Y62575D02*
Y63425D01*
X119855Y63000D02*
X120705D01*
X120280Y62575D02*
Y63425D01*
X109695Y57250D02*
X110545D01*
X110120Y56825D02*
Y57675D01*
X119855Y57250D02*
X120705D01*
X120280Y56825D02*
Y57675D01*
X109595Y52400D02*
X110445D01*
X110020Y51975D02*
Y52825D01*
X119755Y52400D02*
X120605D01*
X120180Y51975D02*
Y52825D01*
X95665Y62700D02*
X96515D01*
X96090Y62275D02*
Y63125D01*
X103285Y62700D02*
X104135D01*
X103710Y62275D02*
Y63125D01*
X95665Y57650D02*
X96515D01*
X96090Y57225D02*
Y58075D01*
X103285Y57650D02*
X104135D01*
X103710Y57225D02*
Y58075D01*
X95665Y52600D02*
X96515D01*
X96090Y52175D02*
Y53025D01*
X103285Y52600D02*
X104135D01*
X103710Y52175D02*
Y53025D01*
X109695Y43900D02*
X110545D01*
X110120Y43475D02*
Y44325D01*
X119855Y43900D02*
X120705D01*
X120280Y43475D02*
Y44325D01*
X109695Y38450D02*
X110545D01*
X110120Y38025D02*
Y38875D01*
X119855Y38450D02*
X120705D01*
X120280Y38025D02*
Y38875D01*
X109695Y33000D02*
X110545D01*
X110120Y32575D02*
Y33425D01*
X119855Y33000D02*
X120705D01*
X120280Y32575D02*
Y33425D01*
X95665Y42800D02*
X96515D01*
X96090Y42375D02*
Y43225D01*
X103285Y42800D02*
X104135D01*
X103710Y42375D02*
Y43225D01*
X95665Y38600D02*
X96515D01*
X96090Y38175D02*
Y39025D01*
X103285Y38600D02*
X104135D01*
X103710Y38175D02*
Y39025D01*
X95665Y34400D02*
X96515D01*
X96090Y33975D02*
Y34825D01*
X103285Y34400D02*
X104135D01*
X103710Y33975D02*
Y34825D01*
X109595Y23500D02*
X110445D01*
X110020Y23075D02*
Y23925D01*
X119755Y23500D02*
X120605D01*
X120180Y23075D02*
Y23925D01*
X109695Y18350D02*
X110545D01*
X110120Y17925D02*
Y18775D01*
X119855Y18350D02*
X120705D01*
X120280Y17925D02*
Y18775D01*
X109695Y12700D02*
X110545D01*
X110120Y12275D02*
Y13125D01*
X119855Y12700D02*
X120705D01*
X120280Y12275D02*
Y13125D01*
X95665Y23500D02*
X96515D01*
X96090Y23075D02*
Y23925D01*
X103285Y23500D02*
X104135D01*
X103710Y23075D02*
Y23925D01*
X95665Y18850D02*
X96515D01*
X96090Y18425D02*
Y19275D01*
X103285Y18850D02*
X104135D01*
X103710Y18425D02*
Y19275D01*
X95665Y14200D02*
X96515D01*
X96090Y13775D02*
Y14625D01*
X103285Y14200D02*
X104135D01*
X103710Y13775D02*
Y14625D01*
X160750Y95900D02*
X161850D01*
X161300Y95350D02*
Y96450D01*
X160750Y93360D02*
X161850D01*
X161300Y92810D02*
Y93910D01*
X174095Y55000D02*
X175365D01*
X174730Y54365D02*
Y55635D01*
X176635Y55000D02*
X177905D01*
X177270Y54365D02*
Y55635D01*
X176235Y13600D02*
X177505D01*
X176870Y12965D02*
Y14235D01*
X173695Y13600D02*
X174965D01*
X174330Y12965D02*
Y14235D01*
X176335Y34200D02*
X177605D01*
X176970Y33565D02*
Y34835D01*
X173795Y34200D02*
X175065D01*
X174430Y33565D02*
Y34835D01*
M02*
