%FSLAX43Y43*%
%MOMM*%
G71*
G01*
G75*
%ADD10C,0.250*%
%ADD11C,0.254*%
%ADD12C,0.100*%
%ADD13C,1.500*%
%ADD14C,1.500*%
%ADD15C,1.400*%
%ADD16C,1.778*%
%ADD17C,1.600*%
%ADD18C,1.000*%
%ADD19C,2.000*%
D12*
X-0Y-0D02*
Y114000D01*
Y-0D02*
X310000D01*
Y114000D01*
X-0D02*
X310000D01*
D13*
X146320Y34970D02*
D03*
X143780D02*
D03*
X141240D02*
D03*
X138700D02*
D03*
X136160D02*
D03*
X133620D02*
D03*
X131080D02*
D03*
X146320Y27350D02*
D03*
X143780D02*
D03*
X141240D02*
D03*
X138700D02*
D03*
X136160D02*
D03*
X133620D02*
D03*
X131080D02*
D03*
X146320Y52140D02*
D03*
X143780D02*
D03*
X141240D02*
D03*
X138700D02*
D03*
X136160D02*
D03*
X133620D02*
D03*
X131080D02*
D03*
X146320Y44520D02*
D03*
X143780D02*
D03*
X141240D02*
D03*
X138700D02*
D03*
X136160D02*
D03*
X133620D02*
D03*
X131080D02*
D03*
X146140Y87210D02*
D03*
X143600D02*
D03*
X141060D02*
D03*
X138520D02*
D03*
X135980D02*
D03*
X133440D02*
D03*
X130900D02*
D03*
X146140Y79590D02*
D03*
X143600D02*
D03*
X141060D02*
D03*
X138520D02*
D03*
X135980D02*
D03*
X133440D02*
D03*
X130900D02*
D03*
X146140Y105820D02*
D03*
X143600D02*
D03*
X141060D02*
D03*
X138520D02*
D03*
X135980D02*
D03*
X133440D02*
D03*
X130900D02*
D03*
X146140Y98200D02*
D03*
X143600D02*
D03*
X141060D02*
D03*
X138520D02*
D03*
X135980D02*
D03*
X133440D02*
D03*
X130900D02*
D03*
X146180Y17800D02*
D03*
X143640D02*
D03*
X141100D02*
D03*
X138560D02*
D03*
X136020D02*
D03*
X133480D02*
D03*
X130940D02*
D03*
X146180Y10180D02*
D03*
X143640D02*
D03*
X141100D02*
D03*
X138560D02*
D03*
X136020D02*
D03*
X133480D02*
D03*
X130940D02*
D03*
X146320Y69310D02*
D03*
X143780D02*
D03*
X141240D02*
D03*
X138700D02*
D03*
X136160D02*
D03*
X133620D02*
D03*
X131080D02*
D03*
X146320Y61690D02*
D03*
X143780D02*
D03*
X141240D02*
D03*
X138700D02*
D03*
X136160D02*
D03*
X133620D02*
D03*
X131080D02*
D03*
D14*
X287240Y106000D02*
D03*
X284700D02*
D03*
X287240Y48100D02*
D03*
X284700D02*
D03*
X299900Y43660D02*
D03*
Y46200D02*
D03*
X267500Y64700D02*
D03*
X264960D02*
D03*
X267500Y8240D02*
D03*
X264960D02*
D03*
X299900Y8200D02*
D03*
Y10740D02*
D03*
Y25930D02*
D03*
Y28470D02*
D03*
X89100Y95660D02*
D03*
Y98200D02*
D03*
Y100740D02*
D03*
Y103280D02*
D03*
Y75690D02*
D03*
Y78230D02*
D03*
Y80770D02*
D03*
Y83310D02*
D03*
Y55720D02*
D03*
Y58260D02*
D03*
Y60800D02*
D03*
Y63340D02*
D03*
Y35750D02*
D03*
Y38290D02*
D03*
Y40830D02*
D03*
Y43370D02*
D03*
Y15780D02*
D03*
Y18320D02*
D03*
Y20860D02*
D03*
Y23400D02*
D03*
X161300Y77685D02*
D03*
Y75145D02*
D03*
Y59470D02*
D03*
Y56930D02*
D03*
Y41255D02*
D03*
Y38715D02*
D03*
Y23040D02*
D03*
Y20500D02*
D03*
X288640Y43660D02*
D03*
X286100D02*
D03*
X283560D02*
D03*
X284960Y8200D02*
D03*
X287500D02*
D03*
X265960Y105960D02*
D03*
X268500D02*
D03*
X271040D02*
D03*
X264960Y70500D02*
D03*
X267500D02*
D03*
X7200Y6150D02*
D03*
X7100Y23930D02*
D03*
Y21390D02*
D03*
Y18850D02*
D03*
Y16310D02*
D03*
Y13770D02*
D03*
Y11230D02*
D03*
Y8690D02*
D03*
X60400Y34080D02*
D03*
Y36620D02*
D03*
Y39160D02*
D03*
Y41700D02*
D03*
Y44240D02*
D03*
Y46780D02*
D03*
X7100Y29000D02*
D03*
Y31540D02*
D03*
Y34080D02*
D03*
Y36620D02*
D03*
Y39160D02*
D03*
Y41700D02*
D03*
Y44240D02*
D03*
Y46780D02*
D03*
X157575Y103100D02*
D03*
X169225D02*
D03*
X157575Y84825D02*
D03*
X169225D02*
D03*
X157575Y66550D02*
D03*
X169225D02*
D03*
X157675Y48300D02*
D03*
X169325D02*
D03*
X157075Y29700D02*
D03*
X168725D02*
D03*
X60400Y29020D02*
D03*
Y26480D02*
D03*
Y23940D02*
D03*
Y21400D02*
D03*
Y18860D02*
D03*
Y16320D02*
D03*
X300000Y103460D02*
D03*
Y106000D02*
D03*
Y87573D02*
D03*
Y90113D02*
D03*
Y71687D02*
D03*
Y74227D02*
D03*
X73720Y105910D02*
D03*
X76260D02*
D03*
X73720Y103370D02*
D03*
X76260D02*
D03*
X73720Y100830D02*
D03*
X76260D02*
D03*
X73720Y98290D02*
D03*
X76260D02*
D03*
X73720Y95750D02*
D03*
X76260D02*
D03*
X73720Y93210D02*
D03*
X76260D02*
D03*
X73720Y90670D02*
D03*
X76260D02*
D03*
X73720Y88130D02*
D03*
X76260D02*
D03*
X73720Y85590D02*
D03*
X76260D02*
D03*
X73720Y83050D02*
D03*
X76260D02*
D03*
X73720Y80510D02*
D03*
X76260D02*
D03*
X73720Y77970D02*
D03*
X76260D02*
D03*
X73720Y75430D02*
D03*
X76260D02*
D03*
X73720Y72890D02*
D03*
X76260D02*
D03*
X73720Y70350D02*
D03*
X76260D02*
D03*
X73720Y67810D02*
D03*
X76260D02*
D03*
X73720Y65270D02*
D03*
X76260D02*
D03*
X73720Y62730D02*
D03*
X76260D02*
D03*
X48320Y57650D02*
D03*
X45780D02*
D03*
X43240D02*
D03*
X40700D02*
D03*
X38160D02*
D03*
X35620D02*
D03*
X33080D02*
D03*
X30540D02*
D03*
X71180D02*
D03*
X68640D02*
D03*
X66100D02*
D03*
X63560D02*
D03*
X61020D02*
D03*
X58480D02*
D03*
X55940D02*
D03*
X53400D02*
D03*
X21650Y105910D02*
D03*
X19110D02*
D03*
X16570D02*
D03*
X14030D02*
D03*
X11490D02*
D03*
X8950D02*
D03*
X6410D02*
D03*
X3870D02*
D03*
X43240D02*
D03*
X40700D02*
D03*
X38160D02*
D03*
X35620D02*
D03*
X33080D02*
D03*
X30540D02*
D03*
X28000D02*
D03*
X25460D02*
D03*
X12760Y57650D02*
D03*
X15300D02*
D03*
X17840D02*
D03*
X20380D02*
D03*
X22920D02*
D03*
X25460D02*
D03*
X48320Y105910D02*
D03*
X50860D02*
D03*
X53400D02*
D03*
X55940D02*
D03*
X58480D02*
D03*
X61020D02*
D03*
X63560D02*
D03*
X66100D02*
D03*
X300000Y55800D02*
D03*
Y58340D02*
D03*
X247200Y100060D02*
D03*
Y102600D02*
D03*
Y105140D02*
D03*
X193300Y100060D02*
D03*
Y102600D02*
D03*
Y105140D02*
D03*
X247200Y77935D02*
D03*
Y80475D02*
D03*
Y83015D02*
D03*
X193300Y77935D02*
D03*
Y80475D02*
D03*
Y83015D02*
D03*
X247200Y55810D02*
D03*
Y58350D02*
D03*
Y60890D02*
D03*
X193300Y55810D02*
D03*
Y58350D02*
D03*
Y60890D02*
D03*
X247200Y33685D02*
D03*
Y36225D02*
D03*
Y38765D02*
D03*
X193300Y33685D02*
D03*
Y36225D02*
D03*
Y38765D02*
D03*
X247200Y11560D02*
D03*
Y14100D02*
D03*
Y16640D02*
D03*
X193300Y11560D02*
D03*
Y14100D02*
D03*
Y16640D02*
D03*
X161300Y95900D02*
D03*
Y93360D02*
D03*
D15*
X184500Y98610D02*
D03*
Y90990D02*
D03*
X185300Y78110D02*
D03*
Y70490D02*
D03*
X184800Y58510D02*
D03*
Y50890D02*
D03*
X185000Y37810D02*
D03*
Y30190D02*
D03*
X184800Y15510D02*
D03*
Y7890D02*
D03*
X258310Y90800D02*
D03*
X250690D02*
D03*
X250890Y88100D02*
D03*
X258510D02*
D03*
X251090Y27200D02*
D03*
X258710D02*
D03*
Y29900D02*
D03*
X251090D02*
D03*
X110120Y104800D02*
D03*
X120280D02*
D03*
X110120Y99350D02*
D03*
X120280D02*
D03*
X110120Y93900D02*
D03*
X120280D02*
D03*
X96090Y103200D02*
D03*
X103710D02*
D03*
X96090Y98600D02*
D03*
X103710D02*
D03*
X96090Y94000D02*
D03*
X103710D02*
D03*
X110120Y84000D02*
D03*
X120280D02*
D03*
X110120Y78550D02*
D03*
X120280D02*
D03*
X110120Y73100D02*
D03*
X120280D02*
D03*
X96090Y84200D02*
D03*
X103710D02*
D03*
X96090Y79550D02*
D03*
X103710D02*
D03*
X96090Y74900D02*
D03*
X103710D02*
D03*
X110120Y63000D02*
D03*
X120280D02*
D03*
X110120Y57250D02*
D03*
X120280D02*
D03*
X110020Y52400D02*
D03*
X120180D02*
D03*
X96090Y62700D02*
D03*
X103710D02*
D03*
X96090Y57650D02*
D03*
X103710D02*
D03*
X96090Y52600D02*
D03*
X103710D02*
D03*
X110120Y43900D02*
D03*
X120280D02*
D03*
X110120Y38450D02*
D03*
X120280D02*
D03*
X110120Y33000D02*
D03*
X120280D02*
D03*
X96090Y42800D02*
D03*
X103710D02*
D03*
X96090Y38600D02*
D03*
X103710D02*
D03*
X96090Y34400D02*
D03*
X103710D02*
D03*
X110020Y23500D02*
D03*
X120180D02*
D03*
X110120Y18350D02*
D03*
X120280D02*
D03*
X110120Y12700D02*
D03*
X120280D02*
D03*
X96090Y23500D02*
D03*
X103710D02*
D03*
X96090Y18850D02*
D03*
X103710D02*
D03*
X96090Y14200D02*
D03*
X103710D02*
D03*
D16*
X177270Y96000D02*
D03*
X174730D02*
D03*
X177270Y75500D02*
D03*
X174730D02*
D03*
Y55000D02*
D03*
X177270D02*
D03*
X176870Y13600D02*
D03*
X174330D02*
D03*
X176970Y34200D02*
D03*
X174430D02*
D03*
D17*
X178140Y102800D02*
D03*
X175600D02*
D03*
X173060D02*
D03*
X178140Y81800D02*
D03*
X175600D02*
D03*
X173060D02*
D03*
X178140Y61500D02*
D03*
X175600D02*
D03*
X173060D02*
D03*
X178140Y40700D02*
D03*
X175600D02*
D03*
X173060D02*
D03*
X178140Y20200D02*
D03*
X175600D02*
D03*
X173060D02*
D03*
M02*
