M48
;DRILL file {KiCad 4.0.7} date 08/12/18 23:11:12
;FORMAT={3:3/ absolute / metric / suppress trailing zeros}
FMAT,2
METRIC,LZ
T1C0.400
T2C0.900
T3C1.000
T4C1.520
%
G90
G05
M71
T1
X038354Y-058928
X043434Y-06858
X044196Y-056388
X044704Y-042672
X048006Y-048006
X0508Y-047244
X055372Y-031242
X055372Y-037846
X055372Y-056134
X055626Y-068834
X055626Y-073914
X05588Y-036068
X05588Y-050038
X062484Y-055118
X062738Y-066802
X062738Y-068834
X062992Y-054102
X063246Y-060452
X068072Y-046736
X074168Y-054102
X074422Y-073914
X07493Y-05588
X075438Y-052578
X077216Y-0381
X07747Y-07493
X077978Y-054864
X077978Y-068834
X077978Y-073914
X078232Y-031242
X078232Y-056642
X078486Y-050038
X07874Y-047244
X078994Y-053848
X084836Y-036322
X08509Y-034036
X085344Y-04191
X085344Y-051308
X091948Y-047244
X092964Y-044704
X093472Y-063754
X094488Y-065532
X095758Y-047244
X097028Y-067818
X09779Y-045974
X101346Y-047752
X102108Y-066294
X105664Y-04064
T2
X058928Y-043688
X058928Y-046228
X058928Y-062484
X058928Y-065024
X058928Y-081788
X058928Y-084328
X08128Y-043688
X08128Y-046228
X08128Y-062484
X08128Y-065024
X08128Y-081788
X08128Y-084328
T3
X102616Y-031496
X102616Y-034036
X102616Y-036576
X102616Y-039116
X102616Y-041656
X102616Y-044196
T4
X02667Y-03048
X02667Y-03556
X02667Y-04064
X02667Y-04572
X02667Y-0508
X02667Y-05588
X02667Y-06096
X02667Y-06604
X02667Y-07112
X02667Y-0762
X02667Y-08128
X02667Y-08636
X101346Y-072136
X101346Y-077216
X101346Y-082296
T0
M30
