G04 #@! TF.FileFunction,Legend,Top*
%FSLAX46Y46*%
G04 Gerber Fmt 4.6, Leading zero omitted, Abs format (unit mm)*
G04 Created by KiCad (PCBNEW 4.0.7) date 08/12/18 23:10:55*
%MOMM*%
%LPD*%
G01*
G04 APERTURE LIST*
%ADD10C,0.100000*%
%ADD11C,0.300000*%
%ADD12C,0.250000*%
%ADD13C,0.120000*%
%ADD14C,0.127000*%
%ADD15C,0.050000*%
G04 APERTURE END LIST*
D10*
D11*
X104291000Y-32149571D02*
X104291000Y-30649571D01*
X105005286Y-32149571D02*
X105005286Y-30649571D01*
X105862429Y-32149571D01*
X105862429Y-30649571D01*
X107362429Y-32149571D02*
X106505286Y-32149571D01*
X106933858Y-32149571D02*
X106933858Y-30649571D01*
X106791001Y-30863857D01*
X106648143Y-31006714D01*
X106505286Y-31078143D01*
X104291000Y-34699571D02*
X104291000Y-33199571D01*
X105005286Y-34699571D02*
X105005286Y-33199571D01*
X105862429Y-34699571D01*
X105862429Y-33199571D01*
X106505286Y-33342429D02*
X106576715Y-33271000D01*
X106719572Y-33199571D01*
X107076715Y-33199571D01*
X107219572Y-33271000D01*
X107291001Y-33342429D01*
X107362429Y-33485286D01*
X107362429Y-33628143D01*
X107291001Y-33842429D01*
X106433858Y-34699571D01*
X107362429Y-34699571D01*
X104291000Y-37249571D02*
X104291000Y-35749571D01*
X105005286Y-37249571D02*
X105005286Y-35749571D01*
X105862429Y-37249571D01*
X105862429Y-35749571D01*
X106433858Y-35749571D02*
X107362429Y-35749571D01*
X106862429Y-36321000D01*
X107076715Y-36321000D01*
X107219572Y-36392429D01*
X107291001Y-36463857D01*
X107362429Y-36606714D01*
X107362429Y-36963857D01*
X107291001Y-37106714D01*
X107219572Y-37178143D01*
X107076715Y-37249571D01*
X106648143Y-37249571D01*
X106505286Y-37178143D01*
X106433858Y-37106714D01*
X104291000Y-39799571D02*
X104291000Y-38299571D01*
X105005286Y-39799571D02*
X105005286Y-38299571D01*
X105862429Y-39799571D01*
X105862429Y-38299571D01*
X107219572Y-38799571D02*
X107219572Y-39799571D01*
X106862429Y-38228143D02*
X106505286Y-39299571D01*
X107433858Y-39299571D01*
X104291000Y-42349571D02*
X104291000Y-40849571D01*
X105005286Y-42349571D02*
X105005286Y-40849571D01*
X105862429Y-42349571D01*
X105862429Y-40849571D01*
X107291001Y-40849571D02*
X106576715Y-40849571D01*
X106505286Y-41563857D01*
X106576715Y-41492429D01*
X106719572Y-41421000D01*
X107076715Y-41421000D01*
X107219572Y-41492429D01*
X107291001Y-41563857D01*
X107362429Y-41706714D01*
X107362429Y-42063857D01*
X107291001Y-42206714D01*
X107219572Y-42278143D01*
X107076715Y-42349571D01*
X106719572Y-42349571D01*
X106576715Y-42278143D01*
X106505286Y-42206714D01*
X104291000Y-44899571D02*
X104291000Y-43399571D01*
X105005286Y-44899571D02*
X105005286Y-43399571D01*
X105862429Y-44899571D01*
X105862429Y-43399571D01*
X107219572Y-43399571D02*
X106933858Y-43399571D01*
X106791001Y-43471000D01*
X106719572Y-43542429D01*
X106576715Y-43756714D01*
X106505286Y-44042429D01*
X106505286Y-44613857D01*
X106576715Y-44756714D01*
X106648143Y-44828143D01*
X106791001Y-44899571D01*
X107076715Y-44899571D01*
X107219572Y-44828143D01*
X107291001Y-44756714D01*
X107362429Y-44613857D01*
X107362429Y-44256714D01*
X107291001Y-44113857D01*
X107219572Y-44042429D01*
X107076715Y-43971000D01*
X106791001Y-43971000D01*
X106648143Y-44042429D01*
X106576715Y-44113857D01*
X106505286Y-44256714D01*
X105168000Y-73024857D02*
X105096571Y-73167714D01*
X105096571Y-73382000D01*
X105168000Y-73596285D01*
X105310857Y-73739143D01*
X105453714Y-73810571D01*
X105739429Y-73882000D01*
X105953714Y-73882000D01*
X106239429Y-73810571D01*
X106382286Y-73739143D01*
X106525143Y-73596285D01*
X106596571Y-73382000D01*
X106596571Y-73239143D01*
X106525143Y-73024857D01*
X106453714Y-72953428D01*
X105953714Y-72953428D01*
X105953714Y-73239143D01*
X106596571Y-72310571D02*
X105096571Y-72310571D01*
X106596571Y-71453428D01*
X105096571Y-71453428D01*
X106596571Y-70739142D02*
X105096571Y-70739142D01*
X105096571Y-70381999D01*
X105168000Y-70167714D01*
X105310857Y-70024856D01*
X105453714Y-69953428D01*
X105739429Y-69881999D01*
X105953714Y-69881999D01*
X106239429Y-69953428D01*
X106382286Y-70024856D01*
X106525143Y-70167714D01*
X106596571Y-70381999D01*
X106596571Y-70739142D01*
X105350571Y-83383285D02*
X106850571Y-82883285D01*
X105350571Y-82383285D01*
X105350571Y-81168999D02*
X105350571Y-81883285D01*
X106064857Y-81954714D01*
X105993429Y-81883285D01*
X105922000Y-81740428D01*
X105922000Y-81383285D01*
X105993429Y-81240428D01*
X106064857Y-81168999D01*
X106207714Y-81097571D01*
X106564857Y-81097571D01*
X106707714Y-81168999D01*
X106779143Y-81240428D01*
X106850571Y-81383285D01*
X106850571Y-81740428D01*
X106779143Y-81883285D01*
X106707714Y-81954714D01*
X105223571Y-79017571D02*
X106723571Y-78517571D01*
X105223571Y-78017571D01*
X106723571Y-76731857D02*
X106723571Y-77589000D01*
X106723571Y-77160428D02*
X105223571Y-77160428D01*
X105437857Y-77303285D01*
X105580714Y-77446143D01*
X105652143Y-77589000D01*
X105366429Y-76160429D02*
X105295000Y-76089000D01*
X105223571Y-75946143D01*
X105223571Y-75589000D01*
X105295000Y-75446143D01*
X105366429Y-75374714D01*
X105509286Y-75303286D01*
X105652143Y-75303286D01*
X105866429Y-75374714D01*
X106723571Y-76231857D01*
X106723571Y-75303286D01*
X70111857Y-45783429D02*
X68111857Y-45783429D01*
X71254714Y-45069143D02*
X69111857Y-44354858D01*
X69111857Y-46212000D01*
X71111857Y-64468286D02*
X71111857Y-63039715D01*
X69683286Y-62896858D01*
X69826143Y-63039715D01*
X69969000Y-63325429D01*
X69969000Y-64039715D01*
X69826143Y-64325429D01*
X69683286Y-64468286D01*
X69397571Y-64611143D01*
X68683286Y-64611143D01*
X68397571Y-64468286D01*
X68254714Y-64325429D01*
X68111857Y-64039715D01*
X68111857Y-63325429D01*
X68254714Y-63039715D01*
X68397571Y-62896858D01*
X71111857Y-83502429D02*
X71111857Y-82931000D01*
X70969000Y-82645286D01*
X70826143Y-82502429D01*
X70397571Y-82216715D01*
X69826143Y-82073858D01*
X68683286Y-82073858D01*
X68397571Y-82216715D01*
X68254714Y-82359572D01*
X68111857Y-82645286D01*
X68111857Y-83216715D01*
X68254714Y-83502429D01*
X68397571Y-83645286D01*
X68683286Y-83788143D01*
X69397571Y-83788143D01*
X69683286Y-83645286D01*
X69826143Y-83502429D01*
X69969000Y-83216715D01*
X69969000Y-82645286D01*
X69826143Y-82359572D01*
X69683286Y-82216715D01*
X69397571Y-82073858D01*
X93463857Y-81931000D02*
X93463857Y-83788143D01*
X92321000Y-82788143D01*
X92321000Y-83216715D01*
X92178143Y-83502429D01*
X92035286Y-83645286D01*
X91749571Y-83788143D01*
X91035286Y-83788143D01*
X90749571Y-83645286D01*
X90606714Y-83502429D01*
X90463857Y-83216715D01*
X90463857Y-82359572D01*
X90606714Y-82073858D01*
X90749571Y-81931000D01*
X92670143Y-62896858D02*
X92813000Y-63039715D01*
X92955857Y-63325429D01*
X92955857Y-64039715D01*
X92813000Y-64325429D01*
X92670143Y-64468286D01*
X92384429Y-64611143D01*
X92098714Y-64611143D01*
X91670143Y-64468286D01*
X89955857Y-62754000D01*
X89955857Y-64611143D01*
X90082857Y-46069143D02*
X90082857Y-44354858D01*
X90082857Y-45212000D02*
X93082857Y-45212000D01*
X92654286Y-44926286D01*
X92368571Y-44640572D01*
X92225714Y-44354858D01*
D12*
X31416809Y-80478571D02*
X31607286Y-80478571D01*
X31702524Y-80550000D01*
X31797762Y-80692857D01*
X31845381Y-80978571D01*
X31845381Y-81478571D01*
X31797762Y-81764286D01*
X31702524Y-81907143D01*
X31607286Y-81978571D01*
X31416809Y-81978571D01*
X31321571Y-81907143D01*
X31226333Y-81764286D01*
X31178714Y-81478571D01*
X31178714Y-80978571D01*
X31226333Y-80692857D01*
X31321571Y-80550000D01*
X31416809Y-80478571D01*
X32273952Y-80478571D02*
X32273952Y-81692857D01*
X32321571Y-81835714D01*
X32369190Y-81907143D01*
X32464428Y-81978571D01*
X32654905Y-81978571D01*
X32750143Y-81907143D01*
X32797762Y-81835714D01*
X32845381Y-81692857D01*
X32845381Y-80478571D01*
X33178714Y-80478571D02*
X33750143Y-80478571D01*
X33464428Y-81978571D02*
X33464428Y-80478571D01*
X34512048Y-80478571D02*
X34321571Y-80478571D01*
X34226333Y-80550000D01*
X34178714Y-80621429D01*
X34083476Y-80835714D01*
X34035857Y-81121429D01*
X34035857Y-81692857D01*
X34083476Y-81835714D01*
X34131095Y-81907143D01*
X34226333Y-81978571D01*
X34416810Y-81978571D01*
X34512048Y-81907143D01*
X34559667Y-81835714D01*
X34607286Y-81692857D01*
X34607286Y-81335714D01*
X34559667Y-81192857D01*
X34512048Y-81121429D01*
X34416810Y-81050000D01*
X34226333Y-81050000D01*
X34131095Y-81121429D01*
X34083476Y-81192857D01*
X34035857Y-81335714D01*
X31289809Y-70318571D02*
X31480286Y-70318571D01*
X31575524Y-70390000D01*
X31670762Y-70532857D01*
X31718381Y-70818571D01*
X31718381Y-71318571D01*
X31670762Y-71604286D01*
X31575524Y-71747143D01*
X31480286Y-71818571D01*
X31289809Y-71818571D01*
X31194571Y-71747143D01*
X31099333Y-71604286D01*
X31051714Y-71318571D01*
X31051714Y-70818571D01*
X31099333Y-70532857D01*
X31194571Y-70390000D01*
X31289809Y-70318571D01*
X32146952Y-70318571D02*
X32146952Y-71532857D01*
X32194571Y-71675714D01*
X32242190Y-71747143D01*
X32337428Y-71818571D01*
X32527905Y-71818571D01*
X32623143Y-71747143D01*
X32670762Y-71675714D01*
X32718381Y-71532857D01*
X32718381Y-70318571D01*
X33051714Y-70318571D02*
X33623143Y-70318571D01*
X33337428Y-71818571D02*
X33337428Y-70318571D01*
X34432667Y-70318571D02*
X33956476Y-70318571D01*
X33908857Y-71032857D01*
X33956476Y-70961429D01*
X34051714Y-70890000D01*
X34289810Y-70890000D01*
X34385048Y-70961429D01*
X34432667Y-71032857D01*
X34480286Y-71175714D01*
X34480286Y-71532857D01*
X34432667Y-71675714D01*
X34385048Y-71747143D01*
X34289810Y-71818571D01*
X34051714Y-71818571D01*
X33956476Y-71747143D01*
X33908857Y-71675714D01*
X31416809Y-60031571D02*
X31607286Y-60031571D01*
X31702524Y-60103000D01*
X31797762Y-60245857D01*
X31845381Y-60531571D01*
X31845381Y-61031571D01*
X31797762Y-61317286D01*
X31702524Y-61460143D01*
X31607286Y-61531571D01*
X31416809Y-61531571D01*
X31321571Y-61460143D01*
X31226333Y-61317286D01*
X31178714Y-61031571D01*
X31178714Y-60531571D01*
X31226333Y-60245857D01*
X31321571Y-60103000D01*
X31416809Y-60031571D01*
X32273952Y-60031571D02*
X32273952Y-61245857D01*
X32321571Y-61388714D01*
X32369190Y-61460143D01*
X32464428Y-61531571D01*
X32654905Y-61531571D01*
X32750143Y-61460143D01*
X32797762Y-61388714D01*
X32845381Y-61245857D01*
X32845381Y-60031571D01*
X33178714Y-60031571D02*
X33750143Y-60031571D01*
X33464428Y-61531571D02*
X33464428Y-60031571D01*
X34512048Y-60531571D02*
X34512048Y-61531571D01*
X34273952Y-59960143D02*
X34035857Y-61031571D01*
X34654905Y-61031571D01*
X31162809Y-49871571D02*
X31353286Y-49871571D01*
X31448524Y-49943000D01*
X31543762Y-50085857D01*
X31591381Y-50371571D01*
X31591381Y-50871571D01*
X31543762Y-51157286D01*
X31448524Y-51300143D01*
X31353286Y-51371571D01*
X31162809Y-51371571D01*
X31067571Y-51300143D01*
X30972333Y-51157286D01*
X30924714Y-50871571D01*
X30924714Y-50371571D01*
X30972333Y-50085857D01*
X31067571Y-49943000D01*
X31162809Y-49871571D01*
X32019952Y-49871571D02*
X32019952Y-51085857D01*
X32067571Y-51228714D01*
X32115190Y-51300143D01*
X32210428Y-51371571D01*
X32400905Y-51371571D01*
X32496143Y-51300143D01*
X32543762Y-51228714D01*
X32591381Y-51085857D01*
X32591381Y-49871571D01*
X32924714Y-49871571D02*
X33496143Y-49871571D01*
X33210428Y-51371571D02*
X33210428Y-49871571D01*
X33734238Y-49871571D02*
X34353286Y-49871571D01*
X34019952Y-50443000D01*
X34162810Y-50443000D01*
X34258048Y-50514429D01*
X34305667Y-50585857D01*
X34353286Y-50728714D01*
X34353286Y-51085857D01*
X34305667Y-51228714D01*
X34258048Y-51300143D01*
X34162810Y-51371571D01*
X33877095Y-51371571D01*
X33781857Y-51300143D01*
X33734238Y-51228714D01*
X31416809Y-39818571D02*
X31607286Y-39818571D01*
X31702524Y-39890000D01*
X31797762Y-40032857D01*
X31845381Y-40318571D01*
X31845381Y-40818571D01*
X31797762Y-41104286D01*
X31702524Y-41247143D01*
X31607286Y-41318571D01*
X31416809Y-41318571D01*
X31321571Y-41247143D01*
X31226333Y-41104286D01*
X31178714Y-40818571D01*
X31178714Y-40318571D01*
X31226333Y-40032857D01*
X31321571Y-39890000D01*
X31416809Y-39818571D01*
X32273952Y-39818571D02*
X32273952Y-41032857D01*
X32321571Y-41175714D01*
X32369190Y-41247143D01*
X32464428Y-41318571D01*
X32654905Y-41318571D01*
X32750143Y-41247143D01*
X32797762Y-41175714D01*
X32845381Y-41032857D01*
X32845381Y-39818571D01*
X33178714Y-39818571D02*
X33750143Y-39818571D01*
X33464428Y-41318571D02*
X33464428Y-39818571D01*
X34035857Y-39961429D02*
X34083476Y-39890000D01*
X34178714Y-39818571D01*
X34416810Y-39818571D01*
X34512048Y-39890000D01*
X34559667Y-39961429D01*
X34607286Y-40104286D01*
X34607286Y-40247143D01*
X34559667Y-40461429D01*
X33988238Y-41318571D01*
X34607286Y-41318571D01*
X31543809Y-29531571D02*
X31734286Y-29531571D01*
X31829524Y-29603000D01*
X31924762Y-29745857D01*
X31972381Y-30031571D01*
X31972381Y-30531571D01*
X31924762Y-30817286D01*
X31829524Y-30960143D01*
X31734286Y-31031571D01*
X31543809Y-31031571D01*
X31448571Y-30960143D01*
X31353333Y-30817286D01*
X31305714Y-30531571D01*
X31305714Y-30031571D01*
X31353333Y-29745857D01*
X31448571Y-29603000D01*
X31543809Y-29531571D01*
X32400952Y-29531571D02*
X32400952Y-30745857D01*
X32448571Y-30888714D01*
X32496190Y-30960143D01*
X32591428Y-31031571D01*
X32781905Y-31031571D01*
X32877143Y-30960143D01*
X32924762Y-30888714D01*
X32972381Y-30745857D01*
X32972381Y-29531571D01*
X33305714Y-29531571D02*
X33877143Y-29531571D01*
X33591428Y-31031571D02*
X33591428Y-29531571D01*
X34734286Y-31031571D02*
X34162857Y-31031571D01*
X34448571Y-31031571D02*
X34448571Y-29531571D01*
X34353333Y-29745857D01*
X34258095Y-29888714D01*
X34162857Y-29960143D01*
D11*
X27450000Y-55107143D02*
X27521429Y-54964286D01*
X27521429Y-54750000D01*
X27450000Y-54535715D01*
X27307143Y-54392857D01*
X27164286Y-54321429D01*
X26878571Y-54250000D01*
X26664286Y-54250000D01*
X26378571Y-54321429D01*
X26235714Y-54392857D01*
X26092857Y-54535715D01*
X26021429Y-54750000D01*
X26021429Y-54892857D01*
X26092857Y-55107143D01*
X26164286Y-55178572D01*
X26664286Y-55178572D01*
X26664286Y-54892857D01*
X26021429Y-55821429D02*
X27521429Y-55821429D01*
X26021429Y-56678572D01*
X27521429Y-56678572D01*
X26021429Y-57392858D02*
X27521429Y-57392858D01*
X27521429Y-57750001D01*
X27450000Y-57964286D01*
X27307143Y-58107144D01*
X27164286Y-58178572D01*
X26878571Y-58250001D01*
X26664286Y-58250001D01*
X26378571Y-58178572D01*
X26235714Y-58107144D01*
X26092857Y-57964286D01*
X26021429Y-57750001D01*
X26021429Y-57392858D01*
D12*
X101274714Y-48626286D02*
X101131857Y-48769143D01*
X101131857Y-49007239D01*
X101274714Y-49102477D01*
X101417571Y-49150096D01*
X101703286Y-49197715D01*
X101989000Y-49197715D01*
X102274714Y-49150096D01*
X102417571Y-49102477D01*
X102560429Y-49007239D01*
X102703286Y-48816762D01*
X102846143Y-48721524D01*
X102989000Y-48673905D01*
X103274714Y-48626286D01*
X103560429Y-48626286D01*
X103846143Y-48673905D01*
X103989000Y-48721524D01*
X104131857Y-48816762D01*
X104131857Y-49054858D01*
X103989000Y-49197715D01*
X104131857Y-49816762D02*
X104131857Y-50007239D01*
X103989000Y-50102477D01*
X103703286Y-50197715D01*
X103131857Y-50245334D01*
X102131857Y-50245334D01*
X101560429Y-50197715D01*
X101274714Y-50102477D01*
X101131857Y-50007239D01*
X101131857Y-49816762D01*
X101274714Y-49721524D01*
X101560429Y-49626286D01*
X102131857Y-49578667D01*
X103131857Y-49578667D01*
X103703286Y-49626286D01*
X103989000Y-49721524D01*
X104131857Y-49816762D01*
X101131857Y-51150096D02*
X101131857Y-50673905D01*
X104131857Y-50673905D01*
X102703286Y-51483429D02*
X102703286Y-51816763D01*
X101131857Y-51959620D02*
X101131857Y-51483429D01*
X104131857Y-51483429D01*
X104131857Y-51959620D01*
X101131857Y-52388191D02*
X104131857Y-52388191D01*
X101131857Y-52959620D01*
X104131857Y-52959620D01*
X104131857Y-53626286D02*
X104131857Y-53816763D01*
X103989000Y-53912001D01*
X103703286Y-54007239D01*
X103131857Y-54054858D01*
X102131857Y-54054858D01*
X101560429Y-54007239D01*
X101274714Y-53912001D01*
X101131857Y-53816763D01*
X101131857Y-53626286D01*
X101274714Y-53531048D01*
X101560429Y-53435810D01*
X102131857Y-53388191D01*
X103131857Y-53388191D01*
X103703286Y-53435810D01*
X103989000Y-53531048D01*
X104131857Y-53626286D01*
X101131857Y-54483429D02*
X104131857Y-54483429D01*
X101131857Y-54959619D02*
X104131857Y-54959619D01*
X104131857Y-55197714D01*
X103989000Y-55340572D01*
X103703286Y-55435810D01*
X103417571Y-55483429D01*
X102846143Y-55531048D01*
X102417571Y-55531048D01*
X101846143Y-55483429D01*
X101560429Y-55435810D01*
X101274714Y-55340572D01*
X101131857Y-55197714D01*
X101131857Y-54959619D01*
X101131857Y-56721524D02*
X104131857Y-56721524D01*
X104131857Y-56959619D01*
X103989000Y-57102477D01*
X103703286Y-57197715D01*
X103417571Y-57245334D01*
X102846143Y-57292953D01*
X102417571Y-57292953D01*
X101846143Y-57245334D01*
X101560429Y-57197715D01*
X101274714Y-57102477D01*
X101131857Y-56959619D01*
X101131857Y-56721524D01*
X101131857Y-58292953D02*
X102560429Y-57959619D01*
X101131857Y-57721524D02*
X104131857Y-57721524D01*
X104131857Y-58102477D01*
X103989000Y-58197715D01*
X103846143Y-58245334D01*
X103560429Y-58292953D01*
X103131857Y-58292953D01*
X102846143Y-58245334D01*
X102703286Y-58197715D01*
X102560429Y-58102477D01*
X102560429Y-57721524D01*
X101131857Y-58721524D02*
X104131857Y-58721524D01*
X104131857Y-59054857D02*
X101131857Y-59388190D01*
X104131857Y-59721524D01*
X102703286Y-60054857D02*
X102703286Y-60388191D01*
X101131857Y-60531048D02*
X101131857Y-60054857D01*
X104131857Y-60054857D01*
X104131857Y-60531048D01*
X101131857Y-61531048D02*
X102560429Y-61197714D01*
X101131857Y-60959619D02*
X104131857Y-60959619D01*
X104131857Y-61340572D01*
X103989000Y-61435810D01*
X103846143Y-61483429D01*
X103560429Y-61531048D01*
X103131857Y-61531048D01*
X102846143Y-61483429D01*
X102703286Y-61435810D01*
X102560429Y-61340572D01*
X102560429Y-60959619D01*
X102703286Y-63054858D02*
X102560429Y-63197715D01*
X102417571Y-63245334D01*
X102131857Y-63292953D01*
X101703286Y-63292953D01*
X101417571Y-63245334D01*
X101274714Y-63197715D01*
X101131857Y-63102477D01*
X101131857Y-62721524D01*
X104131857Y-62721524D01*
X104131857Y-63054858D01*
X103989000Y-63150096D01*
X103846143Y-63197715D01*
X103560429Y-63245334D01*
X103274714Y-63245334D01*
X102989000Y-63197715D01*
X102846143Y-63150096D01*
X102703286Y-63054858D01*
X102703286Y-62721524D01*
X104131857Y-63912000D02*
X104131857Y-64102477D01*
X103989000Y-64197715D01*
X103703286Y-64292953D01*
X103131857Y-64340572D01*
X102131857Y-64340572D01*
X101560429Y-64292953D01*
X101274714Y-64197715D01*
X101131857Y-64102477D01*
X101131857Y-63912000D01*
X101274714Y-63816762D01*
X101560429Y-63721524D01*
X102131857Y-63673905D01*
X103131857Y-63673905D01*
X103703286Y-63721524D01*
X103989000Y-63816762D01*
X104131857Y-63912000D01*
X101989000Y-64721524D02*
X101989000Y-65197715D01*
X101131857Y-64626286D02*
X104131857Y-64959619D01*
X101131857Y-65292953D01*
X101131857Y-66197715D02*
X102560429Y-65864381D01*
X101131857Y-65626286D02*
X104131857Y-65626286D01*
X104131857Y-66007239D01*
X103989000Y-66102477D01*
X103846143Y-66150096D01*
X103560429Y-66197715D01*
X103131857Y-66197715D01*
X102846143Y-66150096D01*
X102703286Y-66102477D01*
X102560429Y-66007239D01*
X102560429Y-65626286D01*
X101131857Y-66626286D02*
X104131857Y-66626286D01*
X104131857Y-66864381D01*
X103989000Y-67007239D01*
X103703286Y-67102477D01*
X103417571Y-67150096D01*
X102846143Y-67197715D01*
X102417571Y-67197715D01*
X101846143Y-67150096D01*
X101560429Y-67102477D01*
X101274714Y-67007239D01*
X101131857Y-66864381D01*
X101131857Y-66626286D01*
D13*
X87868000Y-44758000D02*
X85868000Y-44758000D01*
X85868000Y-42618000D02*
X87868000Y-42618000D01*
X85868000Y-45158000D02*
X87868000Y-45158000D01*
X87868000Y-47298000D02*
X85868000Y-47298000D01*
X87868000Y-63554000D02*
X85868000Y-63554000D01*
X85868000Y-61414000D02*
X87868000Y-61414000D01*
X85868000Y-63954000D02*
X87868000Y-63954000D01*
X87868000Y-66094000D02*
X85868000Y-66094000D01*
X86376000Y-83258000D02*
X88376000Y-83258000D01*
X88376000Y-85398000D02*
X86376000Y-85398000D01*
X64024000Y-45158000D02*
X66024000Y-45158000D01*
X66024000Y-47298000D02*
X64024000Y-47298000D01*
X64024000Y-63954000D02*
X66024000Y-63954000D01*
X66024000Y-66094000D02*
X64024000Y-66094000D01*
X64024000Y-83258000D02*
X66024000Y-83258000D01*
X66024000Y-85398000D02*
X64024000Y-85398000D01*
X88376000Y-82350000D02*
X86376000Y-82350000D01*
X86376000Y-80210000D02*
X88376000Y-80210000D01*
X66024000Y-44758000D02*
X64024000Y-44758000D01*
X64024000Y-42618000D02*
X66024000Y-42618000D01*
X66024000Y-63554000D02*
X64024000Y-63554000D01*
X64024000Y-61414000D02*
X66024000Y-61414000D01*
X66024000Y-82858000D02*
X64024000Y-82858000D01*
X64024000Y-80718000D02*
X66024000Y-80718000D01*
X85926000Y-29852000D02*
X84426000Y-29852000D01*
X84426000Y-29852000D02*
X84426000Y-30542000D01*
X84426000Y-30542000D02*
X79301000Y-30542000D01*
X85926000Y-40252000D02*
X84426000Y-40252000D01*
X84426000Y-40252000D02*
X84426000Y-39562000D01*
X84426000Y-39562000D02*
X83326000Y-39562000D01*
X85926000Y-48648000D02*
X84426000Y-48648000D01*
X84426000Y-48648000D02*
X84426000Y-49338000D01*
X84426000Y-49338000D02*
X79301000Y-49338000D01*
X85926000Y-59048000D02*
X84426000Y-59048000D01*
X84426000Y-59048000D02*
X84426000Y-58358000D01*
X84426000Y-58358000D02*
X83326000Y-58358000D01*
X85926000Y-67444000D02*
X84426000Y-67444000D01*
X84426000Y-67444000D02*
X84426000Y-68134000D01*
X84426000Y-68134000D02*
X79301000Y-68134000D01*
X85926000Y-77844000D02*
X84426000Y-77844000D01*
X84426000Y-77844000D02*
X84426000Y-77154000D01*
X84426000Y-77154000D02*
X83326000Y-77154000D01*
X63574000Y-29852000D02*
X62074000Y-29852000D01*
X62074000Y-29852000D02*
X62074000Y-30542000D01*
X62074000Y-30542000D02*
X56949000Y-30542000D01*
X63574000Y-40252000D02*
X62074000Y-40252000D01*
X62074000Y-40252000D02*
X62074000Y-39562000D01*
X62074000Y-39562000D02*
X60974000Y-39562000D01*
X63574000Y-48648000D02*
X62074000Y-48648000D01*
X62074000Y-48648000D02*
X62074000Y-49338000D01*
X62074000Y-49338000D02*
X56949000Y-49338000D01*
X63574000Y-59048000D02*
X62074000Y-59048000D01*
X62074000Y-59048000D02*
X62074000Y-58358000D01*
X62074000Y-58358000D02*
X60974000Y-58358000D01*
X63574000Y-67444000D02*
X62074000Y-67444000D01*
X62074000Y-67444000D02*
X62074000Y-68134000D01*
X62074000Y-68134000D02*
X56949000Y-68134000D01*
X63574000Y-77844000D02*
X62074000Y-77844000D01*
X62074000Y-77844000D02*
X62074000Y-77154000D01*
X62074000Y-77154000D02*
X60974000Y-77154000D01*
D14*
X42418000Y-35433000D02*
X36830000Y-35433000D01*
X36830000Y-35433000D02*
X36830000Y-29591000D01*
X36830000Y-29591000D02*
X42418000Y-29591000D01*
X42418000Y-29591000D02*
X42418000Y-35433000D01*
G36*
X38735000Y-30607000D02*
X40640000Y-32512000D01*
X38735000Y-34417000D01*
X38735000Y-30607000D01*
G37*
X38735000Y-30607000D02*
X40640000Y-32512000D01*
X38735000Y-34417000D01*
X38735000Y-30607000D01*
X52578000Y-35433000D02*
X46990000Y-35433000D01*
X46990000Y-35433000D02*
X46990000Y-29591000D01*
X46990000Y-29591000D02*
X52578000Y-29591000D01*
X52578000Y-29591000D02*
X52578000Y-35433000D01*
G36*
X48895000Y-30607000D02*
X50800000Y-32512000D01*
X48895000Y-34417000D01*
X48895000Y-30607000D01*
G37*
X48895000Y-30607000D02*
X50800000Y-32512000D01*
X48895000Y-34417000D01*
X48895000Y-30607000D01*
X42418000Y-45593000D02*
X36830000Y-45593000D01*
X36830000Y-45593000D02*
X36830000Y-39751000D01*
X36830000Y-39751000D02*
X42418000Y-39751000D01*
X42418000Y-39751000D02*
X42418000Y-45593000D01*
G36*
X38735000Y-40767000D02*
X40640000Y-42672000D01*
X38735000Y-44577000D01*
X38735000Y-40767000D01*
G37*
X38735000Y-40767000D02*
X40640000Y-42672000D01*
X38735000Y-44577000D01*
X38735000Y-40767000D01*
X52578000Y-45593000D02*
X46990000Y-45593000D01*
X46990000Y-45593000D02*
X46990000Y-39751000D01*
X46990000Y-39751000D02*
X52578000Y-39751000D01*
X52578000Y-39751000D02*
X52578000Y-45593000D01*
G36*
X48895000Y-40767000D02*
X50800000Y-42672000D01*
X48895000Y-44577000D01*
X48895000Y-40767000D01*
G37*
X48895000Y-40767000D02*
X50800000Y-42672000D01*
X48895000Y-44577000D01*
X48895000Y-40767000D01*
X42418000Y-55753000D02*
X36830000Y-55753000D01*
X36830000Y-55753000D02*
X36830000Y-49911000D01*
X36830000Y-49911000D02*
X42418000Y-49911000D01*
X42418000Y-49911000D02*
X42418000Y-55753000D01*
G36*
X38735000Y-50927000D02*
X40640000Y-52832000D01*
X38735000Y-54737000D01*
X38735000Y-50927000D01*
G37*
X38735000Y-50927000D02*
X40640000Y-52832000D01*
X38735000Y-54737000D01*
X38735000Y-50927000D01*
X52578000Y-55753000D02*
X46990000Y-55753000D01*
X46990000Y-55753000D02*
X46990000Y-49911000D01*
X46990000Y-49911000D02*
X52578000Y-49911000D01*
X52578000Y-49911000D02*
X52578000Y-55753000D01*
G36*
X48895000Y-50927000D02*
X50800000Y-52832000D01*
X48895000Y-54737000D01*
X48895000Y-50927000D01*
G37*
X48895000Y-50927000D02*
X50800000Y-52832000D01*
X48895000Y-54737000D01*
X48895000Y-50927000D01*
X42418000Y-65913000D02*
X36830000Y-65913000D01*
X36830000Y-65913000D02*
X36830000Y-60071000D01*
X36830000Y-60071000D02*
X42418000Y-60071000D01*
X42418000Y-60071000D02*
X42418000Y-65913000D01*
G36*
X38735000Y-61087000D02*
X40640000Y-62992000D01*
X38735000Y-64897000D01*
X38735000Y-61087000D01*
G37*
X38735000Y-61087000D02*
X40640000Y-62992000D01*
X38735000Y-64897000D01*
X38735000Y-61087000D01*
X52578000Y-65913000D02*
X46990000Y-65913000D01*
X46990000Y-65913000D02*
X46990000Y-60071000D01*
X46990000Y-60071000D02*
X52578000Y-60071000D01*
X52578000Y-60071000D02*
X52578000Y-65913000D01*
G36*
X48895000Y-61087000D02*
X50800000Y-62992000D01*
X48895000Y-64897000D01*
X48895000Y-61087000D01*
G37*
X48895000Y-61087000D02*
X50800000Y-62992000D01*
X48895000Y-64897000D01*
X48895000Y-61087000D01*
X42418000Y-76073000D02*
X36830000Y-76073000D01*
X36830000Y-76073000D02*
X36830000Y-70231000D01*
X36830000Y-70231000D02*
X42418000Y-70231000D01*
X42418000Y-70231000D02*
X42418000Y-76073000D01*
G36*
X38735000Y-71247000D02*
X40640000Y-73152000D01*
X38735000Y-75057000D01*
X38735000Y-71247000D01*
G37*
X38735000Y-71247000D02*
X40640000Y-73152000D01*
X38735000Y-75057000D01*
X38735000Y-71247000D01*
X52578000Y-76073000D02*
X46990000Y-76073000D01*
X46990000Y-76073000D02*
X46990000Y-70231000D01*
X46990000Y-70231000D02*
X52578000Y-70231000D01*
X52578000Y-70231000D02*
X52578000Y-76073000D01*
G36*
X48895000Y-71247000D02*
X50800000Y-73152000D01*
X48895000Y-75057000D01*
X48895000Y-71247000D01*
G37*
X48895000Y-71247000D02*
X50800000Y-73152000D01*
X48895000Y-75057000D01*
X48895000Y-71247000D01*
X42418000Y-85725000D02*
X36830000Y-85725000D01*
X36830000Y-85725000D02*
X36830000Y-79883000D01*
X36830000Y-79883000D02*
X42418000Y-79883000D01*
X42418000Y-79883000D02*
X42418000Y-85725000D01*
G36*
X38735000Y-80899000D02*
X40640000Y-82804000D01*
X38735000Y-84709000D01*
X38735000Y-80899000D01*
G37*
X38735000Y-80899000D02*
X40640000Y-82804000D01*
X38735000Y-84709000D01*
X38735000Y-80899000D01*
X52578000Y-85725000D02*
X46990000Y-85725000D01*
X46990000Y-85725000D02*
X46990000Y-79883000D01*
X46990000Y-79883000D02*
X52578000Y-79883000D01*
X52578000Y-79883000D02*
X52578000Y-85725000D01*
G36*
X48895000Y-80899000D02*
X50800000Y-82804000D01*
X48895000Y-84709000D01*
X48895000Y-80899000D01*
G37*
X48895000Y-80899000D02*
X50800000Y-82804000D01*
X48895000Y-84709000D01*
X48895000Y-80899000D01*
D13*
X82358608Y-65426335D02*
G75*
G03X82515516Y-62194000I-1078608J1672335D01*
G01*
X80201392Y-65426335D02*
G75*
G02X80044484Y-62194000I1078608J1672335D01*
G01*
X82359837Y-64795130D02*
G75*
G03X82360000Y-62713039I-1079837J1041130D01*
G01*
X80200163Y-64795130D02*
G75*
G02X80200000Y-62713039I1079837J1041130D01*
G01*
X82516000Y-62194000D02*
X82360000Y-62194000D01*
X80200000Y-62194000D02*
X80044000Y-62194000D01*
X82358608Y-84730335D02*
G75*
G03X82515516Y-81498000I-1078608J1672335D01*
G01*
X80201392Y-84730335D02*
G75*
G02X80044484Y-81498000I1078608J1672335D01*
G01*
X82359837Y-84099130D02*
G75*
G03X82360000Y-82017039I-1079837J1041130D01*
G01*
X80200163Y-84099130D02*
G75*
G02X80200000Y-82017039I1079837J1041130D01*
G01*
X82516000Y-81498000D02*
X82360000Y-81498000D01*
X80200000Y-81498000D02*
X80044000Y-81498000D01*
X60006608Y-46630335D02*
G75*
G03X60163516Y-43398000I-1078608J1672335D01*
G01*
X57849392Y-46630335D02*
G75*
G02X57692484Y-43398000I1078608J1672335D01*
G01*
X60007837Y-45999130D02*
G75*
G03X60008000Y-43917039I-1079837J1041130D01*
G01*
X57848163Y-45999130D02*
G75*
G02X57848000Y-43917039I1079837J1041130D01*
G01*
X60164000Y-43398000D02*
X60008000Y-43398000D01*
X57848000Y-43398000D02*
X57692000Y-43398000D01*
X60006608Y-65426335D02*
G75*
G03X60163516Y-62194000I-1078608J1672335D01*
G01*
X57849392Y-65426335D02*
G75*
G02X57692484Y-62194000I1078608J1672335D01*
G01*
X60007837Y-64795130D02*
G75*
G03X60008000Y-62713039I-1079837J1041130D01*
G01*
X57848163Y-64795130D02*
G75*
G02X57848000Y-62713039I1079837J1041130D01*
G01*
X60164000Y-62194000D02*
X60008000Y-62194000D01*
X57848000Y-62194000D02*
X57692000Y-62194000D01*
X60006608Y-84730335D02*
G75*
G03X60163516Y-81498000I-1078608J1672335D01*
G01*
X57849392Y-84730335D02*
G75*
G02X57692484Y-81498000I1078608J1672335D01*
G01*
X60007837Y-84099130D02*
G75*
G03X60008000Y-82017039I-1079837J1041130D01*
G01*
X57848163Y-84099130D02*
G75*
G02X57848000Y-82017039I1079837J1041130D01*
G01*
X60164000Y-81498000D02*
X60008000Y-81498000D01*
X57848000Y-81498000D02*
X57692000Y-81498000D01*
X97536000Y-69596000D02*
X105156000Y-69596000D01*
X97536000Y-84836000D02*
X105156000Y-84836000D01*
X98806000Y-69596000D02*
X98806000Y-84836000D01*
X105156000Y-69596000D02*
X105156000Y-84836000D01*
X97536000Y-69596000D02*
X97536000Y-84836000D01*
X101286000Y-45526000D02*
X103946000Y-45526000D01*
X101286000Y-32766000D02*
X101286000Y-45526000D01*
X103946000Y-32766000D02*
X103946000Y-45526000D01*
X101286000Y-32766000D02*
X103946000Y-32766000D01*
X101286000Y-31496000D02*
X101286000Y-30166000D01*
X101286000Y-30166000D02*
X102616000Y-30166000D01*
X29210000Y-27940000D02*
X29210000Y-38100000D01*
X30480000Y-27940000D02*
X22860000Y-27940000D01*
X22860000Y-27940000D02*
X22860000Y-38100000D01*
X22860000Y-38100000D02*
X30480000Y-38100000D01*
X30480000Y-38100000D02*
X30480000Y-27940000D01*
X29210000Y-38100000D02*
X29210000Y-48260000D01*
X30480000Y-38100000D02*
X22860000Y-38100000D01*
X22860000Y-38100000D02*
X22860000Y-48260000D01*
X22860000Y-48260000D02*
X30480000Y-48260000D01*
X30480000Y-48260000D02*
X30480000Y-38100000D01*
X29210000Y-48260000D02*
X29210000Y-58420000D01*
X30480000Y-48260000D02*
X22860000Y-48260000D01*
X22860000Y-48260000D02*
X22860000Y-58420000D01*
X22860000Y-58420000D02*
X30480000Y-58420000D01*
X30480000Y-58420000D02*
X30480000Y-48260000D01*
X29210000Y-58420000D02*
X29210000Y-68580000D01*
X30480000Y-58420000D02*
X22860000Y-58420000D01*
X22860000Y-58420000D02*
X22860000Y-68580000D01*
X22860000Y-68580000D02*
X30480000Y-68580000D01*
X30480000Y-68580000D02*
X30480000Y-58420000D01*
X29210000Y-68580000D02*
X29210000Y-78740000D01*
X30480000Y-68580000D02*
X22860000Y-68580000D01*
X22860000Y-68580000D02*
X22860000Y-78740000D01*
X22860000Y-78740000D02*
X30480000Y-78740000D01*
X30480000Y-78740000D02*
X30480000Y-68580000D01*
X29210000Y-78740000D02*
X29210000Y-88900000D01*
X30480000Y-78740000D02*
X22860000Y-78740000D01*
X22860000Y-78740000D02*
X22860000Y-88900000D01*
X22860000Y-88900000D02*
X30480000Y-88900000D01*
X30480000Y-88900000D02*
X30480000Y-78740000D01*
X82358608Y-46630335D02*
G75*
G03X82515516Y-43398000I-1078608J1672335D01*
G01*
X80201392Y-46630335D02*
G75*
G02X80044484Y-43398000I1078608J1672335D01*
G01*
X82359837Y-45999130D02*
G75*
G03X82360000Y-43917039I-1079837J1041130D01*
G01*
X80200163Y-45999130D02*
G75*
G02X80200000Y-43917039I1079837J1041130D01*
G01*
X82516000Y-43398000D02*
X82360000Y-43398000D01*
X80200000Y-43398000D02*
X80044000Y-43398000D01*
D15*
X37019344Y-37344969D02*
X37019344Y-35942459D01*
X37353275Y-35942459D01*
X37553633Y-36009245D01*
X37687206Y-36142817D01*
X37753992Y-36276390D01*
X37820778Y-36543535D01*
X37820778Y-36743893D01*
X37753992Y-37011038D01*
X37687206Y-37144610D01*
X37553633Y-37278183D01*
X37353275Y-37344969D01*
X37019344Y-37344969D01*
X38087923Y-37478541D02*
X39156502Y-37478541D01*
X39423647Y-36944252D02*
X40091509Y-36944252D01*
X39290074Y-37344969D02*
X39757578Y-35942459D01*
X40225081Y-37344969D01*
X41360446Y-37344969D02*
X40692584Y-37344969D01*
X40692584Y-35942459D01*
X41627590Y-35942459D02*
X42429025Y-35942459D01*
X42028308Y-37344969D02*
X42028308Y-35942459D01*
X47179344Y-37344969D02*
X47179344Y-35942459D01*
X47513275Y-35942459D01*
X47713633Y-36009245D01*
X47847206Y-36142817D01*
X47913992Y-36276390D01*
X47980778Y-36543535D01*
X47980778Y-36743893D01*
X47913992Y-37011038D01*
X47847206Y-37144610D01*
X47713633Y-37278183D01*
X47513275Y-37344969D01*
X47179344Y-37344969D01*
X48247923Y-37478541D02*
X49316502Y-37478541D01*
X49583647Y-36944252D02*
X50251509Y-36944252D01*
X49450074Y-37344969D02*
X49917578Y-35942459D01*
X50385081Y-37344969D01*
X51520446Y-37344969D02*
X50852584Y-37344969D01*
X50852584Y-35942459D01*
X51787590Y-35942459D02*
X52589025Y-35942459D01*
X52188308Y-37344969D02*
X52188308Y-35942459D01*
X37019344Y-47504969D02*
X37019344Y-46102459D01*
X37353275Y-46102459D01*
X37553633Y-46169245D01*
X37687206Y-46302817D01*
X37753992Y-46436390D01*
X37820778Y-46703535D01*
X37820778Y-46903893D01*
X37753992Y-47171038D01*
X37687206Y-47304610D01*
X37553633Y-47438183D01*
X37353275Y-47504969D01*
X37019344Y-47504969D01*
X38087923Y-47638541D02*
X39156502Y-47638541D01*
X39423647Y-47104252D02*
X40091509Y-47104252D01*
X39290074Y-47504969D02*
X39757578Y-46102459D01*
X40225081Y-47504969D01*
X41360446Y-47504969D02*
X40692584Y-47504969D01*
X40692584Y-46102459D01*
X41627590Y-46102459D02*
X42429025Y-46102459D01*
X42028308Y-47504969D02*
X42028308Y-46102459D01*
X47179344Y-47504969D02*
X47179344Y-46102459D01*
X47513275Y-46102459D01*
X47713633Y-46169245D01*
X47847206Y-46302817D01*
X47913992Y-46436390D01*
X47980778Y-46703535D01*
X47980778Y-46903893D01*
X47913992Y-47171038D01*
X47847206Y-47304610D01*
X47713633Y-47438183D01*
X47513275Y-47504969D01*
X47179344Y-47504969D01*
X48247923Y-47638541D02*
X49316502Y-47638541D01*
X49583647Y-47104252D02*
X50251509Y-47104252D01*
X49450074Y-47504969D02*
X49917578Y-46102459D01*
X50385081Y-47504969D01*
X51520446Y-47504969D02*
X50852584Y-47504969D01*
X50852584Y-46102459D01*
X51787590Y-46102459D02*
X52589025Y-46102459D01*
X52188308Y-47504969D02*
X52188308Y-46102459D01*
X37019344Y-57664969D02*
X37019344Y-56262459D01*
X37353275Y-56262459D01*
X37553633Y-56329245D01*
X37687206Y-56462817D01*
X37753992Y-56596390D01*
X37820778Y-56863535D01*
X37820778Y-57063893D01*
X37753992Y-57331038D01*
X37687206Y-57464610D01*
X37553633Y-57598183D01*
X37353275Y-57664969D01*
X37019344Y-57664969D01*
X38087923Y-57798541D02*
X39156502Y-57798541D01*
X39423647Y-57264252D02*
X40091509Y-57264252D01*
X39290074Y-57664969D02*
X39757578Y-56262459D01*
X40225081Y-57664969D01*
X41360446Y-57664969D02*
X40692584Y-57664969D01*
X40692584Y-56262459D01*
X41627590Y-56262459D02*
X42429025Y-56262459D01*
X42028308Y-57664969D02*
X42028308Y-56262459D01*
X47179344Y-57664969D02*
X47179344Y-56262459D01*
X47513275Y-56262459D01*
X47713633Y-56329245D01*
X47847206Y-56462817D01*
X47913992Y-56596390D01*
X47980778Y-56863535D01*
X47980778Y-57063893D01*
X47913992Y-57331038D01*
X47847206Y-57464610D01*
X47713633Y-57598183D01*
X47513275Y-57664969D01*
X47179344Y-57664969D01*
X48247923Y-57798541D02*
X49316502Y-57798541D01*
X49583647Y-57264252D02*
X50251509Y-57264252D01*
X49450074Y-57664969D02*
X49917578Y-56262459D01*
X50385081Y-57664969D01*
X51520446Y-57664969D02*
X50852584Y-57664969D01*
X50852584Y-56262459D01*
X51787590Y-56262459D02*
X52589025Y-56262459D01*
X52188308Y-57664969D02*
X52188308Y-56262459D01*
X37019344Y-67824969D02*
X37019344Y-66422459D01*
X37353275Y-66422459D01*
X37553633Y-66489245D01*
X37687206Y-66622817D01*
X37753992Y-66756390D01*
X37820778Y-67023535D01*
X37820778Y-67223893D01*
X37753992Y-67491038D01*
X37687206Y-67624610D01*
X37553633Y-67758183D01*
X37353275Y-67824969D01*
X37019344Y-67824969D01*
X38087923Y-67958541D02*
X39156502Y-67958541D01*
X39423647Y-67424252D02*
X40091509Y-67424252D01*
X39290074Y-67824969D02*
X39757578Y-66422459D01*
X40225081Y-67824969D01*
X41360446Y-67824969D02*
X40692584Y-67824969D01*
X40692584Y-66422459D01*
X41627590Y-66422459D02*
X42429025Y-66422459D01*
X42028308Y-67824969D02*
X42028308Y-66422459D01*
X47179344Y-67824969D02*
X47179344Y-66422459D01*
X47513275Y-66422459D01*
X47713633Y-66489245D01*
X47847206Y-66622817D01*
X47913992Y-66756390D01*
X47980778Y-67023535D01*
X47980778Y-67223893D01*
X47913992Y-67491038D01*
X47847206Y-67624610D01*
X47713633Y-67758183D01*
X47513275Y-67824969D01*
X47179344Y-67824969D01*
X48247923Y-67958541D02*
X49316502Y-67958541D01*
X49583647Y-67424252D02*
X50251509Y-67424252D01*
X49450074Y-67824969D02*
X49917578Y-66422459D01*
X50385081Y-67824969D01*
X51520446Y-67824969D02*
X50852584Y-67824969D01*
X50852584Y-66422459D01*
X51787590Y-66422459D02*
X52589025Y-66422459D01*
X52188308Y-67824969D02*
X52188308Y-66422459D01*
X37019344Y-77984969D02*
X37019344Y-76582459D01*
X37353275Y-76582459D01*
X37553633Y-76649245D01*
X37687206Y-76782817D01*
X37753992Y-76916390D01*
X37820778Y-77183535D01*
X37820778Y-77383893D01*
X37753992Y-77651038D01*
X37687206Y-77784610D01*
X37553633Y-77918183D01*
X37353275Y-77984969D01*
X37019344Y-77984969D01*
X38087923Y-78118541D02*
X39156502Y-78118541D01*
X39423647Y-77584252D02*
X40091509Y-77584252D01*
X39290074Y-77984969D02*
X39757578Y-76582459D01*
X40225081Y-77984969D01*
X41360446Y-77984969D02*
X40692584Y-77984969D01*
X40692584Y-76582459D01*
X41627590Y-76582459D02*
X42429025Y-76582459D01*
X42028308Y-77984969D02*
X42028308Y-76582459D01*
X47179344Y-77984969D02*
X47179344Y-76582459D01*
X47513275Y-76582459D01*
X47713633Y-76649245D01*
X47847206Y-76782817D01*
X47913992Y-76916390D01*
X47980778Y-77183535D01*
X47980778Y-77383893D01*
X47913992Y-77651038D01*
X47847206Y-77784610D01*
X47713633Y-77918183D01*
X47513275Y-77984969D01*
X47179344Y-77984969D01*
X48247923Y-78118541D02*
X49316502Y-78118541D01*
X49583647Y-77584252D02*
X50251509Y-77584252D01*
X49450074Y-77984969D02*
X49917578Y-76582459D01*
X50385081Y-77984969D01*
X51520446Y-77984969D02*
X50852584Y-77984969D01*
X50852584Y-76582459D01*
X51787590Y-76582459D02*
X52589025Y-76582459D01*
X52188308Y-77984969D02*
X52188308Y-76582459D01*
X37019344Y-87636969D02*
X37019344Y-86234459D01*
X37353275Y-86234459D01*
X37553633Y-86301245D01*
X37687206Y-86434817D01*
X37753992Y-86568390D01*
X37820778Y-86835535D01*
X37820778Y-87035893D01*
X37753992Y-87303038D01*
X37687206Y-87436610D01*
X37553633Y-87570183D01*
X37353275Y-87636969D01*
X37019344Y-87636969D01*
X38087923Y-87770541D02*
X39156502Y-87770541D01*
X39423647Y-87236252D02*
X40091509Y-87236252D01*
X39290074Y-87636969D02*
X39757578Y-86234459D01*
X40225081Y-87636969D01*
X41360446Y-87636969D02*
X40692584Y-87636969D01*
X40692584Y-86234459D01*
X41627590Y-86234459D02*
X42429025Y-86234459D01*
X42028308Y-87636969D02*
X42028308Y-86234459D01*
X47179344Y-87636969D02*
X47179344Y-86234459D01*
X47513275Y-86234459D01*
X47713633Y-86301245D01*
X47847206Y-86434817D01*
X47913992Y-86568390D01*
X47980778Y-86835535D01*
X47980778Y-87035893D01*
X47913992Y-87303038D01*
X47847206Y-87436610D01*
X47713633Y-87570183D01*
X47513275Y-87636969D01*
X47179344Y-87636969D01*
X48247923Y-87770541D02*
X49316502Y-87770541D01*
X49583647Y-87236252D02*
X50251509Y-87236252D01*
X49450074Y-87636969D02*
X49917578Y-86234459D01*
X50385081Y-87636969D01*
X51520446Y-87636969D02*
X50852584Y-87636969D01*
X50852584Y-86234459D01*
X51787590Y-86234459D02*
X52589025Y-86234459D01*
X52188308Y-87636969D02*
X52188308Y-86234459D01*
M02*
