G04 #@! TF.FileFunction,Copper,L2,Bot,Signal*
%FSLAX46Y46*%
G04 Gerber Fmt 4.6, Leading zero omitted, Abs format (unit mm)*
G04 Created by KiCad (PCBNEW 4.0.7) date 08/12/18 23:10:55*
%MOMM*%
%LPD*%
G01*
G04 APERTURE LIST*
%ADD10C,0.100000*%
%ADD11R,1.800000X1.800000*%
%ADD12C,1.800000*%
%ADD13R,3.000000X3.000000*%
%ADD14C,3.000000*%
%ADD15R,1.700000X1.700000*%
%ADD16O,1.700000X1.700000*%
%ADD17C,0.600000*%
%ADD18C,0.400000*%
%ADD19C,0.750000*%
G04 APERTURE END LIST*
D10*
D11*
X81280000Y-62484000D03*
D12*
X81280000Y-65024000D03*
D11*
X81280000Y-81788000D03*
D12*
X81280000Y-84328000D03*
D11*
X58928000Y-43688000D03*
D12*
X58928000Y-46228000D03*
D11*
X58928000Y-62484000D03*
D12*
X58928000Y-65024000D03*
D11*
X58928000Y-81788000D03*
D12*
X58928000Y-84328000D03*
D13*
X101346000Y-72136000D03*
D14*
X101346000Y-77216000D03*
X101346000Y-82296000D03*
D15*
X102616000Y-31496000D03*
D16*
X102616000Y-34036000D03*
X102616000Y-36576000D03*
X102616000Y-39116000D03*
X102616000Y-41656000D03*
X102616000Y-44196000D03*
D13*
X26670000Y-35560000D03*
D14*
X26670000Y-30480000D03*
D13*
X26670000Y-45720000D03*
D14*
X26670000Y-40640000D03*
D13*
X26670000Y-55880000D03*
D14*
X26670000Y-50800000D03*
D13*
X26670000Y-66040000D03*
D14*
X26670000Y-60960000D03*
D13*
X26670000Y-76200000D03*
D14*
X26670000Y-71120000D03*
D13*
X26670000Y-86360000D03*
D14*
X26670000Y-81280000D03*
D11*
X81280000Y-43688000D03*
D12*
X81280000Y-46228000D03*
D17*
X85344000Y-51308000D03*
X78994000Y-53848000D03*
X92964000Y-44704000D03*
X91948000Y-47244000D03*
X78232000Y-56642000D03*
X44704000Y-42672000D03*
X44196000Y-56388000D03*
X77470000Y-74930000D03*
X38354000Y-58928000D03*
X48006000Y-48006000D03*
X50800000Y-47244000D03*
X55372000Y-37846000D03*
X78232000Y-31242000D03*
X105664000Y-40640000D03*
X78486000Y-50038000D03*
X77978000Y-68834000D03*
X97028000Y-67818000D03*
X55372000Y-31242000D03*
X75438000Y-52578000D03*
X74168000Y-54102000D03*
X55880000Y-50038000D03*
X97790000Y-45974000D03*
X93472000Y-63754000D03*
X62738000Y-66802000D03*
X62738000Y-68834000D03*
X55626000Y-68834000D03*
X85344000Y-41910000D03*
X85090000Y-34036000D03*
X63246000Y-60452000D03*
X62992000Y-54102000D03*
X55372000Y-56134000D03*
X43434000Y-68580000D03*
X74930000Y-55880000D03*
X62484000Y-55118000D03*
X55880000Y-36068000D03*
X84836000Y-36322000D03*
X77216000Y-38100000D03*
X77978000Y-54864000D03*
X55626000Y-73914000D03*
X74422000Y-73914000D03*
X77978000Y-73914000D03*
X78740000Y-47244000D03*
X68072000Y-46736000D03*
X101346000Y-47752000D03*
X95758000Y-47244000D03*
X94488000Y-65532000D03*
X102108000Y-66294000D03*
D18*
X81788000Y-54864000D02*
X85344000Y-51308000D01*
X80010000Y-54864000D02*
X81788000Y-54864000D01*
X78994000Y-53848000D02*
X80010000Y-54864000D01*
X92964000Y-46228000D02*
X92964000Y-44704000D01*
X91948000Y-47244000D02*
X92964000Y-46228000D01*
X70358000Y-48768000D02*
X78232000Y-56642000D01*
X50800000Y-48768000D02*
X70358000Y-48768000D01*
X44704000Y-42672000D02*
X50800000Y-48768000D01*
X44196000Y-56388000D02*
X49784000Y-61976000D01*
X49784000Y-61976000D02*
X49784000Y-66294000D01*
X49784000Y-66294000D02*
X51054000Y-67564000D01*
X51054000Y-67564000D02*
X70104000Y-67564000D01*
X70104000Y-67564000D02*
X77470000Y-74930000D01*
X38354000Y-54610000D02*
X38354000Y-58928000D01*
X42926000Y-50038000D02*
X38354000Y-54610000D01*
X45974000Y-50038000D02*
X42926000Y-50038000D01*
X48006000Y-48006000D02*
X45974000Y-50038000D01*
X50800000Y-42418000D02*
X50800000Y-47244000D01*
X55372000Y-37846000D02*
X50800000Y-42418000D01*
X78486000Y-31496000D02*
X102616000Y-31496000D01*
X78232000Y-31242000D02*
X78486000Y-31496000D01*
X105664000Y-45212000D02*
X105664000Y-40640000D01*
X101600000Y-49276000D02*
X105664000Y-45212000D01*
X79248000Y-49276000D02*
X101600000Y-49276000D01*
X78486000Y-50038000D02*
X79248000Y-49276000D01*
X77978000Y-68834000D02*
X96012000Y-68834000D01*
X96012000Y-68834000D02*
X97028000Y-67818000D01*
X104140000Y-39116000D02*
X102616000Y-39116000D01*
X105918000Y-37338000D02*
X104140000Y-39116000D01*
X105918000Y-30480000D02*
X105918000Y-37338000D01*
X104140000Y-28702000D02*
X105918000Y-30480000D01*
X57912000Y-28702000D02*
X104140000Y-28702000D01*
X55372000Y-31242000D02*
X57912000Y-28702000D01*
X99568000Y-41656000D02*
X102616000Y-41656000D01*
X93218000Y-48006000D02*
X99568000Y-41656000D01*
X78232000Y-48006000D02*
X93218000Y-48006000D01*
X76962000Y-49276000D02*
X78232000Y-48006000D01*
X76962000Y-51054000D02*
X76962000Y-49276000D01*
X75438000Y-52578000D02*
X76962000Y-51054000D01*
X70358000Y-50292000D02*
X74168000Y-54102000D01*
X56134000Y-50292000D02*
X70358000Y-50292000D01*
X55880000Y-50038000D02*
X56134000Y-50292000D01*
X97790000Y-45974000D02*
X99568000Y-44196000D01*
X102616000Y-44196000D02*
X99568000Y-44196000D01*
X93472000Y-63754000D02*
X93218000Y-64008000D01*
X93218000Y-64008000D02*
X93472000Y-64008000D01*
X90678000Y-66548000D02*
X93218000Y-64008000D01*
X81788000Y-66548000D02*
X90678000Y-66548000D01*
X81534000Y-66802000D02*
X81788000Y-66548000D01*
X62738000Y-66802000D02*
X81534000Y-66802000D01*
X55626000Y-68834000D02*
X62738000Y-68834000D01*
X86360000Y-40894000D02*
X85344000Y-41910000D01*
X86360000Y-35306000D02*
X86360000Y-40894000D01*
X85090000Y-34036000D02*
X86360000Y-35306000D01*
X63246000Y-57912000D02*
X63246000Y-60452000D01*
X60960000Y-55626000D02*
X63246000Y-57912000D01*
X60960000Y-54864000D02*
X60960000Y-55626000D01*
X61722000Y-54102000D02*
X60960000Y-54864000D01*
X62992000Y-54102000D02*
X61722000Y-54102000D01*
X52070000Y-52832000D02*
X55372000Y-56134000D01*
X43180000Y-52832000D02*
X52070000Y-52832000D01*
X40132000Y-55880000D02*
X43180000Y-52832000D01*
X40132000Y-65278000D02*
X40132000Y-55880000D01*
X43434000Y-68580000D02*
X40132000Y-65278000D01*
D19*
X63246000Y-55880000D02*
X74930000Y-55880000D01*
X62484000Y-55118000D02*
X63246000Y-55880000D01*
X77216000Y-38100000D02*
X77216000Y-34036000D01*
X55880000Y-32766000D02*
X55880000Y-36068000D01*
X57658000Y-30988000D02*
X55880000Y-32766000D01*
X74168000Y-30988000D02*
X57658000Y-30988000D01*
X76708000Y-33528000D02*
X74168000Y-30988000D01*
X77216000Y-34036000D02*
X76708000Y-33528000D01*
X78994000Y-36322000D02*
X84836000Y-36322000D01*
X77216000Y-38100000D02*
X78994000Y-36322000D01*
X99314000Y-56388000D02*
X79502000Y-56388000D01*
X103886000Y-77216000D02*
X105156000Y-75946000D01*
X105156000Y-75946000D02*
X105156000Y-62230000D01*
X105156000Y-62230000D02*
X99314000Y-56388000D01*
X101346000Y-77216000D02*
X103886000Y-77216000D01*
X79502000Y-56388000D02*
X77978000Y-54864000D01*
X74422000Y-73914000D02*
X55626000Y-73914000D01*
X101346000Y-77216000D02*
X83058000Y-77216000D01*
X79756000Y-73914000D02*
X77978000Y-73914000D01*
X83058000Y-77216000D02*
X79756000Y-73914000D01*
D18*
X68580000Y-47244000D02*
X78740000Y-47244000D01*
X68072000Y-46736000D02*
X68580000Y-47244000D01*
X96266000Y-47752000D02*
X101346000Y-47752000D01*
X95758000Y-47244000D02*
X96266000Y-47752000D01*
X101346000Y-65532000D02*
X94488000Y-65532000D01*
X102108000Y-66294000D02*
X101346000Y-65532000D01*
M02*
