G04 #@! TF.FileFunction,Other,User*
%FSLAX46Y46*%
G04 Gerber Fmt 4.6, Leading zero omitted, Abs format (unit mm)*
G04 Created by KiCad (PCBNEW 4.0.7) date 08/12/18 23:10:55*
%MOMM*%
%LPD*%
G01*
G04 APERTURE LIST*
%ADD10C,0.100000*%
%ADD11C,0.050000*%
G04 APERTURE END LIST*
D10*
D11*
X84718000Y-42578000D02*
X89018000Y-42578000D01*
X84718000Y-42578000D02*
X84718000Y-44788000D01*
X89018000Y-44788000D02*
X89018000Y-42578000D01*
X89018000Y-44788000D02*
X84718000Y-44788000D01*
X89018000Y-47338000D02*
X84718000Y-47338000D01*
X89018000Y-47338000D02*
X89018000Y-45128000D01*
X84718000Y-45128000D02*
X84718000Y-47338000D01*
X84718000Y-45128000D02*
X89018000Y-45128000D01*
X84718000Y-61374000D02*
X89018000Y-61374000D01*
X84718000Y-61374000D02*
X84718000Y-63584000D01*
X89018000Y-63584000D02*
X89018000Y-61374000D01*
X89018000Y-63584000D02*
X84718000Y-63584000D01*
X89018000Y-66134000D02*
X84718000Y-66134000D01*
X89018000Y-66134000D02*
X89018000Y-63924000D01*
X84718000Y-63924000D02*
X84718000Y-66134000D01*
X84718000Y-63924000D02*
X89018000Y-63924000D01*
X89526000Y-85438000D02*
X85226000Y-85438000D01*
X89526000Y-85438000D02*
X89526000Y-83228000D01*
X85226000Y-83228000D02*
X85226000Y-85438000D01*
X85226000Y-83228000D02*
X89526000Y-83228000D01*
X67174000Y-47338000D02*
X62874000Y-47338000D01*
X67174000Y-47338000D02*
X67174000Y-45128000D01*
X62874000Y-45128000D02*
X62874000Y-47338000D01*
X62874000Y-45128000D02*
X67174000Y-45128000D01*
X67174000Y-66134000D02*
X62874000Y-66134000D01*
X67174000Y-66134000D02*
X67174000Y-63924000D01*
X62874000Y-63924000D02*
X62874000Y-66134000D01*
X62874000Y-63924000D02*
X67174000Y-63924000D01*
X67174000Y-85438000D02*
X62874000Y-85438000D01*
X67174000Y-85438000D02*
X67174000Y-83228000D01*
X62874000Y-83228000D02*
X62874000Y-85438000D01*
X62874000Y-83228000D02*
X67174000Y-83228000D01*
X85226000Y-80170000D02*
X89526000Y-80170000D01*
X85226000Y-80170000D02*
X85226000Y-82380000D01*
X89526000Y-82380000D02*
X89526000Y-80170000D01*
X89526000Y-82380000D02*
X85226000Y-82380000D01*
X62874000Y-42578000D02*
X67174000Y-42578000D01*
X62874000Y-42578000D02*
X62874000Y-44788000D01*
X67174000Y-44788000D02*
X67174000Y-42578000D01*
X67174000Y-44788000D02*
X62874000Y-44788000D01*
X62874000Y-61374000D02*
X67174000Y-61374000D01*
X62874000Y-61374000D02*
X62874000Y-63584000D01*
X67174000Y-63584000D02*
X67174000Y-61374000D01*
X67174000Y-63584000D02*
X62874000Y-63584000D01*
X62874000Y-80678000D02*
X67174000Y-80678000D01*
X62874000Y-80678000D02*
X62874000Y-82888000D01*
X67174000Y-82888000D02*
X67174000Y-80678000D01*
X67174000Y-82888000D02*
X62874000Y-82888000D01*
X79056000Y-29402000D02*
X79056000Y-40702000D01*
X79056000Y-40702000D02*
X95696000Y-40702000D01*
X95696000Y-40702000D02*
X95696000Y-29402000D01*
X95696000Y-29402000D02*
X79056000Y-29402000D01*
X79056000Y-48198000D02*
X79056000Y-59498000D01*
X79056000Y-59498000D02*
X95696000Y-59498000D01*
X95696000Y-59498000D02*
X95696000Y-48198000D01*
X95696000Y-48198000D02*
X79056000Y-48198000D01*
X79056000Y-66994000D02*
X79056000Y-78294000D01*
X79056000Y-78294000D02*
X95696000Y-78294000D01*
X95696000Y-78294000D02*
X95696000Y-66994000D01*
X95696000Y-66994000D02*
X79056000Y-66994000D01*
X56704000Y-29402000D02*
X56704000Y-40702000D01*
X56704000Y-40702000D02*
X73344000Y-40702000D01*
X73344000Y-40702000D02*
X73344000Y-29402000D01*
X73344000Y-29402000D02*
X56704000Y-29402000D01*
X56704000Y-48198000D02*
X56704000Y-59498000D01*
X56704000Y-59498000D02*
X73344000Y-59498000D01*
X73344000Y-59498000D02*
X73344000Y-48198000D01*
X73344000Y-48198000D02*
X56704000Y-48198000D01*
X56704000Y-66994000D02*
X56704000Y-78294000D01*
X56704000Y-78294000D02*
X73344000Y-78294000D01*
X73344000Y-78294000D02*
X73344000Y-66994000D01*
X73344000Y-66994000D02*
X56704000Y-66994000D01*
X83530000Y-61334000D02*
X79030000Y-61334000D01*
X79030000Y-61334000D02*
X79030000Y-66184000D01*
X79030000Y-66184000D02*
X83530000Y-66184000D01*
X83530000Y-66184000D02*
X83530000Y-61334000D01*
X83530000Y-80638000D02*
X79030000Y-80638000D01*
X79030000Y-80638000D02*
X79030000Y-85488000D01*
X79030000Y-85488000D02*
X83530000Y-85488000D01*
X83530000Y-85488000D02*
X83530000Y-80638000D01*
X61178000Y-42538000D02*
X56678000Y-42538000D01*
X56678000Y-42538000D02*
X56678000Y-47388000D01*
X56678000Y-47388000D02*
X61178000Y-47388000D01*
X61178000Y-47388000D02*
X61178000Y-42538000D01*
X61178000Y-61334000D02*
X56678000Y-61334000D01*
X56678000Y-61334000D02*
X56678000Y-66184000D01*
X56678000Y-66184000D02*
X61178000Y-66184000D01*
X61178000Y-66184000D02*
X61178000Y-61334000D01*
X61178000Y-80638000D02*
X56678000Y-80638000D01*
X56678000Y-80638000D02*
X56678000Y-85488000D01*
X56678000Y-85488000D02*
X61178000Y-85488000D01*
X61178000Y-85488000D02*
X61178000Y-80638000D01*
X105346000Y-69416000D02*
X105346000Y-85016000D01*
X105346000Y-69416000D02*
X97346000Y-69416000D01*
X97346000Y-85016000D02*
X105346000Y-85016000D01*
X97346000Y-85016000D02*
X97346000Y-69416000D01*
X100816000Y-29696000D02*
X100816000Y-45996000D01*
X100816000Y-45996000D02*
X104416000Y-45996000D01*
X104416000Y-45996000D02*
X104416000Y-29696000D01*
X104416000Y-29696000D02*
X100816000Y-29696000D01*
X22670000Y-38270000D02*
X22670000Y-27770000D01*
X22670000Y-38270000D02*
X30670000Y-38270000D01*
X30670000Y-27770000D02*
X22670000Y-27770000D01*
X30670000Y-27770000D02*
X30670000Y-38270000D01*
X22670000Y-48430000D02*
X22670000Y-37930000D01*
X22670000Y-48430000D02*
X30670000Y-48430000D01*
X30670000Y-37930000D02*
X22670000Y-37930000D01*
X30670000Y-37930000D02*
X30670000Y-48430000D01*
X22670000Y-58590000D02*
X22670000Y-48090000D01*
X22670000Y-58590000D02*
X30670000Y-58590000D01*
X30670000Y-48090000D02*
X22670000Y-48090000D01*
X30670000Y-48090000D02*
X30670000Y-58590000D01*
X22670000Y-68750000D02*
X22670000Y-58250000D01*
X22670000Y-68750000D02*
X30670000Y-68750000D01*
X30670000Y-58250000D02*
X22670000Y-58250000D01*
X30670000Y-58250000D02*
X30670000Y-68750000D01*
X22670000Y-78910000D02*
X22670000Y-68410000D01*
X22670000Y-78910000D02*
X30670000Y-78910000D01*
X30670000Y-68410000D02*
X22670000Y-68410000D01*
X30670000Y-68410000D02*
X30670000Y-78910000D01*
X22670000Y-89070000D02*
X22670000Y-78570000D01*
X22670000Y-89070000D02*
X30670000Y-89070000D01*
X30670000Y-78570000D02*
X22670000Y-78570000D01*
X30670000Y-78570000D02*
X30670000Y-89070000D01*
X83530000Y-42538000D02*
X79030000Y-42538000D01*
X79030000Y-42538000D02*
X79030000Y-47388000D01*
X79030000Y-47388000D02*
X83530000Y-47388000D01*
X83530000Y-47388000D02*
X83530000Y-42538000D01*
M02*
