G04 #@! TF.FileFunction,Other,Fab,Top*
%FSLAX46Y46*%
G04 Gerber Fmt 4.6, Leading zero omitted, Abs format (unit mm)*
G04 Created by KiCad (PCBNEW 4.0.7) date 08/12/18 23:32:44*
%MOMM*%
%LPD*%
G01*
G04 APERTURE LIST*
%ADD10C,0.100000*%
%ADD11C,0.150000*%
%ADD12C,0.105000*%
G04 APERTURE END LIST*
D10*
X85268000Y-44488000D02*
X85268000Y-42888000D01*
X88468000Y-44488000D02*
X85268000Y-44488000D01*
X88468000Y-42888000D02*
X88468000Y-44488000D01*
X85268000Y-42888000D02*
X88468000Y-42888000D01*
X88468000Y-45428000D02*
X88468000Y-47028000D01*
X85268000Y-45428000D02*
X88468000Y-45428000D01*
X85268000Y-47028000D02*
X85268000Y-45428000D01*
X88468000Y-47028000D02*
X85268000Y-47028000D01*
X85268000Y-63284000D02*
X85268000Y-61684000D01*
X88468000Y-63284000D02*
X85268000Y-63284000D01*
X88468000Y-61684000D02*
X88468000Y-63284000D01*
X85268000Y-61684000D02*
X88468000Y-61684000D01*
X88468000Y-64224000D02*
X88468000Y-65824000D01*
X85268000Y-64224000D02*
X88468000Y-64224000D01*
X85268000Y-65824000D02*
X85268000Y-64224000D01*
X88468000Y-65824000D02*
X85268000Y-65824000D01*
X88976000Y-83528000D02*
X88976000Y-85128000D01*
X85776000Y-83528000D02*
X88976000Y-83528000D01*
X85776000Y-85128000D02*
X85776000Y-83528000D01*
X88976000Y-85128000D02*
X85776000Y-85128000D01*
X66624000Y-45428000D02*
X66624000Y-47028000D01*
X63424000Y-45428000D02*
X66624000Y-45428000D01*
X63424000Y-47028000D02*
X63424000Y-45428000D01*
X66624000Y-47028000D02*
X63424000Y-47028000D01*
X66624000Y-64224000D02*
X66624000Y-65824000D01*
X63424000Y-64224000D02*
X66624000Y-64224000D01*
X63424000Y-65824000D02*
X63424000Y-64224000D01*
X66624000Y-65824000D02*
X63424000Y-65824000D01*
X66624000Y-83528000D02*
X66624000Y-85128000D01*
X63424000Y-83528000D02*
X66624000Y-83528000D01*
X63424000Y-85128000D02*
X63424000Y-83528000D01*
X66624000Y-85128000D02*
X63424000Y-85128000D01*
X85776000Y-82080000D02*
X85776000Y-80480000D01*
X88976000Y-82080000D02*
X85776000Y-82080000D01*
X88976000Y-80480000D02*
X88976000Y-82080000D01*
X85776000Y-80480000D02*
X88976000Y-80480000D01*
X63424000Y-44488000D02*
X63424000Y-42888000D01*
X66624000Y-44488000D02*
X63424000Y-44488000D01*
X66624000Y-42888000D02*
X66624000Y-44488000D01*
X63424000Y-42888000D02*
X66624000Y-42888000D01*
X63424000Y-63284000D02*
X63424000Y-61684000D01*
X66624000Y-63284000D02*
X63424000Y-63284000D01*
X66624000Y-61684000D02*
X66624000Y-63284000D01*
X63424000Y-61684000D02*
X66624000Y-61684000D01*
X63424000Y-82588000D02*
X63424000Y-80988000D01*
X66624000Y-82588000D02*
X63424000Y-82588000D01*
X66624000Y-80988000D02*
X66624000Y-82588000D01*
X63424000Y-80988000D02*
X66624000Y-80988000D01*
X93876000Y-30052000D02*
X94876000Y-30052000D01*
X94876000Y-30052000D02*
X94876000Y-40052000D01*
X94876000Y-40052000D02*
X93876000Y-40052000D01*
X93876000Y-30052000D02*
X93876000Y-40052000D01*
X93876000Y-40052000D02*
X84626000Y-40052000D01*
X84626000Y-40052000D02*
X84626000Y-31052000D01*
X84626000Y-31052000D02*
X85626000Y-30052000D01*
X85626000Y-30052000D02*
X93876000Y-30052000D01*
X84736000Y-30942000D02*
X79926000Y-30942000D01*
X79926000Y-30942000D02*
X79926000Y-31542000D01*
X79926000Y-31542000D02*
X84626000Y-31542000D01*
X84626000Y-32212000D02*
X79926000Y-32212000D01*
X79926000Y-32212000D02*
X79926000Y-32812000D01*
X79926000Y-32812000D02*
X84626000Y-32812000D01*
X84626000Y-33482000D02*
X79926000Y-33482000D01*
X79926000Y-33482000D02*
X79926000Y-34082000D01*
X79926000Y-34082000D02*
X84626000Y-34082000D01*
X84626000Y-34752000D02*
X79926000Y-34752000D01*
X79926000Y-34752000D02*
X79926000Y-35352000D01*
X79926000Y-35352000D02*
X84626000Y-35352000D01*
X84626000Y-36022000D02*
X79926000Y-36022000D01*
X79926000Y-36022000D02*
X79926000Y-36622000D01*
X79926000Y-36622000D02*
X84626000Y-36622000D01*
X84626000Y-37292000D02*
X79926000Y-37292000D01*
X79926000Y-37292000D02*
X79926000Y-37892000D01*
X79926000Y-37892000D02*
X84626000Y-37892000D01*
X84626000Y-38562000D02*
X79926000Y-38562000D01*
X79926000Y-38562000D02*
X79926000Y-39162000D01*
X79926000Y-39162000D02*
X84626000Y-39162000D01*
X93876000Y-48848000D02*
X94876000Y-48848000D01*
X94876000Y-48848000D02*
X94876000Y-58848000D01*
X94876000Y-58848000D02*
X93876000Y-58848000D01*
X93876000Y-48848000D02*
X93876000Y-58848000D01*
X93876000Y-58848000D02*
X84626000Y-58848000D01*
X84626000Y-58848000D02*
X84626000Y-49848000D01*
X84626000Y-49848000D02*
X85626000Y-48848000D01*
X85626000Y-48848000D02*
X93876000Y-48848000D01*
X84736000Y-49738000D02*
X79926000Y-49738000D01*
X79926000Y-49738000D02*
X79926000Y-50338000D01*
X79926000Y-50338000D02*
X84626000Y-50338000D01*
X84626000Y-51008000D02*
X79926000Y-51008000D01*
X79926000Y-51008000D02*
X79926000Y-51608000D01*
X79926000Y-51608000D02*
X84626000Y-51608000D01*
X84626000Y-52278000D02*
X79926000Y-52278000D01*
X79926000Y-52278000D02*
X79926000Y-52878000D01*
X79926000Y-52878000D02*
X84626000Y-52878000D01*
X84626000Y-53548000D02*
X79926000Y-53548000D01*
X79926000Y-53548000D02*
X79926000Y-54148000D01*
X79926000Y-54148000D02*
X84626000Y-54148000D01*
X84626000Y-54818000D02*
X79926000Y-54818000D01*
X79926000Y-54818000D02*
X79926000Y-55418000D01*
X79926000Y-55418000D02*
X84626000Y-55418000D01*
X84626000Y-56088000D02*
X79926000Y-56088000D01*
X79926000Y-56088000D02*
X79926000Y-56688000D01*
X79926000Y-56688000D02*
X84626000Y-56688000D01*
X84626000Y-57358000D02*
X79926000Y-57358000D01*
X79926000Y-57358000D02*
X79926000Y-57958000D01*
X79926000Y-57958000D02*
X84626000Y-57958000D01*
X93876000Y-67644000D02*
X94876000Y-67644000D01*
X94876000Y-67644000D02*
X94876000Y-77644000D01*
X94876000Y-77644000D02*
X93876000Y-77644000D01*
X93876000Y-67644000D02*
X93876000Y-77644000D01*
X93876000Y-77644000D02*
X84626000Y-77644000D01*
X84626000Y-77644000D02*
X84626000Y-68644000D01*
X84626000Y-68644000D02*
X85626000Y-67644000D01*
X85626000Y-67644000D02*
X93876000Y-67644000D01*
X84736000Y-68534000D02*
X79926000Y-68534000D01*
X79926000Y-68534000D02*
X79926000Y-69134000D01*
X79926000Y-69134000D02*
X84626000Y-69134000D01*
X84626000Y-69804000D02*
X79926000Y-69804000D01*
X79926000Y-69804000D02*
X79926000Y-70404000D01*
X79926000Y-70404000D02*
X84626000Y-70404000D01*
X84626000Y-71074000D02*
X79926000Y-71074000D01*
X79926000Y-71074000D02*
X79926000Y-71674000D01*
X79926000Y-71674000D02*
X84626000Y-71674000D01*
X84626000Y-72344000D02*
X79926000Y-72344000D01*
X79926000Y-72344000D02*
X79926000Y-72944000D01*
X79926000Y-72944000D02*
X84626000Y-72944000D01*
X84626000Y-73614000D02*
X79926000Y-73614000D01*
X79926000Y-73614000D02*
X79926000Y-74214000D01*
X79926000Y-74214000D02*
X84626000Y-74214000D01*
X84626000Y-74884000D02*
X79926000Y-74884000D01*
X79926000Y-74884000D02*
X79926000Y-75484000D01*
X79926000Y-75484000D02*
X84626000Y-75484000D01*
X84626000Y-76154000D02*
X79926000Y-76154000D01*
X79926000Y-76154000D02*
X79926000Y-76754000D01*
X79926000Y-76754000D02*
X84626000Y-76754000D01*
X71524000Y-30052000D02*
X72524000Y-30052000D01*
X72524000Y-30052000D02*
X72524000Y-40052000D01*
X72524000Y-40052000D02*
X71524000Y-40052000D01*
X71524000Y-30052000D02*
X71524000Y-40052000D01*
X71524000Y-40052000D02*
X62274000Y-40052000D01*
X62274000Y-40052000D02*
X62274000Y-31052000D01*
X62274000Y-31052000D02*
X63274000Y-30052000D01*
X63274000Y-30052000D02*
X71524000Y-30052000D01*
X62384000Y-30942000D02*
X57574000Y-30942000D01*
X57574000Y-30942000D02*
X57574000Y-31542000D01*
X57574000Y-31542000D02*
X62274000Y-31542000D01*
X62274000Y-32212000D02*
X57574000Y-32212000D01*
X57574000Y-32212000D02*
X57574000Y-32812000D01*
X57574000Y-32812000D02*
X62274000Y-32812000D01*
X62274000Y-33482000D02*
X57574000Y-33482000D01*
X57574000Y-33482000D02*
X57574000Y-34082000D01*
X57574000Y-34082000D02*
X62274000Y-34082000D01*
X62274000Y-34752000D02*
X57574000Y-34752000D01*
X57574000Y-34752000D02*
X57574000Y-35352000D01*
X57574000Y-35352000D02*
X62274000Y-35352000D01*
X62274000Y-36022000D02*
X57574000Y-36022000D01*
X57574000Y-36022000D02*
X57574000Y-36622000D01*
X57574000Y-36622000D02*
X62274000Y-36622000D01*
X62274000Y-37292000D02*
X57574000Y-37292000D01*
X57574000Y-37292000D02*
X57574000Y-37892000D01*
X57574000Y-37892000D02*
X62274000Y-37892000D01*
X62274000Y-38562000D02*
X57574000Y-38562000D01*
X57574000Y-38562000D02*
X57574000Y-39162000D01*
X57574000Y-39162000D02*
X62274000Y-39162000D01*
X71524000Y-48848000D02*
X72524000Y-48848000D01*
X72524000Y-48848000D02*
X72524000Y-58848000D01*
X72524000Y-58848000D02*
X71524000Y-58848000D01*
X71524000Y-48848000D02*
X71524000Y-58848000D01*
X71524000Y-58848000D02*
X62274000Y-58848000D01*
X62274000Y-58848000D02*
X62274000Y-49848000D01*
X62274000Y-49848000D02*
X63274000Y-48848000D01*
X63274000Y-48848000D02*
X71524000Y-48848000D01*
X62384000Y-49738000D02*
X57574000Y-49738000D01*
X57574000Y-49738000D02*
X57574000Y-50338000D01*
X57574000Y-50338000D02*
X62274000Y-50338000D01*
X62274000Y-51008000D02*
X57574000Y-51008000D01*
X57574000Y-51008000D02*
X57574000Y-51608000D01*
X57574000Y-51608000D02*
X62274000Y-51608000D01*
X62274000Y-52278000D02*
X57574000Y-52278000D01*
X57574000Y-52278000D02*
X57574000Y-52878000D01*
X57574000Y-52878000D02*
X62274000Y-52878000D01*
X62274000Y-53548000D02*
X57574000Y-53548000D01*
X57574000Y-53548000D02*
X57574000Y-54148000D01*
X57574000Y-54148000D02*
X62274000Y-54148000D01*
X62274000Y-54818000D02*
X57574000Y-54818000D01*
X57574000Y-54818000D02*
X57574000Y-55418000D01*
X57574000Y-55418000D02*
X62274000Y-55418000D01*
X62274000Y-56088000D02*
X57574000Y-56088000D01*
X57574000Y-56088000D02*
X57574000Y-56688000D01*
X57574000Y-56688000D02*
X62274000Y-56688000D01*
X62274000Y-57358000D02*
X57574000Y-57358000D01*
X57574000Y-57358000D02*
X57574000Y-57958000D01*
X57574000Y-57958000D02*
X62274000Y-57958000D01*
X71524000Y-67644000D02*
X72524000Y-67644000D01*
X72524000Y-67644000D02*
X72524000Y-77644000D01*
X72524000Y-77644000D02*
X71524000Y-77644000D01*
X71524000Y-67644000D02*
X71524000Y-77644000D01*
X71524000Y-77644000D02*
X62274000Y-77644000D01*
X62274000Y-77644000D02*
X62274000Y-68644000D01*
X62274000Y-68644000D02*
X63274000Y-67644000D01*
X63274000Y-67644000D02*
X71524000Y-67644000D01*
X62384000Y-68534000D02*
X57574000Y-68534000D01*
X57574000Y-68534000D02*
X57574000Y-69134000D01*
X57574000Y-69134000D02*
X62274000Y-69134000D01*
X62274000Y-69804000D02*
X57574000Y-69804000D01*
X57574000Y-69804000D02*
X57574000Y-70404000D01*
X57574000Y-70404000D02*
X62274000Y-70404000D01*
X62274000Y-71074000D02*
X57574000Y-71074000D01*
X57574000Y-71074000D02*
X57574000Y-71674000D01*
X57574000Y-71674000D02*
X62274000Y-71674000D01*
X62274000Y-72344000D02*
X57574000Y-72344000D01*
X57574000Y-72344000D02*
X57574000Y-72944000D01*
X57574000Y-72944000D02*
X62274000Y-72944000D01*
X62274000Y-73614000D02*
X57574000Y-73614000D01*
X57574000Y-73614000D02*
X57574000Y-74214000D01*
X57574000Y-74214000D02*
X62274000Y-74214000D01*
X62274000Y-74884000D02*
X57574000Y-74884000D01*
X57574000Y-74884000D02*
X57574000Y-75484000D01*
X57574000Y-75484000D02*
X62274000Y-75484000D01*
X62274000Y-76154000D02*
X57574000Y-76154000D01*
X57574000Y-76154000D02*
X57574000Y-76754000D01*
X57574000Y-76754000D02*
X62274000Y-76754000D01*
X80114524Y-62253445D02*
G75*
G03X82446190Y-62254000I1165476J-1500555D01*
G01*
X82780000Y-63754000D02*
G75*
G03X82780000Y-63754000I-1500000J0D01*
G01*
X82446190Y-62254000D02*
X80113810Y-62254000D01*
X80114524Y-81557445D02*
G75*
G03X82446190Y-81558000I1165476J-1500555D01*
G01*
X82780000Y-83058000D02*
G75*
G03X82780000Y-83058000I-1500000J0D01*
G01*
X82446190Y-81558000D02*
X80113810Y-81558000D01*
X57762524Y-43457445D02*
G75*
G03X60094190Y-43458000I1165476J-1500555D01*
G01*
X60428000Y-44958000D02*
G75*
G03X60428000Y-44958000I-1500000J0D01*
G01*
X60094190Y-43458000D02*
X57761810Y-43458000D01*
X57762524Y-62253445D02*
G75*
G03X60094190Y-62254000I1165476J-1500555D01*
G01*
X60428000Y-63754000D02*
G75*
G03X60428000Y-63754000I-1500000J0D01*
G01*
X60094190Y-62254000D02*
X57761810Y-62254000D01*
X57762524Y-81557445D02*
G75*
G03X60094190Y-81558000I1165476J-1500555D01*
G01*
X60428000Y-83058000D02*
G75*
G03X60428000Y-83058000I-1500000J0D01*
G01*
X60094190Y-81558000D02*
X57761810Y-81558000D01*
X98796000Y-69666000D02*
X98796000Y-84766000D01*
X105096000Y-69666000D02*
X105096000Y-84766000D01*
X105096000Y-84766000D02*
X97596000Y-84766000D01*
X97596000Y-84766000D02*
X97596000Y-69666000D01*
X97596000Y-69666000D02*
X105096000Y-69666000D01*
X101981000Y-30226000D02*
X103886000Y-30226000D01*
X103886000Y-30226000D02*
X103886000Y-45466000D01*
X103886000Y-45466000D02*
X101346000Y-45466000D01*
X101346000Y-45466000D02*
X101346000Y-30861000D01*
X101346000Y-30861000D02*
X101981000Y-30226000D01*
X29220000Y-37970000D02*
X29220000Y-28070000D01*
X22920000Y-38020000D02*
X30420000Y-38020000D01*
X30420000Y-38020000D02*
X30420000Y-28020000D01*
X30420000Y-28020000D02*
X22920000Y-28020000D01*
X22920000Y-28020000D02*
X22920000Y-38020000D01*
X29220000Y-48130000D02*
X29220000Y-38230000D01*
X22920000Y-48180000D02*
X30420000Y-48180000D01*
X30420000Y-48180000D02*
X30420000Y-38180000D01*
X30420000Y-38180000D02*
X22920000Y-38180000D01*
X22920000Y-38180000D02*
X22920000Y-48180000D01*
X29220000Y-58290000D02*
X29220000Y-48390000D01*
X22920000Y-58340000D02*
X30420000Y-58340000D01*
X30420000Y-58340000D02*
X30420000Y-48340000D01*
X30420000Y-48340000D02*
X22920000Y-48340000D01*
X22920000Y-48340000D02*
X22920000Y-58340000D01*
X29220000Y-68450000D02*
X29220000Y-58550000D01*
X22920000Y-68500000D02*
X30420000Y-68500000D01*
X30420000Y-68500000D02*
X30420000Y-58500000D01*
X30420000Y-58500000D02*
X22920000Y-58500000D01*
X22920000Y-58500000D02*
X22920000Y-68500000D01*
X29220000Y-78610000D02*
X29220000Y-68710000D01*
X22920000Y-78660000D02*
X30420000Y-78660000D01*
X30420000Y-78660000D02*
X30420000Y-68660000D01*
X30420000Y-68660000D02*
X22920000Y-68660000D01*
X22920000Y-68660000D02*
X22920000Y-78660000D01*
X29220000Y-88770000D02*
X29220000Y-78870000D01*
X22920000Y-88820000D02*
X30420000Y-88820000D01*
X30420000Y-88820000D02*
X30420000Y-78820000D01*
X30420000Y-78820000D02*
X22920000Y-78820000D01*
X22920000Y-78820000D02*
X22920000Y-88820000D01*
X80114524Y-43457445D02*
G75*
G03X82446190Y-43458000I1165476J-1500555D01*
G01*
X82780000Y-44958000D02*
G75*
G03X82780000Y-44958000I-1500000J0D01*
G01*
X82446190Y-43458000D02*
X80113810Y-43458000D01*
D11*
X86653715Y-45423714D02*
X86653715Y-46090381D01*
X86415619Y-45042762D02*
X86177524Y-45757048D01*
X86796572Y-45757048D01*
X87177524Y-46090381D02*
X87177524Y-45090381D01*
X87272762Y-45709429D02*
X87558477Y-46090381D01*
X87558477Y-45423714D02*
X87177524Y-45804667D01*
D12*
X86751334Y-44004667D02*
X86518000Y-43671333D01*
X86351334Y-44004667D02*
X86351334Y-43304667D01*
X86618000Y-43304667D01*
X86684667Y-43338000D01*
X86718000Y-43371333D01*
X86751334Y-43438000D01*
X86751334Y-43538000D01*
X86718000Y-43604667D01*
X86684667Y-43638000D01*
X86618000Y-43671333D01*
X86351334Y-43671333D01*
X87418000Y-44004667D02*
X87018000Y-44004667D01*
X87218000Y-44004667D02*
X87218000Y-43304667D01*
X87151334Y-43404667D01*
X87084667Y-43471333D01*
X87018000Y-43504667D01*
D11*
X86606096Y-43730381D02*
X86129905Y-43730381D01*
X86082286Y-44206571D01*
X86129905Y-44158952D01*
X86225143Y-44111333D01*
X86463239Y-44111333D01*
X86558477Y-44158952D01*
X86606096Y-44206571D01*
X86653715Y-44301810D01*
X86653715Y-44539905D01*
X86606096Y-44635143D01*
X86558477Y-44682762D01*
X86463239Y-44730381D01*
X86225143Y-44730381D01*
X86129905Y-44682762D01*
X86082286Y-44635143D01*
X87082286Y-44730381D02*
X87082286Y-43730381D01*
X87653715Y-44730381D02*
X87225143Y-44158952D01*
X87653715Y-43730381D02*
X87082286Y-44301810D01*
D12*
X86751334Y-46544667D02*
X86518000Y-46211333D01*
X86351334Y-46544667D02*
X86351334Y-45844667D01*
X86618000Y-45844667D01*
X86684667Y-45878000D01*
X86718000Y-45911333D01*
X86751334Y-45978000D01*
X86751334Y-46078000D01*
X86718000Y-46144667D01*
X86684667Y-46178000D01*
X86618000Y-46211333D01*
X86351334Y-46211333D01*
X87018000Y-45911333D02*
X87051334Y-45878000D01*
X87118000Y-45844667D01*
X87284667Y-45844667D01*
X87351334Y-45878000D01*
X87384667Y-45911333D01*
X87418000Y-45978000D01*
X87418000Y-46044667D01*
X87384667Y-46144667D01*
X86984667Y-46544667D01*
X87418000Y-46544667D01*
D11*
X86653715Y-64219714D02*
X86653715Y-64886381D01*
X86415619Y-63838762D02*
X86177524Y-64553048D01*
X86796572Y-64553048D01*
X87177524Y-64886381D02*
X87177524Y-63886381D01*
X87272762Y-64505429D02*
X87558477Y-64886381D01*
X87558477Y-64219714D02*
X87177524Y-64600667D01*
D12*
X86751334Y-62800667D02*
X86518000Y-62467333D01*
X86351334Y-62800667D02*
X86351334Y-62100667D01*
X86618000Y-62100667D01*
X86684667Y-62134000D01*
X86718000Y-62167333D01*
X86751334Y-62234000D01*
X86751334Y-62334000D01*
X86718000Y-62400667D01*
X86684667Y-62434000D01*
X86618000Y-62467333D01*
X86351334Y-62467333D01*
X86984667Y-62100667D02*
X87418000Y-62100667D01*
X87184667Y-62367333D01*
X87284667Y-62367333D01*
X87351334Y-62400667D01*
X87384667Y-62434000D01*
X87418000Y-62500667D01*
X87418000Y-62667333D01*
X87384667Y-62734000D01*
X87351334Y-62767333D01*
X87284667Y-62800667D01*
X87084667Y-62800667D01*
X87018000Y-62767333D01*
X86984667Y-62734000D01*
D11*
X86606096Y-62526381D02*
X86129905Y-62526381D01*
X86082286Y-63002571D01*
X86129905Y-62954952D01*
X86225143Y-62907333D01*
X86463239Y-62907333D01*
X86558477Y-62954952D01*
X86606096Y-63002571D01*
X86653715Y-63097810D01*
X86653715Y-63335905D01*
X86606096Y-63431143D01*
X86558477Y-63478762D01*
X86463239Y-63526381D01*
X86225143Y-63526381D01*
X86129905Y-63478762D01*
X86082286Y-63431143D01*
X87082286Y-63526381D02*
X87082286Y-62526381D01*
X87653715Y-63526381D02*
X87225143Y-62954952D01*
X87653715Y-62526381D02*
X87082286Y-63097810D01*
D12*
X86751334Y-65340667D02*
X86518000Y-65007333D01*
X86351334Y-65340667D02*
X86351334Y-64640667D01*
X86618000Y-64640667D01*
X86684667Y-64674000D01*
X86718000Y-64707333D01*
X86751334Y-64774000D01*
X86751334Y-64874000D01*
X86718000Y-64940667D01*
X86684667Y-64974000D01*
X86618000Y-65007333D01*
X86351334Y-65007333D01*
X87351334Y-64874000D02*
X87351334Y-65340667D01*
X87184667Y-64607333D02*
X87018000Y-65107333D01*
X87451334Y-65107333D01*
D11*
X87114096Y-81830381D02*
X86637905Y-81830381D01*
X86590286Y-82306571D01*
X86637905Y-82258952D01*
X86733143Y-82211333D01*
X86971239Y-82211333D01*
X87066477Y-82258952D01*
X87114096Y-82306571D01*
X87161715Y-82401810D01*
X87161715Y-82639905D01*
X87114096Y-82735143D01*
X87066477Y-82782762D01*
X86971239Y-82830381D01*
X86733143Y-82830381D01*
X86637905Y-82782762D01*
X86590286Y-82735143D01*
X87590286Y-82830381D02*
X87590286Y-81830381D01*
X88161715Y-82830381D02*
X87733143Y-82258952D01*
X88161715Y-81830381D02*
X87590286Y-82401810D01*
D12*
X87259334Y-84644667D02*
X87026000Y-84311333D01*
X86859334Y-84644667D02*
X86859334Y-83944667D01*
X87126000Y-83944667D01*
X87192667Y-83978000D01*
X87226000Y-84011333D01*
X87259334Y-84078000D01*
X87259334Y-84178000D01*
X87226000Y-84244667D01*
X87192667Y-84278000D01*
X87126000Y-84311333D01*
X86859334Y-84311333D01*
X87892667Y-83944667D02*
X87559334Y-83944667D01*
X87526000Y-84278000D01*
X87559334Y-84244667D01*
X87626000Y-84211333D01*
X87792667Y-84211333D01*
X87859334Y-84244667D01*
X87892667Y-84278000D01*
X87926000Y-84344667D01*
X87926000Y-84511333D01*
X87892667Y-84578000D01*
X87859334Y-84611333D01*
X87792667Y-84644667D01*
X87626000Y-84644667D01*
X87559334Y-84611333D01*
X87526000Y-84578000D01*
D11*
X64762096Y-43730381D02*
X64285905Y-43730381D01*
X64238286Y-44206571D01*
X64285905Y-44158952D01*
X64381143Y-44111333D01*
X64619239Y-44111333D01*
X64714477Y-44158952D01*
X64762096Y-44206571D01*
X64809715Y-44301810D01*
X64809715Y-44539905D01*
X64762096Y-44635143D01*
X64714477Y-44682762D01*
X64619239Y-44730381D01*
X64381143Y-44730381D01*
X64285905Y-44682762D01*
X64238286Y-44635143D01*
X65238286Y-44730381D02*
X65238286Y-43730381D01*
X65809715Y-44730381D02*
X65381143Y-44158952D01*
X65809715Y-43730381D02*
X65238286Y-44301810D01*
D12*
X64907334Y-46544667D02*
X64674000Y-46211333D01*
X64507334Y-46544667D02*
X64507334Y-45844667D01*
X64774000Y-45844667D01*
X64840667Y-45878000D01*
X64874000Y-45911333D01*
X64907334Y-45978000D01*
X64907334Y-46078000D01*
X64874000Y-46144667D01*
X64840667Y-46178000D01*
X64774000Y-46211333D01*
X64507334Y-46211333D01*
X65507334Y-45844667D02*
X65374000Y-45844667D01*
X65307334Y-45878000D01*
X65274000Y-45911333D01*
X65207334Y-46011333D01*
X65174000Y-46144667D01*
X65174000Y-46411333D01*
X65207334Y-46478000D01*
X65240667Y-46511333D01*
X65307334Y-46544667D01*
X65440667Y-46544667D01*
X65507334Y-46511333D01*
X65540667Y-46478000D01*
X65574000Y-46411333D01*
X65574000Y-46244667D01*
X65540667Y-46178000D01*
X65507334Y-46144667D01*
X65440667Y-46111333D01*
X65307334Y-46111333D01*
X65240667Y-46144667D01*
X65207334Y-46178000D01*
X65174000Y-46244667D01*
D11*
X64762096Y-62526381D02*
X64285905Y-62526381D01*
X64238286Y-63002571D01*
X64285905Y-62954952D01*
X64381143Y-62907333D01*
X64619239Y-62907333D01*
X64714477Y-62954952D01*
X64762096Y-63002571D01*
X64809715Y-63097810D01*
X64809715Y-63335905D01*
X64762096Y-63431143D01*
X64714477Y-63478762D01*
X64619239Y-63526381D01*
X64381143Y-63526381D01*
X64285905Y-63478762D01*
X64238286Y-63431143D01*
X65238286Y-63526381D02*
X65238286Y-62526381D01*
X65809715Y-63526381D02*
X65381143Y-62954952D01*
X65809715Y-62526381D02*
X65238286Y-63097810D01*
D12*
X64907334Y-65340667D02*
X64674000Y-65007333D01*
X64507334Y-65340667D02*
X64507334Y-64640667D01*
X64774000Y-64640667D01*
X64840667Y-64674000D01*
X64874000Y-64707333D01*
X64907334Y-64774000D01*
X64907334Y-64874000D01*
X64874000Y-64940667D01*
X64840667Y-64974000D01*
X64774000Y-65007333D01*
X64507334Y-65007333D01*
X65140667Y-64640667D02*
X65607334Y-64640667D01*
X65307334Y-65340667D01*
D11*
X64762096Y-81830381D02*
X64285905Y-81830381D01*
X64238286Y-82306571D01*
X64285905Y-82258952D01*
X64381143Y-82211333D01*
X64619239Y-82211333D01*
X64714477Y-82258952D01*
X64762096Y-82306571D01*
X64809715Y-82401810D01*
X64809715Y-82639905D01*
X64762096Y-82735143D01*
X64714477Y-82782762D01*
X64619239Y-82830381D01*
X64381143Y-82830381D01*
X64285905Y-82782762D01*
X64238286Y-82735143D01*
X65238286Y-82830381D02*
X65238286Y-81830381D01*
X65809715Y-82830381D02*
X65381143Y-82258952D01*
X65809715Y-81830381D02*
X65238286Y-82401810D01*
D12*
X64907334Y-84644667D02*
X64674000Y-84311333D01*
X64507334Y-84644667D02*
X64507334Y-83944667D01*
X64774000Y-83944667D01*
X64840667Y-83978000D01*
X64874000Y-84011333D01*
X64907334Y-84078000D01*
X64907334Y-84178000D01*
X64874000Y-84244667D01*
X64840667Y-84278000D01*
X64774000Y-84311333D01*
X64507334Y-84311333D01*
X65307334Y-84244667D02*
X65240667Y-84211333D01*
X65207334Y-84178000D01*
X65174000Y-84111333D01*
X65174000Y-84078000D01*
X65207334Y-84011333D01*
X65240667Y-83978000D01*
X65307334Y-83944667D01*
X65440667Y-83944667D01*
X65507334Y-83978000D01*
X65540667Y-84011333D01*
X65574000Y-84078000D01*
X65574000Y-84111333D01*
X65540667Y-84178000D01*
X65507334Y-84211333D01*
X65440667Y-84244667D01*
X65307334Y-84244667D01*
X65240667Y-84278000D01*
X65207334Y-84311333D01*
X65174000Y-84378000D01*
X65174000Y-84511333D01*
X65207334Y-84578000D01*
X65240667Y-84611333D01*
X65307334Y-84644667D01*
X65440667Y-84644667D01*
X65507334Y-84611333D01*
X65540667Y-84578000D01*
X65574000Y-84511333D01*
X65574000Y-84378000D01*
X65540667Y-84311333D01*
X65507334Y-84278000D01*
X65440667Y-84244667D01*
D11*
X87161715Y-83015714D02*
X87161715Y-83682381D01*
X86923619Y-82634762D02*
X86685524Y-83349048D01*
X87304572Y-83349048D01*
X87685524Y-83682381D02*
X87685524Y-82682381D01*
X87780762Y-83301429D02*
X88066477Y-83682381D01*
X88066477Y-83015714D02*
X87685524Y-83396667D01*
D12*
X87259334Y-81596667D02*
X87026000Y-81263333D01*
X86859334Y-81596667D02*
X86859334Y-80896667D01*
X87126000Y-80896667D01*
X87192667Y-80930000D01*
X87226000Y-80963333D01*
X87259334Y-81030000D01*
X87259334Y-81130000D01*
X87226000Y-81196667D01*
X87192667Y-81230000D01*
X87126000Y-81263333D01*
X86859334Y-81263333D01*
X87592667Y-81596667D02*
X87726000Y-81596667D01*
X87792667Y-81563333D01*
X87826000Y-81530000D01*
X87892667Y-81430000D01*
X87926000Y-81296667D01*
X87926000Y-81030000D01*
X87892667Y-80963333D01*
X87859334Y-80930000D01*
X87792667Y-80896667D01*
X87659334Y-80896667D01*
X87592667Y-80930000D01*
X87559334Y-80963333D01*
X87526000Y-81030000D01*
X87526000Y-81196667D01*
X87559334Y-81263333D01*
X87592667Y-81296667D01*
X87659334Y-81330000D01*
X87792667Y-81330000D01*
X87859334Y-81296667D01*
X87892667Y-81263333D01*
X87926000Y-81196667D01*
D11*
X64809715Y-45423714D02*
X64809715Y-46090381D01*
X64571619Y-45042762D02*
X64333524Y-45757048D01*
X64952572Y-45757048D01*
X65333524Y-46090381D02*
X65333524Y-45090381D01*
X65428762Y-45709429D02*
X65714477Y-46090381D01*
X65714477Y-45423714D02*
X65333524Y-45804667D01*
D12*
X64574000Y-44004667D02*
X64340666Y-43671333D01*
X64174000Y-44004667D02*
X64174000Y-43304667D01*
X64440666Y-43304667D01*
X64507333Y-43338000D01*
X64540666Y-43371333D01*
X64574000Y-43438000D01*
X64574000Y-43538000D01*
X64540666Y-43604667D01*
X64507333Y-43638000D01*
X64440666Y-43671333D01*
X64174000Y-43671333D01*
X65240666Y-44004667D02*
X64840666Y-44004667D01*
X65040666Y-44004667D02*
X65040666Y-43304667D01*
X64974000Y-43404667D01*
X64907333Y-43471333D01*
X64840666Y-43504667D01*
X65674000Y-43304667D02*
X65740667Y-43304667D01*
X65807333Y-43338000D01*
X65840667Y-43371333D01*
X65874000Y-43438000D01*
X65907333Y-43571333D01*
X65907333Y-43738000D01*
X65874000Y-43871333D01*
X65840667Y-43938000D01*
X65807333Y-43971333D01*
X65740667Y-44004667D01*
X65674000Y-44004667D01*
X65607333Y-43971333D01*
X65574000Y-43938000D01*
X65540667Y-43871333D01*
X65507333Y-43738000D01*
X65507333Y-43571333D01*
X65540667Y-43438000D01*
X65574000Y-43371333D01*
X65607333Y-43338000D01*
X65674000Y-43304667D01*
D11*
X64809715Y-64219714D02*
X64809715Y-64886381D01*
X64571619Y-63838762D02*
X64333524Y-64553048D01*
X64952572Y-64553048D01*
X65333524Y-64886381D02*
X65333524Y-63886381D01*
X65428762Y-64505429D02*
X65714477Y-64886381D01*
X65714477Y-64219714D02*
X65333524Y-64600667D01*
D12*
X64574000Y-62800667D02*
X64340666Y-62467333D01*
X64174000Y-62800667D02*
X64174000Y-62100667D01*
X64440666Y-62100667D01*
X64507333Y-62134000D01*
X64540666Y-62167333D01*
X64574000Y-62234000D01*
X64574000Y-62334000D01*
X64540666Y-62400667D01*
X64507333Y-62434000D01*
X64440666Y-62467333D01*
X64174000Y-62467333D01*
X65240666Y-62800667D02*
X64840666Y-62800667D01*
X65040666Y-62800667D02*
X65040666Y-62100667D01*
X64974000Y-62200667D01*
X64907333Y-62267333D01*
X64840666Y-62300667D01*
X65907333Y-62800667D02*
X65507333Y-62800667D01*
X65707333Y-62800667D02*
X65707333Y-62100667D01*
X65640667Y-62200667D01*
X65574000Y-62267333D01*
X65507333Y-62300667D01*
D11*
X64809715Y-83523714D02*
X64809715Y-84190381D01*
X64571619Y-83142762D02*
X64333524Y-83857048D01*
X64952572Y-83857048D01*
X65333524Y-84190381D02*
X65333524Y-83190381D01*
X65428762Y-83809429D02*
X65714477Y-84190381D01*
X65714477Y-83523714D02*
X65333524Y-83904667D01*
D12*
X64574000Y-82104667D02*
X64340666Y-81771333D01*
X64174000Y-82104667D02*
X64174000Y-81404667D01*
X64440666Y-81404667D01*
X64507333Y-81438000D01*
X64540666Y-81471333D01*
X64574000Y-81538000D01*
X64574000Y-81638000D01*
X64540666Y-81704667D01*
X64507333Y-81738000D01*
X64440666Y-81771333D01*
X64174000Y-81771333D01*
X65240666Y-82104667D02*
X64840666Y-82104667D01*
X65040666Y-82104667D02*
X65040666Y-81404667D01*
X64974000Y-81504667D01*
X64907333Y-81571333D01*
X64840666Y-81604667D01*
X65474000Y-81404667D02*
X65907333Y-81404667D01*
X65674000Y-81671333D01*
X65774000Y-81671333D01*
X65840667Y-81704667D01*
X65874000Y-81738000D01*
X65907333Y-81804667D01*
X65907333Y-81971333D01*
X65874000Y-82038000D01*
X65840667Y-82071333D01*
X65774000Y-82104667D01*
X65574000Y-82104667D01*
X65507333Y-82071333D01*
X65474000Y-82038000D01*
D11*
X86614095Y-34504381D02*
X86614095Y-35313905D01*
X86661714Y-35409143D01*
X86709333Y-35456762D01*
X86804571Y-35504381D01*
X86995048Y-35504381D01*
X87090286Y-35456762D01*
X87137905Y-35409143D01*
X87185524Y-35313905D01*
X87185524Y-34504381D01*
X88185524Y-35504381D02*
X87614095Y-35504381D01*
X87899809Y-35504381D02*
X87899809Y-34504381D01*
X87804571Y-34647238D01*
X87709333Y-34742476D01*
X87614095Y-34790095D01*
X86614095Y-53300381D02*
X86614095Y-54109905D01*
X86661714Y-54205143D01*
X86709333Y-54252762D01*
X86804571Y-54300381D01*
X86995048Y-54300381D01*
X87090286Y-54252762D01*
X87137905Y-54205143D01*
X87185524Y-54109905D01*
X87185524Y-53300381D01*
X87614095Y-53395619D02*
X87661714Y-53348000D01*
X87756952Y-53300381D01*
X87995048Y-53300381D01*
X88090286Y-53348000D01*
X88137905Y-53395619D01*
X88185524Y-53490857D01*
X88185524Y-53586095D01*
X88137905Y-53728952D01*
X87566476Y-54300381D01*
X88185524Y-54300381D01*
X86614095Y-72096381D02*
X86614095Y-72905905D01*
X86661714Y-73001143D01*
X86709333Y-73048762D01*
X86804571Y-73096381D01*
X86995048Y-73096381D01*
X87090286Y-73048762D01*
X87137905Y-73001143D01*
X87185524Y-72905905D01*
X87185524Y-72096381D01*
X88090286Y-72429714D02*
X88090286Y-73096381D01*
X87852190Y-72048762D02*
X87614095Y-72763048D01*
X88233143Y-72763048D01*
X64262095Y-34504381D02*
X64262095Y-35313905D01*
X64309714Y-35409143D01*
X64357333Y-35456762D01*
X64452571Y-35504381D01*
X64643048Y-35504381D01*
X64738286Y-35456762D01*
X64785905Y-35409143D01*
X64833524Y-35313905D01*
X64833524Y-34504381D01*
X65785905Y-34504381D02*
X65309714Y-34504381D01*
X65262095Y-34980571D01*
X65309714Y-34932952D01*
X65404952Y-34885333D01*
X65643048Y-34885333D01*
X65738286Y-34932952D01*
X65785905Y-34980571D01*
X65833524Y-35075810D01*
X65833524Y-35313905D01*
X65785905Y-35409143D01*
X65738286Y-35456762D01*
X65643048Y-35504381D01*
X65404952Y-35504381D01*
X65309714Y-35456762D01*
X65262095Y-35409143D01*
X64262095Y-53300381D02*
X64262095Y-54109905D01*
X64309714Y-54205143D01*
X64357333Y-54252762D01*
X64452571Y-54300381D01*
X64643048Y-54300381D01*
X64738286Y-54252762D01*
X64785905Y-54205143D01*
X64833524Y-54109905D01*
X64833524Y-53300381D01*
X65738286Y-53300381D02*
X65547809Y-53300381D01*
X65452571Y-53348000D01*
X65404952Y-53395619D01*
X65309714Y-53538476D01*
X65262095Y-53728952D01*
X65262095Y-54109905D01*
X65309714Y-54205143D01*
X65357333Y-54252762D01*
X65452571Y-54300381D01*
X65643048Y-54300381D01*
X65738286Y-54252762D01*
X65785905Y-54205143D01*
X65833524Y-54109905D01*
X65833524Y-53871810D01*
X65785905Y-53776571D01*
X65738286Y-53728952D01*
X65643048Y-53681333D01*
X65452571Y-53681333D01*
X65357333Y-53728952D01*
X65309714Y-53776571D01*
X65262095Y-53871810D01*
X64262095Y-72096381D02*
X64262095Y-72905905D01*
X64309714Y-73001143D01*
X64357333Y-73048762D01*
X64452571Y-73096381D01*
X64643048Y-73096381D01*
X64738286Y-73048762D01*
X64785905Y-73001143D01*
X64833524Y-72905905D01*
X64833524Y-72096381D01*
X65214476Y-72096381D02*
X65881143Y-72096381D01*
X65452571Y-73096381D01*
X78772381Y-64396857D02*
X78772381Y-64873048D01*
X77772381Y-64873048D01*
X78248571Y-64063524D02*
X78248571Y-63730190D01*
X78772381Y-63587333D02*
X78772381Y-64063524D01*
X77772381Y-64063524D01*
X77772381Y-63587333D01*
X78772381Y-63158762D02*
X77772381Y-63158762D01*
X77772381Y-62920667D01*
X77820000Y-62777809D01*
X77915238Y-62682571D01*
X78010476Y-62634952D01*
X78200952Y-62587333D01*
X78343810Y-62587333D01*
X78534286Y-62634952D01*
X78629524Y-62682571D01*
X78724762Y-62777809D01*
X78772381Y-62920667D01*
X78772381Y-63158762D01*
X78772381Y-83700857D02*
X78772381Y-84177048D01*
X77772381Y-84177048D01*
X78248571Y-83367524D02*
X78248571Y-83034190D01*
X78772381Y-82891333D02*
X78772381Y-83367524D01*
X77772381Y-83367524D01*
X77772381Y-82891333D01*
X78772381Y-82462762D02*
X77772381Y-82462762D01*
X77772381Y-82224667D01*
X77820000Y-82081809D01*
X77915238Y-81986571D01*
X78010476Y-81938952D01*
X78200952Y-81891333D01*
X78343810Y-81891333D01*
X78534286Y-81938952D01*
X78629524Y-81986571D01*
X78724762Y-82081809D01*
X78772381Y-82224667D01*
X78772381Y-82462762D01*
X56420381Y-45600857D02*
X56420381Y-46077048D01*
X55420381Y-46077048D01*
X55896571Y-45267524D02*
X55896571Y-44934190D01*
X56420381Y-44791333D02*
X56420381Y-45267524D01*
X55420381Y-45267524D01*
X55420381Y-44791333D01*
X56420381Y-44362762D02*
X55420381Y-44362762D01*
X55420381Y-44124667D01*
X55468000Y-43981809D01*
X55563238Y-43886571D01*
X55658476Y-43838952D01*
X55848952Y-43791333D01*
X55991810Y-43791333D01*
X56182286Y-43838952D01*
X56277524Y-43886571D01*
X56372762Y-43981809D01*
X56420381Y-44124667D01*
X56420381Y-44362762D01*
X56420381Y-64396857D02*
X56420381Y-64873048D01*
X55420381Y-64873048D01*
X55896571Y-64063524D02*
X55896571Y-63730190D01*
X56420381Y-63587333D02*
X56420381Y-64063524D01*
X55420381Y-64063524D01*
X55420381Y-63587333D01*
X56420381Y-63158762D02*
X55420381Y-63158762D01*
X55420381Y-62920667D01*
X55468000Y-62777809D01*
X55563238Y-62682571D01*
X55658476Y-62634952D01*
X55848952Y-62587333D01*
X55991810Y-62587333D01*
X56182286Y-62634952D01*
X56277524Y-62682571D01*
X56372762Y-62777809D01*
X56420381Y-62920667D01*
X56420381Y-63158762D01*
X56420381Y-83700857D02*
X56420381Y-84177048D01*
X55420381Y-84177048D01*
X55896571Y-83367524D02*
X55896571Y-83034190D01*
X56420381Y-82891333D02*
X56420381Y-83367524D01*
X55420381Y-83367524D01*
X55420381Y-82891333D01*
X56420381Y-82462762D02*
X55420381Y-82462762D01*
X55420381Y-82224667D01*
X55468000Y-82081809D01*
X55563238Y-81986571D01*
X55658476Y-81938952D01*
X55848952Y-81891333D01*
X55991810Y-81891333D01*
X56182286Y-81938952D01*
X56277524Y-81986571D01*
X56372762Y-82081809D01*
X56420381Y-82224667D01*
X56420381Y-82462762D01*
X100798381Y-77549333D02*
X101512667Y-77549333D01*
X101655524Y-77596953D01*
X101750762Y-77692191D01*
X101798381Y-77835048D01*
X101798381Y-77930286D01*
X100893619Y-77120762D02*
X100846000Y-77073143D01*
X100798381Y-76977905D01*
X100798381Y-76739809D01*
X100846000Y-76644571D01*
X100893619Y-76596952D01*
X100988857Y-76549333D01*
X101084095Y-76549333D01*
X101226952Y-76596952D01*
X101798381Y-77168381D01*
X101798381Y-76549333D01*
X102068381Y-38179333D02*
X102782667Y-38179333D01*
X102925524Y-38226953D01*
X103020762Y-38322191D01*
X103068381Y-38465048D01*
X103068381Y-38560286D01*
X103068381Y-37179333D02*
X103068381Y-37750762D01*
X103068381Y-37465048D02*
X102068381Y-37465048D01*
X102211238Y-37560286D01*
X102306476Y-37655524D01*
X102354095Y-37750762D01*
X26122381Y-33353333D02*
X26836667Y-33353333D01*
X26979524Y-33400953D01*
X27074762Y-33496191D01*
X27122381Y-33639048D01*
X27122381Y-33734286D01*
X26455714Y-32448571D02*
X27122381Y-32448571D01*
X26074762Y-32686667D02*
X26789048Y-32924762D01*
X26789048Y-32305714D01*
X26122381Y-43513333D02*
X26836667Y-43513333D01*
X26979524Y-43560953D01*
X27074762Y-43656191D01*
X27122381Y-43799048D01*
X27122381Y-43894286D01*
X26122381Y-42560952D02*
X26122381Y-43037143D01*
X26598571Y-43084762D01*
X26550952Y-43037143D01*
X26503333Y-42941905D01*
X26503333Y-42703809D01*
X26550952Y-42608571D01*
X26598571Y-42560952D01*
X26693810Y-42513333D01*
X26931905Y-42513333D01*
X27027143Y-42560952D01*
X27074762Y-42608571D01*
X27122381Y-42703809D01*
X27122381Y-42941905D01*
X27074762Y-43037143D01*
X27027143Y-43084762D01*
X26122381Y-53673333D02*
X26836667Y-53673333D01*
X26979524Y-53720953D01*
X27074762Y-53816191D01*
X27122381Y-53959048D01*
X27122381Y-54054286D01*
X26122381Y-52768571D02*
X26122381Y-52959048D01*
X26170000Y-53054286D01*
X26217619Y-53101905D01*
X26360476Y-53197143D01*
X26550952Y-53244762D01*
X26931905Y-53244762D01*
X27027143Y-53197143D01*
X27074762Y-53149524D01*
X27122381Y-53054286D01*
X27122381Y-52863809D01*
X27074762Y-52768571D01*
X27027143Y-52720952D01*
X26931905Y-52673333D01*
X26693810Y-52673333D01*
X26598571Y-52720952D01*
X26550952Y-52768571D01*
X26503333Y-52863809D01*
X26503333Y-53054286D01*
X26550952Y-53149524D01*
X26598571Y-53197143D01*
X26693810Y-53244762D01*
X26122381Y-63833333D02*
X26836667Y-63833333D01*
X26979524Y-63880953D01*
X27074762Y-63976191D01*
X27122381Y-64119048D01*
X27122381Y-64214286D01*
X26122381Y-63452381D02*
X26122381Y-62785714D01*
X27122381Y-63214286D01*
X26122381Y-73993333D02*
X26836667Y-73993333D01*
X26979524Y-74040953D01*
X27074762Y-74136191D01*
X27122381Y-74279048D01*
X27122381Y-74374286D01*
X26550952Y-73374286D02*
X26503333Y-73469524D01*
X26455714Y-73517143D01*
X26360476Y-73564762D01*
X26312857Y-73564762D01*
X26217619Y-73517143D01*
X26170000Y-73469524D01*
X26122381Y-73374286D01*
X26122381Y-73183809D01*
X26170000Y-73088571D01*
X26217619Y-73040952D01*
X26312857Y-72993333D01*
X26360476Y-72993333D01*
X26455714Y-73040952D01*
X26503333Y-73088571D01*
X26550952Y-73183809D01*
X26550952Y-73374286D01*
X26598571Y-73469524D01*
X26646190Y-73517143D01*
X26741429Y-73564762D01*
X26931905Y-73564762D01*
X27027143Y-73517143D01*
X27074762Y-73469524D01*
X27122381Y-73374286D01*
X27122381Y-73183809D01*
X27074762Y-73088571D01*
X27027143Y-73040952D01*
X26931905Y-72993333D01*
X26741429Y-72993333D01*
X26646190Y-73040952D01*
X26598571Y-73088571D01*
X26550952Y-73183809D01*
X26122381Y-84153333D02*
X26836667Y-84153333D01*
X26979524Y-84200953D01*
X27074762Y-84296191D01*
X27122381Y-84439048D01*
X27122381Y-84534286D01*
X27122381Y-83629524D02*
X27122381Y-83439048D01*
X27074762Y-83343809D01*
X27027143Y-83296190D01*
X26884286Y-83200952D01*
X26693810Y-83153333D01*
X26312857Y-83153333D01*
X26217619Y-83200952D01*
X26170000Y-83248571D01*
X26122381Y-83343809D01*
X26122381Y-83534286D01*
X26170000Y-83629524D01*
X26217619Y-83677143D01*
X26312857Y-83724762D01*
X26550952Y-83724762D01*
X26646190Y-83677143D01*
X26693810Y-83629524D01*
X26741429Y-83534286D01*
X26741429Y-83343809D01*
X26693810Y-83248571D01*
X26646190Y-83200952D01*
X26550952Y-83153333D01*
X78772381Y-45600857D02*
X78772381Y-46077048D01*
X77772381Y-46077048D01*
X78248571Y-45267524D02*
X78248571Y-44934190D01*
X78772381Y-44791333D02*
X78772381Y-45267524D01*
X77772381Y-45267524D01*
X77772381Y-44791333D01*
X78772381Y-44362762D02*
X77772381Y-44362762D01*
X77772381Y-44124667D01*
X77820000Y-43981809D01*
X77915238Y-43886571D01*
X78010476Y-43838952D01*
X78200952Y-43791333D01*
X78343810Y-43791333D01*
X78534286Y-43838952D01*
X78629524Y-43886571D01*
X78724762Y-43981809D01*
X78772381Y-44124667D01*
X78772381Y-44362762D01*
M02*
