M48
;DRILL file {KiCad 4.0.6} date 12/07/17 19:14:28
;FORMAT={-:-/ absolute / metric / decimal}
FMAT,2
METRIC,TZ
T1C0.400
T2C0.810
T3C1.000
T4C1.097
T5C2.300
T6C1.100
%
G90
G05
M71
T1
X37.164Y-79.836
X37.592Y-82.169
X38.862Y-105.029
X39.497Y-108.839
X43.942Y-108.204
X44.304Y-110.099
X45.847Y-112.014
X52.197Y-96.774
X52.197Y-101.854
X52.197Y-109.474
X52.832Y-86.614
X52.832Y-87.884
X52.832Y-95.504
X52.832Y-103.124
X53.467Y-113.284
X55.266Y-102.294
X57.277Y-120.269
X58.547Y-100.584
X59.817Y-86.614
X60.405Y-91.567
X60.452Y-85.979
X60.452Y-85.979
X60.452Y-100.584
X61.087Y-105.664
X61.722Y-92.329
X61.722Y-96.774
X61.722Y-114.554
X64.262Y-109.474
X64.262Y-110.744
X64.897Y-112.014
X66.802Y-91.694
X66.802Y-101.854
X66.802Y-113.284
X67.437Y-104.424
X68.072Y-105.029
X69.977Y-118.364
X71.205Y-106.092
X71.247Y-106.934
X71.247Y-108.839
X73.787Y-106.299
X73.787Y-113.284
X79.502Y-98.044
X79.502Y-99.314
X80.137Y-122.174
X83.832Y-110.744
X84.582Y-88.519
X90.297Y-125.984
X92.837Y-105.664
X99.187Y-118.999
X120.65Y-101.346
X120.904Y-102.489
X121.158Y-87.884
X121.793Y-87.249
X124.206Y-68.58
X124.333Y-92.583
X125.095Y-83.566
X125.095Y-87.503
X125.857Y-101.473
X127.889Y-95.504
X128.905Y-107.442
X130.048Y-77.47
X130.175Y-96.647
X130.302Y-92.456
X131.699Y-95.25
X133.858Y-108.839
X133.985Y-86.614
X135.89Y-101.473
X138.938Y-99.949
X139.319Y-73.152
X139.827Y-89.916
X139.954Y-98.171
X140.081Y-102.743
X173.99Y-100.711
X174.244Y-101.854
X174.498Y-87.249
X175.133Y-86.614
X177.673Y-91.948
X177.8Y-68.707
X178.435Y-82.931
X178.435Y-86.868
X179.197Y-100.838
X181.229Y-94.869
X182.245Y-106.807
X183.388Y-76.835
X183.515Y-96.012
X183.642Y-91.821
X185.039Y-94.615
X187.198Y-108.204
X187.325Y-85.979
X189.23Y-100.838
X192.278Y-99.314
X192.659Y-72.517
X193.167Y-89.281
X193.294Y-97.536
X193.421Y-102.108
X227.203Y-101.092
X227.457Y-102.235
X227.711Y-87.63
X228.346Y-86.995
X230.886Y-92.329
X231.013Y-69.596
X231.648Y-83.312
X231.648Y-87.249
X232.41Y-101.219
X234.442Y-95.25
X235.458Y-107.188
X236.601Y-77.216
X236.728Y-96.393
X236.855Y-92.202
X238.252Y-94.996
X240.411Y-108.585
X240.538Y-86.36
X242.443Y-101.219
X245.491Y-99.695
X245.872Y-72.898
X246.38Y-89.662
X246.507Y-97.917
X246.634Y-102.489
T2
X95.027Y-117.474
X95.027Y-119.474
X97.567Y-117.474
X97.567Y-119.474
T3
X40.767Y-74.549
X40.767Y-77.089
X40.767Y-79.629
X40.767Y-82.169
X40.767Y-84.709
X40.767Y-87.249
X40.767Y-89.789
X40.767Y-92.329
X40.767Y-94.869
X41.402Y-99.949
X41.402Y-102.489
X41.402Y-105.029
X41.402Y-107.569
X41.402Y-110.109
X41.402Y-112.649
X41.402Y-115.189
X41.402Y-117.729
X41.402Y-120.269
X45.847Y-72.009
X47.117Y-113.919
X47.117Y-116.459
X47.117Y-118.999
X47.117Y-121.539
X47.117Y-124.079
X47.117Y-126.619
X47.117Y-129.159
X47.117Y-131.699
X48.387Y-72.009
X50.927Y-72.009
X53.467Y-72.009
X56.007Y-72.009
X58.547Y-72.009
X61.087Y-72.009
X63.627Y-72.009
X66.167Y-72.009
X68.707Y-72.009
X73.787Y-67.564
X73.787Y-70.104
X73.787Y-72.644
X73.787Y-75.184
X73.787Y-77.724
X73.787Y-80.264
X73.787Y-82.804
X73.787Y-85.344
X87.122Y-68.199
X87.122Y-70.739
X87.122Y-73.279
X87.122Y-75.819
X87.122Y-78.359
X87.122Y-80.899
X87.122Y-83.439
X87.122Y-85.979
X87.122Y-88.519
X87.122Y-91.059
X109.982Y-90.424
X109.982Y-92.964
X109.982Y-95.504
X109.982Y-98.044
X119.507Y-68.326
X120.777Y-117.856
X122.047Y-68.326
X123.317Y-117.856
X125.857Y-117.856
X128.397Y-117.856
X137.795Y-117.856
X140.335Y-117.856
X152.527Y-91.186
X152.527Y-93.726
X152.527Y-96.266
X152.527Y-98.806
X160.147Y-90.551
X160.147Y-93.091
X160.147Y-95.631
X160.147Y-98.171
X172.847Y-67.691
X174.117Y-117.221
X175.387Y-67.691
X176.657Y-117.221
X179.197Y-117.221
X181.737Y-117.221
X191.135Y-117.221
X193.675Y-117.221
X205.867Y-90.551
X205.867Y-93.091
X205.867Y-95.631
X205.867Y-98.171
X213.36Y-90.932
X213.36Y-93.472
X213.36Y-96.012
X213.36Y-98.552
X226.06Y-68.072
X227.33Y-117.602
X228.6Y-68.072
X229.87Y-117.602
X232.41Y-117.602
X234.95Y-117.602
X244.348Y-117.602
X246.888Y-117.602
X259.08Y-90.932
X259.08Y-93.472
X259.08Y-96.012
X259.08Y-98.552
T4
X127.127Y-72.136
X129.667Y-72.136
X134.239Y-70.739
X136.779Y-70.739
X180.467Y-71.501
X183.007Y-71.501
X187.579Y-70.104
X190.119Y-70.104
X233.68Y-71.882
X236.22Y-71.882
X240.792Y-70.485
X243.332Y-70.485
T5
X90.297Y-122.174
X102.297Y-122.174
T6
X127.127Y-69.596
X129.667Y-69.596
X134.239Y-73.279
X136.779Y-73.279
X180.467Y-68.961
X183.007Y-68.961
X187.579Y-72.644
X190.119Y-72.644
X233.68Y-69.342
X236.22Y-69.342
X240.792Y-73.025
X243.332Y-73.025
T0
M30
